%TF.GenerationSoftware,KiCad,Pcbnew,8.0.1*%
%TF.CreationDate,2024-04-03T21:47:25-07:00*%
%TF.ProjectId,Bluetooth_OSHW,426c7565-746f-46f7-9468-5f4f5348572e,rev?*%
%TF.SameCoordinates,Original*%
%TF.FileFunction,Copper,L1,Top*%
%TF.FilePolarity,Positive*%
%FSLAX46Y46*%
G04 Gerber Fmt 4.6, Leading zero omitted, Abs format (unit mm)*
G04 Created by KiCad (PCBNEW 8.0.1) date 2024-04-03 21:47:25*
%MOMM*%
%LPD*%
G01*
G04 APERTURE LIST*
G04 Aperture macros list*
%AMRoundRect*
0 Rectangle with rounded corners*
0 $1 Rounding radius*
0 $2 $3 $4 $5 $6 $7 $8 $9 X,Y pos of 4 corners*
0 Add a 4 corners polygon primitive as box body*
4,1,4,$2,$3,$4,$5,$6,$7,$8,$9,$2,$3,0*
0 Add four circle primitives for the rounded corners*
1,1,$1+$1,$2,$3*
1,1,$1+$1,$4,$5*
1,1,$1+$1,$6,$7*
1,1,$1+$1,$8,$9*
0 Add four rect primitives between the rounded corners*
20,1,$1+$1,$2,$3,$4,$5,0*
20,1,$1+$1,$4,$5,$6,$7,0*
20,1,$1+$1,$6,$7,$8,$9,0*
20,1,$1+$1,$8,$9,$2,$3,0*%
%AMFreePoly0*
4,1,10,-0.450000,0.185000,0.450000,0.185000,0.450000,0.435000,1.200000,0.435000,1.200000,-0.235000,-1.000000,-0.235000,-1.200000,-0.035000,-1.200000,0.435000,-0.450000,0.435000,-0.450000,0.185000,-0.450000,0.185000,$1*%
%AMFreePoly1*
4,1,10,-0.450000,0.185000,0.450000,0.185000,0.450000,0.435000,1.200000,0.435000,1.200000,-0.035000,1.000000,-0.235000,-1.200000,-0.235000,-1.200000,0.435000,-0.450000,0.435000,-0.450000,0.185000,-0.450000,0.185000,$1*%
G04 Aperture macros list end*
%ADD10C,0.100000*%
%ADD11C,0.150000*%
%ADD12C,0.300000*%
%ADD13C,0.400000*%
%TA.AperFunction,EtchedComponent*%
%ADD14C,0.254000*%
%TD*%
%TA.AperFunction,SMDPad,CuDef*%
%ADD15RoundRect,0.063500X-0.063500X0.063500X-0.063500X-0.063500X0.063500X-0.063500X0.063500X0.063500X0*%
%TD*%
%TA.AperFunction,SMDPad,CuDef*%
%ADD16RoundRect,0.100000X0.130000X0.100000X-0.130000X0.100000X-0.130000X-0.100000X0.130000X-0.100000X0*%
%TD*%
%TA.AperFunction,SMDPad,CuDef*%
%ADD17RoundRect,0.100000X-0.130000X-0.100000X0.130000X-0.100000X0.130000X0.100000X-0.130000X0.100000X0*%
%TD*%
%TA.AperFunction,SMDPad,CuDef*%
%ADD18RoundRect,0.100000X-0.100000X0.130000X-0.100000X-0.130000X0.100000X-0.130000X0.100000X0.130000X0*%
%TD*%
%TA.AperFunction,SMDPad,CuDef*%
%ADD19RoundRect,0.140000X-0.140000X-0.170000X0.140000X-0.170000X0.140000X0.170000X-0.140000X0.170000X0*%
%TD*%
%TA.AperFunction,BGAPad,CuDef*%
%ADD20C,0.200000*%
%TD*%
%TA.AperFunction,SMDPad,CuDef*%
%ADD21RoundRect,0.225000X0.225000X0.250000X-0.225000X0.250000X-0.225000X-0.250000X0.225000X-0.250000X0*%
%TD*%
%TA.AperFunction,SMDPad,CuDef*%
%ADD22RoundRect,0.147500X0.147500X0.172500X-0.147500X0.172500X-0.147500X-0.172500X0.147500X-0.172500X0*%
%TD*%
%TA.AperFunction,SMDPad,CuDef*%
%ADD23RoundRect,0.225000X0.250000X-0.225000X0.250000X0.225000X-0.250000X0.225000X-0.250000X-0.225000X0*%
%TD*%
%TA.AperFunction,SMDPad,CuDef*%
%ADD24RoundRect,0.140000X0.140000X0.170000X-0.140000X0.170000X-0.140000X-0.170000X0.140000X-0.170000X0*%
%TD*%
%TA.AperFunction,SMDPad,CuDef*%
%ADD25RoundRect,0.140000X-0.170000X0.140000X-0.170000X-0.140000X0.170000X-0.140000X0.170000X0.140000X0*%
%TD*%
%TA.AperFunction,ComponentPad*%
%ADD26R,1.000000X1.000000*%
%TD*%
%TA.AperFunction,ComponentPad*%
%ADD27O,1.000000X1.000000*%
%TD*%
%TA.AperFunction,SMDPad,CuDef*%
%ADD28R,1.600000X0.550000*%
%TD*%
%TA.AperFunction,SMDPad,CuDef*%
%ADD29RoundRect,0.135000X0.135000X0.185000X-0.135000X0.185000X-0.135000X-0.185000X0.135000X-0.185000X0*%
%TD*%
%TA.AperFunction,ComponentPad*%
%ADD30RoundRect,0.250000X-0.625000X0.350000X-0.625000X-0.350000X0.625000X-0.350000X0.625000X0.350000X0*%
%TD*%
%TA.AperFunction,ComponentPad*%
%ADD31O,1.750000X1.200000*%
%TD*%
%TA.AperFunction,SMDPad,CuDef*%
%ADD32RoundRect,0.135000X-0.185000X0.135000X-0.185000X-0.135000X0.185000X-0.135000X0.185000X0.135000X0*%
%TD*%
%TA.AperFunction,SMDPad,CuDef*%
%ADD33RoundRect,0.100000X0.100000X-0.130000X0.100000X0.130000X-0.100000X0.130000X-0.100000X-0.130000X0*%
%TD*%
%TA.AperFunction,SMDPad,CuDef*%
%ADD34R,2.000000X1.000000*%
%TD*%
%TA.AperFunction,SMDPad,CuDef*%
%ADD35R,1.000000X0.520000*%
%TD*%
%TA.AperFunction,SMDPad,CuDef*%
%ADD36R,1.000000X0.270000*%
%TD*%
%TA.AperFunction,ComponentPad*%
%ADD37O,2.300000X1.300000*%
%TD*%
%TA.AperFunction,ComponentPad*%
%ADD38O,2.600000X1.300000*%
%TD*%
%TA.AperFunction,ConnectorPad*%
%ADD39C,0.787400*%
%TD*%
%TA.AperFunction,SMDPad,CuDef*%
%ADD40R,0.800000X0.900000*%
%TD*%
%TA.AperFunction,SMDPad,CuDef*%
%ADD41R,0.480000X0.500000*%
%TD*%
%TA.AperFunction,SMDPad,CuDef*%
%ADD42FreePoly0,180.000000*%
%TD*%
%TA.AperFunction,SMDPad,CuDef*%
%ADD43FreePoly1,0.000000*%
%TD*%
%TA.AperFunction,SMDPad,CuDef*%
%ADD44RoundRect,0.050000X0.200000X0.050000X-0.200000X0.050000X-0.200000X-0.050000X0.200000X-0.050000X0*%
%TD*%
%TA.AperFunction,SMDPad,CuDef*%
%ADD45RoundRect,0.050000X-0.200000X-0.050000X0.200000X-0.050000X0.200000X0.050000X-0.200000X0.050000X0*%
%TD*%
%TA.AperFunction,ComponentPad*%
%ADD46C,0.400000*%
%TD*%
%TA.AperFunction,SMDPad,CuDef*%
%ADD47RoundRect,0.050000X-0.400000X-0.700000X0.400000X-0.700000X0.400000X0.700000X-0.400000X0.700000X0*%
%TD*%
%TA.AperFunction,SMDPad,CuDef*%
%ADD48R,1.800000X1.000000*%
%TD*%
%TA.AperFunction,SMDPad,CuDef*%
%ADD49RoundRect,0.093750X0.156250X0.093750X-0.156250X0.093750X-0.156250X-0.093750X0.156250X-0.093750X0*%
%TD*%
%TA.AperFunction,SMDPad,CuDef*%
%ADD50RoundRect,0.075000X0.250000X0.075000X-0.250000X0.075000X-0.250000X-0.075000X0.250000X-0.075000X0*%
%TD*%
%TA.AperFunction,SMDPad,CuDef*%
%ADD51RoundRect,0.150000X-0.512500X-0.150000X0.512500X-0.150000X0.512500X0.150000X-0.512500X0.150000X0*%
%TD*%
%TA.AperFunction,SMDPad,CuDef*%
%ADD52RoundRect,0.140000X0.170000X-0.140000X0.170000X0.140000X-0.170000X0.140000X-0.170000X-0.140000X0*%
%TD*%
%TA.AperFunction,SMDPad,CuDef*%
%ADD53RoundRect,0.062500X0.062500X-0.400000X0.062500X0.400000X-0.062500X0.400000X-0.062500X-0.400000X0*%
%TD*%
%TA.AperFunction,SMDPad,CuDef*%
%ADD54RoundRect,0.062500X0.400000X-0.062500X0.400000X0.062500X-0.400000X0.062500X-0.400000X-0.062500X0*%
%TD*%
%TA.AperFunction,HeatsinkPad*%
%ADD55R,6.400000X6.400000*%
%TD*%
%TA.AperFunction,ViaPad*%
%ADD56C,0.375000*%
%TD*%
%TA.AperFunction,ViaPad*%
%ADD57C,0.600000*%
%TD*%
%TA.AperFunction,ViaPad*%
%ADD58C,0.400000*%
%TD*%
%TA.AperFunction,Conductor*%
%ADD59C,0.200000*%
%TD*%
%TA.AperFunction,Conductor*%
%ADD60C,0.102000*%
%TD*%
%TA.AperFunction,Conductor*%
%ADD61C,0.500000*%
%TD*%
%TA.AperFunction,Conductor*%
%ADD62C,0.150000*%
%TD*%
%TA.AperFunction,Conductor*%
%ADD63C,0.300000*%
%TD*%
%TA.AperFunction,Conductor*%
%ADD64C,0.352000*%
%TD*%
%TA.AperFunction,Conductor*%
%ADD65C,0.250000*%
%TD*%
%TA.AperFunction,Profile*%
%ADD66C,0.100000*%
%TD*%
G04 APERTURE END LIST*
D10*
D11*
X299989000Y-253002200D02*
X407989000Y-253002200D01*
X407989000Y-285002200D01*
X299989000Y-285002200D01*
X299989000Y-253002200D01*
D10*
D11*
X10000000Y-10000000D02*
X409989000Y-10000000D01*
X409989000Y-287002200D01*
X10000000Y-287002200D01*
X10000000Y-10000000D01*
D10*
D11*
X12000000Y-12000000D02*
X407989000Y-12000000D01*
X407989000Y-285002200D01*
X12000000Y-285002200D01*
X12000000Y-12000000D01*
D10*
D11*
X60000000Y-12000000D02*
X60000000Y-10000000D01*
D10*
D11*
X110000000Y-12000000D02*
X110000000Y-10000000D01*
D10*
D11*
X160000000Y-12000000D02*
X160000000Y-10000000D01*
D10*
D11*
X210000000Y-12000000D02*
X210000000Y-10000000D01*
D10*
D11*
X260000000Y-12000000D02*
X260000000Y-10000000D01*
D10*
D11*
X310000000Y-12000000D02*
X310000000Y-10000000D01*
D10*
D11*
X360000000Y-12000000D02*
X360000000Y-10000000D01*
D10*
D11*
X36089160Y-11593604D02*
X35346303Y-11593604D01*
X35717731Y-11593604D02*
X35717731Y-10293604D01*
X35717731Y-10293604D02*
X35593922Y-10479319D01*
X35593922Y-10479319D02*
X35470112Y-10603128D01*
X35470112Y-10603128D02*
X35346303Y-10665033D01*
D10*
D11*
X85346303Y-10417414D02*
X85408207Y-10355509D01*
X85408207Y-10355509D02*
X85532017Y-10293604D01*
X85532017Y-10293604D02*
X85841541Y-10293604D01*
X85841541Y-10293604D02*
X85965350Y-10355509D01*
X85965350Y-10355509D02*
X86027255Y-10417414D01*
X86027255Y-10417414D02*
X86089160Y-10541223D01*
X86089160Y-10541223D02*
X86089160Y-10665033D01*
X86089160Y-10665033D02*
X86027255Y-10850747D01*
X86027255Y-10850747D02*
X85284398Y-11593604D01*
X85284398Y-11593604D02*
X86089160Y-11593604D01*
D10*
D11*
X135284398Y-10293604D02*
X136089160Y-10293604D01*
X136089160Y-10293604D02*
X135655826Y-10788842D01*
X135655826Y-10788842D02*
X135841541Y-10788842D01*
X135841541Y-10788842D02*
X135965350Y-10850747D01*
X135965350Y-10850747D02*
X136027255Y-10912652D01*
X136027255Y-10912652D02*
X136089160Y-11036461D01*
X136089160Y-11036461D02*
X136089160Y-11345985D01*
X136089160Y-11345985D02*
X136027255Y-11469795D01*
X136027255Y-11469795D02*
X135965350Y-11531700D01*
X135965350Y-11531700D02*
X135841541Y-11593604D01*
X135841541Y-11593604D02*
X135470112Y-11593604D01*
X135470112Y-11593604D02*
X135346303Y-11531700D01*
X135346303Y-11531700D02*
X135284398Y-11469795D01*
D10*
D11*
X185965350Y-10726938D02*
X185965350Y-11593604D01*
X185655826Y-10231700D02*
X185346303Y-11160271D01*
X185346303Y-11160271D02*
X186151064Y-11160271D01*
D10*
D11*
X236027255Y-10293604D02*
X235408207Y-10293604D01*
X235408207Y-10293604D02*
X235346303Y-10912652D01*
X235346303Y-10912652D02*
X235408207Y-10850747D01*
X235408207Y-10850747D02*
X235532017Y-10788842D01*
X235532017Y-10788842D02*
X235841541Y-10788842D01*
X235841541Y-10788842D02*
X235965350Y-10850747D01*
X235965350Y-10850747D02*
X236027255Y-10912652D01*
X236027255Y-10912652D02*
X236089160Y-11036461D01*
X236089160Y-11036461D02*
X236089160Y-11345985D01*
X236089160Y-11345985D02*
X236027255Y-11469795D01*
X236027255Y-11469795D02*
X235965350Y-11531700D01*
X235965350Y-11531700D02*
X235841541Y-11593604D01*
X235841541Y-11593604D02*
X235532017Y-11593604D01*
X235532017Y-11593604D02*
X235408207Y-11531700D01*
X235408207Y-11531700D02*
X235346303Y-11469795D01*
D10*
D11*
X285965350Y-10293604D02*
X285717731Y-10293604D01*
X285717731Y-10293604D02*
X285593922Y-10355509D01*
X285593922Y-10355509D02*
X285532017Y-10417414D01*
X285532017Y-10417414D02*
X285408207Y-10603128D01*
X285408207Y-10603128D02*
X285346303Y-10850747D01*
X285346303Y-10850747D02*
X285346303Y-11345985D01*
X285346303Y-11345985D02*
X285408207Y-11469795D01*
X285408207Y-11469795D02*
X285470112Y-11531700D01*
X285470112Y-11531700D02*
X285593922Y-11593604D01*
X285593922Y-11593604D02*
X285841541Y-11593604D01*
X285841541Y-11593604D02*
X285965350Y-11531700D01*
X285965350Y-11531700D02*
X286027255Y-11469795D01*
X286027255Y-11469795D02*
X286089160Y-11345985D01*
X286089160Y-11345985D02*
X286089160Y-11036461D01*
X286089160Y-11036461D02*
X286027255Y-10912652D01*
X286027255Y-10912652D02*
X285965350Y-10850747D01*
X285965350Y-10850747D02*
X285841541Y-10788842D01*
X285841541Y-10788842D02*
X285593922Y-10788842D01*
X285593922Y-10788842D02*
X285470112Y-10850747D01*
X285470112Y-10850747D02*
X285408207Y-10912652D01*
X285408207Y-10912652D02*
X285346303Y-11036461D01*
D10*
D11*
X335284398Y-10293604D02*
X336151064Y-10293604D01*
X336151064Y-10293604D02*
X335593922Y-11593604D01*
D10*
D11*
X385593922Y-10850747D02*
X385470112Y-10788842D01*
X385470112Y-10788842D02*
X385408207Y-10726938D01*
X385408207Y-10726938D02*
X385346303Y-10603128D01*
X385346303Y-10603128D02*
X385346303Y-10541223D01*
X385346303Y-10541223D02*
X385408207Y-10417414D01*
X385408207Y-10417414D02*
X385470112Y-10355509D01*
X385470112Y-10355509D02*
X385593922Y-10293604D01*
X385593922Y-10293604D02*
X385841541Y-10293604D01*
X385841541Y-10293604D02*
X385965350Y-10355509D01*
X385965350Y-10355509D02*
X386027255Y-10417414D01*
X386027255Y-10417414D02*
X386089160Y-10541223D01*
X386089160Y-10541223D02*
X386089160Y-10603128D01*
X386089160Y-10603128D02*
X386027255Y-10726938D01*
X386027255Y-10726938D02*
X385965350Y-10788842D01*
X385965350Y-10788842D02*
X385841541Y-10850747D01*
X385841541Y-10850747D02*
X385593922Y-10850747D01*
X385593922Y-10850747D02*
X385470112Y-10912652D01*
X385470112Y-10912652D02*
X385408207Y-10974557D01*
X385408207Y-10974557D02*
X385346303Y-11098366D01*
X385346303Y-11098366D02*
X385346303Y-11345985D01*
X385346303Y-11345985D02*
X385408207Y-11469795D01*
X385408207Y-11469795D02*
X385470112Y-11531700D01*
X385470112Y-11531700D02*
X385593922Y-11593604D01*
X385593922Y-11593604D02*
X385841541Y-11593604D01*
X385841541Y-11593604D02*
X385965350Y-11531700D01*
X385965350Y-11531700D02*
X386027255Y-11469795D01*
X386027255Y-11469795D02*
X386089160Y-11345985D01*
X386089160Y-11345985D02*
X386089160Y-11098366D01*
X386089160Y-11098366D02*
X386027255Y-10974557D01*
X386027255Y-10974557D02*
X385965350Y-10912652D01*
X385965350Y-10912652D02*
X385841541Y-10850747D01*
D10*
D11*
X60000000Y-285002200D02*
X60000000Y-287002200D01*
D10*
D11*
X110000000Y-285002200D02*
X110000000Y-287002200D01*
D10*
D11*
X160000000Y-285002200D02*
X160000000Y-287002200D01*
D10*
D11*
X210000000Y-285002200D02*
X210000000Y-287002200D01*
D10*
D11*
X260000000Y-285002200D02*
X260000000Y-287002200D01*
D10*
D11*
X310000000Y-285002200D02*
X310000000Y-287002200D01*
D10*
D11*
X360000000Y-285002200D02*
X360000000Y-287002200D01*
D10*
D11*
X36089160Y-286595804D02*
X35346303Y-286595804D01*
X35717731Y-286595804D02*
X35717731Y-285295804D01*
X35717731Y-285295804D02*
X35593922Y-285481519D01*
X35593922Y-285481519D02*
X35470112Y-285605328D01*
X35470112Y-285605328D02*
X35346303Y-285667233D01*
D10*
D11*
X85346303Y-285419614D02*
X85408207Y-285357709D01*
X85408207Y-285357709D02*
X85532017Y-285295804D01*
X85532017Y-285295804D02*
X85841541Y-285295804D01*
X85841541Y-285295804D02*
X85965350Y-285357709D01*
X85965350Y-285357709D02*
X86027255Y-285419614D01*
X86027255Y-285419614D02*
X86089160Y-285543423D01*
X86089160Y-285543423D02*
X86089160Y-285667233D01*
X86089160Y-285667233D02*
X86027255Y-285852947D01*
X86027255Y-285852947D02*
X85284398Y-286595804D01*
X85284398Y-286595804D02*
X86089160Y-286595804D01*
D10*
D11*
X135284398Y-285295804D02*
X136089160Y-285295804D01*
X136089160Y-285295804D02*
X135655826Y-285791042D01*
X135655826Y-285791042D02*
X135841541Y-285791042D01*
X135841541Y-285791042D02*
X135965350Y-285852947D01*
X135965350Y-285852947D02*
X136027255Y-285914852D01*
X136027255Y-285914852D02*
X136089160Y-286038661D01*
X136089160Y-286038661D02*
X136089160Y-286348185D01*
X136089160Y-286348185D02*
X136027255Y-286471995D01*
X136027255Y-286471995D02*
X135965350Y-286533900D01*
X135965350Y-286533900D02*
X135841541Y-286595804D01*
X135841541Y-286595804D02*
X135470112Y-286595804D01*
X135470112Y-286595804D02*
X135346303Y-286533900D01*
X135346303Y-286533900D02*
X135284398Y-286471995D01*
D10*
D11*
X185965350Y-285729138D02*
X185965350Y-286595804D01*
X185655826Y-285233900D02*
X185346303Y-286162471D01*
X185346303Y-286162471D02*
X186151064Y-286162471D01*
D10*
D11*
X236027255Y-285295804D02*
X235408207Y-285295804D01*
X235408207Y-285295804D02*
X235346303Y-285914852D01*
X235346303Y-285914852D02*
X235408207Y-285852947D01*
X235408207Y-285852947D02*
X235532017Y-285791042D01*
X235532017Y-285791042D02*
X235841541Y-285791042D01*
X235841541Y-285791042D02*
X235965350Y-285852947D01*
X235965350Y-285852947D02*
X236027255Y-285914852D01*
X236027255Y-285914852D02*
X236089160Y-286038661D01*
X236089160Y-286038661D02*
X236089160Y-286348185D01*
X236089160Y-286348185D02*
X236027255Y-286471995D01*
X236027255Y-286471995D02*
X235965350Y-286533900D01*
X235965350Y-286533900D02*
X235841541Y-286595804D01*
X235841541Y-286595804D02*
X235532017Y-286595804D01*
X235532017Y-286595804D02*
X235408207Y-286533900D01*
X235408207Y-286533900D02*
X235346303Y-286471995D01*
D10*
D11*
X285965350Y-285295804D02*
X285717731Y-285295804D01*
X285717731Y-285295804D02*
X285593922Y-285357709D01*
X285593922Y-285357709D02*
X285532017Y-285419614D01*
X285532017Y-285419614D02*
X285408207Y-285605328D01*
X285408207Y-285605328D02*
X285346303Y-285852947D01*
X285346303Y-285852947D02*
X285346303Y-286348185D01*
X285346303Y-286348185D02*
X285408207Y-286471995D01*
X285408207Y-286471995D02*
X285470112Y-286533900D01*
X285470112Y-286533900D02*
X285593922Y-286595804D01*
X285593922Y-286595804D02*
X285841541Y-286595804D01*
X285841541Y-286595804D02*
X285965350Y-286533900D01*
X285965350Y-286533900D02*
X286027255Y-286471995D01*
X286027255Y-286471995D02*
X286089160Y-286348185D01*
X286089160Y-286348185D02*
X286089160Y-286038661D01*
X286089160Y-286038661D02*
X286027255Y-285914852D01*
X286027255Y-285914852D02*
X285965350Y-285852947D01*
X285965350Y-285852947D02*
X285841541Y-285791042D01*
X285841541Y-285791042D02*
X285593922Y-285791042D01*
X285593922Y-285791042D02*
X285470112Y-285852947D01*
X285470112Y-285852947D02*
X285408207Y-285914852D01*
X285408207Y-285914852D02*
X285346303Y-286038661D01*
D10*
D11*
X335284398Y-285295804D02*
X336151064Y-285295804D01*
X336151064Y-285295804D02*
X335593922Y-286595804D01*
D10*
D11*
X385593922Y-285852947D02*
X385470112Y-285791042D01*
X385470112Y-285791042D02*
X385408207Y-285729138D01*
X385408207Y-285729138D02*
X385346303Y-285605328D01*
X385346303Y-285605328D02*
X385346303Y-285543423D01*
X385346303Y-285543423D02*
X385408207Y-285419614D01*
X385408207Y-285419614D02*
X385470112Y-285357709D01*
X385470112Y-285357709D02*
X385593922Y-285295804D01*
X385593922Y-285295804D02*
X385841541Y-285295804D01*
X385841541Y-285295804D02*
X385965350Y-285357709D01*
X385965350Y-285357709D02*
X386027255Y-285419614D01*
X386027255Y-285419614D02*
X386089160Y-285543423D01*
X386089160Y-285543423D02*
X386089160Y-285605328D01*
X386089160Y-285605328D02*
X386027255Y-285729138D01*
X386027255Y-285729138D02*
X385965350Y-285791042D01*
X385965350Y-285791042D02*
X385841541Y-285852947D01*
X385841541Y-285852947D02*
X385593922Y-285852947D01*
X385593922Y-285852947D02*
X385470112Y-285914852D01*
X385470112Y-285914852D02*
X385408207Y-285976757D01*
X385408207Y-285976757D02*
X385346303Y-286100566D01*
X385346303Y-286100566D02*
X385346303Y-286348185D01*
X385346303Y-286348185D02*
X385408207Y-286471995D01*
X385408207Y-286471995D02*
X385470112Y-286533900D01*
X385470112Y-286533900D02*
X385593922Y-286595804D01*
X385593922Y-286595804D02*
X385841541Y-286595804D01*
X385841541Y-286595804D02*
X385965350Y-286533900D01*
X385965350Y-286533900D02*
X386027255Y-286471995D01*
X386027255Y-286471995D02*
X386089160Y-286348185D01*
X386089160Y-286348185D02*
X386089160Y-286100566D01*
X386089160Y-286100566D02*
X386027255Y-285976757D01*
X386027255Y-285976757D02*
X385965350Y-285914852D01*
X385965350Y-285914852D02*
X385841541Y-285852947D01*
D10*
D11*
X10000000Y-60000000D02*
X12000000Y-60000000D01*
D10*
D11*
X10000000Y-110000000D02*
X12000000Y-110000000D01*
D10*
D11*
X10000000Y-160000000D02*
X12000000Y-160000000D01*
D10*
D11*
X10000000Y-210000000D02*
X12000000Y-210000000D01*
D10*
D11*
X10000000Y-260000000D02*
X12000000Y-260000000D01*
D10*
D11*
X10690476Y-35222176D02*
X11309523Y-35222176D01*
X10566666Y-35593604D02*
X10999999Y-34293604D01*
X10999999Y-34293604D02*
X11433333Y-35593604D01*
D10*
D11*
X11092857Y-84912652D02*
X11278571Y-84974557D01*
X11278571Y-84974557D02*
X11340476Y-85036461D01*
X11340476Y-85036461D02*
X11402380Y-85160271D01*
X11402380Y-85160271D02*
X11402380Y-85345985D01*
X11402380Y-85345985D02*
X11340476Y-85469795D01*
X11340476Y-85469795D02*
X11278571Y-85531700D01*
X11278571Y-85531700D02*
X11154761Y-85593604D01*
X11154761Y-85593604D02*
X10659523Y-85593604D01*
X10659523Y-85593604D02*
X10659523Y-84293604D01*
X10659523Y-84293604D02*
X11092857Y-84293604D01*
X11092857Y-84293604D02*
X11216666Y-84355509D01*
X11216666Y-84355509D02*
X11278571Y-84417414D01*
X11278571Y-84417414D02*
X11340476Y-84541223D01*
X11340476Y-84541223D02*
X11340476Y-84665033D01*
X11340476Y-84665033D02*
X11278571Y-84788842D01*
X11278571Y-84788842D02*
X11216666Y-84850747D01*
X11216666Y-84850747D02*
X11092857Y-84912652D01*
X11092857Y-84912652D02*
X10659523Y-84912652D01*
D10*
D11*
X11402380Y-135469795D02*
X11340476Y-135531700D01*
X11340476Y-135531700D02*
X11154761Y-135593604D01*
X11154761Y-135593604D02*
X11030952Y-135593604D01*
X11030952Y-135593604D02*
X10845238Y-135531700D01*
X10845238Y-135531700D02*
X10721428Y-135407890D01*
X10721428Y-135407890D02*
X10659523Y-135284080D01*
X10659523Y-135284080D02*
X10597619Y-135036461D01*
X10597619Y-135036461D02*
X10597619Y-134850747D01*
X10597619Y-134850747D02*
X10659523Y-134603128D01*
X10659523Y-134603128D02*
X10721428Y-134479319D01*
X10721428Y-134479319D02*
X10845238Y-134355509D01*
X10845238Y-134355509D02*
X11030952Y-134293604D01*
X11030952Y-134293604D02*
X11154761Y-134293604D01*
X11154761Y-134293604D02*
X11340476Y-134355509D01*
X11340476Y-134355509D02*
X11402380Y-134417414D01*
D10*
D11*
X10659523Y-185593604D02*
X10659523Y-184293604D01*
X10659523Y-184293604D02*
X10969047Y-184293604D01*
X10969047Y-184293604D02*
X11154761Y-184355509D01*
X11154761Y-184355509D02*
X11278571Y-184479319D01*
X11278571Y-184479319D02*
X11340476Y-184603128D01*
X11340476Y-184603128D02*
X11402380Y-184850747D01*
X11402380Y-184850747D02*
X11402380Y-185036461D01*
X11402380Y-185036461D02*
X11340476Y-185284080D01*
X11340476Y-185284080D02*
X11278571Y-185407890D01*
X11278571Y-185407890D02*
X11154761Y-185531700D01*
X11154761Y-185531700D02*
X10969047Y-185593604D01*
X10969047Y-185593604D02*
X10659523Y-185593604D01*
D10*
D11*
X10721428Y-234912652D02*
X11154762Y-234912652D01*
X11340476Y-235593604D02*
X10721428Y-235593604D01*
X10721428Y-235593604D02*
X10721428Y-234293604D01*
X10721428Y-234293604D02*
X11340476Y-234293604D01*
D10*
D11*
X11185714Y-284912652D02*
X10752380Y-284912652D01*
X10752380Y-285593604D02*
X10752380Y-284293604D01*
X10752380Y-284293604D02*
X11371428Y-284293604D01*
D10*
D11*
X409989000Y-60000000D02*
X407989000Y-60000000D01*
D10*
D11*
X409989000Y-110000000D02*
X407989000Y-110000000D01*
D10*
D11*
X409989000Y-160000000D02*
X407989000Y-160000000D01*
D10*
D11*
X409989000Y-210000000D02*
X407989000Y-210000000D01*
D10*
D11*
X409989000Y-260000000D02*
X407989000Y-260000000D01*
D10*
D11*
X408679476Y-35222176D02*
X409298523Y-35222176D01*
X408555666Y-35593604D02*
X408988999Y-34293604D01*
X408988999Y-34293604D02*
X409422333Y-35593604D01*
D10*
D11*
X409081857Y-84912652D02*
X409267571Y-84974557D01*
X409267571Y-84974557D02*
X409329476Y-85036461D01*
X409329476Y-85036461D02*
X409391380Y-85160271D01*
X409391380Y-85160271D02*
X409391380Y-85345985D01*
X409391380Y-85345985D02*
X409329476Y-85469795D01*
X409329476Y-85469795D02*
X409267571Y-85531700D01*
X409267571Y-85531700D02*
X409143761Y-85593604D01*
X409143761Y-85593604D02*
X408648523Y-85593604D01*
X408648523Y-85593604D02*
X408648523Y-84293604D01*
X408648523Y-84293604D02*
X409081857Y-84293604D01*
X409081857Y-84293604D02*
X409205666Y-84355509D01*
X409205666Y-84355509D02*
X409267571Y-84417414D01*
X409267571Y-84417414D02*
X409329476Y-84541223D01*
X409329476Y-84541223D02*
X409329476Y-84665033D01*
X409329476Y-84665033D02*
X409267571Y-84788842D01*
X409267571Y-84788842D02*
X409205666Y-84850747D01*
X409205666Y-84850747D02*
X409081857Y-84912652D01*
X409081857Y-84912652D02*
X408648523Y-84912652D01*
D10*
D11*
X409391380Y-135469795D02*
X409329476Y-135531700D01*
X409329476Y-135531700D02*
X409143761Y-135593604D01*
X409143761Y-135593604D02*
X409019952Y-135593604D01*
X409019952Y-135593604D02*
X408834238Y-135531700D01*
X408834238Y-135531700D02*
X408710428Y-135407890D01*
X408710428Y-135407890D02*
X408648523Y-135284080D01*
X408648523Y-135284080D02*
X408586619Y-135036461D01*
X408586619Y-135036461D02*
X408586619Y-134850747D01*
X408586619Y-134850747D02*
X408648523Y-134603128D01*
X408648523Y-134603128D02*
X408710428Y-134479319D01*
X408710428Y-134479319D02*
X408834238Y-134355509D01*
X408834238Y-134355509D02*
X409019952Y-134293604D01*
X409019952Y-134293604D02*
X409143761Y-134293604D01*
X409143761Y-134293604D02*
X409329476Y-134355509D01*
X409329476Y-134355509D02*
X409391380Y-134417414D01*
D10*
D11*
X408648523Y-185593604D02*
X408648523Y-184293604D01*
X408648523Y-184293604D02*
X408958047Y-184293604D01*
X408958047Y-184293604D02*
X409143761Y-184355509D01*
X409143761Y-184355509D02*
X409267571Y-184479319D01*
X409267571Y-184479319D02*
X409329476Y-184603128D01*
X409329476Y-184603128D02*
X409391380Y-184850747D01*
X409391380Y-184850747D02*
X409391380Y-185036461D01*
X409391380Y-185036461D02*
X409329476Y-185284080D01*
X409329476Y-185284080D02*
X409267571Y-185407890D01*
X409267571Y-185407890D02*
X409143761Y-185531700D01*
X409143761Y-185531700D02*
X408958047Y-185593604D01*
X408958047Y-185593604D02*
X408648523Y-185593604D01*
D10*
D11*
X408710428Y-234912652D02*
X409143762Y-234912652D01*
X409329476Y-235593604D02*
X408710428Y-235593604D01*
X408710428Y-235593604D02*
X408710428Y-234293604D01*
X408710428Y-234293604D02*
X409329476Y-234293604D01*
D10*
D11*
X409174714Y-284912652D02*
X408741380Y-284912652D01*
X408741380Y-285593604D02*
X408741380Y-284293604D01*
X408741380Y-284293604D02*
X409360428Y-284293604D01*
D10*
D11*
X323444826Y-280788328D02*
X323444826Y-279288328D01*
X323444826Y-279288328D02*
X323801969Y-279288328D01*
X323801969Y-279288328D02*
X324016255Y-279359757D01*
X324016255Y-279359757D02*
X324159112Y-279502614D01*
X324159112Y-279502614D02*
X324230541Y-279645471D01*
X324230541Y-279645471D02*
X324301969Y-279931185D01*
X324301969Y-279931185D02*
X324301969Y-280145471D01*
X324301969Y-280145471D02*
X324230541Y-280431185D01*
X324230541Y-280431185D02*
X324159112Y-280574042D01*
X324159112Y-280574042D02*
X324016255Y-280716900D01*
X324016255Y-280716900D02*
X323801969Y-280788328D01*
X323801969Y-280788328D02*
X323444826Y-280788328D01*
X325587684Y-280788328D02*
X325587684Y-280002614D01*
X325587684Y-280002614D02*
X325516255Y-279859757D01*
X325516255Y-279859757D02*
X325373398Y-279788328D01*
X325373398Y-279788328D02*
X325087684Y-279788328D01*
X325087684Y-279788328D02*
X324944826Y-279859757D01*
X325587684Y-280716900D02*
X325444826Y-280788328D01*
X325444826Y-280788328D02*
X325087684Y-280788328D01*
X325087684Y-280788328D02*
X324944826Y-280716900D01*
X324944826Y-280716900D02*
X324873398Y-280574042D01*
X324873398Y-280574042D02*
X324873398Y-280431185D01*
X324873398Y-280431185D02*
X324944826Y-280288328D01*
X324944826Y-280288328D02*
X325087684Y-280216900D01*
X325087684Y-280216900D02*
X325444826Y-280216900D01*
X325444826Y-280216900D02*
X325587684Y-280145471D01*
X326087684Y-279788328D02*
X326659112Y-279788328D01*
X326301969Y-279288328D02*
X326301969Y-280574042D01*
X326301969Y-280574042D02*
X326373398Y-280716900D01*
X326373398Y-280716900D02*
X326516255Y-280788328D01*
X326516255Y-280788328D02*
X326659112Y-280788328D01*
X327730541Y-280716900D02*
X327587684Y-280788328D01*
X327587684Y-280788328D02*
X327301970Y-280788328D01*
X327301970Y-280788328D02*
X327159112Y-280716900D01*
X327159112Y-280716900D02*
X327087684Y-280574042D01*
X327087684Y-280574042D02*
X327087684Y-280002614D01*
X327087684Y-280002614D02*
X327159112Y-279859757D01*
X327159112Y-279859757D02*
X327301970Y-279788328D01*
X327301970Y-279788328D02*
X327587684Y-279788328D01*
X327587684Y-279788328D02*
X327730541Y-279859757D01*
X327730541Y-279859757D02*
X327801970Y-280002614D01*
X327801970Y-280002614D02*
X327801970Y-280145471D01*
X327801970Y-280145471D02*
X327087684Y-280288328D01*
X328444826Y-280645471D02*
X328516255Y-280716900D01*
X328516255Y-280716900D02*
X328444826Y-280788328D01*
X328444826Y-280788328D02*
X328373398Y-280716900D01*
X328373398Y-280716900D02*
X328444826Y-280645471D01*
X328444826Y-280645471D02*
X328444826Y-280788328D01*
X328444826Y-279859757D02*
X328516255Y-279931185D01*
X328516255Y-279931185D02*
X328444826Y-280002614D01*
X328444826Y-280002614D02*
X328373398Y-279931185D01*
X328373398Y-279931185D02*
X328444826Y-279859757D01*
X328444826Y-279859757D02*
X328444826Y-280002614D01*
D10*
D11*
X299989000Y-281502200D02*
X407989000Y-281502200D01*
D10*
D11*
X301444826Y-283588328D02*
X301444826Y-282088328D01*
X302301969Y-283588328D02*
X301659112Y-282731185D01*
X302301969Y-282088328D02*
X301444826Y-282945471D01*
X302944826Y-283588328D02*
X302944826Y-282588328D01*
X302944826Y-282088328D02*
X302873398Y-282159757D01*
X302873398Y-282159757D02*
X302944826Y-282231185D01*
X302944826Y-282231185D02*
X303016255Y-282159757D01*
X303016255Y-282159757D02*
X302944826Y-282088328D01*
X302944826Y-282088328D02*
X302944826Y-282231185D01*
X304516255Y-283445471D02*
X304444827Y-283516900D01*
X304444827Y-283516900D02*
X304230541Y-283588328D01*
X304230541Y-283588328D02*
X304087684Y-283588328D01*
X304087684Y-283588328D02*
X303873398Y-283516900D01*
X303873398Y-283516900D02*
X303730541Y-283374042D01*
X303730541Y-283374042D02*
X303659112Y-283231185D01*
X303659112Y-283231185D02*
X303587684Y-282945471D01*
X303587684Y-282945471D02*
X303587684Y-282731185D01*
X303587684Y-282731185D02*
X303659112Y-282445471D01*
X303659112Y-282445471D02*
X303730541Y-282302614D01*
X303730541Y-282302614D02*
X303873398Y-282159757D01*
X303873398Y-282159757D02*
X304087684Y-282088328D01*
X304087684Y-282088328D02*
X304230541Y-282088328D01*
X304230541Y-282088328D02*
X304444827Y-282159757D01*
X304444827Y-282159757D02*
X304516255Y-282231185D01*
X305801970Y-283588328D02*
X305801970Y-282802614D01*
X305801970Y-282802614D02*
X305730541Y-282659757D01*
X305730541Y-282659757D02*
X305587684Y-282588328D01*
X305587684Y-282588328D02*
X305301970Y-282588328D01*
X305301970Y-282588328D02*
X305159112Y-282659757D01*
X305801970Y-283516900D02*
X305659112Y-283588328D01*
X305659112Y-283588328D02*
X305301970Y-283588328D01*
X305301970Y-283588328D02*
X305159112Y-283516900D01*
X305159112Y-283516900D02*
X305087684Y-283374042D01*
X305087684Y-283374042D02*
X305087684Y-283231185D01*
X305087684Y-283231185D02*
X305159112Y-283088328D01*
X305159112Y-283088328D02*
X305301970Y-283016900D01*
X305301970Y-283016900D02*
X305659112Y-283016900D01*
X305659112Y-283016900D02*
X305801970Y-282945471D01*
X307159113Y-283588328D02*
X307159113Y-282088328D01*
X307159113Y-283516900D02*
X307016255Y-283588328D01*
X307016255Y-283588328D02*
X306730541Y-283588328D01*
X306730541Y-283588328D02*
X306587684Y-283516900D01*
X306587684Y-283516900D02*
X306516255Y-283445471D01*
X306516255Y-283445471D02*
X306444827Y-283302614D01*
X306444827Y-283302614D02*
X306444827Y-282874042D01*
X306444827Y-282874042D02*
X306516255Y-282731185D01*
X306516255Y-282731185D02*
X306587684Y-282659757D01*
X306587684Y-282659757D02*
X306730541Y-282588328D01*
X306730541Y-282588328D02*
X307016255Y-282588328D01*
X307016255Y-282588328D02*
X307159113Y-282659757D01*
X309016255Y-282802614D02*
X309516255Y-282802614D01*
X309730541Y-283588328D02*
X309016255Y-283588328D01*
X309016255Y-283588328D02*
X309016255Y-282088328D01*
X309016255Y-282088328D02*
X309730541Y-282088328D01*
X310373398Y-283445471D02*
X310444827Y-283516900D01*
X310444827Y-283516900D02*
X310373398Y-283588328D01*
X310373398Y-283588328D02*
X310301970Y-283516900D01*
X310301970Y-283516900D02*
X310373398Y-283445471D01*
X310373398Y-283445471D02*
X310373398Y-283588328D01*
X311087684Y-283588328D02*
X311087684Y-282088328D01*
X311087684Y-282088328D02*
X311444827Y-282088328D01*
X311444827Y-282088328D02*
X311659113Y-282159757D01*
X311659113Y-282159757D02*
X311801970Y-282302614D01*
X311801970Y-282302614D02*
X311873399Y-282445471D01*
X311873399Y-282445471D02*
X311944827Y-282731185D01*
X311944827Y-282731185D02*
X311944827Y-282945471D01*
X311944827Y-282945471D02*
X311873399Y-283231185D01*
X311873399Y-283231185D02*
X311801970Y-283374042D01*
X311801970Y-283374042D02*
X311659113Y-283516900D01*
X311659113Y-283516900D02*
X311444827Y-283588328D01*
X311444827Y-283588328D02*
X311087684Y-283588328D01*
X312587684Y-283445471D02*
X312659113Y-283516900D01*
X312659113Y-283516900D02*
X312587684Y-283588328D01*
X312587684Y-283588328D02*
X312516256Y-283516900D01*
X312516256Y-283516900D02*
X312587684Y-283445471D01*
X312587684Y-283445471D02*
X312587684Y-283588328D01*
X313230542Y-283159757D02*
X313944828Y-283159757D01*
X313087685Y-283588328D02*
X313587685Y-282088328D01*
X313587685Y-282088328D02*
X314087685Y-283588328D01*
X314587684Y-283445471D02*
X314659113Y-283516900D01*
X314659113Y-283516900D02*
X314587684Y-283588328D01*
X314587684Y-283588328D02*
X314516256Y-283516900D01*
X314516256Y-283516900D02*
X314587684Y-283445471D01*
X314587684Y-283445471D02*
X314587684Y-283588328D01*
X316659113Y-282731185D02*
X316516256Y-282659757D01*
X316516256Y-282659757D02*
X316444827Y-282588328D01*
X316444827Y-282588328D02*
X316373399Y-282445471D01*
X316373399Y-282445471D02*
X316373399Y-282374042D01*
X316373399Y-282374042D02*
X316444827Y-282231185D01*
X316444827Y-282231185D02*
X316516256Y-282159757D01*
X316516256Y-282159757D02*
X316659113Y-282088328D01*
X316659113Y-282088328D02*
X316944827Y-282088328D01*
X316944827Y-282088328D02*
X317087685Y-282159757D01*
X317087685Y-282159757D02*
X317159113Y-282231185D01*
X317159113Y-282231185D02*
X317230542Y-282374042D01*
X317230542Y-282374042D02*
X317230542Y-282445471D01*
X317230542Y-282445471D02*
X317159113Y-282588328D01*
X317159113Y-282588328D02*
X317087685Y-282659757D01*
X317087685Y-282659757D02*
X316944827Y-282731185D01*
X316944827Y-282731185D02*
X316659113Y-282731185D01*
X316659113Y-282731185D02*
X316516256Y-282802614D01*
X316516256Y-282802614D02*
X316444827Y-282874042D01*
X316444827Y-282874042D02*
X316373399Y-283016900D01*
X316373399Y-283016900D02*
X316373399Y-283302614D01*
X316373399Y-283302614D02*
X316444827Y-283445471D01*
X316444827Y-283445471D02*
X316516256Y-283516900D01*
X316516256Y-283516900D02*
X316659113Y-283588328D01*
X316659113Y-283588328D02*
X316944827Y-283588328D01*
X316944827Y-283588328D02*
X317087685Y-283516900D01*
X317087685Y-283516900D02*
X317159113Y-283445471D01*
X317159113Y-283445471D02*
X317230542Y-283302614D01*
X317230542Y-283302614D02*
X317230542Y-283016900D01*
X317230542Y-283016900D02*
X317159113Y-282874042D01*
X317159113Y-282874042D02*
X317087685Y-282802614D01*
X317087685Y-282802614D02*
X316944827Y-282731185D01*
X317873398Y-283445471D02*
X317944827Y-283516900D01*
X317944827Y-283516900D02*
X317873398Y-283588328D01*
X317873398Y-283588328D02*
X317801970Y-283516900D01*
X317801970Y-283516900D02*
X317873398Y-283445471D01*
X317873398Y-283445471D02*
X317873398Y-283588328D01*
X318873399Y-282088328D02*
X319016256Y-282088328D01*
X319016256Y-282088328D02*
X319159113Y-282159757D01*
X319159113Y-282159757D02*
X319230542Y-282231185D01*
X319230542Y-282231185D02*
X319301970Y-282374042D01*
X319301970Y-282374042D02*
X319373399Y-282659757D01*
X319373399Y-282659757D02*
X319373399Y-283016900D01*
X319373399Y-283016900D02*
X319301970Y-283302614D01*
X319301970Y-283302614D02*
X319230542Y-283445471D01*
X319230542Y-283445471D02*
X319159113Y-283516900D01*
X319159113Y-283516900D02*
X319016256Y-283588328D01*
X319016256Y-283588328D02*
X318873399Y-283588328D01*
X318873399Y-283588328D02*
X318730542Y-283516900D01*
X318730542Y-283516900D02*
X318659113Y-283445471D01*
X318659113Y-283445471D02*
X318587684Y-283302614D01*
X318587684Y-283302614D02*
X318516256Y-283016900D01*
X318516256Y-283016900D02*
X318516256Y-282659757D01*
X318516256Y-282659757D02*
X318587684Y-282374042D01*
X318587684Y-282374042D02*
X318659113Y-282231185D01*
X318659113Y-282231185D02*
X318730542Y-282159757D01*
X318730542Y-282159757D02*
X318873399Y-282088328D01*
X320016255Y-283445471D02*
X320087684Y-283516900D01*
X320087684Y-283516900D02*
X320016255Y-283588328D01*
X320016255Y-283588328D02*
X319944827Y-283516900D01*
X319944827Y-283516900D02*
X320016255Y-283445471D01*
X320016255Y-283445471D02*
X320016255Y-283588328D01*
X321516256Y-283588328D02*
X320659113Y-283588328D01*
X321087684Y-283588328D02*
X321087684Y-282088328D01*
X321087684Y-282088328D02*
X320944827Y-282302614D01*
X320944827Y-282302614D02*
X320801970Y-282445471D01*
X320801970Y-282445471D02*
X320659113Y-282516900D01*
D10*
D11*
X299989000Y-278502200D02*
X407989000Y-278502200D01*
D10*
D12*
X387400653Y-280780528D02*
X386900653Y-280066242D01*
X386543510Y-280780528D02*
X386543510Y-279280528D01*
X386543510Y-279280528D02*
X387114939Y-279280528D01*
X387114939Y-279280528D02*
X387257796Y-279351957D01*
X387257796Y-279351957D02*
X387329225Y-279423385D01*
X387329225Y-279423385D02*
X387400653Y-279566242D01*
X387400653Y-279566242D02*
X387400653Y-279780528D01*
X387400653Y-279780528D02*
X387329225Y-279923385D01*
X387329225Y-279923385D02*
X387257796Y-279994814D01*
X387257796Y-279994814D02*
X387114939Y-280066242D01*
X387114939Y-280066242D02*
X386543510Y-280066242D01*
X388614939Y-280709100D02*
X388472082Y-280780528D01*
X388472082Y-280780528D02*
X388186368Y-280780528D01*
X388186368Y-280780528D02*
X388043510Y-280709100D01*
X388043510Y-280709100D02*
X387972082Y-280566242D01*
X387972082Y-280566242D02*
X387972082Y-279994814D01*
X387972082Y-279994814D02*
X388043510Y-279851957D01*
X388043510Y-279851957D02*
X388186368Y-279780528D01*
X388186368Y-279780528D02*
X388472082Y-279780528D01*
X388472082Y-279780528D02*
X388614939Y-279851957D01*
X388614939Y-279851957D02*
X388686368Y-279994814D01*
X388686368Y-279994814D02*
X388686368Y-280137671D01*
X388686368Y-280137671D02*
X387972082Y-280280528D01*
X389186367Y-279780528D02*
X389543510Y-280780528D01*
X389543510Y-280780528D02*
X389900653Y-279780528D01*
X390472081Y-280637671D02*
X390543510Y-280709100D01*
X390543510Y-280709100D02*
X390472081Y-280780528D01*
X390472081Y-280780528D02*
X390400653Y-280709100D01*
X390400653Y-280709100D02*
X390472081Y-280637671D01*
X390472081Y-280637671D02*
X390472081Y-280780528D01*
X390472081Y-279851957D02*
X390543510Y-279923385D01*
X390543510Y-279923385D02*
X390472081Y-279994814D01*
X390472081Y-279994814D02*
X390400653Y-279923385D01*
X390400653Y-279923385D02*
X390472081Y-279851957D01*
X390472081Y-279851957D02*
X390472081Y-279994814D01*
D10*
D11*
X301373398Y-280716900D02*
X301587684Y-280788328D01*
X301587684Y-280788328D02*
X301944826Y-280788328D01*
X301944826Y-280788328D02*
X302087684Y-280716900D01*
X302087684Y-280716900D02*
X302159112Y-280645471D01*
X302159112Y-280645471D02*
X302230541Y-280502614D01*
X302230541Y-280502614D02*
X302230541Y-280359757D01*
X302230541Y-280359757D02*
X302159112Y-280216900D01*
X302159112Y-280216900D02*
X302087684Y-280145471D01*
X302087684Y-280145471D02*
X301944826Y-280074042D01*
X301944826Y-280074042D02*
X301659112Y-280002614D01*
X301659112Y-280002614D02*
X301516255Y-279931185D01*
X301516255Y-279931185D02*
X301444826Y-279859757D01*
X301444826Y-279859757D02*
X301373398Y-279716900D01*
X301373398Y-279716900D02*
X301373398Y-279574042D01*
X301373398Y-279574042D02*
X301444826Y-279431185D01*
X301444826Y-279431185D02*
X301516255Y-279359757D01*
X301516255Y-279359757D02*
X301659112Y-279288328D01*
X301659112Y-279288328D02*
X302016255Y-279288328D01*
X302016255Y-279288328D02*
X302230541Y-279359757D01*
X302873397Y-280788328D02*
X302873397Y-279788328D01*
X302873397Y-279288328D02*
X302801969Y-279359757D01*
X302801969Y-279359757D02*
X302873397Y-279431185D01*
X302873397Y-279431185D02*
X302944826Y-279359757D01*
X302944826Y-279359757D02*
X302873397Y-279288328D01*
X302873397Y-279288328D02*
X302873397Y-279431185D01*
X303444826Y-279788328D02*
X304230541Y-279788328D01*
X304230541Y-279788328D02*
X303444826Y-280788328D01*
X303444826Y-280788328D02*
X304230541Y-280788328D01*
X305373398Y-280716900D02*
X305230541Y-280788328D01*
X305230541Y-280788328D02*
X304944827Y-280788328D01*
X304944827Y-280788328D02*
X304801969Y-280716900D01*
X304801969Y-280716900D02*
X304730541Y-280574042D01*
X304730541Y-280574042D02*
X304730541Y-280002614D01*
X304730541Y-280002614D02*
X304801969Y-279859757D01*
X304801969Y-279859757D02*
X304944827Y-279788328D01*
X304944827Y-279788328D02*
X305230541Y-279788328D01*
X305230541Y-279788328D02*
X305373398Y-279859757D01*
X305373398Y-279859757D02*
X305444827Y-280002614D01*
X305444827Y-280002614D02*
X305444827Y-280145471D01*
X305444827Y-280145471D02*
X304730541Y-280288328D01*
X306087683Y-280645471D02*
X306159112Y-280716900D01*
X306159112Y-280716900D02*
X306087683Y-280788328D01*
X306087683Y-280788328D02*
X306016255Y-280716900D01*
X306016255Y-280716900D02*
X306087683Y-280645471D01*
X306087683Y-280645471D02*
X306087683Y-280788328D01*
X306087683Y-279859757D02*
X306159112Y-279931185D01*
X306159112Y-279931185D02*
X306087683Y-280002614D01*
X306087683Y-280002614D02*
X306016255Y-279931185D01*
X306016255Y-279931185D02*
X306087683Y-279859757D01*
X306087683Y-279859757D02*
X306087683Y-280002614D01*
X307873398Y-280359757D02*
X308587684Y-280359757D01*
X307730541Y-280788328D02*
X308230541Y-279288328D01*
X308230541Y-279288328D02*
X308730541Y-280788328D01*
X309087683Y-279288328D02*
X310016255Y-279288328D01*
X310016255Y-279288328D02*
X309516255Y-279859757D01*
X309516255Y-279859757D02*
X309730540Y-279859757D01*
X309730540Y-279859757D02*
X309873398Y-279931185D01*
X309873398Y-279931185D02*
X309944826Y-280002614D01*
X309944826Y-280002614D02*
X310016255Y-280145471D01*
X310016255Y-280145471D02*
X310016255Y-280502614D01*
X310016255Y-280502614D02*
X309944826Y-280645471D01*
X309944826Y-280645471D02*
X309873398Y-280716900D01*
X309873398Y-280716900D02*
X309730540Y-280788328D01*
X309730540Y-280788328D02*
X309301969Y-280788328D01*
X309301969Y-280788328D02*
X309159112Y-280716900D01*
X309159112Y-280716900D02*
X309087683Y-280645471D01*
D10*
D11*
X386444826Y-283588328D02*
X386444826Y-282088328D01*
X387801970Y-283588328D02*
X387801970Y-282088328D01*
X387801970Y-283516900D02*
X387659112Y-283588328D01*
X387659112Y-283588328D02*
X387373398Y-283588328D01*
X387373398Y-283588328D02*
X387230541Y-283516900D01*
X387230541Y-283516900D02*
X387159112Y-283445471D01*
X387159112Y-283445471D02*
X387087684Y-283302614D01*
X387087684Y-283302614D02*
X387087684Y-282874042D01*
X387087684Y-282874042D02*
X387159112Y-282731185D01*
X387159112Y-282731185D02*
X387230541Y-282659757D01*
X387230541Y-282659757D02*
X387373398Y-282588328D01*
X387373398Y-282588328D02*
X387659112Y-282588328D01*
X387659112Y-282588328D02*
X387801970Y-282659757D01*
X388516255Y-283445471D02*
X388587684Y-283516900D01*
X388587684Y-283516900D02*
X388516255Y-283588328D01*
X388516255Y-283588328D02*
X388444827Y-283516900D01*
X388444827Y-283516900D02*
X388516255Y-283445471D01*
X388516255Y-283445471D02*
X388516255Y-283588328D01*
X388516255Y-282659757D02*
X388587684Y-282731185D01*
X388587684Y-282731185D02*
X388516255Y-282802614D01*
X388516255Y-282802614D02*
X388444827Y-282731185D01*
X388444827Y-282731185D02*
X388516255Y-282659757D01*
X388516255Y-282659757D02*
X388516255Y-282802614D01*
X391159113Y-283588328D02*
X390301970Y-283588328D01*
X390730541Y-283588328D02*
X390730541Y-282088328D01*
X390730541Y-282088328D02*
X390587684Y-282302614D01*
X390587684Y-282302614D02*
X390444827Y-282445471D01*
X390444827Y-282445471D02*
X390301970Y-282516900D01*
X392873398Y-282016900D02*
X391587684Y-283945471D01*
X394159113Y-283588328D02*
X393301970Y-283588328D01*
X393730541Y-283588328D02*
X393730541Y-282088328D01*
X393730541Y-282088328D02*
X393587684Y-282302614D01*
X393587684Y-282302614D02*
X393444827Y-282445471D01*
X393444827Y-282445471D02*
X393301970Y-282516900D01*
D10*
D11*
X299989000Y-274502200D02*
X407989000Y-274502200D01*
D10*
D13*
X301680728Y-275206638D02*
X302823585Y-275206638D01*
X302002157Y-277206638D02*
X302252157Y-275206638D01*
X303240252Y-277206638D02*
X303406919Y-275873304D01*
X303490252Y-275206638D02*
X303383109Y-275301876D01*
X303383109Y-275301876D02*
X303466443Y-275397114D01*
X303466443Y-275397114D02*
X303573586Y-275301876D01*
X303573586Y-275301876D02*
X303490252Y-275206638D01*
X303490252Y-275206638D02*
X303466443Y-275397114D01*
X304073586Y-275873304D02*
X304835490Y-275873304D01*
X304442633Y-275206638D02*
X304228348Y-276920923D01*
X304228348Y-276920923D02*
X304299776Y-277111400D01*
X304299776Y-277111400D02*
X304478348Y-277206638D01*
X304478348Y-277206638D02*
X304668824Y-277206638D01*
X305621205Y-277206638D02*
X305442633Y-277111400D01*
X305442633Y-277111400D02*
X305371205Y-276920923D01*
X305371205Y-276920923D02*
X305585490Y-275206638D01*
X307156919Y-277111400D02*
X306954538Y-277206638D01*
X306954538Y-277206638D02*
X306573585Y-277206638D01*
X306573585Y-277206638D02*
X306395014Y-277111400D01*
X306395014Y-277111400D02*
X306323585Y-276920923D01*
X306323585Y-276920923D02*
X306418824Y-276159019D01*
X306418824Y-276159019D02*
X306537871Y-275968542D01*
X306537871Y-275968542D02*
X306740252Y-275873304D01*
X306740252Y-275873304D02*
X307121204Y-275873304D01*
X307121204Y-275873304D02*
X307299776Y-275968542D01*
X307299776Y-275968542D02*
X307371204Y-276159019D01*
X307371204Y-276159019D02*
X307347395Y-276349495D01*
X307347395Y-276349495D02*
X306371204Y-276539971D01*
X308121205Y-277016161D02*
X308204538Y-277111400D01*
X308204538Y-277111400D02*
X308097395Y-277206638D01*
X308097395Y-277206638D02*
X308014062Y-277111400D01*
X308014062Y-277111400D02*
X308121205Y-277016161D01*
X308121205Y-277016161D02*
X308097395Y-277206638D01*
X308252157Y-275968542D02*
X308335490Y-276063780D01*
X308335490Y-276063780D02*
X308228348Y-276159019D01*
X308228348Y-276159019D02*
X308145014Y-276063780D01*
X308145014Y-276063780D02*
X308252157Y-275968542D01*
X308252157Y-275968542D02*
X308228348Y-276159019D01*
D10*
D11*
X301944826Y-272602614D02*
X301444826Y-272602614D01*
X301444826Y-273388328D02*
X301444826Y-271888328D01*
X301444826Y-271888328D02*
X302159112Y-271888328D01*
X302730540Y-273388328D02*
X302730540Y-272388328D01*
X302730540Y-271888328D02*
X302659112Y-271959757D01*
X302659112Y-271959757D02*
X302730540Y-272031185D01*
X302730540Y-272031185D02*
X302801969Y-271959757D01*
X302801969Y-271959757D02*
X302730540Y-271888328D01*
X302730540Y-271888328D02*
X302730540Y-272031185D01*
X303659112Y-273388328D02*
X303516255Y-273316900D01*
X303516255Y-273316900D02*
X303444826Y-273174042D01*
X303444826Y-273174042D02*
X303444826Y-271888328D01*
X304801969Y-273316900D02*
X304659112Y-273388328D01*
X304659112Y-273388328D02*
X304373398Y-273388328D01*
X304373398Y-273388328D02*
X304230540Y-273316900D01*
X304230540Y-273316900D02*
X304159112Y-273174042D01*
X304159112Y-273174042D02*
X304159112Y-272602614D01*
X304159112Y-272602614D02*
X304230540Y-272459757D01*
X304230540Y-272459757D02*
X304373398Y-272388328D01*
X304373398Y-272388328D02*
X304659112Y-272388328D01*
X304659112Y-272388328D02*
X304801969Y-272459757D01*
X304801969Y-272459757D02*
X304873398Y-272602614D01*
X304873398Y-272602614D02*
X304873398Y-272745471D01*
X304873398Y-272745471D02*
X304159112Y-272888328D01*
X305516254Y-273245471D02*
X305587683Y-273316900D01*
X305587683Y-273316900D02*
X305516254Y-273388328D01*
X305516254Y-273388328D02*
X305444826Y-273316900D01*
X305444826Y-273316900D02*
X305516254Y-273245471D01*
X305516254Y-273245471D02*
X305516254Y-273388328D01*
X305516254Y-272459757D02*
X305587683Y-272531185D01*
X305587683Y-272531185D02*
X305516254Y-272602614D01*
X305516254Y-272602614D02*
X305444826Y-272531185D01*
X305444826Y-272531185D02*
X305516254Y-272459757D01*
X305516254Y-272459757D02*
X305516254Y-272602614D01*
X307873397Y-272602614D02*
X308087683Y-272674042D01*
X308087683Y-272674042D02*
X308159112Y-272745471D01*
X308159112Y-272745471D02*
X308230540Y-272888328D01*
X308230540Y-272888328D02*
X308230540Y-273102614D01*
X308230540Y-273102614D02*
X308159112Y-273245471D01*
X308159112Y-273245471D02*
X308087683Y-273316900D01*
X308087683Y-273316900D02*
X307944826Y-273388328D01*
X307944826Y-273388328D02*
X307373397Y-273388328D01*
X307373397Y-273388328D02*
X307373397Y-271888328D01*
X307373397Y-271888328D02*
X307873397Y-271888328D01*
X307873397Y-271888328D02*
X308016255Y-271959757D01*
X308016255Y-271959757D02*
X308087683Y-272031185D01*
X308087683Y-272031185D02*
X308159112Y-272174042D01*
X308159112Y-272174042D02*
X308159112Y-272316900D01*
X308159112Y-272316900D02*
X308087683Y-272459757D01*
X308087683Y-272459757D02*
X308016255Y-272531185D01*
X308016255Y-272531185D02*
X307873397Y-272602614D01*
X307873397Y-272602614D02*
X307373397Y-272602614D01*
X309087683Y-273388328D02*
X308944826Y-273316900D01*
X308944826Y-273316900D02*
X308873397Y-273174042D01*
X308873397Y-273174042D02*
X308873397Y-271888328D01*
X310301969Y-272388328D02*
X310301969Y-273388328D01*
X309659111Y-272388328D02*
X309659111Y-273174042D01*
X309659111Y-273174042D02*
X309730540Y-273316900D01*
X309730540Y-273316900D02*
X309873397Y-273388328D01*
X309873397Y-273388328D02*
X310087683Y-273388328D01*
X310087683Y-273388328D02*
X310230540Y-273316900D01*
X310230540Y-273316900D02*
X310301969Y-273245471D01*
X311587683Y-273316900D02*
X311444826Y-273388328D01*
X311444826Y-273388328D02*
X311159112Y-273388328D01*
X311159112Y-273388328D02*
X311016254Y-273316900D01*
X311016254Y-273316900D02*
X310944826Y-273174042D01*
X310944826Y-273174042D02*
X310944826Y-272602614D01*
X310944826Y-272602614D02*
X311016254Y-272459757D01*
X311016254Y-272459757D02*
X311159112Y-272388328D01*
X311159112Y-272388328D02*
X311444826Y-272388328D01*
X311444826Y-272388328D02*
X311587683Y-272459757D01*
X311587683Y-272459757D02*
X311659112Y-272602614D01*
X311659112Y-272602614D02*
X311659112Y-272745471D01*
X311659112Y-272745471D02*
X310944826Y-272888328D01*
X312087683Y-272388328D02*
X312659111Y-272388328D01*
X312301968Y-271888328D02*
X312301968Y-273174042D01*
X312301968Y-273174042D02*
X312373397Y-273316900D01*
X312373397Y-273316900D02*
X312516254Y-273388328D01*
X312516254Y-273388328D02*
X312659111Y-273388328D01*
X313373397Y-273388328D02*
X313230540Y-273316900D01*
X313230540Y-273316900D02*
X313159111Y-273245471D01*
X313159111Y-273245471D02*
X313087683Y-273102614D01*
X313087683Y-273102614D02*
X313087683Y-272674042D01*
X313087683Y-272674042D02*
X313159111Y-272531185D01*
X313159111Y-272531185D02*
X313230540Y-272459757D01*
X313230540Y-272459757D02*
X313373397Y-272388328D01*
X313373397Y-272388328D02*
X313587683Y-272388328D01*
X313587683Y-272388328D02*
X313730540Y-272459757D01*
X313730540Y-272459757D02*
X313801969Y-272531185D01*
X313801969Y-272531185D02*
X313873397Y-272674042D01*
X313873397Y-272674042D02*
X313873397Y-273102614D01*
X313873397Y-273102614D02*
X313801969Y-273245471D01*
X313801969Y-273245471D02*
X313730540Y-273316900D01*
X313730540Y-273316900D02*
X313587683Y-273388328D01*
X313587683Y-273388328D02*
X313373397Y-273388328D01*
X314730540Y-273388328D02*
X314587683Y-273316900D01*
X314587683Y-273316900D02*
X314516254Y-273245471D01*
X314516254Y-273245471D02*
X314444826Y-273102614D01*
X314444826Y-273102614D02*
X314444826Y-272674042D01*
X314444826Y-272674042D02*
X314516254Y-272531185D01*
X314516254Y-272531185D02*
X314587683Y-272459757D01*
X314587683Y-272459757D02*
X314730540Y-272388328D01*
X314730540Y-272388328D02*
X314944826Y-272388328D01*
X314944826Y-272388328D02*
X315087683Y-272459757D01*
X315087683Y-272459757D02*
X315159112Y-272531185D01*
X315159112Y-272531185D02*
X315230540Y-272674042D01*
X315230540Y-272674042D02*
X315230540Y-273102614D01*
X315230540Y-273102614D02*
X315159112Y-273245471D01*
X315159112Y-273245471D02*
X315087683Y-273316900D01*
X315087683Y-273316900D02*
X314944826Y-273388328D01*
X314944826Y-273388328D02*
X314730540Y-273388328D01*
X315659112Y-272388328D02*
X316230540Y-272388328D01*
X315873397Y-271888328D02*
X315873397Y-273174042D01*
X315873397Y-273174042D02*
X315944826Y-273316900D01*
X315944826Y-273316900D02*
X316087683Y-273388328D01*
X316087683Y-273388328D02*
X316230540Y-273388328D01*
X316730540Y-273388328D02*
X316730540Y-271888328D01*
X317373398Y-273388328D02*
X317373398Y-272602614D01*
X317373398Y-272602614D02*
X317301969Y-272459757D01*
X317301969Y-272459757D02*
X317159112Y-272388328D01*
X317159112Y-272388328D02*
X316944826Y-272388328D01*
X316944826Y-272388328D02*
X316801969Y-272459757D01*
X316801969Y-272459757D02*
X316730540Y-272531185D01*
X317730541Y-273531185D02*
X318873398Y-273531185D01*
X319516255Y-271888328D02*
X319801969Y-271888328D01*
X319801969Y-271888328D02*
X319944826Y-271959757D01*
X319944826Y-271959757D02*
X320087683Y-272102614D01*
X320087683Y-272102614D02*
X320159112Y-272388328D01*
X320159112Y-272388328D02*
X320159112Y-272888328D01*
X320159112Y-272888328D02*
X320087683Y-273174042D01*
X320087683Y-273174042D02*
X319944826Y-273316900D01*
X319944826Y-273316900D02*
X319801969Y-273388328D01*
X319801969Y-273388328D02*
X319516255Y-273388328D01*
X319516255Y-273388328D02*
X319373398Y-273316900D01*
X319373398Y-273316900D02*
X319230540Y-273174042D01*
X319230540Y-273174042D02*
X319159112Y-272888328D01*
X319159112Y-272888328D02*
X319159112Y-272388328D01*
X319159112Y-272388328D02*
X319230540Y-272102614D01*
X319230540Y-272102614D02*
X319373398Y-271959757D01*
X319373398Y-271959757D02*
X319516255Y-271888328D01*
X320730541Y-273316900D02*
X320944827Y-273388328D01*
X320944827Y-273388328D02*
X321301969Y-273388328D01*
X321301969Y-273388328D02*
X321444827Y-273316900D01*
X321444827Y-273316900D02*
X321516255Y-273245471D01*
X321516255Y-273245471D02*
X321587684Y-273102614D01*
X321587684Y-273102614D02*
X321587684Y-272959757D01*
X321587684Y-272959757D02*
X321516255Y-272816900D01*
X321516255Y-272816900D02*
X321444827Y-272745471D01*
X321444827Y-272745471D02*
X321301969Y-272674042D01*
X321301969Y-272674042D02*
X321016255Y-272602614D01*
X321016255Y-272602614D02*
X320873398Y-272531185D01*
X320873398Y-272531185D02*
X320801969Y-272459757D01*
X320801969Y-272459757D02*
X320730541Y-272316900D01*
X320730541Y-272316900D02*
X320730541Y-272174042D01*
X320730541Y-272174042D02*
X320801969Y-272031185D01*
X320801969Y-272031185D02*
X320873398Y-271959757D01*
X320873398Y-271959757D02*
X321016255Y-271888328D01*
X321016255Y-271888328D02*
X321373398Y-271888328D01*
X321373398Y-271888328D02*
X321587684Y-271959757D01*
X322230540Y-273388328D02*
X322230540Y-271888328D01*
X322230540Y-272602614D02*
X323087683Y-272602614D01*
X323087683Y-273388328D02*
X323087683Y-271888328D01*
X323659112Y-271888328D02*
X324016255Y-273388328D01*
X324016255Y-273388328D02*
X324301969Y-272316900D01*
X324301969Y-272316900D02*
X324587684Y-273388328D01*
X324587684Y-273388328D02*
X324944827Y-271888328D01*
X325516255Y-273245471D02*
X325587684Y-273316900D01*
X325587684Y-273316900D02*
X325516255Y-273388328D01*
X325516255Y-273388328D02*
X325444827Y-273316900D01*
X325444827Y-273316900D02*
X325516255Y-273245471D01*
X325516255Y-273245471D02*
X325516255Y-273388328D01*
X326230541Y-273388328D02*
X326230541Y-271888328D01*
X326373399Y-272816900D02*
X326801970Y-273388328D01*
X326801970Y-272388328D02*
X326230541Y-272959757D01*
X327444827Y-273388328D02*
X327444827Y-272388328D01*
X327444827Y-271888328D02*
X327373399Y-271959757D01*
X327373399Y-271959757D02*
X327444827Y-272031185D01*
X327444827Y-272031185D02*
X327516256Y-271959757D01*
X327516256Y-271959757D02*
X327444827Y-271888328D01*
X327444827Y-271888328D02*
X327444827Y-272031185D01*
X328801971Y-273316900D02*
X328659113Y-273388328D01*
X328659113Y-273388328D02*
X328373399Y-273388328D01*
X328373399Y-273388328D02*
X328230542Y-273316900D01*
X328230542Y-273316900D02*
X328159113Y-273245471D01*
X328159113Y-273245471D02*
X328087685Y-273102614D01*
X328087685Y-273102614D02*
X328087685Y-272674042D01*
X328087685Y-272674042D02*
X328159113Y-272531185D01*
X328159113Y-272531185D02*
X328230542Y-272459757D01*
X328230542Y-272459757D02*
X328373399Y-272388328D01*
X328373399Y-272388328D02*
X328659113Y-272388328D01*
X328659113Y-272388328D02*
X328801971Y-272459757D01*
X330087685Y-273388328D02*
X330087685Y-272602614D01*
X330087685Y-272602614D02*
X330016256Y-272459757D01*
X330016256Y-272459757D02*
X329873399Y-272388328D01*
X329873399Y-272388328D02*
X329587685Y-272388328D01*
X329587685Y-272388328D02*
X329444827Y-272459757D01*
X330087685Y-273316900D02*
X329944827Y-273388328D01*
X329944827Y-273388328D02*
X329587685Y-273388328D01*
X329587685Y-273388328D02*
X329444827Y-273316900D01*
X329444827Y-273316900D02*
X329373399Y-273174042D01*
X329373399Y-273174042D02*
X329373399Y-273031185D01*
X329373399Y-273031185D02*
X329444827Y-272888328D01*
X329444827Y-272888328D02*
X329587685Y-272816900D01*
X329587685Y-272816900D02*
X329944827Y-272816900D01*
X329944827Y-272816900D02*
X330087685Y-272745471D01*
X331444828Y-273388328D02*
X331444828Y-271888328D01*
X331444828Y-273316900D02*
X331301970Y-273388328D01*
X331301970Y-273388328D02*
X331016256Y-273388328D01*
X331016256Y-273388328D02*
X330873399Y-273316900D01*
X330873399Y-273316900D02*
X330801970Y-273245471D01*
X330801970Y-273245471D02*
X330730542Y-273102614D01*
X330730542Y-273102614D02*
X330730542Y-272674042D01*
X330730542Y-272674042D02*
X330801970Y-272531185D01*
X330801970Y-272531185D02*
X330873399Y-272459757D01*
X330873399Y-272459757D02*
X331016256Y-272388328D01*
X331016256Y-272388328D02*
X331301970Y-272388328D01*
X331301970Y-272388328D02*
X331444828Y-272459757D01*
X331801971Y-273531185D02*
X332944828Y-273531185D01*
X333301970Y-272388328D02*
X333301970Y-273888328D01*
X333301970Y-272459757D02*
X333444828Y-272388328D01*
X333444828Y-272388328D02*
X333730542Y-272388328D01*
X333730542Y-272388328D02*
X333873399Y-272459757D01*
X333873399Y-272459757D02*
X333944828Y-272531185D01*
X333944828Y-272531185D02*
X334016256Y-272674042D01*
X334016256Y-272674042D02*
X334016256Y-273102614D01*
X334016256Y-273102614D02*
X333944828Y-273245471D01*
X333944828Y-273245471D02*
X333873399Y-273316900D01*
X333873399Y-273316900D02*
X333730542Y-273388328D01*
X333730542Y-273388328D02*
X333444828Y-273388328D01*
X333444828Y-273388328D02*
X333301970Y-273316900D01*
X335301971Y-273316900D02*
X335159113Y-273388328D01*
X335159113Y-273388328D02*
X334873399Y-273388328D01*
X334873399Y-273388328D02*
X334730542Y-273316900D01*
X334730542Y-273316900D02*
X334659113Y-273245471D01*
X334659113Y-273245471D02*
X334587685Y-273102614D01*
X334587685Y-273102614D02*
X334587685Y-272674042D01*
X334587685Y-272674042D02*
X334659113Y-272531185D01*
X334659113Y-272531185D02*
X334730542Y-272459757D01*
X334730542Y-272459757D02*
X334873399Y-272388328D01*
X334873399Y-272388328D02*
X335159113Y-272388328D01*
X335159113Y-272388328D02*
X335301971Y-272459757D01*
X335944827Y-273388328D02*
X335944827Y-271888328D01*
X335944827Y-272459757D02*
X336087685Y-272388328D01*
X336087685Y-272388328D02*
X336373399Y-272388328D01*
X336373399Y-272388328D02*
X336516256Y-272459757D01*
X336516256Y-272459757D02*
X336587685Y-272531185D01*
X336587685Y-272531185D02*
X336659113Y-272674042D01*
X336659113Y-272674042D02*
X336659113Y-273102614D01*
X336659113Y-273102614D02*
X336587685Y-273245471D01*
X336587685Y-273245471D02*
X336516256Y-273316900D01*
X336516256Y-273316900D02*
X336373399Y-273388328D01*
X336373399Y-273388328D02*
X336087685Y-273388328D01*
X336087685Y-273388328D02*
X335944827Y-273316900D01*
D10*
D11*
X299989000Y-268502200D02*
X407989000Y-268502200D01*
D10*
D11*
X301373398Y-270616900D02*
X301587684Y-270688328D01*
X301587684Y-270688328D02*
X301944826Y-270688328D01*
X301944826Y-270688328D02*
X302087684Y-270616900D01*
X302087684Y-270616900D02*
X302159112Y-270545471D01*
X302159112Y-270545471D02*
X302230541Y-270402614D01*
X302230541Y-270402614D02*
X302230541Y-270259757D01*
X302230541Y-270259757D02*
X302159112Y-270116900D01*
X302159112Y-270116900D02*
X302087684Y-270045471D01*
X302087684Y-270045471D02*
X301944826Y-269974042D01*
X301944826Y-269974042D02*
X301659112Y-269902614D01*
X301659112Y-269902614D02*
X301516255Y-269831185D01*
X301516255Y-269831185D02*
X301444826Y-269759757D01*
X301444826Y-269759757D02*
X301373398Y-269616900D01*
X301373398Y-269616900D02*
X301373398Y-269474042D01*
X301373398Y-269474042D02*
X301444826Y-269331185D01*
X301444826Y-269331185D02*
X301516255Y-269259757D01*
X301516255Y-269259757D02*
X301659112Y-269188328D01*
X301659112Y-269188328D02*
X302016255Y-269188328D01*
X302016255Y-269188328D02*
X302230541Y-269259757D01*
X302873397Y-270688328D02*
X302873397Y-269188328D01*
X303516255Y-270688328D02*
X303516255Y-269902614D01*
X303516255Y-269902614D02*
X303444826Y-269759757D01*
X303444826Y-269759757D02*
X303301969Y-269688328D01*
X303301969Y-269688328D02*
X303087683Y-269688328D01*
X303087683Y-269688328D02*
X302944826Y-269759757D01*
X302944826Y-269759757D02*
X302873397Y-269831185D01*
X304801969Y-270616900D02*
X304659112Y-270688328D01*
X304659112Y-270688328D02*
X304373398Y-270688328D01*
X304373398Y-270688328D02*
X304230540Y-270616900D01*
X304230540Y-270616900D02*
X304159112Y-270474042D01*
X304159112Y-270474042D02*
X304159112Y-269902614D01*
X304159112Y-269902614D02*
X304230540Y-269759757D01*
X304230540Y-269759757D02*
X304373398Y-269688328D01*
X304373398Y-269688328D02*
X304659112Y-269688328D01*
X304659112Y-269688328D02*
X304801969Y-269759757D01*
X304801969Y-269759757D02*
X304873398Y-269902614D01*
X304873398Y-269902614D02*
X304873398Y-270045471D01*
X304873398Y-270045471D02*
X304159112Y-270188328D01*
X306087683Y-270616900D02*
X305944826Y-270688328D01*
X305944826Y-270688328D02*
X305659112Y-270688328D01*
X305659112Y-270688328D02*
X305516254Y-270616900D01*
X305516254Y-270616900D02*
X305444826Y-270474042D01*
X305444826Y-270474042D02*
X305444826Y-269902614D01*
X305444826Y-269902614D02*
X305516254Y-269759757D01*
X305516254Y-269759757D02*
X305659112Y-269688328D01*
X305659112Y-269688328D02*
X305944826Y-269688328D01*
X305944826Y-269688328D02*
X306087683Y-269759757D01*
X306087683Y-269759757D02*
X306159112Y-269902614D01*
X306159112Y-269902614D02*
X306159112Y-270045471D01*
X306159112Y-270045471D02*
X305444826Y-270188328D01*
X306587683Y-269688328D02*
X307159111Y-269688328D01*
X306801968Y-269188328D02*
X306801968Y-270474042D01*
X306801968Y-270474042D02*
X306873397Y-270616900D01*
X306873397Y-270616900D02*
X307016254Y-270688328D01*
X307016254Y-270688328D02*
X307159111Y-270688328D01*
X307659111Y-270545471D02*
X307730540Y-270616900D01*
X307730540Y-270616900D02*
X307659111Y-270688328D01*
X307659111Y-270688328D02*
X307587683Y-270616900D01*
X307587683Y-270616900D02*
X307659111Y-270545471D01*
X307659111Y-270545471D02*
X307659111Y-270688328D01*
X307659111Y-269759757D02*
X307730540Y-269831185D01*
X307730540Y-269831185D02*
X307659111Y-269902614D01*
X307659111Y-269902614D02*
X307587683Y-269831185D01*
X307587683Y-269831185D02*
X307659111Y-269759757D01*
X307659111Y-269759757D02*
X307659111Y-269902614D01*
D10*
D12*
D10*
D11*
D10*
D11*
D10*
D11*
D10*
D11*
D10*
D11*
X319989000Y-278502200D02*
X319989000Y-281502200D01*
D10*
D11*
X383989000Y-278502200D02*
X383989000Y-285002200D01*
D14*
%TO.C,A1*%
X231436000Y-135100800D02*
X236137600Y-135100800D01*
X233168590Y-141357200D02*
X233168590Y-143313000D01*
X233168590Y-141357200D02*
X236137600Y-141357200D01*
X233168590Y-143313000D02*
X236137600Y-143313000D01*
X233173390Y-145192600D02*
X236137600Y-145192600D01*
X233193990Y-137318600D02*
X233193990Y-139376000D01*
X233193990Y-137318600D02*
X236137600Y-137318600D01*
X233193990Y-139376000D02*
X236137600Y-139376000D01*
X236137600Y-135100800D02*
X236137600Y-137318600D01*
X236137600Y-139376000D02*
X236137600Y-141357200D01*
X236137600Y-143313000D02*
X236137600Y-145192600D01*
%TD*%
D15*
%TO.P,A1,1*%
%TO.N,/BLE_MCU/BT_PCB_ANT*%
X231436000Y-135100800D03*
%TD*%
D16*
%TO.P,R2,1*%
%TO.N,/BLE_MCU/BT_ANT_MTCH*%
X222620000Y-134110000D03*
%TO.P,R2,2*%
%TO.N,/BLE_MCU/STM_RF*%
X221980000Y-134110000D03*
%TD*%
D17*
%TO.P,R5,1*%
%TO.N,STM_BOOT0*%
X214310000Y-144373600D03*
%TO.P,R5,2*%
%TO.N,GND*%
X214950000Y-144373600D03*
%TD*%
D18*
%TO.P,C32,1*%
%TO.N,/BLE_MCU/OSC_OUT*%
X222630000Y-132330000D03*
%TO.P,C32,2*%
%TO.N,GND*%
X222630000Y-132970000D03*
%TD*%
D19*
%TO.P,C24,1*%
%TO.N,PPVAR_SYS*%
X201320400Y-141808200D03*
%TO.P,C24,2*%
%TO.N,GND*%
X202280400Y-141808200D03*
%TD*%
D20*
%TO.P,U5,A1,SW*%
%TO.N,Net-(U5-SW)*%
X202765000Y-138750600D03*
%TO.P,U5,A2,VIN*%
%TO.N,PPVAR_SYS*%
X202365000Y-138750600D03*
%TO.P,U5,B1,EN*%
X202765000Y-138350600D03*
%TO.P,U5,B2,GND*%
%TO.N,GND*%
X202365000Y-138350600D03*
%TO.P,U5,C1,VSEL*%
%TO.N,PPVAR_SYS*%
X202765000Y-137950600D03*
%TO.P,U5,C2,VOS*%
%TO.N,Net-(U5-VOS)*%
X202365000Y-137950600D03*
%TO.P,U5,D1,CTRL*%
%TO.N,VIN_SNS_EN*%
X202765000Y-137550600D03*
%TO.P,U5,D2,VINSW*%
%TO.N,Net-(U5-VINSW)*%
X202365000Y-137550600D03*
%TD*%
D21*
%TO.P,C29,1*%
%TO.N,PPVAR_VIN*%
X208039000Y-143800000D03*
%TO.P,C29,2*%
%TO.N,GND*%
X206489000Y-143800000D03*
%TD*%
D18*
%TO.P,C2,1*%
%TO.N,/BLE_MCU/BT_ANT_UFL*%
X226710000Y-135110000D03*
%TO.P,C2,2*%
%TO.N,GND*%
X226710000Y-135750000D03*
%TD*%
D22*
%TO.P,D1,1,K*%
%TO.N,Net-(D1-K)*%
X203207500Y-146870000D03*
%TO.P,D1,2,A*%
%TO.N,PPVAR_BAT*%
X202237500Y-146870000D03*
%TD*%
D16*
%TO.P,R8,1*%
%TO.N,PP1800_ALW*%
X219014000Y-143560800D03*
%TO.P,R8,2*%
%TO.N,I2C3_SDA*%
X218374000Y-143560800D03*
%TD*%
D17*
%TO.P,R6,1*%
%TO.N,Net-(U1-PB13)*%
X215520000Y-130520000D03*
%TO.P,R6,2*%
%TO.N,SPI2_CLK_PB13*%
X216160000Y-130520000D03*
%TD*%
D23*
%TO.P,C28,1*%
%TO.N,VBUS*%
X201015600Y-131000800D03*
%TO.P,C28,2*%
%TO.N,GND*%
X201015600Y-129450800D03*
%TD*%
D24*
%TO.P,C15,1*%
%TO.N,PP1800_ALW*%
X205900000Y-135020000D03*
%TO.P,C15,2*%
%TO.N,GND*%
X204940000Y-135020000D03*
%TD*%
D22*
%TO.P,D4,1,K*%
%TO.N,Net-(D4-K)*%
X206305000Y-146890000D03*
%TO.P,D4,2,A*%
%TO.N,PPVAR_BAT*%
X205335000Y-146890000D03*
%TD*%
D25*
%TO.P,C11,1*%
%TO.N,PP3300_VDDUSB*%
X207600000Y-130930000D03*
%TO.P,C11,2*%
%TO.N,GND*%
X207600000Y-131890000D03*
%TD*%
D26*
%TO.P,J1,1,Pin_1*%
%TO.N,PP1800_ALW*%
X208280000Y-128894000D03*
D27*
%TO.P,J1,2,Pin_2*%
%TO.N,GND*%
X209550000Y-128894000D03*
%TO.P,J1,3,Pin_3*%
%TO.N,GPIO_PC11*%
X210820000Y-128894000D03*
%TO.P,J1,4,Pin_4*%
%TO.N,GPIO_PC10*%
X212090000Y-128894000D03*
%TO.P,J1,5,Pin_5*%
%TO.N,GPIO_PA15*%
X213360000Y-128894000D03*
%TO.P,J1,6,Pin_6*%
%TO.N,SPI2_DEV_DC_PC6*%
X214630000Y-128894000D03*
%TO.P,J1,7,Pin_7*%
%TO.N,SPI2_STM_DO_DEV_DI_PB15*%
X215900000Y-128894000D03*
%TO.P,J1,8,Pin_8*%
%TO.N,SPI2_DEV_DO_STM_DI_PB14*%
X217170000Y-128894000D03*
%TO.P,J1,9,Pin_9*%
%TO.N,SPI2_CLK_PB13*%
X218440000Y-128894000D03*
%TO.P,J1,10,Pin_10*%
%TO.N,SPI2_DEV_CS_L_PB12*%
X219710000Y-128894000D03*
%TO.P,J1,11,Pin_11*%
%TO.N,GPIO_PE4*%
X220980000Y-128894000D03*
%TO.P,J1,12,Pin_12*%
%TO.N,GPIO_PB1*%
X222250000Y-128894000D03*
%TO.P,J1,13,Pin_13*%
%TO.N,GPIO_PB0*%
X223520000Y-128894000D03*
%TO.P,J1,14,Pin_14*%
%TO.N,STM_LPUART_TXD_PA2*%
X224790000Y-128894000D03*
%TO.P,J1,15,Pin_15*%
%TO.N,STM_LPUART_RXD_PB10*%
X226060000Y-128894000D03*
%TD*%
D17*
%TO.P,R7,1*%
%TO.N,PP1800_ALW*%
X216480000Y-144340000D03*
%TO.P,R7,2*%
%TO.N,I2C3_SCL*%
X217120000Y-144340000D03*
%TD*%
D24*
%TO.P,C26,1*%
%TO.N,Net-(U5-VOS)*%
X203990000Y-135930000D03*
%TO.P,C26,2*%
%TO.N,GND*%
X203030000Y-135930000D03*
%TD*%
D16*
%TO.P,L1,1,1*%
%TO.N,/BLE_MCU/BT_ANT_UFL*%
X225980000Y-135110000D03*
%TO.P,L1,2,2*%
%TO.N,/BLE_MCU/BT_ANT_MTCH*%
X225340000Y-135110000D03*
%TD*%
D28*
%TO.P,L4,1,1*%
%TO.N,Net-(U5-SW)*%
X204978000Y-138748600D03*
%TO.P,L4,2,2*%
%TO.N,Net-(U5-VOS)*%
X204978000Y-137298600D03*
%TD*%
D18*
%TO.P,C21,1*%
%TO.N,PP1800_ALW*%
X221600000Y-142740000D03*
%TO.P,C21,2*%
%TO.N,GND*%
X221600000Y-143380000D03*
%TD*%
D29*
%TO.P,R23,1*%
%TO.N,PP1800_ALW*%
X205910000Y-135950000D03*
%TO.P,R23,2*%
%TO.N,Net-(U5-VOS)*%
X204890000Y-135950000D03*
%TD*%
D18*
%TO.P,C3,1*%
%TO.N,/BLE_MCU/BT_ANT_MTCH*%
X224610000Y-135090000D03*
%TO.P,C3,2*%
%TO.N,GND*%
X224610000Y-135730000D03*
%TD*%
D30*
%TO.P,J3,1,Pin_1*%
%TO.N,PPVAR_BAT*%
X197281800Y-141510000D03*
D31*
%TO.P,J3,2,Pin_2*%
%TO.N,/POWER/CHGR_BAT_THERM*%
X197281800Y-143510000D03*
%TO.P,J3,3,Pin_3*%
%TO.N,GND*%
X197281800Y-145510000D03*
%TD*%
D26*
%TO.P,J2,1,Pin_1*%
%TO.N,PPVAR_VIN*%
X208280000Y-146665000D03*
D27*
%TO.P,J2,2,Pin_2*%
%TO.N,GND*%
X209550000Y-146665000D03*
%TO.P,J2,3,Pin_3*%
%TO.N,RESETB*%
X210820000Y-146665000D03*
%TO.P,J2,4,Pin_4*%
%TO.N,STM_WKUP2_PC13*%
X212090000Y-146665000D03*
%TO.P,J2,5,Pin_5*%
%TO.N,STM_BOOT0*%
X213360000Y-146665000D03*
%TO.P,J2,6,Pin_6*%
%TO.N,I2C3_SCL*%
X214630000Y-146665000D03*
%TO.P,J2,7,Pin_7*%
%TO.N,I2C3_SDA*%
X215900000Y-146665000D03*
%TO.P,J2,8,Pin_8*%
%TO.N,ADC1_IN3*%
X217170000Y-146665000D03*
%TO.P,J2,9,Pin_9*%
%TO.N,ADC1_IN4*%
X218440000Y-146665000D03*
%TO.P,J2,10,Pin_10*%
%TO.N,ADC1_IN5*%
X219710000Y-146665000D03*
%TO.P,J2,11,Pin_11*%
%TO.N,PPVAR_ADC*%
X220980000Y-146665000D03*
%TO.P,J2,12,Pin_12*%
%TO.N,GND*%
X222250000Y-146665000D03*
%TO.P,J2,13,Pin_13*%
%TO.N,STM_SAI1_SCK_A*%
X223520000Y-146665000D03*
%TO.P,J2,14,Pin_14*%
%TO.N,STM_SAI1_FS_A*%
X224790000Y-146665000D03*
%TO.P,J2,15,Pin_15*%
%TO.N,STM_SAI1_SD_A*%
X226060000Y-146665000D03*
%TD*%
D20*
%TO.P,U3,A1,VCC*%
%TO.N,PP1800_ALW*%
X223380000Y-142480000D03*
%TO.P,U3,A2,~{CS}*%
%TO.N,QSPI_MEM_CS_L*%
X223380000Y-141980000D03*
%TO.P,U3,B1,~{HOLD}/IO3*%
%TO.N,QSPI_MEM_D3*%
X223880000Y-142480000D03*
%TO.P,U3,B2,IO1/SO*%
%TO.N,QSPI_MEM_D1*%
X223880000Y-141980000D03*
%TO.P,U3,C1,SCK*%
%TO.N,QSPI_MEM_CLK*%
X224380000Y-142480000D03*
%TO.P,U3,C2,~{WP}/IO2*%
%TO.N,QSPI_MEM_D2*%
X224380000Y-141980000D03*
%TO.P,U3,D1,SI/IO0*%
%TO.N,QSPI_MEM_D0*%
X224880000Y-142480000D03*
%TO.P,U3,D2,GND*%
%TO.N,GND*%
X224880000Y-141980000D03*
%TD*%
D32*
%TO.P,R22,1*%
%TO.N,VBUS*%
X200270000Y-136410000D03*
%TO.P,R22,2*%
%TO.N,PPVAR_VIN*%
X200270000Y-137430000D03*
%TD*%
D33*
%TO.P,C34,1*%
%TO.N,/BLE_MCU/OSC32_IN*%
X213563200Y-142505000D03*
%TO.P,C34,2*%
%TO.N,GND*%
X213563200Y-141865000D03*
%TD*%
D34*
%TO.P,J5,*%
%TO.N,*%
X194305000Y-132080000D03*
X194305000Y-134880000D03*
D35*
%TO.P,J5,A1,GND*%
%TO.N,GND*%
X198505000Y-130380000D03*
%TO.P,J5,A4,VBUS*%
%TO.N,VBUS*%
X198505000Y-131130000D03*
D36*
%TO.P,J5,A5,CC1*%
%TO.N,Net-(J5-CC1)*%
X198505000Y-131730000D03*
%TO.P,J5,A6,D+*%
%TO.N,USB_D_P*%
X198505000Y-133230000D03*
%TO.P,J5,A7,D-*%
%TO.N,USB_D_N*%
X198505000Y-134230000D03*
%TO.P,J5,A8,SBU1*%
%TO.N,unconnected-(J5-SBU1-PadA8)*%
X198505000Y-135230000D03*
D35*
%TO.P,J5,A9,VBUS*%
%TO.N,VBUS*%
X198505000Y-135830000D03*
%TO.P,J5,A12,GND*%
%TO.N,GND*%
X198505000Y-136580000D03*
%TO.P,J5,B1,GND*%
X198505000Y-136580000D03*
%TO.P,J5,B4,VBUS*%
%TO.N,VBUS*%
X198505000Y-135830000D03*
D36*
%TO.P,J5,B5,CC2*%
%TO.N,Net-(J5-CC2)*%
X198505000Y-134730000D03*
%TO.P,J5,B6,D+*%
%TO.N,USB_D_P*%
X198505000Y-133730000D03*
%TO.P,J5,B7,D-*%
%TO.N,USB_D_N*%
X198505000Y-132730000D03*
%TO.P,J5,B8,SBU2*%
%TO.N,unconnected-(J5-SBU2-PadB8)*%
X198505000Y-132230000D03*
D35*
%TO.P,J5,B9,VBUS*%
%TO.N,VBUS*%
X198505000Y-131130000D03*
%TO.P,J5,B12,GND*%
%TO.N,GND*%
X198505000Y-130380000D03*
D37*
%TO.P,J5,S1,SHIELD*%
X198130000Y-129160000D03*
D38*
X194305000Y-129160000D03*
D37*
X198130000Y-137800000D03*
D38*
X194305000Y-137800000D03*
%TD*%
D39*
%TO.P,J4,1,VCC*%
%TO.N,PP3300_DBG*%
X209140000Y-139120000D03*
%TO.P,J4,2,SWDIO*%
%TO.N,SWD_IO*%
X207870000Y-139120000D03*
%TO.P,J4,3,~{RESET}*%
%TO.N,RESETB*%
X209140000Y-137850000D03*
%TO.P,J4,4,SWCLK*%
%TO.N,SWD_CLK*%
X207870000Y-137850000D03*
%TO.P,J4,5,GND*%
%TO.N,GND*%
X209140000Y-136580000D03*
%TO.P,J4,6,SWO*%
%TO.N,unconnected-(J4-SWO-Pad6)*%
X207870000Y-136580000D03*
%TD*%
D16*
%TO.P,R11,1*%
%TO.N,GND*%
X205363600Y-144170400D03*
%TO.P,R11,2*%
%TO.N,Net-(U4-ILIM{slash}VSET)*%
X204723600Y-144170400D03*
%TD*%
D33*
%TO.P,C31,1*%
%TO.N,/BLE_MCU/OSC_IN*%
X222630000Y-131565000D03*
%TO.P,C31,2*%
%TO.N,GND*%
X222630000Y-130925000D03*
%TD*%
D17*
%TO.P,R12,1*%
%TO.N,Net-(U4-ISET)*%
X204723600Y-143459200D03*
%TO.P,R12,2*%
%TO.N,GND*%
X205363600Y-143459200D03*
%TD*%
D40*
%TO.P,Y1,1,1*%
%TO.N,/BLE_MCU/OSC_OUT*%
X224830000Y-132620000D03*
%TO.P,Y1,2,2*%
%TO.N,GND*%
X224830000Y-131220000D03*
%TO.P,Y1,3,3*%
%TO.N,/BLE_MCU/OSC_IN*%
X223730000Y-131220000D03*
%TO.P,Y1,4,4*%
%TO.N,GND*%
X223730000Y-132620000D03*
%TD*%
D41*
%TO.P,TP1,A,A*%
%TO.N,/BLE_MCU/BT_ANT_UFL*%
X227808400Y-135100800D03*
%TO.P,TP1,C,C*%
%TO.N,/BLE_MCU/BT_PCB_ANT*%
X229728400Y-135100800D03*
D42*
%TO.P,TP1,G,G*%
%TO.N,GND*%
X228768400Y-135915800D03*
D43*
X228768400Y-134285800D03*
%TD*%
D44*
%TO.P,U4,1,SYS*%
%TO.N,PPVAR_SYS*%
X201664800Y-142710000D03*
%TO.P,U4,2,BAT*%
%TO.N,PPVAR_BAT*%
X201664800Y-143110000D03*
D45*
%TO.P,U4,3,STAT2*%
%TO.N,/POWER/CHG_LED_GRN*%
X201664800Y-143510000D03*
%TO.P,U4,4,~{CE}*%
%TO.N,Net-(U4-~{CE})*%
X201664800Y-143910000D03*
%TO.P,U4,5,GND*%
%TO.N,GND*%
X201664800Y-144310000D03*
%TO.P,U4,6,TS/MR*%
%TO.N,/POWER/CHGR_BAT_THERM*%
X203764800Y-144310000D03*
%TO.P,U4,7,ILIM/VSET*%
%TO.N,Net-(U4-ILIM{slash}VSET)*%
X203764800Y-143910000D03*
D44*
%TO.P,U4,8,ISET*%
%TO.N,Net-(U4-ISET)*%
X203764800Y-143510000D03*
%TO.P,U4,9,STAT1*%
%TO.N,FLT_CHG_L*%
X203764800Y-143110000D03*
%TO.P,U4,10,IN*%
%TO.N,PPVAR_VIN*%
X203764800Y-142710000D03*
D46*
%TO.P,U4,11,EP*%
%TO.N,GND*%
X202714800Y-143010000D03*
D47*
X202714800Y-143510000D03*
D46*
X202714800Y-144010000D03*
%TD*%
D48*
%TO.P,Y2,1,1*%
%TO.N,/BLE_MCU/OSC32_OUT*%
X212050000Y-144070000D03*
%TO.P,Y2,2,2*%
%TO.N,/BLE_MCU/OSC32_IN*%
X212050000Y-141570000D03*
%TD*%
D49*
%TO.P,U6,1,I/O1*%
%TO.N,USB_D_P*%
X203415000Y-134647500D03*
D50*
%TO.P,U6,2,GND*%
%TO.N,GND*%
X203490000Y-134110000D03*
D49*
%TO.P,U6,3,I/O2*%
%TO.N,USB_D_N*%
X203415000Y-133572500D03*
%TO.P,U6,4,I/O2*%
X201715000Y-133572500D03*
D50*
%TO.P,U6,5,VBUS*%
%TO.N,VBUS*%
X201640000Y-134110000D03*
D49*
%TO.P,U6,6,I/O1*%
%TO.N,USB_D_P*%
X201715000Y-134647500D03*
%TD*%
D51*
%TO.P,U8,1,IN*%
%TO.N,VBUS*%
X203916700Y-130303100D03*
%TO.P,U8,2,GND*%
%TO.N,GND*%
X203916700Y-131253100D03*
%TO.P,U8,3,EN*%
%TO.N,Net-(U8-EN)*%
X203916700Y-132203100D03*
%TO.P,U8,4,NC*%
%TO.N,unconnected-(U8-NC-Pad4)*%
X206191700Y-132203100D03*
%TO.P,U8,5,OUT*%
%TO.N,PP3300_VDDUSB*%
X206191700Y-130303100D03*
%TD*%
D52*
%TO.P,C33,1*%
%TO.N,VBUS*%
X202361800Y-130426400D03*
%TO.P,C33,2*%
%TO.N,GND*%
X202361800Y-129466400D03*
%TD*%
D18*
%TO.P,C1,1*%
%TO.N,/BLE_MCU/BT_PCB_ANT*%
X230835200Y-135110000D03*
%TO.P,C1,2*%
%TO.N,GND*%
X230835200Y-135750000D03*
%TD*%
D24*
%TO.P,C22,1*%
%TO.N,PPVAR_VIN*%
X204109200Y-141808200D03*
%TO.P,C22,2*%
%TO.N,GND*%
X203149200Y-141808200D03*
%TD*%
D16*
%TO.P,R14,1*%
%TO.N,BAT_CHRG_FACTORY*%
X205353400Y-144881600D03*
%TO.P,R14,2*%
%TO.N,/POWER/CHGR_BAT_THERM*%
X204713400Y-144881600D03*
%TD*%
D17*
%TO.P,R19,1*%
%TO.N,VIN_SNS_EN*%
X201550000Y-136010000D03*
%TO.P,R19,2*%
%TO.N,GND*%
X202190000Y-136010000D03*
%TD*%
D53*
%TO.P,U1,1,VBAT*%
%TO.N,PP1800_ALW*%
X213910000Y-139997500D03*
%TO.P,U1,2,PC13*%
%TO.N,STM_WKUP2_PC13*%
X214310000Y-139997501D03*
%TO.P,U1,3,PC14*%
%TO.N,/BLE_MCU/OSC32_IN*%
X214710000Y-139997500D03*
%TO.P,U1,4,PC15*%
%TO.N,/BLE_MCU/OSC32_OUT*%
X215110000Y-139997500D03*
%TO.P,U1,5,PH3*%
%TO.N,STM_BOOT0*%
X215510000Y-139997500D03*
%TO.P,U1,6,PB8*%
%TO.N,QSPI_MEM_D1*%
X215909999Y-139997500D03*
%TO.P,U1,7,PB9*%
%TO.N,QSPI_MEM_D0*%
X216310000Y-139997500D03*
%TO.P,U1,8,NRST*%
%TO.N,RESETB*%
X216710000Y-139997500D03*
%TO.P,U1,9,PC0*%
%TO.N,I2C3_SCL*%
X217110000Y-139997501D03*
%TO.P,U1,10,PC1*%
%TO.N,I2C3_SDA*%
X217510000Y-139997500D03*
%TO.P,U1,11,PC2*%
%TO.N,ADC1_IN3*%
X217910000Y-139997500D03*
%TO.P,U1,12,PC3*%
%TO.N,ADC1_IN4*%
X218310001Y-139997500D03*
%TO.P,U1,13,VREF+*%
%TO.N,unconnected-(U1-VREF+-Pad13)*%
X218710000Y-139997500D03*
%TO.P,U1,14,VDDA*%
%TO.N,PPVAR_ADC*%
X219110000Y-139997500D03*
%TO.P,U1,15,PA0*%
%TO.N,ADC1_IN5*%
X219510000Y-139997500D03*
%TO.P,U1,16,PA1*%
%TO.N,QSPI_MEM_CS_L*%
X219910000Y-139997501D03*
%TO.P,U1,17,PA2*%
%TO.N,STM_LPUART_TXD_PA2*%
X220310000Y-139997500D03*
D54*
%TO.P,U1,18,PA3*%
%TO.N,QSPI_MEM_CLK*%
X220997500Y-139310000D03*
%TO.P,U1,19,PA4*%
%TO.N,VIN_SNS_ADC1_IN9*%
X220997501Y-138910000D03*
%TO.P,U1,20,PA5*%
%TO.N,unconnected-(U1-PA5-Pad20)*%
X220997500Y-138510000D03*
%TO.P,U1,21,PA6*%
%TO.N,QSPI_MEM_D3*%
X220997500Y-138110000D03*
%TO.P,U1,22,PA7*%
%TO.N,QSPI_MEM_D2*%
X220997500Y-137710000D03*
%TO.P,U1,23,PA8*%
%TO.N,STM_SAI1_SCK_A*%
X220997500Y-137310001D03*
%TO.P,U1,24,PA9*%
%TO.N,STM_SAI1_FS_A*%
X220997500Y-136910000D03*
%TO.P,U1,25,PC4*%
%TO.N,GPIO_PC4*%
X220997500Y-136510000D03*
%TO.P,U1,26,PC5*%
%TO.N,unconnected-(U1-PC5-Pad26)*%
X220997501Y-136110000D03*
%TO.P,U1,27,PB2*%
%TO.N,unconnected-(U1-PB2-Pad27)*%
X220997500Y-135710000D03*
%TO.P,U1,28,PB10*%
%TO.N,STM_LPUART_RXD_PB10*%
X220997500Y-135310000D03*
%TO.P,U1,29,PB11*%
%TO.N,unconnected-(U1-PB11-Pad29)*%
X220997500Y-134909999D03*
%TO.P,U1,30,VDD*%
%TO.N,PP1800_ALW*%
X220997500Y-134510000D03*
%TO.P,U1,31,RF1*%
%TO.N,/BLE_MCU/STM_RF*%
X220997500Y-134110000D03*
%TO.P,U1,32,VSSRF*%
%TO.N,GND*%
X220997500Y-133710000D03*
%TO.P,U1,33,VDDRF*%
%TO.N,PP1800_ALW*%
X220997501Y-133310000D03*
%TO.P,U1,34,OSC_OUT*%
%TO.N,/BLE_MCU/OSC_OUT*%
X220997500Y-132910000D03*
D53*
%TO.P,U1,35,OSC_IN*%
%TO.N,/BLE_MCU/OSC_IN*%
X220310000Y-132222500D03*
%TO.P,U1,36,AT0*%
%TO.N,unconnected-(U1-AT0-Pad36)*%
X219910000Y-132222499D03*
%TO.P,U1,37,AT1*%
%TO.N,unconnected-(U1-AT1-Pad37)*%
X219510000Y-132222500D03*
%TO.P,U1,38,PB0*%
%TO.N,GPIO_PB0*%
X219110000Y-132222500D03*
%TO.P,U1,39,PB1*%
%TO.N,GPIO_PB1*%
X218710000Y-132222500D03*
%TO.P,U1,40,PE4*%
%TO.N,GPIO_PE4*%
X218310001Y-132222500D03*
%TO.P,U1,41,VFBSMPS*%
%TO.N,PP1800_ALW*%
X217910000Y-132222500D03*
%TO.P,U1,42,VSSSMPS*%
%TO.N,GND*%
X217510000Y-132222500D03*
%TO.P,U1,43,VLXSMPS*%
%TO.N,PP1800_ALW*%
X217110000Y-132222499D03*
%TO.P,U1,44,VDDSMPS*%
X216710000Y-132222500D03*
%TO.P,U1,45,VDD*%
X216310000Y-132222500D03*
%TO.P,U1,46,PB12*%
%TO.N,SPI2_DEV_CS_L_PB12*%
X215909999Y-132222500D03*
%TO.P,U1,47,PB13*%
%TO.N,Net-(U1-PB13)*%
X215510000Y-132222500D03*
%TO.P,U1,48,PB14*%
%TO.N,SPI2_DEV_DO_STM_DI_PB14*%
X215110000Y-132222500D03*
%TO.P,U1,49,PB15*%
%TO.N,SPI2_STM_DO_DEV_DI_PB15*%
X214710000Y-132222500D03*
%TO.P,U1,50,PC6*%
%TO.N,SPI2_DEV_DC_PC6*%
X214310000Y-132222499D03*
%TO.P,U1,51,PA10*%
%TO.N,STM_SAI1_SD_A*%
X213910000Y-132222500D03*
D54*
%TO.P,U1,52,PA11*%
%TO.N,USB_D_N*%
X213222500Y-132910000D03*
%TO.P,U1,53,PA12*%
%TO.N,USB_D_P*%
X213222499Y-133310000D03*
%TO.P,U1,54,PA13*%
%TO.N,SWD_IO*%
X213222500Y-133710000D03*
%TO.P,U1,55,VDDUSB*%
%TO.N,PP3300_VDDUSB*%
X213222500Y-134110000D03*
%TO.P,U1,56,PA14*%
%TO.N,SWD_CLK*%
X213222500Y-134510000D03*
%TO.P,U1,57,PA15*%
%TO.N,GPIO_PA15*%
X213222500Y-134909999D03*
%TO.P,U1,58,PC10*%
%TO.N,GPIO_PC10*%
X213222500Y-135310000D03*
%TO.P,U1,59,PC11*%
%TO.N,GPIO_PC11*%
X213222500Y-135710000D03*
%TO.P,U1,60,PC12*%
%TO.N,unconnected-(U1-PC12-Pad60)*%
X213222499Y-136110000D03*
%TO.P,U1,61,PD0*%
%TO.N,unconnected-(U1-PD0-Pad61)*%
X213222500Y-136510000D03*
%TO.P,U1,62,PD1*%
%TO.N,unconnected-(U1-PD1-Pad62)*%
X213222500Y-136910000D03*
%TO.P,U1,63,PB3*%
%TO.N,unconnected-(U1-PB3-Pad63)*%
X213222500Y-137310001D03*
%TO.P,U1,64,PB4*%
%TO.N,FLT_CHG_L*%
X213222500Y-137710000D03*
%TO.P,U1,65,PB5*%
%TO.N,VIN_SNS_EN*%
X213222500Y-138110000D03*
%TO.P,U1,66,PB6*%
%TO.N,/BLE_MCU/BT_CONN_LED*%
X213222500Y-138510000D03*
%TO.P,U1,67,PB7*%
%TO.N,BAT_CHRG_FACTORY*%
X213222499Y-138910000D03*
%TO.P,U1,68,VDD*%
%TO.N,PP1800_ALW*%
X213222500Y-139310000D03*
D55*
%TO.P,U1,69,VSS*%
%TO.N,GND*%
X217110000Y-136110000D03*
%TD*%
D25*
%TO.P,C23,1*%
%TO.N,PPVAR_BAT*%
X199720200Y-143004600D03*
%TO.P,C23,2*%
%TO.N,GND*%
X199720200Y-143964600D03*
%TD*%
D18*
%TO.P,C18,1*%
%TO.N,/BLE_MCU/OSC32_OUT*%
X213563200Y-143312800D03*
%TO.P,C18,2*%
%TO.N,GND*%
X213563200Y-143952800D03*
%TD*%
D16*
%TO.P,R15,1*%
%TO.N,GND*%
X206745800Y-144881600D03*
%TO.P,R15,2*%
%TO.N,BAT_CHRG_FACTORY*%
X206105800Y-144881600D03*
%TD*%
D56*
%TO.N,GND*%
X227990000Y-137830000D03*
X227010000Y-140918334D03*
D57*
X215510000Y-134509000D03*
D56*
X230010000Y-139030000D03*
X230010000Y-144076664D03*
X230980000Y-134430000D03*
X226000000Y-133630000D03*
D57*
X215510000Y-137734800D03*
X217110000Y-137734800D03*
D56*
X228720000Y-136480000D03*
X230880000Y-143546664D03*
X225440000Y-130560000D03*
X227965000Y-128905000D03*
X202960000Y-140958600D03*
X226970000Y-134050000D03*
D58*
X203030000Y-135310000D03*
D56*
X226710000Y-136220000D03*
X230880000Y-138500000D03*
X223080322Y-139152500D03*
X227010000Y-138395002D03*
X209550000Y-145550000D03*
X224850000Y-133650000D03*
X222890000Y-134760000D03*
X227000000Y-130870000D03*
X228990000Y-143419996D03*
X224880000Y-141410000D03*
D57*
X209550000Y-129990000D03*
D56*
X230880000Y-141023332D03*
X227965000Y-130175000D03*
X221160000Y-139990000D03*
D58*
X201664800Y-144729200D03*
D57*
X217110000Y-134509000D03*
D56*
X223400000Y-144070000D03*
X227880000Y-136720000D03*
X223060000Y-130540000D03*
X228990000Y-145943332D03*
X227000000Y-132140000D03*
X203160000Y-136819800D03*
X224620000Y-143600000D03*
X201730000Y-138540000D03*
X214510000Y-130500000D03*
X230880000Y-144808330D03*
X230770000Y-136370000D03*
X208350000Y-131890000D03*
X223840000Y-135860000D03*
X221610000Y-143860000D03*
X230010000Y-145338330D03*
X205600010Y-142900000D03*
X226060000Y-131445000D03*
X227980000Y-141558334D03*
X226370000Y-134420000D03*
X230880000Y-146070000D03*
X202809998Y-134110000D03*
X227980000Y-146605002D03*
X228730000Y-133720000D03*
X224610000Y-136180000D03*
X229070000Y-132130000D03*
X206279998Y-142890000D03*
X227010000Y-142180000D03*
D57*
X215510000Y-136109200D03*
D56*
X230880000Y-139761666D03*
X202280400Y-140980000D03*
X216820000Y-143590000D03*
D58*
X204260000Y-135040000D03*
D56*
X227080000Y-133360000D03*
X227965000Y-131445000D03*
X228940000Y-129620000D03*
X199415400Y-130377000D03*
X229560000Y-136740000D03*
X230010000Y-140291666D03*
X225230000Y-135760000D03*
X223200000Y-133500000D03*
X227010000Y-139656668D03*
X228940000Y-130890000D03*
D57*
X218710000Y-134509000D03*
D56*
X202750000Y-132790000D03*
X225730000Y-134430000D03*
X230880000Y-142284998D03*
X227010000Y-144703332D03*
X227980000Y-144081666D03*
X230850000Y-137400000D03*
X227840000Y-133490000D03*
D57*
X209942141Y-136563091D03*
D56*
X207314800Y-144881600D03*
D57*
X217110000Y-136109200D03*
D56*
X225880000Y-135770000D03*
X230010000Y-146600000D03*
X227980000Y-145343332D03*
X227010000Y-143441666D03*
X211680000Y-135560000D03*
X228990000Y-139634998D03*
X224470000Y-134170000D03*
X229580000Y-133490000D03*
X227980000Y-142820000D03*
X230440000Y-134070000D03*
D57*
X218710000Y-136109200D03*
D56*
X224020000Y-133840000D03*
X228990000Y-144681662D03*
X230420000Y-133350000D03*
X230040000Y-137860000D03*
X223720000Y-136870000D03*
X227980000Y-139035002D03*
X230010000Y-142814998D03*
X227980000Y-140296668D03*
X228990000Y-138373332D03*
X218190000Y-130640000D03*
X223590000Y-135090000D03*
X213550000Y-141240000D03*
X211740000Y-140570000D03*
X230340000Y-136830000D03*
X223090000Y-140090000D03*
X223800000Y-133410000D03*
X202909300Y-131253100D03*
X228990000Y-142158330D03*
X228990000Y-140896664D03*
X227965000Y-132715000D03*
D57*
X218710000Y-137734800D03*
D56*
X213550000Y-144570000D03*
X227120000Y-136820000D03*
X230010000Y-141553332D03*
X222490000Y-133520000D03*
X212890000Y-132340000D03*
X199415400Y-136575800D03*
X223740000Y-140880000D03*
X226060000Y-132715000D03*
X214934800Y-144932400D03*
X225090000Y-134430000D03*
X215011000Y-142722600D03*
X196590000Y-133190000D03*
%TO.N,PP1800_ALW*%
X213010000Y-140020000D03*
X221600000Y-142010000D03*
X216310000Y-131460000D03*
D58*
X206470000Y-134250000D03*
D56*
X218922600Y-144297400D03*
X221872500Y-133320000D03*
X212320000Y-139310000D03*
D58*
X205900000Y-134240000D03*
D56*
X221910000Y-134810000D03*
X218140600Y-141980600D03*
X216890000Y-131460000D03*
X215809998Y-144330000D03*
%TO.N,PPVAR_SYS*%
X203380000Y-138150000D03*
D57*
X202082400Y-140131800D03*
D56*
%TO.N,PPVAR_BAT*%
X201540000Y-146870000D03*
X204650000Y-146880000D03*
D57*
%TO.N,PP3300_DBG*%
X204860000Y-140110000D03*
D56*
%TO.N,RESETB*%
X216660000Y-141630000D03*
X209010000Y-142110000D03*
%TO.N,PP3300_VDDUSB*%
X209340000Y-132290000D03*
X212250000Y-134180000D03*
X209030000Y-134180000D03*
D57*
%TO.N,PPVAR_VIN*%
X204901800Y-141050000D03*
X204901800Y-141808200D03*
X201093806Y-137720806D03*
X200290000Y-138250000D03*
D56*
%TO.N,VIN_SNS_ADC1_IN9*%
X222100000Y-139090000D03*
D57*
%TO.N,VBUS*%
X200030000Y-131940000D03*
X200620000Y-135660000D03*
X199690000Y-135540000D03*
D56*
X204180000Y-129460000D03*
X201020000Y-134110000D03*
D57*
X200012796Y-131126998D03*
D56*
%TO.N,Net-(U4-~{CE})*%
X200837800Y-144068800D03*
%TO.N,BAT_CHRG_FACTORY*%
X209990000Y-144530000D03*
X205333600Y-145516600D03*
X206908400Y-145680000D03*
%TO.N,Net-(U5-VINSW)*%
X202120000Y-136900000D03*
%TO.N,VIN_SNS_EN*%
X201170000Y-136630000D03*
X210520000Y-139150000D03*
%TO.N,FLT_CHG_L*%
X206960000Y-136670000D03*
X205080810Y-142654679D03*
X212090000Y-137670000D03*
X206530000Y-139370000D03*
%TO.N,/POWER/CHGR_BAT_THERM*%
X203610556Y-145180556D03*
%TO.N,Net-(U8-EN)*%
X204910000Y-132220000D03*
%TO.N,STM_LPUART_TXD_PA2*%
X222550000Y-140270000D03*
X220210000Y-131370000D03*
%TO.N,STM_WKUP2_PC13*%
X214172800Y-141579600D03*
X210590000Y-142180000D03*
%TO.N,STM_LPUART_RXD_PB10*%
X223270000Y-136020000D03*
X220820000Y-131410000D03*
%TO.N,STM_SAI1_SD_A*%
X213450000Y-132410000D03*
X223010000Y-136840000D03*
%TO.N,Net-(D1-K)*%
X203980000Y-146100000D03*
%TO.N,/POWER/CHG_LED_GRN*%
X200355200Y-143510000D03*
%TO.N,Net-(U5-VOS)*%
X201828400Y-137947400D03*
X205090000Y-136710000D03*
%TO.N,QSPI_MEM_D1*%
X216712800Y-143052800D03*
X223880000Y-141440000D03*
%TO.N,QSPI_MEM_D3*%
X223540000Y-138720000D03*
X222990000Y-143570000D03*
%TO.N,QSPI_MEM_D0*%
X225000000Y-143080000D03*
X217373200Y-143610000D03*
%TO.N,QSPI_MEM_CLK*%
X223800000Y-143690000D03*
X223561772Y-139557284D03*
%TO.N,PPVAR_ADC*%
X219810000Y-141530000D03*
X219100000Y-140870000D03*
%TO.N,GPIO_PC10*%
X211120000Y-135850000D03*
X210750000Y-131890000D03*
%TO.N,GPIO_PA15*%
X211220000Y-132280000D03*
X211230000Y-135140000D03*
%TO.N,GPIO_PC11*%
X211470000Y-136540000D03*
X210150000Y-132270000D03*
%TO.N,Net-(D4-K)*%
X206340000Y-146100000D03*
%TO.N,/BLE_MCU/BT_CONN_LED*%
X209620000Y-144010000D03*
%TO.N,Net-(J5-CC2)*%
X197330000Y-134720004D03*
%TO.N,Net-(J5-CC1)*%
X197360000Y-131730000D03*
%TD*%
D59*
%TO.N,GND*%
X229484200Y-134285800D02*
X229590000Y-134180000D01*
X228727000Y-133723000D02*
X228730000Y-133720000D01*
D60*
X225430000Y-130560000D02*
X224840000Y-131150000D01*
D59*
X206565000Y-143800000D02*
X206565000Y-143175002D01*
D60*
X202990000Y-135350000D02*
X203030000Y-135310000D01*
D61*
X199414200Y-130378200D02*
X199415400Y-130377000D01*
D60*
X225440000Y-130560000D02*
X225430000Y-130560000D01*
D59*
X228727000Y-136473000D02*
X228720000Y-136480000D01*
D62*
X205363600Y-144170400D02*
X205363600Y-143459200D01*
D60*
X206745800Y-144071600D02*
X206463600Y-143789400D01*
D59*
X227820000Y-134210000D02*
X227840000Y-134190000D01*
D61*
X199365800Y-130377000D02*
X198503000Y-130377000D01*
D62*
X223000000Y-130540000D02*
X223060000Y-130540000D01*
D60*
X224840000Y-131253000D02*
X224840000Y-131230000D01*
D59*
X203490000Y-134110000D02*
X202809998Y-134110000D01*
D61*
X204940000Y-135020000D02*
X204280000Y-135020000D01*
X198503000Y-129532000D02*
X198128000Y-129157000D01*
D59*
X229560000Y-136080000D02*
X229560000Y-136740000D01*
D60*
X214934800Y-144932400D02*
X214950000Y-144917200D01*
X223478000Y-132653000D02*
X223478000Y-132692000D01*
D59*
X228727000Y-135915800D02*
X229395800Y-135915800D01*
X226710000Y-136220000D02*
X226710000Y-135750000D01*
D60*
X199720200Y-144754600D02*
X199694800Y-144780000D01*
D59*
X228727000Y-134285800D02*
X229484200Y-134285800D01*
X227840000Y-134190000D02*
X227840000Y-133490000D01*
D61*
X201031200Y-129466400D02*
X201015600Y-129450800D01*
D59*
X227895800Y-134285800D02*
X227820000Y-134210000D01*
D60*
X224880000Y-141980000D02*
X224880000Y-141410000D01*
D59*
X228014200Y-135915800D02*
X227870000Y-136060000D01*
D61*
X201015600Y-129450800D02*
X200292000Y-129450800D01*
X198503000Y-136577000D02*
X198503000Y-137422000D01*
D59*
X201664800Y-144310000D02*
X201664800Y-144729198D01*
D60*
X213502800Y-144000000D02*
X213550000Y-143952800D01*
D59*
X229395800Y-135915800D02*
X229560000Y-136080000D01*
X228727000Y-135915800D02*
X228727000Y-136473000D01*
D60*
X219510000Y-133710000D02*
X217110000Y-136110000D01*
D59*
X228727000Y-134285800D02*
X227895800Y-134285800D01*
X229590000Y-134180000D02*
X229580000Y-134170000D01*
X227870000Y-136710000D02*
X227880000Y-136720000D01*
D60*
X224840000Y-131230000D02*
X224830000Y-131220000D01*
D62*
X217510000Y-132222500D02*
X217510000Y-135710000D01*
X205363600Y-143459200D02*
X205363600Y-143136410D01*
D60*
X202190000Y-136010000D02*
X202950000Y-136010000D01*
D62*
X222630000Y-130925000D02*
X222630000Y-130910000D01*
D61*
X209550000Y-128894000D02*
X209550000Y-129930000D01*
D60*
X214950000Y-144917200D02*
X214950000Y-144373600D01*
X221610000Y-143390000D02*
X221610000Y-143860000D01*
D61*
X199414200Y-136577000D02*
X199415400Y-136575800D01*
D60*
X201664800Y-144729200D02*
X201664800Y-144729198D01*
D61*
X198503000Y-137422000D02*
X198128000Y-137797000D01*
X198503000Y-130377000D02*
X198503000Y-129532000D01*
X204280000Y-135020000D02*
X204260000Y-135040000D01*
X203030000Y-135310000D02*
X203030000Y-135930000D01*
D59*
X228727000Y-134285800D02*
X228727000Y-133723000D01*
D60*
X207401600Y-144881600D02*
X207314800Y-144881600D01*
X202950000Y-136010000D02*
X203030000Y-135930000D01*
D59*
X224610000Y-136180000D02*
X224610000Y-135730000D01*
X227870000Y-136060000D02*
X227870000Y-136710000D01*
D61*
X199720200Y-143964600D02*
X199720200Y-144754600D01*
X198503000Y-136577000D02*
X199414200Y-136577000D01*
D60*
X213550000Y-143952800D02*
X213550000Y-144660000D01*
X202280400Y-141808200D02*
X202280400Y-140980000D01*
D59*
X230780000Y-136360000D02*
X230770000Y-136370000D01*
X230780000Y-135750000D02*
X230780000Y-136360000D01*
D60*
X203149200Y-141147800D02*
X202960000Y-140958600D01*
D62*
X205363600Y-143136410D02*
X205600010Y-142900000D01*
D61*
X202361800Y-129466400D02*
X201031200Y-129466400D01*
X198503000Y-130378200D02*
X199414200Y-130378200D01*
X209140000Y-136580000D02*
X209925232Y-136580000D01*
D59*
X223800000Y-133410000D02*
X223730000Y-133340000D01*
D60*
X217510000Y-135710000D02*
X217110000Y-136110000D01*
D59*
X228727000Y-135915800D02*
X228014200Y-135915800D01*
X207600000Y-131890000D02*
X208350000Y-131890000D01*
D61*
X209925232Y-136580000D02*
X209942141Y-136563091D01*
D59*
X229580000Y-134170000D02*
X229580000Y-133490000D01*
D60*
X222620000Y-132870000D02*
X223420000Y-132870000D01*
D62*
X220997500Y-133710000D02*
X219510000Y-133710000D01*
D60*
X223420000Y-132870000D02*
X223740000Y-132550000D01*
X203149200Y-141808200D02*
X203149200Y-141147800D01*
D59*
X206565000Y-143175002D02*
X206279998Y-142890000D01*
D61*
X202909300Y-131253100D02*
X203916700Y-131253100D01*
X200292000Y-129450800D02*
X199365800Y-130377000D01*
D60*
X213550000Y-141865000D02*
X213550000Y-141240000D01*
D62*
X222630000Y-130910000D02*
X223000000Y-130540000D01*
D60*
X221600000Y-143380000D02*
X221610000Y-143390000D01*
D59*
X223730000Y-133340000D02*
X223730000Y-132620000D01*
D62*
X206745800Y-144881600D02*
X207401600Y-144881600D01*
%TO.N,PP1800_ALW*%
X213960000Y-140020000D02*
X213010000Y-140020000D01*
X218922600Y-144297400D02*
X219014000Y-144206000D01*
X217910000Y-131360000D02*
X217770000Y-131220000D01*
X222960000Y-142900000D02*
X221760000Y-142900000D01*
D59*
X221600000Y-142010000D02*
X221610000Y-142020000D01*
D62*
X220987500Y-134500000D02*
X221600000Y-134500000D01*
X221600000Y-134500000D02*
X221910000Y-134810000D01*
X223380000Y-142480000D02*
X222960000Y-142900000D01*
X217910000Y-132222500D02*
X217910000Y-131360000D01*
X221760000Y-142900000D02*
X221610000Y-142750000D01*
X216890000Y-131420000D02*
X216890000Y-131460000D01*
X221610000Y-142750000D02*
X221610000Y-142480000D01*
X217110000Y-131680000D02*
X217110000Y-132222499D01*
X216480000Y-144340000D02*
X215819998Y-144340000D01*
X219014000Y-142854000D02*
X218140600Y-141980600D01*
X217770000Y-131220000D02*
X217090000Y-131220000D01*
X216710000Y-131640000D02*
X216710000Y-132222500D01*
X213201250Y-139320000D02*
X212338750Y-139320000D01*
D59*
X221610000Y-142020000D02*
X221610000Y-142480000D01*
D62*
X216310000Y-131460000D02*
X216310000Y-132222500D01*
X216890000Y-131460000D02*
X217110000Y-131680000D01*
X216890000Y-131460000D02*
X216710000Y-131640000D01*
X217090000Y-131220000D02*
X216890000Y-131420000D01*
X219014000Y-144206000D02*
X219014000Y-142854000D01*
X221000000Y-133310000D02*
X221862500Y-133310000D01*
D60*
%TO.N,PPVAR_SYS*%
X203180600Y-137950600D02*
X202765000Y-137950600D01*
X203179400Y-138350600D02*
X202765000Y-138350600D01*
X203380000Y-138150000D02*
X203180600Y-137950600D01*
X203380000Y-138150000D02*
X203179400Y-138350600D01*
D62*
%TO.N,PPVAR_BAT*%
X204660000Y-146890000D02*
X204650000Y-146880000D01*
X205335000Y-146890000D02*
X204660000Y-146890000D01*
D59*
X202237500Y-146870000D02*
X201540000Y-146870000D01*
D63*
%TO.N,/BLE_MCU/BT_PCB_ANT*%
X230780000Y-135110000D02*
X231413790Y-135110000D01*
D59*
X231413790Y-135110000D02*
X231436000Y-135100800D01*
X230757790Y-135100800D02*
X230780000Y-135110000D01*
D64*
X229687000Y-135100800D02*
X230757790Y-135100800D01*
D61*
%TO.N,PP3300_DBG*%
X208940000Y-141400000D02*
X208080000Y-141400000D01*
X209520000Y-140820000D02*
X208940000Y-141400000D01*
X206790000Y-140110000D02*
X204860000Y-140110000D01*
X209520000Y-139500000D02*
X209520000Y-140820000D01*
X209140000Y-139120000D02*
X209520000Y-139500000D01*
X208080000Y-141400000D02*
X206790000Y-140110000D01*
D60*
%TO.N,SWD_CLK*%
X212288750Y-134731250D02*
X210818750Y-134731250D01*
X208290200Y-137850000D02*
X207870000Y-137850000D01*
X210818750Y-134731250D02*
X210590000Y-134960000D01*
X213222500Y-134510000D02*
X212510000Y-134510000D01*
X210590000Y-136900000D02*
X210270000Y-137220000D01*
X208920200Y-137220000D02*
X208290200Y-137850000D01*
X210270000Y-137220000D02*
X208920200Y-137220000D01*
X212510000Y-134510000D02*
X212288750Y-134731250D01*
X210590000Y-134960000D02*
X210590000Y-136900000D01*
%TO.N,SWD_IO*%
X208490000Y-136870000D02*
X208490000Y-134080000D01*
X207162400Y-138462400D02*
X207162400Y-137515600D01*
X208149200Y-137210800D02*
X208490000Y-136870000D01*
X208490000Y-134080000D02*
X208860000Y-133710000D01*
X207870000Y-139120000D02*
X207820000Y-139120000D01*
X207467200Y-137210800D02*
X208149200Y-137210800D01*
X207162400Y-137515600D02*
X207467200Y-137210800D01*
X208860000Y-133710000D02*
X213222500Y-133710000D01*
X207820000Y-139120000D02*
X207162400Y-138462400D01*
%TO.N,RESETB*%
X210820000Y-146000000D02*
X210820000Y-146665000D01*
X210058000Y-138768000D02*
X209140000Y-137850000D01*
X216710000Y-139997500D02*
X216710000Y-141580000D01*
X209030000Y-142110000D02*
X210058000Y-141082000D01*
X216710000Y-141580000D02*
X216660000Y-141630000D01*
X209010000Y-142110000D02*
X209030000Y-142110000D01*
X210058000Y-141082000D02*
X210058000Y-138768000D01*
X209210000Y-142310000D02*
X209210000Y-144390000D01*
X209210000Y-144390000D02*
X210820000Y-146000000D01*
X209010000Y-142110000D02*
X209210000Y-142310000D01*
D64*
%TO.N,/BLE_MCU/BT_ANT_UFL*%
X225980000Y-135100000D02*
X225990000Y-135110000D01*
X225990000Y-135110000D02*
X226590986Y-135110000D01*
X226590986Y-135110000D02*
X226593400Y-135111000D01*
X226618024Y-135100800D02*
X227767000Y-135100800D01*
X226593400Y-135111000D02*
G75*
G02*
X226618024Y-135100811I24600J-24600D01*
G01*
D59*
%TO.N,/BLE_MCU/BT_ANT_MTCH*%
X225340000Y-135100000D02*
X225216600Y-135100000D01*
X225216600Y-135100000D02*
X225206600Y-135110000D01*
D64*
X225330325Y-135109675D02*
X224711615Y-135109675D01*
X224226313Y-134877513D02*
X224051921Y-134703121D01*
X224711615Y-135109675D02*
G75*
G02*
X224226306Y-134877521I91385J814375D01*
G01*
X224051921Y-134703121D02*
G75*
G03*
X222620000Y-134109988I-1431921J-1431879D01*
G01*
D59*
%TO.N,PP3300_VDDUSB*%
X207600000Y-130990000D02*
X207600000Y-130313100D01*
X212250000Y-134180000D02*
X212320000Y-134110000D01*
X212250000Y-134180000D02*
X209030000Y-134180000D01*
D65*
X208843100Y-130303100D02*
X207590000Y-130303100D01*
D60*
X207600000Y-130313100D02*
X207590000Y-130303100D01*
D59*
X212320000Y-134110000D02*
X213222500Y-134110000D01*
D65*
X207590000Y-130303100D02*
X206191700Y-130303100D01*
X209340000Y-132290000D02*
X209340000Y-130800000D01*
X209340000Y-130800000D02*
X208843100Y-130303100D01*
D60*
%TO.N,/BLE_MCU/OSC32_OUT*%
X213557200Y-143312800D02*
X215110000Y-141760000D01*
X213542800Y-143320000D02*
X213550000Y-143312800D01*
X215110000Y-141760000D02*
X215110000Y-139997500D01*
X212170000Y-143320000D02*
X213542800Y-143320000D01*
X212050000Y-144000000D02*
X212050000Y-143440000D01*
X212050000Y-143440000D02*
X212170000Y-143320000D01*
X213550000Y-143312800D02*
X213557200Y-143312800D01*
D61*
%TO.N,PPVAR_VIN*%
X200355200Y-137720800D02*
X201093800Y-137720800D01*
X201093800Y-137720800D02*
X201093806Y-137720806D01*
D62*
%TO.N,VIN_SNS_ADC1_IN9*%
X221920000Y-138910000D02*
X220997501Y-138910000D01*
X222100000Y-139090000D02*
X221920000Y-138910000D01*
D61*
%TO.N,VBUS*%
X200060000Y-135540000D02*
X199690000Y-135540000D01*
D59*
X201020000Y-134110000D02*
X201612600Y-134110000D01*
D61*
X202288200Y-130426400D02*
X201713800Y-131000800D01*
X200138994Y-131000800D02*
X200012796Y-131126998D01*
D60*
X204180000Y-129460000D02*
X204180000Y-130039800D01*
D61*
X198503000Y-135827000D02*
X199403000Y-135827000D01*
D60*
X204180000Y-130039800D02*
X203916700Y-130303100D01*
D61*
X200012794Y-131127000D02*
X200012796Y-131126998D01*
X199403000Y-135827000D02*
X199690000Y-135540000D01*
X198503000Y-131127000D02*
X200012794Y-131127000D01*
X201015600Y-131000800D02*
X200138994Y-131000800D01*
X200270000Y-136410000D02*
X200270000Y-135750000D01*
X200270000Y-135750000D02*
X200060000Y-135540000D01*
X202361800Y-130426400D02*
X202288200Y-130426400D01*
D59*
X201612600Y-134110000D02*
X201640000Y-134137400D01*
D61*
X203916700Y-130303100D02*
X202485100Y-130303100D01*
X202485100Y-130303100D02*
X202361800Y-130426400D01*
X201713800Y-131000800D02*
X201015600Y-131000800D01*
D60*
%TO.N,Net-(U4-~{CE})*%
X201320400Y-143916400D02*
X201326800Y-143910000D01*
X200837800Y-144068800D02*
X201041000Y-144068800D01*
X201193400Y-143916400D02*
X201320400Y-143916400D01*
X201326800Y-143910000D02*
X201664800Y-143910000D01*
X201041000Y-144068800D02*
X201193400Y-143916400D01*
%TO.N,Net-(U4-ILIM{slash}VSET)*%
X204463200Y-143910000D02*
X203764800Y-143910000D01*
X204723600Y-144170400D02*
X204463200Y-143910000D01*
%TO.N,Net-(U4-ISET)*%
X203764800Y-143510000D02*
X204672800Y-143510000D01*
X204672800Y-143510000D02*
X204723600Y-143459200D01*
%TO.N,BAT_CHRG_FACTORY*%
X213217499Y-138905000D02*
X213222499Y-138910000D01*
X210650000Y-141380000D02*
X210650000Y-140330000D01*
X210650000Y-140330000D02*
X211430000Y-139550000D01*
X211430000Y-139290000D02*
X211815000Y-138905000D01*
X205353400Y-144881600D02*
X206105800Y-144881600D01*
X209990000Y-144530000D02*
X210060000Y-144460000D01*
X205353400Y-145496800D02*
X205333600Y-145516600D01*
X210060000Y-141970000D02*
X210650000Y-141380000D01*
X211430000Y-139550000D02*
X211430000Y-139290000D01*
X206908400Y-145680000D02*
X206260000Y-145680000D01*
X206105800Y-145525800D02*
X206105800Y-144881600D01*
X210060000Y-144460000D02*
X210060000Y-141970000D01*
X205353400Y-144881600D02*
X205353400Y-145496800D01*
X206260000Y-145680000D02*
X206105800Y-145525800D01*
X211815000Y-138905000D02*
X213217499Y-138905000D01*
D62*
%TO.N,Net-(U5-VINSW)*%
X202365000Y-137550600D02*
X202365000Y-137145000D01*
X202365000Y-137145000D02*
X202120000Y-136900000D01*
D60*
%TO.N,VIN_SNS_EN*%
X211560000Y-138110000D02*
X213222500Y-138110000D01*
X201170000Y-136360000D02*
X201170000Y-136630000D01*
X202305000Y-136495000D02*
X202765000Y-136955000D01*
X201370000Y-135900000D02*
X201370000Y-136160000D01*
X201370000Y-136160000D02*
X201170000Y-136360000D01*
X201833000Y-136495000D02*
X202305000Y-136495000D01*
X201170000Y-136630000D02*
X201698000Y-136630000D01*
X201698000Y-136630000D02*
X201833000Y-136495000D01*
X210520000Y-139150000D02*
X211560000Y-138110000D01*
X202765000Y-136955000D02*
X202765000Y-137550600D01*
%TO.N,USB_D_N*%
X199730000Y-132850000D02*
X199472000Y-132850000D01*
X197760000Y-132850000D02*
X197883000Y-132727000D01*
X197883000Y-132727000D02*
X198868000Y-132727000D01*
X197860000Y-134230000D02*
X197760000Y-134130000D01*
X202090001Y-133572500D02*
X202217501Y-133700000D01*
X204797808Y-133944000D02*
X204174000Y-133944000D01*
X202910000Y-133700000D02*
X203037500Y-133572500D01*
X204174000Y-133944000D02*
X203802500Y-133572500D01*
X200552836Y-133907164D02*
X200255356Y-133907164D01*
X198868000Y-132727000D02*
X198992000Y-132851000D01*
X200106000Y-133226000D02*
X199730000Y-132850000D01*
X203037500Y-133572500D02*
X203415000Y-133572500D01*
X200106000Y-133757808D02*
X200106000Y-133226000D01*
X198503000Y-134227000D02*
X197863000Y-134227000D01*
X197760000Y-134130000D02*
X197760000Y-132850000D01*
X197863000Y-134227000D02*
X197860000Y-134230000D01*
X201715000Y-133572500D02*
X202090001Y-133572500D01*
X213222500Y-132910000D02*
X213148499Y-132984000D01*
X205757808Y-132984000D02*
X204797808Y-133944000D01*
X201715000Y-133572500D02*
X201587500Y-133700000D01*
X198992000Y-132851000D02*
X199471000Y-132851000D01*
X203802500Y-133572500D02*
X203415000Y-133572500D01*
X202217501Y-133700000D02*
X202910000Y-133700000D01*
X200760000Y-133700000D02*
X200552836Y-133907164D01*
X200255356Y-133907164D02*
X200106000Y-133757808D01*
X201587500Y-133700000D02*
X200760000Y-133700000D01*
X213148499Y-132984000D02*
X205757808Y-132984000D01*
X199472000Y-132850000D02*
X199471000Y-132851000D01*
%TO.N,FLT_CHG_L*%
X203764800Y-143110000D02*
X204324800Y-143110000D01*
X213212500Y-137700000D02*
X213222500Y-137710000D01*
X204780121Y-142654679D02*
X205080810Y-142654679D01*
X212090000Y-137670000D02*
X212120000Y-137700000D01*
X206530000Y-137100000D02*
X206960000Y-136670000D01*
X204324800Y-143110000D02*
X204780121Y-142654679D01*
X206530000Y-139370000D02*
X206530000Y-137100000D01*
X212120000Y-137700000D02*
X213212500Y-137700000D01*
%TO.N,USB_D_P*%
X204902192Y-134196000D02*
X205862192Y-133236000D01*
X204270000Y-134196000D02*
X204902192Y-134196000D01*
X199854000Y-133862192D02*
X199854000Y-133342192D01*
X201715000Y-134647500D02*
X201587500Y-134520000D01*
X203415000Y-134647500D02*
X203818500Y-134647500D01*
X213148499Y-133236000D02*
X213222499Y-133310000D01*
X205862192Y-133236000D02*
X213148499Y-133236000D01*
X198503000Y-133227000D02*
X198503000Y-133727000D01*
X198992000Y-133103000D02*
X198868000Y-133227000D01*
X202090001Y-134647500D02*
X202217501Y-134520000D01*
X203818500Y-134647500D02*
X204270000Y-134196000D01*
X202217501Y-134520000D02*
X202912499Y-134520000D01*
X203039999Y-134647500D02*
X203415000Y-134647500D01*
X198868000Y-133227000D02*
X198503000Y-133227000D01*
X199854000Y-133342192D02*
X199614808Y-133103000D01*
X200221808Y-134230000D02*
X199854000Y-133862192D01*
X200760000Y-134520000D02*
X200470000Y-134230000D01*
X200470000Y-134230000D02*
X200221808Y-134230000D01*
X201715000Y-134647500D02*
X202090001Y-134647500D01*
X199614808Y-133103000D02*
X198992000Y-133103000D01*
X201587500Y-134520000D02*
X200760000Y-134520000D01*
X202912499Y-134520000D02*
X203039999Y-134647500D01*
%TO.N,/BLE_MCU/OSC32_IN*%
X213550000Y-142505000D02*
X213985000Y-142505000D01*
X212185000Y-142505000D02*
X213550000Y-142505000D01*
X214710000Y-141760000D02*
X214710000Y-141730000D01*
X214710000Y-141730000D02*
X214710000Y-139997500D01*
X212050000Y-142370000D02*
X212185000Y-142505000D01*
X212050000Y-141500000D02*
X212050000Y-142370000D01*
X213985000Y-142505000D02*
X214710000Y-141780000D01*
X214710000Y-141780000D02*
X214710000Y-141730000D01*
%TO.N,I2C3_SCL*%
X217440000Y-144340000D02*
X217800000Y-143980000D01*
X217110000Y-142200000D02*
X217110000Y-139997501D01*
X217120000Y-144340000D02*
X217440000Y-144340000D01*
X214630000Y-146608800D02*
X214630000Y-146665000D01*
X215558800Y-145680000D02*
X214630000Y-146608800D01*
X217800000Y-143980000D02*
X217800000Y-142890000D01*
X216168400Y-145680000D02*
X215558800Y-145680000D01*
X217120000Y-144340000D02*
X217120000Y-144728400D01*
X217120000Y-144728400D02*
X216168400Y-145680000D01*
X217800000Y-142890000D02*
X217110000Y-142200000D01*
%TO.N,I2C3_SDA*%
X215905000Y-146665000D02*
X215900000Y-146665000D01*
X218374000Y-142885200D02*
X218374000Y-144196000D01*
X217510000Y-139997500D02*
X217510000Y-142021200D01*
X218374000Y-144196000D02*
X215905000Y-146665000D01*
X217510000Y-142021200D02*
X218374000Y-142885200D01*
%TO.N,SPI2_DEV_CS_L_PB12*%
X217280000Y-130940000D02*
X218110000Y-130110000D01*
X216060000Y-130940000D02*
X217280000Y-130940000D01*
X215909999Y-132222500D02*
X215909999Y-131639999D01*
X218110000Y-130110000D02*
X218494000Y-130110000D01*
X215860000Y-131590000D02*
X215860000Y-131140000D01*
X218494000Y-130110000D02*
X219710000Y-128894000D01*
X215860000Y-131140000D02*
X216060000Y-130940000D01*
X215909999Y-131639999D02*
X215860000Y-131590000D01*
%TO.N,SPI2_DEV_DC_PC6*%
X213450000Y-131030000D02*
X213450000Y-130070000D01*
X214626000Y-128894000D02*
X214630000Y-128894000D01*
X214310000Y-132222499D02*
X214310000Y-131640000D01*
X213450000Y-130070000D02*
X214626000Y-128894000D01*
X214310000Y-131640000D02*
X214170000Y-131500000D01*
X214170000Y-131500000D02*
X213920000Y-131500000D01*
X213920000Y-131500000D02*
X213450000Y-131030000D01*
%TO.N,SPI2_DEV_DO_STM_DI_PB14*%
X213990000Y-130750000D02*
X213990000Y-130360000D01*
X214290000Y-130060000D02*
X216004000Y-130060000D01*
X216004000Y-130060000D02*
X217170000Y-128894000D01*
X213990000Y-130360000D02*
X214290000Y-130060000D01*
X215110000Y-131300000D02*
X214770000Y-130960000D01*
X214200000Y-130960000D02*
X213990000Y-130750000D01*
X215110000Y-132222500D02*
X215110000Y-131300000D01*
X214770000Y-130960000D02*
X214200000Y-130960000D01*
%TO.N,SPI2_CLK_PB13*%
X218440000Y-129070000D02*
X218440000Y-128894000D01*
X216990000Y-130520000D02*
X218440000Y-129070000D01*
X216160000Y-130520000D02*
X216990000Y-130520000D01*
%TO.N,SPI2_STM_DO_DEV_DI_PB15*%
X213710000Y-130240000D02*
X214200000Y-129750000D01*
X214550000Y-131230000D02*
X214060000Y-131230000D01*
X214717000Y-132215500D02*
X214717000Y-131397000D01*
X215044000Y-129750000D02*
X215900000Y-128894000D01*
X213710000Y-130880000D02*
X213710000Y-130240000D01*
X214717000Y-131397000D02*
X214550000Y-131230000D01*
X214710000Y-132222500D02*
X214717000Y-132215500D01*
X214060000Y-131230000D02*
X213710000Y-130880000D01*
X214200000Y-129750000D02*
X215044000Y-129750000D01*
%TO.N,/POWER/CHGR_BAT_THERM*%
X204216000Y-144881600D02*
X204042598Y-145055002D01*
X203758800Y-144881600D02*
X203758800Y-144881590D01*
X204713400Y-144881600D02*
X204216000Y-144881600D01*
X204042598Y-145055002D02*
X203736111Y-145055002D01*
D59*
X203764800Y-145026312D02*
X203610556Y-145180556D01*
X203764800Y-144310000D02*
X203764800Y-145026312D01*
D60*
X203758800Y-144881590D02*
X203736111Y-144904279D01*
%TO.N,Net-(U8-EN)*%
X204910000Y-132220000D02*
X204320000Y-132220000D01*
X204320000Y-132220000D02*
X204303100Y-132203100D01*
X204303100Y-132203100D02*
X203916700Y-132203100D01*
D65*
%TO.N,/BLE_MCU/STM_RF*%
X220997500Y-134110000D02*
X221980000Y-134110000D01*
D60*
%TO.N,STM_LPUART_TXD_PA2*%
X220697500Y-139997500D02*
X220760000Y-140060000D01*
X220760000Y-140060000D02*
X220760000Y-140280000D01*
X220890000Y-140410000D02*
X222410000Y-140410000D01*
X220250000Y-131370000D02*
X220620000Y-131000000D01*
X220760000Y-140280000D02*
X220890000Y-140410000D01*
X222410000Y-140410000D02*
X222550000Y-140270000D01*
X221240000Y-131000000D02*
X222330000Y-129910000D01*
X220210000Y-131370000D02*
X220250000Y-131370000D01*
X220620000Y-131000000D02*
X221240000Y-131000000D01*
X222330000Y-129910000D02*
X223774000Y-129910000D01*
X223774000Y-129910000D02*
X224790000Y-128894000D01*
X220310000Y-139997500D02*
X220697500Y-139997500D01*
%TO.N,/BLE_MCU/OSC_IN*%
X223740000Y-131150000D02*
X223740000Y-131210000D01*
X221481762Y-132222500D02*
X220310000Y-132222500D01*
X223740000Y-131210000D02*
X223410000Y-131540000D01*
X222164262Y-131540000D02*
X221481762Y-132222500D01*
X223410000Y-131540000D02*
X222164262Y-131540000D01*
%TO.N,STM_SAI1_SCK_A*%
X223430000Y-146575000D02*
X223520000Y-146665000D01*
X222100001Y-137310001D02*
X222410000Y-137620000D01*
X222410000Y-137620000D02*
X224430000Y-137620000D01*
X223520000Y-145750000D02*
X223520000Y-146665000D01*
X220997500Y-137310001D02*
X222100001Y-137310001D01*
X224430000Y-137620000D02*
X225840000Y-139030000D01*
X225840000Y-143430000D02*
X223520000Y-145750000D01*
X225840000Y-139030000D02*
X225840000Y-143430000D01*
%TO.N,STM_WKUP2_PC13*%
X210590000Y-142180000D02*
X210590000Y-144920000D01*
X212090000Y-146420000D02*
X212090000Y-146665000D01*
X214172800Y-141579600D02*
X214172800Y-140817600D01*
X210590000Y-144920000D02*
X212090000Y-146420000D01*
X214172800Y-140817600D02*
X214310000Y-140680400D01*
X214310000Y-140680400D02*
X214310000Y-139997501D01*
%TO.N,ADC1_IN3*%
X217910000Y-139997500D02*
X217910000Y-140960000D01*
X217910000Y-140960000D02*
X218620000Y-141670000D01*
X219510000Y-142852800D02*
X219510000Y-144330000D01*
X218620000Y-141962800D02*
X219510000Y-142852800D01*
X219510000Y-144330000D02*
X217175000Y-146665000D01*
X218620000Y-141670000D02*
X218620000Y-141962800D01*
X217175000Y-146665000D02*
X217170000Y-146665000D01*
%TO.N,STM_LPUART_RXD_PB10*%
X223270000Y-136020000D02*
X222340000Y-136020000D01*
X220820000Y-131410000D02*
X221390000Y-131410000D01*
X222670000Y-130130000D02*
X224824000Y-130130000D01*
X222340000Y-136020000D02*
X221630000Y-135310000D01*
X221630000Y-135310000D02*
X220997500Y-135310000D01*
X224824000Y-130130000D02*
X226060000Y-128894000D01*
X221390000Y-131410000D02*
X222670000Y-130130000D01*
%TO.N,/BLE_MCU/OSC_OUT*%
X224840000Y-132488000D02*
X224302000Y-131950000D01*
X221980000Y-132260000D02*
X221330000Y-132910000D01*
X222900000Y-131950000D02*
X222590000Y-132260000D01*
X224840000Y-132550000D02*
X224840000Y-132488000D01*
X221330000Y-132910000D02*
X220997500Y-132910000D01*
X224302000Y-131950000D02*
X222900000Y-131950000D01*
X222590000Y-132260000D02*
X221980000Y-132260000D01*
X224840000Y-132653000D02*
X224840000Y-132698400D01*
%TO.N,STM_SAI1_SD_A*%
X224270000Y-136450000D02*
X226560000Y-138740000D01*
X226060000Y-145370000D02*
X226060000Y-146665000D01*
X223400000Y-136450000D02*
X224270000Y-136450000D01*
X213450000Y-132410000D02*
X213637500Y-132222500D01*
X226560000Y-138740000D02*
X226560000Y-144870000D01*
X213637500Y-132222500D02*
X213910000Y-132222500D01*
X223010000Y-136840000D02*
X223400000Y-136450000D01*
X226560000Y-144870000D02*
X226060000Y-145370000D01*
%TO.N,ADC1_IN5*%
X220472000Y-142952000D02*
X220472000Y-145048000D01*
X219350000Y-141830000D02*
X220472000Y-142952000D01*
X219510000Y-141100000D02*
X219350000Y-141260000D01*
X220472000Y-145048000D02*
X219710000Y-145810000D01*
X219710000Y-145810000D02*
X219710000Y-146665000D01*
X219510000Y-139997500D02*
X219510000Y-141100000D01*
X219350000Y-141260000D02*
X219350000Y-141830000D01*
%TO.N,ADC1_IN4*%
X218440000Y-146320000D02*
X220020000Y-144740000D01*
X218310001Y-140840001D02*
X218310001Y-139997500D01*
X218990000Y-141520000D02*
X218310001Y-140840001D01*
X220020000Y-142940000D02*
X218990000Y-141910000D01*
X220020000Y-144740000D02*
X220020000Y-142940000D01*
X218440000Y-146665000D02*
X218440000Y-146320000D01*
X218990000Y-141910000D02*
X218990000Y-141520000D01*
%TO.N,STM_SAI1_FS_A*%
X226200000Y-138870000D02*
X226200000Y-144160000D01*
X224790000Y-145570000D02*
X224790000Y-146665000D01*
X220997500Y-136910000D02*
X222230000Y-136910000D01*
X222230000Y-136910000D02*
X222610000Y-137290000D01*
X226200000Y-144160000D02*
X224790000Y-145570000D01*
X222610000Y-137290000D02*
X224620000Y-137290000D01*
X224620000Y-137290000D02*
X226200000Y-138870000D01*
D59*
%TO.N,Net-(D1-K)*%
X203540000Y-146540000D02*
X203980000Y-146100000D01*
X203210000Y-146870000D02*
X203540000Y-146540000D01*
X203207500Y-146870000D02*
X203210000Y-146870000D01*
D62*
%TO.N,/POWER/CHG_LED_GRN*%
X201664800Y-143510000D02*
X200533000Y-143510000D01*
X200533000Y-143510000D02*
X200355200Y-143510000D01*
D60*
%TO.N,Net-(U5-VOS)*%
X202365000Y-137950600D02*
X201831600Y-137950600D01*
X201831600Y-137950600D02*
X201828400Y-137947400D01*
%TO.N,QSPI_MEM_D1*%
X216712800Y-143052800D02*
X215909999Y-142249999D01*
X223880000Y-141980000D02*
X223880000Y-141440000D01*
X215909999Y-142249999D02*
X215909999Y-139997500D01*
%TO.N,QSPI_MEM_D3*%
X222990000Y-143570000D02*
X222990000Y-143390000D01*
X223880000Y-142500000D02*
X223880000Y-142480000D01*
X222320000Y-138720000D02*
X221710000Y-138110000D01*
X221710000Y-138110000D02*
X220997500Y-138110000D01*
X223540000Y-138720000D02*
X222320000Y-138720000D01*
X222990000Y-143390000D02*
X223880000Y-142500000D01*
%TO.N,QSPI_MEM_D0*%
X225050000Y-143030000D02*
X225000000Y-143080000D01*
X224880000Y-142480000D02*
X225050000Y-142650000D01*
X216310000Y-141200000D02*
X216310000Y-139997500D01*
X225050000Y-142650000D02*
X225050000Y-143030000D01*
X216185001Y-141324999D02*
X216310000Y-141200000D01*
X217373200Y-143610000D02*
X217373200Y-143052800D01*
X217373200Y-143052800D02*
X216185001Y-141864601D01*
X216185001Y-141864601D02*
X216185001Y-141324999D01*
%TO.N,QSPI_MEM_D2*%
X224790000Y-140520000D02*
X224790000Y-140790000D01*
X225160000Y-138910000D02*
X225160000Y-139080000D01*
X224790000Y-140790000D02*
X224740000Y-140840000D01*
X224730000Y-140460000D02*
X224790000Y-140520000D01*
X224250000Y-138300000D02*
X224080000Y-138470000D01*
X225160000Y-139080000D02*
X225080000Y-139160000D01*
X224160000Y-138770000D02*
X225020000Y-138770000D01*
X223780000Y-140460000D02*
X224730000Y-140460000D01*
X220997500Y-137710000D02*
X221830000Y-137710000D01*
X223170000Y-138380000D02*
X223220000Y-138330000D01*
X223220000Y-138330000D02*
X223220000Y-138170000D01*
X225080000Y-139160000D02*
X224180000Y-139160000D01*
X224070000Y-139270000D02*
X224070000Y-139460000D01*
X221830000Y-137710000D02*
X222220000Y-138100000D01*
X225020000Y-138770000D02*
X225160000Y-138910000D01*
X222685000Y-138100000D02*
X222965000Y-138380000D01*
X224160000Y-138080000D02*
X224250000Y-138170000D01*
X223220000Y-138170000D02*
X223310000Y-138080000D01*
X225470000Y-139900000D02*
X225400000Y-139970000D01*
X224080000Y-138470000D02*
X224080000Y-138690000D01*
X225470000Y-139610000D02*
X225470000Y-139900000D01*
X222965000Y-138380000D02*
X223170000Y-138380000D01*
X222220000Y-138100000D02*
X222685000Y-138100000D01*
X223720000Y-140400000D02*
X223780000Y-140460000D01*
X224250000Y-138170000D02*
X224250000Y-138300000D01*
X225400000Y-139540000D02*
X225470000Y-139610000D01*
X223310000Y-138080000D02*
X224160000Y-138080000D01*
X224070000Y-139460000D02*
X224150000Y-139540000D01*
X223720000Y-140050000D02*
X223720000Y-140400000D01*
X225400000Y-139970000D02*
X223800000Y-139970000D01*
X223800000Y-139970000D02*
X223720000Y-140050000D01*
X224150000Y-139540000D02*
X225400000Y-139540000D01*
X224180000Y-139160000D02*
X224070000Y-139270000D01*
X224080000Y-138690000D02*
X224160000Y-138770000D01*
X224460000Y-140840000D02*
X224380000Y-140920000D01*
X224740000Y-140840000D02*
X224460000Y-140840000D01*
X224380000Y-140920000D02*
X224380000Y-141980000D01*
%TO.N,QSPI_MEM_CS_L*%
X223340000Y-141450000D02*
X223340000Y-141240000D01*
X220130000Y-141270000D02*
X219910000Y-141050000D01*
X222040000Y-140950000D02*
X221940000Y-140850000D01*
X222790000Y-142120000D02*
X222930000Y-142260000D01*
X223270000Y-141170000D02*
X222500000Y-141170000D01*
X221120000Y-140720000D02*
X220510000Y-140720000D01*
X221210000Y-140810000D02*
X221120000Y-140720000D01*
X223260000Y-141530000D02*
X223340000Y-141450000D01*
X222430000Y-141240000D02*
X222430000Y-142050000D01*
X222040000Y-142500000D02*
X222040000Y-140950000D01*
X222430000Y-142050000D02*
X222500000Y-142120000D01*
X220510000Y-140720000D02*
X220430000Y-140800000D01*
X220500000Y-141980000D02*
X220500000Y-141670000D01*
X222200000Y-142660000D02*
X222040000Y-142500000D01*
X221940000Y-140850000D02*
X221710000Y-140850000D01*
X220970000Y-142450000D02*
X220500000Y-141980000D01*
X220430000Y-141170000D02*
X220330000Y-141270000D01*
X223120000Y-141530000D02*
X223260000Y-141530000D01*
X220330000Y-141270000D02*
X220130000Y-141270000D01*
X221405000Y-141375000D02*
X221180000Y-141600000D01*
X221180000Y-141600000D02*
X221180000Y-142370000D01*
X223150000Y-141980000D02*
X223020000Y-141850000D01*
X222500000Y-142120000D02*
X222790000Y-142120000D01*
X221530000Y-141375000D02*
X221405000Y-141375000D01*
X223020000Y-141850000D02*
X223020000Y-141630000D01*
X220430000Y-140800000D02*
X220430000Y-141170000D01*
X221210000Y-140960000D02*
X221210000Y-140810000D01*
X221630000Y-140930000D02*
X221630000Y-141275000D01*
X223340000Y-141240000D02*
X223270000Y-141170000D01*
X222930000Y-142510000D02*
X222780000Y-142660000D01*
X221100000Y-142450000D02*
X220970000Y-142450000D01*
X221180000Y-142370000D02*
X221100000Y-142450000D01*
X222780000Y-142660000D02*
X222200000Y-142660000D01*
X221710000Y-140850000D02*
X221630000Y-140930000D01*
X223020000Y-141630000D02*
X223120000Y-141530000D01*
X223380000Y-141980000D02*
X223150000Y-141980000D01*
X220500000Y-141670000D02*
X221210000Y-140960000D01*
X221630000Y-141275000D02*
X221530000Y-141375000D01*
X222930000Y-142260000D02*
X222930000Y-142510000D01*
X219910000Y-141050000D02*
X219910000Y-139997501D01*
X222500000Y-141170000D02*
X222430000Y-141240000D01*
%TO.N,QSPI_MEM_CLK*%
X220997500Y-139310000D02*
X221710000Y-139310000D01*
X223800000Y-143690000D02*
X223800000Y-143300000D01*
X221710000Y-139310000D02*
X221957284Y-139557284D01*
X224380000Y-142720000D02*
X224380000Y-142480000D01*
X221957284Y-139557284D02*
X223561772Y-139557284D01*
X223800000Y-143300000D02*
X224380000Y-142720000D01*
%TO.N,Net-(U1-PB13)*%
X215510000Y-130530000D02*
X215520000Y-130520000D01*
X215510000Y-132222500D02*
X215510000Y-130530000D01*
%TO.N,STM_BOOT0*%
X214579200Y-143510000D02*
X214310000Y-143779200D01*
X215510000Y-139997500D02*
X215510000Y-142884000D01*
X215510000Y-142884000D02*
X214884000Y-143510000D01*
X214310000Y-145040000D02*
X213360000Y-145990000D01*
X214310000Y-143779200D02*
X214310000Y-145040000D01*
X214884000Y-143510000D02*
X214579200Y-143510000D01*
X213360000Y-145990000D02*
X213360000Y-146665000D01*
%TO.N,PPVAR_ADC*%
X219110000Y-140860000D02*
X219100000Y-140870000D01*
D63*
X219810000Y-141780000D02*
X220980000Y-142950000D01*
X219810000Y-141530000D02*
X219810000Y-141780000D01*
X220980000Y-142950000D02*
X220980000Y-146665000D01*
D62*
X219110000Y-139997500D02*
X219110000Y-140860000D01*
D60*
%TO.N,GPIO_PC10*%
X211120000Y-135850000D02*
X211280000Y-136010000D01*
X212550000Y-135310000D02*
X213222500Y-135310000D01*
X210750000Y-130234000D02*
X212090000Y-128894000D01*
X211850000Y-136010000D02*
X212550000Y-135310000D01*
X211280000Y-136010000D02*
X211850000Y-136010000D01*
X210750000Y-131890000D02*
X210750000Y-130234000D01*
%TO.N,GPIO_PA15*%
X212280000Y-135140000D02*
X212510001Y-134909999D01*
X211220000Y-132280000D02*
X211220000Y-131034000D01*
X211230000Y-135140000D02*
X212280000Y-135140000D01*
X211220000Y-131034000D02*
X213360000Y-128894000D01*
X212510001Y-134909999D02*
X213222500Y-134909999D01*
%TO.N,GPIO_PC11*%
X211470000Y-136540000D02*
X211770000Y-136540000D01*
X212600000Y-135710000D02*
X213222500Y-135710000D01*
X210150000Y-132270000D02*
X210150000Y-129564000D01*
X210150000Y-129564000D02*
X210820000Y-128894000D01*
X211770000Y-136540000D02*
X212600000Y-135710000D01*
%TO.N,GPIO_PB0*%
X221075000Y-130650000D02*
X222065000Y-129660000D01*
X219110000Y-131550000D02*
X220010000Y-130650000D01*
X222754000Y-129660000D02*
X223520000Y-128894000D01*
X219110000Y-132222500D02*
X219110000Y-131550000D01*
X220010000Y-130650000D02*
X221075000Y-130650000D01*
X222065000Y-129660000D02*
X222754000Y-129660000D01*
%TO.N,GPIO_PB1*%
X220894000Y-130250000D02*
X219940000Y-130250000D01*
X218710000Y-131480000D02*
X218710000Y-132222500D01*
X219940000Y-130250000D02*
X218710000Y-131480000D01*
X222250000Y-128894000D02*
X220894000Y-130250000D01*
D59*
%TO.N,Net-(D4-K)*%
X206305000Y-146135000D02*
X206340000Y-146100000D01*
X206305000Y-146890000D02*
X206305000Y-146135000D01*
D60*
%TO.N,/BLE_MCU/BT_CONN_LED*%
X210362800Y-141197200D02*
X210362800Y-140137200D01*
X209620000Y-141940000D02*
X210362800Y-141197200D01*
X211730000Y-138510000D02*
X213222500Y-138510000D01*
X211100000Y-139140000D02*
X211730000Y-138510000D01*
X211100000Y-139400000D02*
X211100000Y-139140000D01*
X210362800Y-140137200D02*
X211100000Y-139400000D01*
X209620000Y-144010000D02*
X209620000Y-141940000D01*
%TO.N,GPIO_PE4*%
X218310001Y-131439999D02*
X219970000Y-129780000D01*
X219970000Y-129780000D02*
X220400000Y-129780000D01*
X220980000Y-129200000D02*
X220980000Y-128894000D01*
X220400000Y-129780000D02*
X220980000Y-129200000D01*
X218310001Y-132222500D02*
X218310001Y-131439999D01*
X220980000Y-128910000D02*
X220980000Y-128894000D01*
%TO.N,Net-(J5-CC2)*%
X198503000Y-134727000D02*
X197336996Y-134727000D01*
X197336996Y-134727000D02*
X197330000Y-134720004D01*
%TO.N,Net-(J5-CC1)*%
X198503000Y-131727000D02*
X197363000Y-131727000D01*
X197363000Y-131727000D02*
X197360000Y-131730000D01*
%TD*%
%TA.AperFunction,Conductor*%
%TO.N,VBUS*%
G36*
X200886031Y-135224685D02*
G01*
X200931786Y-135277489D01*
X200942717Y-135320752D01*
X200944725Y-135350875D01*
X200945000Y-135359123D01*
X200945000Y-136302299D01*
X200925315Y-136369338D01*
X200908681Y-136389980D01*
X200879626Y-136419034D01*
X200828647Y-136519089D01*
X200821450Y-136564527D01*
X200791520Y-136627661D01*
X200732208Y-136664591D01*
X200699354Y-136669126D01*
X199895770Y-136671568D01*
X199828671Y-136652088D01*
X199782756Y-136599423D01*
X199772920Y-136566966D01*
X199756753Y-136464890D01*
X199705773Y-136364834D01*
X199626365Y-136285426D01*
X199526309Y-136234446D01*
X199405761Y-136215354D01*
X199406363Y-136211550D01*
X199357479Y-136197196D01*
X199311724Y-136144392D01*
X199300520Y-136093651D01*
X199295775Y-135329770D01*
X199315043Y-135262610D01*
X199367562Y-135216528D01*
X199419773Y-135205000D01*
X200818992Y-135205000D01*
X200886031Y-135224685D01*
G37*
%TD.AperFunction*%
%TD*%
%TA.AperFunction,Conductor*%
%TO.N,Net-(U5-SW)*%
G36*
X205783771Y-138360829D02*
G01*
X205790800Y-138377800D01*
X205790800Y-139168000D01*
X205783771Y-139184971D01*
X205766800Y-139192000D01*
X203286659Y-139192000D01*
X203269688Y-139184971D01*
X203269079Y-139184338D01*
X202945712Y-138836400D01*
X202766800Y-138836400D01*
X202749829Y-138829371D01*
X202742800Y-138812400D01*
X202742800Y-138682600D01*
X202749829Y-138665629D01*
X202766800Y-138658600D01*
X202947952Y-138658600D01*
X202947953Y-138658600D01*
X203063502Y-138551304D01*
X203109586Y-138508513D01*
X203125917Y-138502100D01*
X203209535Y-138502100D01*
X203243797Y-138487906D01*
X203262163Y-138487906D01*
X203263873Y-138488694D01*
X203269088Y-138491352D01*
X203380000Y-138508919D01*
X203490912Y-138491352D01*
X203590967Y-138440372D01*
X203670372Y-138360967D01*
X203670373Y-138360964D01*
X203670509Y-138360829D01*
X203687480Y-138353800D01*
X205766800Y-138353800D01*
X205783771Y-138360829D01*
G37*
%TD.AperFunction*%
%TD*%
%TA.AperFunction,Conductor*%
%TO.N,GND*%
G36*
X203257829Y-140773829D02*
G01*
X203497771Y-141013771D01*
X203504800Y-141030742D01*
X203504800Y-142153858D01*
X203497771Y-142170828D01*
X203403200Y-142265399D01*
X203403200Y-144876632D01*
X203396171Y-144893601D01*
X203320589Y-144969184D01*
X203320181Y-144969592D01*
X203269204Y-145069641D01*
X203251637Y-145180556D01*
X203269204Y-145291470D01*
X203296771Y-145345573D01*
X203298212Y-145363886D01*
X203292358Y-145373440D01*
X202470429Y-146195371D01*
X202453458Y-146202400D01*
X196555142Y-146202400D01*
X196538171Y-146195371D01*
X196298229Y-145955429D01*
X196291200Y-145938458D01*
X196291200Y-145043942D01*
X196298229Y-145026971D01*
X196792171Y-144533029D01*
X196809142Y-144526000D01*
X201955398Y-144526000D01*
X201955400Y-144526000D01*
X202057000Y-144424400D01*
X202057000Y-142341600D01*
X201860829Y-142145429D01*
X201853800Y-142128458D01*
X201853800Y-141081542D01*
X201860829Y-141064571D01*
X202151571Y-140773829D01*
X202168542Y-140766800D01*
X203240858Y-140766800D01*
X203257829Y-140773829D01*
G37*
%TD.AperFunction*%
%TD*%
%TA.AperFunction,Conductor*%
%TO.N,PPVAR_BAT*%
G36*
X199651029Y-140570629D02*
G01*
X200525971Y-141445571D01*
X200533000Y-141462542D01*
X200533000Y-142367000D01*
X201117200Y-142951200D01*
X201287000Y-142951200D01*
X201301400Y-142956000D01*
X201396600Y-143027400D01*
X201753600Y-143027400D01*
X201770571Y-143034429D01*
X201777600Y-143051400D01*
X201777600Y-143155800D01*
X201770571Y-143172771D01*
X201753600Y-143179800D01*
X201396600Y-143179800D01*
X201302028Y-143274371D01*
X201285058Y-143281400D01*
X200637881Y-143281400D01*
X200620911Y-143274371D01*
X200566165Y-143219626D01*
X200466114Y-143168648D01*
X200355200Y-143151081D01*
X200244285Y-143168648D01*
X200144234Y-143219626D01*
X200089489Y-143274371D01*
X200072519Y-143281400D01*
X199247542Y-143281400D01*
X199230571Y-143274371D01*
X198907400Y-142951200D01*
X198501000Y-142544800D01*
X198500999Y-142544800D01*
X196250342Y-142544800D01*
X196233371Y-142537771D01*
X196069629Y-142374029D01*
X196062600Y-142357058D01*
X196062600Y-140929142D01*
X196069629Y-140912171D01*
X196411171Y-140570629D01*
X196428142Y-140563600D01*
X199634058Y-140563600D01*
X199651029Y-140570629D01*
G37*
%TD.AperFunction*%
%TD*%
%TA.AperFunction,Conductor*%
%TO.N,GND*%
G36*
X199512229Y-137040029D02*
G01*
X199801886Y-137329686D01*
X199808915Y-137346511D01*
X199814571Y-138277600D01*
X199816894Y-138660000D01*
X199920000Y-138771222D01*
X200580000Y-138780000D01*
X201103056Y-138284181D01*
X201119567Y-138277600D01*
X201689839Y-138277600D01*
X201700735Y-138280216D01*
X201717485Y-138288751D01*
X201717486Y-138288751D01*
X201717488Y-138288752D01*
X201828400Y-138306319D01*
X201939312Y-138288752D01*
X201956065Y-138280215D01*
X201966961Y-138277600D01*
X202388600Y-138277600D01*
X202405571Y-138284629D01*
X202412600Y-138301600D01*
X202412600Y-138394658D01*
X202405571Y-138411629D01*
X202394229Y-138422971D01*
X202377258Y-138430000D01*
X202270200Y-138430000D01*
X200688829Y-140011371D01*
X200671858Y-140018400D01*
X198524542Y-140018400D01*
X198507571Y-140011371D01*
X196755429Y-138259229D01*
X196748400Y-138242258D01*
X196748400Y-137423941D01*
X196755428Y-137406971D01*
X197082675Y-137079724D01*
X197099643Y-137072697D01*
X197111642Y-137075911D01*
X197190971Y-137121712D01*
X197331999Y-137159500D01*
X197332000Y-137159500D01*
X197478000Y-137159500D01*
X197478001Y-137159500D01*
X197619029Y-137121712D01*
X197745471Y-137048711D01*
X197749813Y-137044369D01*
X197754154Y-137040029D01*
X197771124Y-137033000D01*
X199495258Y-137033000D01*
X199512229Y-137040029D01*
G37*
%TD.AperFunction*%
%TD*%
%TA.AperFunction,Conductor*%
%TO.N,Net-(U5-VOS)*%
G36*
X205303025Y-135561351D02*
G01*
X205310072Y-135578315D01*
X205310072Y-135578341D01*
X205310000Y-136360000D01*
X205782589Y-136772827D01*
X205790746Y-136789286D01*
X205790800Y-136790902D01*
X205790800Y-137593200D01*
X205783771Y-137610171D01*
X205766800Y-137617200D01*
X203692884Y-137617200D01*
X203675913Y-137610171D01*
X203668884Y-137593316D01*
X203659116Y-135580088D01*
X203666063Y-135563087D01*
X203682998Y-135555975D01*
X205286049Y-135554339D01*
X205303025Y-135561351D01*
G37*
%TD.AperFunction*%
%TD*%
%TA.AperFunction,Conductor*%
%TO.N,VBUS*%
G36*
X202773039Y-130049685D02*
G01*
X202818794Y-130102489D01*
X202830000Y-130154000D01*
X202830000Y-130598638D01*
X202810315Y-130665677D01*
X202793681Y-130686319D01*
X201266319Y-132213681D01*
X201204996Y-132247166D01*
X201178638Y-132250000D01*
X199734000Y-132250000D01*
X199666961Y-132230315D01*
X199621206Y-132177511D01*
X199610000Y-132126000D01*
X199610000Y-131011362D01*
X199629685Y-130944323D01*
X199646319Y-130923681D01*
X200233681Y-130336319D01*
X200295004Y-130302834D01*
X200321362Y-130300000D01*
X201530000Y-130300000D01*
X201763681Y-130066319D01*
X201825004Y-130032834D01*
X201851362Y-130030000D01*
X202706000Y-130030000D01*
X202773039Y-130049685D01*
G37*
%TD.AperFunction*%
%TD*%
%TA.AperFunction,Conductor*%
%TO.N,PP1800_ALW*%
G36*
X206672971Y-134047029D02*
G01*
X206680000Y-134064000D01*
X206680000Y-134525830D01*
X206672971Y-134542801D01*
X206667594Y-134546844D01*
X206390000Y-134700000D01*
X206390000Y-136334858D01*
X206382971Y-136351829D01*
X206382970Y-136351829D01*
X206309090Y-136425708D01*
X206292453Y-136432735D01*
X205592536Y-136442459D01*
X205575470Y-136435666D01*
X205575232Y-136435432D01*
X205514071Y-136374271D01*
X205507042Y-136357301D01*
X205516897Y-134063896D01*
X205524000Y-134046957D01*
X205540897Y-134040000D01*
X206656000Y-134040000D01*
X206672971Y-134047029D01*
G37*
%TD.AperFunction*%
%TD*%
%TA.AperFunction,Conductor*%
%TO.N,PPVAR_VIN*%
G36*
X201370415Y-137357279D02*
G01*
X201416503Y-137409793D01*
X201428022Y-137463952D01*
X201421222Y-137899664D01*
X201400494Y-137966388D01*
X201348743Y-138010526D01*
X200890001Y-138219999D01*
X200535624Y-138547116D01*
X200473011Y-138578123D01*
X200451517Y-138580000D01*
X200132999Y-138580000D01*
X200065960Y-138560315D01*
X200020205Y-138507511D01*
X200009003Y-138457005D01*
X200005026Y-137966388D01*
X200001006Y-137470480D01*
X200020147Y-137403286D01*
X200072578Y-137357105D01*
X200124213Y-137345480D01*
X201303252Y-137338019D01*
X201370415Y-137357279D01*
G37*
%TD.AperFunction*%
%TD*%
%TA.AperFunction,Conductor*%
%TO.N,PPVAR_SYS*%
G36*
X202430971Y-138716429D02*
G01*
X202438000Y-138733400D01*
X202438000Y-140299658D01*
X202430971Y-140316629D01*
X201701400Y-141046200D01*
X201701400Y-142163800D01*
X201795971Y-142258371D01*
X201803000Y-142275341D01*
X201803000Y-142774800D01*
X201795971Y-142791771D01*
X201779000Y-142798800D01*
X201127142Y-142798800D01*
X201110171Y-142791771D01*
X200819429Y-142501029D01*
X200812400Y-142484058D01*
X200812400Y-140239935D01*
X200819429Y-140222964D01*
X200820116Y-140222305D01*
X202285600Y-138871761D01*
X202285600Y-138733400D01*
X202292629Y-138716429D01*
X202309600Y-138709400D01*
X202414000Y-138709400D01*
X202430971Y-138716429D01*
G37*
%TD.AperFunction*%
%TD*%
%TA.AperFunction,Conductor*%
%TO.N,PPVAR_VIN*%
G36*
X206846825Y-140717012D02*
G01*
X206847089Y-140717279D01*
X207959999Y-141859999D01*
X207960000Y-141860000D01*
X208170868Y-141859140D01*
X208187864Y-141866099D01*
X208632843Y-142313327D01*
X208939524Y-142621558D01*
X208946511Y-142638416D01*
X208957989Y-146559506D01*
X208957784Y-146562708D01*
X208944318Y-146665000D01*
X208958415Y-146772086D01*
X208958620Y-146775148D01*
X208959982Y-147239930D01*
X208953002Y-147256921D01*
X208936052Y-147264000D01*
X207489531Y-147264000D01*
X207472560Y-147256971D01*
X207465531Y-147240136D01*
X207461534Y-146536191D01*
X207454082Y-145223336D01*
X207461015Y-145206329D01*
X207467183Y-145201821D01*
X207503265Y-145183437D01*
X207525762Y-145171975D01*
X207525762Y-145171974D01*
X207525767Y-145171972D01*
X207605172Y-145092567D01*
X207656152Y-144992512D01*
X207673719Y-144881600D01*
X207656152Y-144770688D01*
X207656151Y-144770686D01*
X207656151Y-144770685D01*
X207605174Y-144670636D01*
X207605173Y-144670635D01*
X207605172Y-144670633D01*
X207525767Y-144591228D01*
X207525764Y-144591226D01*
X207525763Y-144591225D01*
X207463297Y-144559398D01*
X207451368Y-144545431D01*
X207450193Y-144538153D01*
X207444040Y-143454040D01*
X206480000Y-142490000D01*
X206479999Y-142490000D01*
X205409474Y-142490000D01*
X205392503Y-142482971D01*
X205388090Y-142476895D01*
X205371185Y-142443716D01*
X205371183Y-142443714D01*
X205371182Y-142443712D01*
X205291777Y-142364307D01*
X205291774Y-142364305D01*
X205291773Y-142364304D01*
X205191724Y-142313327D01*
X205080810Y-142295760D01*
X204969895Y-142313327D01*
X204869846Y-142364304D01*
X204790434Y-142443716D01*
X204773530Y-142476895D01*
X204759563Y-142488825D01*
X204752146Y-142490000D01*
X204630000Y-142490000D01*
X204327024Y-142791803D01*
X204310086Y-142798800D01*
X203692542Y-142798800D01*
X203675571Y-142791771D01*
X203664229Y-142780429D01*
X203657200Y-142763458D01*
X203657200Y-141614942D01*
X203664229Y-141597971D01*
X204539596Y-140722603D01*
X204556505Y-140715575D01*
X206829838Y-140710024D01*
X206846825Y-140717012D01*
G37*
%TD.AperFunction*%
%TD*%
D66*
X192024000Y-147574000D02*
G75*
G02*
X191389000Y-146939000I0J635000D01*
G01*
X237236000Y-146812009D02*
G75*
G02*
X236473993Y-147574000I-762000J9D01*
G01*
X237236000Y-146812000D02*
X237236000Y-133399000D01*
X228965000Y-128016000D02*
G75*
G02*
X229600000Y-128651000I0J-635000D01*
G01*
X191389000Y-128651000D02*
G75*
G02*
X192024000Y-128016000I635000J0D01*
G01*
X191389000Y-128651000D02*
X191389000Y-146939000D01*
X236601000Y-132764000D02*
G75*
G02*
X237236000Y-133399000I0J-635000D01*
G01*
X230235000Y-132764000D02*
G75*
G02*
X229600000Y-132129000I0J635000D01*
G01*
X229600000Y-132129000D02*
X229600000Y-128651000D01*
X236601000Y-132764000D02*
X230235000Y-132764000D01*
X192024000Y-147574000D02*
X236473993Y-147574000D01*
X192024000Y-128016000D02*
X228965000Y-128016000D01*
M02*
