%TF.GenerationSoftware,KiCad,Pcbnew,8.0.1*%
%TF.CreationDate,2024-04-03T21:47:25-07:00*%
%TF.ProjectId,Bluetooth_OSHW,426c7565-746f-46f7-9468-5f4f5348572e,rev?*%
%TF.SameCoordinates,Original*%
%TF.FileFunction,Copper,L3,Inr*%
%TF.FilePolarity,Positive*%
%FSLAX46Y46*%
G04 Gerber Fmt 4.6, Leading zero omitted, Abs format (unit mm)*
G04 Created by KiCad (PCBNEW 8.0.1) date 2024-04-03 21:47:25*
%MOMM*%
%LPD*%
G01*
G04 APERTURE LIST*
G04 Aperture macros list*
%AMRoundRect*
0 Rectangle with rounded corners*
0 $1 Rounding radius*
0 $2 $3 $4 $5 $6 $7 $8 $9 X,Y pos of 4 corners*
0 Add a 4 corners polygon primitive as box body*
4,1,4,$2,$3,$4,$5,$6,$7,$8,$9,$2,$3,0*
0 Add four circle primitives for the rounded corners*
1,1,$1+$1,$2,$3*
1,1,$1+$1,$4,$5*
1,1,$1+$1,$6,$7*
1,1,$1+$1,$8,$9*
0 Add four rect primitives between the rounded corners*
20,1,$1+$1,$2,$3,$4,$5,0*
20,1,$1+$1,$4,$5,$6,$7,0*
20,1,$1+$1,$6,$7,$8,$9,0*
20,1,$1+$1,$8,$9,$2,$3,0*%
G04 Aperture macros list end*
%ADD10C,0.100000*%
%ADD11C,0.150000*%
%ADD12C,0.300000*%
%ADD13C,0.400000*%
%TA.AperFunction,ComponentPad*%
%ADD14R,1.000000X1.000000*%
%TD*%
%TA.AperFunction,ComponentPad*%
%ADD15O,1.000000X1.000000*%
%TD*%
%TA.AperFunction,ComponentPad*%
%ADD16RoundRect,0.250000X-0.625000X0.350000X-0.625000X-0.350000X0.625000X-0.350000X0.625000X0.350000X0*%
%TD*%
%TA.AperFunction,ComponentPad*%
%ADD17O,1.750000X1.200000*%
%TD*%
%TA.AperFunction,ComponentPad*%
%ADD18O,2.300000X1.300000*%
%TD*%
%TA.AperFunction,ComponentPad*%
%ADD19O,2.600000X1.300000*%
%TD*%
%TA.AperFunction,ComponentPad*%
%ADD20C,0.400000*%
%TD*%
%TA.AperFunction,ViaPad*%
%ADD21C,0.375000*%
%TD*%
%TA.AperFunction,ViaPad*%
%ADD22C,0.600000*%
%TD*%
%TA.AperFunction,ViaPad*%
%ADD23C,0.400000*%
%TD*%
%TA.AperFunction,Profile*%
%ADD24C,0.100000*%
%TD*%
G04 APERTURE END LIST*
D10*
D11*
X299989000Y-253002200D02*
X407989000Y-253002200D01*
X407989000Y-285002200D01*
X299989000Y-285002200D01*
X299989000Y-253002200D01*
D10*
D11*
X10000000Y-10000000D02*
X409989000Y-10000000D01*
X409989000Y-287002200D01*
X10000000Y-287002200D01*
X10000000Y-10000000D01*
D10*
D11*
X12000000Y-12000000D02*
X407989000Y-12000000D01*
X407989000Y-285002200D01*
X12000000Y-285002200D01*
X12000000Y-12000000D01*
D10*
D11*
X60000000Y-12000000D02*
X60000000Y-10000000D01*
D10*
D11*
X110000000Y-12000000D02*
X110000000Y-10000000D01*
D10*
D11*
X160000000Y-12000000D02*
X160000000Y-10000000D01*
D10*
D11*
X210000000Y-12000000D02*
X210000000Y-10000000D01*
D10*
D11*
X260000000Y-12000000D02*
X260000000Y-10000000D01*
D10*
D11*
X310000000Y-12000000D02*
X310000000Y-10000000D01*
D10*
D11*
X360000000Y-12000000D02*
X360000000Y-10000000D01*
D10*
D11*
X36089160Y-11593604D02*
X35346303Y-11593604D01*
X35717731Y-11593604D02*
X35717731Y-10293604D01*
X35717731Y-10293604D02*
X35593922Y-10479319D01*
X35593922Y-10479319D02*
X35470112Y-10603128D01*
X35470112Y-10603128D02*
X35346303Y-10665033D01*
D10*
D11*
X85346303Y-10417414D02*
X85408207Y-10355509D01*
X85408207Y-10355509D02*
X85532017Y-10293604D01*
X85532017Y-10293604D02*
X85841541Y-10293604D01*
X85841541Y-10293604D02*
X85965350Y-10355509D01*
X85965350Y-10355509D02*
X86027255Y-10417414D01*
X86027255Y-10417414D02*
X86089160Y-10541223D01*
X86089160Y-10541223D02*
X86089160Y-10665033D01*
X86089160Y-10665033D02*
X86027255Y-10850747D01*
X86027255Y-10850747D02*
X85284398Y-11593604D01*
X85284398Y-11593604D02*
X86089160Y-11593604D01*
D10*
D11*
X135284398Y-10293604D02*
X136089160Y-10293604D01*
X136089160Y-10293604D02*
X135655826Y-10788842D01*
X135655826Y-10788842D02*
X135841541Y-10788842D01*
X135841541Y-10788842D02*
X135965350Y-10850747D01*
X135965350Y-10850747D02*
X136027255Y-10912652D01*
X136027255Y-10912652D02*
X136089160Y-11036461D01*
X136089160Y-11036461D02*
X136089160Y-11345985D01*
X136089160Y-11345985D02*
X136027255Y-11469795D01*
X136027255Y-11469795D02*
X135965350Y-11531700D01*
X135965350Y-11531700D02*
X135841541Y-11593604D01*
X135841541Y-11593604D02*
X135470112Y-11593604D01*
X135470112Y-11593604D02*
X135346303Y-11531700D01*
X135346303Y-11531700D02*
X135284398Y-11469795D01*
D10*
D11*
X185965350Y-10726938D02*
X185965350Y-11593604D01*
X185655826Y-10231700D02*
X185346303Y-11160271D01*
X185346303Y-11160271D02*
X186151064Y-11160271D01*
D10*
D11*
X236027255Y-10293604D02*
X235408207Y-10293604D01*
X235408207Y-10293604D02*
X235346303Y-10912652D01*
X235346303Y-10912652D02*
X235408207Y-10850747D01*
X235408207Y-10850747D02*
X235532017Y-10788842D01*
X235532017Y-10788842D02*
X235841541Y-10788842D01*
X235841541Y-10788842D02*
X235965350Y-10850747D01*
X235965350Y-10850747D02*
X236027255Y-10912652D01*
X236027255Y-10912652D02*
X236089160Y-11036461D01*
X236089160Y-11036461D02*
X236089160Y-11345985D01*
X236089160Y-11345985D02*
X236027255Y-11469795D01*
X236027255Y-11469795D02*
X235965350Y-11531700D01*
X235965350Y-11531700D02*
X235841541Y-11593604D01*
X235841541Y-11593604D02*
X235532017Y-11593604D01*
X235532017Y-11593604D02*
X235408207Y-11531700D01*
X235408207Y-11531700D02*
X235346303Y-11469795D01*
D10*
D11*
X285965350Y-10293604D02*
X285717731Y-10293604D01*
X285717731Y-10293604D02*
X285593922Y-10355509D01*
X285593922Y-10355509D02*
X285532017Y-10417414D01*
X285532017Y-10417414D02*
X285408207Y-10603128D01*
X285408207Y-10603128D02*
X285346303Y-10850747D01*
X285346303Y-10850747D02*
X285346303Y-11345985D01*
X285346303Y-11345985D02*
X285408207Y-11469795D01*
X285408207Y-11469795D02*
X285470112Y-11531700D01*
X285470112Y-11531700D02*
X285593922Y-11593604D01*
X285593922Y-11593604D02*
X285841541Y-11593604D01*
X285841541Y-11593604D02*
X285965350Y-11531700D01*
X285965350Y-11531700D02*
X286027255Y-11469795D01*
X286027255Y-11469795D02*
X286089160Y-11345985D01*
X286089160Y-11345985D02*
X286089160Y-11036461D01*
X286089160Y-11036461D02*
X286027255Y-10912652D01*
X286027255Y-10912652D02*
X285965350Y-10850747D01*
X285965350Y-10850747D02*
X285841541Y-10788842D01*
X285841541Y-10788842D02*
X285593922Y-10788842D01*
X285593922Y-10788842D02*
X285470112Y-10850747D01*
X285470112Y-10850747D02*
X285408207Y-10912652D01*
X285408207Y-10912652D02*
X285346303Y-11036461D01*
D10*
D11*
X335284398Y-10293604D02*
X336151064Y-10293604D01*
X336151064Y-10293604D02*
X335593922Y-11593604D01*
D10*
D11*
X385593922Y-10850747D02*
X385470112Y-10788842D01*
X385470112Y-10788842D02*
X385408207Y-10726938D01*
X385408207Y-10726938D02*
X385346303Y-10603128D01*
X385346303Y-10603128D02*
X385346303Y-10541223D01*
X385346303Y-10541223D02*
X385408207Y-10417414D01*
X385408207Y-10417414D02*
X385470112Y-10355509D01*
X385470112Y-10355509D02*
X385593922Y-10293604D01*
X385593922Y-10293604D02*
X385841541Y-10293604D01*
X385841541Y-10293604D02*
X385965350Y-10355509D01*
X385965350Y-10355509D02*
X386027255Y-10417414D01*
X386027255Y-10417414D02*
X386089160Y-10541223D01*
X386089160Y-10541223D02*
X386089160Y-10603128D01*
X386089160Y-10603128D02*
X386027255Y-10726938D01*
X386027255Y-10726938D02*
X385965350Y-10788842D01*
X385965350Y-10788842D02*
X385841541Y-10850747D01*
X385841541Y-10850747D02*
X385593922Y-10850747D01*
X385593922Y-10850747D02*
X385470112Y-10912652D01*
X385470112Y-10912652D02*
X385408207Y-10974557D01*
X385408207Y-10974557D02*
X385346303Y-11098366D01*
X385346303Y-11098366D02*
X385346303Y-11345985D01*
X385346303Y-11345985D02*
X385408207Y-11469795D01*
X385408207Y-11469795D02*
X385470112Y-11531700D01*
X385470112Y-11531700D02*
X385593922Y-11593604D01*
X385593922Y-11593604D02*
X385841541Y-11593604D01*
X385841541Y-11593604D02*
X385965350Y-11531700D01*
X385965350Y-11531700D02*
X386027255Y-11469795D01*
X386027255Y-11469795D02*
X386089160Y-11345985D01*
X386089160Y-11345985D02*
X386089160Y-11098366D01*
X386089160Y-11098366D02*
X386027255Y-10974557D01*
X386027255Y-10974557D02*
X385965350Y-10912652D01*
X385965350Y-10912652D02*
X385841541Y-10850747D01*
D10*
D11*
X60000000Y-285002200D02*
X60000000Y-287002200D01*
D10*
D11*
X110000000Y-285002200D02*
X110000000Y-287002200D01*
D10*
D11*
X160000000Y-285002200D02*
X160000000Y-287002200D01*
D10*
D11*
X210000000Y-285002200D02*
X210000000Y-287002200D01*
D10*
D11*
X260000000Y-285002200D02*
X260000000Y-287002200D01*
D10*
D11*
X310000000Y-285002200D02*
X310000000Y-287002200D01*
D10*
D11*
X360000000Y-285002200D02*
X360000000Y-287002200D01*
D10*
D11*
X36089160Y-286595804D02*
X35346303Y-286595804D01*
X35717731Y-286595804D02*
X35717731Y-285295804D01*
X35717731Y-285295804D02*
X35593922Y-285481519D01*
X35593922Y-285481519D02*
X35470112Y-285605328D01*
X35470112Y-285605328D02*
X35346303Y-285667233D01*
D10*
D11*
X85346303Y-285419614D02*
X85408207Y-285357709D01*
X85408207Y-285357709D02*
X85532017Y-285295804D01*
X85532017Y-285295804D02*
X85841541Y-285295804D01*
X85841541Y-285295804D02*
X85965350Y-285357709D01*
X85965350Y-285357709D02*
X86027255Y-285419614D01*
X86027255Y-285419614D02*
X86089160Y-285543423D01*
X86089160Y-285543423D02*
X86089160Y-285667233D01*
X86089160Y-285667233D02*
X86027255Y-285852947D01*
X86027255Y-285852947D02*
X85284398Y-286595804D01*
X85284398Y-286595804D02*
X86089160Y-286595804D01*
D10*
D11*
X135284398Y-285295804D02*
X136089160Y-285295804D01*
X136089160Y-285295804D02*
X135655826Y-285791042D01*
X135655826Y-285791042D02*
X135841541Y-285791042D01*
X135841541Y-285791042D02*
X135965350Y-285852947D01*
X135965350Y-285852947D02*
X136027255Y-285914852D01*
X136027255Y-285914852D02*
X136089160Y-286038661D01*
X136089160Y-286038661D02*
X136089160Y-286348185D01*
X136089160Y-286348185D02*
X136027255Y-286471995D01*
X136027255Y-286471995D02*
X135965350Y-286533900D01*
X135965350Y-286533900D02*
X135841541Y-286595804D01*
X135841541Y-286595804D02*
X135470112Y-286595804D01*
X135470112Y-286595804D02*
X135346303Y-286533900D01*
X135346303Y-286533900D02*
X135284398Y-286471995D01*
D10*
D11*
X185965350Y-285729138D02*
X185965350Y-286595804D01*
X185655826Y-285233900D02*
X185346303Y-286162471D01*
X185346303Y-286162471D02*
X186151064Y-286162471D01*
D10*
D11*
X236027255Y-285295804D02*
X235408207Y-285295804D01*
X235408207Y-285295804D02*
X235346303Y-285914852D01*
X235346303Y-285914852D02*
X235408207Y-285852947D01*
X235408207Y-285852947D02*
X235532017Y-285791042D01*
X235532017Y-285791042D02*
X235841541Y-285791042D01*
X235841541Y-285791042D02*
X235965350Y-285852947D01*
X235965350Y-285852947D02*
X236027255Y-285914852D01*
X236027255Y-285914852D02*
X236089160Y-286038661D01*
X236089160Y-286038661D02*
X236089160Y-286348185D01*
X236089160Y-286348185D02*
X236027255Y-286471995D01*
X236027255Y-286471995D02*
X235965350Y-286533900D01*
X235965350Y-286533900D02*
X235841541Y-286595804D01*
X235841541Y-286595804D02*
X235532017Y-286595804D01*
X235532017Y-286595804D02*
X235408207Y-286533900D01*
X235408207Y-286533900D02*
X235346303Y-286471995D01*
D10*
D11*
X285965350Y-285295804D02*
X285717731Y-285295804D01*
X285717731Y-285295804D02*
X285593922Y-285357709D01*
X285593922Y-285357709D02*
X285532017Y-285419614D01*
X285532017Y-285419614D02*
X285408207Y-285605328D01*
X285408207Y-285605328D02*
X285346303Y-285852947D01*
X285346303Y-285852947D02*
X285346303Y-286348185D01*
X285346303Y-286348185D02*
X285408207Y-286471995D01*
X285408207Y-286471995D02*
X285470112Y-286533900D01*
X285470112Y-286533900D02*
X285593922Y-286595804D01*
X285593922Y-286595804D02*
X285841541Y-286595804D01*
X285841541Y-286595804D02*
X285965350Y-286533900D01*
X285965350Y-286533900D02*
X286027255Y-286471995D01*
X286027255Y-286471995D02*
X286089160Y-286348185D01*
X286089160Y-286348185D02*
X286089160Y-286038661D01*
X286089160Y-286038661D02*
X286027255Y-285914852D01*
X286027255Y-285914852D02*
X285965350Y-285852947D01*
X285965350Y-285852947D02*
X285841541Y-285791042D01*
X285841541Y-285791042D02*
X285593922Y-285791042D01*
X285593922Y-285791042D02*
X285470112Y-285852947D01*
X285470112Y-285852947D02*
X285408207Y-285914852D01*
X285408207Y-285914852D02*
X285346303Y-286038661D01*
D10*
D11*
X335284398Y-285295804D02*
X336151064Y-285295804D01*
X336151064Y-285295804D02*
X335593922Y-286595804D01*
D10*
D11*
X385593922Y-285852947D02*
X385470112Y-285791042D01*
X385470112Y-285791042D02*
X385408207Y-285729138D01*
X385408207Y-285729138D02*
X385346303Y-285605328D01*
X385346303Y-285605328D02*
X385346303Y-285543423D01*
X385346303Y-285543423D02*
X385408207Y-285419614D01*
X385408207Y-285419614D02*
X385470112Y-285357709D01*
X385470112Y-285357709D02*
X385593922Y-285295804D01*
X385593922Y-285295804D02*
X385841541Y-285295804D01*
X385841541Y-285295804D02*
X385965350Y-285357709D01*
X385965350Y-285357709D02*
X386027255Y-285419614D01*
X386027255Y-285419614D02*
X386089160Y-285543423D01*
X386089160Y-285543423D02*
X386089160Y-285605328D01*
X386089160Y-285605328D02*
X386027255Y-285729138D01*
X386027255Y-285729138D02*
X385965350Y-285791042D01*
X385965350Y-285791042D02*
X385841541Y-285852947D01*
X385841541Y-285852947D02*
X385593922Y-285852947D01*
X385593922Y-285852947D02*
X385470112Y-285914852D01*
X385470112Y-285914852D02*
X385408207Y-285976757D01*
X385408207Y-285976757D02*
X385346303Y-286100566D01*
X385346303Y-286100566D02*
X385346303Y-286348185D01*
X385346303Y-286348185D02*
X385408207Y-286471995D01*
X385408207Y-286471995D02*
X385470112Y-286533900D01*
X385470112Y-286533900D02*
X385593922Y-286595804D01*
X385593922Y-286595804D02*
X385841541Y-286595804D01*
X385841541Y-286595804D02*
X385965350Y-286533900D01*
X385965350Y-286533900D02*
X386027255Y-286471995D01*
X386027255Y-286471995D02*
X386089160Y-286348185D01*
X386089160Y-286348185D02*
X386089160Y-286100566D01*
X386089160Y-286100566D02*
X386027255Y-285976757D01*
X386027255Y-285976757D02*
X385965350Y-285914852D01*
X385965350Y-285914852D02*
X385841541Y-285852947D01*
D10*
D11*
X10000000Y-60000000D02*
X12000000Y-60000000D01*
D10*
D11*
X10000000Y-110000000D02*
X12000000Y-110000000D01*
D10*
D11*
X10000000Y-160000000D02*
X12000000Y-160000000D01*
D10*
D11*
X10000000Y-210000000D02*
X12000000Y-210000000D01*
D10*
D11*
X10000000Y-260000000D02*
X12000000Y-260000000D01*
D10*
D11*
X10690476Y-35222176D02*
X11309523Y-35222176D01*
X10566666Y-35593604D02*
X10999999Y-34293604D01*
X10999999Y-34293604D02*
X11433333Y-35593604D01*
D10*
D11*
X11092857Y-84912652D02*
X11278571Y-84974557D01*
X11278571Y-84974557D02*
X11340476Y-85036461D01*
X11340476Y-85036461D02*
X11402380Y-85160271D01*
X11402380Y-85160271D02*
X11402380Y-85345985D01*
X11402380Y-85345985D02*
X11340476Y-85469795D01*
X11340476Y-85469795D02*
X11278571Y-85531700D01*
X11278571Y-85531700D02*
X11154761Y-85593604D01*
X11154761Y-85593604D02*
X10659523Y-85593604D01*
X10659523Y-85593604D02*
X10659523Y-84293604D01*
X10659523Y-84293604D02*
X11092857Y-84293604D01*
X11092857Y-84293604D02*
X11216666Y-84355509D01*
X11216666Y-84355509D02*
X11278571Y-84417414D01*
X11278571Y-84417414D02*
X11340476Y-84541223D01*
X11340476Y-84541223D02*
X11340476Y-84665033D01*
X11340476Y-84665033D02*
X11278571Y-84788842D01*
X11278571Y-84788842D02*
X11216666Y-84850747D01*
X11216666Y-84850747D02*
X11092857Y-84912652D01*
X11092857Y-84912652D02*
X10659523Y-84912652D01*
D10*
D11*
X11402380Y-135469795D02*
X11340476Y-135531700D01*
X11340476Y-135531700D02*
X11154761Y-135593604D01*
X11154761Y-135593604D02*
X11030952Y-135593604D01*
X11030952Y-135593604D02*
X10845238Y-135531700D01*
X10845238Y-135531700D02*
X10721428Y-135407890D01*
X10721428Y-135407890D02*
X10659523Y-135284080D01*
X10659523Y-135284080D02*
X10597619Y-135036461D01*
X10597619Y-135036461D02*
X10597619Y-134850747D01*
X10597619Y-134850747D02*
X10659523Y-134603128D01*
X10659523Y-134603128D02*
X10721428Y-134479319D01*
X10721428Y-134479319D02*
X10845238Y-134355509D01*
X10845238Y-134355509D02*
X11030952Y-134293604D01*
X11030952Y-134293604D02*
X11154761Y-134293604D01*
X11154761Y-134293604D02*
X11340476Y-134355509D01*
X11340476Y-134355509D02*
X11402380Y-134417414D01*
D10*
D11*
X10659523Y-185593604D02*
X10659523Y-184293604D01*
X10659523Y-184293604D02*
X10969047Y-184293604D01*
X10969047Y-184293604D02*
X11154761Y-184355509D01*
X11154761Y-184355509D02*
X11278571Y-184479319D01*
X11278571Y-184479319D02*
X11340476Y-184603128D01*
X11340476Y-184603128D02*
X11402380Y-184850747D01*
X11402380Y-184850747D02*
X11402380Y-185036461D01*
X11402380Y-185036461D02*
X11340476Y-185284080D01*
X11340476Y-185284080D02*
X11278571Y-185407890D01*
X11278571Y-185407890D02*
X11154761Y-185531700D01*
X11154761Y-185531700D02*
X10969047Y-185593604D01*
X10969047Y-185593604D02*
X10659523Y-185593604D01*
D10*
D11*
X10721428Y-234912652D02*
X11154762Y-234912652D01*
X11340476Y-235593604D02*
X10721428Y-235593604D01*
X10721428Y-235593604D02*
X10721428Y-234293604D01*
X10721428Y-234293604D02*
X11340476Y-234293604D01*
D10*
D11*
X11185714Y-284912652D02*
X10752380Y-284912652D01*
X10752380Y-285593604D02*
X10752380Y-284293604D01*
X10752380Y-284293604D02*
X11371428Y-284293604D01*
D10*
D11*
X409989000Y-60000000D02*
X407989000Y-60000000D01*
D10*
D11*
X409989000Y-110000000D02*
X407989000Y-110000000D01*
D10*
D11*
X409989000Y-160000000D02*
X407989000Y-160000000D01*
D10*
D11*
X409989000Y-210000000D02*
X407989000Y-210000000D01*
D10*
D11*
X409989000Y-260000000D02*
X407989000Y-260000000D01*
D10*
D11*
X408679476Y-35222176D02*
X409298523Y-35222176D01*
X408555666Y-35593604D02*
X408988999Y-34293604D01*
X408988999Y-34293604D02*
X409422333Y-35593604D01*
D10*
D11*
X409081857Y-84912652D02*
X409267571Y-84974557D01*
X409267571Y-84974557D02*
X409329476Y-85036461D01*
X409329476Y-85036461D02*
X409391380Y-85160271D01*
X409391380Y-85160271D02*
X409391380Y-85345985D01*
X409391380Y-85345985D02*
X409329476Y-85469795D01*
X409329476Y-85469795D02*
X409267571Y-85531700D01*
X409267571Y-85531700D02*
X409143761Y-85593604D01*
X409143761Y-85593604D02*
X408648523Y-85593604D01*
X408648523Y-85593604D02*
X408648523Y-84293604D01*
X408648523Y-84293604D02*
X409081857Y-84293604D01*
X409081857Y-84293604D02*
X409205666Y-84355509D01*
X409205666Y-84355509D02*
X409267571Y-84417414D01*
X409267571Y-84417414D02*
X409329476Y-84541223D01*
X409329476Y-84541223D02*
X409329476Y-84665033D01*
X409329476Y-84665033D02*
X409267571Y-84788842D01*
X409267571Y-84788842D02*
X409205666Y-84850747D01*
X409205666Y-84850747D02*
X409081857Y-84912652D01*
X409081857Y-84912652D02*
X408648523Y-84912652D01*
D10*
D11*
X409391380Y-135469795D02*
X409329476Y-135531700D01*
X409329476Y-135531700D02*
X409143761Y-135593604D01*
X409143761Y-135593604D02*
X409019952Y-135593604D01*
X409019952Y-135593604D02*
X408834238Y-135531700D01*
X408834238Y-135531700D02*
X408710428Y-135407890D01*
X408710428Y-135407890D02*
X408648523Y-135284080D01*
X408648523Y-135284080D02*
X408586619Y-135036461D01*
X408586619Y-135036461D02*
X408586619Y-134850747D01*
X408586619Y-134850747D02*
X408648523Y-134603128D01*
X408648523Y-134603128D02*
X408710428Y-134479319D01*
X408710428Y-134479319D02*
X408834238Y-134355509D01*
X408834238Y-134355509D02*
X409019952Y-134293604D01*
X409019952Y-134293604D02*
X409143761Y-134293604D01*
X409143761Y-134293604D02*
X409329476Y-134355509D01*
X409329476Y-134355509D02*
X409391380Y-134417414D01*
D10*
D11*
X408648523Y-185593604D02*
X408648523Y-184293604D01*
X408648523Y-184293604D02*
X408958047Y-184293604D01*
X408958047Y-184293604D02*
X409143761Y-184355509D01*
X409143761Y-184355509D02*
X409267571Y-184479319D01*
X409267571Y-184479319D02*
X409329476Y-184603128D01*
X409329476Y-184603128D02*
X409391380Y-184850747D01*
X409391380Y-184850747D02*
X409391380Y-185036461D01*
X409391380Y-185036461D02*
X409329476Y-185284080D01*
X409329476Y-185284080D02*
X409267571Y-185407890D01*
X409267571Y-185407890D02*
X409143761Y-185531700D01*
X409143761Y-185531700D02*
X408958047Y-185593604D01*
X408958047Y-185593604D02*
X408648523Y-185593604D01*
D10*
D11*
X408710428Y-234912652D02*
X409143762Y-234912652D01*
X409329476Y-235593604D02*
X408710428Y-235593604D01*
X408710428Y-235593604D02*
X408710428Y-234293604D01*
X408710428Y-234293604D02*
X409329476Y-234293604D01*
D10*
D11*
X409174714Y-284912652D02*
X408741380Y-284912652D01*
X408741380Y-285593604D02*
X408741380Y-284293604D01*
X408741380Y-284293604D02*
X409360428Y-284293604D01*
D10*
D11*
X323444826Y-280788328D02*
X323444826Y-279288328D01*
X323444826Y-279288328D02*
X323801969Y-279288328D01*
X323801969Y-279288328D02*
X324016255Y-279359757D01*
X324016255Y-279359757D02*
X324159112Y-279502614D01*
X324159112Y-279502614D02*
X324230541Y-279645471D01*
X324230541Y-279645471D02*
X324301969Y-279931185D01*
X324301969Y-279931185D02*
X324301969Y-280145471D01*
X324301969Y-280145471D02*
X324230541Y-280431185D01*
X324230541Y-280431185D02*
X324159112Y-280574042D01*
X324159112Y-280574042D02*
X324016255Y-280716900D01*
X324016255Y-280716900D02*
X323801969Y-280788328D01*
X323801969Y-280788328D02*
X323444826Y-280788328D01*
X325587684Y-280788328D02*
X325587684Y-280002614D01*
X325587684Y-280002614D02*
X325516255Y-279859757D01*
X325516255Y-279859757D02*
X325373398Y-279788328D01*
X325373398Y-279788328D02*
X325087684Y-279788328D01*
X325087684Y-279788328D02*
X324944826Y-279859757D01*
X325587684Y-280716900D02*
X325444826Y-280788328D01*
X325444826Y-280788328D02*
X325087684Y-280788328D01*
X325087684Y-280788328D02*
X324944826Y-280716900D01*
X324944826Y-280716900D02*
X324873398Y-280574042D01*
X324873398Y-280574042D02*
X324873398Y-280431185D01*
X324873398Y-280431185D02*
X324944826Y-280288328D01*
X324944826Y-280288328D02*
X325087684Y-280216900D01*
X325087684Y-280216900D02*
X325444826Y-280216900D01*
X325444826Y-280216900D02*
X325587684Y-280145471D01*
X326087684Y-279788328D02*
X326659112Y-279788328D01*
X326301969Y-279288328D02*
X326301969Y-280574042D01*
X326301969Y-280574042D02*
X326373398Y-280716900D01*
X326373398Y-280716900D02*
X326516255Y-280788328D01*
X326516255Y-280788328D02*
X326659112Y-280788328D01*
X327730541Y-280716900D02*
X327587684Y-280788328D01*
X327587684Y-280788328D02*
X327301970Y-280788328D01*
X327301970Y-280788328D02*
X327159112Y-280716900D01*
X327159112Y-280716900D02*
X327087684Y-280574042D01*
X327087684Y-280574042D02*
X327087684Y-280002614D01*
X327087684Y-280002614D02*
X327159112Y-279859757D01*
X327159112Y-279859757D02*
X327301970Y-279788328D01*
X327301970Y-279788328D02*
X327587684Y-279788328D01*
X327587684Y-279788328D02*
X327730541Y-279859757D01*
X327730541Y-279859757D02*
X327801970Y-280002614D01*
X327801970Y-280002614D02*
X327801970Y-280145471D01*
X327801970Y-280145471D02*
X327087684Y-280288328D01*
X328444826Y-280645471D02*
X328516255Y-280716900D01*
X328516255Y-280716900D02*
X328444826Y-280788328D01*
X328444826Y-280788328D02*
X328373398Y-280716900D01*
X328373398Y-280716900D02*
X328444826Y-280645471D01*
X328444826Y-280645471D02*
X328444826Y-280788328D01*
X328444826Y-279859757D02*
X328516255Y-279931185D01*
X328516255Y-279931185D02*
X328444826Y-280002614D01*
X328444826Y-280002614D02*
X328373398Y-279931185D01*
X328373398Y-279931185D02*
X328444826Y-279859757D01*
X328444826Y-279859757D02*
X328444826Y-280002614D01*
D10*
D11*
X299989000Y-281502200D02*
X407989000Y-281502200D01*
D10*
D11*
X301444826Y-283588328D02*
X301444826Y-282088328D01*
X302301969Y-283588328D02*
X301659112Y-282731185D01*
X302301969Y-282088328D02*
X301444826Y-282945471D01*
X302944826Y-283588328D02*
X302944826Y-282588328D01*
X302944826Y-282088328D02*
X302873398Y-282159757D01*
X302873398Y-282159757D02*
X302944826Y-282231185D01*
X302944826Y-282231185D02*
X303016255Y-282159757D01*
X303016255Y-282159757D02*
X302944826Y-282088328D01*
X302944826Y-282088328D02*
X302944826Y-282231185D01*
X304516255Y-283445471D02*
X304444827Y-283516900D01*
X304444827Y-283516900D02*
X304230541Y-283588328D01*
X304230541Y-283588328D02*
X304087684Y-283588328D01*
X304087684Y-283588328D02*
X303873398Y-283516900D01*
X303873398Y-283516900D02*
X303730541Y-283374042D01*
X303730541Y-283374042D02*
X303659112Y-283231185D01*
X303659112Y-283231185D02*
X303587684Y-282945471D01*
X303587684Y-282945471D02*
X303587684Y-282731185D01*
X303587684Y-282731185D02*
X303659112Y-282445471D01*
X303659112Y-282445471D02*
X303730541Y-282302614D01*
X303730541Y-282302614D02*
X303873398Y-282159757D01*
X303873398Y-282159757D02*
X304087684Y-282088328D01*
X304087684Y-282088328D02*
X304230541Y-282088328D01*
X304230541Y-282088328D02*
X304444827Y-282159757D01*
X304444827Y-282159757D02*
X304516255Y-282231185D01*
X305801970Y-283588328D02*
X305801970Y-282802614D01*
X305801970Y-282802614D02*
X305730541Y-282659757D01*
X305730541Y-282659757D02*
X305587684Y-282588328D01*
X305587684Y-282588328D02*
X305301970Y-282588328D01*
X305301970Y-282588328D02*
X305159112Y-282659757D01*
X305801970Y-283516900D02*
X305659112Y-283588328D01*
X305659112Y-283588328D02*
X305301970Y-283588328D01*
X305301970Y-283588328D02*
X305159112Y-283516900D01*
X305159112Y-283516900D02*
X305087684Y-283374042D01*
X305087684Y-283374042D02*
X305087684Y-283231185D01*
X305087684Y-283231185D02*
X305159112Y-283088328D01*
X305159112Y-283088328D02*
X305301970Y-283016900D01*
X305301970Y-283016900D02*
X305659112Y-283016900D01*
X305659112Y-283016900D02*
X305801970Y-282945471D01*
X307159113Y-283588328D02*
X307159113Y-282088328D01*
X307159113Y-283516900D02*
X307016255Y-283588328D01*
X307016255Y-283588328D02*
X306730541Y-283588328D01*
X306730541Y-283588328D02*
X306587684Y-283516900D01*
X306587684Y-283516900D02*
X306516255Y-283445471D01*
X306516255Y-283445471D02*
X306444827Y-283302614D01*
X306444827Y-283302614D02*
X306444827Y-282874042D01*
X306444827Y-282874042D02*
X306516255Y-282731185D01*
X306516255Y-282731185D02*
X306587684Y-282659757D01*
X306587684Y-282659757D02*
X306730541Y-282588328D01*
X306730541Y-282588328D02*
X307016255Y-282588328D01*
X307016255Y-282588328D02*
X307159113Y-282659757D01*
X309016255Y-282802614D02*
X309516255Y-282802614D01*
X309730541Y-283588328D02*
X309016255Y-283588328D01*
X309016255Y-283588328D02*
X309016255Y-282088328D01*
X309016255Y-282088328D02*
X309730541Y-282088328D01*
X310373398Y-283445471D02*
X310444827Y-283516900D01*
X310444827Y-283516900D02*
X310373398Y-283588328D01*
X310373398Y-283588328D02*
X310301970Y-283516900D01*
X310301970Y-283516900D02*
X310373398Y-283445471D01*
X310373398Y-283445471D02*
X310373398Y-283588328D01*
X311087684Y-283588328D02*
X311087684Y-282088328D01*
X311087684Y-282088328D02*
X311444827Y-282088328D01*
X311444827Y-282088328D02*
X311659113Y-282159757D01*
X311659113Y-282159757D02*
X311801970Y-282302614D01*
X311801970Y-282302614D02*
X311873399Y-282445471D01*
X311873399Y-282445471D02*
X311944827Y-282731185D01*
X311944827Y-282731185D02*
X311944827Y-282945471D01*
X311944827Y-282945471D02*
X311873399Y-283231185D01*
X311873399Y-283231185D02*
X311801970Y-283374042D01*
X311801970Y-283374042D02*
X311659113Y-283516900D01*
X311659113Y-283516900D02*
X311444827Y-283588328D01*
X311444827Y-283588328D02*
X311087684Y-283588328D01*
X312587684Y-283445471D02*
X312659113Y-283516900D01*
X312659113Y-283516900D02*
X312587684Y-283588328D01*
X312587684Y-283588328D02*
X312516256Y-283516900D01*
X312516256Y-283516900D02*
X312587684Y-283445471D01*
X312587684Y-283445471D02*
X312587684Y-283588328D01*
X313230542Y-283159757D02*
X313944828Y-283159757D01*
X313087685Y-283588328D02*
X313587685Y-282088328D01*
X313587685Y-282088328D02*
X314087685Y-283588328D01*
X314587684Y-283445471D02*
X314659113Y-283516900D01*
X314659113Y-283516900D02*
X314587684Y-283588328D01*
X314587684Y-283588328D02*
X314516256Y-283516900D01*
X314516256Y-283516900D02*
X314587684Y-283445471D01*
X314587684Y-283445471D02*
X314587684Y-283588328D01*
X316659113Y-282731185D02*
X316516256Y-282659757D01*
X316516256Y-282659757D02*
X316444827Y-282588328D01*
X316444827Y-282588328D02*
X316373399Y-282445471D01*
X316373399Y-282445471D02*
X316373399Y-282374042D01*
X316373399Y-282374042D02*
X316444827Y-282231185D01*
X316444827Y-282231185D02*
X316516256Y-282159757D01*
X316516256Y-282159757D02*
X316659113Y-282088328D01*
X316659113Y-282088328D02*
X316944827Y-282088328D01*
X316944827Y-282088328D02*
X317087685Y-282159757D01*
X317087685Y-282159757D02*
X317159113Y-282231185D01*
X317159113Y-282231185D02*
X317230542Y-282374042D01*
X317230542Y-282374042D02*
X317230542Y-282445471D01*
X317230542Y-282445471D02*
X317159113Y-282588328D01*
X317159113Y-282588328D02*
X317087685Y-282659757D01*
X317087685Y-282659757D02*
X316944827Y-282731185D01*
X316944827Y-282731185D02*
X316659113Y-282731185D01*
X316659113Y-282731185D02*
X316516256Y-282802614D01*
X316516256Y-282802614D02*
X316444827Y-282874042D01*
X316444827Y-282874042D02*
X316373399Y-283016900D01*
X316373399Y-283016900D02*
X316373399Y-283302614D01*
X316373399Y-283302614D02*
X316444827Y-283445471D01*
X316444827Y-283445471D02*
X316516256Y-283516900D01*
X316516256Y-283516900D02*
X316659113Y-283588328D01*
X316659113Y-283588328D02*
X316944827Y-283588328D01*
X316944827Y-283588328D02*
X317087685Y-283516900D01*
X317087685Y-283516900D02*
X317159113Y-283445471D01*
X317159113Y-283445471D02*
X317230542Y-283302614D01*
X317230542Y-283302614D02*
X317230542Y-283016900D01*
X317230542Y-283016900D02*
X317159113Y-282874042D01*
X317159113Y-282874042D02*
X317087685Y-282802614D01*
X317087685Y-282802614D02*
X316944827Y-282731185D01*
X317873398Y-283445471D02*
X317944827Y-283516900D01*
X317944827Y-283516900D02*
X317873398Y-283588328D01*
X317873398Y-283588328D02*
X317801970Y-283516900D01*
X317801970Y-283516900D02*
X317873398Y-283445471D01*
X317873398Y-283445471D02*
X317873398Y-283588328D01*
X318873399Y-282088328D02*
X319016256Y-282088328D01*
X319016256Y-282088328D02*
X319159113Y-282159757D01*
X319159113Y-282159757D02*
X319230542Y-282231185D01*
X319230542Y-282231185D02*
X319301970Y-282374042D01*
X319301970Y-282374042D02*
X319373399Y-282659757D01*
X319373399Y-282659757D02*
X319373399Y-283016900D01*
X319373399Y-283016900D02*
X319301970Y-283302614D01*
X319301970Y-283302614D02*
X319230542Y-283445471D01*
X319230542Y-283445471D02*
X319159113Y-283516900D01*
X319159113Y-283516900D02*
X319016256Y-283588328D01*
X319016256Y-283588328D02*
X318873399Y-283588328D01*
X318873399Y-283588328D02*
X318730542Y-283516900D01*
X318730542Y-283516900D02*
X318659113Y-283445471D01*
X318659113Y-283445471D02*
X318587684Y-283302614D01*
X318587684Y-283302614D02*
X318516256Y-283016900D01*
X318516256Y-283016900D02*
X318516256Y-282659757D01*
X318516256Y-282659757D02*
X318587684Y-282374042D01*
X318587684Y-282374042D02*
X318659113Y-282231185D01*
X318659113Y-282231185D02*
X318730542Y-282159757D01*
X318730542Y-282159757D02*
X318873399Y-282088328D01*
X320016255Y-283445471D02*
X320087684Y-283516900D01*
X320087684Y-283516900D02*
X320016255Y-283588328D01*
X320016255Y-283588328D02*
X319944827Y-283516900D01*
X319944827Y-283516900D02*
X320016255Y-283445471D01*
X320016255Y-283445471D02*
X320016255Y-283588328D01*
X321516256Y-283588328D02*
X320659113Y-283588328D01*
X321087684Y-283588328D02*
X321087684Y-282088328D01*
X321087684Y-282088328D02*
X320944827Y-282302614D01*
X320944827Y-282302614D02*
X320801970Y-282445471D01*
X320801970Y-282445471D02*
X320659113Y-282516900D01*
D10*
D11*
X299989000Y-278502200D02*
X407989000Y-278502200D01*
D10*
D12*
X387400653Y-280780528D02*
X386900653Y-280066242D01*
X386543510Y-280780528D02*
X386543510Y-279280528D01*
X386543510Y-279280528D02*
X387114939Y-279280528D01*
X387114939Y-279280528D02*
X387257796Y-279351957D01*
X387257796Y-279351957D02*
X387329225Y-279423385D01*
X387329225Y-279423385D02*
X387400653Y-279566242D01*
X387400653Y-279566242D02*
X387400653Y-279780528D01*
X387400653Y-279780528D02*
X387329225Y-279923385D01*
X387329225Y-279923385D02*
X387257796Y-279994814D01*
X387257796Y-279994814D02*
X387114939Y-280066242D01*
X387114939Y-280066242D02*
X386543510Y-280066242D01*
X388614939Y-280709100D02*
X388472082Y-280780528D01*
X388472082Y-280780528D02*
X388186368Y-280780528D01*
X388186368Y-280780528D02*
X388043510Y-280709100D01*
X388043510Y-280709100D02*
X387972082Y-280566242D01*
X387972082Y-280566242D02*
X387972082Y-279994814D01*
X387972082Y-279994814D02*
X388043510Y-279851957D01*
X388043510Y-279851957D02*
X388186368Y-279780528D01*
X388186368Y-279780528D02*
X388472082Y-279780528D01*
X388472082Y-279780528D02*
X388614939Y-279851957D01*
X388614939Y-279851957D02*
X388686368Y-279994814D01*
X388686368Y-279994814D02*
X388686368Y-280137671D01*
X388686368Y-280137671D02*
X387972082Y-280280528D01*
X389186367Y-279780528D02*
X389543510Y-280780528D01*
X389543510Y-280780528D02*
X389900653Y-279780528D01*
X390472081Y-280637671D02*
X390543510Y-280709100D01*
X390543510Y-280709100D02*
X390472081Y-280780528D01*
X390472081Y-280780528D02*
X390400653Y-280709100D01*
X390400653Y-280709100D02*
X390472081Y-280637671D01*
X390472081Y-280637671D02*
X390472081Y-280780528D01*
X390472081Y-279851957D02*
X390543510Y-279923385D01*
X390543510Y-279923385D02*
X390472081Y-279994814D01*
X390472081Y-279994814D02*
X390400653Y-279923385D01*
X390400653Y-279923385D02*
X390472081Y-279851957D01*
X390472081Y-279851957D02*
X390472081Y-279994814D01*
D10*
D11*
X301373398Y-280716900D02*
X301587684Y-280788328D01*
X301587684Y-280788328D02*
X301944826Y-280788328D01*
X301944826Y-280788328D02*
X302087684Y-280716900D01*
X302087684Y-280716900D02*
X302159112Y-280645471D01*
X302159112Y-280645471D02*
X302230541Y-280502614D01*
X302230541Y-280502614D02*
X302230541Y-280359757D01*
X302230541Y-280359757D02*
X302159112Y-280216900D01*
X302159112Y-280216900D02*
X302087684Y-280145471D01*
X302087684Y-280145471D02*
X301944826Y-280074042D01*
X301944826Y-280074042D02*
X301659112Y-280002614D01*
X301659112Y-280002614D02*
X301516255Y-279931185D01*
X301516255Y-279931185D02*
X301444826Y-279859757D01*
X301444826Y-279859757D02*
X301373398Y-279716900D01*
X301373398Y-279716900D02*
X301373398Y-279574042D01*
X301373398Y-279574042D02*
X301444826Y-279431185D01*
X301444826Y-279431185D02*
X301516255Y-279359757D01*
X301516255Y-279359757D02*
X301659112Y-279288328D01*
X301659112Y-279288328D02*
X302016255Y-279288328D01*
X302016255Y-279288328D02*
X302230541Y-279359757D01*
X302873397Y-280788328D02*
X302873397Y-279788328D01*
X302873397Y-279288328D02*
X302801969Y-279359757D01*
X302801969Y-279359757D02*
X302873397Y-279431185D01*
X302873397Y-279431185D02*
X302944826Y-279359757D01*
X302944826Y-279359757D02*
X302873397Y-279288328D01*
X302873397Y-279288328D02*
X302873397Y-279431185D01*
X303444826Y-279788328D02*
X304230541Y-279788328D01*
X304230541Y-279788328D02*
X303444826Y-280788328D01*
X303444826Y-280788328D02*
X304230541Y-280788328D01*
X305373398Y-280716900D02*
X305230541Y-280788328D01*
X305230541Y-280788328D02*
X304944827Y-280788328D01*
X304944827Y-280788328D02*
X304801969Y-280716900D01*
X304801969Y-280716900D02*
X304730541Y-280574042D01*
X304730541Y-280574042D02*
X304730541Y-280002614D01*
X304730541Y-280002614D02*
X304801969Y-279859757D01*
X304801969Y-279859757D02*
X304944827Y-279788328D01*
X304944827Y-279788328D02*
X305230541Y-279788328D01*
X305230541Y-279788328D02*
X305373398Y-279859757D01*
X305373398Y-279859757D02*
X305444827Y-280002614D01*
X305444827Y-280002614D02*
X305444827Y-280145471D01*
X305444827Y-280145471D02*
X304730541Y-280288328D01*
X306087683Y-280645471D02*
X306159112Y-280716900D01*
X306159112Y-280716900D02*
X306087683Y-280788328D01*
X306087683Y-280788328D02*
X306016255Y-280716900D01*
X306016255Y-280716900D02*
X306087683Y-280645471D01*
X306087683Y-280645471D02*
X306087683Y-280788328D01*
X306087683Y-279859757D02*
X306159112Y-279931185D01*
X306159112Y-279931185D02*
X306087683Y-280002614D01*
X306087683Y-280002614D02*
X306016255Y-279931185D01*
X306016255Y-279931185D02*
X306087683Y-279859757D01*
X306087683Y-279859757D02*
X306087683Y-280002614D01*
X307873398Y-280359757D02*
X308587684Y-280359757D01*
X307730541Y-280788328D02*
X308230541Y-279288328D01*
X308230541Y-279288328D02*
X308730541Y-280788328D01*
X309087683Y-279288328D02*
X310016255Y-279288328D01*
X310016255Y-279288328D02*
X309516255Y-279859757D01*
X309516255Y-279859757D02*
X309730540Y-279859757D01*
X309730540Y-279859757D02*
X309873398Y-279931185D01*
X309873398Y-279931185D02*
X309944826Y-280002614D01*
X309944826Y-280002614D02*
X310016255Y-280145471D01*
X310016255Y-280145471D02*
X310016255Y-280502614D01*
X310016255Y-280502614D02*
X309944826Y-280645471D01*
X309944826Y-280645471D02*
X309873398Y-280716900D01*
X309873398Y-280716900D02*
X309730540Y-280788328D01*
X309730540Y-280788328D02*
X309301969Y-280788328D01*
X309301969Y-280788328D02*
X309159112Y-280716900D01*
X309159112Y-280716900D02*
X309087683Y-280645471D01*
D10*
D11*
X386444826Y-283588328D02*
X386444826Y-282088328D01*
X387801970Y-283588328D02*
X387801970Y-282088328D01*
X387801970Y-283516900D02*
X387659112Y-283588328D01*
X387659112Y-283588328D02*
X387373398Y-283588328D01*
X387373398Y-283588328D02*
X387230541Y-283516900D01*
X387230541Y-283516900D02*
X387159112Y-283445471D01*
X387159112Y-283445471D02*
X387087684Y-283302614D01*
X387087684Y-283302614D02*
X387087684Y-282874042D01*
X387087684Y-282874042D02*
X387159112Y-282731185D01*
X387159112Y-282731185D02*
X387230541Y-282659757D01*
X387230541Y-282659757D02*
X387373398Y-282588328D01*
X387373398Y-282588328D02*
X387659112Y-282588328D01*
X387659112Y-282588328D02*
X387801970Y-282659757D01*
X388516255Y-283445471D02*
X388587684Y-283516900D01*
X388587684Y-283516900D02*
X388516255Y-283588328D01*
X388516255Y-283588328D02*
X388444827Y-283516900D01*
X388444827Y-283516900D02*
X388516255Y-283445471D01*
X388516255Y-283445471D02*
X388516255Y-283588328D01*
X388516255Y-282659757D02*
X388587684Y-282731185D01*
X388587684Y-282731185D02*
X388516255Y-282802614D01*
X388516255Y-282802614D02*
X388444827Y-282731185D01*
X388444827Y-282731185D02*
X388516255Y-282659757D01*
X388516255Y-282659757D02*
X388516255Y-282802614D01*
X391159113Y-283588328D02*
X390301970Y-283588328D01*
X390730541Y-283588328D02*
X390730541Y-282088328D01*
X390730541Y-282088328D02*
X390587684Y-282302614D01*
X390587684Y-282302614D02*
X390444827Y-282445471D01*
X390444827Y-282445471D02*
X390301970Y-282516900D01*
X392873398Y-282016900D02*
X391587684Y-283945471D01*
X394159113Y-283588328D02*
X393301970Y-283588328D01*
X393730541Y-283588328D02*
X393730541Y-282088328D01*
X393730541Y-282088328D02*
X393587684Y-282302614D01*
X393587684Y-282302614D02*
X393444827Y-282445471D01*
X393444827Y-282445471D02*
X393301970Y-282516900D01*
D10*
D11*
X299989000Y-274502200D02*
X407989000Y-274502200D01*
D10*
D13*
X301680728Y-275206638D02*
X302823585Y-275206638D01*
X302002157Y-277206638D02*
X302252157Y-275206638D01*
X303240252Y-277206638D02*
X303406919Y-275873304D01*
X303490252Y-275206638D02*
X303383109Y-275301876D01*
X303383109Y-275301876D02*
X303466443Y-275397114D01*
X303466443Y-275397114D02*
X303573586Y-275301876D01*
X303573586Y-275301876D02*
X303490252Y-275206638D01*
X303490252Y-275206638D02*
X303466443Y-275397114D01*
X304073586Y-275873304D02*
X304835490Y-275873304D01*
X304442633Y-275206638D02*
X304228348Y-276920923D01*
X304228348Y-276920923D02*
X304299776Y-277111400D01*
X304299776Y-277111400D02*
X304478348Y-277206638D01*
X304478348Y-277206638D02*
X304668824Y-277206638D01*
X305621205Y-277206638D02*
X305442633Y-277111400D01*
X305442633Y-277111400D02*
X305371205Y-276920923D01*
X305371205Y-276920923D02*
X305585490Y-275206638D01*
X307156919Y-277111400D02*
X306954538Y-277206638D01*
X306954538Y-277206638D02*
X306573585Y-277206638D01*
X306573585Y-277206638D02*
X306395014Y-277111400D01*
X306395014Y-277111400D02*
X306323585Y-276920923D01*
X306323585Y-276920923D02*
X306418824Y-276159019D01*
X306418824Y-276159019D02*
X306537871Y-275968542D01*
X306537871Y-275968542D02*
X306740252Y-275873304D01*
X306740252Y-275873304D02*
X307121204Y-275873304D01*
X307121204Y-275873304D02*
X307299776Y-275968542D01*
X307299776Y-275968542D02*
X307371204Y-276159019D01*
X307371204Y-276159019D02*
X307347395Y-276349495D01*
X307347395Y-276349495D02*
X306371204Y-276539971D01*
X308121205Y-277016161D02*
X308204538Y-277111400D01*
X308204538Y-277111400D02*
X308097395Y-277206638D01*
X308097395Y-277206638D02*
X308014062Y-277111400D01*
X308014062Y-277111400D02*
X308121205Y-277016161D01*
X308121205Y-277016161D02*
X308097395Y-277206638D01*
X308252157Y-275968542D02*
X308335490Y-276063780D01*
X308335490Y-276063780D02*
X308228348Y-276159019D01*
X308228348Y-276159019D02*
X308145014Y-276063780D01*
X308145014Y-276063780D02*
X308252157Y-275968542D01*
X308252157Y-275968542D02*
X308228348Y-276159019D01*
D10*
D11*
X301944826Y-272602614D02*
X301444826Y-272602614D01*
X301444826Y-273388328D02*
X301444826Y-271888328D01*
X301444826Y-271888328D02*
X302159112Y-271888328D01*
X302730540Y-273388328D02*
X302730540Y-272388328D01*
X302730540Y-271888328D02*
X302659112Y-271959757D01*
X302659112Y-271959757D02*
X302730540Y-272031185D01*
X302730540Y-272031185D02*
X302801969Y-271959757D01*
X302801969Y-271959757D02*
X302730540Y-271888328D01*
X302730540Y-271888328D02*
X302730540Y-272031185D01*
X303659112Y-273388328D02*
X303516255Y-273316900D01*
X303516255Y-273316900D02*
X303444826Y-273174042D01*
X303444826Y-273174042D02*
X303444826Y-271888328D01*
X304801969Y-273316900D02*
X304659112Y-273388328D01*
X304659112Y-273388328D02*
X304373398Y-273388328D01*
X304373398Y-273388328D02*
X304230540Y-273316900D01*
X304230540Y-273316900D02*
X304159112Y-273174042D01*
X304159112Y-273174042D02*
X304159112Y-272602614D01*
X304159112Y-272602614D02*
X304230540Y-272459757D01*
X304230540Y-272459757D02*
X304373398Y-272388328D01*
X304373398Y-272388328D02*
X304659112Y-272388328D01*
X304659112Y-272388328D02*
X304801969Y-272459757D01*
X304801969Y-272459757D02*
X304873398Y-272602614D01*
X304873398Y-272602614D02*
X304873398Y-272745471D01*
X304873398Y-272745471D02*
X304159112Y-272888328D01*
X305516254Y-273245471D02*
X305587683Y-273316900D01*
X305587683Y-273316900D02*
X305516254Y-273388328D01*
X305516254Y-273388328D02*
X305444826Y-273316900D01*
X305444826Y-273316900D02*
X305516254Y-273245471D01*
X305516254Y-273245471D02*
X305516254Y-273388328D01*
X305516254Y-272459757D02*
X305587683Y-272531185D01*
X305587683Y-272531185D02*
X305516254Y-272602614D01*
X305516254Y-272602614D02*
X305444826Y-272531185D01*
X305444826Y-272531185D02*
X305516254Y-272459757D01*
X305516254Y-272459757D02*
X305516254Y-272602614D01*
X307873397Y-272602614D02*
X308087683Y-272674042D01*
X308087683Y-272674042D02*
X308159112Y-272745471D01*
X308159112Y-272745471D02*
X308230540Y-272888328D01*
X308230540Y-272888328D02*
X308230540Y-273102614D01*
X308230540Y-273102614D02*
X308159112Y-273245471D01*
X308159112Y-273245471D02*
X308087683Y-273316900D01*
X308087683Y-273316900D02*
X307944826Y-273388328D01*
X307944826Y-273388328D02*
X307373397Y-273388328D01*
X307373397Y-273388328D02*
X307373397Y-271888328D01*
X307373397Y-271888328D02*
X307873397Y-271888328D01*
X307873397Y-271888328D02*
X308016255Y-271959757D01*
X308016255Y-271959757D02*
X308087683Y-272031185D01*
X308087683Y-272031185D02*
X308159112Y-272174042D01*
X308159112Y-272174042D02*
X308159112Y-272316900D01*
X308159112Y-272316900D02*
X308087683Y-272459757D01*
X308087683Y-272459757D02*
X308016255Y-272531185D01*
X308016255Y-272531185D02*
X307873397Y-272602614D01*
X307873397Y-272602614D02*
X307373397Y-272602614D01*
X309087683Y-273388328D02*
X308944826Y-273316900D01*
X308944826Y-273316900D02*
X308873397Y-273174042D01*
X308873397Y-273174042D02*
X308873397Y-271888328D01*
X310301969Y-272388328D02*
X310301969Y-273388328D01*
X309659111Y-272388328D02*
X309659111Y-273174042D01*
X309659111Y-273174042D02*
X309730540Y-273316900D01*
X309730540Y-273316900D02*
X309873397Y-273388328D01*
X309873397Y-273388328D02*
X310087683Y-273388328D01*
X310087683Y-273388328D02*
X310230540Y-273316900D01*
X310230540Y-273316900D02*
X310301969Y-273245471D01*
X311587683Y-273316900D02*
X311444826Y-273388328D01*
X311444826Y-273388328D02*
X311159112Y-273388328D01*
X311159112Y-273388328D02*
X311016254Y-273316900D01*
X311016254Y-273316900D02*
X310944826Y-273174042D01*
X310944826Y-273174042D02*
X310944826Y-272602614D01*
X310944826Y-272602614D02*
X311016254Y-272459757D01*
X311016254Y-272459757D02*
X311159112Y-272388328D01*
X311159112Y-272388328D02*
X311444826Y-272388328D01*
X311444826Y-272388328D02*
X311587683Y-272459757D01*
X311587683Y-272459757D02*
X311659112Y-272602614D01*
X311659112Y-272602614D02*
X311659112Y-272745471D01*
X311659112Y-272745471D02*
X310944826Y-272888328D01*
X312087683Y-272388328D02*
X312659111Y-272388328D01*
X312301968Y-271888328D02*
X312301968Y-273174042D01*
X312301968Y-273174042D02*
X312373397Y-273316900D01*
X312373397Y-273316900D02*
X312516254Y-273388328D01*
X312516254Y-273388328D02*
X312659111Y-273388328D01*
X313373397Y-273388328D02*
X313230540Y-273316900D01*
X313230540Y-273316900D02*
X313159111Y-273245471D01*
X313159111Y-273245471D02*
X313087683Y-273102614D01*
X313087683Y-273102614D02*
X313087683Y-272674042D01*
X313087683Y-272674042D02*
X313159111Y-272531185D01*
X313159111Y-272531185D02*
X313230540Y-272459757D01*
X313230540Y-272459757D02*
X313373397Y-272388328D01*
X313373397Y-272388328D02*
X313587683Y-272388328D01*
X313587683Y-272388328D02*
X313730540Y-272459757D01*
X313730540Y-272459757D02*
X313801969Y-272531185D01*
X313801969Y-272531185D02*
X313873397Y-272674042D01*
X313873397Y-272674042D02*
X313873397Y-273102614D01*
X313873397Y-273102614D02*
X313801969Y-273245471D01*
X313801969Y-273245471D02*
X313730540Y-273316900D01*
X313730540Y-273316900D02*
X313587683Y-273388328D01*
X313587683Y-273388328D02*
X313373397Y-273388328D01*
X314730540Y-273388328D02*
X314587683Y-273316900D01*
X314587683Y-273316900D02*
X314516254Y-273245471D01*
X314516254Y-273245471D02*
X314444826Y-273102614D01*
X314444826Y-273102614D02*
X314444826Y-272674042D01*
X314444826Y-272674042D02*
X314516254Y-272531185D01*
X314516254Y-272531185D02*
X314587683Y-272459757D01*
X314587683Y-272459757D02*
X314730540Y-272388328D01*
X314730540Y-272388328D02*
X314944826Y-272388328D01*
X314944826Y-272388328D02*
X315087683Y-272459757D01*
X315087683Y-272459757D02*
X315159112Y-272531185D01*
X315159112Y-272531185D02*
X315230540Y-272674042D01*
X315230540Y-272674042D02*
X315230540Y-273102614D01*
X315230540Y-273102614D02*
X315159112Y-273245471D01*
X315159112Y-273245471D02*
X315087683Y-273316900D01*
X315087683Y-273316900D02*
X314944826Y-273388328D01*
X314944826Y-273388328D02*
X314730540Y-273388328D01*
X315659112Y-272388328D02*
X316230540Y-272388328D01*
X315873397Y-271888328D02*
X315873397Y-273174042D01*
X315873397Y-273174042D02*
X315944826Y-273316900D01*
X315944826Y-273316900D02*
X316087683Y-273388328D01*
X316087683Y-273388328D02*
X316230540Y-273388328D01*
X316730540Y-273388328D02*
X316730540Y-271888328D01*
X317373398Y-273388328D02*
X317373398Y-272602614D01*
X317373398Y-272602614D02*
X317301969Y-272459757D01*
X317301969Y-272459757D02*
X317159112Y-272388328D01*
X317159112Y-272388328D02*
X316944826Y-272388328D01*
X316944826Y-272388328D02*
X316801969Y-272459757D01*
X316801969Y-272459757D02*
X316730540Y-272531185D01*
X317730541Y-273531185D02*
X318873398Y-273531185D01*
X319516255Y-271888328D02*
X319801969Y-271888328D01*
X319801969Y-271888328D02*
X319944826Y-271959757D01*
X319944826Y-271959757D02*
X320087683Y-272102614D01*
X320087683Y-272102614D02*
X320159112Y-272388328D01*
X320159112Y-272388328D02*
X320159112Y-272888328D01*
X320159112Y-272888328D02*
X320087683Y-273174042D01*
X320087683Y-273174042D02*
X319944826Y-273316900D01*
X319944826Y-273316900D02*
X319801969Y-273388328D01*
X319801969Y-273388328D02*
X319516255Y-273388328D01*
X319516255Y-273388328D02*
X319373398Y-273316900D01*
X319373398Y-273316900D02*
X319230540Y-273174042D01*
X319230540Y-273174042D02*
X319159112Y-272888328D01*
X319159112Y-272888328D02*
X319159112Y-272388328D01*
X319159112Y-272388328D02*
X319230540Y-272102614D01*
X319230540Y-272102614D02*
X319373398Y-271959757D01*
X319373398Y-271959757D02*
X319516255Y-271888328D01*
X320730541Y-273316900D02*
X320944827Y-273388328D01*
X320944827Y-273388328D02*
X321301969Y-273388328D01*
X321301969Y-273388328D02*
X321444827Y-273316900D01*
X321444827Y-273316900D02*
X321516255Y-273245471D01*
X321516255Y-273245471D02*
X321587684Y-273102614D01*
X321587684Y-273102614D02*
X321587684Y-272959757D01*
X321587684Y-272959757D02*
X321516255Y-272816900D01*
X321516255Y-272816900D02*
X321444827Y-272745471D01*
X321444827Y-272745471D02*
X321301969Y-272674042D01*
X321301969Y-272674042D02*
X321016255Y-272602614D01*
X321016255Y-272602614D02*
X320873398Y-272531185D01*
X320873398Y-272531185D02*
X320801969Y-272459757D01*
X320801969Y-272459757D02*
X320730541Y-272316900D01*
X320730541Y-272316900D02*
X320730541Y-272174042D01*
X320730541Y-272174042D02*
X320801969Y-272031185D01*
X320801969Y-272031185D02*
X320873398Y-271959757D01*
X320873398Y-271959757D02*
X321016255Y-271888328D01*
X321016255Y-271888328D02*
X321373398Y-271888328D01*
X321373398Y-271888328D02*
X321587684Y-271959757D01*
X322230540Y-273388328D02*
X322230540Y-271888328D01*
X322230540Y-272602614D02*
X323087683Y-272602614D01*
X323087683Y-273388328D02*
X323087683Y-271888328D01*
X323659112Y-271888328D02*
X324016255Y-273388328D01*
X324016255Y-273388328D02*
X324301969Y-272316900D01*
X324301969Y-272316900D02*
X324587684Y-273388328D01*
X324587684Y-273388328D02*
X324944827Y-271888328D01*
X325516255Y-273245471D02*
X325587684Y-273316900D01*
X325587684Y-273316900D02*
X325516255Y-273388328D01*
X325516255Y-273388328D02*
X325444827Y-273316900D01*
X325444827Y-273316900D02*
X325516255Y-273245471D01*
X325516255Y-273245471D02*
X325516255Y-273388328D01*
X326230541Y-273388328D02*
X326230541Y-271888328D01*
X326373399Y-272816900D02*
X326801970Y-273388328D01*
X326801970Y-272388328D02*
X326230541Y-272959757D01*
X327444827Y-273388328D02*
X327444827Y-272388328D01*
X327444827Y-271888328D02*
X327373399Y-271959757D01*
X327373399Y-271959757D02*
X327444827Y-272031185D01*
X327444827Y-272031185D02*
X327516256Y-271959757D01*
X327516256Y-271959757D02*
X327444827Y-271888328D01*
X327444827Y-271888328D02*
X327444827Y-272031185D01*
X328801971Y-273316900D02*
X328659113Y-273388328D01*
X328659113Y-273388328D02*
X328373399Y-273388328D01*
X328373399Y-273388328D02*
X328230542Y-273316900D01*
X328230542Y-273316900D02*
X328159113Y-273245471D01*
X328159113Y-273245471D02*
X328087685Y-273102614D01*
X328087685Y-273102614D02*
X328087685Y-272674042D01*
X328087685Y-272674042D02*
X328159113Y-272531185D01*
X328159113Y-272531185D02*
X328230542Y-272459757D01*
X328230542Y-272459757D02*
X328373399Y-272388328D01*
X328373399Y-272388328D02*
X328659113Y-272388328D01*
X328659113Y-272388328D02*
X328801971Y-272459757D01*
X330087685Y-273388328D02*
X330087685Y-272602614D01*
X330087685Y-272602614D02*
X330016256Y-272459757D01*
X330016256Y-272459757D02*
X329873399Y-272388328D01*
X329873399Y-272388328D02*
X329587685Y-272388328D01*
X329587685Y-272388328D02*
X329444827Y-272459757D01*
X330087685Y-273316900D02*
X329944827Y-273388328D01*
X329944827Y-273388328D02*
X329587685Y-273388328D01*
X329587685Y-273388328D02*
X329444827Y-273316900D01*
X329444827Y-273316900D02*
X329373399Y-273174042D01*
X329373399Y-273174042D02*
X329373399Y-273031185D01*
X329373399Y-273031185D02*
X329444827Y-272888328D01*
X329444827Y-272888328D02*
X329587685Y-272816900D01*
X329587685Y-272816900D02*
X329944827Y-272816900D01*
X329944827Y-272816900D02*
X330087685Y-272745471D01*
X331444828Y-273388328D02*
X331444828Y-271888328D01*
X331444828Y-273316900D02*
X331301970Y-273388328D01*
X331301970Y-273388328D02*
X331016256Y-273388328D01*
X331016256Y-273388328D02*
X330873399Y-273316900D01*
X330873399Y-273316900D02*
X330801970Y-273245471D01*
X330801970Y-273245471D02*
X330730542Y-273102614D01*
X330730542Y-273102614D02*
X330730542Y-272674042D01*
X330730542Y-272674042D02*
X330801970Y-272531185D01*
X330801970Y-272531185D02*
X330873399Y-272459757D01*
X330873399Y-272459757D02*
X331016256Y-272388328D01*
X331016256Y-272388328D02*
X331301970Y-272388328D01*
X331301970Y-272388328D02*
X331444828Y-272459757D01*
X331801971Y-273531185D02*
X332944828Y-273531185D01*
X333301970Y-272388328D02*
X333301970Y-273888328D01*
X333301970Y-272459757D02*
X333444828Y-272388328D01*
X333444828Y-272388328D02*
X333730542Y-272388328D01*
X333730542Y-272388328D02*
X333873399Y-272459757D01*
X333873399Y-272459757D02*
X333944828Y-272531185D01*
X333944828Y-272531185D02*
X334016256Y-272674042D01*
X334016256Y-272674042D02*
X334016256Y-273102614D01*
X334016256Y-273102614D02*
X333944828Y-273245471D01*
X333944828Y-273245471D02*
X333873399Y-273316900D01*
X333873399Y-273316900D02*
X333730542Y-273388328D01*
X333730542Y-273388328D02*
X333444828Y-273388328D01*
X333444828Y-273388328D02*
X333301970Y-273316900D01*
X335301971Y-273316900D02*
X335159113Y-273388328D01*
X335159113Y-273388328D02*
X334873399Y-273388328D01*
X334873399Y-273388328D02*
X334730542Y-273316900D01*
X334730542Y-273316900D02*
X334659113Y-273245471D01*
X334659113Y-273245471D02*
X334587685Y-273102614D01*
X334587685Y-273102614D02*
X334587685Y-272674042D01*
X334587685Y-272674042D02*
X334659113Y-272531185D01*
X334659113Y-272531185D02*
X334730542Y-272459757D01*
X334730542Y-272459757D02*
X334873399Y-272388328D01*
X334873399Y-272388328D02*
X335159113Y-272388328D01*
X335159113Y-272388328D02*
X335301971Y-272459757D01*
X335944827Y-273388328D02*
X335944827Y-271888328D01*
X335944827Y-272459757D02*
X336087685Y-272388328D01*
X336087685Y-272388328D02*
X336373399Y-272388328D01*
X336373399Y-272388328D02*
X336516256Y-272459757D01*
X336516256Y-272459757D02*
X336587685Y-272531185D01*
X336587685Y-272531185D02*
X336659113Y-272674042D01*
X336659113Y-272674042D02*
X336659113Y-273102614D01*
X336659113Y-273102614D02*
X336587685Y-273245471D01*
X336587685Y-273245471D02*
X336516256Y-273316900D01*
X336516256Y-273316900D02*
X336373399Y-273388328D01*
X336373399Y-273388328D02*
X336087685Y-273388328D01*
X336087685Y-273388328D02*
X335944827Y-273316900D01*
D10*
D11*
X299989000Y-268502200D02*
X407989000Y-268502200D01*
D10*
D11*
X301373398Y-270616900D02*
X301587684Y-270688328D01*
X301587684Y-270688328D02*
X301944826Y-270688328D01*
X301944826Y-270688328D02*
X302087684Y-270616900D01*
X302087684Y-270616900D02*
X302159112Y-270545471D01*
X302159112Y-270545471D02*
X302230541Y-270402614D01*
X302230541Y-270402614D02*
X302230541Y-270259757D01*
X302230541Y-270259757D02*
X302159112Y-270116900D01*
X302159112Y-270116900D02*
X302087684Y-270045471D01*
X302087684Y-270045471D02*
X301944826Y-269974042D01*
X301944826Y-269974042D02*
X301659112Y-269902614D01*
X301659112Y-269902614D02*
X301516255Y-269831185D01*
X301516255Y-269831185D02*
X301444826Y-269759757D01*
X301444826Y-269759757D02*
X301373398Y-269616900D01*
X301373398Y-269616900D02*
X301373398Y-269474042D01*
X301373398Y-269474042D02*
X301444826Y-269331185D01*
X301444826Y-269331185D02*
X301516255Y-269259757D01*
X301516255Y-269259757D02*
X301659112Y-269188328D01*
X301659112Y-269188328D02*
X302016255Y-269188328D01*
X302016255Y-269188328D02*
X302230541Y-269259757D01*
X302873397Y-270688328D02*
X302873397Y-269188328D01*
X303516255Y-270688328D02*
X303516255Y-269902614D01*
X303516255Y-269902614D02*
X303444826Y-269759757D01*
X303444826Y-269759757D02*
X303301969Y-269688328D01*
X303301969Y-269688328D02*
X303087683Y-269688328D01*
X303087683Y-269688328D02*
X302944826Y-269759757D01*
X302944826Y-269759757D02*
X302873397Y-269831185D01*
X304801969Y-270616900D02*
X304659112Y-270688328D01*
X304659112Y-270688328D02*
X304373398Y-270688328D01*
X304373398Y-270688328D02*
X304230540Y-270616900D01*
X304230540Y-270616900D02*
X304159112Y-270474042D01*
X304159112Y-270474042D02*
X304159112Y-269902614D01*
X304159112Y-269902614D02*
X304230540Y-269759757D01*
X304230540Y-269759757D02*
X304373398Y-269688328D01*
X304373398Y-269688328D02*
X304659112Y-269688328D01*
X304659112Y-269688328D02*
X304801969Y-269759757D01*
X304801969Y-269759757D02*
X304873398Y-269902614D01*
X304873398Y-269902614D02*
X304873398Y-270045471D01*
X304873398Y-270045471D02*
X304159112Y-270188328D01*
X306087683Y-270616900D02*
X305944826Y-270688328D01*
X305944826Y-270688328D02*
X305659112Y-270688328D01*
X305659112Y-270688328D02*
X305516254Y-270616900D01*
X305516254Y-270616900D02*
X305444826Y-270474042D01*
X305444826Y-270474042D02*
X305444826Y-269902614D01*
X305444826Y-269902614D02*
X305516254Y-269759757D01*
X305516254Y-269759757D02*
X305659112Y-269688328D01*
X305659112Y-269688328D02*
X305944826Y-269688328D01*
X305944826Y-269688328D02*
X306087683Y-269759757D01*
X306087683Y-269759757D02*
X306159112Y-269902614D01*
X306159112Y-269902614D02*
X306159112Y-270045471D01*
X306159112Y-270045471D02*
X305444826Y-270188328D01*
X306587683Y-269688328D02*
X307159111Y-269688328D01*
X306801968Y-269188328D02*
X306801968Y-270474042D01*
X306801968Y-270474042D02*
X306873397Y-270616900D01*
X306873397Y-270616900D02*
X307016254Y-270688328D01*
X307016254Y-270688328D02*
X307159111Y-270688328D01*
X307659111Y-270545471D02*
X307730540Y-270616900D01*
X307730540Y-270616900D02*
X307659111Y-270688328D01*
X307659111Y-270688328D02*
X307587683Y-270616900D01*
X307587683Y-270616900D02*
X307659111Y-270545471D01*
X307659111Y-270545471D02*
X307659111Y-270688328D01*
X307659111Y-269759757D02*
X307730540Y-269831185D01*
X307730540Y-269831185D02*
X307659111Y-269902614D01*
X307659111Y-269902614D02*
X307587683Y-269831185D01*
X307587683Y-269831185D02*
X307659111Y-269759757D01*
X307659111Y-269759757D02*
X307659111Y-269902614D01*
D10*
D12*
D10*
D11*
D10*
D11*
D10*
D11*
D10*
D11*
D10*
D11*
X319989000Y-278502200D02*
X319989000Y-281502200D01*
D10*
D11*
X383989000Y-278502200D02*
X383989000Y-285002200D01*
D14*
%TO.N,PP1800_ALW*%
%TO.C,J1*%
X208280000Y-128894000D03*
D15*
%TO.N,GND*%
X209550000Y-128894000D03*
%TO.N,GPIO_PC11*%
X210820000Y-128894000D03*
%TO.N,GPIO_PC10*%
X212090000Y-128894000D03*
%TO.N,GPIO_PA15*%
X213360000Y-128894000D03*
%TO.N,SPI2_DEV_DC_PC6*%
X214630000Y-128894000D03*
%TO.N,SPI2_STM_DO_DEV_DI_PB15*%
X215900000Y-128894000D03*
%TO.N,SPI2_DEV_DO_STM_DI_PB14*%
X217170000Y-128894000D03*
%TO.N,SPI2_CLK_PB13*%
X218440000Y-128894000D03*
%TO.N,SPI2_DEV_CS_L_PB12*%
X219710000Y-128894000D03*
%TO.N,GPIO_PE4*%
X220980000Y-128894000D03*
%TO.N,GPIO_PB1*%
X222250000Y-128894000D03*
%TO.N,GPIO_PB0*%
X223520000Y-128894000D03*
%TO.N,STM_LPUART_TXD_PA2*%
X224790000Y-128894000D03*
%TO.N,STM_LPUART_RXD_PB10*%
X226060000Y-128894000D03*
%TD*%
D16*
%TO.N,PPVAR_BAT*%
%TO.C,J3*%
X197281800Y-141510000D03*
D17*
%TO.N,/POWER/CHGR_BAT_THERM*%
X197281800Y-143510000D03*
%TO.N,GND*%
X197281800Y-145510000D03*
%TD*%
D14*
%TO.N,PPVAR_VIN*%
%TO.C,J2*%
X208280000Y-146665000D03*
D15*
%TO.N,GND*%
X209550000Y-146665000D03*
%TO.N,RESETB*%
X210820000Y-146665000D03*
%TO.N,STM_WKUP2_PC13*%
X212090000Y-146665000D03*
%TO.N,STM_BOOT0*%
X213360000Y-146665000D03*
%TO.N,I2C3_SCL*%
X214630000Y-146665000D03*
%TO.N,I2C3_SDA*%
X215900000Y-146665000D03*
%TO.N,ADC1_IN3*%
X217170000Y-146665000D03*
%TO.N,ADC1_IN4*%
X218440000Y-146665000D03*
%TO.N,ADC1_IN5*%
X219710000Y-146665000D03*
%TO.N,PPVAR_ADC*%
X220980000Y-146665000D03*
%TO.N,GND*%
X222250000Y-146665000D03*
%TO.N,STM_SAI1_SCK_A*%
X223520000Y-146665000D03*
%TO.N,STM_SAI1_FS_A*%
X224790000Y-146665000D03*
%TO.N,STM_SAI1_SD_A*%
X226060000Y-146665000D03*
%TD*%
D18*
%TO.N,GND*%
%TO.C,J5*%
X198130000Y-129160000D03*
D19*
X194305000Y-129160000D03*
D18*
X198130000Y-137800000D03*
D19*
X194305000Y-137800000D03*
%TD*%
D20*
%TO.N,GND*%
%TO.C,U4*%
X202714800Y-143010000D03*
X202714800Y-144010000D03*
%TD*%
D21*
%TO.N,GND*%
X227990000Y-137830000D03*
X227010000Y-140918334D03*
D22*
X215510000Y-134509000D03*
D21*
X230010000Y-139030000D03*
X230010000Y-144076664D03*
X230980000Y-134430000D03*
X226000000Y-133630000D03*
D22*
X215510000Y-137734800D03*
X217110000Y-137734800D03*
D21*
X228720000Y-136480000D03*
X230880000Y-143546664D03*
X225440000Y-130560000D03*
X227965000Y-128905000D03*
X202960000Y-140958600D03*
X226970000Y-134050000D03*
D23*
X203030000Y-135310000D03*
D21*
X226710000Y-136220000D03*
X230880000Y-138500000D03*
X223080322Y-139152500D03*
X227010000Y-138395002D03*
X209550000Y-145550000D03*
X224850000Y-133650000D03*
X222890000Y-134760000D03*
X227000000Y-130870000D03*
X228990000Y-143419996D03*
X224880000Y-141410000D03*
D22*
X209550000Y-129990000D03*
D21*
X230880000Y-141023332D03*
X227965000Y-130175000D03*
X221160000Y-139990000D03*
D23*
X201664800Y-144729200D03*
D22*
X217110000Y-134509000D03*
D21*
X223400000Y-144070000D03*
X227880000Y-136720000D03*
X223060000Y-130540000D03*
X228990000Y-145943332D03*
X227000000Y-132140000D03*
X203160000Y-136819800D03*
X224620000Y-143600000D03*
X201730000Y-138540000D03*
X214510000Y-130500000D03*
X230880000Y-144808330D03*
X230770000Y-136370000D03*
X208350000Y-131890000D03*
X223840000Y-135860000D03*
X221610000Y-143860000D03*
X230010000Y-145338330D03*
X205600010Y-142900000D03*
X226060000Y-131445000D03*
X227980000Y-141558334D03*
X226370000Y-134420000D03*
X230880000Y-146070000D03*
X202809998Y-134110000D03*
X227980000Y-146605002D03*
X228730000Y-133720000D03*
X224610000Y-136180000D03*
X229070000Y-132130000D03*
X206279998Y-142890000D03*
X227010000Y-142180000D03*
D22*
X215510000Y-136109200D03*
D21*
X230880000Y-139761666D03*
X202280400Y-140980000D03*
X216820000Y-143590000D03*
D23*
X204260000Y-135040000D03*
D21*
X227080000Y-133360000D03*
X227965000Y-131445000D03*
X228940000Y-129620000D03*
X199415400Y-130377000D03*
X229560000Y-136740000D03*
X230010000Y-140291666D03*
X225230000Y-135760000D03*
X223200000Y-133500000D03*
X227010000Y-139656668D03*
X228940000Y-130890000D03*
D22*
X218710000Y-134509000D03*
D21*
X202750000Y-132790000D03*
X225730000Y-134430000D03*
X230880000Y-142284998D03*
X227010000Y-144703332D03*
X227980000Y-144081666D03*
X230850000Y-137400000D03*
X227840000Y-133490000D03*
D22*
X209942141Y-136563091D03*
D21*
X207314800Y-144881600D03*
D22*
X217110000Y-136109200D03*
D21*
X225880000Y-135770000D03*
X230010000Y-146600000D03*
X227980000Y-145343332D03*
X227010000Y-143441666D03*
X211680000Y-135560000D03*
X228990000Y-139634998D03*
X224470000Y-134170000D03*
X229580000Y-133490000D03*
X227980000Y-142820000D03*
X230440000Y-134070000D03*
D22*
X218710000Y-136109200D03*
D21*
X224020000Y-133840000D03*
X228990000Y-144681662D03*
X230420000Y-133350000D03*
X230040000Y-137860000D03*
X223720000Y-136870000D03*
X227980000Y-139035002D03*
X230010000Y-142814998D03*
X227980000Y-140296668D03*
X228990000Y-138373332D03*
X218190000Y-130640000D03*
X223590000Y-135090000D03*
X213550000Y-141240000D03*
X211740000Y-140570000D03*
X230340000Y-136830000D03*
X223090000Y-140090000D03*
X223800000Y-133410000D03*
X202909300Y-131253100D03*
X228990000Y-142158330D03*
X228990000Y-140896664D03*
X227965000Y-132715000D03*
D22*
X218710000Y-137734800D03*
D21*
X213550000Y-144570000D03*
X227120000Y-136820000D03*
X230010000Y-141553332D03*
X222490000Y-133520000D03*
X212890000Y-132340000D03*
X199415400Y-136575800D03*
X223740000Y-140880000D03*
X226060000Y-132715000D03*
X214934800Y-144932400D03*
X225090000Y-134430000D03*
X215011000Y-142722600D03*
X196590000Y-133190000D03*
%TO.N,PP1800_ALW*%
X213010000Y-140020000D03*
X221600000Y-142010000D03*
X216310000Y-131460000D03*
D23*
X206470000Y-134250000D03*
D21*
X218922600Y-144297400D03*
X221872500Y-133320000D03*
X212320000Y-139310000D03*
D23*
X205900000Y-134240000D03*
D21*
X221910000Y-134810000D03*
X218140600Y-141980600D03*
X216890000Y-131460000D03*
X215809998Y-144330000D03*
%TO.N,PPVAR_SYS*%
X203380000Y-138150000D03*
D22*
X202082400Y-140131800D03*
D21*
%TO.N,PPVAR_BAT*%
X201540000Y-146870000D03*
X204650000Y-146880000D03*
D22*
%TO.N,PP3300_DBG*%
X204860000Y-140110000D03*
D21*
%TO.N,RESETB*%
X216660000Y-141630000D03*
X209010000Y-142110000D03*
%TO.N,PP3300_VDDUSB*%
X209340000Y-132290000D03*
X212250000Y-134180000D03*
X209030000Y-134180000D03*
D22*
%TO.N,PPVAR_VIN*%
X204901800Y-141050000D03*
X204901800Y-141808200D03*
X201093806Y-137720806D03*
X200290000Y-138250000D03*
D21*
%TO.N,VIN_SNS_ADC1_IN9*%
X222100000Y-139090000D03*
D22*
%TO.N,VBUS*%
X200030000Y-131940000D03*
X200620000Y-135660000D03*
X199690000Y-135540000D03*
D21*
X204180000Y-129460000D03*
X201020000Y-134110000D03*
D22*
X200012796Y-131126998D03*
D21*
%TO.N,Net-(U4-~{CE})*%
X200837800Y-144068800D03*
%TO.N,BAT_CHRG_FACTORY*%
X209990000Y-144530000D03*
X205333600Y-145516600D03*
X206908400Y-145680000D03*
%TO.N,Net-(U5-VINSW)*%
X202120000Y-136900000D03*
%TO.N,VIN_SNS_EN*%
X201170000Y-136630000D03*
X210520000Y-139150000D03*
%TO.N,FLT_CHG_L*%
X206960000Y-136670000D03*
X205080810Y-142654679D03*
X212090000Y-137670000D03*
X206530000Y-139370000D03*
%TO.N,/POWER/CHGR_BAT_THERM*%
X203610556Y-145180556D03*
%TO.N,Net-(U8-EN)*%
X204910000Y-132220000D03*
%TO.N,STM_LPUART_TXD_PA2*%
X222550000Y-140270000D03*
X220210000Y-131370000D03*
%TO.N,STM_WKUP2_PC13*%
X214172800Y-141579600D03*
X210590000Y-142180000D03*
%TO.N,STM_LPUART_RXD_PB10*%
X223270000Y-136020000D03*
X220820000Y-131410000D03*
%TO.N,STM_SAI1_SD_A*%
X213450000Y-132410000D03*
X223010000Y-136840000D03*
%TO.N,Net-(D1-K)*%
X203980000Y-146100000D03*
%TO.N,/POWER/CHG_LED_GRN*%
X200355200Y-143510000D03*
%TO.N,Net-(U5-VOS)*%
X201828400Y-137947400D03*
X205090000Y-136710000D03*
%TO.N,QSPI_MEM_D1*%
X216712800Y-143052800D03*
X223880000Y-141440000D03*
%TO.N,QSPI_MEM_D3*%
X223540000Y-138720000D03*
X222990000Y-143570000D03*
%TO.N,QSPI_MEM_D0*%
X225000000Y-143080000D03*
X217373200Y-143610000D03*
%TO.N,QSPI_MEM_CLK*%
X223800000Y-143690000D03*
X223561772Y-139557284D03*
%TO.N,PPVAR_ADC*%
X219810000Y-141530000D03*
X219100000Y-140870000D03*
%TO.N,GPIO_PC10*%
X211120000Y-135850000D03*
X210750000Y-131890000D03*
%TO.N,GPIO_PA15*%
X211220000Y-132280000D03*
X211230000Y-135140000D03*
%TO.N,GPIO_PC11*%
X211470000Y-136540000D03*
X210150000Y-132270000D03*
%TO.N,Net-(D4-K)*%
X206340000Y-146100000D03*
%TO.N,/BLE_MCU/BT_CONN_LED*%
X209620000Y-144010000D03*
%TO.N,Net-(J5-CC2)*%
X197330000Y-134720004D03*
%TO.N,Net-(J5-CC1)*%
X197360000Y-131730000D03*
%TD*%
%TA.AperFunction,Conductor*%
%TO.N,GND*%
G36*
X193195808Y-128338174D02*
G01*
X193217482Y-128390500D01*
X193195808Y-128442826D01*
X193184594Y-128452029D01*
X193113156Y-128499761D01*
X193113155Y-128499763D01*
X192994763Y-128618155D01*
X192994761Y-128618156D01*
X192901740Y-128757373D01*
X192837665Y-128912063D01*
X192837663Y-128912069D01*
X192808239Y-129059999D01*
X192808239Y-129060000D01*
X193371212Y-129060000D01*
X193355000Y-129120504D01*
X193355000Y-129199496D01*
X193371212Y-129260000D01*
X192808239Y-129260000D01*
X192837663Y-129407930D01*
X192837665Y-129407936D01*
X192901740Y-129562626D01*
X192994761Y-129701843D01*
X193113156Y-129820238D01*
X193252373Y-129913259D01*
X193407063Y-129977334D01*
X193407069Y-129977336D01*
X193571284Y-130010000D01*
X194205000Y-130010000D01*
X194205000Y-129460000D01*
X194405000Y-129460000D01*
X194405000Y-130010000D01*
X195038716Y-130010000D01*
X195202930Y-129977336D01*
X195202936Y-129977334D01*
X195357626Y-129913259D01*
X195496843Y-129820238D01*
X195496845Y-129820237D01*
X195615237Y-129701845D01*
X195615238Y-129701843D01*
X195708259Y-129562626D01*
X195772334Y-129407936D01*
X195772336Y-129407930D01*
X195801760Y-129260000D01*
X195238788Y-129260000D01*
X195255000Y-129199496D01*
X195255000Y-129120504D01*
X195238788Y-129060000D01*
X195801761Y-129060000D01*
X195801760Y-129059999D01*
X195772336Y-128912069D01*
X195772334Y-128912063D01*
X195708259Y-128757373D01*
X195615238Y-128618156D01*
X195496843Y-128499761D01*
X195425406Y-128452029D01*
X195393940Y-128404937D01*
X195404989Y-128349388D01*
X195452081Y-128317922D01*
X195466518Y-128316500D01*
X197118482Y-128316500D01*
X197170808Y-128338174D01*
X197192482Y-128390500D01*
X197170808Y-128442826D01*
X197159594Y-128452029D01*
X197088156Y-128499761D01*
X197088155Y-128499763D01*
X196969763Y-128618155D01*
X196969761Y-128618156D01*
X196876740Y-128757373D01*
X196812665Y-128912063D01*
X196812663Y-128912069D01*
X196783239Y-129059999D01*
X196783239Y-129060000D01*
X197346212Y-129060000D01*
X197330000Y-129120504D01*
X197330000Y-129199496D01*
X197346212Y-129260000D01*
X196783239Y-129260000D01*
X196812663Y-129407930D01*
X196812665Y-129407936D01*
X196876740Y-129562626D01*
X196969761Y-129701843D01*
X197088156Y-129820238D01*
X197151718Y-129862709D01*
X197183184Y-129909802D01*
X197172135Y-129965350D01*
X197147606Y-129988324D01*
X197064528Y-130036289D01*
X196961289Y-130139528D01*
X196888288Y-130265970D01*
X196888286Y-130265975D01*
X196850500Y-130406996D01*
X196850500Y-130553003D01*
X196888286Y-130694024D01*
X196888288Y-130694029D01*
X196961289Y-130820471D01*
X197064529Y-130923711D01*
X197190971Y-130996712D01*
X197331996Y-131034499D01*
X197331997Y-131034500D01*
X197331999Y-131034500D01*
X197478003Y-131034500D01*
X197478003Y-131034499D01*
X197619029Y-130996712D01*
X197745471Y-130923711D01*
X197848711Y-130820471D01*
X197921712Y-130694029D01*
X197959499Y-130553003D01*
X197959500Y-130553003D01*
X197959500Y-130406997D01*
X197959499Y-130406996D01*
X197921713Y-130265975D01*
X197921712Y-130265971D01*
X197848711Y-130139529D01*
X197845508Y-130136326D01*
X197823834Y-130084000D01*
X197845508Y-130031674D01*
X197897834Y-130010000D01*
X198030000Y-130010000D01*
X198030000Y-129460000D01*
X198230000Y-129460000D01*
X198230000Y-130010000D01*
X198713716Y-130010000D01*
X198877930Y-129977336D01*
X198877936Y-129977334D01*
X199032626Y-129913259D01*
X199171843Y-129820238D01*
X199171845Y-129820237D01*
X199290237Y-129701845D01*
X199290238Y-129701843D01*
X199383259Y-129562626D01*
X199425768Y-129460000D01*
X203821081Y-129460000D01*
X203838647Y-129570912D01*
X203889628Y-129670967D01*
X203969033Y-129750372D01*
X204018107Y-129775376D01*
X204069087Y-129801352D01*
X204084252Y-129803753D01*
X204180000Y-129818919D01*
X204290912Y-129801352D01*
X204390967Y-129750372D01*
X204470372Y-129670967D01*
X204521352Y-129570912D01*
X204538919Y-129460000D01*
X204521352Y-129349088D01*
X204521352Y-129349087D01*
X204471353Y-129250959D01*
X204470372Y-129249033D01*
X204390967Y-129169628D01*
X204360421Y-129154064D01*
X204290912Y-129118647D01*
X204180000Y-129101081D01*
X204069087Y-129118647D01*
X203969032Y-129169628D01*
X203889628Y-129249032D01*
X203838647Y-129349087D01*
X203821081Y-129460000D01*
X199425768Y-129460000D01*
X199447334Y-129407936D01*
X199447336Y-129407930D01*
X199476760Y-129260000D01*
X198913788Y-129260000D01*
X198930000Y-129199496D01*
X198930000Y-129120504D01*
X198913788Y-129060000D01*
X199476761Y-129060000D01*
X199476760Y-129059999D01*
X199447336Y-128912069D01*
X199447334Y-128912063D01*
X199383259Y-128757373D01*
X199290238Y-128618156D01*
X199171843Y-128499761D01*
X199100406Y-128452029D01*
X199068940Y-128404937D01*
X199079989Y-128349388D01*
X199127081Y-128317922D01*
X199141518Y-128316500D01*
X207555500Y-128316500D01*
X207607826Y-128338174D01*
X207629500Y-128390500D01*
X207629500Y-129408820D01*
X207638233Y-129452722D01*
X207671496Y-129502504D01*
X207721278Y-129535767D01*
X207765180Y-129544500D01*
X207765181Y-129544500D01*
X208794819Y-129544500D01*
X208794820Y-129544500D01*
X208838722Y-129535767D01*
X208888504Y-129502504D01*
X208921767Y-129452722D01*
X208927072Y-129426048D01*
X208958537Y-129378958D01*
X209014086Y-129367908D01*
X209048721Y-129385096D01*
X209149434Y-129474320D01*
X209299954Y-129553318D01*
X209449999Y-129590300D01*
X209450000Y-129590300D01*
X209450000Y-129203669D01*
X209507213Y-129219000D01*
X209592787Y-129219000D01*
X209650000Y-129203669D01*
X209650000Y-129590300D01*
X209800045Y-129553318D01*
X209950565Y-129474320D01*
X210077806Y-129361594D01*
X210154171Y-129250959D01*
X210201733Y-129220207D01*
X210257108Y-129232094D01*
X210275973Y-129250958D01*
X210329517Y-129328530D01*
X210447760Y-129433283D01*
X210587635Y-129506696D01*
X210741015Y-129544500D01*
X210741019Y-129544500D01*
X210898981Y-129544500D01*
X210898985Y-129544500D01*
X211052365Y-129506696D01*
X211192240Y-129433283D01*
X211310483Y-129328530D01*
X211394100Y-129207389D01*
X211441661Y-129176639D01*
X211497037Y-129188526D01*
X211515899Y-129207388D01*
X211599517Y-129328530D01*
X211717760Y-129433283D01*
X211857635Y-129506696D01*
X212011015Y-129544500D01*
X212011019Y-129544500D01*
X212168981Y-129544500D01*
X212168985Y-129544500D01*
X212322365Y-129506696D01*
X212462240Y-129433283D01*
X212580483Y-129328530D01*
X212664100Y-129207389D01*
X212711661Y-129176639D01*
X212767037Y-129188526D01*
X212785899Y-129207388D01*
X212869517Y-129328530D01*
X212987760Y-129433283D01*
X213127635Y-129506696D01*
X213281015Y-129544500D01*
X213281019Y-129544500D01*
X213438981Y-129544500D01*
X213438985Y-129544500D01*
X213592365Y-129506696D01*
X213732240Y-129433283D01*
X213850483Y-129328530D01*
X213934100Y-129207389D01*
X213981661Y-129176639D01*
X214037037Y-129188526D01*
X214055899Y-129207388D01*
X214139517Y-129328530D01*
X214257760Y-129433283D01*
X214397635Y-129506696D01*
X214551015Y-129544500D01*
X214551019Y-129544500D01*
X214708981Y-129544500D01*
X214708985Y-129544500D01*
X214862365Y-129506696D01*
X215002240Y-129433283D01*
X215120483Y-129328530D01*
X215204100Y-129207389D01*
X215251661Y-129176639D01*
X215307037Y-129188526D01*
X215325899Y-129207388D01*
X215409517Y-129328530D01*
X215527760Y-129433283D01*
X215667635Y-129506696D01*
X215821015Y-129544500D01*
X215821019Y-129544500D01*
X215978981Y-129544500D01*
X215978985Y-129544500D01*
X216132365Y-129506696D01*
X216272240Y-129433283D01*
X216390483Y-129328530D01*
X216474100Y-129207389D01*
X216521661Y-129176639D01*
X216577037Y-129188526D01*
X216595899Y-129207388D01*
X216679517Y-129328530D01*
X216797760Y-129433283D01*
X216937635Y-129506696D01*
X217091015Y-129544500D01*
X217091019Y-129544500D01*
X217248981Y-129544500D01*
X217248985Y-129544500D01*
X217402365Y-129506696D01*
X217542240Y-129433283D01*
X217660483Y-129328530D01*
X217744100Y-129207389D01*
X217791661Y-129176639D01*
X217847037Y-129188526D01*
X217865899Y-129207388D01*
X217949517Y-129328530D01*
X218067760Y-129433283D01*
X218207635Y-129506696D01*
X218361015Y-129544500D01*
X218361019Y-129544500D01*
X218518981Y-129544500D01*
X218518985Y-129544500D01*
X218672365Y-129506696D01*
X218812240Y-129433283D01*
X218930483Y-129328530D01*
X219014100Y-129207389D01*
X219061661Y-129176639D01*
X219117037Y-129188526D01*
X219135899Y-129207388D01*
X219219517Y-129328530D01*
X219337760Y-129433283D01*
X219477635Y-129506696D01*
X219631015Y-129544500D01*
X219631019Y-129544500D01*
X219788981Y-129544500D01*
X219788985Y-129544500D01*
X219942365Y-129506696D01*
X220082240Y-129433283D01*
X220200483Y-129328530D01*
X220284100Y-129207389D01*
X220331661Y-129176639D01*
X220387037Y-129188526D01*
X220405899Y-129207388D01*
X220489517Y-129328530D01*
X220607760Y-129433283D01*
X220747635Y-129506696D01*
X220901015Y-129544500D01*
X220901019Y-129544500D01*
X221058981Y-129544500D01*
X221058985Y-129544500D01*
X221212365Y-129506696D01*
X221352240Y-129433283D01*
X221470483Y-129328530D01*
X221554100Y-129207389D01*
X221601661Y-129176639D01*
X221657037Y-129188526D01*
X221675899Y-129207388D01*
X221759517Y-129328530D01*
X221877760Y-129433283D01*
X222017635Y-129506696D01*
X222171015Y-129544500D01*
X222171019Y-129544500D01*
X222328981Y-129544500D01*
X222328985Y-129544500D01*
X222482365Y-129506696D01*
X222622240Y-129433283D01*
X222740483Y-129328530D01*
X222824100Y-129207389D01*
X222871661Y-129176639D01*
X222927037Y-129188526D01*
X222945899Y-129207388D01*
X223029517Y-129328530D01*
X223147760Y-129433283D01*
X223287635Y-129506696D01*
X223441015Y-129544500D01*
X223441019Y-129544500D01*
X223598981Y-129544500D01*
X223598985Y-129544500D01*
X223752365Y-129506696D01*
X223892240Y-129433283D01*
X224010483Y-129328530D01*
X224094100Y-129207389D01*
X224141661Y-129176639D01*
X224197037Y-129188526D01*
X224215899Y-129207388D01*
X224299517Y-129328530D01*
X224417760Y-129433283D01*
X224557635Y-129506696D01*
X224711015Y-129544500D01*
X224711019Y-129544500D01*
X224868981Y-129544500D01*
X224868985Y-129544500D01*
X225022365Y-129506696D01*
X225162240Y-129433283D01*
X225280483Y-129328530D01*
X225364100Y-129207389D01*
X225411661Y-129176639D01*
X225467037Y-129188526D01*
X225485899Y-129207388D01*
X225569517Y-129328530D01*
X225687760Y-129433283D01*
X225827635Y-129506696D01*
X225981015Y-129544500D01*
X225981019Y-129544500D01*
X226138981Y-129544500D01*
X226138985Y-129544500D01*
X226292365Y-129506696D01*
X226432240Y-129433283D01*
X226550483Y-129328530D01*
X226640220Y-129198523D01*
X226644012Y-129188526D01*
X226669809Y-129120504D01*
X226696237Y-129050818D01*
X226710083Y-128936787D01*
X226715278Y-128894003D01*
X226715278Y-128893996D01*
X226696238Y-128737191D01*
X226696237Y-128737182D01*
X226688213Y-128716025D01*
X226640221Y-128589478D01*
X226550483Y-128459470D01*
X226535154Y-128445890D01*
X226510360Y-128394968D01*
X226528835Y-128341429D01*
X226579757Y-128316635D01*
X226584225Y-128316500D01*
X228917405Y-128316500D01*
X228960149Y-128316500D01*
X228969808Y-128317133D01*
X229041916Y-128326626D01*
X229060574Y-128331626D01*
X229123250Y-128357587D01*
X229139974Y-128367242D01*
X229193798Y-128408542D01*
X229207456Y-128422200D01*
X229248755Y-128476023D01*
X229258412Y-128492749D01*
X229284373Y-128555425D01*
X229289373Y-128574083D01*
X229291400Y-128589477D01*
X229297253Y-128633936D01*
X229298867Y-128646190D01*
X229299500Y-128655850D01*
X229299500Y-132210849D01*
X229327924Y-132372049D01*
X229383911Y-132525869D01*
X229465750Y-132667621D01*
X229465754Y-132667627D01*
X229465756Y-132667630D01*
X229570975Y-132793025D01*
X229696370Y-132898244D01*
X229696374Y-132898246D01*
X229696378Y-132898249D01*
X229763602Y-132937060D01*
X229838131Y-132980089D01*
X229991950Y-133036075D01*
X230153154Y-133064500D01*
X230195438Y-133064500D01*
X231226069Y-133064500D01*
X231278395Y-133086174D01*
X231300069Y-133138500D01*
X231300068Y-133138802D01*
X231293730Y-134690132D01*
X231301600Y-134709185D01*
X231301600Y-135491080D01*
X231289025Y-135521436D01*
X231239196Y-147199816D01*
X231217299Y-147252049D01*
X231165197Y-147273500D01*
X226549233Y-147273500D01*
X226496907Y-147251826D01*
X226475233Y-147199500D01*
X226496907Y-147147174D01*
X226500162Y-147144110D01*
X226550483Y-147099530D01*
X226640220Y-146969523D01*
X226644012Y-146959526D01*
X226669846Y-146891405D01*
X226696237Y-146821818D01*
X226712121Y-146691000D01*
X226715278Y-146665003D01*
X226715278Y-146664996D01*
X226696238Y-146508191D01*
X226696237Y-146508182D01*
X226688213Y-146487025D01*
X226640221Y-146360478D01*
X226550483Y-146230470D01*
X226528406Y-146210912D01*
X226432240Y-146125717D01*
X226383239Y-146099999D01*
X226292366Y-146052304D01*
X226138987Y-146014500D01*
X226138985Y-146014500D01*
X225981015Y-146014500D01*
X225981012Y-146014500D01*
X225827633Y-146052304D01*
X225687761Y-146125716D01*
X225569516Y-146230470D01*
X225485901Y-146351609D01*
X225438339Y-146382360D01*
X225382963Y-146370473D01*
X225364099Y-146351609D01*
X225280483Y-146230470D01*
X225258406Y-146210912D01*
X225162240Y-146125717D01*
X225113239Y-146099999D01*
X225022366Y-146052304D01*
X224868987Y-146014500D01*
X224868985Y-146014500D01*
X224711015Y-146014500D01*
X224711012Y-146014500D01*
X224557633Y-146052304D01*
X224417761Y-146125716D01*
X224299516Y-146230470D01*
X224215901Y-146351609D01*
X224168339Y-146382360D01*
X224112963Y-146370473D01*
X224094099Y-146351609D01*
X224010483Y-146230470D01*
X223988406Y-146210912D01*
X223892240Y-146125717D01*
X223843239Y-146099999D01*
X223752366Y-146052304D01*
X223598987Y-146014500D01*
X223598985Y-146014500D01*
X223441015Y-146014500D01*
X223441012Y-146014500D01*
X223287633Y-146052304D01*
X223147761Y-146125716D01*
X223029516Y-146230470D01*
X222975973Y-146308041D01*
X222928410Y-146338792D01*
X222873035Y-146326905D01*
X222854171Y-146308041D01*
X222777804Y-146197403D01*
X222650565Y-146084679D01*
X222500049Y-146005683D01*
X222350000Y-145968698D01*
X222350000Y-146355330D01*
X222292787Y-146340000D01*
X222207213Y-146340000D01*
X222150000Y-146355330D01*
X222150000Y-145968698D01*
X221999950Y-146005683D01*
X221849434Y-146084679D01*
X221722195Y-146197403D01*
X221645828Y-146308041D01*
X221598266Y-146338792D01*
X221542890Y-146326905D01*
X221524026Y-146308041D01*
X221470483Y-146230470D01*
X221448406Y-146210912D01*
X221352240Y-146125717D01*
X221303239Y-146099999D01*
X221212366Y-146052304D01*
X221058987Y-146014500D01*
X221058985Y-146014500D01*
X220901015Y-146014500D01*
X220901012Y-146014500D01*
X220747633Y-146052304D01*
X220607761Y-146125716D01*
X220489516Y-146230470D01*
X220405901Y-146351609D01*
X220358339Y-146382360D01*
X220302963Y-146370473D01*
X220284099Y-146351609D01*
X220200483Y-146230470D01*
X220178406Y-146210912D01*
X220082240Y-146125717D01*
X220033239Y-146099999D01*
X219942366Y-146052304D01*
X219788987Y-146014500D01*
X219788985Y-146014500D01*
X219631015Y-146014500D01*
X219631012Y-146014500D01*
X219477633Y-146052304D01*
X219337761Y-146125716D01*
X219219516Y-146230470D01*
X219135901Y-146351609D01*
X219088339Y-146382360D01*
X219032963Y-146370473D01*
X219014099Y-146351609D01*
X218930483Y-146230470D01*
X218908406Y-146210912D01*
X218812240Y-146125717D01*
X218763239Y-146099999D01*
X218672366Y-146052304D01*
X218518987Y-146014500D01*
X218518985Y-146014500D01*
X218361015Y-146014500D01*
X218361012Y-146014500D01*
X218207633Y-146052304D01*
X218067761Y-146125716D01*
X217949516Y-146230470D01*
X217865901Y-146351609D01*
X217818339Y-146382360D01*
X217762963Y-146370473D01*
X217744099Y-146351609D01*
X217660483Y-146230470D01*
X217638406Y-146210912D01*
X217542240Y-146125717D01*
X217493239Y-146099999D01*
X217402366Y-146052304D01*
X217248987Y-146014500D01*
X217248985Y-146014500D01*
X217091015Y-146014500D01*
X217091012Y-146014500D01*
X216937633Y-146052304D01*
X216797761Y-146125716D01*
X216679516Y-146230470D01*
X216595901Y-146351609D01*
X216548339Y-146382360D01*
X216492963Y-146370473D01*
X216474099Y-146351609D01*
X216390483Y-146230470D01*
X216368406Y-146210912D01*
X216272240Y-146125717D01*
X216223239Y-146099999D01*
X216132366Y-146052304D01*
X215978987Y-146014500D01*
X215978985Y-146014500D01*
X215821015Y-146014500D01*
X215821012Y-146014500D01*
X215667633Y-146052304D01*
X215527761Y-146125716D01*
X215409516Y-146230470D01*
X215325901Y-146351609D01*
X215278339Y-146382360D01*
X215222963Y-146370473D01*
X215204099Y-146351609D01*
X215120483Y-146230470D01*
X215098406Y-146210912D01*
X215002240Y-146125717D01*
X214953239Y-146099999D01*
X214862366Y-146052304D01*
X214708987Y-146014500D01*
X214708985Y-146014500D01*
X214551015Y-146014500D01*
X214551012Y-146014500D01*
X214397633Y-146052304D01*
X214257761Y-146125716D01*
X214139516Y-146230470D01*
X214055901Y-146351609D01*
X214008339Y-146382360D01*
X213952963Y-146370473D01*
X213934099Y-146351609D01*
X213850483Y-146230470D01*
X213828406Y-146210912D01*
X213732240Y-146125717D01*
X213683239Y-146099999D01*
X213592366Y-146052304D01*
X213438987Y-146014500D01*
X213438985Y-146014500D01*
X213281015Y-146014500D01*
X213281012Y-146014500D01*
X213127633Y-146052304D01*
X212987761Y-146125716D01*
X212869516Y-146230470D01*
X212785901Y-146351609D01*
X212738339Y-146382360D01*
X212682963Y-146370473D01*
X212664099Y-146351609D01*
X212580483Y-146230470D01*
X212558406Y-146210912D01*
X212462240Y-146125717D01*
X212413239Y-146099999D01*
X212322366Y-146052304D01*
X212168987Y-146014500D01*
X212168985Y-146014500D01*
X212011015Y-146014500D01*
X212011012Y-146014500D01*
X211857633Y-146052304D01*
X211717761Y-146125716D01*
X211599516Y-146230470D01*
X211515901Y-146351609D01*
X211468339Y-146382360D01*
X211412963Y-146370473D01*
X211394099Y-146351609D01*
X211310483Y-146230470D01*
X211288406Y-146210912D01*
X211192240Y-146125717D01*
X211143239Y-146099999D01*
X211052366Y-146052304D01*
X210898987Y-146014500D01*
X210898985Y-146014500D01*
X210741015Y-146014500D01*
X210741012Y-146014500D01*
X210587633Y-146052304D01*
X210447761Y-146125716D01*
X210329516Y-146230470D01*
X210275973Y-146308041D01*
X210228410Y-146338792D01*
X210173035Y-146326905D01*
X210154171Y-146308041D01*
X210077804Y-146197403D01*
X209950565Y-146084679D01*
X209800049Y-146005683D01*
X209650000Y-145968698D01*
X209650000Y-146355330D01*
X209592787Y-146340000D01*
X209507213Y-146340000D01*
X209450000Y-146355330D01*
X209450000Y-145968698D01*
X209299950Y-146005683D01*
X209149434Y-146084679D01*
X209048721Y-146173903D01*
X208995182Y-146192378D01*
X208944260Y-146167584D01*
X208927072Y-146132949D01*
X208925633Y-146125716D01*
X208921767Y-146106278D01*
X208888504Y-146056496D01*
X208882230Y-146052304D01*
X208838722Y-146023233D01*
X208829266Y-146021352D01*
X208794820Y-146014500D01*
X207765180Y-146014500D01*
X207747957Y-146017926D01*
X207721277Y-146023233D01*
X207671496Y-146056495D01*
X207671495Y-146056496D01*
X207638233Y-146106277D01*
X207629500Y-146150180D01*
X207629500Y-147179819D01*
X207630543Y-147185063D01*
X207619494Y-147240612D01*
X207572402Y-147272078D01*
X207557965Y-147273500D01*
X204936491Y-147273500D01*
X204884165Y-147251826D01*
X204862491Y-147199500D01*
X204884165Y-147147174D01*
X204898745Y-147132594D01*
X204940372Y-147090967D01*
X204991352Y-146990912D01*
X205008919Y-146880000D01*
X204991352Y-146769088D01*
X204991352Y-146769087D01*
X204960118Y-146707787D01*
X204940372Y-146669033D01*
X204860967Y-146589628D01*
X204841341Y-146579628D01*
X204760912Y-146538647D01*
X204650000Y-146521081D01*
X204539087Y-146538647D01*
X204439032Y-146589628D01*
X204359628Y-146669032D01*
X204308647Y-146769087D01*
X204291081Y-146880000D01*
X204308647Y-146990912D01*
X204359628Y-147090967D01*
X204415835Y-147147174D01*
X204437509Y-147199500D01*
X204415835Y-147251826D01*
X204363509Y-147273500D01*
X201816491Y-147273500D01*
X201764165Y-147251826D01*
X201742491Y-147199500D01*
X201764165Y-147147174D01*
X201778745Y-147132594D01*
X201830372Y-147080967D01*
X201881352Y-146980912D01*
X201898919Y-146870000D01*
X201881352Y-146759088D01*
X201881352Y-146759087D01*
X201835467Y-146669033D01*
X201830372Y-146659033D01*
X201750967Y-146579628D01*
X201650912Y-146528647D01*
X201540000Y-146511081D01*
X201429087Y-146528647D01*
X201329032Y-146579628D01*
X201249628Y-146659032D01*
X201198647Y-146759087D01*
X201181081Y-146870000D01*
X201198647Y-146980912D01*
X201249628Y-147080967D01*
X201315835Y-147147174D01*
X201337509Y-147199500D01*
X201315835Y-147251826D01*
X201263509Y-147273500D01*
X192028851Y-147273500D01*
X192019192Y-147272867D01*
X192005034Y-147271003D01*
X191947083Y-147263373D01*
X191928425Y-147258373D01*
X191865749Y-147232412D01*
X191849023Y-147222755D01*
X191795200Y-147181456D01*
X191781542Y-147167798D01*
X191775844Y-147160372D01*
X191740242Y-147113974D01*
X191730587Y-147097250D01*
X191704626Y-147034574D01*
X191699626Y-147015915D01*
X191690133Y-146943808D01*
X191689500Y-146934149D01*
X191689500Y-145610000D01*
X196211018Y-145610000D01*
X196237541Y-145743345D01*
X196237543Y-145743351D01*
X196297847Y-145888938D01*
X196385398Y-146019969D01*
X196496830Y-146131401D01*
X196627861Y-146218952D01*
X196773448Y-146279256D01*
X196773455Y-146279258D01*
X196928008Y-146310000D01*
X197181800Y-146310000D01*
X197181800Y-145871433D01*
X197232430Y-145885000D01*
X197331170Y-145885000D01*
X197381800Y-145871433D01*
X197381800Y-146310000D01*
X197635592Y-146310000D01*
X197790144Y-146279258D01*
X197790151Y-146279256D01*
X197935738Y-146218952D01*
X198066769Y-146131401D01*
X198066771Y-146131400D01*
X198098171Y-146100000D01*
X203621081Y-146100000D01*
X203638647Y-146210912D01*
X203688137Y-146308041D01*
X203689628Y-146310967D01*
X203769033Y-146390372D01*
X203797617Y-146404936D01*
X203869087Y-146441352D01*
X203884252Y-146443753D01*
X203980000Y-146458919D01*
X204090912Y-146441352D01*
X204190967Y-146390372D01*
X204270372Y-146310967D01*
X204321352Y-146210912D01*
X204338919Y-146100000D01*
X205981081Y-146100000D01*
X205998647Y-146210912D01*
X206048137Y-146308041D01*
X206049628Y-146310967D01*
X206129033Y-146390372D01*
X206157617Y-146404936D01*
X206229087Y-146441352D01*
X206244252Y-146443753D01*
X206340000Y-146458919D01*
X206450912Y-146441352D01*
X206550967Y-146390372D01*
X206630372Y-146310967D01*
X206681352Y-146210912D01*
X206698919Y-146100000D01*
X206698919Y-146099999D01*
X206698919Y-146094176D01*
X206701350Y-146094176D01*
X206712548Y-146047521D01*
X206760838Y-146017926D01*
X206795289Y-146020637D01*
X206797484Y-146021350D01*
X206797488Y-146021352D01*
X206908400Y-146038919D01*
X207019312Y-146021352D01*
X207119367Y-145970372D01*
X207198772Y-145890967D01*
X207249752Y-145790912D01*
X207267319Y-145680000D01*
X207249752Y-145569088D01*
X207249752Y-145569087D01*
X207223008Y-145516600D01*
X207198772Y-145469033D01*
X207119367Y-145389628D01*
X207019312Y-145338647D01*
X206908400Y-145321081D01*
X206797487Y-145338647D01*
X206697432Y-145389628D01*
X206618028Y-145469032D01*
X206567047Y-145569087D01*
X206549481Y-145680000D01*
X206549481Y-145685824D01*
X206547053Y-145685824D01*
X206535839Y-145732493D01*
X206487542Y-145762076D01*
X206453115Y-145759364D01*
X206450910Y-145758647D01*
X206340000Y-145741081D01*
X206229087Y-145758647D01*
X206129032Y-145809628D01*
X206049628Y-145889032D01*
X205998647Y-145989087D01*
X205981081Y-146100000D01*
X204338919Y-146100000D01*
X204321352Y-145989088D01*
X204321352Y-145989087D01*
X204270371Y-145889032D01*
X204190967Y-145809628D01*
X204090912Y-145758647D01*
X203980000Y-145741081D01*
X203869087Y-145758647D01*
X203769032Y-145809628D01*
X203689628Y-145889032D01*
X203638647Y-145989087D01*
X203621081Y-146100000D01*
X198098171Y-146100000D01*
X198178200Y-146019971D01*
X198178201Y-146019969D01*
X198265752Y-145888938D01*
X198326056Y-145743351D01*
X198326058Y-145743345D01*
X198352581Y-145610000D01*
X197643234Y-145610000D01*
X197656800Y-145559370D01*
X197656800Y-145460630D01*
X197643234Y-145410000D01*
X198352582Y-145410000D01*
X198352581Y-145409999D01*
X198326058Y-145276654D01*
X198326056Y-145276648D01*
X198286253Y-145180556D01*
X203251637Y-145180556D01*
X203269203Y-145291468D01*
X203293243Y-145338648D01*
X203320184Y-145391523D01*
X203399589Y-145470928D01*
X203448663Y-145495932D01*
X203499643Y-145521908D01*
X203514808Y-145524309D01*
X203610556Y-145539475D01*
X203721468Y-145521908D01*
X203731886Y-145516600D01*
X204974681Y-145516600D01*
X204992247Y-145627512D01*
X205021959Y-145685824D01*
X205043228Y-145727567D01*
X205122633Y-145806972D01*
X205171707Y-145831976D01*
X205222687Y-145857952D01*
X205232108Y-145859444D01*
X205333600Y-145875519D01*
X205444512Y-145857952D01*
X205544567Y-145806972D01*
X205623972Y-145727567D01*
X205674952Y-145627512D01*
X205692519Y-145516600D01*
X205674952Y-145405688D01*
X205674952Y-145405687D01*
X205623971Y-145305632D01*
X205544567Y-145226228D01*
X205444512Y-145175247D01*
X205333600Y-145157681D01*
X205222687Y-145175247D01*
X205122632Y-145226228D01*
X205043228Y-145305632D01*
X204992247Y-145405687D01*
X204974681Y-145516600D01*
X203731886Y-145516600D01*
X203821523Y-145470928D01*
X203900928Y-145391523D01*
X203951908Y-145291468D01*
X203969475Y-145180556D01*
X203951908Y-145069644D01*
X203951908Y-145069643D01*
X203900927Y-144969588D01*
X203821523Y-144890184D01*
X203721468Y-144839203D01*
X203610556Y-144821637D01*
X203499643Y-144839203D01*
X203399588Y-144890184D01*
X203320184Y-144969588D01*
X203269203Y-145069643D01*
X203251637Y-145180556D01*
X198286253Y-145180556D01*
X198265752Y-145131061D01*
X198178201Y-145000030D01*
X198066769Y-144888598D01*
X197935738Y-144801047D01*
X197790151Y-144740743D01*
X197790144Y-144740741D01*
X197635592Y-144710000D01*
X197381800Y-144710000D01*
X197381800Y-145148566D01*
X197331170Y-145135000D01*
X197232430Y-145135000D01*
X197181800Y-145148566D01*
X197181800Y-144710000D01*
X196928008Y-144710000D01*
X196773455Y-144740741D01*
X196773448Y-144740743D01*
X196627861Y-144801047D01*
X196496830Y-144888598D01*
X196496829Y-144888600D01*
X196385400Y-145000029D01*
X196385398Y-145000030D01*
X196297847Y-145131061D01*
X196237543Y-145276648D01*
X196237541Y-145276654D01*
X196211018Y-145409999D01*
X196211018Y-145410000D01*
X196920366Y-145410000D01*
X196906800Y-145460630D01*
X196906800Y-145559370D01*
X196920366Y-145610000D01*
X196211018Y-145610000D01*
X191689500Y-145610000D01*
X191689500Y-143583918D01*
X196256300Y-143583918D01*
X196261488Y-143610000D01*
X196285140Y-143728907D01*
X196285143Y-143728917D01*
X196341715Y-143865494D01*
X196423848Y-143988415D01*
X196528384Y-144092951D01*
X196651305Y-144175084D01*
X196762076Y-144220967D01*
X196787887Y-144231658D01*
X196932882Y-144260500D01*
X196932884Y-144260500D01*
X197630716Y-144260500D01*
X197630718Y-144260500D01*
X197775713Y-144231658D01*
X197912295Y-144175084D01*
X198035216Y-144092951D01*
X198139751Y-143988416D01*
X198221884Y-143865495D01*
X198278458Y-143728913D01*
X198307300Y-143583918D01*
X198307300Y-143510000D01*
X199996281Y-143510000D01*
X200013847Y-143620912D01*
X200057294Y-143706180D01*
X200064828Y-143720967D01*
X200144233Y-143800372D01*
X200193307Y-143825376D01*
X200244287Y-143851352D01*
X200261854Y-143854134D01*
X200355200Y-143868919D01*
X200415316Y-143859397D01*
X200470388Y-143872618D01*
X200499981Y-143920909D01*
X200497274Y-143955342D01*
X200496448Y-143957883D01*
X200478881Y-144068800D01*
X200496447Y-144179712D01*
X200522916Y-144231659D01*
X200547428Y-144279767D01*
X200626833Y-144359172D01*
X200645963Y-144368919D01*
X200726887Y-144410152D01*
X200742052Y-144412553D01*
X200837800Y-144427719D01*
X200948712Y-144410152D01*
X201048767Y-144359172D01*
X201052806Y-144355133D01*
X202511086Y-144355133D01*
X202589651Y-144395164D01*
X202714800Y-144414985D01*
X202839945Y-144395165D01*
X202918512Y-144355133D01*
X202714800Y-144151421D01*
X202511086Y-144355133D01*
X201052806Y-144355133D01*
X201128172Y-144279767D01*
X201179152Y-144179712D01*
X201196719Y-144068800D01*
X201187406Y-144010000D01*
X202309814Y-144010000D01*
X202329635Y-144135148D01*
X202369664Y-144213711D01*
X202553486Y-144029891D01*
X202614800Y-144029891D01*
X202630024Y-144066645D01*
X202658155Y-144094776D01*
X202694909Y-144110000D01*
X202734691Y-144110000D01*
X202771445Y-144094776D01*
X202799576Y-144066645D01*
X202814800Y-144029891D01*
X202814800Y-144010000D01*
X202856221Y-144010000D01*
X203059933Y-144213712D01*
X203099965Y-144135145D01*
X203119785Y-144010000D01*
X209261081Y-144010000D01*
X209278647Y-144120912D01*
X209312060Y-144186488D01*
X209329628Y-144220967D01*
X209409033Y-144300372D01*
X209509088Y-144351352D01*
X209582610Y-144362997D01*
X209630900Y-144392588D01*
X209644122Y-144447661D01*
X209631081Y-144529999D01*
X209648647Y-144640912D01*
X209699513Y-144740741D01*
X209699628Y-144740967D01*
X209779033Y-144820372D01*
X209828107Y-144845376D01*
X209879087Y-144871352D01*
X209894252Y-144873753D01*
X209990000Y-144888919D01*
X210100912Y-144871352D01*
X210200967Y-144820372D01*
X210280372Y-144740967D01*
X210331352Y-144640912D01*
X210348919Y-144530000D01*
X210331352Y-144419088D01*
X210331352Y-144419087D01*
X210296839Y-144351352D01*
X210285960Y-144330000D01*
X215451079Y-144330000D01*
X215468645Y-144440912D01*
X215514038Y-144530000D01*
X215519626Y-144540967D01*
X215599031Y-144620372D01*
X215648105Y-144645376D01*
X215699085Y-144671352D01*
X215714250Y-144673753D01*
X215809998Y-144688919D01*
X215920910Y-144671352D01*
X216020965Y-144620372D01*
X216100370Y-144540967D01*
X216151350Y-144440912D01*
X216168917Y-144330000D01*
X216163754Y-144297400D01*
X218563681Y-144297400D01*
X218581247Y-144408312D01*
X218632228Y-144508367D01*
X218711633Y-144587772D01*
X218760707Y-144612776D01*
X218811687Y-144638752D01*
X218825325Y-144640912D01*
X218922600Y-144656319D01*
X219033512Y-144638752D01*
X219133567Y-144587772D01*
X219212972Y-144508367D01*
X219263952Y-144408312D01*
X219281519Y-144297400D01*
X219263952Y-144186488D01*
X219263952Y-144186487D01*
X219216293Y-144092951D01*
X219212972Y-144086433D01*
X219133567Y-144007028D01*
X219033512Y-143956047D01*
X218922600Y-143938481D01*
X218811687Y-143956047D01*
X218711632Y-144007028D01*
X218632228Y-144086432D01*
X218581247Y-144186487D01*
X218563681Y-144297400D01*
X216163754Y-144297400D01*
X216151350Y-144219088D01*
X216151350Y-144219087D01*
X216116872Y-144151421D01*
X216100370Y-144119033D01*
X216020965Y-144039628D01*
X215920910Y-143988647D01*
X215809998Y-143971081D01*
X215699085Y-143988647D01*
X215599030Y-144039628D01*
X215519626Y-144119032D01*
X215468645Y-144219087D01*
X215451079Y-144330000D01*
X210285960Y-144330000D01*
X210280372Y-144319033D01*
X210200967Y-144239628D01*
X210185321Y-144231656D01*
X210100912Y-144188647D01*
X210027390Y-144177003D01*
X209979099Y-144147410D01*
X209965877Y-144092339D01*
X209978919Y-144010000D01*
X209964134Y-143916654D01*
X209961352Y-143899087D01*
X209921548Y-143820967D01*
X209910372Y-143799033D01*
X209830967Y-143719628D01*
X209830523Y-143719402D01*
X209730912Y-143668647D01*
X209620000Y-143651081D01*
X209509087Y-143668647D01*
X209409032Y-143719628D01*
X209329628Y-143799032D01*
X209278647Y-143899087D01*
X209261081Y-144010000D01*
X203119785Y-144010000D01*
X203099964Y-143884851D01*
X203059933Y-143806286D01*
X202856221Y-144009999D01*
X202856221Y-144010000D01*
X202814800Y-144010000D01*
X202814800Y-143990109D01*
X202799576Y-143953355D01*
X202771445Y-143925224D01*
X202734691Y-143910000D01*
X202694909Y-143910000D01*
X202658155Y-143925224D01*
X202630024Y-143953355D01*
X202614800Y-143990109D01*
X202614800Y-144029891D01*
X202553486Y-144029891D01*
X202573378Y-144009999D01*
X202369665Y-143806286D01*
X202369664Y-143806286D01*
X202329635Y-143884851D01*
X202309814Y-144010000D01*
X201187406Y-144010000D01*
X201179152Y-143957888D01*
X201179152Y-143957887D01*
X201135705Y-143872618D01*
X201128172Y-143857833D01*
X201048767Y-143778428D01*
X200948712Y-143727447D01*
X200837800Y-143709881D01*
X200837799Y-143709881D01*
X200777682Y-143719402D01*
X200722610Y-143706180D01*
X200697293Y-143664865D01*
X202511086Y-143664865D01*
X202714799Y-143868578D01*
X202918512Y-143664865D01*
X202839948Y-143624835D01*
X202746281Y-143610000D01*
X217014281Y-143610000D01*
X217031847Y-143720912D01*
X217075348Y-143806286D01*
X217082828Y-143820967D01*
X217162233Y-143900372D01*
X217183783Y-143911352D01*
X217262287Y-143951352D01*
X217274934Y-143953355D01*
X217373200Y-143968919D01*
X217484112Y-143951352D01*
X217584167Y-143900372D01*
X217663572Y-143820967D01*
X217714552Y-143720912D01*
X217732119Y-143610000D01*
X217725784Y-143570000D01*
X222631081Y-143570000D01*
X222648647Y-143680912D01*
X222680652Y-143743724D01*
X222699628Y-143780967D01*
X222779033Y-143860372D01*
X222827076Y-143884851D01*
X222879087Y-143911352D01*
X222894252Y-143913753D01*
X222990000Y-143928919D01*
X223100912Y-143911352D01*
X223200967Y-143860372D01*
X223280372Y-143780967D01*
X223310567Y-143721705D01*
X223353633Y-143684923D01*
X223410096Y-143689366D01*
X223446879Y-143732433D01*
X223449590Y-143743724D01*
X223458648Y-143800912D01*
X223509628Y-143900967D01*
X223589033Y-143980372D01*
X223638107Y-144005376D01*
X223689087Y-144031352D01*
X223704252Y-144033753D01*
X223800000Y-144048919D01*
X223910912Y-144031352D01*
X224010967Y-143980372D01*
X224090372Y-143900967D01*
X224141352Y-143800912D01*
X224158919Y-143690000D01*
X224141352Y-143579088D01*
X224141352Y-143579087D01*
X224090371Y-143479032D01*
X224010967Y-143399628D01*
X223910912Y-143348647D01*
X223800000Y-143331081D01*
X223689087Y-143348647D01*
X223589032Y-143399628D01*
X223509627Y-143479033D01*
X223479432Y-143538294D01*
X223436365Y-143575076D01*
X223379902Y-143570632D01*
X223343120Y-143527565D01*
X223340410Y-143516280D01*
X223331352Y-143459088D01*
X223280372Y-143359033D01*
X223200967Y-143279628D01*
X223100912Y-143228647D01*
X222990000Y-143211081D01*
X222879087Y-143228647D01*
X222779032Y-143279628D01*
X222699628Y-143359032D01*
X222648647Y-143459087D01*
X222631081Y-143570000D01*
X217725784Y-143570000D01*
X217714552Y-143499088D01*
X217714552Y-143499087D01*
X217671700Y-143414985D01*
X217663572Y-143399033D01*
X217584167Y-143319628D01*
X217543745Y-143299032D01*
X217484112Y-143268647D01*
X217373200Y-143251081D01*
X217262287Y-143268647D01*
X217162232Y-143319628D01*
X217082828Y-143399032D01*
X217031847Y-143499087D01*
X217014281Y-143610000D01*
X202746281Y-143610000D01*
X202714800Y-143605014D01*
X202589651Y-143624835D01*
X202511086Y-143664864D01*
X202511086Y-143664865D01*
X200697293Y-143664865D01*
X200693018Y-143657888D01*
X200695729Y-143623446D01*
X200696551Y-143620913D01*
X200696552Y-143620912D01*
X200714119Y-143510000D01*
X200696552Y-143399088D01*
X200696552Y-143399087D01*
X200674156Y-143355133D01*
X202511086Y-143355133D01*
X202589651Y-143395164D01*
X202714800Y-143414985D01*
X202839945Y-143395165D01*
X202918512Y-143355133D01*
X202714800Y-143151421D01*
X202511086Y-143355133D01*
X200674156Y-143355133D01*
X200661901Y-143331081D01*
X200645572Y-143299033D01*
X200566167Y-143219628D01*
X200554554Y-143213711D01*
X200466112Y-143168647D01*
X200355200Y-143151081D01*
X200244287Y-143168647D01*
X200144232Y-143219628D01*
X200064828Y-143299032D01*
X200013847Y-143399087D01*
X199996281Y-143510000D01*
X198307300Y-143510000D01*
X198307300Y-143436082D01*
X198278458Y-143291087D01*
X198269163Y-143268648D01*
X198221884Y-143154505D01*
X198139751Y-143031584D01*
X198118167Y-143010000D01*
X202309814Y-143010000D01*
X202329635Y-143135148D01*
X202369664Y-143213711D01*
X202553486Y-143029891D01*
X202614800Y-143029891D01*
X202630024Y-143066645D01*
X202658155Y-143094776D01*
X202694909Y-143110000D01*
X202734691Y-143110000D01*
X202771445Y-143094776D01*
X202799576Y-143066645D01*
X202814800Y-143029891D01*
X202814800Y-143010000D01*
X202856221Y-143010000D01*
X203059933Y-143213712D01*
X203099965Y-143135145D01*
X203113006Y-143052800D01*
X216353881Y-143052800D01*
X216371447Y-143163712D01*
X216404534Y-143228648D01*
X216422428Y-143263767D01*
X216501833Y-143343172D01*
X216550907Y-143368176D01*
X216601887Y-143394152D01*
X216617052Y-143396553D01*
X216712800Y-143411719D01*
X216823712Y-143394152D01*
X216923767Y-143343172D01*
X217003172Y-143263767D01*
X217054152Y-143163712D01*
X217067411Y-143080000D01*
X224641081Y-143080000D01*
X224658647Y-143190912D01*
X224709628Y-143290967D01*
X224789033Y-143370372D01*
X224835704Y-143394152D01*
X224889087Y-143421352D01*
X224904252Y-143423753D01*
X225000000Y-143438919D01*
X225110912Y-143421352D01*
X225210967Y-143370372D01*
X225290372Y-143290967D01*
X225341352Y-143190912D01*
X225358919Y-143080000D01*
X225341352Y-142969088D01*
X225341352Y-142969087D01*
X225311245Y-142910000D01*
X225290372Y-142869033D01*
X225210967Y-142789628D01*
X225208439Y-142788340D01*
X225110912Y-142738647D01*
X225000000Y-142721081D01*
X224889087Y-142738647D01*
X224789032Y-142789628D01*
X224709628Y-142869032D01*
X224658647Y-142969087D01*
X224641081Y-143080000D01*
X217067411Y-143080000D01*
X217071719Y-143052800D01*
X217054152Y-142941888D01*
X217054152Y-142941887D01*
X217028176Y-142890907D01*
X217003172Y-142841833D01*
X216923767Y-142762428D01*
X216823712Y-142711447D01*
X216712800Y-142693881D01*
X216601887Y-142711447D01*
X216501832Y-142762428D01*
X216422428Y-142841832D01*
X216371447Y-142941887D01*
X216353881Y-143052800D01*
X203113006Y-143052800D01*
X203119785Y-143010000D01*
X203099964Y-142884851D01*
X203059933Y-142806286D01*
X202856221Y-143009999D01*
X202856221Y-143010000D01*
X202814800Y-143010000D01*
X202814800Y-142990109D01*
X202799576Y-142953355D01*
X202771445Y-142925224D01*
X202734691Y-142910000D01*
X202694909Y-142910000D01*
X202658155Y-142925224D01*
X202630024Y-142953355D01*
X202614800Y-142990109D01*
X202614800Y-143029891D01*
X202553486Y-143029891D01*
X202573378Y-143009999D01*
X202369665Y-142806286D01*
X202369664Y-142806286D01*
X202329635Y-142884851D01*
X202309814Y-143010000D01*
X198118167Y-143010000D01*
X198035215Y-142927048D01*
X197912294Y-142844915D01*
X197775717Y-142788343D01*
X197775707Y-142788340D01*
X197678611Y-142769026D01*
X197630718Y-142759500D01*
X196932882Y-142759500D01*
X196891777Y-142767676D01*
X196787892Y-142788340D01*
X196787882Y-142788343D01*
X196651305Y-142844915D01*
X196528384Y-142927048D01*
X196528383Y-142927050D01*
X196423850Y-143031583D01*
X196423848Y-143031584D01*
X196341715Y-143154505D01*
X196285143Y-143291082D01*
X196285140Y-143291092D01*
X196264439Y-143395164D01*
X196256300Y-143436082D01*
X196256300Y-143583918D01*
X191689500Y-143583918D01*
X191689500Y-142664865D01*
X202511086Y-142664865D01*
X202714799Y-142868578D01*
X202918512Y-142664865D01*
X202839948Y-142624835D01*
X202714800Y-142605014D01*
X202589651Y-142624835D01*
X202511086Y-142664864D01*
X202511086Y-142664865D01*
X191689500Y-142664865D01*
X191689500Y-141891519D01*
X196256300Y-141891519D01*
X196271153Y-141985304D01*
X196271154Y-141985306D01*
X196306291Y-142054264D01*
X196328750Y-142098342D01*
X196418458Y-142188050D01*
X196531496Y-142245646D01*
X196625281Y-142260500D01*
X197938318Y-142260499D01*
X197938319Y-142260499D01*
X198032104Y-142245646D01*
X198032106Y-142245645D01*
X198078111Y-142222204D01*
X198145142Y-142188050D01*
X198234850Y-142098342D01*
X198292446Y-141985304D01*
X198307300Y-141891519D01*
X198307299Y-141128482D01*
X198304528Y-141110987D01*
X198292446Y-141034695D01*
X198292445Y-141034693D01*
X198234849Y-140921657D01*
X198145143Y-140831951D01*
X198145142Y-140831950D01*
X198032104Y-140774354D01*
X198032102Y-140774353D01*
X198032101Y-140774353D01*
X197938319Y-140759500D01*
X196625280Y-140759500D01*
X196531495Y-140774353D01*
X196531493Y-140774354D01*
X196418457Y-140831950D01*
X196328751Y-140921656D01*
X196271153Y-141034698D01*
X196256300Y-141128480D01*
X196256300Y-141891519D01*
X191689500Y-141891519D01*
X191689500Y-140131800D01*
X201627267Y-140131800D01*
X201645702Y-140260023D01*
X201645702Y-140260024D01*
X201645703Y-140260026D01*
X201699518Y-140377863D01*
X201784351Y-140475767D01*
X201893331Y-140545804D01*
X202017628Y-140582300D01*
X202147172Y-140582300D01*
X202271469Y-140545804D01*
X202380449Y-140475767D01*
X202465282Y-140377863D01*
X202519097Y-140260026D01*
X202537533Y-140131800D01*
X202534399Y-140110000D01*
X204404867Y-140110000D01*
X204423302Y-140238223D01*
X204423302Y-140238224D01*
X204423303Y-140238226D01*
X204477118Y-140356063D01*
X204561951Y-140453967D01*
X204670931Y-140524004D01*
X204670933Y-140524005D01*
X204673967Y-140525391D01*
X204675273Y-140526794D01*
X204675383Y-140526865D01*
X204675365Y-140526892D01*
X204712558Y-140566845D01*
X204710534Y-140623446D01*
X204683232Y-140654953D01*
X204676885Y-140659033D01*
X204603751Y-140706033D01*
X204603750Y-140706034D01*
X204518919Y-140803935D01*
X204465102Y-140921776D01*
X204446667Y-141050000D01*
X204465102Y-141178223D01*
X204465102Y-141178224D01*
X204465103Y-141178226D01*
X204518918Y-141296063D01*
X204592204Y-141380641D01*
X204610089Y-141434379D01*
X204592204Y-141477558D01*
X204556220Y-141519087D01*
X204518919Y-141562135D01*
X204465102Y-141679976D01*
X204446667Y-141808200D01*
X204465102Y-141936423D01*
X204465102Y-141936424D01*
X204465103Y-141936426D01*
X204518918Y-142054263D01*
X204603751Y-142152167D01*
X204665059Y-142191567D01*
X204712731Y-142222204D01*
X204824361Y-142254981D01*
X204868461Y-142290519D01*
X204874516Y-142346832D01*
X204855839Y-142378310D01*
X204790438Y-142443711D01*
X204739457Y-142543766D01*
X204721891Y-142654679D01*
X204739457Y-142765591D01*
X204790438Y-142865646D01*
X204869843Y-142945051D01*
X204886141Y-142953355D01*
X204969897Y-142996031D01*
X204985062Y-142998432D01*
X205080810Y-143013598D01*
X205191722Y-142996031D01*
X205291777Y-142945051D01*
X205371182Y-142865646D01*
X205422162Y-142765591D01*
X205439729Y-142654679D01*
X205422162Y-142543767D01*
X205422162Y-142543766D01*
X205384025Y-142468918D01*
X205371182Y-142443712D01*
X205291777Y-142364307D01*
X205257480Y-142346832D01*
X205191721Y-142313326D01*
X205191718Y-142313325D01*
X205188817Y-142312866D01*
X205187140Y-142311838D01*
X205186185Y-142311528D01*
X205186259Y-142311298D01*
X205140527Y-142283271D01*
X205127309Y-142228198D01*
X205156904Y-142179908D01*
X205160373Y-142177536D01*
X205199849Y-142152167D01*
X205236386Y-142110000D01*
X208651081Y-142110000D01*
X208668647Y-142220912D01*
X208709134Y-142300371D01*
X208719628Y-142320967D01*
X208799033Y-142400372D01*
X208848107Y-142425376D01*
X208899087Y-142451352D01*
X208914252Y-142453753D01*
X209010000Y-142468919D01*
X209120912Y-142451352D01*
X209220967Y-142400372D01*
X209300372Y-142320967D01*
X209351352Y-142220912D01*
X209357832Y-142180000D01*
X210231081Y-142180000D01*
X210248647Y-142290912D01*
X210288394Y-142368919D01*
X210299628Y-142390967D01*
X210379033Y-142470372D01*
X210428107Y-142495376D01*
X210479087Y-142521352D01*
X210494252Y-142523753D01*
X210590000Y-142538919D01*
X210700912Y-142521352D01*
X210800967Y-142470372D01*
X210880372Y-142390967D01*
X210931352Y-142290912D01*
X210948919Y-142180000D01*
X210931352Y-142069088D01*
X210931352Y-142069087D01*
X210901245Y-142010000D01*
X210880372Y-141969033D01*
X210800967Y-141889628D01*
X210700912Y-141838647D01*
X210590000Y-141821081D01*
X210479087Y-141838647D01*
X210379032Y-141889628D01*
X210299628Y-141969032D01*
X210248647Y-142069087D01*
X210231081Y-142180000D01*
X209357832Y-142180000D01*
X209368919Y-142110000D01*
X209351352Y-141999088D01*
X209351352Y-141999087D01*
X209311540Y-141920952D01*
X209300372Y-141899033D01*
X209220967Y-141819628D01*
X209180545Y-141799032D01*
X209120912Y-141768647D01*
X209010000Y-141751081D01*
X208899087Y-141768647D01*
X208799032Y-141819628D01*
X208719628Y-141899032D01*
X208668647Y-141999087D01*
X208651081Y-142110000D01*
X205236386Y-142110000D01*
X205284682Y-142054263D01*
X205338497Y-141936426D01*
X205356933Y-141808200D01*
X205338497Y-141679974D01*
X205292657Y-141579600D01*
X213813881Y-141579600D01*
X213831447Y-141690512D01*
X213862309Y-141751081D01*
X213882428Y-141790567D01*
X213961833Y-141869972D01*
X213999017Y-141888918D01*
X214061887Y-141920952D01*
X214077052Y-141923353D01*
X214172800Y-141938519D01*
X214283712Y-141920952D01*
X214383767Y-141869972D01*
X214463172Y-141790567D01*
X214514152Y-141690512D01*
X214523736Y-141630000D01*
X216301081Y-141630000D01*
X216318647Y-141740912D01*
X216368446Y-141838647D01*
X216369628Y-141840967D01*
X216449033Y-141920372D01*
X216480541Y-141936426D01*
X216549087Y-141971352D01*
X216564252Y-141973753D01*
X216660000Y-141988919D01*
X216712523Y-141980600D01*
X217781681Y-141980600D01*
X217799247Y-142091512D01*
X217848436Y-142188050D01*
X217850228Y-142191567D01*
X217929633Y-142270972D01*
X217967997Y-142290519D01*
X218029687Y-142321952D01*
X218044852Y-142324353D01*
X218140600Y-142339519D01*
X218251512Y-142321952D01*
X218351567Y-142270972D01*
X218430972Y-142191567D01*
X218481952Y-142091512D01*
X218494862Y-142010000D01*
X221241081Y-142010000D01*
X221258647Y-142120912D01*
X221292856Y-142188050D01*
X221309628Y-142220967D01*
X221389033Y-142300372D01*
X221431387Y-142321952D01*
X221489087Y-142351352D01*
X221504252Y-142353753D01*
X221600000Y-142368919D01*
X221710912Y-142351352D01*
X221810967Y-142300372D01*
X221890372Y-142220967D01*
X221941352Y-142120912D01*
X221958919Y-142010000D01*
X221941352Y-141899088D01*
X221941352Y-141899087D01*
X221901606Y-141821081D01*
X221890372Y-141799033D01*
X221810967Y-141719628D01*
X221710912Y-141668647D01*
X221600000Y-141651081D01*
X221489087Y-141668647D01*
X221389032Y-141719628D01*
X221309628Y-141799032D01*
X221258647Y-141899087D01*
X221241081Y-142010000D01*
X218494862Y-142010000D01*
X218499519Y-141980600D01*
X218481952Y-141869688D01*
X218481952Y-141869687D01*
X218430971Y-141769632D01*
X218351567Y-141690228D01*
X218251512Y-141639247D01*
X218140600Y-141621681D01*
X218029687Y-141639247D01*
X217929632Y-141690228D01*
X217850228Y-141769632D01*
X217799247Y-141869687D01*
X217781681Y-141980600D01*
X216712523Y-141980600D01*
X216770912Y-141971352D01*
X216870967Y-141920372D01*
X216950372Y-141840967D01*
X217001352Y-141740912D01*
X217018919Y-141630000D01*
X217003080Y-141530000D01*
X219451081Y-141530000D01*
X219468647Y-141640912D01*
X219493775Y-141690228D01*
X219519628Y-141740967D01*
X219599033Y-141820372D01*
X219648107Y-141845376D01*
X219699087Y-141871352D01*
X219714252Y-141873753D01*
X219810000Y-141888919D01*
X219920912Y-141871352D01*
X220020967Y-141820372D01*
X220100372Y-141740967D01*
X220151352Y-141640912D01*
X220168919Y-141530000D01*
X220154664Y-141440000D01*
X223521081Y-141440000D01*
X223538647Y-141550912D01*
X223574706Y-141621681D01*
X223589628Y-141650967D01*
X223669033Y-141730372D01*
X223709677Y-141751081D01*
X223769087Y-141781352D01*
X223784252Y-141783753D01*
X223880000Y-141798919D01*
X223990912Y-141781352D01*
X224090967Y-141730372D01*
X224170372Y-141650967D01*
X224221352Y-141550912D01*
X224238919Y-141440000D01*
X224221352Y-141329088D01*
X224221352Y-141329087D01*
X224175067Y-141238248D01*
X224170372Y-141229033D01*
X224090967Y-141149628D01*
X223990912Y-141098647D01*
X223880000Y-141081081D01*
X223769087Y-141098647D01*
X223669032Y-141149628D01*
X223589628Y-141229032D01*
X223538647Y-141329087D01*
X223521081Y-141440000D01*
X220154664Y-141440000D01*
X220151352Y-141419088D01*
X220151352Y-141419087D01*
X220125376Y-141368107D01*
X220100372Y-141319033D01*
X220020967Y-141239628D01*
X220000171Y-141229032D01*
X219920912Y-141188647D01*
X219810000Y-141171081D01*
X219699087Y-141188647D01*
X219599032Y-141239628D01*
X219519628Y-141319032D01*
X219468647Y-141419087D01*
X219451081Y-141530000D01*
X217003080Y-141530000D01*
X217001352Y-141519088D01*
X217001352Y-141519087D01*
X216955501Y-141429100D01*
X216950372Y-141419033D01*
X216870967Y-141339628D01*
X216830545Y-141319032D01*
X216770912Y-141288647D01*
X216660000Y-141271081D01*
X216549087Y-141288647D01*
X216449032Y-141339628D01*
X216369628Y-141419032D01*
X216318647Y-141519087D01*
X216301081Y-141630000D01*
X214523736Y-141630000D01*
X214531719Y-141579600D01*
X214514152Y-141468688D01*
X214514152Y-141468687D01*
X214476080Y-141393967D01*
X214463172Y-141368633D01*
X214383767Y-141289228D01*
X214382627Y-141288647D01*
X214283712Y-141238247D01*
X214172800Y-141220681D01*
X214061887Y-141238247D01*
X213961832Y-141289228D01*
X213882428Y-141368632D01*
X213831447Y-141468687D01*
X213813881Y-141579600D01*
X205292657Y-141579600D01*
X205284682Y-141562137D01*
X205284680Y-141562135D01*
X205284680Y-141562134D01*
X205284678Y-141562132D01*
X205261842Y-141535777D01*
X205211395Y-141477558D01*
X205193510Y-141423821D01*
X205211395Y-141380641D01*
X205284682Y-141296063D01*
X205338497Y-141178226D01*
X205356933Y-141050000D01*
X205338497Y-140921774D01*
X205284682Y-140803937D01*
X205199849Y-140706033D01*
X205090869Y-140635996D01*
X205090866Y-140635994D01*
X205087829Y-140634607D01*
X205086521Y-140633201D01*
X205086417Y-140633135D01*
X205086434Y-140633108D01*
X205049239Y-140593150D01*
X205051266Y-140536550D01*
X205078565Y-140505047D01*
X205142673Y-140463848D01*
X207755200Y-140463848D01*
X207784012Y-140608702D01*
X207784014Y-140608709D01*
X207824327Y-140706034D01*
X207840536Y-140745164D01*
X207922592Y-140867970D01*
X208027030Y-140972408D01*
X208149836Y-141054464D01*
X208286291Y-141110986D01*
X208431151Y-141139800D01*
X208431152Y-141139800D01*
X208578848Y-141139800D01*
X208578849Y-141139800D01*
X208723709Y-141110986D01*
X208860164Y-141054464D01*
X208982970Y-140972408D01*
X209085378Y-140870000D01*
X218741081Y-140870000D01*
X218758647Y-140980912D01*
X218809628Y-141080967D01*
X218889033Y-141160372D01*
X218910051Y-141171081D01*
X218989087Y-141211352D01*
X219004252Y-141213753D01*
X219100000Y-141228919D01*
X219210912Y-141211352D01*
X219310967Y-141160372D01*
X219390372Y-141080967D01*
X219441352Y-140980912D01*
X219458919Y-140870000D01*
X219443753Y-140774252D01*
X219441352Y-140759087D01*
X219390371Y-140659032D01*
X219310967Y-140579628D01*
X219210912Y-140528647D01*
X219100000Y-140511081D01*
X218989087Y-140528647D01*
X218889032Y-140579628D01*
X218809628Y-140659032D01*
X218758647Y-140759087D01*
X218741081Y-140870000D01*
X209085378Y-140870000D01*
X209087408Y-140867970D01*
X209169464Y-140745164D01*
X209225986Y-140608709D01*
X209254800Y-140463849D01*
X209254800Y-140316151D01*
X209225986Y-140171291D01*
X209169464Y-140034836D01*
X209159551Y-140020000D01*
X212651081Y-140020000D01*
X212668647Y-140130912D01*
X212719628Y-140230967D01*
X212799033Y-140310372D01*
X212848107Y-140335376D01*
X212899087Y-140361352D01*
X212914252Y-140363753D01*
X213010000Y-140378919D01*
X213120912Y-140361352D01*
X213220967Y-140310372D01*
X213261339Y-140270000D01*
X222191081Y-140270000D01*
X222208647Y-140380912D01*
X222250906Y-140463849D01*
X222259628Y-140480967D01*
X222339033Y-140560372D01*
X222382070Y-140582300D01*
X222439087Y-140611352D01*
X222454252Y-140613753D01*
X222550000Y-140628919D01*
X222660912Y-140611352D01*
X222760967Y-140560372D01*
X222840372Y-140480967D01*
X222891352Y-140380912D01*
X222908919Y-140270000D01*
X222891352Y-140159088D01*
X222891352Y-140159087D01*
X222840371Y-140059032D01*
X222760967Y-139979628D01*
X222660912Y-139928647D01*
X222550000Y-139911081D01*
X222439087Y-139928647D01*
X222339032Y-139979628D01*
X222259628Y-140059032D01*
X222208647Y-140159087D01*
X222191081Y-140270000D01*
X213261339Y-140270000D01*
X213300372Y-140230967D01*
X213351352Y-140130912D01*
X213368919Y-140020000D01*
X213351352Y-139909088D01*
X213351352Y-139909087D01*
X213300371Y-139809032D01*
X213220967Y-139729628D01*
X213120912Y-139678647D01*
X213010000Y-139661081D01*
X212899087Y-139678647D01*
X212799032Y-139729628D01*
X212719628Y-139809032D01*
X212668647Y-139909087D01*
X212651081Y-140020000D01*
X209159551Y-140020000D01*
X209087408Y-139912030D01*
X208982970Y-139807592D01*
X208953398Y-139787833D01*
X208920769Y-139766031D01*
X208860164Y-139725536D01*
X208860161Y-139725534D01*
X208860160Y-139725534D01*
X208723709Y-139669014D01*
X208723702Y-139669012D01*
X208614571Y-139647305D01*
X208578849Y-139640200D01*
X208431151Y-139640200D01*
X208402495Y-139645899D01*
X208286297Y-139669012D01*
X208286290Y-139669014D01*
X208149839Y-139725534D01*
X208027030Y-139807591D01*
X208027029Y-139807593D01*
X207922593Y-139912029D01*
X207922591Y-139912030D01*
X207840534Y-140034839D01*
X207784014Y-140171290D01*
X207784012Y-140171297D01*
X207755200Y-140316151D01*
X207755200Y-140463848D01*
X205142673Y-140463848D01*
X205158049Y-140453967D01*
X205242882Y-140356063D01*
X205296697Y-140238226D01*
X205315133Y-140110000D01*
X205296697Y-139981774D01*
X205242882Y-139863937D01*
X205158049Y-139766033D01*
X205082989Y-139717795D01*
X205049068Y-139695995D01*
X204924772Y-139659500D01*
X204795228Y-139659500D01*
X204670931Y-139695995D01*
X204561954Y-139766031D01*
X204561950Y-139766034D01*
X204477119Y-139863935D01*
X204423302Y-139981776D01*
X204404867Y-140110000D01*
X202534399Y-140110000D01*
X202519097Y-140003574D01*
X202465282Y-139885737D01*
X202380449Y-139787833D01*
X202288777Y-139728919D01*
X202271468Y-139717795D01*
X202147172Y-139681300D01*
X202017628Y-139681300D01*
X201893331Y-139717795D01*
X201784354Y-139787831D01*
X201784350Y-139787834D01*
X201699519Y-139885735D01*
X201699518Y-139885736D01*
X201699518Y-139885737D01*
X201679921Y-139928647D01*
X201645702Y-140003576D01*
X201627267Y-140131800D01*
X191689500Y-140131800D01*
X191689500Y-139370000D01*
X206171081Y-139370000D01*
X206188647Y-139480912D01*
X206227561Y-139557284D01*
X206239628Y-139580967D01*
X206319033Y-139660372D01*
X206354900Y-139678647D01*
X206419087Y-139711352D01*
X206434252Y-139713753D01*
X206530000Y-139728919D01*
X206640912Y-139711352D01*
X206740967Y-139660372D01*
X206820372Y-139580967D01*
X206871352Y-139480912D01*
X206888919Y-139370000D01*
X206871352Y-139259088D01*
X206871352Y-139259087D01*
X206820371Y-139159032D01*
X206811339Y-139150000D01*
X210161081Y-139150000D01*
X210178647Y-139260912D01*
X210229628Y-139360967D01*
X210309033Y-139440372D01*
X210325806Y-139448918D01*
X210409087Y-139491352D01*
X210424252Y-139493753D01*
X210520000Y-139508919D01*
X210630912Y-139491352D01*
X210730967Y-139440372D01*
X210810372Y-139360967D01*
X210836341Y-139310000D01*
X211961081Y-139310000D01*
X211978647Y-139420912D01*
X212023489Y-139508918D01*
X212029628Y-139520967D01*
X212109033Y-139600372D01*
X212158107Y-139625376D01*
X212209087Y-139651352D01*
X212224252Y-139653753D01*
X212320000Y-139668919D01*
X212430912Y-139651352D01*
X212530967Y-139600372D01*
X212610372Y-139520967D01*
X212661352Y-139420912D01*
X212678919Y-139310000D01*
X212661352Y-139199088D01*
X212661352Y-139199087D01*
X212610371Y-139099032D01*
X212601339Y-139090000D01*
X221741081Y-139090000D01*
X221758647Y-139200912D01*
X221789219Y-139260912D01*
X221809628Y-139300967D01*
X221889033Y-139380372D01*
X221938107Y-139405376D01*
X221989087Y-139431352D01*
X222004252Y-139433753D01*
X222100000Y-139448919D01*
X222210912Y-139431352D01*
X222310967Y-139380372D01*
X222390372Y-139300967D01*
X222441352Y-139200912D01*
X222458919Y-139090000D01*
X222441352Y-138979088D01*
X222441352Y-138979087D01*
X222390371Y-138879032D01*
X222310967Y-138799628D01*
X222210912Y-138748647D01*
X222100000Y-138731081D01*
X221989087Y-138748647D01*
X221889032Y-138799628D01*
X221809628Y-138879032D01*
X221758647Y-138979087D01*
X221741081Y-139090000D01*
X212601339Y-139090000D01*
X212530967Y-139019628D01*
X212430912Y-138968647D01*
X212320000Y-138951081D01*
X212209087Y-138968647D01*
X212109032Y-139019628D01*
X212029628Y-139099032D01*
X211978647Y-139199087D01*
X211961081Y-139310000D01*
X210836341Y-139310000D01*
X210861352Y-139260912D01*
X210878919Y-139150000D01*
X210861352Y-139039088D01*
X210861352Y-139039087D01*
X210825461Y-138968647D01*
X210810372Y-138939033D01*
X210730967Y-138859628D01*
X210630912Y-138808647D01*
X210520000Y-138791081D01*
X210409087Y-138808647D01*
X210309032Y-138859628D01*
X210229628Y-138939032D01*
X210178647Y-139039087D01*
X210161081Y-139150000D01*
X206811339Y-139150000D01*
X206740967Y-139079628D01*
X206640912Y-139028647D01*
X206530000Y-139011081D01*
X206419087Y-139028647D01*
X206319032Y-139079628D01*
X206239628Y-139159032D01*
X206188647Y-139259087D01*
X206171081Y-139370000D01*
X191689500Y-139370000D01*
X191689500Y-138720000D01*
X223181081Y-138720000D01*
X223198647Y-138830912D01*
X223249628Y-138930967D01*
X223329033Y-139010372D01*
X223429088Y-139061352D01*
X223466497Y-139067277D01*
X223514788Y-139096870D01*
X223528010Y-139151942D01*
X223498417Y-139200233D01*
X223466498Y-139213455D01*
X223450859Y-139215932D01*
X223350804Y-139266912D01*
X223271400Y-139346316D01*
X223220419Y-139446371D01*
X223202853Y-139557284D01*
X223220419Y-139668196D01*
X223270269Y-139766031D01*
X223271400Y-139768251D01*
X223350805Y-139847656D01*
X223382755Y-139863935D01*
X223450859Y-139898636D01*
X223466024Y-139901037D01*
X223561772Y-139916203D01*
X223672684Y-139898636D01*
X223772739Y-139847656D01*
X223852144Y-139768251D01*
X223903124Y-139668196D01*
X223920691Y-139557284D01*
X223905525Y-139461536D01*
X223903124Y-139446371D01*
X223852143Y-139346316D01*
X223772739Y-139266912D01*
X223672684Y-139215932D01*
X223635273Y-139210006D01*
X223586982Y-139180412D01*
X223573761Y-139125340D01*
X223603355Y-139077049D01*
X223635275Y-139063828D01*
X223650912Y-139061352D01*
X223750967Y-139010372D01*
X223830372Y-138930967D01*
X223881352Y-138830912D01*
X223898919Y-138720000D01*
X223881352Y-138609088D01*
X223881352Y-138609087D01*
X223830371Y-138509032D01*
X223750967Y-138429628D01*
X223650912Y-138378647D01*
X223540000Y-138361081D01*
X223429087Y-138378647D01*
X223329032Y-138429628D01*
X223249628Y-138509032D01*
X223198647Y-138609087D01*
X223181081Y-138720000D01*
X191689500Y-138720000D01*
X191689500Y-137900000D01*
X192808239Y-137900000D01*
X192837663Y-138047930D01*
X192837665Y-138047936D01*
X192901740Y-138202626D01*
X192994761Y-138341843D01*
X193113156Y-138460238D01*
X193252373Y-138553259D01*
X193407063Y-138617334D01*
X193407069Y-138617336D01*
X193571284Y-138650000D01*
X194205000Y-138650000D01*
X194205000Y-138100000D01*
X194405000Y-138100000D01*
X194405000Y-138650000D01*
X195038716Y-138650000D01*
X195202930Y-138617336D01*
X195202936Y-138617334D01*
X195357626Y-138553259D01*
X195496843Y-138460238D01*
X195496845Y-138460237D01*
X195615237Y-138341845D01*
X195615238Y-138341843D01*
X195708259Y-138202626D01*
X195772334Y-138047936D01*
X195772336Y-138047930D01*
X195801760Y-137900000D01*
X196783239Y-137900000D01*
X196812663Y-138047930D01*
X196812665Y-138047936D01*
X196876740Y-138202626D01*
X196969761Y-138341843D01*
X197088156Y-138460238D01*
X197227373Y-138553259D01*
X197382063Y-138617334D01*
X197382069Y-138617336D01*
X197546284Y-138650000D01*
X198030000Y-138650000D01*
X198030000Y-138100000D01*
X198230000Y-138100000D01*
X198230000Y-138650000D01*
X198713716Y-138650000D01*
X198877930Y-138617336D01*
X198877936Y-138617334D01*
X199032626Y-138553259D01*
X199171843Y-138460238D01*
X199171845Y-138460237D01*
X199290237Y-138341845D01*
X199290238Y-138341843D01*
X199351605Y-138250000D01*
X199834867Y-138250000D01*
X199853302Y-138378223D01*
X199853302Y-138378224D01*
X199853303Y-138378226D01*
X199907118Y-138496063D01*
X199991951Y-138593967D01*
X200100931Y-138664004D01*
X200225228Y-138700500D01*
X200354772Y-138700500D01*
X200479069Y-138664004D01*
X200588049Y-138593967D01*
X200672882Y-138496063D01*
X200726697Y-138378226D01*
X200745133Y-138250000D01*
X200733696Y-138170455D01*
X200747703Y-138115579D01*
X200796412Y-138086678D01*
X200846947Y-138097671D01*
X200904737Y-138134810D01*
X201029034Y-138171306D01*
X201158578Y-138171306D01*
X201282875Y-138134810D01*
X201391855Y-138064773D01*
X201391855Y-138064772D01*
X201396308Y-138061911D01*
X201397928Y-138064432D01*
X201442437Y-138049610D01*
X201493088Y-138074952D01*
X201503104Y-138089824D01*
X201538028Y-138158367D01*
X201617433Y-138237772D01*
X201662848Y-138260912D01*
X201717487Y-138288752D01*
X201732652Y-138291153D01*
X201828400Y-138306319D01*
X201939312Y-138288752D01*
X202039367Y-138237772D01*
X202118772Y-138158367D01*
X202123035Y-138150000D01*
X203021081Y-138150000D01*
X203038647Y-138260912D01*
X203079884Y-138341843D01*
X203089628Y-138360967D01*
X203169033Y-138440372D01*
X203208021Y-138460237D01*
X203269087Y-138491352D01*
X203284252Y-138493753D01*
X203380000Y-138508919D01*
X203490912Y-138491352D01*
X203590967Y-138440372D01*
X203670372Y-138360967D01*
X203721352Y-138260912D01*
X203738919Y-138150000D01*
X203722753Y-138047936D01*
X203721352Y-138039087D01*
X203684555Y-137966869D01*
X203670372Y-137939033D01*
X203590967Y-137859628D01*
X203490912Y-137808647D01*
X203380000Y-137791081D01*
X203269087Y-137808647D01*
X203169032Y-137859628D01*
X203089628Y-137939032D01*
X203038647Y-138039087D01*
X203021081Y-138150000D01*
X202123035Y-138150000D01*
X202169752Y-138058312D01*
X202187319Y-137947400D01*
X202171739Y-137849032D01*
X202169752Y-137836487D01*
X202141435Y-137780912D01*
X202118772Y-137736433D01*
X202052339Y-137670000D01*
X211731081Y-137670000D01*
X211748647Y-137780912D01*
X211783356Y-137849032D01*
X211799628Y-137880967D01*
X211879033Y-137960372D01*
X211899680Y-137970892D01*
X211979087Y-138011352D01*
X211994252Y-138013753D01*
X212090000Y-138028919D01*
X212200912Y-138011352D01*
X212300967Y-137960372D01*
X212380372Y-137880967D01*
X212431352Y-137780912D01*
X212448919Y-137670000D01*
X212431352Y-137559088D01*
X212431352Y-137559087D01*
X212401245Y-137500000D01*
X212380372Y-137459033D01*
X212300967Y-137379628D01*
X212295489Y-137376837D01*
X212200912Y-137328647D01*
X212090000Y-137311081D01*
X211979087Y-137328647D01*
X211879032Y-137379628D01*
X211799628Y-137459032D01*
X211748647Y-137559087D01*
X211731081Y-137670000D01*
X202052339Y-137670000D01*
X202039367Y-137657028D01*
X201939312Y-137606047D01*
X201828400Y-137588481D01*
X201717487Y-137606048D01*
X201637197Y-137646957D01*
X201580734Y-137651400D01*
X201537667Y-137614617D01*
X201532268Y-137597582D01*
X201531996Y-137597662D01*
X201530505Y-137592586D01*
X201530503Y-137592582D01*
X201530503Y-137592580D01*
X201476688Y-137474743D01*
X201391855Y-137376839D01*
X201316867Y-137328647D01*
X201282874Y-137306801D01*
X201158578Y-137270306D01*
X201029034Y-137270306D01*
X200904737Y-137306801D01*
X200795760Y-137376837D01*
X200795756Y-137376840D01*
X200710925Y-137474741D01*
X200657108Y-137592582D01*
X200638673Y-137720806D01*
X200650109Y-137800349D01*
X200636102Y-137855227D01*
X200587393Y-137884127D01*
X200536855Y-137873133D01*
X200479068Y-137835995D01*
X200354772Y-137799500D01*
X200225228Y-137799500D01*
X200100931Y-137835995D01*
X199991954Y-137906031D01*
X199991950Y-137906034D01*
X199907119Y-138003935D01*
X199853302Y-138121776D01*
X199834867Y-138250000D01*
X199351605Y-138250000D01*
X199383259Y-138202626D01*
X199447334Y-138047936D01*
X199447336Y-138047930D01*
X199476760Y-137900000D01*
X198913788Y-137900000D01*
X198930000Y-137839496D01*
X198930000Y-137760504D01*
X198913788Y-137700000D01*
X199476761Y-137700000D01*
X199476760Y-137699999D01*
X199447336Y-137552069D01*
X199447334Y-137552063D01*
X199383259Y-137397373D01*
X199290238Y-137258156D01*
X199171843Y-137139761D01*
X199032626Y-137046740D01*
X198877936Y-136982665D01*
X198877930Y-136982663D01*
X198713716Y-136950000D01*
X198230000Y-136950000D01*
X198230000Y-137500000D01*
X198030000Y-137500000D01*
X198030000Y-136950000D01*
X197974267Y-136950000D01*
X197921941Y-136928326D01*
X197900267Y-136876000D01*
X197910179Y-136839003D01*
X197921712Y-136819029D01*
X197959499Y-136678003D01*
X197959500Y-136678003D01*
X197959500Y-136630000D01*
X200811081Y-136630000D01*
X200828647Y-136740912D01*
X200874229Y-136830371D01*
X200879628Y-136840967D01*
X200959033Y-136920372D01*
X200974644Y-136928326D01*
X201059087Y-136971352D01*
X201074252Y-136973753D01*
X201170000Y-136988919D01*
X201280912Y-136971352D01*
X201380967Y-136920372D01*
X201401339Y-136900000D01*
X201761081Y-136900000D01*
X201778647Y-137010912D01*
X201822091Y-137096175D01*
X201829628Y-137110967D01*
X201909033Y-137190372D01*
X201925806Y-137198918D01*
X202009087Y-137241352D01*
X202024252Y-137243753D01*
X202120000Y-137258919D01*
X202230912Y-137241352D01*
X202330967Y-137190372D01*
X202410372Y-137110967D01*
X202461352Y-137010912D01*
X202478919Y-136900000D01*
X202461352Y-136789088D01*
X202461352Y-136789087D01*
X202421055Y-136710000D01*
X204731081Y-136710000D01*
X204748647Y-136820912D01*
X204788394Y-136898919D01*
X204799628Y-136920967D01*
X204879033Y-137000372D01*
X204900583Y-137011352D01*
X204979087Y-137051352D01*
X204984069Y-137052141D01*
X205090000Y-137068919D01*
X205200912Y-137051352D01*
X205300967Y-137000372D01*
X205380372Y-136920967D01*
X205431352Y-136820912D01*
X205448919Y-136710000D01*
X205442584Y-136670000D01*
X206601081Y-136670000D01*
X206618647Y-136780912D01*
X206649247Y-136840967D01*
X206669628Y-136880967D01*
X206749033Y-136960372D01*
X206770583Y-136971352D01*
X206849087Y-137011352D01*
X206864252Y-137013753D01*
X206960000Y-137028919D01*
X207070912Y-137011352D01*
X207170967Y-136960372D01*
X207250372Y-136880967D01*
X207301352Y-136780912D01*
X207318919Y-136670000D01*
X207301352Y-136559088D01*
X207301352Y-136559087D01*
X207269340Y-136496260D01*
X207250372Y-136459033D01*
X207170967Y-136379628D01*
X207070912Y-136328647D01*
X206960000Y-136311081D01*
X206849087Y-136328647D01*
X206749032Y-136379628D01*
X206669628Y-136459032D01*
X206618647Y-136559087D01*
X206601081Y-136670000D01*
X205442584Y-136670000D01*
X205431352Y-136599088D01*
X205431352Y-136599087D01*
X205390590Y-136519087D01*
X205380372Y-136499033D01*
X205300967Y-136419628D01*
X205299797Y-136419032D01*
X205200912Y-136368647D01*
X205090000Y-136351081D01*
X204979087Y-136368647D01*
X204879032Y-136419628D01*
X204799628Y-136499032D01*
X204748647Y-136599087D01*
X204731081Y-136710000D01*
X202421055Y-136710000D01*
X202410371Y-136689032D01*
X202330967Y-136609628D01*
X202230912Y-136558647D01*
X202120000Y-136541081D01*
X202009087Y-136558647D01*
X201909032Y-136609628D01*
X201829628Y-136689032D01*
X201778647Y-136789087D01*
X201761081Y-136900000D01*
X201401339Y-136900000D01*
X201460372Y-136840967D01*
X201511352Y-136740912D01*
X201528919Y-136630000D01*
X201511352Y-136519088D01*
X201511352Y-136519087D01*
X201465495Y-136429088D01*
X201460372Y-136419033D01*
X201380967Y-136339628D01*
X201360171Y-136329032D01*
X201280912Y-136288647D01*
X201170000Y-136271081D01*
X201059087Y-136288647D01*
X200959032Y-136339628D01*
X200879628Y-136419032D01*
X200828647Y-136519087D01*
X200811081Y-136630000D01*
X197959500Y-136630000D01*
X197959500Y-136281997D01*
X197959499Y-136281996D01*
X197956574Y-136271081D01*
X197921712Y-136140971D01*
X197848711Y-136014529D01*
X197745471Y-135911289D01*
X197619029Y-135838288D01*
X197619024Y-135838286D01*
X197478003Y-135800500D01*
X197478001Y-135800500D01*
X197331999Y-135800500D01*
X197331997Y-135800500D01*
X197190975Y-135838286D01*
X197190970Y-135838288D01*
X197064528Y-135911289D01*
X196961289Y-136014528D01*
X196888288Y-136140970D01*
X196888286Y-136140975D01*
X196850500Y-136281996D01*
X196850500Y-136678003D01*
X196888286Y-136819024D01*
X196888288Y-136819029D01*
X196961289Y-136945471D01*
X197067959Y-137052141D01*
X197066312Y-137053787D01*
X197090790Y-137096175D01*
X197076137Y-137150884D01*
X197069750Y-137158167D01*
X196969761Y-137258156D01*
X196876740Y-137397373D01*
X196812665Y-137552063D01*
X196812663Y-137552069D01*
X196783239Y-137699999D01*
X196783239Y-137700000D01*
X197346212Y-137700000D01*
X197330000Y-137760504D01*
X197330000Y-137839496D01*
X197346212Y-137900000D01*
X196783239Y-137900000D01*
X195801760Y-137900000D01*
X195238788Y-137900000D01*
X195255000Y-137839496D01*
X195255000Y-137760504D01*
X195238788Y-137700000D01*
X195801761Y-137700000D01*
X195801760Y-137699999D01*
X195772336Y-137552069D01*
X195772334Y-137552063D01*
X195708259Y-137397373D01*
X195615238Y-137258156D01*
X195496843Y-137139761D01*
X195357626Y-137046740D01*
X195202936Y-136982665D01*
X195202930Y-136982663D01*
X195038716Y-136950000D01*
X194405000Y-136950000D01*
X194405000Y-137500000D01*
X194205000Y-137500000D01*
X194205000Y-136950000D01*
X193571284Y-136950000D01*
X193407069Y-136982663D01*
X193407063Y-136982665D01*
X193252373Y-137046740D01*
X193113156Y-137139761D01*
X193113155Y-137139763D01*
X192994763Y-137258155D01*
X192994761Y-137258156D01*
X192901740Y-137397373D01*
X192837665Y-137552063D01*
X192837663Y-137552069D01*
X192808239Y-137699999D01*
X192808239Y-137700000D01*
X193371212Y-137700000D01*
X193355000Y-137760504D01*
X193355000Y-137839496D01*
X193371212Y-137900000D01*
X192808239Y-137900000D01*
X191689500Y-137900000D01*
X191689500Y-135540000D01*
X199234867Y-135540000D01*
X199253302Y-135668223D01*
X199253302Y-135668224D01*
X199253303Y-135668226D01*
X199307118Y-135786063D01*
X199391951Y-135883967D01*
X199500931Y-135954004D01*
X199625228Y-135990500D01*
X199754772Y-135990500D01*
X199879069Y-135954004D01*
X199988049Y-135883967D01*
X200069140Y-135790380D01*
X200119786Y-135765029D01*
X200173525Y-135782914D01*
X200192378Y-135808098D01*
X200237118Y-135906063D01*
X200321951Y-136003967D01*
X200430931Y-136074004D01*
X200555228Y-136110500D01*
X200684772Y-136110500D01*
X200809069Y-136074004D01*
X200918049Y-136003967D01*
X201002882Y-135906063D01*
X201056697Y-135788226D01*
X201075133Y-135660000D01*
X201056697Y-135531774D01*
X201002882Y-135413937D01*
X200976811Y-135383849D01*
X206739200Y-135383849D01*
X206743775Y-135406849D01*
X206768012Y-135528702D01*
X206768014Y-135528709D01*
X206822844Y-135661081D01*
X206824536Y-135665164D01*
X206833546Y-135678648D01*
X206905317Y-135786063D01*
X206906592Y-135787970D01*
X207011030Y-135892408D01*
X207133836Y-135974464D01*
X207270291Y-136030986D01*
X207415151Y-136059800D01*
X207415152Y-136059800D01*
X207562848Y-136059800D01*
X207562849Y-136059800D01*
X207707709Y-136030986D01*
X207844164Y-135974464D01*
X207966970Y-135892408D01*
X208071408Y-135787970D01*
X208153464Y-135665164D01*
X208209986Y-135528709D01*
X208238800Y-135383849D01*
X208238800Y-135236151D01*
X208209986Y-135091291D01*
X208153464Y-134954836D01*
X208071408Y-134832030D01*
X207966970Y-134727592D01*
X207844164Y-134645536D01*
X207844161Y-134645534D01*
X207844160Y-134645534D01*
X207707709Y-134589014D01*
X207707702Y-134589012D01*
X207598571Y-134567305D01*
X207562849Y-134560200D01*
X207415151Y-134560200D01*
X207386495Y-134565899D01*
X207270297Y-134589012D01*
X207270290Y-134589014D01*
X207133839Y-134645534D01*
X207011030Y-134727591D01*
X207011029Y-134727593D01*
X206906593Y-134832029D01*
X206906591Y-134832030D01*
X206824534Y-134954839D01*
X206768014Y-135091290D01*
X206768012Y-135091297D01*
X206744501Y-135209500D01*
X206739200Y-135236151D01*
X206739200Y-135383849D01*
X200976811Y-135383849D01*
X200918049Y-135316033D01*
X200851032Y-135272964D01*
X200809068Y-135245995D01*
X200684772Y-135209500D01*
X200555228Y-135209500D01*
X200430931Y-135245995D01*
X200321954Y-135316031D01*
X200321946Y-135316037D01*
X200240858Y-135409619D01*
X200190212Y-135434970D01*
X200136473Y-135417084D01*
X200117621Y-135391902D01*
X200072882Y-135293937D01*
X199988049Y-135196033D01*
X199900860Y-135140000D01*
X199879068Y-135125995D01*
X199754772Y-135089500D01*
X199625228Y-135089500D01*
X199500931Y-135125995D01*
X199391954Y-135196031D01*
X199391950Y-135196034D01*
X199307119Y-135293935D01*
X199253302Y-135411776D01*
X199234867Y-135540000D01*
X191689500Y-135540000D01*
X191689500Y-134720004D01*
X196971081Y-134720004D01*
X196988647Y-134830916D01*
X197034503Y-134920912D01*
X197039628Y-134930971D01*
X197119033Y-135010376D01*
X197155756Y-135029087D01*
X197219087Y-135061356D01*
X197234252Y-135063757D01*
X197330000Y-135078923D01*
X197440912Y-135061356D01*
X197540967Y-135010376D01*
X197620372Y-134930971D01*
X197671352Y-134830916D01*
X197688919Y-134720004D01*
X197671352Y-134609092D01*
X197671352Y-134609091D01*
X197634668Y-134537095D01*
X197620372Y-134509037D01*
X197540967Y-134429632D01*
X197440912Y-134378651D01*
X197330000Y-134361085D01*
X197219087Y-134378651D01*
X197119032Y-134429632D01*
X197039628Y-134509036D01*
X196988647Y-134609091D01*
X196971081Y-134720004D01*
X191689500Y-134720004D01*
X191689500Y-134110000D01*
X200661081Y-134110000D01*
X200678647Y-134220912D01*
X200714314Y-134290912D01*
X200729628Y-134320967D01*
X200809033Y-134400372D01*
X200858107Y-134425376D01*
X200909087Y-134451352D01*
X200924252Y-134453753D01*
X201020000Y-134468919D01*
X201130912Y-134451352D01*
X201230967Y-134400372D01*
X201310372Y-134320967D01*
X201351626Y-134240000D01*
X205545131Y-134240000D01*
X205562499Y-134349660D01*
X205583546Y-134390967D01*
X205612905Y-134448587D01*
X205691413Y-134527095D01*
X205790339Y-134577500D01*
X205900000Y-134594869D01*
X206009661Y-134577500D01*
X206108587Y-134527095D01*
X206127673Y-134508007D01*
X206179996Y-134486333D01*
X206232323Y-134508005D01*
X206261413Y-134537095D01*
X206360339Y-134587500D01*
X206470000Y-134604869D01*
X206579661Y-134587500D01*
X206678587Y-134537095D01*
X206757095Y-134458587D01*
X206807500Y-134359661D01*
X206824869Y-134250000D01*
X206813782Y-134180000D01*
X208671081Y-134180000D01*
X208688647Y-134290912D01*
X208733353Y-134378651D01*
X208739628Y-134390967D01*
X208819033Y-134470372D01*
X208823047Y-134472417D01*
X208919087Y-134521352D01*
X208936654Y-134524134D01*
X209030000Y-134538919D01*
X209084056Y-134530357D01*
X209139128Y-134543578D01*
X209168721Y-134591869D01*
X209155500Y-134646942D01*
X209136745Y-134664973D01*
X209128026Y-134670800D01*
X209043030Y-134727591D01*
X209043029Y-134727593D01*
X208938593Y-134832029D01*
X208938591Y-134832030D01*
X208856534Y-134954839D01*
X208800014Y-135091290D01*
X208800012Y-135091297D01*
X208776501Y-135209500D01*
X208771200Y-135236151D01*
X208771200Y-135383849D01*
X208775775Y-135406849D01*
X208800012Y-135528702D01*
X208800014Y-135528709D01*
X208854844Y-135661081D01*
X208856536Y-135665164D01*
X208865546Y-135678648D01*
X208937317Y-135786063D01*
X208938592Y-135787970D01*
X209043030Y-135892408D01*
X209165836Y-135974464D01*
X209302291Y-136030986D01*
X209447151Y-136059800D01*
X209447152Y-136059800D01*
X209594848Y-136059800D01*
X209594849Y-136059800D01*
X209739709Y-136030986D01*
X209876164Y-135974464D01*
X209998970Y-135892408D01*
X210041378Y-135850000D01*
X210761081Y-135850000D01*
X210778647Y-135960912D01*
X210829033Y-136059800D01*
X210829628Y-136060967D01*
X210909033Y-136140372D01*
X210946392Y-136159407D01*
X211009087Y-136191352D01*
X211120000Y-136208919D01*
X211121663Y-136208919D01*
X211122692Y-136209345D01*
X211125752Y-136209830D01*
X211125635Y-136210564D01*
X211173989Y-136230593D01*
X211195663Y-136282919D01*
X211181529Y-136326417D01*
X211179627Y-136329033D01*
X211128647Y-136429087D01*
X211111081Y-136540000D01*
X211128647Y-136650912D01*
X211168480Y-136729088D01*
X211179628Y-136750967D01*
X211259033Y-136830372D01*
X211308107Y-136855376D01*
X211359087Y-136881352D01*
X211374252Y-136883753D01*
X211470000Y-136898919D01*
X211580912Y-136881352D01*
X211662071Y-136840000D01*
X222651081Y-136840000D01*
X222668647Y-136950912D01*
X222708394Y-137028919D01*
X222719628Y-137050967D01*
X222799033Y-137130372D01*
X222839291Y-137150884D01*
X222899087Y-137181352D01*
X222914252Y-137183753D01*
X223010000Y-137198919D01*
X223120912Y-137181352D01*
X223220967Y-137130372D01*
X223300372Y-137050967D01*
X223351352Y-136950912D01*
X223368919Y-136840000D01*
X223351352Y-136729088D01*
X223351352Y-136729087D01*
X223311520Y-136650912D01*
X223300372Y-136629033D01*
X223220967Y-136549628D01*
X223128987Y-136502762D01*
X223122325Y-136494962D01*
X223105840Y-136496260D01*
X223010000Y-136481081D01*
X222899087Y-136498647D01*
X222799032Y-136549628D01*
X222719628Y-136629032D01*
X222668647Y-136729087D01*
X222651081Y-136840000D01*
X211662071Y-136840000D01*
X211680967Y-136830372D01*
X211760372Y-136750967D01*
X211811352Y-136650912D01*
X211828919Y-136540000D01*
X211811352Y-136429088D01*
X211811352Y-136429087D01*
X211760371Y-136329032D01*
X211680967Y-136249628D01*
X211580912Y-136198647D01*
X211470000Y-136181081D01*
X211468337Y-136181081D01*
X211467307Y-136180654D01*
X211464248Y-136180170D01*
X211464364Y-136179435D01*
X211416011Y-136159407D01*
X211394337Y-136107081D01*
X211408471Y-136063583D01*
X211410369Y-136060969D01*
X211410372Y-136060967D01*
X211431245Y-136020000D01*
X222911081Y-136020000D01*
X222928647Y-136130912D01*
X222954210Y-136181081D01*
X222979628Y-136230967D01*
X223059033Y-136310372D01*
X223151011Y-136357237D01*
X223157673Y-136365036D01*
X223174159Y-136363739D01*
X223270000Y-136378919D01*
X223380912Y-136361352D01*
X223480967Y-136310372D01*
X223560372Y-136230967D01*
X223611352Y-136130912D01*
X223628919Y-136020000D01*
X223611352Y-135909088D01*
X223611352Y-135909087D01*
X223560371Y-135809032D01*
X223480967Y-135729628D01*
X223380912Y-135678647D01*
X223270000Y-135661081D01*
X223159087Y-135678647D01*
X223059032Y-135729628D01*
X222979628Y-135809032D01*
X222928647Y-135909087D01*
X222911081Y-136020000D01*
X211431245Y-136020000D01*
X211461352Y-135960912D01*
X211478919Y-135850000D01*
X211461352Y-135739088D01*
X211461352Y-135739087D01*
X211410371Y-135639032D01*
X211354489Y-135583150D01*
X211332815Y-135530824D01*
X211354489Y-135478498D01*
X211373216Y-135464892D01*
X211440967Y-135430372D01*
X211520372Y-135350967D01*
X211571352Y-135250912D01*
X211588919Y-135140000D01*
X211571352Y-135029088D01*
X211571352Y-135029087D01*
X211545376Y-134978107D01*
X211520372Y-134929033D01*
X211440967Y-134849628D01*
X211406427Y-134832029D01*
X211363193Y-134810000D01*
X221551081Y-134810000D01*
X221568647Y-134920912D01*
X221585934Y-134954839D01*
X221619628Y-135020967D01*
X221699033Y-135100372D01*
X221748107Y-135125376D01*
X221799087Y-135151352D01*
X221814252Y-135153753D01*
X221910000Y-135168919D01*
X222020912Y-135151352D01*
X222120967Y-135100372D01*
X222200372Y-135020967D01*
X222251352Y-134920912D01*
X222268919Y-134810000D01*
X222251352Y-134699088D01*
X222251352Y-134699087D01*
X222205497Y-134609092D01*
X222200372Y-134599033D01*
X222120967Y-134519628D01*
X222100179Y-134509036D01*
X222020912Y-134468647D01*
X221910000Y-134451081D01*
X221799087Y-134468647D01*
X221699032Y-134519628D01*
X221619628Y-134599032D01*
X221568647Y-134699087D01*
X221551081Y-134810000D01*
X211363193Y-134810000D01*
X211340912Y-134798647D01*
X211230000Y-134781081D01*
X211119087Y-134798647D01*
X211019032Y-134849628D01*
X210939628Y-134929032D01*
X210888647Y-135029087D01*
X210871081Y-135140000D01*
X210888647Y-135250912D01*
X210939628Y-135350967D01*
X210995510Y-135406849D01*
X211017184Y-135459175D01*
X210995510Y-135511501D01*
X210976779Y-135525110D01*
X210909032Y-135559628D01*
X210829628Y-135639032D01*
X210778647Y-135739087D01*
X210761081Y-135850000D01*
X210041378Y-135850000D01*
X210103408Y-135787970D01*
X210185464Y-135665164D01*
X210241986Y-135528709D01*
X210270800Y-135383849D01*
X210270800Y-135236151D01*
X210241986Y-135091291D01*
X210185464Y-134954836D01*
X210103408Y-134832030D01*
X209998970Y-134727592D01*
X209876164Y-134645536D01*
X209876161Y-134645534D01*
X209876160Y-134645534D01*
X209739709Y-134589014D01*
X209739702Y-134589012D01*
X209630571Y-134567305D01*
X209594849Y-134560200D01*
X209447151Y-134560200D01*
X209316896Y-134586108D01*
X209261347Y-134575058D01*
X209229882Y-134527966D01*
X209240932Y-134472417D01*
X209250129Y-134461209D01*
X209320372Y-134390967D01*
X209371352Y-134290912D01*
X209388919Y-134180000D01*
X211891081Y-134180000D01*
X211908647Y-134290912D01*
X211953353Y-134378651D01*
X211959628Y-134390967D01*
X212039033Y-134470372D01*
X212043047Y-134472417D01*
X212139087Y-134521352D01*
X212154252Y-134523753D01*
X212250000Y-134538919D01*
X212360912Y-134521352D01*
X212460967Y-134470372D01*
X212540372Y-134390967D01*
X212591352Y-134290912D01*
X212608919Y-134180000D01*
X212591352Y-134069088D01*
X212591352Y-134069087D01*
X212558018Y-134003666D01*
X212540372Y-133969033D01*
X212460967Y-133889628D01*
X212452141Y-133885131D01*
X212360912Y-133838647D01*
X212250000Y-133821081D01*
X212139087Y-133838647D01*
X212039032Y-133889628D01*
X211959628Y-133969032D01*
X211908647Y-134069087D01*
X211891081Y-134180000D01*
X209388919Y-134180000D01*
X209371352Y-134069088D01*
X209371352Y-134069087D01*
X209338018Y-134003666D01*
X209320372Y-133969033D01*
X209240967Y-133889628D01*
X209232141Y-133885131D01*
X209140912Y-133838647D01*
X209030000Y-133821081D01*
X208919087Y-133838647D01*
X208819032Y-133889628D01*
X208739628Y-133969032D01*
X208688647Y-134069087D01*
X208671081Y-134180000D01*
X206813782Y-134180000D01*
X206807500Y-134140339D01*
X206757095Y-134041413D01*
X206678587Y-133962905D01*
X206658961Y-133952905D01*
X206579660Y-133912499D01*
X206470000Y-133895131D01*
X206360339Y-133912499D01*
X206261414Y-133962904D01*
X206242325Y-133981993D01*
X206189998Y-134003666D01*
X206137674Y-133981992D01*
X206108587Y-133952905D01*
X206009660Y-133902499D01*
X205900000Y-133885131D01*
X205790339Y-133902499D01*
X205691412Y-133952905D01*
X205612905Y-134031412D01*
X205562499Y-134130339D01*
X205545131Y-134240000D01*
X201351626Y-134240000D01*
X201361352Y-134220912D01*
X201378919Y-134110000D01*
X201361352Y-133999088D01*
X201361352Y-133999087D01*
X201335376Y-133948107D01*
X201310372Y-133899033D01*
X201230967Y-133819628D01*
X201130912Y-133768647D01*
X201020000Y-133751081D01*
X200909087Y-133768647D01*
X200809032Y-133819628D01*
X200729628Y-133899032D01*
X200678647Y-133999087D01*
X200661081Y-134110000D01*
X191689500Y-134110000D01*
X191689500Y-133320000D01*
X221513581Y-133320000D01*
X221531147Y-133430912D01*
X221582128Y-133530967D01*
X221661533Y-133610372D01*
X221710607Y-133635376D01*
X221761587Y-133661352D01*
X221776752Y-133663753D01*
X221872500Y-133678919D01*
X221983412Y-133661352D01*
X222083467Y-133610372D01*
X222162872Y-133530967D01*
X222213852Y-133430912D01*
X222231419Y-133320000D01*
X222213852Y-133209088D01*
X222213852Y-133209087D01*
X222162871Y-133109032D01*
X222083467Y-133029628D01*
X221983412Y-132978647D01*
X221872500Y-132961081D01*
X221761587Y-132978647D01*
X221661532Y-133029628D01*
X221582128Y-133109032D01*
X221531147Y-133209087D01*
X221513581Y-133320000D01*
X191689500Y-133320000D01*
X191689500Y-131730000D01*
X197001081Y-131730000D01*
X197018647Y-131840912D01*
X197064591Y-131931081D01*
X197069628Y-131940967D01*
X197149033Y-132020372D01*
X197198107Y-132045376D01*
X197249087Y-132071352D01*
X197264252Y-132073753D01*
X197360000Y-132088919D01*
X197470912Y-132071352D01*
X197570967Y-132020372D01*
X197650372Y-131940967D01*
X197701352Y-131840912D01*
X197718919Y-131730000D01*
X197701352Y-131619088D01*
X197701352Y-131619087D01*
X197660559Y-131539027D01*
X197650372Y-131519033D01*
X197570967Y-131439628D01*
X197470912Y-131388647D01*
X197360000Y-131371081D01*
X197249087Y-131388647D01*
X197149032Y-131439628D01*
X197069628Y-131519032D01*
X197018647Y-131619087D01*
X197001081Y-131730000D01*
X191689500Y-131730000D01*
X191689500Y-131126998D01*
X199557663Y-131126998D01*
X199576098Y-131255221D01*
X199576098Y-131255222D01*
X199576099Y-131255224D01*
X199629914Y-131373061D01*
X199714747Y-131470965D01*
X199724337Y-131477128D01*
X199756638Y-131523647D01*
X199746585Y-131579385D01*
X199732796Y-131595300D01*
X199731956Y-131596027D01*
X199647119Y-131693935D01*
X199593302Y-131811776D01*
X199574867Y-131940000D01*
X199593302Y-132068223D01*
X199593302Y-132068224D01*
X199593303Y-132068226D01*
X199647118Y-132186063D01*
X199731951Y-132283967D01*
X199840931Y-132354004D01*
X199965228Y-132390500D01*
X200094772Y-132390500D01*
X200219069Y-132354004D01*
X200328049Y-132283967D01*
X200383476Y-132220000D01*
X204551081Y-132220000D01*
X204568647Y-132330912D01*
X204601670Y-132395723D01*
X204619628Y-132430967D01*
X204699033Y-132510372D01*
X204724877Y-132523540D01*
X204799087Y-132561352D01*
X204814252Y-132563753D01*
X204910000Y-132578919D01*
X205020912Y-132561352D01*
X205120967Y-132510372D01*
X205200372Y-132430967D01*
X205251352Y-132330912D01*
X205257832Y-132290000D01*
X208981081Y-132290000D01*
X208998647Y-132400912D01*
X209040972Y-132483979D01*
X209049628Y-132500967D01*
X209129033Y-132580372D01*
X209178107Y-132605376D01*
X209229087Y-132631352D01*
X209244252Y-132633753D01*
X209340000Y-132648919D01*
X209450912Y-132631352D01*
X209550967Y-132580372D01*
X209630372Y-132500967D01*
X209681352Y-132400912D01*
X209681351Y-132400912D01*
X209683996Y-132395723D01*
X209687174Y-132397342D01*
X209716309Y-132363068D01*
X209772761Y-132358493D01*
X209815914Y-132395175D01*
X209815992Y-132395329D01*
X209859626Y-132480964D01*
X209859626Y-132480965D01*
X209859628Y-132480967D01*
X209939033Y-132560372D01*
X209975432Y-132578918D01*
X210039087Y-132611352D01*
X210054252Y-132613753D01*
X210150000Y-132628919D01*
X210260912Y-132611352D01*
X210360967Y-132560372D01*
X210440372Y-132480967D01*
X210491352Y-132380912D01*
X210508370Y-132273464D01*
X210537963Y-132225174D01*
X210593035Y-132211952D01*
X210615055Y-132219107D01*
X210616808Y-132220000D01*
X210639088Y-132231352D01*
X210750000Y-132248919D01*
X210780471Y-132244092D01*
X210835542Y-132257313D01*
X210865136Y-132305603D01*
X210865136Y-132305604D01*
X210877064Y-132380912D01*
X210878648Y-132390912D01*
X210929628Y-132490967D01*
X211009033Y-132570372D01*
X211058107Y-132595376D01*
X211109087Y-132621352D01*
X211124252Y-132623753D01*
X211220000Y-132638919D01*
X211330912Y-132621352D01*
X211430967Y-132570372D01*
X211510372Y-132490967D01*
X211551626Y-132410000D01*
X213091081Y-132410000D01*
X213108647Y-132520912D01*
X213138944Y-132580372D01*
X213159628Y-132620967D01*
X213239033Y-132700372D01*
X213286266Y-132724438D01*
X213339087Y-132751352D01*
X213354252Y-132753753D01*
X213450000Y-132768919D01*
X213560912Y-132751352D01*
X213660967Y-132700372D01*
X213740372Y-132620967D01*
X213791352Y-132520912D01*
X213808919Y-132410000D01*
X213791352Y-132299088D01*
X213791352Y-132299087D01*
X213756839Y-132231352D01*
X213740372Y-132199033D01*
X213660967Y-132119628D01*
X213632786Y-132105269D01*
X213560912Y-132068647D01*
X213450000Y-132051081D01*
X213339087Y-132068647D01*
X213239032Y-132119628D01*
X213159628Y-132199032D01*
X213108647Y-132299087D01*
X213091081Y-132410000D01*
X211551626Y-132410000D01*
X211561352Y-132390912D01*
X211578919Y-132280000D01*
X211561352Y-132169088D01*
X211561352Y-132169087D01*
X211520504Y-132088918D01*
X211510372Y-132069033D01*
X211430967Y-131989628D01*
X211411341Y-131979628D01*
X211330912Y-131938647D01*
X211220000Y-131921081D01*
X211189528Y-131925907D01*
X211134455Y-131912685D01*
X211104863Y-131864394D01*
X211091352Y-131779088D01*
X211040372Y-131679033D01*
X210960967Y-131599628D01*
X210941818Y-131589871D01*
X210860912Y-131548647D01*
X210750000Y-131531081D01*
X210639087Y-131548647D01*
X210539032Y-131599628D01*
X210459628Y-131679032D01*
X210408648Y-131779087D01*
X210391629Y-131886535D01*
X210362035Y-131934826D01*
X210306963Y-131948047D01*
X210284945Y-131940893D01*
X210260912Y-131928648D01*
X210150000Y-131911081D01*
X210039087Y-131928647D01*
X209939032Y-131979628D01*
X209859628Y-132059032D01*
X209806004Y-132164277D01*
X209802871Y-132162680D01*
X209773490Y-132197033D01*
X209717024Y-132201437D01*
X209674006Y-132164670D01*
X209651056Y-132119628D01*
X209630372Y-132079033D01*
X209550967Y-131999628D01*
X209531341Y-131989628D01*
X209450912Y-131948647D01*
X209340000Y-131931081D01*
X209229087Y-131948647D01*
X209129032Y-131999628D01*
X209049628Y-132079032D01*
X208998647Y-132179087D01*
X208981081Y-132290000D01*
X205257832Y-132290000D01*
X205268919Y-132220000D01*
X205251352Y-132109088D01*
X205251352Y-132109087D01*
X205225376Y-132058107D01*
X205200372Y-132009033D01*
X205120967Y-131929628D01*
X205113664Y-131925907D01*
X205020912Y-131878647D01*
X204910000Y-131861081D01*
X204799087Y-131878647D01*
X204699032Y-131929628D01*
X204619628Y-132009032D01*
X204568647Y-132109087D01*
X204551081Y-132220000D01*
X200383476Y-132220000D01*
X200412882Y-132186063D01*
X200466697Y-132068226D01*
X200485133Y-131940000D01*
X200466697Y-131811774D01*
X200412882Y-131693937D01*
X200328049Y-131596033D01*
X200318457Y-131589868D01*
X200286157Y-131543349D01*
X200296211Y-131487611D01*
X200310011Y-131471686D01*
X200310831Y-131470973D01*
X200310845Y-131470965D01*
X200320346Y-131460000D01*
X215951081Y-131460000D01*
X215968647Y-131570912D01*
X215994152Y-131620967D01*
X216019628Y-131670967D01*
X216099033Y-131750372D01*
X216135432Y-131768918D01*
X216199087Y-131801352D01*
X216214252Y-131803753D01*
X216310000Y-131818919D01*
X216420912Y-131801352D01*
X216520967Y-131750372D01*
X216547674Y-131723665D01*
X216600000Y-131701991D01*
X216652326Y-131723665D01*
X216679033Y-131750372D01*
X216715432Y-131768918D01*
X216779087Y-131801352D01*
X216794252Y-131803753D01*
X216890000Y-131818919D01*
X217000912Y-131801352D01*
X217100967Y-131750372D01*
X217180372Y-131670967D01*
X217231352Y-131570912D01*
X217248919Y-131460000D01*
X217234664Y-131370000D01*
X219851081Y-131370000D01*
X219868647Y-131480912D01*
X219900461Y-131543349D01*
X219919628Y-131580967D01*
X219999033Y-131660372D01*
X220035656Y-131679032D01*
X220099087Y-131711352D01*
X220114252Y-131713753D01*
X220210000Y-131728919D01*
X220320912Y-131711352D01*
X220420967Y-131660372D01*
X220442674Y-131638665D01*
X220495000Y-131616991D01*
X220547326Y-131638665D01*
X220609033Y-131700372D01*
X220612211Y-131701991D01*
X220709087Y-131751352D01*
X220724252Y-131753753D01*
X220820000Y-131768919D01*
X220930912Y-131751352D01*
X221030967Y-131700372D01*
X221110372Y-131620967D01*
X221161352Y-131520912D01*
X221178919Y-131410000D01*
X221161352Y-131299088D01*
X221161352Y-131299087D01*
X221135376Y-131248107D01*
X221110372Y-131199033D01*
X221030967Y-131119628D01*
X221029042Y-131118647D01*
X220930912Y-131068647D01*
X220820000Y-131051081D01*
X220709087Y-131068647D01*
X220609032Y-131119628D01*
X220587326Y-131141335D01*
X220535000Y-131163009D01*
X220482674Y-131141335D01*
X220420967Y-131079628D01*
X220320912Y-131028647D01*
X220210000Y-131011081D01*
X220099087Y-131028647D01*
X219999032Y-131079628D01*
X219919628Y-131159032D01*
X219868647Y-131259087D01*
X219851081Y-131370000D01*
X217234664Y-131370000D01*
X217231352Y-131349088D01*
X217231352Y-131349087D01*
X217185495Y-131259088D01*
X217180372Y-131249033D01*
X217100967Y-131169628D01*
X217000912Y-131118647D01*
X216890000Y-131101081D01*
X216779087Y-131118647D01*
X216679032Y-131169628D01*
X216652326Y-131196335D01*
X216600000Y-131218009D01*
X216547674Y-131196335D01*
X216520967Y-131169628D01*
X216420912Y-131118647D01*
X216310000Y-131101081D01*
X216199087Y-131118647D01*
X216099032Y-131169628D01*
X216019628Y-131249032D01*
X215968647Y-131349087D01*
X215951081Y-131460000D01*
X200320346Y-131460000D01*
X200395678Y-131373061D01*
X200449493Y-131255224D01*
X200467929Y-131126998D01*
X200449493Y-130998772D01*
X200395678Y-130880935D01*
X200310845Y-130783031D01*
X200243828Y-130739962D01*
X200201864Y-130712993D01*
X200077568Y-130676498D01*
X199948024Y-130676498D01*
X199823727Y-130712993D01*
X199714750Y-130783029D01*
X199714746Y-130783032D01*
X199629915Y-130880933D01*
X199576098Y-130998774D01*
X199557663Y-131126998D01*
X191689500Y-131126998D01*
X191689500Y-128655850D01*
X191690133Y-128646191D01*
X191690133Y-128646190D01*
X191699626Y-128574081D01*
X191704626Y-128555425D01*
X191730587Y-128492749D01*
X191740240Y-128476028D01*
X191781546Y-128422196D01*
X191795196Y-128408546D01*
X191849028Y-128367240D01*
X191865746Y-128357588D01*
X191928425Y-128331626D01*
X191947081Y-128326626D01*
X192019192Y-128317133D01*
X192028851Y-128316500D01*
X192071595Y-128316500D01*
X193143482Y-128316500D01*
X193195808Y-128338174D01*
G37*
%TD.AperFunction*%
%TD*%
D24*
X192024000Y-147574000D02*
G75*
G02*
X191389000Y-146939000I0J635000D01*
G01*
X237236000Y-146812009D02*
G75*
G02*
X236473993Y-147574000I-762000J9D01*
G01*
X237236000Y-146812000D02*
X237236000Y-133399000D01*
X228965000Y-128016000D02*
G75*
G02*
X229600000Y-128651000I0J-635000D01*
G01*
X191389000Y-128651000D02*
G75*
G02*
X192024000Y-128016000I635000J0D01*
G01*
X191389000Y-128651000D02*
X191389000Y-146939000D01*
X236601000Y-132764000D02*
G75*
G02*
X237236000Y-133399000I0J-635000D01*
G01*
X230235000Y-132764000D02*
G75*
G02*
X229600000Y-132129000I0J635000D01*
G01*
X229600000Y-132129000D02*
X229600000Y-128651000D01*
X236601000Y-132764000D02*
X230235000Y-132764000D01*
X192024000Y-147574000D02*
X236473993Y-147574000D01*
X192024000Y-128016000D02*
X228965000Y-128016000D01*
M02*
