%TF.GenerationSoftware,KiCad,Pcbnew,8.0.1*%
%TF.CreationDate,2024-04-05T17:07:48-07:00*%
%TF.ProjectId,Bluetooth_OSHW,426c7565-746f-46f7-9468-5f4f5348572e,Proto*%
%TF.SameCoordinates,Original*%
%TF.FileFunction,Legend,Top*%
%TF.FilePolarity,Positive*%
%FSLAX46Y46*%
G04 Gerber Fmt 4.6, Leading zero omitted, Abs format (unit mm)*
G04 Created by KiCad (PCBNEW 8.0.1) date 2024-04-05 17:07:48*
%MOMM*%
%LPD*%
G01*
G04 APERTURE LIST*
%ADD10C,0.100000*%
%ADD11C,0.150000*%
%ADD12C,0.300000*%
%ADD13C,0.400000*%
%ADD14C,0.500000*%
%ADD15C,0.200000*%
%ADD16C,0.120000*%
%ADD17C,0.010000*%
%TA.AperFunction,Profile*%
%ADD18C,0.100000*%
%TD*%
G04 APERTURE END LIST*
D10*
D11*
X299989000Y-253002200D02*
X407989000Y-253002200D01*
X407989000Y-285002200D01*
X299989000Y-285002200D01*
X299989000Y-253002200D01*
D10*
D11*
X10000000Y-10000000D02*
X409989000Y-10000000D01*
X409989000Y-287002200D01*
X10000000Y-287002200D01*
X10000000Y-10000000D01*
D10*
D11*
X12000000Y-12000000D02*
X407989000Y-12000000D01*
X407989000Y-285002200D01*
X12000000Y-285002200D01*
X12000000Y-12000000D01*
D10*
D11*
X60000000Y-12000000D02*
X60000000Y-10000000D01*
D10*
D11*
X110000000Y-12000000D02*
X110000000Y-10000000D01*
D10*
D11*
X160000000Y-12000000D02*
X160000000Y-10000000D01*
D10*
D11*
X210000000Y-12000000D02*
X210000000Y-10000000D01*
D10*
D11*
X260000000Y-12000000D02*
X260000000Y-10000000D01*
D10*
D11*
X310000000Y-12000000D02*
X310000000Y-10000000D01*
D10*
D11*
X360000000Y-12000000D02*
X360000000Y-10000000D01*
D10*
D11*
X36089160Y-11593604D02*
X35346303Y-11593604D01*
X35717731Y-11593604D02*
X35717731Y-10293604D01*
X35717731Y-10293604D02*
X35593922Y-10479319D01*
X35593922Y-10479319D02*
X35470112Y-10603128D01*
X35470112Y-10603128D02*
X35346303Y-10665033D01*
D10*
D11*
X85346303Y-10417414D02*
X85408207Y-10355509D01*
X85408207Y-10355509D02*
X85532017Y-10293604D01*
X85532017Y-10293604D02*
X85841541Y-10293604D01*
X85841541Y-10293604D02*
X85965350Y-10355509D01*
X85965350Y-10355509D02*
X86027255Y-10417414D01*
X86027255Y-10417414D02*
X86089160Y-10541223D01*
X86089160Y-10541223D02*
X86089160Y-10665033D01*
X86089160Y-10665033D02*
X86027255Y-10850747D01*
X86027255Y-10850747D02*
X85284398Y-11593604D01*
X85284398Y-11593604D02*
X86089160Y-11593604D01*
D10*
D11*
X135284398Y-10293604D02*
X136089160Y-10293604D01*
X136089160Y-10293604D02*
X135655826Y-10788842D01*
X135655826Y-10788842D02*
X135841541Y-10788842D01*
X135841541Y-10788842D02*
X135965350Y-10850747D01*
X135965350Y-10850747D02*
X136027255Y-10912652D01*
X136027255Y-10912652D02*
X136089160Y-11036461D01*
X136089160Y-11036461D02*
X136089160Y-11345985D01*
X136089160Y-11345985D02*
X136027255Y-11469795D01*
X136027255Y-11469795D02*
X135965350Y-11531700D01*
X135965350Y-11531700D02*
X135841541Y-11593604D01*
X135841541Y-11593604D02*
X135470112Y-11593604D01*
X135470112Y-11593604D02*
X135346303Y-11531700D01*
X135346303Y-11531700D02*
X135284398Y-11469795D01*
D10*
D11*
X185965350Y-10726938D02*
X185965350Y-11593604D01*
X185655826Y-10231700D02*
X185346303Y-11160271D01*
X185346303Y-11160271D02*
X186151064Y-11160271D01*
D10*
D11*
X236027255Y-10293604D02*
X235408207Y-10293604D01*
X235408207Y-10293604D02*
X235346303Y-10912652D01*
X235346303Y-10912652D02*
X235408207Y-10850747D01*
X235408207Y-10850747D02*
X235532017Y-10788842D01*
X235532017Y-10788842D02*
X235841541Y-10788842D01*
X235841541Y-10788842D02*
X235965350Y-10850747D01*
X235965350Y-10850747D02*
X236027255Y-10912652D01*
X236027255Y-10912652D02*
X236089160Y-11036461D01*
X236089160Y-11036461D02*
X236089160Y-11345985D01*
X236089160Y-11345985D02*
X236027255Y-11469795D01*
X236027255Y-11469795D02*
X235965350Y-11531700D01*
X235965350Y-11531700D02*
X235841541Y-11593604D01*
X235841541Y-11593604D02*
X235532017Y-11593604D01*
X235532017Y-11593604D02*
X235408207Y-11531700D01*
X235408207Y-11531700D02*
X235346303Y-11469795D01*
D10*
D11*
X285965350Y-10293604D02*
X285717731Y-10293604D01*
X285717731Y-10293604D02*
X285593922Y-10355509D01*
X285593922Y-10355509D02*
X285532017Y-10417414D01*
X285532017Y-10417414D02*
X285408207Y-10603128D01*
X285408207Y-10603128D02*
X285346303Y-10850747D01*
X285346303Y-10850747D02*
X285346303Y-11345985D01*
X285346303Y-11345985D02*
X285408207Y-11469795D01*
X285408207Y-11469795D02*
X285470112Y-11531700D01*
X285470112Y-11531700D02*
X285593922Y-11593604D01*
X285593922Y-11593604D02*
X285841541Y-11593604D01*
X285841541Y-11593604D02*
X285965350Y-11531700D01*
X285965350Y-11531700D02*
X286027255Y-11469795D01*
X286027255Y-11469795D02*
X286089160Y-11345985D01*
X286089160Y-11345985D02*
X286089160Y-11036461D01*
X286089160Y-11036461D02*
X286027255Y-10912652D01*
X286027255Y-10912652D02*
X285965350Y-10850747D01*
X285965350Y-10850747D02*
X285841541Y-10788842D01*
X285841541Y-10788842D02*
X285593922Y-10788842D01*
X285593922Y-10788842D02*
X285470112Y-10850747D01*
X285470112Y-10850747D02*
X285408207Y-10912652D01*
X285408207Y-10912652D02*
X285346303Y-11036461D01*
D10*
D11*
X335284398Y-10293604D02*
X336151064Y-10293604D01*
X336151064Y-10293604D02*
X335593922Y-11593604D01*
D10*
D11*
X385593922Y-10850747D02*
X385470112Y-10788842D01*
X385470112Y-10788842D02*
X385408207Y-10726938D01*
X385408207Y-10726938D02*
X385346303Y-10603128D01*
X385346303Y-10603128D02*
X385346303Y-10541223D01*
X385346303Y-10541223D02*
X385408207Y-10417414D01*
X385408207Y-10417414D02*
X385470112Y-10355509D01*
X385470112Y-10355509D02*
X385593922Y-10293604D01*
X385593922Y-10293604D02*
X385841541Y-10293604D01*
X385841541Y-10293604D02*
X385965350Y-10355509D01*
X385965350Y-10355509D02*
X386027255Y-10417414D01*
X386027255Y-10417414D02*
X386089160Y-10541223D01*
X386089160Y-10541223D02*
X386089160Y-10603128D01*
X386089160Y-10603128D02*
X386027255Y-10726938D01*
X386027255Y-10726938D02*
X385965350Y-10788842D01*
X385965350Y-10788842D02*
X385841541Y-10850747D01*
X385841541Y-10850747D02*
X385593922Y-10850747D01*
X385593922Y-10850747D02*
X385470112Y-10912652D01*
X385470112Y-10912652D02*
X385408207Y-10974557D01*
X385408207Y-10974557D02*
X385346303Y-11098366D01*
X385346303Y-11098366D02*
X385346303Y-11345985D01*
X385346303Y-11345985D02*
X385408207Y-11469795D01*
X385408207Y-11469795D02*
X385470112Y-11531700D01*
X385470112Y-11531700D02*
X385593922Y-11593604D01*
X385593922Y-11593604D02*
X385841541Y-11593604D01*
X385841541Y-11593604D02*
X385965350Y-11531700D01*
X385965350Y-11531700D02*
X386027255Y-11469795D01*
X386027255Y-11469795D02*
X386089160Y-11345985D01*
X386089160Y-11345985D02*
X386089160Y-11098366D01*
X386089160Y-11098366D02*
X386027255Y-10974557D01*
X386027255Y-10974557D02*
X385965350Y-10912652D01*
X385965350Y-10912652D02*
X385841541Y-10850747D01*
D10*
D11*
X60000000Y-285002200D02*
X60000000Y-287002200D01*
D10*
D11*
X110000000Y-285002200D02*
X110000000Y-287002200D01*
D10*
D11*
X160000000Y-285002200D02*
X160000000Y-287002200D01*
D10*
D11*
X210000000Y-285002200D02*
X210000000Y-287002200D01*
D10*
D11*
X260000000Y-285002200D02*
X260000000Y-287002200D01*
D10*
D11*
X310000000Y-285002200D02*
X310000000Y-287002200D01*
D10*
D11*
X360000000Y-285002200D02*
X360000000Y-287002200D01*
D10*
D11*
X36089160Y-286595804D02*
X35346303Y-286595804D01*
X35717731Y-286595804D02*
X35717731Y-285295804D01*
X35717731Y-285295804D02*
X35593922Y-285481519D01*
X35593922Y-285481519D02*
X35470112Y-285605328D01*
X35470112Y-285605328D02*
X35346303Y-285667233D01*
D10*
D11*
X85346303Y-285419614D02*
X85408207Y-285357709D01*
X85408207Y-285357709D02*
X85532017Y-285295804D01*
X85532017Y-285295804D02*
X85841541Y-285295804D01*
X85841541Y-285295804D02*
X85965350Y-285357709D01*
X85965350Y-285357709D02*
X86027255Y-285419614D01*
X86027255Y-285419614D02*
X86089160Y-285543423D01*
X86089160Y-285543423D02*
X86089160Y-285667233D01*
X86089160Y-285667233D02*
X86027255Y-285852947D01*
X86027255Y-285852947D02*
X85284398Y-286595804D01*
X85284398Y-286595804D02*
X86089160Y-286595804D01*
D10*
D11*
X135284398Y-285295804D02*
X136089160Y-285295804D01*
X136089160Y-285295804D02*
X135655826Y-285791042D01*
X135655826Y-285791042D02*
X135841541Y-285791042D01*
X135841541Y-285791042D02*
X135965350Y-285852947D01*
X135965350Y-285852947D02*
X136027255Y-285914852D01*
X136027255Y-285914852D02*
X136089160Y-286038661D01*
X136089160Y-286038661D02*
X136089160Y-286348185D01*
X136089160Y-286348185D02*
X136027255Y-286471995D01*
X136027255Y-286471995D02*
X135965350Y-286533900D01*
X135965350Y-286533900D02*
X135841541Y-286595804D01*
X135841541Y-286595804D02*
X135470112Y-286595804D01*
X135470112Y-286595804D02*
X135346303Y-286533900D01*
X135346303Y-286533900D02*
X135284398Y-286471995D01*
D10*
D11*
X185965350Y-285729138D02*
X185965350Y-286595804D01*
X185655826Y-285233900D02*
X185346303Y-286162471D01*
X185346303Y-286162471D02*
X186151064Y-286162471D01*
D10*
D11*
X236027255Y-285295804D02*
X235408207Y-285295804D01*
X235408207Y-285295804D02*
X235346303Y-285914852D01*
X235346303Y-285914852D02*
X235408207Y-285852947D01*
X235408207Y-285852947D02*
X235532017Y-285791042D01*
X235532017Y-285791042D02*
X235841541Y-285791042D01*
X235841541Y-285791042D02*
X235965350Y-285852947D01*
X235965350Y-285852947D02*
X236027255Y-285914852D01*
X236027255Y-285914852D02*
X236089160Y-286038661D01*
X236089160Y-286038661D02*
X236089160Y-286348185D01*
X236089160Y-286348185D02*
X236027255Y-286471995D01*
X236027255Y-286471995D02*
X235965350Y-286533900D01*
X235965350Y-286533900D02*
X235841541Y-286595804D01*
X235841541Y-286595804D02*
X235532017Y-286595804D01*
X235532017Y-286595804D02*
X235408207Y-286533900D01*
X235408207Y-286533900D02*
X235346303Y-286471995D01*
D10*
D11*
X285965350Y-285295804D02*
X285717731Y-285295804D01*
X285717731Y-285295804D02*
X285593922Y-285357709D01*
X285593922Y-285357709D02*
X285532017Y-285419614D01*
X285532017Y-285419614D02*
X285408207Y-285605328D01*
X285408207Y-285605328D02*
X285346303Y-285852947D01*
X285346303Y-285852947D02*
X285346303Y-286348185D01*
X285346303Y-286348185D02*
X285408207Y-286471995D01*
X285408207Y-286471995D02*
X285470112Y-286533900D01*
X285470112Y-286533900D02*
X285593922Y-286595804D01*
X285593922Y-286595804D02*
X285841541Y-286595804D01*
X285841541Y-286595804D02*
X285965350Y-286533900D01*
X285965350Y-286533900D02*
X286027255Y-286471995D01*
X286027255Y-286471995D02*
X286089160Y-286348185D01*
X286089160Y-286348185D02*
X286089160Y-286038661D01*
X286089160Y-286038661D02*
X286027255Y-285914852D01*
X286027255Y-285914852D02*
X285965350Y-285852947D01*
X285965350Y-285852947D02*
X285841541Y-285791042D01*
X285841541Y-285791042D02*
X285593922Y-285791042D01*
X285593922Y-285791042D02*
X285470112Y-285852947D01*
X285470112Y-285852947D02*
X285408207Y-285914852D01*
X285408207Y-285914852D02*
X285346303Y-286038661D01*
D10*
D11*
X335284398Y-285295804D02*
X336151064Y-285295804D01*
X336151064Y-285295804D02*
X335593922Y-286595804D01*
D10*
D11*
X385593922Y-285852947D02*
X385470112Y-285791042D01*
X385470112Y-285791042D02*
X385408207Y-285729138D01*
X385408207Y-285729138D02*
X385346303Y-285605328D01*
X385346303Y-285605328D02*
X385346303Y-285543423D01*
X385346303Y-285543423D02*
X385408207Y-285419614D01*
X385408207Y-285419614D02*
X385470112Y-285357709D01*
X385470112Y-285357709D02*
X385593922Y-285295804D01*
X385593922Y-285295804D02*
X385841541Y-285295804D01*
X385841541Y-285295804D02*
X385965350Y-285357709D01*
X385965350Y-285357709D02*
X386027255Y-285419614D01*
X386027255Y-285419614D02*
X386089160Y-285543423D01*
X386089160Y-285543423D02*
X386089160Y-285605328D01*
X386089160Y-285605328D02*
X386027255Y-285729138D01*
X386027255Y-285729138D02*
X385965350Y-285791042D01*
X385965350Y-285791042D02*
X385841541Y-285852947D01*
X385841541Y-285852947D02*
X385593922Y-285852947D01*
X385593922Y-285852947D02*
X385470112Y-285914852D01*
X385470112Y-285914852D02*
X385408207Y-285976757D01*
X385408207Y-285976757D02*
X385346303Y-286100566D01*
X385346303Y-286100566D02*
X385346303Y-286348185D01*
X385346303Y-286348185D02*
X385408207Y-286471995D01*
X385408207Y-286471995D02*
X385470112Y-286533900D01*
X385470112Y-286533900D02*
X385593922Y-286595804D01*
X385593922Y-286595804D02*
X385841541Y-286595804D01*
X385841541Y-286595804D02*
X385965350Y-286533900D01*
X385965350Y-286533900D02*
X386027255Y-286471995D01*
X386027255Y-286471995D02*
X386089160Y-286348185D01*
X386089160Y-286348185D02*
X386089160Y-286100566D01*
X386089160Y-286100566D02*
X386027255Y-285976757D01*
X386027255Y-285976757D02*
X385965350Y-285914852D01*
X385965350Y-285914852D02*
X385841541Y-285852947D01*
D10*
D11*
X10000000Y-60000000D02*
X12000000Y-60000000D01*
D10*
D11*
X10000000Y-110000000D02*
X12000000Y-110000000D01*
D10*
D11*
X10000000Y-160000000D02*
X12000000Y-160000000D01*
D10*
D11*
X10000000Y-210000000D02*
X12000000Y-210000000D01*
D10*
D11*
X10000000Y-260000000D02*
X12000000Y-260000000D01*
D10*
D11*
X10690476Y-35222176D02*
X11309523Y-35222176D01*
X10566666Y-35593604D02*
X10999999Y-34293604D01*
X10999999Y-34293604D02*
X11433333Y-35593604D01*
D10*
D11*
X11092857Y-84912652D02*
X11278571Y-84974557D01*
X11278571Y-84974557D02*
X11340476Y-85036461D01*
X11340476Y-85036461D02*
X11402380Y-85160271D01*
X11402380Y-85160271D02*
X11402380Y-85345985D01*
X11402380Y-85345985D02*
X11340476Y-85469795D01*
X11340476Y-85469795D02*
X11278571Y-85531700D01*
X11278571Y-85531700D02*
X11154761Y-85593604D01*
X11154761Y-85593604D02*
X10659523Y-85593604D01*
X10659523Y-85593604D02*
X10659523Y-84293604D01*
X10659523Y-84293604D02*
X11092857Y-84293604D01*
X11092857Y-84293604D02*
X11216666Y-84355509D01*
X11216666Y-84355509D02*
X11278571Y-84417414D01*
X11278571Y-84417414D02*
X11340476Y-84541223D01*
X11340476Y-84541223D02*
X11340476Y-84665033D01*
X11340476Y-84665033D02*
X11278571Y-84788842D01*
X11278571Y-84788842D02*
X11216666Y-84850747D01*
X11216666Y-84850747D02*
X11092857Y-84912652D01*
X11092857Y-84912652D02*
X10659523Y-84912652D01*
D10*
D11*
X11402380Y-135469795D02*
X11340476Y-135531700D01*
X11340476Y-135531700D02*
X11154761Y-135593604D01*
X11154761Y-135593604D02*
X11030952Y-135593604D01*
X11030952Y-135593604D02*
X10845238Y-135531700D01*
X10845238Y-135531700D02*
X10721428Y-135407890D01*
X10721428Y-135407890D02*
X10659523Y-135284080D01*
X10659523Y-135284080D02*
X10597619Y-135036461D01*
X10597619Y-135036461D02*
X10597619Y-134850747D01*
X10597619Y-134850747D02*
X10659523Y-134603128D01*
X10659523Y-134603128D02*
X10721428Y-134479319D01*
X10721428Y-134479319D02*
X10845238Y-134355509D01*
X10845238Y-134355509D02*
X11030952Y-134293604D01*
X11030952Y-134293604D02*
X11154761Y-134293604D01*
X11154761Y-134293604D02*
X11340476Y-134355509D01*
X11340476Y-134355509D02*
X11402380Y-134417414D01*
D10*
D11*
X10659523Y-185593604D02*
X10659523Y-184293604D01*
X10659523Y-184293604D02*
X10969047Y-184293604D01*
X10969047Y-184293604D02*
X11154761Y-184355509D01*
X11154761Y-184355509D02*
X11278571Y-184479319D01*
X11278571Y-184479319D02*
X11340476Y-184603128D01*
X11340476Y-184603128D02*
X11402380Y-184850747D01*
X11402380Y-184850747D02*
X11402380Y-185036461D01*
X11402380Y-185036461D02*
X11340476Y-185284080D01*
X11340476Y-185284080D02*
X11278571Y-185407890D01*
X11278571Y-185407890D02*
X11154761Y-185531700D01*
X11154761Y-185531700D02*
X10969047Y-185593604D01*
X10969047Y-185593604D02*
X10659523Y-185593604D01*
D10*
D11*
X10721428Y-234912652D02*
X11154762Y-234912652D01*
X11340476Y-235593604D02*
X10721428Y-235593604D01*
X10721428Y-235593604D02*
X10721428Y-234293604D01*
X10721428Y-234293604D02*
X11340476Y-234293604D01*
D10*
D11*
X11185714Y-284912652D02*
X10752380Y-284912652D01*
X10752380Y-285593604D02*
X10752380Y-284293604D01*
X10752380Y-284293604D02*
X11371428Y-284293604D01*
D10*
D11*
X409989000Y-60000000D02*
X407989000Y-60000000D01*
D10*
D11*
X409989000Y-110000000D02*
X407989000Y-110000000D01*
D10*
D11*
X409989000Y-160000000D02*
X407989000Y-160000000D01*
D10*
D11*
X409989000Y-210000000D02*
X407989000Y-210000000D01*
D10*
D11*
X409989000Y-260000000D02*
X407989000Y-260000000D01*
D10*
D11*
X408679476Y-35222176D02*
X409298523Y-35222176D01*
X408555666Y-35593604D02*
X408988999Y-34293604D01*
X408988999Y-34293604D02*
X409422333Y-35593604D01*
D10*
D11*
X409081857Y-84912652D02*
X409267571Y-84974557D01*
X409267571Y-84974557D02*
X409329476Y-85036461D01*
X409329476Y-85036461D02*
X409391380Y-85160271D01*
X409391380Y-85160271D02*
X409391380Y-85345985D01*
X409391380Y-85345985D02*
X409329476Y-85469795D01*
X409329476Y-85469795D02*
X409267571Y-85531700D01*
X409267571Y-85531700D02*
X409143761Y-85593604D01*
X409143761Y-85593604D02*
X408648523Y-85593604D01*
X408648523Y-85593604D02*
X408648523Y-84293604D01*
X408648523Y-84293604D02*
X409081857Y-84293604D01*
X409081857Y-84293604D02*
X409205666Y-84355509D01*
X409205666Y-84355509D02*
X409267571Y-84417414D01*
X409267571Y-84417414D02*
X409329476Y-84541223D01*
X409329476Y-84541223D02*
X409329476Y-84665033D01*
X409329476Y-84665033D02*
X409267571Y-84788842D01*
X409267571Y-84788842D02*
X409205666Y-84850747D01*
X409205666Y-84850747D02*
X409081857Y-84912652D01*
X409081857Y-84912652D02*
X408648523Y-84912652D01*
D10*
D11*
X409391380Y-135469795D02*
X409329476Y-135531700D01*
X409329476Y-135531700D02*
X409143761Y-135593604D01*
X409143761Y-135593604D02*
X409019952Y-135593604D01*
X409019952Y-135593604D02*
X408834238Y-135531700D01*
X408834238Y-135531700D02*
X408710428Y-135407890D01*
X408710428Y-135407890D02*
X408648523Y-135284080D01*
X408648523Y-135284080D02*
X408586619Y-135036461D01*
X408586619Y-135036461D02*
X408586619Y-134850747D01*
X408586619Y-134850747D02*
X408648523Y-134603128D01*
X408648523Y-134603128D02*
X408710428Y-134479319D01*
X408710428Y-134479319D02*
X408834238Y-134355509D01*
X408834238Y-134355509D02*
X409019952Y-134293604D01*
X409019952Y-134293604D02*
X409143761Y-134293604D01*
X409143761Y-134293604D02*
X409329476Y-134355509D01*
X409329476Y-134355509D02*
X409391380Y-134417414D01*
D10*
D11*
X408648523Y-185593604D02*
X408648523Y-184293604D01*
X408648523Y-184293604D02*
X408958047Y-184293604D01*
X408958047Y-184293604D02*
X409143761Y-184355509D01*
X409143761Y-184355509D02*
X409267571Y-184479319D01*
X409267571Y-184479319D02*
X409329476Y-184603128D01*
X409329476Y-184603128D02*
X409391380Y-184850747D01*
X409391380Y-184850747D02*
X409391380Y-185036461D01*
X409391380Y-185036461D02*
X409329476Y-185284080D01*
X409329476Y-185284080D02*
X409267571Y-185407890D01*
X409267571Y-185407890D02*
X409143761Y-185531700D01*
X409143761Y-185531700D02*
X408958047Y-185593604D01*
X408958047Y-185593604D02*
X408648523Y-185593604D01*
D10*
D11*
X408710428Y-234912652D02*
X409143762Y-234912652D01*
X409329476Y-235593604D02*
X408710428Y-235593604D01*
X408710428Y-235593604D02*
X408710428Y-234293604D01*
X408710428Y-234293604D02*
X409329476Y-234293604D01*
D10*
D11*
X409174714Y-284912652D02*
X408741380Y-284912652D01*
X408741380Y-285593604D02*
X408741380Y-284293604D01*
X408741380Y-284293604D02*
X409360428Y-284293604D01*
D10*
D11*
X323444826Y-280788328D02*
X323444826Y-279288328D01*
X323444826Y-279288328D02*
X323801969Y-279288328D01*
X323801969Y-279288328D02*
X324016255Y-279359757D01*
X324016255Y-279359757D02*
X324159112Y-279502614D01*
X324159112Y-279502614D02*
X324230541Y-279645471D01*
X324230541Y-279645471D02*
X324301969Y-279931185D01*
X324301969Y-279931185D02*
X324301969Y-280145471D01*
X324301969Y-280145471D02*
X324230541Y-280431185D01*
X324230541Y-280431185D02*
X324159112Y-280574042D01*
X324159112Y-280574042D02*
X324016255Y-280716900D01*
X324016255Y-280716900D02*
X323801969Y-280788328D01*
X323801969Y-280788328D02*
X323444826Y-280788328D01*
X325587684Y-280788328D02*
X325587684Y-280002614D01*
X325587684Y-280002614D02*
X325516255Y-279859757D01*
X325516255Y-279859757D02*
X325373398Y-279788328D01*
X325373398Y-279788328D02*
X325087684Y-279788328D01*
X325087684Y-279788328D02*
X324944826Y-279859757D01*
X325587684Y-280716900D02*
X325444826Y-280788328D01*
X325444826Y-280788328D02*
X325087684Y-280788328D01*
X325087684Y-280788328D02*
X324944826Y-280716900D01*
X324944826Y-280716900D02*
X324873398Y-280574042D01*
X324873398Y-280574042D02*
X324873398Y-280431185D01*
X324873398Y-280431185D02*
X324944826Y-280288328D01*
X324944826Y-280288328D02*
X325087684Y-280216900D01*
X325087684Y-280216900D02*
X325444826Y-280216900D01*
X325444826Y-280216900D02*
X325587684Y-280145471D01*
X326087684Y-279788328D02*
X326659112Y-279788328D01*
X326301969Y-279288328D02*
X326301969Y-280574042D01*
X326301969Y-280574042D02*
X326373398Y-280716900D01*
X326373398Y-280716900D02*
X326516255Y-280788328D01*
X326516255Y-280788328D02*
X326659112Y-280788328D01*
X327730541Y-280716900D02*
X327587684Y-280788328D01*
X327587684Y-280788328D02*
X327301970Y-280788328D01*
X327301970Y-280788328D02*
X327159112Y-280716900D01*
X327159112Y-280716900D02*
X327087684Y-280574042D01*
X327087684Y-280574042D02*
X327087684Y-280002614D01*
X327087684Y-280002614D02*
X327159112Y-279859757D01*
X327159112Y-279859757D02*
X327301970Y-279788328D01*
X327301970Y-279788328D02*
X327587684Y-279788328D01*
X327587684Y-279788328D02*
X327730541Y-279859757D01*
X327730541Y-279859757D02*
X327801970Y-280002614D01*
X327801970Y-280002614D02*
X327801970Y-280145471D01*
X327801970Y-280145471D02*
X327087684Y-280288328D01*
X328444826Y-280645471D02*
X328516255Y-280716900D01*
X328516255Y-280716900D02*
X328444826Y-280788328D01*
X328444826Y-280788328D02*
X328373398Y-280716900D01*
X328373398Y-280716900D02*
X328444826Y-280645471D01*
X328444826Y-280645471D02*
X328444826Y-280788328D01*
X328444826Y-279859757D02*
X328516255Y-279931185D01*
X328516255Y-279931185D02*
X328444826Y-280002614D01*
X328444826Y-280002614D02*
X328373398Y-279931185D01*
X328373398Y-279931185D02*
X328444826Y-279859757D01*
X328444826Y-279859757D02*
X328444826Y-280002614D01*
X330230541Y-279431185D02*
X330301969Y-279359757D01*
X330301969Y-279359757D02*
X330444827Y-279288328D01*
X330444827Y-279288328D02*
X330801969Y-279288328D01*
X330801969Y-279288328D02*
X330944827Y-279359757D01*
X330944827Y-279359757D02*
X331016255Y-279431185D01*
X331016255Y-279431185D02*
X331087684Y-279574042D01*
X331087684Y-279574042D02*
X331087684Y-279716900D01*
X331087684Y-279716900D02*
X331016255Y-279931185D01*
X331016255Y-279931185D02*
X330159112Y-280788328D01*
X330159112Y-280788328D02*
X331087684Y-280788328D01*
X332016255Y-279288328D02*
X332159112Y-279288328D01*
X332159112Y-279288328D02*
X332301969Y-279359757D01*
X332301969Y-279359757D02*
X332373398Y-279431185D01*
X332373398Y-279431185D02*
X332444826Y-279574042D01*
X332444826Y-279574042D02*
X332516255Y-279859757D01*
X332516255Y-279859757D02*
X332516255Y-280216900D01*
X332516255Y-280216900D02*
X332444826Y-280502614D01*
X332444826Y-280502614D02*
X332373398Y-280645471D01*
X332373398Y-280645471D02*
X332301969Y-280716900D01*
X332301969Y-280716900D02*
X332159112Y-280788328D01*
X332159112Y-280788328D02*
X332016255Y-280788328D01*
X332016255Y-280788328D02*
X331873398Y-280716900D01*
X331873398Y-280716900D02*
X331801969Y-280645471D01*
X331801969Y-280645471D02*
X331730540Y-280502614D01*
X331730540Y-280502614D02*
X331659112Y-280216900D01*
X331659112Y-280216900D02*
X331659112Y-279859757D01*
X331659112Y-279859757D02*
X331730540Y-279574042D01*
X331730540Y-279574042D02*
X331801969Y-279431185D01*
X331801969Y-279431185D02*
X331873398Y-279359757D01*
X331873398Y-279359757D02*
X332016255Y-279288328D01*
X333087683Y-279431185D02*
X333159111Y-279359757D01*
X333159111Y-279359757D02*
X333301969Y-279288328D01*
X333301969Y-279288328D02*
X333659111Y-279288328D01*
X333659111Y-279288328D02*
X333801969Y-279359757D01*
X333801969Y-279359757D02*
X333873397Y-279431185D01*
X333873397Y-279431185D02*
X333944826Y-279574042D01*
X333944826Y-279574042D02*
X333944826Y-279716900D01*
X333944826Y-279716900D02*
X333873397Y-279931185D01*
X333873397Y-279931185D02*
X333016254Y-280788328D01*
X333016254Y-280788328D02*
X333944826Y-280788328D01*
X335230540Y-279788328D02*
X335230540Y-280788328D01*
X334873397Y-279216900D02*
X334516254Y-280288328D01*
X334516254Y-280288328D02*
X335444825Y-280288328D01*
X336016253Y-280216900D02*
X337159111Y-280216900D01*
X338159111Y-279288328D02*
X338301968Y-279288328D01*
X338301968Y-279288328D02*
X338444825Y-279359757D01*
X338444825Y-279359757D02*
X338516254Y-279431185D01*
X338516254Y-279431185D02*
X338587682Y-279574042D01*
X338587682Y-279574042D02*
X338659111Y-279859757D01*
X338659111Y-279859757D02*
X338659111Y-280216900D01*
X338659111Y-280216900D02*
X338587682Y-280502614D01*
X338587682Y-280502614D02*
X338516254Y-280645471D01*
X338516254Y-280645471D02*
X338444825Y-280716900D01*
X338444825Y-280716900D02*
X338301968Y-280788328D01*
X338301968Y-280788328D02*
X338159111Y-280788328D01*
X338159111Y-280788328D02*
X338016254Y-280716900D01*
X338016254Y-280716900D02*
X337944825Y-280645471D01*
X337944825Y-280645471D02*
X337873396Y-280502614D01*
X337873396Y-280502614D02*
X337801968Y-280216900D01*
X337801968Y-280216900D02*
X337801968Y-279859757D01*
X337801968Y-279859757D02*
X337873396Y-279574042D01*
X337873396Y-279574042D02*
X337944825Y-279431185D01*
X337944825Y-279431185D02*
X338016254Y-279359757D01*
X338016254Y-279359757D02*
X338159111Y-279288328D01*
X339944825Y-279788328D02*
X339944825Y-280788328D01*
X339587682Y-279216900D02*
X339230539Y-280288328D01*
X339230539Y-280288328D02*
X340159110Y-280288328D01*
X340730538Y-280216900D02*
X341873396Y-280216900D01*
X342873396Y-279288328D02*
X343016253Y-279288328D01*
X343016253Y-279288328D02*
X343159110Y-279359757D01*
X343159110Y-279359757D02*
X343230539Y-279431185D01*
X343230539Y-279431185D02*
X343301967Y-279574042D01*
X343301967Y-279574042D02*
X343373396Y-279859757D01*
X343373396Y-279859757D02*
X343373396Y-280216900D01*
X343373396Y-280216900D02*
X343301967Y-280502614D01*
X343301967Y-280502614D02*
X343230539Y-280645471D01*
X343230539Y-280645471D02*
X343159110Y-280716900D01*
X343159110Y-280716900D02*
X343016253Y-280788328D01*
X343016253Y-280788328D02*
X342873396Y-280788328D01*
X342873396Y-280788328D02*
X342730539Y-280716900D01*
X342730539Y-280716900D02*
X342659110Y-280645471D01*
X342659110Y-280645471D02*
X342587681Y-280502614D01*
X342587681Y-280502614D02*
X342516253Y-280216900D01*
X342516253Y-280216900D02*
X342516253Y-279859757D01*
X342516253Y-279859757D02*
X342587681Y-279574042D01*
X342587681Y-279574042D02*
X342659110Y-279431185D01*
X342659110Y-279431185D02*
X342730539Y-279359757D01*
X342730539Y-279359757D02*
X342873396Y-279288328D01*
X343873395Y-279288328D02*
X344801967Y-279288328D01*
X344801967Y-279288328D02*
X344301967Y-279859757D01*
X344301967Y-279859757D02*
X344516252Y-279859757D01*
X344516252Y-279859757D02*
X344659110Y-279931185D01*
X344659110Y-279931185D02*
X344730538Y-280002614D01*
X344730538Y-280002614D02*
X344801967Y-280145471D01*
X344801967Y-280145471D02*
X344801967Y-280502614D01*
X344801967Y-280502614D02*
X344730538Y-280645471D01*
X344730538Y-280645471D02*
X344659110Y-280716900D01*
X344659110Y-280716900D02*
X344516252Y-280788328D01*
X344516252Y-280788328D02*
X344087681Y-280788328D01*
X344087681Y-280788328D02*
X343944824Y-280716900D01*
X343944824Y-280716900D02*
X343873395Y-280645471D01*
D10*
D11*
X299989000Y-281502200D02*
X407989000Y-281502200D01*
D10*
D11*
X301444826Y-283588328D02*
X301444826Y-282088328D01*
X302301969Y-283588328D02*
X301659112Y-282731185D01*
X302301969Y-282088328D02*
X301444826Y-282945471D01*
X302944826Y-283588328D02*
X302944826Y-282588328D01*
X302944826Y-282088328D02*
X302873398Y-282159757D01*
X302873398Y-282159757D02*
X302944826Y-282231185D01*
X302944826Y-282231185D02*
X303016255Y-282159757D01*
X303016255Y-282159757D02*
X302944826Y-282088328D01*
X302944826Y-282088328D02*
X302944826Y-282231185D01*
X304516255Y-283445471D02*
X304444827Y-283516900D01*
X304444827Y-283516900D02*
X304230541Y-283588328D01*
X304230541Y-283588328D02*
X304087684Y-283588328D01*
X304087684Y-283588328D02*
X303873398Y-283516900D01*
X303873398Y-283516900D02*
X303730541Y-283374042D01*
X303730541Y-283374042D02*
X303659112Y-283231185D01*
X303659112Y-283231185D02*
X303587684Y-282945471D01*
X303587684Y-282945471D02*
X303587684Y-282731185D01*
X303587684Y-282731185D02*
X303659112Y-282445471D01*
X303659112Y-282445471D02*
X303730541Y-282302614D01*
X303730541Y-282302614D02*
X303873398Y-282159757D01*
X303873398Y-282159757D02*
X304087684Y-282088328D01*
X304087684Y-282088328D02*
X304230541Y-282088328D01*
X304230541Y-282088328D02*
X304444827Y-282159757D01*
X304444827Y-282159757D02*
X304516255Y-282231185D01*
X305801970Y-283588328D02*
X305801970Y-282802614D01*
X305801970Y-282802614D02*
X305730541Y-282659757D01*
X305730541Y-282659757D02*
X305587684Y-282588328D01*
X305587684Y-282588328D02*
X305301970Y-282588328D01*
X305301970Y-282588328D02*
X305159112Y-282659757D01*
X305801970Y-283516900D02*
X305659112Y-283588328D01*
X305659112Y-283588328D02*
X305301970Y-283588328D01*
X305301970Y-283588328D02*
X305159112Y-283516900D01*
X305159112Y-283516900D02*
X305087684Y-283374042D01*
X305087684Y-283374042D02*
X305087684Y-283231185D01*
X305087684Y-283231185D02*
X305159112Y-283088328D01*
X305159112Y-283088328D02*
X305301970Y-283016900D01*
X305301970Y-283016900D02*
X305659112Y-283016900D01*
X305659112Y-283016900D02*
X305801970Y-282945471D01*
X307159113Y-283588328D02*
X307159113Y-282088328D01*
X307159113Y-283516900D02*
X307016255Y-283588328D01*
X307016255Y-283588328D02*
X306730541Y-283588328D01*
X306730541Y-283588328D02*
X306587684Y-283516900D01*
X306587684Y-283516900D02*
X306516255Y-283445471D01*
X306516255Y-283445471D02*
X306444827Y-283302614D01*
X306444827Y-283302614D02*
X306444827Y-282874042D01*
X306444827Y-282874042D02*
X306516255Y-282731185D01*
X306516255Y-282731185D02*
X306587684Y-282659757D01*
X306587684Y-282659757D02*
X306730541Y-282588328D01*
X306730541Y-282588328D02*
X307016255Y-282588328D01*
X307016255Y-282588328D02*
X307159113Y-282659757D01*
X309016255Y-282802614D02*
X309516255Y-282802614D01*
X309730541Y-283588328D02*
X309016255Y-283588328D01*
X309016255Y-283588328D02*
X309016255Y-282088328D01*
X309016255Y-282088328D02*
X309730541Y-282088328D01*
X310373398Y-283445471D02*
X310444827Y-283516900D01*
X310444827Y-283516900D02*
X310373398Y-283588328D01*
X310373398Y-283588328D02*
X310301970Y-283516900D01*
X310301970Y-283516900D02*
X310373398Y-283445471D01*
X310373398Y-283445471D02*
X310373398Y-283588328D01*
X311087684Y-283588328D02*
X311087684Y-282088328D01*
X311087684Y-282088328D02*
X311444827Y-282088328D01*
X311444827Y-282088328D02*
X311659113Y-282159757D01*
X311659113Y-282159757D02*
X311801970Y-282302614D01*
X311801970Y-282302614D02*
X311873399Y-282445471D01*
X311873399Y-282445471D02*
X311944827Y-282731185D01*
X311944827Y-282731185D02*
X311944827Y-282945471D01*
X311944827Y-282945471D02*
X311873399Y-283231185D01*
X311873399Y-283231185D02*
X311801970Y-283374042D01*
X311801970Y-283374042D02*
X311659113Y-283516900D01*
X311659113Y-283516900D02*
X311444827Y-283588328D01*
X311444827Y-283588328D02*
X311087684Y-283588328D01*
X312587684Y-283445471D02*
X312659113Y-283516900D01*
X312659113Y-283516900D02*
X312587684Y-283588328D01*
X312587684Y-283588328D02*
X312516256Y-283516900D01*
X312516256Y-283516900D02*
X312587684Y-283445471D01*
X312587684Y-283445471D02*
X312587684Y-283588328D01*
X313230542Y-283159757D02*
X313944828Y-283159757D01*
X313087685Y-283588328D02*
X313587685Y-282088328D01*
X313587685Y-282088328D02*
X314087685Y-283588328D01*
X314587684Y-283445471D02*
X314659113Y-283516900D01*
X314659113Y-283516900D02*
X314587684Y-283588328D01*
X314587684Y-283588328D02*
X314516256Y-283516900D01*
X314516256Y-283516900D02*
X314587684Y-283445471D01*
X314587684Y-283445471D02*
X314587684Y-283588328D01*
X316659113Y-282731185D02*
X316516256Y-282659757D01*
X316516256Y-282659757D02*
X316444827Y-282588328D01*
X316444827Y-282588328D02*
X316373399Y-282445471D01*
X316373399Y-282445471D02*
X316373399Y-282374042D01*
X316373399Y-282374042D02*
X316444827Y-282231185D01*
X316444827Y-282231185D02*
X316516256Y-282159757D01*
X316516256Y-282159757D02*
X316659113Y-282088328D01*
X316659113Y-282088328D02*
X316944827Y-282088328D01*
X316944827Y-282088328D02*
X317087685Y-282159757D01*
X317087685Y-282159757D02*
X317159113Y-282231185D01*
X317159113Y-282231185D02*
X317230542Y-282374042D01*
X317230542Y-282374042D02*
X317230542Y-282445471D01*
X317230542Y-282445471D02*
X317159113Y-282588328D01*
X317159113Y-282588328D02*
X317087685Y-282659757D01*
X317087685Y-282659757D02*
X316944827Y-282731185D01*
X316944827Y-282731185D02*
X316659113Y-282731185D01*
X316659113Y-282731185D02*
X316516256Y-282802614D01*
X316516256Y-282802614D02*
X316444827Y-282874042D01*
X316444827Y-282874042D02*
X316373399Y-283016900D01*
X316373399Y-283016900D02*
X316373399Y-283302614D01*
X316373399Y-283302614D02*
X316444827Y-283445471D01*
X316444827Y-283445471D02*
X316516256Y-283516900D01*
X316516256Y-283516900D02*
X316659113Y-283588328D01*
X316659113Y-283588328D02*
X316944827Y-283588328D01*
X316944827Y-283588328D02*
X317087685Y-283516900D01*
X317087685Y-283516900D02*
X317159113Y-283445471D01*
X317159113Y-283445471D02*
X317230542Y-283302614D01*
X317230542Y-283302614D02*
X317230542Y-283016900D01*
X317230542Y-283016900D02*
X317159113Y-282874042D01*
X317159113Y-282874042D02*
X317087685Y-282802614D01*
X317087685Y-282802614D02*
X316944827Y-282731185D01*
X317873398Y-283445471D02*
X317944827Y-283516900D01*
X317944827Y-283516900D02*
X317873398Y-283588328D01*
X317873398Y-283588328D02*
X317801970Y-283516900D01*
X317801970Y-283516900D02*
X317873398Y-283445471D01*
X317873398Y-283445471D02*
X317873398Y-283588328D01*
X318873399Y-282088328D02*
X319016256Y-282088328D01*
X319016256Y-282088328D02*
X319159113Y-282159757D01*
X319159113Y-282159757D02*
X319230542Y-282231185D01*
X319230542Y-282231185D02*
X319301970Y-282374042D01*
X319301970Y-282374042D02*
X319373399Y-282659757D01*
X319373399Y-282659757D02*
X319373399Y-283016900D01*
X319373399Y-283016900D02*
X319301970Y-283302614D01*
X319301970Y-283302614D02*
X319230542Y-283445471D01*
X319230542Y-283445471D02*
X319159113Y-283516900D01*
X319159113Y-283516900D02*
X319016256Y-283588328D01*
X319016256Y-283588328D02*
X318873399Y-283588328D01*
X318873399Y-283588328D02*
X318730542Y-283516900D01*
X318730542Y-283516900D02*
X318659113Y-283445471D01*
X318659113Y-283445471D02*
X318587684Y-283302614D01*
X318587684Y-283302614D02*
X318516256Y-283016900D01*
X318516256Y-283016900D02*
X318516256Y-282659757D01*
X318516256Y-282659757D02*
X318587684Y-282374042D01*
X318587684Y-282374042D02*
X318659113Y-282231185D01*
X318659113Y-282231185D02*
X318730542Y-282159757D01*
X318730542Y-282159757D02*
X318873399Y-282088328D01*
X320016255Y-283445471D02*
X320087684Y-283516900D01*
X320087684Y-283516900D02*
X320016255Y-283588328D01*
X320016255Y-283588328D02*
X319944827Y-283516900D01*
X319944827Y-283516900D02*
X320016255Y-283445471D01*
X320016255Y-283445471D02*
X320016255Y-283588328D01*
X321516256Y-283588328D02*
X320659113Y-283588328D01*
X321087684Y-283588328D02*
X321087684Y-282088328D01*
X321087684Y-282088328D02*
X320944827Y-282302614D01*
X320944827Y-282302614D02*
X320801970Y-282445471D01*
X320801970Y-282445471D02*
X320659113Y-282516900D01*
D10*
D11*
X299989000Y-278502200D02*
X407989000Y-278502200D01*
D10*
D12*
X387400653Y-280780528D02*
X386900653Y-280066242D01*
X386543510Y-280780528D02*
X386543510Y-279280528D01*
X386543510Y-279280528D02*
X387114939Y-279280528D01*
X387114939Y-279280528D02*
X387257796Y-279351957D01*
X387257796Y-279351957D02*
X387329225Y-279423385D01*
X387329225Y-279423385D02*
X387400653Y-279566242D01*
X387400653Y-279566242D02*
X387400653Y-279780528D01*
X387400653Y-279780528D02*
X387329225Y-279923385D01*
X387329225Y-279923385D02*
X387257796Y-279994814D01*
X387257796Y-279994814D02*
X387114939Y-280066242D01*
X387114939Y-280066242D02*
X386543510Y-280066242D01*
X388614939Y-280709100D02*
X388472082Y-280780528D01*
X388472082Y-280780528D02*
X388186368Y-280780528D01*
X388186368Y-280780528D02*
X388043510Y-280709100D01*
X388043510Y-280709100D02*
X387972082Y-280566242D01*
X387972082Y-280566242D02*
X387972082Y-279994814D01*
X387972082Y-279994814D02*
X388043510Y-279851957D01*
X388043510Y-279851957D02*
X388186368Y-279780528D01*
X388186368Y-279780528D02*
X388472082Y-279780528D01*
X388472082Y-279780528D02*
X388614939Y-279851957D01*
X388614939Y-279851957D02*
X388686368Y-279994814D01*
X388686368Y-279994814D02*
X388686368Y-280137671D01*
X388686368Y-280137671D02*
X387972082Y-280280528D01*
X389186367Y-279780528D02*
X389543510Y-280780528D01*
X389543510Y-280780528D02*
X389900653Y-279780528D01*
X390472081Y-280637671D02*
X390543510Y-280709100D01*
X390543510Y-280709100D02*
X390472081Y-280780528D01*
X390472081Y-280780528D02*
X390400653Y-280709100D01*
X390400653Y-280709100D02*
X390472081Y-280637671D01*
X390472081Y-280637671D02*
X390472081Y-280780528D01*
X390472081Y-279851957D02*
X390543510Y-279923385D01*
X390543510Y-279923385D02*
X390472081Y-279994814D01*
X390472081Y-279994814D02*
X390400653Y-279923385D01*
X390400653Y-279923385D02*
X390472081Y-279851957D01*
X390472081Y-279851957D02*
X390472081Y-279994814D01*
X392329224Y-280780528D02*
X392329224Y-279280528D01*
X392329224Y-279280528D02*
X392900653Y-279280528D01*
X392900653Y-279280528D02*
X393043510Y-279351957D01*
X393043510Y-279351957D02*
X393114939Y-279423385D01*
X393114939Y-279423385D02*
X393186367Y-279566242D01*
X393186367Y-279566242D02*
X393186367Y-279780528D01*
X393186367Y-279780528D02*
X393114939Y-279923385D01*
X393114939Y-279923385D02*
X393043510Y-279994814D01*
X393043510Y-279994814D02*
X392900653Y-280066242D01*
X392900653Y-280066242D02*
X392329224Y-280066242D01*
X393829224Y-280780528D02*
X393829224Y-279780528D01*
X393829224Y-280066242D02*
X393900653Y-279923385D01*
X393900653Y-279923385D02*
X393972082Y-279851957D01*
X393972082Y-279851957D02*
X394114939Y-279780528D01*
X394114939Y-279780528D02*
X394257796Y-279780528D01*
X394972081Y-280780528D02*
X394829224Y-280709100D01*
X394829224Y-280709100D02*
X394757795Y-280637671D01*
X394757795Y-280637671D02*
X394686367Y-280494814D01*
X394686367Y-280494814D02*
X394686367Y-280066242D01*
X394686367Y-280066242D02*
X394757795Y-279923385D01*
X394757795Y-279923385D02*
X394829224Y-279851957D01*
X394829224Y-279851957D02*
X394972081Y-279780528D01*
X394972081Y-279780528D02*
X395186367Y-279780528D01*
X395186367Y-279780528D02*
X395329224Y-279851957D01*
X395329224Y-279851957D02*
X395400653Y-279923385D01*
X395400653Y-279923385D02*
X395472081Y-280066242D01*
X395472081Y-280066242D02*
X395472081Y-280494814D01*
X395472081Y-280494814D02*
X395400653Y-280637671D01*
X395400653Y-280637671D02*
X395329224Y-280709100D01*
X395329224Y-280709100D02*
X395186367Y-280780528D01*
X395186367Y-280780528D02*
X394972081Y-280780528D01*
X395900653Y-279780528D02*
X396472081Y-279780528D01*
X396114938Y-279280528D02*
X396114938Y-280566242D01*
X396114938Y-280566242D02*
X396186367Y-280709100D01*
X396186367Y-280709100D02*
X396329224Y-280780528D01*
X396329224Y-280780528D02*
X396472081Y-280780528D01*
X397186367Y-280780528D02*
X397043510Y-280709100D01*
X397043510Y-280709100D02*
X396972081Y-280637671D01*
X396972081Y-280637671D02*
X396900653Y-280494814D01*
X396900653Y-280494814D02*
X396900653Y-280066242D01*
X396900653Y-280066242D02*
X396972081Y-279923385D01*
X396972081Y-279923385D02*
X397043510Y-279851957D01*
X397043510Y-279851957D02*
X397186367Y-279780528D01*
X397186367Y-279780528D02*
X397400653Y-279780528D01*
X397400653Y-279780528D02*
X397543510Y-279851957D01*
X397543510Y-279851957D02*
X397614939Y-279923385D01*
X397614939Y-279923385D02*
X397686367Y-280066242D01*
X397686367Y-280066242D02*
X397686367Y-280494814D01*
X397686367Y-280494814D02*
X397614939Y-280637671D01*
X397614939Y-280637671D02*
X397543510Y-280709100D01*
X397543510Y-280709100D02*
X397400653Y-280780528D01*
X397400653Y-280780528D02*
X397186367Y-280780528D01*
D10*
D11*
X301373398Y-280716900D02*
X301587684Y-280788328D01*
X301587684Y-280788328D02*
X301944826Y-280788328D01*
X301944826Y-280788328D02*
X302087684Y-280716900D01*
X302087684Y-280716900D02*
X302159112Y-280645471D01*
X302159112Y-280645471D02*
X302230541Y-280502614D01*
X302230541Y-280502614D02*
X302230541Y-280359757D01*
X302230541Y-280359757D02*
X302159112Y-280216900D01*
X302159112Y-280216900D02*
X302087684Y-280145471D01*
X302087684Y-280145471D02*
X301944826Y-280074042D01*
X301944826Y-280074042D02*
X301659112Y-280002614D01*
X301659112Y-280002614D02*
X301516255Y-279931185D01*
X301516255Y-279931185D02*
X301444826Y-279859757D01*
X301444826Y-279859757D02*
X301373398Y-279716900D01*
X301373398Y-279716900D02*
X301373398Y-279574042D01*
X301373398Y-279574042D02*
X301444826Y-279431185D01*
X301444826Y-279431185D02*
X301516255Y-279359757D01*
X301516255Y-279359757D02*
X301659112Y-279288328D01*
X301659112Y-279288328D02*
X302016255Y-279288328D01*
X302016255Y-279288328D02*
X302230541Y-279359757D01*
X302873397Y-280788328D02*
X302873397Y-279788328D01*
X302873397Y-279288328D02*
X302801969Y-279359757D01*
X302801969Y-279359757D02*
X302873397Y-279431185D01*
X302873397Y-279431185D02*
X302944826Y-279359757D01*
X302944826Y-279359757D02*
X302873397Y-279288328D01*
X302873397Y-279288328D02*
X302873397Y-279431185D01*
X303444826Y-279788328D02*
X304230541Y-279788328D01*
X304230541Y-279788328D02*
X303444826Y-280788328D01*
X303444826Y-280788328D02*
X304230541Y-280788328D01*
X305373398Y-280716900D02*
X305230541Y-280788328D01*
X305230541Y-280788328D02*
X304944827Y-280788328D01*
X304944827Y-280788328D02*
X304801969Y-280716900D01*
X304801969Y-280716900D02*
X304730541Y-280574042D01*
X304730541Y-280574042D02*
X304730541Y-280002614D01*
X304730541Y-280002614D02*
X304801969Y-279859757D01*
X304801969Y-279859757D02*
X304944827Y-279788328D01*
X304944827Y-279788328D02*
X305230541Y-279788328D01*
X305230541Y-279788328D02*
X305373398Y-279859757D01*
X305373398Y-279859757D02*
X305444827Y-280002614D01*
X305444827Y-280002614D02*
X305444827Y-280145471D01*
X305444827Y-280145471D02*
X304730541Y-280288328D01*
X306087683Y-280645471D02*
X306159112Y-280716900D01*
X306159112Y-280716900D02*
X306087683Y-280788328D01*
X306087683Y-280788328D02*
X306016255Y-280716900D01*
X306016255Y-280716900D02*
X306087683Y-280645471D01*
X306087683Y-280645471D02*
X306087683Y-280788328D01*
X306087683Y-279859757D02*
X306159112Y-279931185D01*
X306159112Y-279931185D02*
X306087683Y-280002614D01*
X306087683Y-280002614D02*
X306016255Y-279931185D01*
X306016255Y-279931185D02*
X306087683Y-279859757D01*
X306087683Y-279859757D02*
X306087683Y-280002614D01*
X307873398Y-280359757D02*
X308587684Y-280359757D01*
X307730541Y-280788328D02*
X308230541Y-279288328D01*
X308230541Y-279288328D02*
X308730541Y-280788328D01*
X309087683Y-279288328D02*
X310016255Y-279288328D01*
X310016255Y-279288328D02*
X309516255Y-279859757D01*
X309516255Y-279859757D02*
X309730540Y-279859757D01*
X309730540Y-279859757D02*
X309873398Y-279931185D01*
X309873398Y-279931185D02*
X309944826Y-280002614D01*
X309944826Y-280002614D02*
X310016255Y-280145471D01*
X310016255Y-280145471D02*
X310016255Y-280502614D01*
X310016255Y-280502614D02*
X309944826Y-280645471D01*
X309944826Y-280645471D02*
X309873398Y-280716900D01*
X309873398Y-280716900D02*
X309730540Y-280788328D01*
X309730540Y-280788328D02*
X309301969Y-280788328D01*
X309301969Y-280788328D02*
X309159112Y-280716900D01*
X309159112Y-280716900D02*
X309087683Y-280645471D01*
D10*
D11*
X386444826Y-283588328D02*
X386444826Y-282088328D01*
X387801970Y-283588328D02*
X387801970Y-282088328D01*
X387801970Y-283516900D02*
X387659112Y-283588328D01*
X387659112Y-283588328D02*
X387373398Y-283588328D01*
X387373398Y-283588328D02*
X387230541Y-283516900D01*
X387230541Y-283516900D02*
X387159112Y-283445471D01*
X387159112Y-283445471D02*
X387087684Y-283302614D01*
X387087684Y-283302614D02*
X387087684Y-282874042D01*
X387087684Y-282874042D02*
X387159112Y-282731185D01*
X387159112Y-282731185D02*
X387230541Y-282659757D01*
X387230541Y-282659757D02*
X387373398Y-282588328D01*
X387373398Y-282588328D02*
X387659112Y-282588328D01*
X387659112Y-282588328D02*
X387801970Y-282659757D01*
X388516255Y-283445471D02*
X388587684Y-283516900D01*
X388587684Y-283516900D02*
X388516255Y-283588328D01*
X388516255Y-283588328D02*
X388444827Y-283516900D01*
X388444827Y-283516900D02*
X388516255Y-283445471D01*
X388516255Y-283445471D02*
X388516255Y-283588328D01*
X388516255Y-282659757D02*
X388587684Y-282731185D01*
X388587684Y-282731185D02*
X388516255Y-282802614D01*
X388516255Y-282802614D02*
X388444827Y-282731185D01*
X388444827Y-282731185D02*
X388516255Y-282659757D01*
X388516255Y-282659757D02*
X388516255Y-282802614D01*
X391159113Y-283588328D02*
X390301970Y-283588328D01*
X390730541Y-283588328D02*
X390730541Y-282088328D01*
X390730541Y-282088328D02*
X390587684Y-282302614D01*
X390587684Y-282302614D02*
X390444827Y-282445471D01*
X390444827Y-282445471D02*
X390301970Y-282516900D01*
X392873398Y-282016900D02*
X391587684Y-283945471D01*
X394159113Y-283588328D02*
X393301970Y-283588328D01*
X393730541Y-283588328D02*
X393730541Y-282088328D01*
X393730541Y-282088328D02*
X393587684Y-282302614D01*
X393587684Y-282302614D02*
X393444827Y-282445471D01*
X393444827Y-282445471D02*
X393301970Y-282516900D01*
D10*
D11*
X299989000Y-274502200D02*
X407989000Y-274502200D01*
D10*
D13*
X301680728Y-275206638D02*
X302823585Y-275206638D01*
X302002157Y-277206638D02*
X302252157Y-275206638D01*
X303240252Y-277206638D02*
X303406919Y-275873304D01*
X303490252Y-275206638D02*
X303383109Y-275301876D01*
X303383109Y-275301876D02*
X303466443Y-275397114D01*
X303466443Y-275397114D02*
X303573586Y-275301876D01*
X303573586Y-275301876D02*
X303490252Y-275206638D01*
X303490252Y-275206638D02*
X303466443Y-275397114D01*
X304073586Y-275873304D02*
X304835490Y-275873304D01*
X304442633Y-275206638D02*
X304228348Y-276920923D01*
X304228348Y-276920923D02*
X304299776Y-277111400D01*
X304299776Y-277111400D02*
X304478348Y-277206638D01*
X304478348Y-277206638D02*
X304668824Y-277206638D01*
X305621205Y-277206638D02*
X305442633Y-277111400D01*
X305442633Y-277111400D02*
X305371205Y-276920923D01*
X305371205Y-276920923D02*
X305585490Y-275206638D01*
X307156919Y-277111400D02*
X306954538Y-277206638D01*
X306954538Y-277206638D02*
X306573585Y-277206638D01*
X306573585Y-277206638D02*
X306395014Y-277111400D01*
X306395014Y-277111400D02*
X306323585Y-276920923D01*
X306323585Y-276920923D02*
X306418824Y-276159019D01*
X306418824Y-276159019D02*
X306537871Y-275968542D01*
X306537871Y-275968542D02*
X306740252Y-275873304D01*
X306740252Y-275873304D02*
X307121204Y-275873304D01*
X307121204Y-275873304D02*
X307299776Y-275968542D01*
X307299776Y-275968542D02*
X307371204Y-276159019D01*
X307371204Y-276159019D02*
X307347395Y-276349495D01*
X307347395Y-276349495D02*
X306371204Y-276539971D01*
X308121205Y-277016161D02*
X308204538Y-277111400D01*
X308204538Y-277111400D02*
X308097395Y-277206638D01*
X308097395Y-277206638D02*
X308014062Y-277111400D01*
X308014062Y-277111400D02*
X308121205Y-277016161D01*
X308121205Y-277016161D02*
X308097395Y-277206638D01*
X308252157Y-275968542D02*
X308335490Y-276063780D01*
X308335490Y-276063780D02*
X308228348Y-276159019D01*
X308228348Y-276159019D02*
X308145014Y-276063780D01*
X308145014Y-276063780D02*
X308252157Y-275968542D01*
X308252157Y-275968542D02*
X308228348Y-276159019D01*
X310490253Y-277111400D02*
X310668824Y-277206638D01*
X310668824Y-277206638D02*
X311049777Y-277206638D01*
X311049777Y-277206638D02*
X311252158Y-277111400D01*
X311252158Y-277111400D02*
X311371205Y-276920923D01*
X311371205Y-276920923D02*
X311383110Y-276825685D01*
X311383110Y-276825685D02*
X311311681Y-276635209D01*
X311311681Y-276635209D02*
X311133110Y-276539971D01*
X311133110Y-276539971D02*
X310847396Y-276539971D01*
X310847396Y-276539971D02*
X310668824Y-276444733D01*
X310668824Y-276444733D02*
X310597396Y-276254257D01*
X310597396Y-276254257D02*
X310609301Y-276159019D01*
X310609301Y-276159019D02*
X310728348Y-275968542D01*
X310728348Y-275968542D02*
X310930729Y-275873304D01*
X310930729Y-275873304D02*
X311216443Y-275873304D01*
X311216443Y-275873304D02*
X311395015Y-275968542D01*
X312073587Y-275873304D02*
X312835491Y-275873304D01*
X312442634Y-275206638D02*
X312228349Y-276920923D01*
X312228349Y-276920923D02*
X312299777Y-277111400D01*
X312299777Y-277111400D02*
X312478349Y-277206638D01*
X312478349Y-277206638D02*
X312668825Y-277206638D01*
X313335491Y-277206638D02*
X313502158Y-275873304D01*
X313478348Y-276063780D02*
X313585491Y-275968542D01*
X313585491Y-275968542D02*
X313787872Y-275873304D01*
X313787872Y-275873304D02*
X314073586Y-275873304D01*
X314073586Y-275873304D02*
X314252158Y-275968542D01*
X314252158Y-275968542D02*
X314323586Y-276159019D01*
X314323586Y-276159019D02*
X314192634Y-277206638D01*
X314323586Y-276159019D02*
X314442634Y-275968542D01*
X314442634Y-275968542D02*
X314645015Y-275873304D01*
X314645015Y-275873304D02*
X314930729Y-275873304D01*
X314930729Y-275873304D02*
X315109301Y-275968542D01*
X315109301Y-275968542D02*
X315180729Y-276159019D01*
X315180729Y-276159019D02*
X315049777Y-277206638D01*
X316061682Y-275206638D02*
X317299777Y-275206638D01*
X317299777Y-275206638D02*
X316537873Y-275968542D01*
X316537873Y-275968542D02*
X316823587Y-275968542D01*
X316823587Y-275968542D02*
X317002158Y-276063780D01*
X317002158Y-276063780D02*
X317085492Y-276159019D01*
X317085492Y-276159019D02*
X317156920Y-276349495D01*
X317156920Y-276349495D02*
X317097396Y-276825685D01*
X317097396Y-276825685D02*
X316978349Y-277016161D01*
X316978349Y-277016161D02*
X316871206Y-277111400D01*
X316871206Y-277111400D02*
X316668825Y-277206638D01*
X316668825Y-277206638D02*
X316097396Y-277206638D01*
X316097396Y-277206638D02*
X315918825Y-277111400D01*
X315918825Y-277111400D02*
X315835492Y-277016161D01*
X318037873Y-275397114D02*
X318145015Y-275301876D01*
X318145015Y-275301876D02*
X318347396Y-275206638D01*
X318347396Y-275206638D02*
X318823587Y-275206638D01*
X318823587Y-275206638D02*
X319002158Y-275301876D01*
X319002158Y-275301876D02*
X319085492Y-275397114D01*
X319085492Y-275397114D02*
X319156920Y-275587590D01*
X319156920Y-275587590D02*
X319133111Y-275778066D01*
X319133111Y-275778066D02*
X319002158Y-276063780D01*
X319002158Y-276063780D02*
X317716444Y-277206638D01*
X317716444Y-277206638D02*
X318954539Y-277206638D01*
X319311682Y-277397114D02*
X320835492Y-277397114D01*
X321335492Y-277206638D02*
X321585492Y-275206638D01*
X321490254Y-275968542D02*
X321692635Y-275873304D01*
X321692635Y-275873304D02*
X322073587Y-275873304D01*
X322073587Y-275873304D02*
X322252159Y-275968542D01*
X322252159Y-275968542D02*
X322335492Y-276063780D01*
X322335492Y-276063780D02*
X322406921Y-276254257D01*
X322406921Y-276254257D02*
X322335492Y-276825685D01*
X322335492Y-276825685D02*
X322216445Y-277016161D01*
X322216445Y-277016161D02*
X322109302Y-277111400D01*
X322109302Y-277111400D02*
X321906921Y-277206638D01*
X321906921Y-277206638D02*
X321525968Y-277206638D01*
X321525968Y-277206638D02*
X321347397Y-277111400D01*
X323430731Y-277206638D02*
X323252159Y-277111400D01*
X323252159Y-277111400D02*
X323180731Y-276920923D01*
X323180731Y-276920923D02*
X323395016Y-275206638D01*
X325216445Y-275873304D02*
X325049778Y-277206638D01*
X324359302Y-275873304D02*
X324228350Y-276920923D01*
X324228350Y-276920923D02*
X324299778Y-277111400D01*
X324299778Y-277111400D02*
X324478350Y-277206638D01*
X324478350Y-277206638D02*
X324764064Y-277206638D01*
X324764064Y-277206638D02*
X324966445Y-277111400D01*
X324966445Y-277111400D02*
X325073588Y-277016161D01*
X326775969Y-277111400D02*
X326573588Y-277206638D01*
X326573588Y-277206638D02*
X326192635Y-277206638D01*
X326192635Y-277206638D02*
X326014064Y-277111400D01*
X326014064Y-277111400D02*
X325942635Y-276920923D01*
X325942635Y-276920923D02*
X326037874Y-276159019D01*
X326037874Y-276159019D02*
X326156921Y-275968542D01*
X326156921Y-275968542D02*
X326359302Y-275873304D01*
X326359302Y-275873304D02*
X326740254Y-275873304D01*
X326740254Y-275873304D02*
X326918826Y-275968542D01*
X326918826Y-275968542D02*
X326990254Y-276159019D01*
X326990254Y-276159019D02*
X326966445Y-276349495D01*
X326966445Y-276349495D02*
X325990254Y-276539971D01*
X327597398Y-275873304D02*
X328359302Y-275873304D01*
X327966445Y-275206638D02*
X327752160Y-276920923D01*
X327752160Y-276920923D02*
X327823588Y-277111400D01*
X327823588Y-277111400D02*
X328002160Y-277206638D01*
X328002160Y-277206638D02*
X328192636Y-277206638D01*
X328359302Y-277397114D02*
X329883112Y-277397114D01*
X330549779Y-275873304D02*
X330299779Y-277873304D01*
X330537874Y-275968542D02*
X330740255Y-275873304D01*
X330740255Y-275873304D02*
X331121207Y-275873304D01*
X331121207Y-275873304D02*
X331299779Y-275968542D01*
X331299779Y-275968542D02*
X331383112Y-276063780D01*
X331383112Y-276063780D02*
X331454541Y-276254257D01*
X331454541Y-276254257D02*
X331383112Y-276825685D01*
X331383112Y-276825685D02*
X331264065Y-277016161D01*
X331264065Y-277016161D02*
X331156922Y-277111400D01*
X331156922Y-277111400D02*
X330954541Y-277206638D01*
X330954541Y-277206638D02*
X330573588Y-277206638D01*
X330573588Y-277206638D02*
X330395017Y-277111400D01*
X332192636Y-277206638D02*
X332359303Y-275873304D01*
X332442636Y-275206638D02*
X332335493Y-275301876D01*
X332335493Y-275301876D02*
X332418827Y-275397114D01*
X332418827Y-275397114D02*
X332525970Y-275301876D01*
X332525970Y-275301876D02*
X332442636Y-275206638D01*
X332442636Y-275206638D02*
X332418827Y-275397114D01*
X333430732Y-277206638D02*
X333252160Y-277111400D01*
X333252160Y-277111400D02*
X333180732Y-276920923D01*
X333180732Y-276920923D02*
X333395017Y-275206638D01*
X334478351Y-277206638D02*
X334299779Y-277111400D01*
X334299779Y-277111400D02*
X334228351Y-276920923D01*
X334228351Y-276920923D02*
X334442636Y-275206638D01*
D10*
D11*
X301944826Y-272602614D02*
X301444826Y-272602614D01*
X301444826Y-273388328D02*
X301444826Y-271888328D01*
X301444826Y-271888328D02*
X302159112Y-271888328D01*
X302730540Y-273388328D02*
X302730540Y-272388328D01*
X302730540Y-271888328D02*
X302659112Y-271959757D01*
X302659112Y-271959757D02*
X302730540Y-272031185D01*
X302730540Y-272031185D02*
X302801969Y-271959757D01*
X302801969Y-271959757D02*
X302730540Y-271888328D01*
X302730540Y-271888328D02*
X302730540Y-272031185D01*
X303659112Y-273388328D02*
X303516255Y-273316900D01*
X303516255Y-273316900D02*
X303444826Y-273174042D01*
X303444826Y-273174042D02*
X303444826Y-271888328D01*
X304801969Y-273316900D02*
X304659112Y-273388328D01*
X304659112Y-273388328D02*
X304373398Y-273388328D01*
X304373398Y-273388328D02*
X304230540Y-273316900D01*
X304230540Y-273316900D02*
X304159112Y-273174042D01*
X304159112Y-273174042D02*
X304159112Y-272602614D01*
X304159112Y-272602614D02*
X304230540Y-272459757D01*
X304230540Y-272459757D02*
X304373398Y-272388328D01*
X304373398Y-272388328D02*
X304659112Y-272388328D01*
X304659112Y-272388328D02*
X304801969Y-272459757D01*
X304801969Y-272459757D02*
X304873398Y-272602614D01*
X304873398Y-272602614D02*
X304873398Y-272745471D01*
X304873398Y-272745471D02*
X304159112Y-272888328D01*
X305516254Y-273245471D02*
X305587683Y-273316900D01*
X305587683Y-273316900D02*
X305516254Y-273388328D01*
X305516254Y-273388328D02*
X305444826Y-273316900D01*
X305444826Y-273316900D02*
X305516254Y-273245471D01*
X305516254Y-273245471D02*
X305516254Y-273388328D01*
X305516254Y-272459757D02*
X305587683Y-272531185D01*
X305587683Y-272531185D02*
X305516254Y-272602614D01*
X305516254Y-272602614D02*
X305444826Y-272531185D01*
X305444826Y-272531185D02*
X305516254Y-272459757D01*
X305516254Y-272459757D02*
X305516254Y-272602614D01*
X307873397Y-272602614D02*
X308087683Y-272674042D01*
X308087683Y-272674042D02*
X308159112Y-272745471D01*
X308159112Y-272745471D02*
X308230540Y-272888328D01*
X308230540Y-272888328D02*
X308230540Y-273102614D01*
X308230540Y-273102614D02*
X308159112Y-273245471D01*
X308159112Y-273245471D02*
X308087683Y-273316900D01*
X308087683Y-273316900D02*
X307944826Y-273388328D01*
X307944826Y-273388328D02*
X307373397Y-273388328D01*
X307373397Y-273388328D02*
X307373397Y-271888328D01*
X307373397Y-271888328D02*
X307873397Y-271888328D01*
X307873397Y-271888328D02*
X308016255Y-271959757D01*
X308016255Y-271959757D02*
X308087683Y-272031185D01*
X308087683Y-272031185D02*
X308159112Y-272174042D01*
X308159112Y-272174042D02*
X308159112Y-272316900D01*
X308159112Y-272316900D02*
X308087683Y-272459757D01*
X308087683Y-272459757D02*
X308016255Y-272531185D01*
X308016255Y-272531185D02*
X307873397Y-272602614D01*
X307873397Y-272602614D02*
X307373397Y-272602614D01*
X309087683Y-273388328D02*
X308944826Y-273316900D01*
X308944826Y-273316900D02*
X308873397Y-273174042D01*
X308873397Y-273174042D02*
X308873397Y-271888328D01*
X310301969Y-272388328D02*
X310301969Y-273388328D01*
X309659111Y-272388328D02*
X309659111Y-273174042D01*
X309659111Y-273174042D02*
X309730540Y-273316900D01*
X309730540Y-273316900D02*
X309873397Y-273388328D01*
X309873397Y-273388328D02*
X310087683Y-273388328D01*
X310087683Y-273388328D02*
X310230540Y-273316900D01*
X310230540Y-273316900D02*
X310301969Y-273245471D01*
X311587683Y-273316900D02*
X311444826Y-273388328D01*
X311444826Y-273388328D02*
X311159112Y-273388328D01*
X311159112Y-273388328D02*
X311016254Y-273316900D01*
X311016254Y-273316900D02*
X310944826Y-273174042D01*
X310944826Y-273174042D02*
X310944826Y-272602614D01*
X310944826Y-272602614D02*
X311016254Y-272459757D01*
X311016254Y-272459757D02*
X311159112Y-272388328D01*
X311159112Y-272388328D02*
X311444826Y-272388328D01*
X311444826Y-272388328D02*
X311587683Y-272459757D01*
X311587683Y-272459757D02*
X311659112Y-272602614D01*
X311659112Y-272602614D02*
X311659112Y-272745471D01*
X311659112Y-272745471D02*
X310944826Y-272888328D01*
X312087683Y-272388328D02*
X312659111Y-272388328D01*
X312301968Y-271888328D02*
X312301968Y-273174042D01*
X312301968Y-273174042D02*
X312373397Y-273316900D01*
X312373397Y-273316900D02*
X312516254Y-273388328D01*
X312516254Y-273388328D02*
X312659111Y-273388328D01*
X313373397Y-273388328D02*
X313230540Y-273316900D01*
X313230540Y-273316900D02*
X313159111Y-273245471D01*
X313159111Y-273245471D02*
X313087683Y-273102614D01*
X313087683Y-273102614D02*
X313087683Y-272674042D01*
X313087683Y-272674042D02*
X313159111Y-272531185D01*
X313159111Y-272531185D02*
X313230540Y-272459757D01*
X313230540Y-272459757D02*
X313373397Y-272388328D01*
X313373397Y-272388328D02*
X313587683Y-272388328D01*
X313587683Y-272388328D02*
X313730540Y-272459757D01*
X313730540Y-272459757D02*
X313801969Y-272531185D01*
X313801969Y-272531185D02*
X313873397Y-272674042D01*
X313873397Y-272674042D02*
X313873397Y-273102614D01*
X313873397Y-273102614D02*
X313801969Y-273245471D01*
X313801969Y-273245471D02*
X313730540Y-273316900D01*
X313730540Y-273316900D02*
X313587683Y-273388328D01*
X313587683Y-273388328D02*
X313373397Y-273388328D01*
X314730540Y-273388328D02*
X314587683Y-273316900D01*
X314587683Y-273316900D02*
X314516254Y-273245471D01*
X314516254Y-273245471D02*
X314444826Y-273102614D01*
X314444826Y-273102614D02*
X314444826Y-272674042D01*
X314444826Y-272674042D02*
X314516254Y-272531185D01*
X314516254Y-272531185D02*
X314587683Y-272459757D01*
X314587683Y-272459757D02*
X314730540Y-272388328D01*
X314730540Y-272388328D02*
X314944826Y-272388328D01*
X314944826Y-272388328D02*
X315087683Y-272459757D01*
X315087683Y-272459757D02*
X315159112Y-272531185D01*
X315159112Y-272531185D02*
X315230540Y-272674042D01*
X315230540Y-272674042D02*
X315230540Y-273102614D01*
X315230540Y-273102614D02*
X315159112Y-273245471D01*
X315159112Y-273245471D02*
X315087683Y-273316900D01*
X315087683Y-273316900D02*
X314944826Y-273388328D01*
X314944826Y-273388328D02*
X314730540Y-273388328D01*
X315659112Y-272388328D02*
X316230540Y-272388328D01*
X315873397Y-271888328D02*
X315873397Y-273174042D01*
X315873397Y-273174042D02*
X315944826Y-273316900D01*
X315944826Y-273316900D02*
X316087683Y-273388328D01*
X316087683Y-273388328D02*
X316230540Y-273388328D01*
X316730540Y-273388328D02*
X316730540Y-271888328D01*
X317373398Y-273388328D02*
X317373398Y-272602614D01*
X317373398Y-272602614D02*
X317301969Y-272459757D01*
X317301969Y-272459757D02*
X317159112Y-272388328D01*
X317159112Y-272388328D02*
X316944826Y-272388328D01*
X316944826Y-272388328D02*
X316801969Y-272459757D01*
X316801969Y-272459757D02*
X316730540Y-272531185D01*
X317730541Y-273531185D02*
X318873398Y-273531185D01*
X319516255Y-271888328D02*
X319801969Y-271888328D01*
X319801969Y-271888328D02*
X319944826Y-271959757D01*
X319944826Y-271959757D02*
X320087683Y-272102614D01*
X320087683Y-272102614D02*
X320159112Y-272388328D01*
X320159112Y-272388328D02*
X320159112Y-272888328D01*
X320159112Y-272888328D02*
X320087683Y-273174042D01*
X320087683Y-273174042D02*
X319944826Y-273316900D01*
X319944826Y-273316900D02*
X319801969Y-273388328D01*
X319801969Y-273388328D02*
X319516255Y-273388328D01*
X319516255Y-273388328D02*
X319373398Y-273316900D01*
X319373398Y-273316900D02*
X319230540Y-273174042D01*
X319230540Y-273174042D02*
X319159112Y-272888328D01*
X319159112Y-272888328D02*
X319159112Y-272388328D01*
X319159112Y-272388328D02*
X319230540Y-272102614D01*
X319230540Y-272102614D02*
X319373398Y-271959757D01*
X319373398Y-271959757D02*
X319516255Y-271888328D01*
X320730541Y-273316900D02*
X320944827Y-273388328D01*
X320944827Y-273388328D02*
X321301969Y-273388328D01*
X321301969Y-273388328D02*
X321444827Y-273316900D01*
X321444827Y-273316900D02*
X321516255Y-273245471D01*
X321516255Y-273245471D02*
X321587684Y-273102614D01*
X321587684Y-273102614D02*
X321587684Y-272959757D01*
X321587684Y-272959757D02*
X321516255Y-272816900D01*
X321516255Y-272816900D02*
X321444827Y-272745471D01*
X321444827Y-272745471D02*
X321301969Y-272674042D01*
X321301969Y-272674042D02*
X321016255Y-272602614D01*
X321016255Y-272602614D02*
X320873398Y-272531185D01*
X320873398Y-272531185D02*
X320801969Y-272459757D01*
X320801969Y-272459757D02*
X320730541Y-272316900D01*
X320730541Y-272316900D02*
X320730541Y-272174042D01*
X320730541Y-272174042D02*
X320801969Y-272031185D01*
X320801969Y-272031185D02*
X320873398Y-271959757D01*
X320873398Y-271959757D02*
X321016255Y-271888328D01*
X321016255Y-271888328D02*
X321373398Y-271888328D01*
X321373398Y-271888328D02*
X321587684Y-271959757D01*
X322230540Y-273388328D02*
X322230540Y-271888328D01*
X322230540Y-272602614D02*
X323087683Y-272602614D01*
X323087683Y-273388328D02*
X323087683Y-271888328D01*
X323659112Y-271888328D02*
X324016255Y-273388328D01*
X324016255Y-273388328D02*
X324301969Y-272316900D01*
X324301969Y-272316900D02*
X324587684Y-273388328D01*
X324587684Y-273388328D02*
X324944827Y-271888328D01*
X325516255Y-273245471D02*
X325587684Y-273316900D01*
X325587684Y-273316900D02*
X325516255Y-273388328D01*
X325516255Y-273388328D02*
X325444827Y-273316900D01*
X325444827Y-273316900D02*
X325516255Y-273245471D01*
X325516255Y-273245471D02*
X325516255Y-273388328D01*
X326230541Y-273388328D02*
X326230541Y-271888328D01*
X326373399Y-272816900D02*
X326801970Y-273388328D01*
X326801970Y-272388328D02*
X326230541Y-272959757D01*
X327444827Y-273388328D02*
X327444827Y-272388328D01*
X327444827Y-271888328D02*
X327373399Y-271959757D01*
X327373399Y-271959757D02*
X327444827Y-272031185D01*
X327444827Y-272031185D02*
X327516256Y-271959757D01*
X327516256Y-271959757D02*
X327444827Y-271888328D01*
X327444827Y-271888328D02*
X327444827Y-272031185D01*
X328801971Y-273316900D02*
X328659113Y-273388328D01*
X328659113Y-273388328D02*
X328373399Y-273388328D01*
X328373399Y-273388328D02*
X328230542Y-273316900D01*
X328230542Y-273316900D02*
X328159113Y-273245471D01*
X328159113Y-273245471D02*
X328087685Y-273102614D01*
X328087685Y-273102614D02*
X328087685Y-272674042D01*
X328087685Y-272674042D02*
X328159113Y-272531185D01*
X328159113Y-272531185D02*
X328230542Y-272459757D01*
X328230542Y-272459757D02*
X328373399Y-272388328D01*
X328373399Y-272388328D02*
X328659113Y-272388328D01*
X328659113Y-272388328D02*
X328801971Y-272459757D01*
X330087685Y-273388328D02*
X330087685Y-272602614D01*
X330087685Y-272602614D02*
X330016256Y-272459757D01*
X330016256Y-272459757D02*
X329873399Y-272388328D01*
X329873399Y-272388328D02*
X329587685Y-272388328D01*
X329587685Y-272388328D02*
X329444827Y-272459757D01*
X330087685Y-273316900D02*
X329944827Y-273388328D01*
X329944827Y-273388328D02*
X329587685Y-273388328D01*
X329587685Y-273388328D02*
X329444827Y-273316900D01*
X329444827Y-273316900D02*
X329373399Y-273174042D01*
X329373399Y-273174042D02*
X329373399Y-273031185D01*
X329373399Y-273031185D02*
X329444827Y-272888328D01*
X329444827Y-272888328D02*
X329587685Y-272816900D01*
X329587685Y-272816900D02*
X329944827Y-272816900D01*
X329944827Y-272816900D02*
X330087685Y-272745471D01*
X331444828Y-273388328D02*
X331444828Y-271888328D01*
X331444828Y-273316900D02*
X331301970Y-273388328D01*
X331301970Y-273388328D02*
X331016256Y-273388328D01*
X331016256Y-273388328D02*
X330873399Y-273316900D01*
X330873399Y-273316900D02*
X330801970Y-273245471D01*
X330801970Y-273245471D02*
X330730542Y-273102614D01*
X330730542Y-273102614D02*
X330730542Y-272674042D01*
X330730542Y-272674042D02*
X330801970Y-272531185D01*
X330801970Y-272531185D02*
X330873399Y-272459757D01*
X330873399Y-272459757D02*
X331016256Y-272388328D01*
X331016256Y-272388328D02*
X331301970Y-272388328D01*
X331301970Y-272388328D02*
X331444828Y-272459757D01*
X331801971Y-273531185D02*
X332944828Y-273531185D01*
X333301970Y-272388328D02*
X333301970Y-273888328D01*
X333301970Y-272459757D02*
X333444828Y-272388328D01*
X333444828Y-272388328D02*
X333730542Y-272388328D01*
X333730542Y-272388328D02*
X333873399Y-272459757D01*
X333873399Y-272459757D02*
X333944828Y-272531185D01*
X333944828Y-272531185D02*
X334016256Y-272674042D01*
X334016256Y-272674042D02*
X334016256Y-273102614D01*
X334016256Y-273102614D02*
X333944828Y-273245471D01*
X333944828Y-273245471D02*
X333873399Y-273316900D01*
X333873399Y-273316900D02*
X333730542Y-273388328D01*
X333730542Y-273388328D02*
X333444828Y-273388328D01*
X333444828Y-273388328D02*
X333301970Y-273316900D01*
X335301971Y-273316900D02*
X335159113Y-273388328D01*
X335159113Y-273388328D02*
X334873399Y-273388328D01*
X334873399Y-273388328D02*
X334730542Y-273316900D01*
X334730542Y-273316900D02*
X334659113Y-273245471D01*
X334659113Y-273245471D02*
X334587685Y-273102614D01*
X334587685Y-273102614D02*
X334587685Y-272674042D01*
X334587685Y-272674042D02*
X334659113Y-272531185D01*
X334659113Y-272531185D02*
X334730542Y-272459757D01*
X334730542Y-272459757D02*
X334873399Y-272388328D01*
X334873399Y-272388328D02*
X335159113Y-272388328D01*
X335159113Y-272388328D02*
X335301971Y-272459757D01*
X335944827Y-273388328D02*
X335944827Y-271888328D01*
X335944827Y-272459757D02*
X336087685Y-272388328D01*
X336087685Y-272388328D02*
X336373399Y-272388328D01*
X336373399Y-272388328D02*
X336516256Y-272459757D01*
X336516256Y-272459757D02*
X336587685Y-272531185D01*
X336587685Y-272531185D02*
X336659113Y-272674042D01*
X336659113Y-272674042D02*
X336659113Y-273102614D01*
X336659113Y-273102614D02*
X336587685Y-273245471D01*
X336587685Y-273245471D02*
X336516256Y-273316900D01*
X336516256Y-273316900D02*
X336373399Y-273388328D01*
X336373399Y-273388328D02*
X336087685Y-273388328D01*
X336087685Y-273388328D02*
X335944827Y-273316900D01*
D10*
D11*
X299989000Y-268502200D02*
X407989000Y-268502200D01*
D10*
D11*
X301373398Y-270616900D02*
X301587684Y-270688328D01*
X301587684Y-270688328D02*
X301944826Y-270688328D01*
X301944826Y-270688328D02*
X302087684Y-270616900D01*
X302087684Y-270616900D02*
X302159112Y-270545471D01*
X302159112Y-270545471D02*
X302230541Y-270402614D01*
X302230541Y-270402614D02*
X302230541Y-270259757D01*
X302230541Y-270259757D02*
X302159112Y-270116900D01*
X302159112Y-270116900D02*
X302087684Y-270045471D01*
X302087684Y-270045471D02*
X301944826Y-269974042D01*
X301944826Y-269974042D02*
X301659112Y-269902614D01*
X301659112Y-269902614D02*
X301516255Y-269831185D01*
X301516255Y-269831185D02*
X301444826Y-269759757D01*
X301444826Y-269759757D02*
X301373398Y-269616900D01*
X301373398Y-269616900D02*
X301373398Y-269474042D01*
X301373398Y-269474042D02*
X301444826Y-269331185D01*
X301444826Y-269331185D02*
X301516255Y-269259757D01*
X301516255Y-269259757D02*
X301659112Y-269188328D01*
X301659112Y-269188328D02*
X302016255Y-269188328D01*
X302016255Y-269188328D02*
X302230541Y-269259757D01*
X302873397Y-270688328D02*
X302873397Y-269188328D01*
X303516255Y-270688328D02*
X303516255Y-269902614D01*
X303516255Y-269902614D02*
X303444826Y-269759757D01*
X303444826Y-269759757D02*
X303301969Y-269688328D01*
X303301969Y-269688328D02*
X303087683Y-269688328D01*
X303087683Y-269688328D02*
X302944826Y-269759757D01*
X302944826Y-269759757D02*
X302873397Y-269831185D01*
X304801969Y-270616900D02*
X304659112Y-270688328D01*
X304659112Y-270688328D02*
X304373398Y-270688328D01*
X304373398Y-270688328D02*
X304230540Y-270616900D01*
X304230540Y-270616900D02*
X304159112Y-270474042D01*
X304159112Y-270474042D02*
X304159112Y-269902614D01*
X304159112Y-269902614D02*
X304230540Y-269759757D01*
X304230540Y-269759757D02*
X304373398Y-269688328D01*
X304373398Y-269688328D02*
X304659112Y-269688328D01*
X304659112Y-269688328D02*
X304801969Y-269759757D01*
X304801969Y-269759757D02*
X304873398Y-269902614D01*
X304873398Y-269902614D02*
X304873398Y-270045471D01*
X304873398Y-270045471D02*
X304159112Y-270188328D01*
X306087683Y-270616900D02*
X305944826Y-270688328D01*
X305944826Y-270688328D02*
X305659112Y-270688328D01*
X305659112Y-270688328D02*
X305516254Y-270616900D01*
X305516254Y-270616900D02*
X305444826Y-270474042D01*
X305444826Y-270474042D02*
X305444826Y-269902614D01*
X305444826Y-269902614D02*
X305516254Y-269759757D01*
X305516254Y-269759757D02*
X305659112Y-269688328D01*
X305659112Y-269688328D02*
X305944826Y-269688328D01*
X305944826Y-269688328D02*
X306087683Y-269759757D01*
X306087683Y-269759757D02*
X306159112Y-269902614D01*
X306159112Y-269902614D02*
X306159112Y-270045471D01*
X306159112Y-270045471D02*
X305444826Y-270188328D01*
X306587683Y-269688328D02*
X307159111Y-269688328D01*
X306801968Y-269188328D02*
X306801968Y-270474042D01*
X306801968Y-270474042D02*
X306873397Y-270616900D01*
X306873397Y-270616900D02*
X307016254Y-270688328D01*
X307016254Y-270688328D02*
X307159111Y-270688328D01*
X307659111Y-270545471D02*
X307730540Y-270616900D01*
X307730540Y-270616900D02*
X307659111Y-270688328D01*
X307659111Y-270688328D02*
X307587683Y-270616900D01*
X307587683Y-270616900D02*
X307659111Y-270545471D01*
X307659111Y-270545471D02*
X307659111Y-270688328D01*
X307659111Y-269759757D02*
X307730540Y-269831185D01*
X307730540Y-269831185D02*
X307659111Y-269902614D01*
X307659111Y-269902614D02*
X307587683Y-269831185D01*
X307587683Y-269831185D02*
X307659111Y-269759757D01*
X307659111Y-269759757D02*
X307659111Y-269902614D01*
D10*
D12*
X302400653Y-267537671D02*
X302329225Y-267609100D01*
X302329225Y-267609100D02*
X302114939Y-267680528D01*
X302114939Y-267680528D02*
X301972082Y-267680528D01*
X301972082Y-267680528D02*
X301757796Y-267609100D01*
X301757796Y-267609100D02*
X301614939Y-267466242D01*
X301614939Y-267466242D02*
X301543510Y-267323385D01*
X301543510Y-267323385D02*
X301472082Y-267037671D01*
X301472082Y-267037671D02*
X301472082Y-266823385D01*
X301472082Y-266823385D02*
X301543510Y-266537671D01*
X301543510Y-266537671D02*
X301614939Y-266394814D01*
X301614939Y-266394814D02*
X301757796Y-266251957D01*
X301757796Y-266251957D02*
X301972082Y-266180528D01*
X301972082Y-266180528D02*
X302114939Y-266180528D01*
X302114939Y-266180528D02*
X302329225Y-266251957D01*
X302329225Y-266251957D02*
X302400653Y-266323385D01*
X303257796Y-267680528D02*
X303114939Y-267609100D01*
X303114939Y-267609100D02*
X303043510Y-267466242D01*
X303043510Y-267466242D02*
X303043510Y-266180528D01*
X304043510Y-267680528D02*
X303900653Y-267609100D01*
X303900653Y-267609100D02*
X303829224Y-267537671D01*
X303829224Y-267537671D02*
X303757796Y-267394814D01*
X303757796Y-267394814D02*
X303757796Y-266966242D01*
X303757796Y-266966242D02*
X303829224Y-266823385D01*
X303829224Y-266823385D02*
X303900653Y-266751957D01*
X303900653Y-266751957D02*
X304043510Y-266680528D01*
X304043510Y-266680528D02*
X304257796Y-266680528D01*
X304257796Y-266680528D02*
X304400653Y-266751957D01*
X304400653Y-266751957D02*
X304472082Y-266823385D01*
X304472082Y-266823385D02*
X304543510Y-266966242D01*
X304543510Y-266966242D02*
X304543510Y-267394814D01*
X304543510Y-267394814D02*
X304472082Y-267537671D01*
X304472082Y-267537671D02*
X304400653Y-267609100D01*
X304400653Y-267609100D02*
X304257796Y-267680528D01*
X304257796Y-267680528D02*
X304043510Y-267680528D01*
X305043510Y-266680528D02*
X305400653Y-267680528D01*
X305400653Y-267680528D02*
X305757796Y-266680528D01*
X306900653Y-267609100D02*
X306757796Y-267680528D01*
X306757796Y-267680528D02*
X306472082Y-267680528D01*
X306472082Y-267680528D02*
X306329224Y-267609100D01*
X306329224Y-267609100D02*
X306257796Y-267466242D01*
X306257796Y-267466242D02*
X306257796Y-266894814D01*
X306257796Y-266894814D02*
X306329224Y-266751957D01*
X306329224Y-266751957D02*
X306472082Y-266680528D01*
X306472082Y-266680528D02*
X306757796Y-266680528D01*
X306757796Y-266680528D02*
X306900653Y-266751957D01*
X306900653Y-266751957D02*
X306972082Y-266894814D01*
X306972082Y-266894814D02*
X306972082Y-267037671D01*
X306972082Y-267037671D02*
X306257796Y-267180528D01*
X307614938Y-267680528D02*
X307614938Y-266680528D01*
X307614938Y-266966242D02*
X307686367Y-266823385D01*
X307686367Y-266823385D02*
X307757796Y-266751957D01*
X307757796Y-266751957D02*
X307900653Y-266680528D01*
X307900653Y-266680528D02*
X308043510Y-266680528D01*
X309686366Y-267680528D02*
X309686366Y-266180528D01*
X309686366Y-266180528D02*
X310043509Y-266180528D01*
X310043509Y-266180528D02*
X310257795Y-266251957D01*
X310257795Y-266251957D02*
X310400652Y-266394814D01*
X310400652Y-266394814D02*
X310472081Y-266537671D01*
X310472081Y-266537671D02*
X310543509Y-266823385D01*
X310543509Y-266823385D02*
X310543509Y-267037671D01*
X310543509Y-267037671D02*
X310472081Y-267323385D01*
X310472081Y-267323385D02*
X310400652Y-267466242D01*
X310400652Y-267466242D02*
X310257795Y-267609100D01*
X310257795Y-267609100D02*
X310043509Y-267680528D01*
X310043509Y-267680528D02*
X309686366Y-267680528D01*
X311757795Y-267609100D02*
X311614938Y-267680528D01*
X311614938Y-267680528D02*
X311329224Y-267680528D01*
X311329224Y-267680528D02*
X311186366Y-267609100D01*
X311186366Y-267609100D02*
X311114938Y-267466242D01*
X311114938Y-267466242D02*
X311114938Y-266894814D01*
X311114938Y-266894814D02*
X311186366Y-266751957D01*
X311186366Y-266751957D02*
X311329224Y-266680528D01*
X311329224Y-266680528D02*
X311614938Y-266680528D01*
X311614938Y-266680528D02*
X311757795Y-266751957D01*
X311757795Y-266751957D02*
X311829224Y-266894814D01*
X311829224Y-266894814D02*
X311829224Y-267037671D01*
X311829224Y-267037671D02*
X311114938Y-267180528D01*
X312400652Y-267609100D02*
X312543509Y-267680528D01*
X312543509Y-267680528D02*
X312829223Y-267680528D01*
X312829223Y-267680528D02*
X312972080Y-267609100D01*
X312972080Y-267609100D02*
X313043509Y-267466242D01*
X313043509Y-267466242D02*
X313043509Y-267394814D01*
X313043509Y-267394814D02*
X312972080Y-267251957D01*
X312972080Y-267251957D02*
X312829223Y-267180528D01*
X312829223Y-267180528D02*
X312614938Y-267180528D01*
X312614938Y-267180528D02*
X312472080Y-267109100D01*
X312472080Y-267109100D02*
X312400652Y-266966242D01*
X312400652Y-266966242D02*
X312400652Y-266894814D01*
X312400652Y-266894814D02*
X312472080Y-266751957D01*
X312472080Y-266751957D02*
X312614938Y-266680528D01*
X312614938Y-266680528D02*
X312829223Y-266680528D01*
X312829223Y-266680528D02*
X312972080Y-266751957D01*
X313686366Y-267680528D02*
X313686366Y-266680528D01*
X313686366Y-266180528D02*
X313614938Y-266251957D01*
X313614938Y-266251957D02*
X313686366Y-266323385D01*
X313686366Y-266323385D02*
X313757795Y-266251957D01*
X313757795Y-266251957D02*
X313686366Y-266180528D01*
X313686366Y-266180528D02*
X313686366Y-266323385D01*
X315043510Y-266680528D02*
X315043510Y-267894814D01*
X315043510Y-267894814D02*
X314972081Y-268037671D01*
X314972081Y-268037671D02*
X314900652Y-268109100D01*
X314900652Y-268109100D02*
X314757795Y-268180528D01*
X314757795Y-268180528D02*
X314543510Y-268180528D01*
X314543510Y-268180528D02*
X314400652Y-268109100D01*
X315043510Y-267609100D02*
X314900652Y-267680528D01*
X314900652Y-267680528D02*
X314614938Y-267680528D01*
X314614938Y-267680528D02*
X314472081Y-267609100D01*
X314472081Y-267609100D02*
X314400652Y-267537671D01*
X314400652Y-267537671D02*
X314329224Y-267394814D01*
X314329224Y-267394814D02*
X314329224Y-266966242D01*
X314329224Y-266966242D02*
X314400652Y-266823385D01*
X314400652Y-266823385D02*
X314472081Y-266751957D01*
X314472081Y-266751957D02*
X314614938Y-266680528D01*
X314614938Y-266680528D02*
X314900652Y-266680528D01*
X314900652Y-266680528D02*
X315043510Y-266751957D01*
X315757795Y-266680528D02*
X315757795Y-267680528D01*
X315757795Y-266823385D02*
X315829224Y-266751957D01*
X315829224Y-266751957D02*
X315972081Y-266680528D01*
X315972081Y-266680528D02*
X316186367Y-266680528D01*
X316186367Y-266680528D02*
X316329224Y-266751957D01*
X316329224Y-266751957D02*
X316400653Y-266894814D01*
X316400653Y-266894814D02*
X316400653Y-267680528D01*
X317043510Y-267609100D02*
X317186367Y-267680528D01*
X317186367Y-267680528D02*
X317472081Y-267680528D01*
X317472081Y-267680528D02*
X317614938Y-267609100D01*
X317614938Y-267609100D02*
X317686367Y-267466242D01*
X317686367Y-267466242D02*
X317686367Y-267394814D01*
X317686367Y-267394814D02*
X317614938Y-267251957D01*
X317614938Y-267251957D02*
X317472081Y-267180528D01*
X317472081Y-267180528D02*
X317257796Y-267180528D01*
X317257796Y-267180528D02*
X317114938Y-267109100D01*
X317114938Y-267109100D02*
X317043510Y-266966242D01*
X317043510Y-266966242D02*
X317043510Y-266894814D01*
X317043510Y-266894814D02*
X317114938Y-266751957D01*
X317114938Y-266751957D02*
X317257796Y-266680528D01*
X317257796Y-266680528D02*
X317472081Y-266680528D01*
X317472081Y-266680528D02*
X317614938Y-266751957D01*
D10*
D11*
X301944826Y-263902614D02*
X302159112Y-263974042D01*
X302159112Y-263974042D02*
X302230541Y-264045471D01*
X302230541Y-264045471D02*
X302301969Y-264188328D01*
X302301969Y-264188328D02*
X302301969Y-264402614D01*
X302301969Y-264402614D02*
X302230541Y-264545471D01*
X302230541Y-264545471D02*
X302159112Y-264616900D01*
X302159112Y-264616900D02*
X302016255Y-264688328D01*
X302016255Y-264688328D02*
X301444826Y-264688328D01*
X301444826Y-264688328D02*
X301444826Y-263188328D01*
X301444826Y-263188328D02*
X301944826Y-263188328D01*
X301944826Y-263188328D02*
X302087684Y-263259757D01*
X302087684Y-263259757D02*
X302159112Y-263331185D01*
X302159112Y-263331185D02*
X302230541Y-263474042D01*
X302230541Y-263474042D02*
X302230541Y-263616900D01*
X302230541Y-263616900D02*
X302159112Y-263759757D01*
X302159112Y-263759757D02*
X302087684Y-263831185D01*
X302087684Y-263831185D02*
X301944826Y-263902614D01*
X301944826Y-263902614D02*
X301444826Y-263902614D01*
X302944826Y-264688328D02*
X302944826Y-263688328D01*
X302944826Y-263974042D02*
X303016255Y-263831185D01*
X303016255Y-263831185D02*
X303087684Y-263759757D01*
X303087684Y-263759757D02*
X303230541Y-263688328D01*
X303230541Y-263688328D02*
X303373398Y-263688328D01*
X304444826Y-264616900D02*
X304301969Y-264688328D01*
X304301969Y-264688328D02*
X304016255Y-264688328D01*
X304016255Y-264688328D02*
X303873397Y-264616900D01*
X303873397Y-264616900D02*
X303801969Y-264474042D01*
X303801969Y-264474042D02*
X303801969Y-263902614D01*
X303801969Y-263902614D02*
X303873397Y-263759757D01*
X303873397Y-263759757D02*
X304016255Y-263688328D01*
X304016255Y-263688328D02*
X304301969Y-263688328D01*
X304301969Y-263688328D02*
X304444826Y-263759757D01*
X304444826Y-263759757D02*
X304516255Y-263902614D01*
X304516255Y-263902614D02*
X304516255Y-264045471D01*
X304516255Y-264045471D02*
X303801969Y-264188328D01*
X305159111Y-263688328D02*
X305159111Y-264688328D01*
X305159111Y-263831185D02*
X305230540Y-263759757D01*
X305230540Y-263759757D02*
X305373397Y-263688328D01*
X305373397Y-263688328D02*
X305587683Y-263688328D01*
X305587683Y-263688328D02*
X305730540Y-263759757D01*
X305730540Y-263759757D02*
X305801969Y-263902614D01*
X305801969Y-263902614D02*
X305801969Y-264688328D01*
X307159112Y-264688328D02*
X307159112Y-263188328D01*
X307159112Y-264616900D02*
X307016254Y-264688328D01*
X307016254Y-264688328D02*
X306730540Y-264688328D01*
X306730540Y-264688328D02*
X306587683Y-264616900D01*
X306587683Y-264616900D02*
X306516254Y-264545471D01*
X306516254Y-264545471D02*
X306444826Y-264402614D01*
X306444826Y-264402614D02*
X306444826Y-263974042D01*
X306444826Y-263974042D02*
X306516254Y-263831185D01*
X306516254Y-263831185D02*
X306587683Y-263759757D01*
X306587683Y-263759757D02*
X306730540Y-263688328D01*
X306730540Y-263688328D02*
X307016254Y-263688328D01*
X307016254Y-263688328D02*
X307159112Y-263759757D01*
X308516255Y-264688328D02*
X308516255Y-263902614D01*
X308516255Y-263902614D02*
X308444826Y-263759757D01*
X308444826Y-263759757D02*
X308301969Y-263688328D01*
X308301969Y-263688328D02*
X308016255Y-263688328D01*
X308016255Y-263688328D02*
X307873397Y-263759757D01*
X308516255Y-264616900D02*
X308373397Y-264688328D01*
X308373397Y-264688328D02*
X308016255Y-264688328D01*
X308016255Y-264688328D02*
X307873397Y-264616900D01*
X307873397Y-264616900D02*
X307801969Y-264474042D01*
X307801969Y-264474042D02*
X307801969Y-264331185D01*
X307801969Y-264331185D02*
X307873397Y-264188328D01*
X307873397Y-264188328D02*
X308016255Y-264116900D01*
X308016255Y-264116900D02*
X308373397Y-264116900D01*
X308373397Y-264116900D02*
X308516255Y-264045471D01*
X309230540Y-263688328D02*
X309230540Y-264688328D01*
X309230540Y-263831185D02*
X309301969Y-263759757D01*
X309301969Y-263759757D02*
X309444826Y-263688328D01*
X309444826Y-263688328D02*
X309659112Y-263688328D01*
X309659112Y-263688328D02*
X309801969Y-263759757D01*
X309801969Y-263759757D02*
X309873398Y-263902614D01*
X309873398Y-263902614D02*
X309873398Y-264688328D01*
X312230540Y-263902614D02*
X312444826Y-263974042D01*
X312444826Y-263974042D02*
X312516255Y-264045471D01*
X312516255Y-264045471D02*
X312587683Y-264188328D01*
X312587683Y-264188328D02*
X312587683Y-264402614D01*
X312587683Y-264402614D02*
X312516255Y-264545471D01*
X312516255Y-264545471D02*
X312444826Y-264616900D01*
X312444826Y-264616900D02*
X312301969Y-264688328D01*
X312301969Y-264688328D02*
X311730540Y-264688328D01*
X311730540Y-264688328D02*
X311730540Y-263188328D01*
X311730540Y-263188328D02*
X312230540Y-263188328D01*
X312230540Y-263188328D02*
X312373398Y-263259757D01*
X312373398Y-263259757D02*
X312444826Y-263331185D01*
X312444826Y-263331185D02*
X312516255Y-263474042D01*
X312516255Y-263474042D02*
X312516255Y-263616900D01*
X312516255Y-263616900D02*
X312444826Y-263759757D01*
X312444826Y-263759757D02*
X312373398Y-263831185D01*
X312373398Y-263831185D02*
X312230540Y-263902614D01*
X312230540Y-263902614D02*
X311730540Y-263902614D01*
X313444826Y-264688328D02*
X313301969Y-264616900D01*
X313301969Y-264616900D02*
X313230540Y-264474042D01*
X313230540Y-264474042D02*
X313230540Y-263188328D01*
X314587683Y-264616900D02*
X314444826Y-264688328D01*
X314444826Y-264688328D02*
X314159112Y-264688328D01*
X314159112Y-264688328D02*
X314016254Y-264616900D01*
X314016254Y-264616900D02*
X313944826Y-264474042D01*
X313944826Y-264474042D02*
X313944826Y-263902614D01*
X313944826Y-263902614D02*
X314016254Y-263759757D01*
X314016254Y-263759757D02*
X314159112Y-263688328D01*
X314159112Y-263688328D02*
X314444826Y-263688328D01*
X314444826Y-263688328D02*
X314587683Y-263759757D01*
X314587683Y-263759757D02*
X314659112Y-263902614D01*
X314659112Y-263902614D02*
X314659112Y-264045471D01*
X314659112Y-264045471D02*
X313944826Y-264188328D01*
X315301968Y-264688328D02*
X315301968Y-263188328D01*
X315444826Y-264116900D02*
X315873397Y-264688328D01*
X315873397Y-263688328D02*
X315301968Y-264259757D01*
X317087683Y-264616900D02*
X316944826Y-264688328D01*
X316944826Y-264688328D02*
X316659112Y-264688328D01*
X316659112Y-264688328D02*
X316516254Y-264616900D01*
X316516254Y-264616900D02*
X316444826Y-264474042D01*
X316444826Y-264474042D02*
X316444826Y-263902614D01*
X316444826Y-263902614D02*
X316516254Y-263759757D01*
X316516254Y-263759757D02*
X316659112Y-263688328D01*
X316659112Y-263688328D02*
X316944826Y-263688328D01*
X316944826Y-263688328D02*
X317087683Y-263759757D01*
X317087683Y-263759757D02*
X317159112Y-263902614D01*
X317159112Y-263902614D02*
X317159112Y-264045471D01*
X317159112Y-264045471D02*
X316444826Y-264188328D01*
X317801968Y-264688328D02*
X317801968Y-263688328D01*
X317801968Y-263974042D02*
X317873397Y-263831185D01*
X317873397Y-263831185D02*
X317944826Y-263759757D01*
X317944826Y-263759757D02*
X318087683Y-263688328D01*
X318087683Y-263688328D02*
X318230540Y-263688328D01*
D10*
D11*
D10*
D11*
D10*
D11*
D10*
D11*
X319989000Y-278502200D02*
X319989000Y-281502200D01*
D10*
D11*
X383989000Y-278502200D02*
X383989000Y-285002200D01*
D14*
X224591912Y-138645079D02*
X224140326Y-138632741D01*
X224140326Y-138632741D02*
X223957225Y-138718123D01*
X223957225Y-138718123D02*
X223725263Y-138937747D01*
X223725263Y-138937747D02*
X223578683Y-139340472D01*
X223578683Y-139340472D02*
X223615204Y-139657816D01*
X223615204Y-139657816D02*
X223700586Y-139840917D01*
X223700586Y-139840917D02*
X223920210Y-140072879D01*
X223920210Y-140072879D02*
X224994144Y-140463759D01*
X224994144Y-140463759D02*
X226020205Y-137644682D01*
X226020205Y-137644682D02*
X225080512Y-137302661D01*
X225080512Y-137302661D02*
X224763168Y-137339183D01*
X224763168Y-137339183D02*
X224580067Y-137424565D01*
X224580067Y-137424565D02*
X224348105Y-137644189D01*
X224348105Y-137644189D02*
X224250385Y-137912672D01*
X224250385Y-137912672D02*
X224286906Y-138230016D01*
X224286906Y-138230016D02*
X224372288Y-138413118D01*
X224372288Y-138413118D02*
X224591912Y-138645079D01*
X224591912Y-138645079D02*
X225531604Y-138987100D01*
X226741933Y-139412733D02*
X227095799Y-139693555D01*
X227095799Y-139693555D02*
X227181180Y-139876657D01*
X227181180Y-139876657D02*
X227217702Y-140194000D01*
X227217702Y-140194000D02*
X227071122Y-140596726D01*
X227071122Y-140596726D02*
X226839160Y-140816349D01*
X226839160Y-140816349D02*
X226656058Y-140901731D01*
X226656058Y-140901731D02*
X226338715Y-140938253D01*
X226338715Y-140938253D02*
X225264780Y-140547373D01*
X225264780Y-140547373D02*
X226290841Y-137728295D01*
X226290841Y-137728295D02*
X227230533Y-138070315D01*
X227230533Y-138070315D02*
X227450157Y-138302277D01*
X227450157Y-138302277D02*
X227535539Y-138485379D01*
X227535539Y-138485379D02*
X227572061Y-138802722D01*
X227572061Y-138802722D02*
X227474340Y-139071206D01*
X227474340Y-139071206D02*
X227242379Y-139290829D01*
X227242379Y-139290829D02*
X227059277Y-139376211D01*
X227059277Y-139376211D02*
X226741933Y-139412733D01*
X226741933Y-139412733D02*
X225802241Y-139070713D01*
D15*
X205443006Y-145813628D02*
X205585863Y-145856485D01*
X205585863Y-145856485D02*
X205633482Y-145899342D01*
X205633482Y-145899342D02*
X205681101Y-145985057D01*
X205681101Y-145985057D02*
X205681101Y-146113628D01*
X205681101Y-146113628D02*
X205633482Y-146199342D01*
X205633482Y-146199342D02*
X205585863Y-146242200D01*
X205585863Y-146242200D02*
X205490625Y-146285057D01*
X205490625Y-146285057D02*
X205109673Y-146285057D01*
X205109673Y-146285057D02*
X205109673Y-145385057D01*
X205109673Y-145385057D02*
X205443006Y-145385057D01*
X205443006Y-145385057D02*
X205538244Y-145427914D01*
X205538244Y-145427914D02*
X205585863Y-145470771D01*
X205585863Y-145470771D02*
X205633482Y-145556485D01*
X205633482Y-145556485D02*
X205633482Y-145642200D01*
X205633482Y-145642200D02*
X205585863Y-145727914D01*
X205585863Y-145727914D02*
X205538244Y-145770771D01*
X205538244Y-145770771D02*
X205443006Y-145813628D01*
X205443006Y-145813628D02*
X205109673Y-145813628D01*
X205966816Y-145385057D02*
X206538244Y-145385057D01*
X206252530Y-146285057D02*
X206252530Y-145385057D01*
X202081101Y-146133742D02*
X202033482Y-146176600D01*
X202033482Y-146176600D02*
X201890625Y-146219457D01*
X201890625Y-146219457D02*
X201795387Y-146219457D01*
X201795387Y-146219457D02*
X201652530Y-146176600D01*
X201652530Y-146176600D02*
X201557292Y-146090885D01*
X201557292Y-146090885D02*
X201509673Y-146005171D01*
X201509673Y-146005171D02*
X201462054Y-145833742D01*
X201462054Y-145833742D02*
X201462054Y-145705171D01*
X201462054Y-145705171D02*
X201509673Y-145533742D01*
X201509673Y-145533742D02*
X201557292Y-145448028D01*
X201557292Y-145448028D02*
X201652530Y-145362314D01*
X201652530Y-145362314D02*
X201795387Y-145319457D01*
X201795387Y-145319457D02*
X201890625Y-145319457D01*
X201890625Y-145319457D02*
X202033482Y-145362314D01*
X202033482Y-145362314D02*
X202081101Y-145405171D01*
X202509673Y-146219457D02*
X202509673Y-145319457D01*
X202509673Y-145748028D02*
X203081101Y-145748028D01*
X203081101Y-146219457D02*
X203081101Y-145319457D01*
X204081101Y-145362314D02*
X203985863Y-145319457D01*
X203985863Y-145319457D02*
X203843006Y-145319457D01*
X203843006Y-145319457D02*
X203700149Y-145362314D01*
X203700149Y-145362314D02*
X203604911Y-145448028D01*
X203604911Y-145448028D02*
X203557292Y-145533742D01*
X203557292Y-145533742D02*
X203509673Y-145705171D01*
X203509673Y-145705171D02*
X203509673Y-145833742D01*
X203509673Y-145833742D02*
X203557292Y-146005171D01*
X203557292Y-146005171D02*
X203604911Y-146090885D01*
X203604911Y-146090885D02*
X203700149Y-146176600D01*
X203700149Y-146176600D02*
X203843006Y-146219457D01*
X203843006Y-146219457D02*
X203938244Y-146219457D01*
X203938244Y-146219457D02*
X204081101Y-146176600D01*
X204081101Y-146176600D02*
X204128720Y-146133742D01*
X204128720Y-146133742D02*
X204128720Y-145833742D01*
X204128720Y-145833742D02*
X203938244Y-145833742D01*
D10*
X222733799Y-135501764D02*
X222483799Y-135144621D01*
X222305228Y-135501764D02*
X222305228Y-134751764D01*
X222305228Y-134751764D02*
X222590942Y-134751764D01*
X222590942Y-134751764D02*
X222662371Y-134787478D01*
X222662371Y-134787478D02*
X222698085Y-134823192D01*
X222698085Y-134823192D02*
X222733799Y-134894621D01*
X222733799Y-134894621D02*
X222733799Y-135001764D01*
X222733799Y-135001764D02*
X222698085Y-135073192D01*
X222698085Y-135073192D02*
X222662371Y-135108907D01*
X222662371Y-135108907D02*
X222590942Y-135144621D01*
X222590942Y-135144621D02*
X222305228Y-135144621D01*
X223019514Y-134823192D02*
X223055228Y-134787478D01*
X223055228Y-134787478D02*
X223126657Y-134751764D01*
X223126657Y-134751764D02*
X223305228Y-134751764D01*
X223305228Y-134751764D02*
X223376657Y-134787478D01*
X223376657Y-134787478D02*
X223412371Y-134823192D01*
X223412371Y-134823192D02*
X223448085Y-134894621D01*
X223448085Y-134894621D02*
X223448085Y-134966050D01*
X223448085Y-134966050D02*
X223412371Y-135073192D01*
X223412371Y-135073192D02*
X222983799Y-135501764D01*
X222983799Y-135501764D02*
X223448085Y-135501764D01*
X214650999Y-143755364D02*
X214400999Y-143398221D01*
X214222428Y-143755364D02*
X214222428Y-143005364D01*
X214222428Y-143005364D02*
X214508142Y-143005364D01*
X214508142Y-143005364D02*
X214579571Y-143041078D01*
X214579571Y-143041078D02*
X214615285Y-143076792D01*
X214615285Y-143076792D02*
X214650999Y-143148221D01*
X214650999Y-143148221D02*
X214650999Y-143255364D01*
X214650999Y-143255364D02*
X214615285Y-143326792D01*
X214615285Y-143326792D02*
X214579571Y-143362507D01*
X214579571Y-143362507D02*
X214508142Y-143398221D01*
X214508142Y-143398221D02*
X214222428Y-143398221D01*
X215329571Y-143005364D02*
X214972428Y-143005364D01*
X214972428Y-143005364D02*
X214936714Y-143362507D01*
X214936714Y-143362507D02*
X214972428Y-143326792D01*
X214972428Y-143326792D02*
X215043857Y-143291078D01*
X215043857Y-143291078D02*
X215222428Y-143291078D01*
X215222428Y-143291078D02*
X215293857Y-143326792D01*
X215293857Y-143326792D02*
X215329571Y-143362507D01*
X215329571Y-143362507D02*
X215365285Y-143433935D01*
X215365285Y-143433935D02*
X215365285Y-143612507D01*
X215365285Y-143612507D02*
X215329571Y-143683935D01*
X215329571Y-143683935D02*
X215293857Y-143719650D01*
X215293857Y-143719650D02*
X215222428Y-143755364D01*
X215222428Y-143755364D02*
X215043857Y-143755364D01*
X215043857Y-143755364D02*
X214972428Y-143719650D01*
X214972428Y-143719650D02*
X214936714Y-143683935D01*
X201648571Y-139461764D02*
X201648571Y-140068907D01*
X201648571Y-140068907D02*
X201684285Y-140140335D01*
X201684285Y-140140335D02*
X201720000Y-140176050D01*
X201720000Y-140176050D02*
X201791428Y-140211764D01*
X201791428Y-140211764D02*
X201934285Y-140211764D01*
X201934285Y-140211764D02*
X202005714Y-140176050D01*
X202005714Y-140176050D02*
X202041428Y-140140335D01*
X202041428Y-140140335D02*
X202077142Y-140068907D01*
X202077142Y-140068907D02*
X202077142Y-139461764D01*
X202791428Y-139461764D02*
X202434285Y-139461764D01*
X202434285Y-139461764D02*
X202398571Y-139818907D01*
X202398571Y-139818907D02*
X202434285Y-139783192D01*
X202434285Y-139783192D02*
X202505714Y-139747478D01*
X202505714Y-139747478D02*
X202684285Y-139747478D01*
X202684285Y-139747478D02*
X202755714Y-139783192D01*
X202755714Y-139783192D02*
X202791428Y-139818907D01*
X202791428Y-139818907D02*
X202827142Y-139890335D01*
X202827142Y-139890335D02*
X202827142Y-140068907D01*
X202827142Y-140068907D02*
X202791428Y-140140335D01*
X202791428Y-140140335D02*
X202755714Y-140176050D01*
X202755714Y-140176050D02*
X202684285Y-140211764D01*
X202684285Y-140211764D02*
X202505714Y-140211764D01*
X202505714Y-140211764D02*
X202434285Y-140176050D01*
X202434285Y-140176050D02*
X202398571Y-140140335D01*
X209471856Y-144070335D02*
X209436142Y-144106050D01*
X209436142Y-144106050D02*
X209328999Y-144141764D01*
X209328999Y-144141764D02*
X209257571Y-144141764D01*
X209257571Y-144141764D02*
X209150428Y-144106050D01*
X209150428Y-144106050D02*
X209078999Y-144034621D01*
X209078999Y-144034621D02*
X209043285Y-143963192D01*
X209043285Y-143963192D02*
X209007571Y-143820335D01*
X209007571Y-143820335D02*
X209007571Y-143713192D01*
X209007571Y-143713192D02*
X209043285Y-143570335D01*
X209043285Y-143570335D02*
X209078999Y-143498907D01*
X209078999Y-143498907D02*
X209150428Y-143427478D01*
X209150428Y-143427478D02*
X209257571Y-143391764D01*
X209257571Y-143391764D02*
X209328999Y-143391764D01*
X209328999Y-143391764D02*
X209436142Y-143427478D01*
X209436142Y-143427478D02*
X209471856Y-143463192D01*
X209757571Y-143463192D02*
X209793285Y-143427478D01*
X209793285Y-143427478D02*
X209864714Y-143391764D01*
X209864714Y-143391764D02*
X210043285Y-143391764D01*
X210043285Y-143391764D02*
X210114714Y-143427478D01*
X210114714Y-143427478D02*
X210150428Y-143463192D01*
X210150428Y-143463192D02*
X210186142Y-143534621D01*
X210186142Y-143534621D02*
X210186142Y-143606050D01*
X210186142Y-143606050D02*
X210150428Y-143713192D01*
X210150428Y-143713192D02*
X209721856Y-144141764D01*
X209721856Y-144141764D02*
X210186142Y-144141764D01*
X210543285Y-144141764D02*
X210686142Y-144141764D01*
X210686142Y-144141764D02*
X210757571Y-144106050D01*
X210757571Y-144106050D02*
X210793285Y-144070335D01*
X210793285Y-144070335D02*
X210864714Y-143963192D01*
X210864714Y-143963192D02*
X210900428Y-143820335D01*
X210900428Y-143820335D02*
X210900428Y-143534621D01*
X210900428Y-143534621D02*
X210864714Y-143463192D01*
X210864714Y-143463192D02*
X210829000Y-143427478D01*
X210829000Y-143427478D02*
X210757571Y-143391764D01*
X210757571Y-143391764D02*
X210614714Y-143391764D01*
X210614714Y-143391764D02*
X210543285Y-143427478D01*
X210543285Y-143427478D02*
X210507571Y-143463192D01*
X210507571Y-143463192D02*
X210471857Y-143534621D01*
X210471857Y-143534621D02*
X210471857Y-143713192D01*
X210471857Y-143713192D02*
X210507571Y-143784621D01*
X210507571Y-143784621D02*
X210543285Y-143820335D01*
X210543285Y-143820335D02*
X210614714Y-143856050D01*
X210614714Y-143856050D02*
X210757571Y-143856050D01*
X210757571Y-143856050D02*
X210829000Y-143820335D01*
X210829000Y-143820335D02*
X210864714Y-143784621D01*
X210864714Y-143784621D02*
X210900428Y-143713192D01*
X226424999Y-134170335D02*
X226389285Y-134206050D01*
X226389285Y-134206050D02*
X226282142Y-134241764D01*
X226282142Y-134241764D02*
X226210714Y-134241764D01*
X226210714Y-134241764D02*
X226103571Y-134206050D01*
X226103571Y-134206050D02*
X226032142Y-134134621D01*
X226032142Y-134134621D02*
X225996428Y-134063192D01*
X225996428Y-134063192D02*
X225960714Y-133920335D01*
X225960714Y-133920335D02*
X225960714Y-133813192D01*
X225960714Y-133813192D02*
X225996428Y-133670335D01*
X225996428Y-133670335D02*
X226032142Y-133598907D01*
X226032142Y-133598907D02*
X226103571Y-133527478D01*
X226103571Y-133527478D02*
X226210714Y-133491764D01*
X226210714Y-133491764D02*
X226282142Y-133491764D01*
X226282142Y-133491764D02*
X226389285Y-133527478D01*
X226389285Y-133527478D02*
X226424999Y-133563192D01*
X226710714Y-133563192D02*
X226746428Y-133527478D01*
X226746428Y-133527478D02*
X226817857Y-133491764D01*
X226817857Y-133491764D02*
X226996428Y-133491764D01*
X226996428Y-133491764D02*
X227067857Y-133527478D01*
X227067857Y-133527478D02*
X227103571Y-133563192D01*
X227103571Y-133563192D02*
X227139285Y-133634621D01*
X227139285Y-133634621D02*
X227139285Y-133706050D01*
X227139285Y-133706050D02*
X227103571Y-133813192D01*
X227103571Y-133813192D02*
X226674999Y-134241764D01*
X226674999Y-134241764D02*
X227139285Y-134241764D01*
X220068999Y-143834564D02*
X219818999Y-143477421D01*
X219640428Y-143834564D02*
X219640428Y-143084564D01*
X219640428Y-143084564D02*
X219926142Y-143084564D01*
X219926142Y-143084564D02*
X219997571Y-143120278D01*
X219997571Y-143120278D02*
X220033285Y-143155992D01*
X220033285Y-143155992D02*
X220068999Y-143227421D01*
X220068999Y-143227421D02*
X220068999Y-143334564D01*
X220068999Y-143334564D02*
X220033285Y-143405992D01*
X220033285Y-143405992D02*
X219997571Y-143441707D01*
X219997571Y-143441707D02*
X219926142Y-143477421D01*
X219926142Y-143477421D02*
X219640428Y-143477421D01*
X220497571Y-143405992D02*
X220426142Y-143370278D01*
X220426142Y-143370278D02*
X220390428Y-143334564D01*
X220390428Y-143334564D02*
X220354714Y-143263135D01*
X220354714Y-143263135D02*
X220354714Y-143227421D01*
X220354714Y-143227421D02*
X220390428Y-143155992D01*
X220390428Y-143155992D02*
X220426142Y-143120278D01*
X220426142Y-143120278D02*
X220497571Y-143084564D01*
X220497571Y-143084564D02*
X220640428Y-143084564D01*
X220640428Y-143084564D02*
X220711857Y-143120278D01*
X220711857Y-143120278D02*
X220747571Y-143155992D01*
X220747571Y-143155992D02*
X220783285Y-143227421D01*
X220783285Y-143227421D02*
X220783285Y-143263135D01*
X220783285Y-143263135D02*
X220747571Y-143334564D01*
X220747571Y-143334564D02*
X220711857Y-143370278D01*
X220711857Y-143370278D02*
X220640428Y-143405992D01*
X220640428Y-143405992D02*
X220497571Y-143405992D01*
X220497571Y-143405992D02*
X220426142Y-143441707D01*
X220426142Y-143441707D02*
X220390428Y-143477421D01*
X220390428Y-143477421D02*
X220354714Y-143548850D01*
X220354714Y-143548850D02*
X220354714Y-143691707D01*
X220354714Y-143691707D02*
X220390428Y-143763135D01*
X220390428Y-143763135D02*
X220426142Y-143798850D01*
X220426142Y-143798850D02*
X220497571Y-143834564D01*
X220497571Y-143834564D02*
X220640428Y-143834564D01*
X220640428Y-143834564D02*
X220711857Y-143798850D01*
X220711857Y-143798850D02*
X220747571Y-143763135D01*
X220747571Y-143763135D02*
X220783285Y-143691707D01*
X220783285Y-143691707D02*
X220783285Y-143548850D01*
X220783285Y-143548850D02*
X220747571Y-143477421D01*
X220747571Y-143477421D02*
X220711857Y-143441707D01*
X220711857Y-143441707D02*
X220640428Y-143405992D01*
X217114999Y-130961764D02*
X216864999Y-130604621D01*
X216686428Y-130961764D02*
X216686428Y-130211764D01*
X216686428Y-130211764D02*
X216972142Y-130211764D01*
X216972142Y-130211764D02*
X217043571Y-130247478D01*
X217043571Y-130247478D02*
X217079285Y-130283192D01*
X217079285Y-130283192D02*
X217114999Y-130354621D01*
X217114999Y-130354621D02*
X217114999Y-130461764D01*
X217114999Y-130461764D02*
X217079285Y-130533192D01*
X217079285Y-130533192D02*
X217043571Y-130568907D01*
X217043571Y-130568907D02*
X216972142Y-130604621D01*
X216972142Y-130604621D02*
X216686428Y-130604621D01*
X217757857Y-130211764D02*
X217614999Y-130211764D01*
X217614999Y-130211764D02*
X217543571Y-130247478D01*
X217543571Y-130247478D02*
X217507857Y-130283192D01*
X217507857Y-130283192D02*
X217436428Y-130390335D01*
X217436428Y-130390335D02*
X217400714Y-130533192D01*
X217400714Y-130533192D02*
X217400714Y-130818907D01*
X217400714Y-130818907D02*
X217436428Y-130890335D01*
X217436428Y-130890335D02*
X217472142Y-130926050D01*
X217472142Y-130926050D02*
X217543571Y-130961764D01*
X217543571Y-130961764D02*
X217686428Y-130961764D01*
X217686428Y-130961764D02*
X217757857Y-130926050D01*
X217757857Y-130926050D02*
X217793571Y-130890335D01*
X217793571Y-130890335D02*
X217829285Y-130818907D01*
X217829285Y-130818907D02*
X217829285Y-130640335D01*
X217829285Y-130640335D02*
X217793571Y-130568907D01*
X217793571Y-130568907D02*
X217757857Y-130533192D01*
X217757857Y-130533192D02*
X217686428Y-130497478D01*
X217686428Y-130497478D02*
X217543571Y-130497478D01*
X217543571Y-130497478D02*
X217472142Y-130533192D01*
X217472142Y-130533192D02*
X217436428Y-130568907D01*
X217436428Y-130568907D02*
X217400714Y-130640335D01*
X200190335Y-131172143D02*
X200226050Y-131207857D01*
X200226050Y-131207857D02*
X200261764Y-131315000D01*
X200261764Y-131315000D02*
X200261764Y-131386428D01*
X200261764Y-131386428D02*
X200226050Y-131493571D01*
X200226050Y-131493571D02*
X200154621Y-131565000D01*
X200154621Y-131565000D02*
X200083192Y-131600714D01*
X200083192Y-131600714D02*
X199940335Y-131636428D01*
X199940335Y-131636428D02*
X199833192Y-131636428D01*
X199833192Y-131636428D02*
X199690335Y-131600714D01*
X199690335Y-131600714D02*
X199618907Y-131565000D01*
X199618907Y-131565000D02*
X199547478Y-131493571D01*
X199547478Y-131493571D02*
X199511764Y-131386428D01*
X199511764Y-131386428D02*
X199511764Y-131315000D01*
X199511764Y-131315000D02*
X199547478Y-131207857D01*
X199547478Y-131207857D02*
X199583192Y-131172143D01*
X199583192Y-130886428D02*
X199547478Y-130850714D01*
X199547478Y-130850714D02*
X199511764Y-130779286D01*
X199511764Y-130779286D02*
X199511764Y-130600714D01*
X199511764Y-130600714D02*
X199547478Y-130529286D01*
X199547478Y-130529286D02*
X199583192Y-130493571D01*
X199583192Y-130493571D02*
X199654621Y-130457857D01*
X199654621Y-130457857D02*
X199726050Y-130457857D01*
X199726050Y-130457857D02*
X199833192Y-130493571D01*
X199833192Y-130493571D02*
X200261764Y-130922143D01*
X200261764Y-130922143D02*
X200261764Y-130457857D01*
X199833192Y-130029285D02*
X199797478Y-130100714D01*
X199797478Y-130100714D02*
X199761764Y-130136428D01*
X199761764Y-130136428D02*
X199690335Y-130172142D01*
X199690335Y-130172142D02*
X199654621Y-130172142D01*
X199654621Y-130172142D02*
X199583192Y-130136428D01*
X199583192Y-130136428D02*
X199547478Y-130100714D01*
X199547478Y-130100714D02*
X199511764Y-130029285D01*
X199511764Y-130029285D02*
X199511764Y-129886428D01*
X199511764Y-129886428D02*
X199547478Y-129815000D01*
X199547478Y-129815000D02*
X199583192Y-129779285D01*
X199583192Y-129779285D02*
X199654621Y-129743571D01*
X199654621Y-129743571D02*
X199690335Y-129743571D01*
X199690335Y-129743571D02*
X199761764Y-129779285D01*
X199761764Y-129779285D02*
X199797478Y-129815000D01*
X199797478Y-129815000D02*
X199833192Y-129886428D01*
X199833192Y-129886428D02*
X199833192Y-130029285D01*
X199833192Y-130029285D02*
X199868907Y-130100714D01*
X199868907Y-130100714D02*
X199904621Y-130136428D01*
X199904621Y-130136428D02*
X199976050Y-130172142D01*
X199976050Y-130172142D02*
X200118907Y-130172142D01*
X200118907Y-130172142D02*
X200190335Y-130136428D01*
X200190335Y-130136428D02*
X200226050Y-130100714D01*
X200226050Y-130100714D02*
X200261764Y-130029285D01*
X200261764Y-130029285D02*
X200261764Y-129886428D01*
X200261764Y-129886428D02*
X200226050Y-129815000D01*
X200226050Y-129815000D02*
X200190335Y-129779285D01*
X200190335Y-129779285D02*
X200118907Y-129743571D01*
X200118907Y-129743571D02*
X199976050Y-129743571D01*
X199976050Y-129743571D02*
X199904621Y-129779285D01*
X199904621Y-129779285D02*
X199868907Y-129815000D01*
X199868907Y-129815000D02*
X199833192Y-129886428D01*
X206097856Y-134240335D02*
X206062142Y-134276050D01*
X206062142Y-134276050D02*
X205954999Y-134311764D01*
X205954999Y-134311764D02*
X205883571Y-134311764D01*
X205883571Y-134311764D02*
X205776428Y-134276050D01*
X205776428Y-134276050D02*
X205704999Y-134204621D01*
X205704999Y-134204621D02*
X205669285Y-134133192D01*
X205669285Y-134133192D02*
X205633571Y-133990335D01*
X205633571Y-133990335D02*
X205633571Y-133883192D01*
X205633571Y-133883192D02*
X205669285Y-133740335D01*
X205669285Y-133740335D02*
X205704999Y-133668907D01*
X205704999Y-133668907D02*
X205776428Y-133597478D01*
X205776428Y-133597478D02*
X205883571Y-133561764D01*
X205883571Y-133561764D02*
X205954999Y-133561764D01*
X205954999Y-133561764D02*
X206062142Y-133597478D01*
X206062142Y-133597478D02*
X206097856Y-133633192D01*
X206812142Y-134311764D02*
X206383571Y-134311764D01*
X206597856Y-134311764D02*
X206597856Y-133561764D01*
X206597856Y-133561764D02*
X206526428Y-133668907D01*
X206526428Y-133668907D02*
X206454999Y-133740335D01*
X206454999Y-133740335D02*
X206383571Y-133776050D01*
X207490714Y-133561764D02*
X207133571Y-133561764D01*
X207133571Y-133561764D02*
X207097857Y-133918907D01*
X207097857Y-133918907D02*
X207133571Y-133883192D01*
X207133571Y-133883192D02*
X207205000Y-133847478D01*
X207205000Y-133847478D02*
X207383571Y-133847478D01*
X207383571Y-133847478D02*
X207455000Y-133883192D01*
X207455000Y-133883192D02*
X207490714Y-133918907D01*
X207490714Y-133918907D02*
X207526428Y-133990335D01*
X207526428Y-133990335D02*
X207526428Y-134168907D01*
X207526428Y-134168907D02*
X207490714Y-134240335D01*
X207490714Y-134240335D02*
X207455000Y-134276050D01*
X207455000Y-134276050D02*
X207383571Y-134311764D01*
X207383571Y-134311764D02*
X207205000Y-134311764D01*
X207205000Y-134311764D02*
X207133571Y-134276050D01*
X207133571Y-134276050D02*
X207097857Y-134240335D01*
X208857856Y-131530335D02*
X208822142Y-131566050D01*
X208822142Y-131566050D02*
X208714999Y-131601764D01*
X208714999Y-131601764D02*
X208643571Y-131601764D01*
X208643571Y-131601764D02*
X208536428Y-131566050D01*
X208536428Y-131566050D02*
X208464999Y-131494621D01*
X208464999Y-131494621D02*
X208429285Y-131423192D01*
X208429285Y-131423192D02*
X208393571Y-131280335D01*
X208393571Y-131280335D02*
X208393571Y-131173192D01*
X208393571Y-131173192D02*
X208429285Y-131030335D01*
X208429285Y-131030335D02*
X208464999Y-130958907D01*
X208464999Y-130958907D02*
X208536428Y-130887478D01*
X208536428Y-130887478D02*
X208643571Y-130851764D01*
X208643571Y-130851764D02*
X208714999Y-130851764D01*
X208714999Y-130851764D02*
X208822142Y-130887478D01*
X208822142Y-130887478D02*
X208857856Y-130923192D01*
X209572142Y-131601764D02*
X209143571Y-131601764D01*
X209357856Y-131601764D02*
X209357856Y-130851764D01*
X209357856Y-130851764D02*
X209286428Y-130958907D01*
X209286428Y-130958907D02*
X209214999Y-131030335D01*
X209214999Y-131030335D02*
X209143571Y-131066050D01*
X210286428Y-131601764D02*
X209857857Y-131601764D01*
X210072142Y-131601764D02*
X210072142Y-130851764D01*
X210072142Y-130851764D02*
X210000714Y-130958907D01*
X210000714Y-130958907D02*
X209929285Y-131030335D01*
X209929285Y-131030335D02*
X209857857Y-131066050D01*
D11*
X227826666Y-128624819D02*
X227826666Y-129339104D01*
X227826666Y-129339104D02*
X227779047Y-129481961D01*
X227779047Y-129481961D02*
X227683809Y-129577200D01*
X227683809Y-129577200D02*
X227540952Y-129624819D01*
X227540952Y-129624819D02*
X227445714Y-129624819D01*
X228826666Y-129624819D02*
X228255238Y-129624819D01*
X228540952Y-129624819D02*
X228540952Y-128624819D01*
X228540952Y-128624819D02*
X228445714Y-128767676D01*
X228445714Y-128767676D02*
X228350476Y-128862914D01*
X228350476Y-128862914D02*
X228255238Y-128910533D01*
D10*
X216917999Y-143724764D02*
X216667999Y-143367621D01*
X216489428Y-143724764D02*
X216489428Y-142974764D01*
X216489428Y-142974764D02*
X216775142Y-142974764D01*
X216775142Y-142974764D02*
X216846571Y-143010478D01*
X216846571Y-143010478D02*
X216882285Y-143046192D01*
X216882285Y-143046192D02*
X216917999Y-143117621D01*
X216917999Y-143117621D02*
X216917999Y-143224764D01*
X216917999Y-143224764D02*
X216882285Y-143296192D01*
X216882285Y-143296192D02*
X216846571Y-143331907D01*
X216846571Y-143331907D02*
X216775142Y-143367621D01*
X216775142Y-143367621D02*
X216489428Y-143367621D01*
X217167999Y-142974764D02*
X217667999Y-142974764D01*
X217667999Y-142974764D02*
X217346571Y-143724764D01*
X225555000Y-136681764D02*
X225197857Y-136681764D01*
X225197857Y-136681764D02*
X225197857Y-135931764D01*
X226197857Y-136681764D02*
X225769286Y-136681764D01*
X225983571Y-136681764D02*
X225983571Y-135931764D01*
X225983571Y-135931764D02*
X225912143Y-136038907D01*
X225912143Y-136038907D02*
X225840714Y-136110335D01*
X225840714Y-136110335D02*
X225769286Y-136146050D01*
X204865000Y-140211764D02*
X204507857Y-140211764D01*
X204507857Y-140211764D02*
X204507857Y-139461764D01*
X205436429Y-139711764D02*
X205436429Y-140211764D01*
X205257857Y-139426050D02*
X205079286Y-139961764D01*
X205079286Y-139961764D02*
X205543571Y-139961764D01*
X221107856Y-142120335D02*
X221072142Y-142156050D01*
X221072142Y-142156050D02*
X220964999Y-142191764D01*
X220964999Y-142191764D02*
X220893571Y-142191764D01*
X220893571Y-142191764D02*
X220786428Y-142156050D01*
X220786428Y-142156050D02*
X220714999Y-142084621D01*
X220714999Y-142084621D02*
X220679285Y-142013192D01*
X220679285Y-142013192D02*
X220643571Y-141870335D01*
X220643571Y-141870335D02*
X220643571Y-141763192D01*
X220643571Y-141763192D02*
X220679285Y-141620335D01*
X220679285Y-141620335D02*
X220714999Y-141548907D01*
X220714999Y-141548907D02*
X220786428Y-141477478D01*
X220786428Y-141477478D02*
X220893571Y-141441764D01*
X220893571Y-141441764D02*
X220964999Y-141441764D01*
X220964999Y-141441764D02*
X221072142Y-141477478D01*
X221072142Y-141477478D02*
X221107856Y-141513192D01*
X221393571Y-141513192D02*
X221429285Y-141477478D01*
X221429285Y-141477478D02*
X221500714Y-141441764D01*
X221500714Y-141441764D02*
X221679285Y-141441764D01*
X221679285Y-141441764D02*
X221750714Y-141477478D01*
X221750714Y-141477478D02*
X221786428Y-141513192D01*
X221786428Y-141513192D02*
X221822142Y-141584621D01*
X221822142Y-141584621D02*
X221822142Y-141656050D01*
X221822142Y-141656050D02*
X221786428Y-141763192D01*
X221786428Y-141763192D02*
X221357856Y-142191764D01*
X221357856Y-142191764D02*
X221822142Y-142191764D01*
X222536428Y-142191764D02*
X222107857Y-142191764D01*
X222322142Y-142191764D02*
X222322142Y-141441764D01*
X222322142Y-141441764D02*
X222250714Y-141548907D01*
X222250714Y-141548907D02*
X222179285Y-141620335D01*
X222179285Y-141620335D02*
X222107857Y-141656050D01*
X224544999Y-134130335D02*
X224509285Y-134166050D01*
X224509285Y-134166050D02*
X224402142Y-134201764D01*
X224402142Y-134201764D02*
X224330714Y-134201764D01*
X224330714Y-134201764D02*
X224223571Y-134166050D01*
X224223571Y-134166050D02*
X224152142Y-134094621D01*
X224152142Y-134094621D02*
X224116428Y-134023192D01*
X224116428Y-134023192D02*
X224080714Y-133880335D01*
X224080714Y-133880335D02*
X224080714Y-133773192D01*
X224080714Y-133773192D02*
X224116428Y-133630335D01*
X224116428Y-133630335D02*
X224152142Y-133558907D01*
X224152142Y-133558907D02*
X224223571Y-133487478D01*
X224223571Y-133487478D02*
X224330714Y-133451764D01*
X224330714Y-133451764D02*
X224402142Y-133451764D01*
X224402142Y-133451764D02*
X224509285Y-133487478D01*
X224509285Y-133487478D02*
X224544999Y-133523192D01*
X224794999Y-133451764D02*
X225259285Y-133451764D01*
X225259285Y-133451764D02*
X225009285Y-133737478D01*
X225009285Y-133737478D02*
X225116428Y-133737478D01*
X225116428Y-133737478D02*
X225187857Y-133773192D01*
X225187857Y-133773192D02*
X225223571Y-133808907D01*
X225223571Y-133808907D02*
X225259285Y-133880335D01*
X225259285Y-133880335D02*
X225259285Y-134058907D01*
X225259285Y-134058907D02*
X225223571Y-134130335D01*
X225223571Y-134130335D02*
X225187857Y-134166050D01*
X225187857Y-134166050D02*
X225116428Y-134201764D01*
X225116428Y-134201764D02*
X224902142Y-134201764D01*
X224902142Y-134201764D02*
X224830714Y-134166050D01*
X224830714Y-134166050D02*
X224794999Y-134130335D01*
D11*
X199706666Y-139424819D02*
X199706666Y-140139104D01*
X199706666Y-140139104D02*
X199659047Y-140281961D01*
X199659047Y-140281961D02*
X199563809Y-140377200D01*
X199563809Y-140377200D02*
X199420952Y-140424819D01*
X199420952Y-140424819D02*
X199325714Y-140424819D01*
X200087619Y-139424819D02*
X200706666Y-139424819D01*
X200706666Y-139424819D02*
X200373333Y-139805771D01*
X200373333Y-139805771D02*
X200516190Y-139805771D01*
X200516190Y-139805771D02*
X200611428Y-139853390D01*
X200611428Y-139853390D02*
X200659047Y-139901009D01*
X200659047Y-139901009D02*
X200706666Y-139996247D01*
X200706666Y-139996247D02*
X200706666Y-140234342D01*
X200706666Y-140234342D02*
X200659047Y-140329580D01*
X200659047Y-140329580D02*
X200611428Y-140377200D01*
X200611428Y-140377200D02*
X200516190Y-140424819D01*
X200516190Y-140424819D02*
X200230476Y-140424819D01*
X200230476Y-140424819D02*
X200135238Y-140377200D01*
X200135238Y-140377200D02*
X200087619Y-140329580D01*
X227716666Y-146044819D02*
X227716666Y-146759104D01*
X227716666Y-146759104D02*
X227669047Y-146901961D01*
X227669047Y-146901961D02*
X227573809Y-146997200D01*
X227573809Y-146997200D02*
X227430952Y-147044819D01*
X227430952Y-147044819D02*
X227335714Y-147044819D01*
X228145238Y-146140057D02*
X228192857Y-146092438D01*
X228192857Y-146092438D02*
X228288095Y-146044819D01*
X228288095Y-146044819D02*
X228526190Y-146044819D01*
X228526190Y-146044819D02*
X228621428Y-146092438D01*
X228621428Y-146092438D02*
X228669047Y-146140057D01*
X228669047Y-146140057D02*
X228716666Y-146235295D01*
X228716666Y-146235295D02*
X228716666Y-146330533D01*
X228716666Y-146330533D02*
X228669047Y-146473390D01*
X228669047Y-146473390D02*
X228097619Y-147044819D01*
X228097619Y-147044819D02*
X228716666Y-147044819D01*
D10*
X223648571Y-143481764D02*
X223648571Y-144088907D01*
X223648571Y-144088907D02*
X223684285Y-144160335D01*
X223684285Y-144160335D02*
X223720000Y-144196050D01*
X223720000Y-144196050D02*
X223791428Y-144231764D01*
X223791428Y-144231764D02*
X223934285Y-144231764D01*
X223934285Y-144231764D02*
X224005714Y-144196050D01*
X224005714Y-144196050D02*
X224041428Y-144160335D01*
X224041428Y-144160335D02*
X224077142Y-144088907D01*
X224077142Y-144088907D02*
X224077142Y-143481764D01*
X224362856Y-143481764D02*
X224827142Y-143481764D01*
X224827142Y-143481764D02*
X224577142Y-143767478D01*
X224577142Y-143767478D02*
X224684285Y-143767478D01*
X224684285Y-143767478D02*
X224755714Y-143803192D01*
X224755714Y-143803192D02*
X224791428Y-143838907D01*
X224791428Y-143838907D02*
X224827142Y-143910335D01*
X224827142Y-143910335D02*
X224827142Y-144088907D01*
X224827142Y-144088907D02*
X224791428Y-144160335D01*
X224791428Y-144160335D02*
X224755714Y-144196050D01*
X224755714Y-144196050D02*
X224684285Y-144231764D01*
X224684285Y-144231764D02*
X224469999Y-144231764D01*
X224469999Y-144231764D02*
X224398571Y-144196050D01*
X224398571Y-144196050D02*
X224362856Y-144160335D01*
X200177856Y-138791764D02*
X199927856Y-138434621D01*
X199749285Y-138791764D02*
X199749285Y-138041764D01*
X199749285Y-138041764D02*
X200034999Y-138041764D01*
X200034999Y-138041764D02*
X200106428Y-138077478D01*
X200106428Y-138077478D02*
X200142142Y-138113192D01*
X200142142Y-138113192D02*
X200177856Y-138184621D01*
X200177856Y-138184621D02*
X200177856Y-138291764D01*
X200177856Y-138291764D02*
X200142142Y-138363192D01*
X200142142Y-138363192D02*
X200106428Y-138398907D01*
X200106428Y-138398907D02*
X200034999Y-138434621D01*
X200034999Y-138434621D02*
X199749285Y-138434621D01*
X200463571Y-138113192D02*
X200499285Y-138077478D01*
X200499285Y-138077478D02*
X200570714Y-138041764D01*
X200570714Y-138041764D02*
X200749285Y-138041764D01*
X200749285Y-138041764D02*
X200820714Y-138077478D01*
X200820714Y-138077478D02*
X200856428Y-138113192D01*
X200856428Y-138113192D02*
X200892142Y-138184621D01*
X200892142Y-138184621D02*
X200892142Y-138256050D01*
X200892142Y-138256050D02*
X200856428Y-138363192D01*
X200856428Y-138363192D02*
X200427856Y-138791764D01*
X200427856Y-138791764D02*
X200892142Y-138791764D01*
X201177857Y-138113192D02*
X201213571Y-138077478D01*
X201213571Y-138077478D02*
X201285000Y-138041764D01*
X201285000Y-138041764D02*
X201463571Y-138041764D01*
X201463571Y-138041764D02*
X201535000Y-138077478D01*
X201535000Y-138077478D02*
X201570714Y-138113192D01*
X201570714Y-138113192D02*
X201606428Y-138184621D01*
X201606428Y-138184621D02*
X201606428Y-138256050D01*
X201606428Y-138256050D02*
X201570714Y-138363192D01*
X201570714Y-138363192D02*
X201142142Y-138791764D01*
X201142142Y-138791764D02*
X201606428Y-138791764D01*
X214451056Y-142110335D02*
X214415342Y-142146050D01*
X214415342Y-142146050D02*
X214308199Y-142181764D01*
X214308199Y-142181764D02*
X214236771Y-142181764D01*
X214236771Y-142181764D02*
X214129628Y-142146050D01*
X214129628Y-142146050D02*
X214058199Y-142074621D01*
X214058199Y-142074621D02*
X214022485Y-142003192D01*
X214022485Y-142003192D02*
X213986771Y-141860335D01*
X213986771Y-141860335D02*
X213986771Y-141753192D01*
X213986771Y-141753192D02*
X214022485Y-141610335D01*
X214022485Y-141610335D02*
X214058199Y-141538907D01*
X214058199Y-141538907D02*
X214129628Y-141467478D01*
X214129628Y-141467478D02*
X214236771Y-141431764D01*
X214236771Y-141431764D02*
X214308199Y-141431764D01*
X214308199Y-141431764D02*
X214415342Y-141467478D01*
X214415342Y-141467478D02*
X214451056Y-141503192D01*
X214701056Y-141431764D02*
X215165342Y-141431764D01*
X215165342Y-141431764D02*
X214915342Y-141717478D01*
X214915342Y-141717478D02*
X215022485Y-141717478D01*
X215022485Y-141717478D02*
X215093914Y-141753192D01*
X215093914Y-141753192D02*
X215129628Y-141788907D01*
X215129628Y-141788907D02*
X215165342Y-141860335D01*
X215165342Y-141860335D02*
X215165342Y-142038907D01*
X215165342Y-142038907D02*
X215129628Y-142110335D01*
X215129628Y-142110335D02*
X215093914Y-142146050D01*
X215093914Y-142146050D02*
X215022485Y-142181764D01*
X215022485Y-142181764D02*
X214808199Y-142181764D01*
X214808199Y-142181764D02*
X214736771Y-142146050D01*
X214736771Y-142146050D02*
X214701056Y-142110335D01*
X215808200Y-141681764D02*
X215808200Y-142181764D01*
X215629628Y-141396050D02*
X215451057Y-141931764D01*
X215451057Y-141931764D02*
X215915342Y-141931764D01*
D11*
X199909819Y-133813333D02*
X200624104Y-133813333D01*
X200624104Y-133813333D02*
X200766961Y-133860952D01*
X200766961Y-133860952D02*
X200862200Y-133956190D01*
X200862200Y-133956190D02*
X200909819Y-134099047D01*
X200909819Y-134099047D02*
X200909819Y-134194285D01*
X199909819Y-132860952D02*
X199909819Y-133337142D01*
X199909819Y-133337142D02*
X200386009Y-133384761D01*
X200386009Y-133384761D02*
X200338390Y-133337142D01*
X200338390Y-133337142D02*
X200290771Y-133241904D01*
X200290771Y-133241904D02*
X200290771Y-133003809D01*
X200290771Y-133003809D02*
X200338390Y-132908571D01*
X200338390Y-132908571D02*
X200386009Y-132860952D01*
X200386009Y-132860952D02*
X200481247Y-132813333D01*
X200481247Y-132813333D02*
X200719342Y-132813333D01*
X200719342Y-132813333D02*
X200814580Y-132860952D01*
X200814580Y-132860952D02*
X200862200Y-132908571D01*
X200862200Y-132908571D02*
X200909819Y-133003809D01*
X200909819Y-133003809D02*
X200909819Y-133241904D01*
X200909819Y-133241904D02*
X200862200Y-133337142D01*
X200862200Y-133337142D02*
X200814580Y-133384761D01*
X209466666Y-133074819D02*
X209466666Y-133789104D01*
X209466666Y-133789104D02*
X209419047Y-133931961D01*
X209419047Y-133931961D02*
X209323809Y-134027200D01*
X209323809Y-134027200D02*
X209180952Y-134074819D01*
X209180952Y-134074819D02*
X209085714Y-134074819D01*
X210371428Y-133408152D02*
X210371428Y-134074819D01*
X210133333Y-133027200D02*
X209895238Y-133741485D01*
X209895238Y-133741485D02*
X210514285Y-133741485D01*
D10*
X220757856Y-130900335D02*
X220722142Y-130936050D01*
X220722142Y-130936050D02*
X220614999Y-130971764D01*
X220614999Y-130971764D02*
X220543571Y-130971764D01*
X220543571Y-130971764D02*
X220436428Y-130936050D01*
X220436428Y-130936050D02*
X220364999Y-130864621D01*
X220364999Y-130864621D02*
X220329285Y-130793192D01*
X220329285Y-130793192D02*
X220293571Y-130650335D01*
X220293571Y-130650335D02*
X220293571Y-130543192D01*
X220293571Y-130543192D02*
X220329285Y-130400335D01*
X220329285Y-130400335D02*
X220364999Y-130328907D01*
X220364999Y-130328907D02*
X220436428Y-130257478D01*
X220436428Y-130257478D02*
X220543571Y-130221764D01*
X220543571Y-130221764D02*
X220614999Y-130221764D01*
X220614999Y-130221764D02*
X220722142Y-130257478D01*
X220722142Y-130257478D02*
X220757856Y-130293192D01*
X221007856Y-130221764D02*
X221472142Y-130221764D01*
X221472142Y-130221764D02*
X221222142Y-130507478D01*
X221222142Y-130507478D02*
X221329285Y-130507478D01*
X221329285Y-130507478D02*
X221400714Y-130543192D01*
X221400714Y-130543192D02*
X221436428Y-130578907D01*
X221436428Y-130578907D02*
X221472142Y-130650335D01*
X221472142Y-130650335D02*
X221472142Y-130828907D01*
X221472142Y-130828907D02*
X221436428Y-130900335D01*
X221436428Y-130900335D02*
X221400714Y-130936050D01*
X221400714Y-130936050D02*
X221329285Y-130971764D01*
X221329285Y-130971764D02*
X221114999Y-130971764D01*
X221114999Y-130971764D02*
X221043571Y-130936050D01*
X221043571Y-130936050D02*
X221007856Y-130900335D01*
X222186428Y-130971764D02*
X221757857Y-130971764D01*
X221972142Y-130971764D02*
X221972142Y-130221764D01*
X221972142Y-130221764D02*
X221900714Y-130328907D01*
X221900714Y-130328907D02*
X221829285Y-130400335D01*
X221829285Y-130400335D02*
X221757857Y-130436050D01*
X205267856Y-142681764D02*
X205017856Y-142324621D01*
X204839285Y-142681764D02*
X204839285Y-141931764D01*
X204839285Y-141931764D02*
X205124999Y-141931764D01*
X205124999Y-141931764D02*
X205196428Y-141967478D01*
X205196428Y-141967478D02*
X205232142Y-142003192D01*
X205232142Y-142003192D02*
X205267856Y-142074621D01*
X205267856Y-142074621D02*
X205267856Y-142181764D01*
X205267856Y-142181764D02*
X205232142Y-142253192D01*
X205232142Y-142253192D02*
X205196428Y-142288907D01*
X205196428Y-142288907D02*
X205124999Y-142324621D01*
X205124999Y-142324621D02*
X204839285Y-142324621D01*
X205982142Y-142681764D02*
X205553571Y-142681764D01*
X205767856Y-142681764D02*
X205767856Y-141931764D01*
X205767856Y-141931764D02*
X205696428Y-142038907D01*
X205696428Y-142038907D02*
X205624999Y-142110335D01*
X205624999Y-142110335D02*
X205553571Y-142146050D01*
X206267857Y-142003192D02*
X206303571Y-141967478D01*
X206303571Y-141967478D02*
X206375000Y-141931764D01*
X206375000Y-141931764D02*
X206553571Y-141931764D01*
X206553571Y-141931764D02*
X206625000Y-141967478D01*
X206625000Y-141967478D02*
X206660714Y-142003192D01*
X206660714Y-142003192D02*
X206696428Y-142074621D01*
X206696428Y-142074621D02*
X206696428Y-142146050D01*
X206696428Y-142146050D02*
X206660714Y-142253192D01*
X206660714Y-142253192D02*
X206232142Y-142681764D01*
X206232142Y-142681764D02*
X206696428Y-142681764D01*
X226052857Y-131834621D02*
X226052857Y-132191764D01*
X225802857Y-131441764D02*
X226052857Y-131834621D01*
X226052857Y-131834621D02*
X226302857Y-131441764D01*
X226945714Y-132191764D02*
X226517143Y-132191764D01*
X226731428Y-132191764D02*
X226731428Y-131441764D01*
X226731428Y-131441764D02*
X226660000Y-131548907D01*
X226660000Y-131548907D02*
X226588571Y-131620335D01*
X226588571Y-131620335D02*
X226517143Y-131656050D01*
X209912857Y-141564621D02*
X209912857Y-141921764D01*
X209662857Y-141171764D02*
X209912857Y-141564621D01*
X209912857Y-141564621D02*
X210162857Y-141171764D01*
X210377143Y-141243192D02*
X210412857Y-141207478D01*
X210412857Y-141207478D02*
X210484286Y-141171764D01*
X210484286Y-141171764D02*
X210662857Y-141171764D01*
X210662857Y-141171764D02*
X210734286Y-141207478D01*
X210734286Y-141207478D02*
X210770000Y-141243192D01*
X210770000Y-141243192D02*
X210805714Y-141314621D01*
X210805714Y-141314621D02*
X210805714Y-141386050D01*
X210805714Y-141386050D02*
X210770000Y-141493192D01*
X210770000Y-141493192D02*
X210341428Y-141921764D01*
X210341428Y-141921764D02*
X210805714Y-141921764D01*
X204078571Y-133581764D02*
X204078571Y-134188907D01*
X204078571Y-134188907D02*
X204114285Y-134260335D01*
X204114285Y-134260335D02*
X204150000Y-134296050D01*
X204150000Y-134296050D02*
X204221428Y-134331764D01*
X204221428Y-134331764D02*
X204364285Y-134331764D01*
X204364285Y-134331764D02*
X204435714Y-134296050D01*
X204435714Y-134296050D02*
X204471428Y-134260335D01*
X204471428Y-134260335D02*
X204507142Y-134188907D01*
X204507142Y-134188907D02*
X204507142Y-133581764D01*
X205185714Y-133581764D02*
X205042856Y-133581764D01*
X205042856Y-133581764D02*
X204971428Y-133617478D01*
X204971428Y-133617478D02*
X204935714Y-133653192D01*
X204935714Y-133653192D02*
X204864285Y-133760335D01*
X204864285Y-133760335D02*
X204828571Y-133903192D01*
X204828571Y-133903192D02*
X204828571Y-134188907D01*
X204828571Y-134188907D02*
X204864285Y-134260335D01*
X204864285Y-134260335D02*
X204899999Y-134296050D01*
X204899999Y-134296050D02*
X204971428Y-134331764D01*
X204971428Y-134331764D02*
X205114285Y-134331764D01*
X205114285Y-134331764D02*
X205185714Y-134296050D01*
X205185714Y-134296050D02*
X205221428Y-134260335D01*
X205221428Y-134260335D02*
X205257142Y-134188907D01*
X205257142Y-134188907D02*
X205257142Y-134010335D01*
X205257142Y-134010335D02*
X205221428Y-133938907D01*
X205221428Y-133938907D02*
X205185714Y-133903192D01*
X205185714Y-133903192D02*
X205114285Y-133867478D01*
X205114285Y-133867478D02*
X204971428Y-133867478D01*
X204971428Y-133867478D02*
X204899999Y-133903192D01*
X204899999Y-133903192D02*
X204864285Y-133938907D01*
X204864285Y-133938907D02*
X204828571Y-134010335D01*
X204518571Y-128691764D02*
X204518571Y-129298907D01*
X204518571Y-129298907D02*
X204554285Y-129370335D01*
X204554285Y-129370335D02*
X204590000Y-129406050D01*
X204590000Y-129406050D02*
X204661428Y-129441764D01*
X204661428Y-129441764D02*
X204804285Y-129441764D01*
X204804285Y-129441764D02*
X204875714Y-129406050D01*
X204875714Y-129406050D02*
X204911428Y-129370335D01*
X204911428Y-129370335D02*
X204947142Y-129298907D01*
X204947142Y-129298907D02*
X204947142Y-128691764D01*
X205411428Y-129013192D02*
X205339999Y-128977478D01*
X205339999Y-128977478D02*
X205304285Y-128941764D01*
X205304285Y-128941764D02*
X205268571Y-128870335D01*
X205268571Y-128870335D02*
X205268571Y-128834621D01*
X205268571Y-128834621D02*
X205304285Y-128763192D01*
X205304285Y-128763192D02*
X205339999Y-128727478D01*
X205339999Y-128727478D02*
X205411428Y-128691764D01*
X205411428Y-128691764D02*
X205554285Y-128691764D01*
X205554285Y-128691764D02*
X205625714Y-128727478D01*
X205625714Y-128727478D02*
X205661428Y-128763192D01*
X205661428Y-128763192D02*
X205697142Y-128834621D01*
X205697142Y-128834621D02*
X205697142Y-128870335D01*
X205697142Y-128870335D02*
X205661428Y-128941764D01*
X205661428Y-128941764D02*
X205625714Y-128977478D01*
X205625714Y-128977478D02*
X205554285Y-129013192D01*
X205554285Y-129013192D02*
X205411428Y-129013192D01*
X205411428Y-129013192D02*
X205339999Y-129048907D01*
X205339999Y-129048907D02*
X205304285Y-129084621D01*
X205304285Y-129084621D02*
X205268571Y-129156050D01*
X205268571Y-129156050D02*
X205268571Y-129298907D01*
X205268571Y-129298907D02*
X205304285Y-129370335D01*
X205304285Y-129370335D02*
X205339999Y-129406050D01*
X205339999Y-129406050D02*
X205411428Y-129441764D01*
X205411428Y-129441764D02*
X205554285Y-129441764D01*
X205554285Y-129441764D02*
X205625714Y-129406050D01*
X205625714Y-129406050D02*
X205661428Y-129370335D01*
X205661428Y-129370335D02*
X205697142Y-129298907D01*
X205697142Y-129298907D02*
X205697142Y-129156050D01*
X205697142Y-129156050D02*
X205661428Y-129084621D01*
X205661428Y-129084621D02*
X205625714Y-129048907D01*
X205625714Y-129048907D02*
X205554285Y-129013192D01*
X202560335Y-132372143D02*
X202596050Y-132407857D01*
X202596050Y-132407857D02*
X202631764Y-132515000D01*
X202631764Y-132515000D02*
X202631764Y-132586428D01*
X202631764Y-132586428D02*
X202596050Y-132693571D01*
X202596050Y-132693571D02*
X202524621Y-132765000D01*
X202524621Y-132765000D02*
X202453192Y-132800714D01*
X202453192Y-132800714D02*
X202310335Y-132836428D01*
X202310335Y-132836428D02*
X202203192Y-132836428D01*
X202203192Y-132836428D02*
X202060335Y-132800714D01*
X202060335Y-132800714D02*
X201988907Y-132765000D01*
X201988907Y-132765000D02*
X201917478Y-132693571D01*
X201917478Y-132693571D02*
X201881764Y-132586428D01*
X201881764Y-132586428D02*
X201881764Y-132515000D01*
X201881764Y-132515000D02*
X201917478Y-132407857D01*
X201917478Y-132407857D02*
X201953192Y-132372143D01*
X201881764Y-132122143D02*
X201881764Y-131657857D01*
X201881764Y-131657857D02*
X202167478Y-131907857D01*
X202167478Y-131907857D02*
X202167478Y-131800714D01*
X202167478Y-131800714D02*
X202203192Y-131729286D01*
X202203192Y-131729286D02*
X202238907Y-131693571D01*
X202238907Y-131693571D02*
X202310335Y-131657857D01*
X202310335Y-131657857D02*
X202488907Y-131657857D01*
X202488907Y-131657857D02*
X202560335Y-131693571D01*
X202560335Y-131693571D02*
X202596050Y-131729286D01*
X202596050Y-131729286D02*
X202631764Y-131800714D01*
X202631764Y-131800714D02*
X202631764Y-132015000D01*
X202631764Y-132015000D02*
X202596050Y-132086428D01*
X202596050Y-132086428D02*
X202560335Y-132122143D01*
X201881764Y-131407857D02*
X201881764Y-130943571D01*
X201881764Y-130943571D02*
X202167478Y-131193571D01*
X202167478Y-131193571D02*
X202167478Y-131086428D01*
X202167478Y-131086428D02*
X202203192Y-131015000D01*
X202203192Y-131015000D02*
X202238907Y-130979285D01*
X202238907Y-130979285D02*
X202310335Y-130943571D01*
X202310335Y-130943571D02*
X202488907Y-130943571D01*
X202488907Y-130943571D02*
X202560335Y-130979285D01*
X202560335Y-130979285D02*
X202596050Y-131015000D01*
X202596050Y-131015000D02*
X202631764Y-131086428D01*
X202631764Y-131086428D02*
X202631764Y-131300714D01*
X202631764Y-131300714D02*
X202596050Y-131372142D01*
X202596050Y-131372142D02*
X202560335Y-131407857D01*
X230540199Y-137460335D02*
X230504485Y-137496050D01*
X230504485Y-137496050D02*
X230397342Y-137531764D01*
X230397342Y-137531764D02*
X230325914Y-137531764D01*
X230325914Y-137531764D02*
X230218771Y-137496050D01*
X230218771Y-137496050D02*
X230147342Y-137424621D01*
X230147342Y-137424621D02*
X230111628Y-137353192D01*
X230111628Y-137353192D02*
X230075914Y-137210335D01*
X230075914Y-137210335D02*
X230075914Y-137103192D01*
X230075914Y-137103192D02*
X230111628Y-136960335D01*
X230111628Y-136960335D02*
X230147342Y-136888907D01*
X230147342Y-136888907D02*
X230218771Y-136817478D01*
X230218771Y-136817478D02*
X230325914Y-136781764D01*
X230325914Y-136781764D02*
X230397342Y-136781764D01*
X230397342Y-136781764D02*
X230504485Y-136817478D01*
X230504485Y-136817478D02*
X230540199Y-136853192D01*
X231254485Y-137531764D02*
X230825914Y-137531764D01*
X231040199Y-137531764D02*
X231040199Y-136781764D01*
X231040199Y-136781764D02*
X230968771Y-136888907D01*
X230968771Y-136888907D02*
X230897342Y-136960335D01*
X230897342Y-136960335D02*
X230825914Y-136996050D01*
X204327856Y-141190335D02*
X204292142Y-141226050D01*
X204292142Y-141226050D02*
X204184999Y-141261764D01*
X204184999Y-141261764D02*
X204113571Y-141261764D01*
X204113571Y-141261764D02*
X204006428Y-141226050D01*
X204006428Y-141226050D02*
X203934999Y-141154621D01*
X203934999Y-141154621D02*
X203899285Y-141083192D01*
X203899285Y-141083192D02*
X203863571Y-140940335D01*
X203863571Y-140940335D02*
X203863571Y-140833192D01*
X203863571Y-140833192D02*
X203899285Y-140690335D01*
X203899285Y-140690335D02*
X203934999Y-140618907D01*
X203934999Y-140618907D02*
X204006428Y-140547478D01*
X204006428Y-140547478D02*
X204113571Y-140511764D01*
X204113571Y-140511764D02*
X204184999Y-140511764D01*
X204184999Y-140511764D02*
X204292142Y-140547478D01*
X204292142Y-140547478D02*
X204327856Y-140583192D01*
X204613571Y-140583192D02*
X204649285Y-140547478D01*
X204649285Y-140547478D02*
X204720714Y-140511764D01*
X204720714Y-140511764D02*
X204899285Y-140511764D01*
X204899285Y-140511764D02*
X204970714Y-140547478D01*
X204970714Y-140547478D02*
X205006428Y-140583192D01*
X205006428Y-140583192D02*
X205042142Y-140654621D01*
X205042142Y-140654621D02*
X205042142Y-140726050D01*
X205042142Y-140726050D02*
X205006428Y-140833192D01*
X205006428Y-140833192D02*
X204577856Y-141261764D01*
X204577856Y-141261764D02*
X205042142Y-141261764D01*
X205327857Y-140583192D02*
X205363571Y-140547478D01*
X205363571Y-140547478D02*
X205435000Y-140511764D01*
X205435000Y-140511764D02*
X205613571Y-140511764D01*
X205613571Y-140511764D02*
X205685000Y-140547478D01*
X205685000Y-140547478D02*
X205720714Y-140583192D01*
X205720714Y-140583192D02*
X205756428Y-140654621D01*
X205756428Y-140654621D02*
X205756428Y-140726050D01*
X205756428Y-140726050D02*
X205720714Y-140833192D01*
X205720714Y-140833192D02*
X205292142Y-141261764D01*
X205292142Y-141261764D02*
X205756428Y-141261764D01*
X200107856Y-135611764D02*
X199857856Y-135254621D01*
X199679285Y-135611764D02*
X199679285Y-134861764D01*
X199679285Y-134861764D02*
X199964999Y-134861764D01*
X199964999Y-134861764D02*
X200036428Y-134897478D01*
X200036428Y-134897478D02*
X200072142Y-134933192D01*
X200072142Y-134933192D02*
X200107856Y-135004621D01*
X200107856Y-135004621D02*
X200107856Y-135111764D01*
X200107856Y-135111764D02*
X200072142Y-135183192D01*
X200072142Y-135183192D02*
X200036428Y-135218907D01*
X200036428Y-135218907D02*
X199964999Y-135254621D01*
X199964999Y-135254621D02*
X199679285Y-135254621D01*
X200822142Y-135611764D02*
X200393571Y-135611764D01*
X200607856Y-135611764D02*
X200607856Y-134861764D01*
X200607856Y-134861764D02*
X200536428Y-134968907D01*
X200536428Y-134968907D02*
X200464999Y-135040335D01*
X200464999Y-135040335D02*
X200393571Y-135076050D01*
X201179285Y-135611764D02*
X201322142Y-135611764D01*
X201322142Y-135611764D02*
X201393571Y-135576050D01*
X201393571Y-135576050D02*
X201429285Y-135540335D01*
X201429285Y-135540335D02*
X201500714Y-135433192D01*
X201500714Y-135433192D02*
X201536428Y-135290335D01*
X201536428Y-135290335D02*
X201536428Y-135004621D01*
X201536428Y-135004621D02*
X201500714Y-134933192D01*
X201500714Y-134933192D02*
X201465000Y-134897478D01*
X201465000Y-134897478D02*
X201393571Y-134861764D01*
X201393571Y-134861764D02*
X201250714Y-134861764D01*
X201250714Y-134861764D02*
X201179285Y-134897478D01*
X201179285Y-134897478D02*
X201143571Y-134933192D01*
X201143571Y-134933192D02*
X201107857Y-135004621D01*
X201107857Y-135004621D02*
X201107857Y-135183192D01*
X201107857Y-135183192D02*
X201143571Y-135254621D01*
X201143571Y-135254621D02*
X201179285Y-135290335D01*
X201179285Y-135290335D02*
X201250714Y-135326050D01*
X201250714Y-135326050D02*
X201393571Y-135326050D01*
X201393571Y-135326050D02*
X201465000Y-135290335D01*
X201465000Y-135290335D02*
X201500714Y-135254621D01*
X201500714Y-135254621D02*
X201536428Y-135183192D01*
D11*
X210898095Y-136104819D02*
X210898095Y-136914342D01*
X210898095Y-136914342D02*
X210945714Y-137009580D01*
X210945714Y-137009580D02*
X210993333Y-137057200D01*
X210993333Y-137057200D02*
X211088571Y-137104819D01*
X211088571Y-137104819D02*
X211279047Y-137104819D01*
X211279047Y-137104819D02*
X211374285Y-137057200D01*
X211374285Y-137057200D02*
X211421904Y-137009580D01*
X211421904Y-137009580D02*
X211469523Y-136914342D01*
X211469523Y-136914342D02*
X211469523Y-136104819D01*
X212469523Y-137104819D02*
X211898095Y-137104819D01*
X212183809Y-137104819D02*
X212183809Y-136104819D01*
X212183809Y-136104819D02*
X212088571Y-136247676D01*
X212088571Y-136247676D02*
X211993333Y-136342914D01*
X211993333Y-136342914D02*
X211898095Y-136390533D01*
D10*
X199267856Y-142360335D02*
X199232142Y-142396050D01*
X199232142Y-142396050D02*
X199124999Y-142431764D01*
X199124999Y-142431764D02*
X199053571Y-142431764D01*
X199053571Y-142431764D02*
X198946428Y-142396050D01*
X198946428Y-142396050D02*
X198874999Y-142324621D01*
X198874999Y-142324621D02*
X198839285Y-142253192D01*
X198839285Y-142253192D02*
X198803571Y-142110335D01*
X198803571Y-142110335D02*
X198803571Y-142003192D01*
X198803571Y-142003192D02*
X198839285Y-141860335D01*
X198839285Y-141860335D02*
X198874999Y-141788907D01*
X198874999Y-141788907D02*
X198946428Y-141717478D01*
X198946428Y-141717478D02*
X199053571Y-141681764D01*
X199053571Y-141681764D02*
X199124999Y-141681764D01*
X199124999Y-141681764D02*
X199232142Y-141717478D01*
X199232142Y-141717478D02*
X199267856Y-141753192D01*
X199553571Y-141753192D02*
X199589285Y-141717478D01*
X199589285Y-141717478D02*
X199660714Y-141681764D01*
X199660714Y-141681764D02*
X199839285Y-141681764D01*
X199839285Y-141681764D02*
X199910714Y-141717478D01*
X199910714Y-141717478D02*
X199946428Y-141753192D01*
X199946428Y-141753192D02*
X199982142Y-141824621D01*
X199982142Y-141824621D02*
X199982142Y-141896050D01*
X199982142Y-141896050D02*
X199946428Y-142003192D01*
X199946428Y-142003192D02*
X199517856Y-142431764D01*
X199517856Y-142431764D02*
X199982142Y-142431764D01*
X200232142Y-141681764D02*
X200696428Y-141681764D01*
X200696428Y-141681764D02*
X200446428Y-141967478D01*
X200446428Y-141967478D02*
X200553571Y-141967478D01*
X200553571Y-141967478D02*
X200625000Y-142003192D01*
X200625000Y-142003192D02*
X200660714Y-142038907D01*
X200660714Y-142038907D02*
X200696428Y-142110335D01*
X200696428Y-142110335D02*
X200696428Y-142288907D01*
X200696428Y-142288907D02*
X200660714Y-142360335D01*
X200660714Y-142360335D02*
X200625000Y-142396050D01*
X200625000Y-142396050D02*
X200553571Y-142431764D01*
X200553571Y-142431764D02*
X200339285Y-142431764D01*
X200339285Y-142431764D02*
X200267857Y-142396050D01*
X200267857Y-142396050D02*
X200232142Y-142360335D01*
D16*
%TO.C,C24*%
X201692564Y-142168200D02*
X201908236Y-142168200D01*
X201692564Y-141448200D02*
X201908236Y-141448200D01*
%TO.C,U5*%
X203125000Y-139610600D02*
X203125000Y-139110600D01*
X203625000Y-139110600D01*
X203125000Y-139610600D01*
G36*
X203125000Y-139610600D02*
G01*
X203125000Y-139110600D01*
X203625000Y-139110600D01*
X203125000Y-139610600D01*
G37*
X203125000Y-137190600D02*
X203125000Y-138885600D01*
X202900000Y-139110600D02*
X202005000Y-139110600D01*
X202005000Y-139110600D02*
X202005000Y-137190600D01*
X202005000Y-137190600D02*
X203125000Y-137190600D01*
%TO.C,C29*%
X207630580Y-144290000D02*
X207349420Y-144290000D01*
X207630580Y-143270000D02*
X207349420Y-143270000D01*
D10*
%TO.C,D1*%
X203862500Y-146870000D02*
G75*
G02*
X203762500Y-146870000I-50000J0D01*
G01*
X203762500Y-146870000D02*
G75*
G02*
X203862500Y-146870000I50000J0D01*
G01*
D16*
%TO.C,C28*%
X201525600Y-130366380D02*
X201525600Y-130085220D01*
X200505600Y-130366380D02*
X200505600Y-130085220D01*
%TO.C,C15*%
X205527836Y-135380000D02*
X205312164Y-135380000D01*
X205527836Y-134660000D02*
X205312164Y-134660000D01*
D10*
%TO.C,D4*%
X206960000Y-146890000D02*
G75*
G02*
X206860000Y-146890000I-50000J0D01*
G01*
X206860000Y-146890000D02*
G75*
G02*
X206960000Y-146890000I50000J0D01*
G01*
D17*
%TO.C,REF\u002A\u002A*%
X229410690Y-141002815D02*
X229467538Y-141304367D01*
X229887064Y-141477309D01*
X230138710Y-141306192D01*
X230209184Y-141258547D01*
X230272889Y-141216007D01*
X230326852Y-141180512D01*
X230368099Y-141154007D01*
X230393660Y-141138433D01*
X230400621Y-141135075D01*
X230413161Y-141143711D01*
X230439957Y-141167589D01*
X230478006Y-141203656D01*
X230524305Y-141248864D01*
X230575849Y-141300161D01*
X230629635Y-141354498D01*
X230682661Y-141408825D01*
X230731921Y-141460092D01*
X230774413Y-141505248D01*
X230807133Y-141541243D01*
X230827077Y-141565027D01*
X230831845Y-141572987D01*
X230824983Y-141587662D01*
X230805746Y-141619811D01*
X230776156Y-141666289D01*
X230738236Y-141723953D01*
X230694008Y-141789657D01*
X230668380Y-141827133D01*
X230621667Y-141895565D01*
X230580158Y-141957317D01*
X230545866Y-142009316D01*
X230520806Y-142048489D01*
X230506990Y-142071762D01*
X230504914Y-142076652D01*
X230509621Y-142090552D01*
X230522449Y-142122947D01*
X230541464Y-142169282D01*
X230564729Y-142225003D01*
X230590310Y-142285555D01*
X230616271Y-142346383D01*
X230640676Y-142402933D01*
X230661589Y-142450649D01*
X230677075Y-142484978D01*
X230685198Y-142501365D01*
X230685678Y-142502009D01*
X230698433Y-142505138D01*
X230732403Y-142512118D01*
X230784066Y-142522264D01*
X230849902Y-142534889D01*
X230926390Y-142549306D01*
X230971016Y-142557620D01*
X231052747Y-142573181D01*
X231126569Y-142587989D01*
X231188747Y-142601233D01*
X231235548Y-142612102D01*
X231263235Y-142619786D01*
X231268800Y-142622224D01*
X231274252Y-142638727D01*
X231278650Y-142675997D01*
X231281998Y-142729677D01*
X231284300Y-142795409D01*
X231285558Y-142868834D01*
X231285774Y-142945593D01*
X231284953Y-143021329D01*
X231283097Y-143091683D01*
X231280208Y-143152297D01*
X231276291Y-143198813D01*
X231271348Y-143226872D01*
X231268383Y-143232713D01*
X231250660Y-143239714D01*
X231213107Y-143249724D01*
X231160690Y-143261566D01*
X231098378Y-143274064D01*
X231076626Y-143278107D01*
X230971750Y-143297317D01*
X230888906Y-143312788D01*
X230825356Y-143325134D01*
X230778363Y-143334970D01*
X230745189Y-143342911D01*
X230723097Y-143349573D01*
X230709350Y-143355570D01*
X230701210Y-143361516D01*
X230700071Y-143362691D01*
X230688703Y-143381623D01*
X230671361Y-143418466D01*
X230649776Y-143468710D01*
X230625680Y-143527843D01*
X230600805Y-143591353D01*
X230576883Y-143654729D01*
X230555645Y-143713459D01*
X230538823Y-143763032D01*
X230528148Y-143798936D01*
X230525353Y-143816659D01*
X230525586Y-143817280D01*
X230535057Y-143831767D01*
X230556544Y-143863641D01*
X230587789Y-143909586D01*
X230626533Y-143966282D01*
X230670519Y-144030414D01*
X230683045Y-144048639D01*
X230727710Y-144114711D01*
X230767014Y-144174997D01*
X230798814Y-144226032D01*
X230820971Y-144264357D01*
X230831343Y-144286508D01*
X230831845Y-144289229D01*
X230823131Y-144303533D01*
X230799051Y-144331869D01*
X230762702Y-144371193D01*
X230717179Y-144418458D01*
X230665578Y-144470620D01*
X230610993Y-144524632D01*
X230556520Y-144577450D01*
X230505255Y-144626028D01*
X230460293Y-144667320D01*
X230424730Y-144698282D01*
X230401661Y-144715867D01*
X230395280Y-144718738D01*
X230380425Y-144711975D01*
X230350012Y-144693736D01*
X230308994Y-144667094D01*
X230277435Y-144645649D01*
X230220251Y-144606300D01*
X230152532Y-144559968D01*
X230084606Y-144513710D01*
X230048087Y-144488952D01*
X229924478Y-144405344D01*
X229820717Y-144461447D01*
X229773446Y-144486025D01*
X229733249Y-144505128D01*
X229706052Y-144516024D01*
X229699128Y-144517540D01*
X229690803Y-144506346D01*
X229674380Y-144474714D01*
X229651083Y-144425562D01*
X229622140Y-144361807D01*
X229588776Y-144286368D01*
X229552217Y-144202161D01*
X229513690Y-144112105D01*
X229474420Y-144019118D01*
X229435634Y-143926117D01*
X229398556Y-143836020D01*
X229364415Y-143751745D01*
X229334434Y-143676210D01*
X229309842Y-143612331D01*
X229291862Y-143563028D01*
X229281723Y-143531218D01*
X229280092Y-143520293D01*
X229293017Y-143506358D01*
X229321315Y-143483737D01*
X229359072Y-143457130D01*
X229362241Y-143455025D01*
X229459826Y-143376911D01*
X229538512Y-143285779D01*
X229597617Y-143184542D01*
X229636458Y-143076115D01*
X229654354Y-142963411D01*
X229650623Y-142849345D01*
X229624583Y-142736831D01*
X229575551Y-142628782D01*
X229561126Y-142605142D01*
X229486095Y-142509684D01*
X229397456Y-142433029D01*
X229298275Y-142375577D01*
X229191621Y-142337726D01*
X229080562Y-142319875D01*
X228968165Y-142322422D01*
X228857499Y-142345767D01*
X228751632Y-142390307D01*
X228653631Y-142456442D01*
X228623316Y-142483284D01*
X228546164Y-142567309D01*
X228489944Y-142655763D01*
X228451379Y-142754912D01*
X228429900Y-142853100D01*
X228424598Y-142963494D01*
X228442278Y-143074437D01*
X228481145Y-143182178D01*
X228539403Y-143282966D01*
X228615257Y-143373053D01*
X228706909Y-143448689D01*
X228718954Y-143456661D01*
X228757115Y-143482771D01*
X228786125Y-143505392D01*
X228799994Y-143519836D01*
X228800195Y-143520293D01*
X228797218Y-143535918D01*
X228785415Y-143571379D01*
X228766012Y-143623759D01*
X228740238Y-143690142D01*
X228709317Y-143767611D01*
X228674477Y-143853247D01*
X228636943Y-143944134D01*
X228597943Y-144037356D01*
X228558703Y-144129994D01*
X228520450Y-144219132D01*
X228484409Y-144301852D01*
X228451809Y-144375238D01*
X228423874Y-144436372D01*
X228401831Y-144482338D01*
X228386908Y-144510218D01*
X228380898Y-144517540D01*
X228362535Y-144511838D01*
X228328174Y-144496546D01*
X228283742Y-144474396D01*
X228259309Y-144461447D01*
X228155548Y-144405344D01*
X228031939Y-144488952D01*
X227968840Y-144531784D01*
X227899756Y-144578919D01*
X227835019Y-144623300D01*
X227802592Y-144645649D01*
X227756985Y-144676274D01*
X227718366Y-144700544D01*
X227691774Y-144715384D01*
X227683136Y-144718521D01*
X227670565Y-144710058D01*
X227642742Y-144686433D01*
X227602365Y-144650099D01*
X227552131Y-144603508D01*
X227494738Y-144549114D01*
X227458440Y-144514189D01*
X227394936Y-144451793D01*
X227340053Y-144395985D01*
X227296012Y-144349151D01*
X227265031Y-144313679D01*
X227249328Y-144291958D01*
X227247821Y-144287549D01*
X227254812Y-144270782D01*
X227274132Y-144236879D01*
X227303635Y-144189273D01*
X227341181Y-144131396D01*
X227384626Y-144066681D01*
X227396981Y-144048639D01*
X227441999Y-143983064D01*
X227482386Y-143924025D01*
X227515886Y-143874839D01*
X227540240Y-143838825D01*
X227553190Y-143819299D01*
X227554441Y-143817280D01*
X227552570Y-143801719D01*
X227542639Y-143767506D01*
X227526379Y-143719152D01*
X227505521Y-143661168D01*
X227481799Y-143598067D01*
X227456942Y-143534360D01*
X227432684Y-143474558D01*
X227410755Y-143423173D01*
X227392888Y-143384716D01*
X227380813Y-143363699D01*
X227379955Y-143362691D01*
X227372572Y-143356685D01*
X227360101Y-143350745D01*
X227339806Y-143344257D01*
X227308948Y-143336606D01*
X227264792Y-143327177D01*
X227204600Y-143315356D01*
X227125633Y-143300526D01*
X227025156Y-143282074D01*
X227003401Y-143278107D01*
X226938924Y-143265650D01*
X226882715Y-143253463D01*
X226839739Y-143242723D01*
X226814966Y-143234606D01*
X226811644Y-143232713D01*
X226806170Y-143215935D01*
X226801720Y-143178442D01*
X226798298Y-143124591D01*
X226795907Y-143058741D01*
X226794549Y-142985250D01*
X226794227Y-142908477D01*
X226794945Y-142832780D01*
X226796705Y-142762517D01*
X226799510Y-142702047D01*
X226803364Y-142655727D01*
X226808269Y-142627916D01*
X226811226Y-142622224D01*
X226827689Y-142616483D01*
X226865175Y-142607142D01*
X226919951Y-142595012D01*
X226988281Y-142580904D01*
X227066432Y-142565627D01*
X227109010Y-142557620D01*
X227189797Y-142542518D01*
X227261839Y-142528837D01*
X227321615Y-142517264D01*
X227365605Y-142508484D01*
X227390287Y-142503184D01*
X227394349Y-142502009D01*
X227401215Y-142488762D01*
X227415728Y-142456854D01*
X227435955Y-142410844D01*
X227459960Y-142355289D01*
X227485808Y-142294750D01*
X227511566Y-142233783D01*
X227535299Y-142176948D01*
X227555072Y-142128803D01*
X227568950Y-142093907D01*
X227575000Y-142076818D01*
X227575112Y-142076071D01*
X227568254Y-142062590D01*
X227549028Y-142031567D01*
X227519454Y-141986086D01*
X227481553Y-141929229D01*
X227437346Y-141864080D01*
X227411647Y-141826659D01*
X227364819Y-141758044D01*
X227323227Y-141695749D01*
X227288901Y-141642926D01*
X227263869Y-141602724D01*
X227250161Y-141578297D01*
X227248182Y-141572821D01*
X227256692Y-141560075D01*
X227280219Y-141532860D01*
X227315758Y-141494225D01*
X227360303Y-141447220D01*
X227410849Y-141394892D01*
X227464390Y-141340292D01*
X227517921Y-141286467D01*
X227568437Y-141236467D01*
X227612932Y-141193340D01*
X227648401Y-141160136D01*
X227671839Y-141139903D01*
X227679680Y-141135075D01*
X227692446Y-141141864D01*
X227722982Y-141160939D01*
X227768316Y-141190358D01*
X227825482Y-141228178D01*
X227891510Y-141272458D01*
X227941316Y-141306192D01*
X228192962Y-141477309D01*
X228402725Y-141390838D01*
X228612489Y-141304367D01*
X228669337Y-141002815D01*
X228726186Y-140701263D01*
X229353841Y-140701263D01*
X229410690Y-141002815D01*
G36*
X229410690Y-141002815D02*
G01*
X229467538Y-141304367D01*
X229887064Y-141477309D01*
X230138710Y-141306192D01*
X230209184Y-141258547D01*
X230272889Y-141216007D01*
X230326852Y-141180512D01*
X230368099Y-141154007D01*
X230393660Y-141138433D01*
X230400621Y-141135075D01*
X230413161Y-141143711D01*
X230439957Y-141167589D01*
X230478006Y-141203656D01*
X230524305Y-141248864D01*
X230575849Y-141300161D01*
X230629635Y-141354498D01*
X230682661Y-141408825D01*
X230731921Y-141460092D01*
X230774413Y-141505248D01*
X230807133Y-141541243D01*
X230827077Y-141565027D01*
X230831845Y-141572987D01*
X230824983Y-141587662D01*
X230805746Y-141619811D01*
X230776156Y-141666289D01*
X230738236Y-141723953D01*
X230694008Y-141789657D01*
X230668380Y-141827133D01*
X230621667Y-141895565D01*
X230580158Y-141957317D01*
X230545866Y-142009316D01*
X230520806Y-142048489D01*
X230506990Y-142071762D01*
X230504914Y-142076652D01*
X230509621Y-142090552D01*
X230522449Y-142122947D01*
X230541464Y-142169282D01*
X230564729Y-142225003D01*
X230590310Y-142285555D01*
X230616271Y-142346383D01*
X230640676Y-142402933D01*
X230661589Y-142450649D01*
X230677075Y-142484978D01*
X230685198Y-142501365D01*
X230685678Y-142502009D01*
X230698433Y-142505138D01*
X230732403Y-142512118D01*
X230784066Y-142522264D01*
X230849902Y-142534889D01*
X230926390Y-142549306D01*
X230971016Y-142557620D01*
X231052747Y-142573181D01*
X231126569Y-142587989D01*
X231188747Y-142601233D01*
X231235548Y-142612102D01*
X231263235Y-142619786D01*
X231268800Y-142622224D01*
X231274252Y-142638727D01*
X231278650Y-142675997D01*
X231281998Y-142729677D01*
X231284300Y-142795409D01*
X231285558Y-142868834D01*
X231285774Y-142945593D01*
X231284953Y-143021329D01*
X231283097Y-143091683D01*
X231280208Y-143152297D01*
X231276291Y-143198813D01*
X231271348Y-143226872D01*
X231268383Y-143232713D01*
X231250660Y-143239714D01*
X231213107Y-143249724D01*
X231160690Y-143261566D01*
X231098378Y-143274064D01*
X231076626Y-143278107D01*
X230971750Y-143297317D01*
X230888906Y-143312788D01*
X230825356Y-143325134D01*
X230778363Y-143334970D01*
X230745189Y-143342911D01*
X230723097Y-143349573D01*
X230709350Y-143355570D01*
X230701210Y-143361516D01*
X230700071Y-143362691D01*
X230688703Y-143381623D01*
X230671361Y-143418466D01*
X230649776Y-143468710D01*
X230625680Y-143527843D01*
X230600805Y-143591353D01*
X230576883Y-143654729D01*
X230555645Y-143713459D01*
X230538823Y-143763032D01*
X230528148Y-143798936D01*
X230525353Y-143816659D01*
X230525586Y-143817280D01*
X230535057Y-143831767D01*
X230556544Y-143863641D01*
X230587789Y-143909586D01*
X230626533Y-143966282D01*
X230670519Y-144030414D01*
X230683045Y-144048639D01*
X230727710Y-144114711D01*
X230767014Y-144174997D01*
X230798814Y-144226032D01*
X230820971Y-144264357D01*
X230831343Y-144286508D01*
X230831845Y-144289229D01*
X230823131Y-144303533D01*
X230799051Y-144331869D01*
X230762702Y-144371193D01*
X230717179Y-144418458D01*
X230665578Y-144470620D01*
X230610993Y-144524632D01*
X230556520Y-144577450D01*
X230505255Y-144626028D01*
X230460293Y-144667320D01*
X230424730Y-144698282D01*
X230401661Y-144715867D01*
X230395280Y-144718738D01*
X230380425Y-144711975D01*
X230350012Y-144693736D01*
X230308994Y-144667094D01*
X230277435Y-144645649D01*
X230220251Y-144606300D01*
X230152532Y-144559968D01*
X230084606Y-144513710D01*
X230048087Y-144488952D01*
X229924478Y-144405344D01*
X229820717Y-144461447D01*
X229773446Y-144486025D01*
X229733249Y-144505128D01*
X229706052Y-144516024D01*
X229699128Y-144517540D01*
X229690803Y-144506346D01*
X229674380Y-144474714D01*
X229651083Y-144425562D01*
X229622140Y-144361807D01*
X229588776Y-144286368D01*
X229552217Y-144202161D01*
X229513690Y-144112105D01*
X229474420Y-144019118D01*
X229435634Y-143926117D01*
X229398556Y-143836020D01*
X229364415Y-143751745D01*
X229334434Y-143676210D01*
X229309842Y-143612331D01*
X229291862Y-143563028D01*
X229281723Y-143531218D01*
X229280092Y-143520293D01*
X229293017Y-143506358D01*
X229321315Y-143483737D01*
X229359072Y-143457130D01*
X229362241Y-143455025D01*
X229459826Y-143376911D01*
X229538512Y-143285779D01*
X229597617Y-143184542D01*
X229636458Y-143076115D01*
X229654354Y-142963411D01*
X229650623Y-142849345D01*
X229624583Y-142736831D01*
X229575551Y-142628782D01*
X229561126Y-142605142D01*
X229486095Y-142509684D01*
X229397456Y-142433029D01*
X229298275Y-142375577D01*
X229191621Y-142337726D01*
X229080562Y-142319875D01*
X228968165Y-142322422D01*
X228857499Y-142345767D01*
X228751632Y-142390307D01*
X228653631Y-142456442D01*
X228623316Y-142483284D01*
X228546164Y-142567309D01*
X228489944Y-142655763D01*
X228451379Y-142754912D01*
X228429900Y-142853100D01*
X228424598Y-142963494D01*
X228442278Y-143074437D01*
X228481145Y-143182178D01*
X228539403Y-143282966D01*
X228615257Y-143373053D01*
X228706909Y-143448689D01*
X228718954Y-143456661D01*
X228757115Y-143482771D01*
X228786125Y-143505392D01*
X228799994Y-143519836D01*
X228800195Y-143520293D01*
X228797218Y-143535918D01*
X228785415Y-143571379D01*
X228766012Y-143623759D01*
X228740238Y-143690142D01*
X228709317Y-143767611D01*
X228674477Y-143853247D01*
X228636943Y-143944134D01*
X228597943Y-144037356D01*
X228558703Y-144129994D01*
X228520450Y-144219132D01*
X228484409Y-144301852D01*
X228451809Y-144375238D01*
X228423874Y-144436372D01*
X228401831Y-144482338D01*
X228386908Y-144510218D01*
X228380898Y-144517540D01*
X228362535Y-144511838D01*
X228328174Y-144496546D01*
X228283742Y-144474396D01*
X228259309Y-144461447D01*
X228155548Y-144405344D01*
X228031939Y-144488952D01*
X227968840Y-144531784D01*
X227899756Y-144578919D01*
X227835019Y-144623300D01*
X227802592Y-144645649D01*
X227756985Y-144676274D01*
X227718366Y-144700544D01*
X227691774Y-144715384D01*
X227683136Y-144718521D01*
X227670565Y-144710058D01*
X227642742Y-144686433D01*
X227602365Y-144650099D01*
X227552131Y-144603508D01*
X227494738Y-144549114D01*
X227458440Y-144514189D01*
X227394936Y-144451793D01*
X227340053Y-144395985D01*
X227296012Y-144349151D01*
X227265031Y-144313679D01*
X227249328Y-144291958D01*
X227247821Y-144287549D01*
X227254812Y-144270782D01*
X227274132Y-144236879D01*
X227303635Y-144189273D01*
X227341181Y-144131396D01*
X227384626Y-144066681D01*
X227396981Y-144048639D01*
X227441999Y-143983064D01*
X227482386Y-143924025D01*
X227515886Y-143874839D01*
X227540240Y-143838825D01*
X227553190Y-143819299D01*
X227554441Y-143817280D01*
X227552570Y-143801719D01*
X227542639Y-143767506D01*
X227526379Y-143719152D01*
X227505521Y-143661168D01*
X227481799Y-143598067D01*
X227456942Y-143534360D01*
X227432684Y-143474558D01*
X227410755Y-143423173D01*
X227392888Y-143384716D01*
X227380813Y-143363699D01*
X227379955Y-143362691D01*
X227372572Y-143356685D01*
X227360101Y-143350745D01*
X227339806Y-143344257D01*
X227308948Y-143336606D01*
X227264792Y-143327177D01*
X227204600Y-143315356D01*
X227125633Y-143300526D01*
X227025156Y-143282074D01*
X227003401Y-143278107D01*
X226938924Y-143265650D01*
X226882715Y-143253463D01*
X226839739Y-143242723D01*
X226814966Y-143234606D01*
X226811644Y-143232713D01*
X226806170Y-143215935D01*
X226801720Y-143178442D01*
X226798298Y-143124591D01*
X226795907Y-143058741D01*
X226794549Y-142985250D01*
X226794227Y-142908477D01*
X226794945Y-142832780D01*
X226796705Y-142762517D01*
X226799510Y-142702047D01*
X226803364Y-142655727D01*
X226808269Y-142627916D01*
X226811226Y-142622224D01*
X226827689Y-142616483D01*
X226865175Y-142607142D01*
X226919951Y-142595012D01*
X226988281Y-142580904D01*
X227066432Y-142565627D01*
X227109010Y-142557620D01*
X227189797Y-142542518D01*
X227261839Y-142528837D01*
X227321615Y-142517264D01*
X227365605Y-142508484D01*
X227390287Y-142503184D01*
X227394349Y-142502009D01*
X227401215Y-142488762D01*
X227415728Y-142456854D01*
X227435955Y-142410844D01*
X227459960Y-142355289D01*
X227485808Y-142294750D01*
X227511566Y-142233783D01*
X227535299Y-142176948D01*
X227555072Y-142128803D01*
X227568950Y-142093907D01*
X227575000Y-142076818D01*
X227575112Y-142076071D01*
X227568254Y-142062590D01*
X227549028Y-142031567D01*
X227519454Y-141986086D01*
X227481553Y-141929229D01*
X227437346Y-141864080D01*
X227411647Y-141826659D01*
X227364819Y-141758044D01*
X227323227Y-141695749D01*
X227288901Y-141642926D01*
X227263869Y-141602724D01*
X227250161Y-141578297D01*
X227248182Y-141572821D01*
X227256692Y-141560075D01*
X227280219Y-141532860D01*
X227315758Y-141494225D01*
X227360303Y-141447220D01*
X227410849Y-141394892D01*
X227464390Y-141340292D01*
X227517921Y-141286467D01*
X227568437Y-141236467D01*
X227612932Y-141193340D01*
X227648401Y-141160136D01*
X227671839Y-141139903D01*
X227679680Y-141135075D01*
X227692446Y-141141864D01*
X227722982Y-141160939D01*
X227768316Y-141190358D01*
X227825482Y-141228178D01*
X227891510Y-141272458D01*
X227941316Y-141306192D01*
X228192962Y-141477309D01*
X228402725Y-141390838D01*
X228612489Y-141304367D01*
X228669337Y-141002815D01*
X228726186Y-140701263D01*
X229353841Y-140701263D01*
X229410690Y-141002815D01*
G37*
D16*
%TO.C,C11*%
X207960000Y-131302164D02*
X207960000Y-131517836D01*
X207240000Y-131302164D02*
X207240000Y-131517836D01*
%TO.C,J1*%
X226755000Y-130004000D02*
X226755000Y-129201530D01*
X209040000Y-130004000D02*
X226755000Y-130004000D01*
X209040000Y-130004000D02*
X209040000Y-129457471D01*
X208280000Y-130004000D02*
X207520000Y-130004000D01*
X207520000Y-130004000D02*
X207520000Y-128894000D01*
%TO.C,C26*%
X203617836Y-136290000D02*
X203402164Y-136290000D01*
X203617836Y-135570000D02*
X203402164Y-135570000D01*
D10*
%TO.C,L1*%
X226060000Y-135610000D02*
G75*
G02*
X225960000Y-135610000I-50000J0D01*
G01*
X225960000Y-135610000D02*
G75*
G02*
X226060000Y-135610000I50000J0D01*
G01*
D16*
%TO.C,L4*%
X206038000Y-139283600D02*
X206038000Y-136763600D01*
X203918000Y-139283600D02*
X203918000Y-136763600D01*
%TO.C,R23*%
X205553641Y-136330000D02*
X205246359Y-136330000D01*
X205553641Y-135570000D02*
X205246359Y-135570000D01*
%TO.C,J3*%
X198741800Y-147570000D02*
X198741800Y-146650000D01*
X198741800Y-146650000D02*
X197141800Y-146650000D01*
X198741800Y-140370000D02*
X198741800Y-139450000D01*
X198741800Y-139450000D02*
X190921800Y-139450000D01*
X197141800Y-147570000D02*
X197141800Y-146650000D01*
X197141800Y-146650000D02*
X197141800Y-146370000D01*
X197141800Y-140650000D02*
X198356800Y-140650000D01*
X197141800Y-140650000D02*
X197141800Y-140370000D01*
X197141800Y-140370000D02*
X198741800Y-140370000D01*
X197141800Y-139450000D02*
X197141800Y-140370000D01*
X195281800Y-145010000D02*
X190921800Y-145010000D01*
X195281800Y-142010000D02*
X195281800Y-145010000D01*
X194781800Y-146810000D02*
X193181800Y-146810000D01*
X194781800Y-145810000D02*
X194781800Y-146810000D01*
X194781800Y-141210000D02*
X194781800Y-140210000D01*
X194781800Y-140210000D02*
X193181800Y-140210000D01*
X193181800Y-146810000D02*
X193181800Y-145810000D01*
X193181800Y-145810000D02*
X194781800Y-145810000D01*
X193181800Y-141210000D02*
X194781800Y-141210000D01*
X193181800Y-141210000D02*
X190921800Y-141210000D01*
X193181800Y-140710000D02*
X190921800Y-140710000D01*
X193181800Y-140210000D02*
X193181800Y-141210000D01*
X190921800Y-147570000D02*
X198741800Y-147570000D01*
X190921800Y-142010000D02*
X195281800Y-142010000D01*
X190921800Y-139450000D02*
X190921800Y-147570000D01*
%TO.C,J2*%
X226755000Y-146357470D02*
X226755000Y-145555000D01*
X209040000Y-146101529D02*
X209040000Y-145555000D01*
X209040000Y-145555000D02*
X226755000Y-145555000D01*
X208280000Y-145555000D02*
X207520000Y-145555000D01*
X207520000Y-145555000D02*
X207520000Y-146665000D01*
%TO.C,U3*%
X222878000Y-141344500D02*
X225382000Y-141344500D01*
X222878000Y-142727750D02*
X222878000Y-141344500D01*
X225382000Y-141344500D02*
X225382000Y-143115500D01*
X225382000Y-143115500D02*
X223265750Y-143115500D01*
X222878000Y-143615500D02*
X222378000Y-143115500D01*
X222878000Y-143115500D01*
X222878000Y-143615500D01*
G36*
X222878000Y-143615500D02*
G01*
X222378000Y-143115500D01*
X222878000Y-143115500D01*
X222878000Y-143615500D01*
G37*
%TO.C,R22*%
X200650000Y-136766359D02*
X200650000Y-137073641D01*
X199890000Y-136766359D02*
X199890000Y-137073641D01*
%TO.C,J5*%
X191745000Y-128900000D02*
X191745000Y-138060000D01*
X192695000Y-128900000D02*
X191745000Y-128900000D01*
X192695000Y-138060000D02*
X191745000Y-138060000D01*
X196670000Y-128900000D02*
X195815000Y-128900000D01*
X196670000Y-138060000D02*
X195815000Y-138060000D01*
%TO.C,J4*%
X209775000Y-139120000D02*
X209775000Y-139755000D01*
X209775000Y-139755000D02*
X209140000Y-139755000D01*
%TO.C,Y1*%
X225430000Y-133270000D02*
X225430000Y-130570000D01*
X223130000Y-133270000D02*
X225430000Y-133270000D01*
%TO.C,TP1*%
X227368400Y-133650800D02*
X229368400Y-133650800D01*
X227368400Y-136550800D02*
X227368400Y-133650800D01*
X230168400Y-136550800D02*
X227368400Y-136550800D01*
X230168400Y-136550800D02*
X230168400Y-134450800D01*
X230318400Y-133500800D02*
X229468400Y-133500800D01*
X230318400Y-134350800D02*
X230318400Y-133500800D01*
%TO.C,U4*%
X201335511Y-142460000D02*
G75*
G02*
X201194089Y-142460000I-70711J0D01*
G01*
X201194089Y-142460000D02*
G75*
G02*
X201335511Y-142460000I70711J0D01*
G01*
X201714800Y-144610000D02*
X203714800Y-144610000D01*
X201714800Y-142410000D02*
X203714800Y-142410000D01*
%TO.C,Y2*%
X212925000Y-142145000D02*
X212925000Y-143495000D01*
X211175000Y-142145000D02*
X211175000Y-143495000D01*
%TO.C,U6*%
X203335000Y-135380000D02*
X203335000Y-135100000D01*
X203615000Y-135100000D01*
X203335000Y-135380000D01*
G36*
X203335000Y-135380000D02*
G01*
X203335000Y-135100000D01*
X203615000Y-135100000D01*
X203335000Y-135380000D01*
G37*
X201915000Y-135100000D02*
X202965000Y-135100000D01*
X201915000Y-133120000D02*
X203215000Y-133120000D01*
%TO.C,U8*%
X203754200Y-129743100D02*
X203514200Y-129413100D01*
X203994200Y-129413100D01*
X203754200Y-129743100D01*
G36*
X203754200Y-129743100D02*
G01*
X203514200Y-129413100D01*
X203994200Y-129413100D01*
X203754200Y-129743100D01*
G37*
X205054200Y-132813100D02*
X205854200Y-132813100D01*
X205054200Y-132813100D02*
X204254200Y-132813100D01*
X205054200Y-129693100D02*
X205854200Y-129693100D01*
X205054200Y-129693100D02*
X204254200Y-129693100D01*
%TO.C,C33*%
X202721800Y-130054236D02*
X202721800Y-129838564D01*
X202001800Y-130054236D02*
X202001800Y-129838564D01*
%TO.C,C22*%
X203737036Y-142168200D02*
X203521364Y-142168200D01*
X203737036Y-141448200D02*
X203521364Y-141448200D01*
%TO.C,U1*%
X213000000Y-132000000D02*
X213525000Y-132000000D01*
X213000000Y-132525000D02*
X213000000Y-132000000D01*
X213000000Y-139695000D02*
X213000000Y-139920000D01*
X213525000Y-140220000D02*
X213240000Y-140220000D01*
X221220000Y-132000000D02*
X220695000Y-132000000D01*
X221220000Y-132525000D02*
X221220000Y-132000000D01*
X221220000Y-139695000D02*
X221220000Y-140220000D01*
X221220000Y-140220000D02*
X220695000Y-140220000D01*
X213000000Y-140220000D02*
X212669999Y-140460000D01*
X212670000Y-139980000D01*
X213000000Y-140220000D01*
G36*
X213000000Y-140220000D02*
G01*
X212669999Y-140460000D01*
X212670000Y-139980000D01*
X213000000Y-140220000D01*
G37*
%TO.C,C23*%
X200080200Y-143376764D02*
X200080200Y-143592436D01*
X199360200Y-143376764D02*
X199360200Y-143592436D01*
%TD*%
D18*
X192024000Y-147574000D02*
G75*
G02*
X191389000Y-146939000I0J635000D01*
G01*
X237236000Y-146812009D02*
G75*
G02*
X236473993Y-147574000I-762000J9D01*
G01*
X237236000Y-146812000D02*
X237236000Y-133399000D01*
X228965000Y-128016000D02*
G75*
G02*
X229600000Y-128651000I0J-635000D01*
G01*
X191389000Y-128651000D02*
G75*
G02*
X192024000Y-128016000I635000J0D01*
G01*
X191389000Y-128651000D02*
X191389000Y-146939000D01*
X236601000Y-132764000D02*
G75*
G02*
X237236000Y-133399000I0J-635000D01*
G01*
X230235000Y-132764000D02*
G75*
G02*
X229600000Y-132129000I0J635000D01*
G01*
X229600000Y-132129000D02*
X229600000Y-128651000D01*
X236601000Y-132764000D02*
X230235000Y-132764000D01*
X192024000Y-147574000D02*
X236473993Y-147574000D01*
X192024000Y-128016000D02*
X228965000Y-128016000D01*
M02*
