M48
; DRILL file {KiCad 8.0.1} date 2024-04-03T21:47:34-0700
; FORMAT={3:3/ absolute / metric / suppress leading zeros}
; #@! TF.CreationDate,2024-04-03T21:47:34-07:00
; #@! TF.GenerationSoftware,Kicad,Pcbnew,8.0.1
; #@! TF.FileFunction,MixedPlating,1,4
FMAT,2
METRIC,TZ
; #@! TA.AperFunction,Plated,PTH,ViaDrill
T1C0.150
; #@! TA.AperFunction,Plated,PTH,ViaDrill
T2C0.200
; #@! TA.AperFunction,Plated,PTH,ComponentDrill
T3C0.200
; #@! TA.AperFunction,Plated,PTH,ViaDrill
T4C0.300
; #@! TA.AperFunction,Plated,PTH,ComponentDrill
T5C0.600
; #@! TA.AperFunction,Plated,PTH,ComponentDrill
T6C0.650
; #@! TA.AperFunction,Plated,PTH,ComponentDrill
T7C0.750
; #@! TA.AperFunction,NonPlated,NPTH,ComponentDrill
T8C0.600
; #@! TA.AperFunction,NonPlated,NPTH,ComponentDrill
T9C0.991
%
G90
G05
T1
X201665Y-144729
X203030Y-135310
X204260Y-135040
X205900Y-134240
X206470Y-134250
T2
X196590Y-133190
X197330Y-134720
X197360Y-131730
X199415Y-130377
X199415Y-136576
X200355Y-143510
X200838Y-144069
X201020Y-134110
X201170Y-136630
X201540Y-146870
X201730Y-138540
X201828Y-137947
X202120Y-136900
X202280Y-140980
X202750Y-132790
X202810Y-134110
X202909Y-131253
X202960Y-140959
X203160Y-136820
X203380Y-138150
X203611Y-145181
X203980Y-146100
X204180Y-129460
X204650Y-146880
X204910Y-132220
X205081Y-142655
X205090Y-136710
X205334Y-145517
X205600Y-142900
X206280Y-142890
X206340Y-146100
X206530Y-139370
X206908Y-145680
X206960Y-136670
X207315Y-144882
X208350Y-131890
X209010Y-142110
X209030Y-134180
X209340Y-132290
X209550Y-145550
X209620Y-144010
X209990Y-144530
X210150Y-132270
X210520Y-139150
X210590Y-142180
X210750Y-131890
X211120Y-135850
X211220Y-132280
X211230Y-135140
X211470Y-136540
X211680Y-135560
X211740Y-140570
X212090Y-137670
X212250Y-134180
X212320Y-139310
X212890Y-132340
X213010Y-140020
X213450Y-132410
X213550Y-141240
X213550Y-144570
X214173Y-141580
X214510Y-130500
X214935Y-144932
X215011Y-142723
X215810Y-144330
X216310Y-131460
X216660Y-141630
X216713Y-143053
X216820Y-143590
X216890Y-131460
X217373Y-143610
X218141Y-141981
X218190Y-130640
X218923Y-144297
X219100Y-140870
X219810Y-141530
X220210Y-131370
X220820Y-131410
X221160Y-139990
X221600Y-142010
X221610Y-143860
X221873Y-133320
X221910Y-134810
X222100Y-139090
X222490Y-133520
X222550Y-140270
X222890Y-134760
X222990Y-143570
X223010Y-136840
X223060Y-130540
X223080Y-139153
X223090Y-140090
X223200Y-133500
X223270Y-136020
X223400Y-144070
X223540Y-138720
X223562Y-139557
X223590Y-135090
X223720Y-136870
X223740Y-140880
X223800Y-133410
X223800Y-143690
X223840Y-135860
X223880Y-141440
X224020Y-133840
X224470Y-134170
X224610Y-136180
X224620Y-143600
X224850Y-133650
X224880Y-141410
X225000Y-143080
X225090Y-134430
X225230Y-135760
X225440Y-130560
X225730Y-134430
X225880Y-135770
X226000Y-133630
X226060Y-131445
X226060Y-132715
X226370Y-134420
X226710Y-136220
X226970Y-134050
X227000Y-130870
X227000Y-132140
X227010Y-138395
X227010Y-139657
X227010Y-140918
X227010Y-142180
X227010Y-143442
X227010Y-144703
X227080Y-133360
X227120Y-136820
X227840Y-133490
X227880Y-136720
X227965Y-128905
X227965Y-130175
X227965Y-131445
X227965Y-132715
X227980Y-139035
X227980Y-140297
X227980Y-141558
X227980Y-142820
X227980Y-144082
X227980Y-145343
X227980Y-146605
X227990Y-137830
X228720Y-136480
X228730Y-133720
X228940Y-129620
X228940Y-130890
X228990Y-138373
X228990Y-139635
X228990Y-140897
X228990Y-142158
X228990Y-143420
X228990Y-144682
X228990Y-145943
X229070Y-132130
X229560Y-136740
X229580Y-133490
X230010Y-139030
X230010Y-140292
X230010Y-141553
X230010Y-142815
X230010Y-144077
X230010Y-145338
X230010Y-146600
X230040Y-137860
X230340Y-136830
X230420Y-133350
X230440Y-134070
X230770Y-136370
X230850Y-137400
X230880Y-138500
X230880Y-139762
X230880Y-141023
X230880Y-142285
X230880Y-143547
X230880Y-144808
X230880Y-146070
X230980Y-134430
T3
X202715Y-143010
X202715Y-144010
T4
X199690Y-135540
X200013Y-131127
X200030Y-131940
X200290Y-138250
X200620Y-135660
X201094Y-137721
X202082Y-140132
X204860Y-140110
X204902Y-141050
X204902Y-141808
X209550Y-129990
X209942Y-136563
X215510Y-134509
X215510Y-136109
X215510Y-137735
X217110Y-134509
X217110Y-136109
X217110Y-137735
X218710Y-134509
X218710Y-136109
X218710Y-137735
T6
X208280Y-128894
X208280Y-146665
X209550Y-128894
X209550Y-146665
X210820Y-128894
X210820Y-146665
X212090Y-128894
X212090Y-146665
X213360Y-128894
X213360Y-146665
X214630Y-128894
X214630Y-146665
X215900Y-128894
X215900Y-146665
X217170Y-128894
X217170Y-146665
X218440Y-128894
X218440Y-146665
X219710Y-128894
X219710Y-146665
X220980Y-128894
X220980Y-146665
X222250Y-128894
X222250Y-146665
X223520Y-128894
X223520Y-146665
X224790Y-128894
X224790Y-146665
X226060Y-128894
X226060Y-146665
T7
X197282Y-141510
X197282Y-143510
X197282Y-145510
T8
X197405Y-130480
T9
X207489Y-135310
X208505Y-140390
X209521Y-135310
T5
G00X194955Y-129160
M15
G01X193655Y-129160
M16
G05
G00X194955Y-137800
M15
G01X193655Y-137800
M16
G05
G00X198630Y-129160
M15
G01X197630Y-129160
M16
G05
G00X198630Y-137800
M15
G01X197630Y-137800
M16
G05
T8
G00X197405Y-136355
M15
G01X197405Y-136605
M16
G05
M30
