%TF.GenerationSoftware,KiCad,Pcbnew,8.0.1*%
%TF.CreationDate,2024-04-03T21:47:25-07:00*%
%TF.ProjectId,Bluetooth_OSHW,426c7565-746f-46f7-9468-5f4f5348572e,rev?*%
%TF.SameCoordinates,Original*%
%TF.FileFunction,Copper,L4,Bot*%
%TF.FilePolarity,Positive*%
%FSLAX46Y46*%
G04 Gerber Fmt 4.6, Leading zero omitted, Abs format (unit mm)*
G04 Created by KiCad (PCBNEW 8.0.1) date 2024-04-03 21:47:25*
%MOMM*%
%LPD*%
G01*
G04 APERTURE LIST*
G04 Aperture macros list*
%AMRoundRect*
0 Rectangle with rounded corners*
0 $1 Rounding radius*
0 $2 $3 $4 $5 $6 $7 $8 $9 X,Y pos of 4 corners*
0 Add a 4 corners polygon primitive as box body*
4,1,4,$2,$3,$4,$5,$6,$7,$8,$9,$2,$3,0*
0 Add four circle primitives for the rounded corners*
1,1,$1+$1,$2,$3*
1,1,$1+$1,$4,$5*
1,1,$1+$1,$6,$7*
1,1,$1+$1,$8,$9*
0 Add four rect primitives between the rounded corners*
20,1,$1+$1,$2,$3,$4,$5,0*
20,1,$1+$1,$4,$5,$6,$7,0*
20,1,$1+$1,$6,$7,$8,$9,0*
20,1,$1+$1,$8,$9,$2,$3,0*%
G04 Aperture macros list end*
%ADD10C,0.100000*%
%ADD11C,0.150000*%
%ADD12C,0.300000*%
%ADD13C,0.400000*%
%TA.AperFunction,ComponentPad*%
%ADD14R,1.000000X1.000000*%
%TD*%
%TA.AperFunction,ComponentPad*%
%ADD15O,1.000000X1.000000*%
%TD*%
%TA.AperFunction,ComponentPad*%
%ADD16RoundRect,0.250000X-0.625000X0.350000X-0.625000X-0.350000X0.625000X-0.350000X0.625000X0.350000X0*%
%TD*%
%TA.AperFunction,ComponentPad*%
%ADD17O,1.750000X1.200000*%
%TD*%
%TA.AperFunction,ComponentPad*%
%ADD18O,2.300000X1.300000*%
%TD*%
%TA.AperFunction,ComponentPad*%
%ADD19O,2.600000X1.300000*%
%TD*%
%TA.AperFunction,ComponentPad*%
%ADD20C,0.400000*%
%TD*%
%TA.AperFunction,SMDPad,CuDef*%
%ADD21RoundRect,0.100000X0.130000X0.100000X-0.130000X0.100000X-0.130000X-0.100000X0.130000X-0.100000X0*%
%TD*%
%TA.AperFunction,SMDPad,CuDef*%
%ADD22RoundRect,0.100000X-0.130000X-0.100000X0.130000X-0.100000X0.130000X0.100000X-0.130000X0.100000X0*%
%TD*%
%TA.AperFunction,SMDPad,CuDef*%
%ADD23RoundRect,0.140000X0.140000X0.170000X-0.140000X0.170000X-0.140000X-0.170000X0.140000X-0.170000X0*%
%TD*%
%TA.AperFunction,SMDPad,CuDef*%
%ADD24RoundRect,0.100000X-0.100000X0.130000X-0.100000X-0.130000X0.100000X-0.130000X0.100000X0.130000X0*%
%TD*%
%TA.AperFunction,SMDPad,CuDef*%
%ADD25RoundRect,0.100000X0.100000X-0.130000X0.100000X0.130000X-0.100000X0.130000X-0.100000X-0.130000X0*%
%TD*%
%TA.AperFunction,SMDPad,CuDef*%
%ADD26RoundRect,0.147500X-0.147500X-0.172500X0.147500X-0.172500X0.147500X0.172500X-0.147500X0.172500X0*%
%TD*%
%TA.AperFunction,SMDPad,CuDef*%
%ADD27RoundRect,0.100000X-0.155000X-0.100000X0.155000X-0.100000X0.155000X0.100000X-0.155000X0.100000X0*%
%TD*%
%TA.AperFunction,SMDPad,CuDef*%
%ADD28RoundRect,0.135000X-0.135000X-0.185000X0.135000X-0.185000X0.135000X0.185000X-0.135000X0.185000X0*%
%TD*%
%TA.AperFunction,ViaPad*%
%ADD29C,0.375000*%
%TD*%
%TA.AperFunction,ViaPad*%
%ADD30C,0.600000*%
%TD*%
%TA.AperFunction,ViaPad*%
%ADD31C,0.400000*%
%TD*%
%TA.AperFunction,Conductor*%
%ADD32C,0.102000*%
%TD*%
%TA.AperFunction,Conductor*%
%ADD33C,0.150000*%
%TD*%
%TA.AperFunction,Conductor*%
%ADD34C,0.200000*%
%TD*%
%TA.AperFunction,Conductor*%
%ADD35C,0.300000*%
%TD*%
%TA.AperFunction,Conductor*%
%ADD36C,0.500000*%
%TD*%
%TA.AperFunction,Profile*%
%ADD37C,0.100000*%
%TD*%
G04 APERTURE END LIST*
D10*
D11*
X299989000Y-253002200D02*
X407989000Y-253002200D01*
X407989000Y-285002200D01*
X299989000Y-285002200D01*
X299989000Y-253002200D01*
D10*
D11*
X10000000Y-10000000D02*
X409989000Y-10000000D01*
X409989000Y-287002200D01*
X10000000Y-287002200D01*
X10000000Y-10000000D01*
D10*
D11*
X12000000Y-12000000D02*
X407989000Y-12000000D01*
X407989000Y-285002200D01*
X12000000Y-285002200D01*
X12000000Y-12000000D01*
D10*
D11*
X60000000Y-12000000D02*
X60000000Y-10000000D01*
D10*
D11*
X110000000Y-12000000D02*
X110000000Y-10000000D01*
D10*
D11*
X160000000Y-12000000D02*
X160000000Y-10000000D01*
D10*
D11*
X210000000Y-12000000D02*
X210000000Y-10000000D01*
D10*
D11*
X260000000Y-12000000D02*
X260000000Y-10000000D01*
D10*
D11*
X310000000Y-12000000D02*
X310000000Y-10000000D01*
D10*
D11*
X360000000Y-12000000D02*
X360000000Y-10000000D01*
D10*
D11*
X36089160Y-11593604D02*
X35346303Y-11593604D01*
X35717731Y-11593604D02*
X35717731Y-10293604D01*
X35717731Y-10293604D02*
X35593922Y-10479319D01*
X35593922Y-10479319D02*
X35470112Y-10603128D01*
X35470112Y-10603128D02*
X35346303Y-10665033D01*
D10*
D11*
X85346303Y-10417414D02*
X85408207Y-10355509D01*
X85408207Y-10355509D02*
X85532017Y-10293604D01*
X85532017Y-10293604D02*
X85841541Y-10293604D01*
X85841541Y-10293604D02*
X85965350Y-10355509D01*
X85965350Y-10355509D02*
X86027255Y-10417414D01*
X86027255Y-10417414D02*
X86089160Y-10541223D01*
X86089160Y-10541223D02*
X86089160Y-10665033D01*
X86089160Y-10665033D02*
X86027255Y-10850747D01*
X86027255Y-10850747D02*
X85284398Y-11593604D01*
X85284398Y-11593604D02*
X86089160Y-11593604D01*
D10*
D11*
X135284398Y-10293604D02*
X136089160Y-10293604D01*
X136089160Y-10293604D02*
X135655826Y-10788842D01*
X135655826Y-10788842D02*
X135841541Y-10788842D01*
X135841541Y-10788842D02*
X135965350Y-10850747D01*
X135965350Y-10850747D02*
X136027255Y-10912652D01*
X136027255Y-10912652D02*
X136089160Y-11036461D01*
X136089160Y-11036461D02*
X136089160Y-11345985D01*
X136089160Y-11345985D02*
X136027255Y-11469795D01*
X136027255Y-11469795D02*
X135965350Y-11531700D01*
X135965350Y-11531700D02*
X135841541Y-11593604D01*
X135841541Y-11593604D02*
X135470112Y-11593604D01*
X135470112Y-11593604D02*
X135346303Y-11531700D01*
X135346303Y-11531700D02*
X135284398Y-11469795D01*
D10*
D11*
X185965350Y-10726938D02*
X185965350Y-11593604D01*
X185655826Y-10231700D02*
X185346303Y-11160271D01*
X185346303Y-11160271D02*
X186151064Y-11160271D01*
D10*
D11*
X236027255Y-10293604D02*
X235408207Y-10293604D01*
X235408207Y-10293604D02*
X235346303Y-10912652D01*
X235346303Y-10912652D02*
X235408207Y-10850747D01*
X235408207Y-10850747D02*
X235532017Y-10788842D01*
X235532017Y-10788842D02*
X235841541Y-10788842D01*
X235841541Y-10788842D02*
X235965350Y-10850747D01*
X235965350Y-10850747D02*
X236027255Y-10912652D01*
X236027255Y-10912652D02*
X236089160Y-11036461D01*
X236089160Y-11036461D02*
X236089160Y-11345985D01*
X236089160Y-11345985D02*
X236027255Y-11469795D01*
X236027255Y-11469795D02*
X235965350Y-11531700D01*
X235965350Y-11531700D02*
X235841541Y-11593604D01*
X235841541Y-11593604D02*
X235532017Y-11593604D01*
X235532017Y-11593604D02*
X235408207Y-11531700D01*
X235408207Y-11531700D02*
X235346303Y-11469795D01*
D10*
D11*
X285965350Y-10293604D02*
X285717731Y-10293604D01*
X285717731Y-10293604D02*
X285593922Y-10355509D01*
X285593922Y-10355509D02*
X285532017Y-10417414D01*
X285532017Y-10417414D02*
X285408207Y-10603128D01*
X285408207Y-10603128D02*
X285346303Y-10850747D01*
X285346303Y-10850747D02*
X285346303Y-11345985D01*
X285346303Y-11345985D02*
X285408207Y-11469795D01*
X285408207Y-11469795D02*
X285470112Y-11531700D01*
X285470112Y-11531700D02*
X285593922Y-11593604D01*
X285593922Y-11593604D02*
X285841541Y-11593604D01*
X285841541Y-11593604D02*
X285965350Y-11531700D01*
X285965350Y-11531700D02*
X286027255Y-11469795D01*
X286027255Y-11469795D02*
X286089160Y-11345985D01*
X286089160Y-11345985D02*
X286089160Y-11036461D01*
X286089160Y-11036461D02*
X286027255Y-10912652D01*
X286027255Y-10912652D02*
X285965350Y-10850747D01*
X285965350Y-10850747D02*
X285841541Y-10788842D01*
X285841541Y-10788842D02*
X285593922Y-10788842D01*
X285593922Y-10788842D02*
X285470112Y-10850747D01*
X285470112Y-10850747D02*
X285408207Y-10912652D01*
X285408207Y-10912652D02*
X285346303Y-11036461D01*
D10*
D11*
X335284398Y-10293604D02*
X336151064Y-10293604D01*
X336151064Y-10293604D02*
X335593922Y-11593604D01*
D10*
D11*
X385593922Y-10850747D02*
X385470112Y-10788842D01*
X385470112Y-10788842D02*
X385408207Y-10726938D01*
X385408207Y-10726938D02*
X385346303Y-10603128D01*
X385346303Y-10603128D02*
X385346303Y-10541223D01*
X385346303Y-10541223D02*
X385408207Y-10417414D01*
X385408207Y-10417414D02*
X385470112Y-10355509D01*
X385470112Y-10355509D02*
X385593922Y-10293604D01*
X385593922Y-10293604D02*
X385841541Y-10293604D01*
X385841541Y-10293604D02*
X385965350Y-10355509D01*
X385965350Y-10355509D02*
X386027255Y-10417414D01*
X386027255Y-10417414D02*
X386089160Y-10541223D01*
X386089160Y-10541223D02*
X386089160Y-10603128D01*
X386089160Y-10603128D02*
X386027255Y-10726938D01*
X386027255Y-10726938D02*
X385965350Y-10788842D01*
X385965350Y-10788842D02*
X385841541Y-10850747D01*
X385841541Y-10850747D02*
X385593922Y-10850747D01*
X385593922Y-10850747D02*
X385470112Y-10912652D01*
X385470112Y-10912652D02*
X385408207Y-10974557D01*
X385408207Y-10974557D02*
X385346303Y-11098366D01*
X385346303Y-11098366D02*
X385346303Y-11345985D01*
X385346303Y-11345985D02*
X385408207Y-11469795D01*
X385408207Y-11469795D02*
X385470112Y-11531700D01*
X385470112Y-11531700D02*
X385593922Y-11593604D01*
X385593922Y-11593604D02*
X385841541Y-11593604D01*
X385841541Y-11593604D02*
X385965350Y-11531700D01*
X385965350Y-11531700D02*
X386027255Y-11469795D01*
X386027255Y-11469795D02*
X386089160Y-11345985D01*
X386089160Y-11345985D02*
X386089160Y-11098366D01*
X386089160Y-11098366D02*
X386027255Y-10974557D01*
X386027255Y-10974557D02*
X385965350Y-10912652D01*
X385965350Y-10912652D02*
X385841541Y-10850747D01*
D10*
D11*
X60000000Y-285002200D02*
X60000000Y-287002200D01*
D10*
D11*
X110000000Y-285002200D02*
X110000000Y-287002200D01*
D10*
D11*
X160000000Y-285002200D02*
X160000000Y-287002200D01*
D10*
D11*
X210000000Y-285002200D02*
X210000000Y-287002200D01*
D10*
D11*
X260000000Y-285002200D02*
X260000000Y-287002200D01*
D10*
D11*
X310000000Y-285002200D02*
X310000000Y-287002200D01*
D10*
D11*
X360000000Y-285002200D02*
X360000000Y-287002200D01*
D10*
D11*
X36089160Y-286595804D02*
X35346303Y-286595804D01*
X35717731Y-286595804D02*
X35717731Y-285295804D01*
X35717731Y-285295804D02*
X35593922Y-285481519D01*
X35593922Y-285481519D02*
X35470112Y-285605328D01*
X35470112Y-285605328D02*
X35346303Y-285667233D01*
D10*
D11*
X85346303Y-285419614D02*
X85408207Y-285357709D01*
X85408207Y-285357709D02*
X85532017Y-285295804D01*
X85532017Y-285295804D02*
X85841541Y-285295804D01*
X85841541Y-285295804D02*
X85965350Y-285357709D01*
X85965350Y-285357709D02*
X86027255Y-285419614D01*
X86027255Y-285419614D02*
X86089160Y-285543423D01*
X86089160Y-285543423D02*
X86089160Y-285667233D01*
X86089160Y-285667233D02*
X86027255Y-285852947D01*
X86027255Y-285852947D02*
X85284398Y-286595804D01*
X85284398Y-286595804D02*
X86089160Y-286595804D01*
D10*
D11*
X135284398Y-285295804D02*
X136089160Y-285295804D01*
X136089160Y-285295804D02*
X135655826Y-285791042D01*
X135655826Y-285791042D02*
X135841541Y-285791042D01*
X135841541Y-285791042D02*
X135965350Y-285852947D01*
X135965350Y-285852947D02*
X136027255Y-285914852D01*
X136027255Y-285914852D02*
X136089160Y-286038661D01*
X136089160Y-286038661D02*
X136089160Y-286348185D01*
X136089160Y-286348185D02*
X136027255Y-286471995D01*
X136027255Y-286471995D02*
X135965350Y-286533900D01*
X135965350Y-286533900D02*
X135841541Y-286595804D01*
X135841541Y-286595804D02*
X135470112Y-286595804D01*
X135470112Y-286595804D02*
X135346303Y-286533900D01*
X135346303Y-286533900D02*
X135284398Y-286471995D01*
D10*
D11*
X185965350Y-285729138D02*
X185965350Y-286595804D01*
X185655826Y-285233900D02*
X185346303Y-286162471D01*
X185346303Y-286162471D02*
X186151064Y-286162471D01*
D10*
D11*
X236027255Y-285295804D02*
X235408207Y-285295804D01*
X235408207Y-285295804D02*
X235346303Y-285914852D01*
X235346303Y-285914852D02*
X235408207Y-285852947D01*
X235408207Y-285852947D02*
X235532017Y-285791042D01*
X235532017Y-285791042D02*
X235841541Y-285791042D01*
X235841541Y-285791042D02*
X235965350Y-285852947D01*
X235965350Y-285852947D02*
X236027255Y-285914852D01*
X236027255Y-285914852D02*
X236089160Y-286038661D01*
X236089160Y-286038661D02*
X236089160Y-286348185D01*
X236089160Y-286348185D02*
X236027255Y-286471995D01*
X236027255Y-286471995D02*
X235965350Y-286533900D01*
X235965350Y-286533900D02*
X235841541Y-286595804D01*
X235841541Y-286595804D02*
X235532017Y-286595804D01*
X235532017Y-286595804D02*
X235408207Y-286533900D01*
X235408207Y-286533900D02*
X235346303Y-286471995D01*
D10*
D11*
X285965350Y-285295804D02*
X285717731Y-285295804D01*
X285717731Y-285295804D02*
X285593922Y-285357709D01*
X285593922Y-285357709D02*
X285532017Y-285419614D01*
X285532017Y-285419614D02*
X285408207Y-285605328D01*
X285408207Y-285605328D02*
X285346303Y-285852947D01*
X285346303Y-285852947D02*
X285346303Y-286348185D01*
X285346303Y-286348185D02*
X285408207Y-286471995D01*
X285408207Y-286471995D02*
X285470112Y-286533900D01*
X285470112Y-286533900D02*
X285593922Y-286595804D01*
X285593922Y-286595804D02*
X285841541Y-286595804D01*
X285841541Y-286595804D02*
X285965350Y-286533900D01*
X285965350Y-286533900D02*
X286027255Y-286471995D01*
X286027255Y-286471995D02*
X286089160Y-286348185D01*
X286089160Y-286348185D02*
X286089160Y-286038661D01*
X286089160Y-286038661D02*
X286027255Y-285914852D01*
X286027255Y-285914852D02*
X285965350Y-285852947D01*
X285965350Y-285852947D02*
X285841541Y-285791042D01*
X285841541Y-285791042D02*
X285593922Y-285791042D01*
X285593922Y-285791042D02*
X285470112Y-285852947D01*
X285470112Y-285852947D02*
X285408207Y-285914852D01*
X285408207Y-285914852D02*
X285346303Y-286038661D01*
D10*
D11*
X335284398Y-285295804D02*
X336151064Y-285295804D01*
X336151064Y-285295804D02*
X335593922Y-286595804D01*
D10*
D11*
X385593922Y-285852947D02*
X385470112Y-285791042D01*
X385470112Y-285791042D02*
X385408207Y-285729138D01*
X385408207Y-285729138D02*
X385346303Y-285605328D01*
X385346303Y-285605328D02*
X385346303Y-285543423D01*
X385346303Y-285543423D02*
X385408207Y-285419614D01*
X385408207Y-285419614D02*
X385470112Y-285357709D01*
X385470112Y-285357709D02*
X385593922Y-285295804D01*
X385593922Y-285295804D02*
X385841541Y-285295804D01*
X385841541Y-285295804D02*
X385965350Y-285357709D01*
X385965350Y-285357709D02*
X386027255Y-285419614D01*
X386027255Y-285419614D02*
X386089160Y-285543423D01*
X386089160Y-285543423D02*
X386089160Y-285605328D01*
X386089160Y-285605328D02*
X386027255Y-285729138D01*
X386027255Y-285729138D02*
X385965350Y-285791042D01*
X385965350Y-285791042D02*
X385841541Y-285852947D01*
X385841541Y-285852947D02*
X385593922Y-285852947D01*
X385593922Y-285852947D02*
X385470112Y-285914852D01*
X385470112Y-285914852D02*
X385408207Y-285976757D01*
X385408207Y-285976757D02*
X385346303Y-286100566D01*
X385346303Y-286100566D02*
X385346303Y-286348185D01*
X385346303Y-286348185D02*
X385408207Y-286471995D01*
X385408207Y-286471995D02*
X385470112Y-286533900D01*
X385470112Y-286533900D02*
X385593922Y-286595804D01*
X385593922Y-286595804D02*
X385841541Y-286595804D01*
X385841541Y-286595804D02*
X385965350Y-286533900D01*
X385965350Y-286533900D02*
X386027255Y-286471995D01*
X386027255Y-286471995D02*
X386089160Y-286348185D01*
X386089160Y-286348185D02*
X386089160Y-286100566D01*
X386089160Y-286100566D02*
X386027255Y-285976757D01*
X386027255Y-285976757D02*
X385965350Y-285914852D01*
X385965350Y-285914852D02*
X385841541Y-285852947D01*
D10*
D11*
X10000000Y-60000000D02*
X12000000Y-60000000D01*
D10*
D11*
X10000000Y-110000000D02*
X12000000Y-110000000D01*
D10*
D11*
X10000000Y-160000000D02*
X12000000Y-160000000D01*
D10*
D11*
X10000000Y-210000000D02*
X12000000Y-210000000D01*
D10*
D11*
X10000000Y-260000000D02*
X12000000Y-260000000D01*
D10*
D11*
X10690476Y-35222176D02*
X11309523Y-35222176D01*
X10566666Y-35593604D02*
X10999999Y-34293604D01*
X10999999Y-34293604D02*
X11433333Y-35593604D01*
D10*
D11*
X11092857Y-84912652D02*
X11278571Y-84974557D01*
X11278571Y-84974557D02*
X11340476Y-85036461D01*
X11340476Y-85036461D02*
X11402380Y-85160271D01*
X11402380Y-85160271D02*
X11402380Y-85345985D01*
X11402380Y-85345985D02*
X11340476Y-85469795D01*
X11340476Y-85469795D02*
X11278571Y-85531700D01*
X11278571Y-85531700D02*
X11154761Y-85593604D01*
X11154761Y-85593604D02*
X10659523Y-85593604D01*
X10659523Y-85593604D02*
X10659523Y-84293604D01*
X10659523Y-84293604D02*
X11092857Y-84293604D01*
X11092857Y-84293604D02*
X11216666Y-84355509D01*
X11216666Y-84355509D02*
X11278571Y-84417414D01*
X11278571Y-84417414D02*
X11340476Y-84541223D01*
X11340476Y-84541223D02*
X11340476Y-84665033D01*
X11340476Y-84665033D02*
X11278571Y-84788842D01*
X11278571Y-84788842D02*
X11216666Y-84850747D01*
X11216666Y-84850747D02*
X11092857Y-84912652D01*
X11092857Y-84912652D02*
X10659523Y-84912652D01*
D10*
D11*
X11402380Y-135469795D02*
X11340476Y-135531700D01*
X11340476Y-135531700D02*
X11154761Y-135593604D01*
X11154761Y-135593604D02*
X11030952Y-135593604D01*
X11030952Y-135593604D02*
X10845238Y-135531700D01*
X10845238Y-135531700D02*
X10721428Y-135407890D01*
X10721428Y-135407890D02*
X10659523Y-135284080D01*
X10659523Y-135284080D02*
X10597619Y-135036461D01*
X10597619Y-135036461D02*
X10597619Y-134850747D01*
X10597619Y-134850747D02*
X10659523Y-134603128D01*
X10659523Y-134603128D02*
X10721428Y-134479319D01*
X10721428Y-134479319D02*
X10845238Y-134355509D01*
X10845238Y-134355509D02*
X11030952Y-134293604D01*
X11030952Y-134293604D02*
X11154761Y-134293604D01*
X11154761Y-134293604D02*
X11340476Y-134355509D01*
X11340476Y-134355509D02*
X11402380Y-134417414D01*
D10*
D11*
X10659523Y-185593604D02*
X10659523Y-184293604D01*
X10659523Y-184293604D02*
X10969047Y-184293604D01*
X10969047Y-184293604D02*
X11154761Y-184355509D01*
X11154761Y-184355509D02*
X11278571Y-184479319D01*
X11278571Y-184479319D02*
X11340476Y-184603128D01*
X11340476Y-184603128D02*
X11402380Y-184850747D01*
X11402380Y-184850747D02*
X11402380Y-185036461D01*
X11402380Y-185036461D02*
X11340476Y-185284080D01*
X11340476Y-185284080D02*
X11278571Y-185407890D01*
X11278571Y-185407890D02*
X11154761Y-185531700D01*
X11154761Y-185531700D02*
X10969047Y-185593604D01*
X10969047Y-185593604D02*
X10659523Y-185593604D01*
D10*
D11*
X10721428Y-234912652D02*
X11154762Y-234912652D01*
X11340476Y-235593604D02*
X10721428Y-235593604D01*
X10721428Y-235593604D02*
X10721428Y-234293604D01*
X10721428Y-234293604D02*
X11340476Y-234293604D01*
D10*
D11*
X11185714Y-284912652D02*
X10752380Y-284912652D01*
X10752380Y-285593604D02*
X10752380Y-284293604D01*
X10752380Y-284293604D02*
X11371428Y-284293604D01*
D10*
D11*
X409989000Y-60000000D02*
X407989000Y-60000000D01*
D10*
D11*
X409989000Y-110000000D02*
X407989000Y-110000000D01*
D10*
D11*
X409989000Y-160000000D02*
X407989000Y-160000000D01*
D10*
D11*
X409989000Y-210000000D02*
X407989000Y-210000000D01*
D10*
D11*
X409989000Y-260000000D02*
X407989000Y-260000000D01*
D10*
D11*
X408679476Y-35222176D02*
X409298523Y-35222176D01*
X408555666Y-35593604D02*
X408988999Y-34293604D01*
X408988999Y-34293604D02*
X409422333Y-35593604D01*
D10*
D11*
X409081857Y-84912652D02*
X409267571Y-84974557D01*
X409267571Y-84974557D02*
X409329476Y-85036461D01*
X409329476Y-85036461D02*
X409391380Y-85160271D01*
X409391380Y-85160271D02*
X409391380Y-85345985D01*
X409391380Y-85345985D02*
X409329476Y-85469795D01*
X409329476Y-85469795D02*
X409267571Y-85531700D01*
X409267571Y-85531700D02*
X409143761Y-85593604D01*
X409143761Y-85593604D02*
X408648523Y-85593604D01*
X408648523Y-85593604D02*
X408648523Y-84293604D01*
X408648523Y-84293604D02*
X409081857Y-84293604D01*
X409081857Y-84293604D02*
X409205666Y-84355509D01*
X409205666Y-84355509D02*
X409267571Y-84417414D01*
X409267571Y-84417414D02*
X409329476Y-84541223D01*
X409329476Y-84541223D02*
X409329476Y-84665033D01*
X409329476Y-84665033D02*
X409267571Y-84788842D01*
X409267571Y-84788842D02*
X409205666Y-84850747D01*
X409205666Y-84850747D02*
X409081857Y-84912652D01*
X409081857Y-84912652D02*
X408648523Y-84912652D01*
D10*
D11*
X409391380Y-135469795D02*
X409329476Y-135531700D01*
X409329476Y-135531700D02*
X409143761Y-135593604D01*
X409143761Y-135593604D02*
X409019952Y-135593604D01*
X409019952Y-135593604D02*
X408834238Y-135531700D01*
X408834238Y-135531700D02*
X408710428Y-135407890D01*
X408710428Y-135407890D02*
X408648523Y-135284080D01*
X408648523Y-135284080D02*
X408586619Y-135036461D01*
X408586619Y-135036461D02*
X408586619Y-134850747D01*
X408586619Y-134850747D02*
X408648523Y-134603128D01*
X408648523Y-134603128D02*
X408710428Y-134479319D01*
X408710428Y-134479319D02*
X408834238Y-134355509D01*
X408834238Y-134355509D02*
X409019952Y-134293604D01*
X409019952Y-134293604D02*
X409143761Y-134293604D01*
X409143761Y-134293604D02*
X409329476Y-134355509D01*
X409329476Y-134355509D02*
X409391380Y-134417414D01*
D10*
D11*
X408648523Y-185593604D02*
X408648523Y-184293604D01*
X408648523Y-184293604D02*
X408958047Y-184293604D01*
X408958047Y-184293604D02*
X409143761Y-184355509D01*
X409143761Y-184355509D02*
X409267571Y-184479319D01*
X409267571Y-184479319D02*
X409329476Y-184603128D01*
X409329476Y-184603128D02*
X409391380Y-184850747D01*
X409391380Y-184850747D02*
X409391380Y-185036461D01*
X409391380Y-185036461D02*
X409329476Y-185284080D01*
X409329476Y-185284080D02*
X409267571Y-185407890D01*
X409267571Y-185407890D02*
X409143761Y-185531700D01*
X409143761Y-185531700D02*
X408958047Y-185593604D01*
X408958047Y-185593604D02*
X408648523Y-185593604D01*
D10*
D11*
X408710428Y-234912652D02*
X409143762Y-234912652D01*
X409329476Y-235593604D02*
X408710428Y-235593604D01*
X408710428Y-235593604D02*
X408710428Y-234293604D01*
X408710428Y-234293604D02*
X409329476Y-234293604D01*
D10*
D11*
X409174714Y-284912652D02*
X408741380Y-284912652D01*
X408741380Y-285593604D02*
X408741380Y-284293604D01*
X408741380Y-284293604D02*
X409360428Y-284293604D01*
D10*
D11*
X323444826Y-280788328D02*
X323444826Y-279288328D01*
X323444826Y-279288328D02*
X323801969Y-279288328D01*
X323801969Y-279288328D02*
X324016255Y-279359757D01*
X324016255Y-279359757D02*
X324159112Y-279502614D01*
X324159112Y-279502614D02*
X324230541Y-279645471D01*
X324230541Y-279645471D02*
X324301969Y-279931185D01*
X324301969Y-279931185D02*
X324301969Y-280145471D01*
X324301969Y-280145471D02*
X324230541Y-280431185D01*
X324230541Y-280431185D02*
X324159112Y-280574042D01*
X324159112Y-280574042D02*
X324016255Y-280716900D01*
X324016255Y-280716900D02*
X323801969Y-280788328D01*
X323801969Y-280788328D02*
X323444826Y-280788328D01*
X325587684Y-280788328D02*
X325587684Y-280002614D01*
X325587684Y-280002614D02*
X325516255Y-279859757D01*
X325516255Y-279859757D02*
X325373398Y-279788328D01*
X325373398Y-279788328D02*
X325087684Y-279788328D01*
X325087684Y-279788328D02*
X324944826Y-279859757D01*
X325587684Y-280716900D02*
X325444826Y-280788328D01*
X325444826Y-280788328D02*
X325087684Y-280788328D01*
X325087684Y-280788328D02*
X324944826Y-280716900D01*
X324944826Y-280716900D02*
X324873398Y-280574042D01*
X324873398Y-280574042D02*
X324873398Y-280431185D01*
X324873398Y-280431185D02*
X324944826Y-280288328D01*
X324944826Y-280288328D02*
X325087684Y-280216900D01*
X325087684Y-280216900D02*
X325444826Y-280216900D01*
X325444826Y-280216900D02*
X325587684Y-280145471D01*
X326087684Y-279788328D02*
X326659112Y-279788328D01*
X326301969Y-279288328D02*
X326301969Y-280574042D01*
X326301969Y-280574042D02*
X326373398Y-280716900D01*
X326373398Y-280716900D02*
X326516255Y-280788328D01*
X326516255Y-280788328D02*
X326659112Y-280788328D01*
X327730541Y-280716900D02*
X327587684Y-280788328D01*
X327587684Y-280788328D02*
X327301970Y-280788328D01*
X327301970Y-280788328D02*
X327159112Y-280716900D01*
X327159112Y-280716900D02*
X327087684Y-280574042D01*
X327087684Y-280574042D02*
X327087684Y-280002614D01*
X327087684Y-280002614D02*
X327159112Y-279859757D01*
X327159112Y-279859757D02*
X327301970Y-279788328D01*
X327301970Y-279788328D02*
X327587684Y-279788328D01*
X327587684Y-279788328D02*
X327730541Y-279859757D01*
X327730541Y-279859757D02*
X327801970Y-280002614D01*
X327801970Y-280002614D02*
X327801970Y-280145471D01*
X327801970Y-280145471D02*
X327087684Y-280288328D01*
X328444826Y-280645471D02*
X328516255Y-280716900D01*
X328516255Y-280716900D02*
X328444826Y-280788328D01*
X328444826Y-280788328D02*
X328373398Y-280716900D01*
X328373398Y-280716900D02*
X328444826Y-280645471D01*
X328444826Y-280645471D02*
X328444826Y-280788328D01*
X328444826Y-279859757D02*
X328516255Y-279931185D01*
X328516255Y-279931185D02*
X328444826Y-280002614D01*
X328444826Y-280002614D02*
X328373398Y-279931185D01*
X328373398Y-279931185D02*
X328444826Y-279859757D01*
X328444826Y-279859757D02*
X328444826Y-280002614D01*
D10*
D11*
X299989000Y-281502200D02*
X407989000Y-281502200D01*
D10*
D11*
X301444826Y-283588328D02*
X301444826Y-282088328D01*
X302301969Y-283588328D02*
X301659112Y-282731185D01*
X302301969Y-282088328D02*
X301444826Y-282945471D01*
X302944826Y-283588328D02*
X302944826Y-282588328D01*
X302944826Y-282088328D02*
X302873398Y-282159757D01*
X302873398Y-282159757D02*
X302944826Y-282231185D01*
X302944826Y-282231185D02*
X303016255Y-282159757D01*
X303016255Y-282159757D02*
X302944826Y-282088328D01*
X302944826Y-282088328D02*
X302944826Y-282231185D01*
X304516255Y-283445471D02*
X304444827Y-283516900D01*
X304444827Y-283516900D02*
X304230541Y-283588328D01*
X304230541Y-283588328D02*
X304087684Y-283588328D01*
X304087684Y-283588328D02*
X303873398Y-283516900D01*
X303873398Y-283516900D02*
X303730541Y-283374042D01*
X303730541Y-283374042D02*
X303659112Y-283231185D01*
X303659112Y-283231185D02*
X303587684Y-282945471D01*
X303587684Y-282945471D02*
X303587684Y-282731185D01*
X303587684Y-282731185D02*
X303659112Y-282445471D01*
X303659112Y-282445471D02*
X303730541Y-282302614D01*
X303730541Y-282302614D02*
X303873398Y-282159757D01*
X303873398Y-282159757D02*
X304087684Y-282088328D01*
X304087684Y-282088328D02*
X304230541Y-282088328D01*
X304230541Y-282088328D02*
X304444827Y-282159757D01*
X304444827Y-282159757D02*
X304516255Y-282231185D01*
X305801970Y-283588328D02*
X305801970Y-282802614D01*
X305801970Y-282802614D02*
X305730541Y-282659757D01*
X305730541Y-282659757D02*
X305587684Y-282588328D01*
X305587684Y-282588328D02*
X305301970Y-282588328D01*
X305301970Y-282588328D02*
X305159112Y-282659757D01*
X305801970Y-283516900D02*
X305659112Y-283588328D01*
X305659112Y-283588328D02*
X305301970Y-283588328D01*
X305301970Y-283588328D02*
X305159112Y-283516900D01*
X305159112Y-283516900D02*
X305087684Y-283374042D01*
X305087684Y-283374042D02*
X305087684Y-283231185D01*
X305087684Y-283231185D02*
X305159112Y-283088328D01*
X305159112Y-283088328D02*
X305301970Y-283016900D01*
X305301970Y-283016900D02*
X305659112Y-283016900D01*
X305659112Y-283016900D02*
X305801970Y-282945471D01*
X307159113Y-283588328D02*
X307159113Y-282088328D01*
X307159113Y-283516900D02*
X307016255Y-283588328D01*
X307016255Y-283588328D02*
X306730541Y-283588328D01*
X306730541Y-283588328D02*
X306587684Y-283516900D01*
X306587684Y-283516900D02*
X306516255Y-283445471D01*
X306516255Y-283445471D02*
X306444827Y-283302614D01*
X306444827Y-283302614D02*
X306444827Y-282874042D01*
X306444827Y-282874042D02*
X306516255Y-282731185D01*
X306516255Y-282731185D02*
X306587684Y-282659757D01*
X306587684Y-282659757D02*
X306730541Y-282588328D01*
X306730541Y-282588328D02*
X307016255Y-282588328D01*
X307016255Y-282588328D02*
X307159113Y-282659757D01*
X309016255Y-282802614D02*
X309516255Y-282802614D01*
X309730541Y-283588328D02*
X309016255Y-283588328D01*
X309016255Y-283588328D02*
X309016255Y-282088328D01*
X309016255Y-282088328D02*
X309730541Y-282088328D01*
X310373398Y-283445471D02*
X310444827Y-283516900D01*
X310444827Y-283516900D02*
X310373398Y-283588328D01*
X310373398Y-283588328D02*
X310301970Y-283516900D01*
X310301970Y-283516900D02*
X310373398Y-283445471D01*
X310373398Y-283445471D02*
X310373398Y-283588328D01*
X311087684Y-283588328D02*
X311087684Y-282088328D01*
X311087684Y-282088328D02*
X311444827Y-282088328D01*
X311444827Y-282088328D02*
X311659113Y-282159757D01*
X311659113Y-282159757D02*
X311801970Y-282302614D01*
X311801970Y-282302614D02*
X311873399Y-282445471D01*
X311873399Y-282445471D02*
X311944827Y-282731185D01*
X311944827Y-282731185D02*
X311944827Y-282945471D01*
X311944827Y-282945471D02*
X311873399Y-283231185D01*
X311873399Y-283231185D02*
X311801970Y-283374042D01*
X311801970Y-283374042D02*
X311659113Y-283516900D01*
X311659113Y-283516900D02*
X311444827Y-283588328D01*
X311444827Y-283588328D02*
X311087684Y-283588328D01*
X312587684Y-283445471D02*
X312659113Y-283516900D01*
X312659113Y-283516900D02*
X312587684Y-283588328D01*
X312587684Y-283588328D02*
X312516256Y-283516900D01*
X312516256Y-283516900D02*
X312587684Y-283445471D01*
X312587684Y-283445471D02*
X312587684Y-283588328D01*
X313230542Y-283159757D02*
X313944828Y-283159757D01*
X313087685Y-283588328D02*
X313587685Y-282088328D01*
X313587685Y-282088328D02*
X314087685Y-283588328D01*
X314587684Y-283445471D02*
X314659113Y-283516900D01*
X314659113Y-283516900D02*
X314587684Y-283588328D01*
X314587684Y-283588328D02*
X314516256Y-283516900D01*
X314516256Y-283516900D02*
X314587684Y-283445471D01*
X314587684Y-283445471D02*
X314587684Y-283588328D01*
X316659113Y-282731185D02*
X316516256Y-282659757D01*
X316516256Y-282659757D02*
X316444827Y-282588328D01*
X316444827Y-282588328D02*
X316373399Y-282445471D01*
X316373399Y-282445471D02*
X316373399Y-282374042D01*
X316373399Y-282374042D02*
X316444827Y-282231185D01*
X316444827Y-282231185D02*
X316516256Y-282159757D01*
X316516256Y-282159757D02*
X316659113Y-282088328D01*
X316659113Y-282088328D02*
X316944827Y-282088328D01*
X316944827Y-282088328D02*
X317087685Y-282159757D01*
X317087685Y-282159757D02*
X317159113Y-282231185D01*
X317159113Y-282231185D02*
X317230542Y-282374042D01*
X317230542Y-282374042D02*
X317230542Y-282445471D01*
X317230542Y-282445471D02*
X317159113Y-282588328D01*
X317159113Y-282588328D02*
X317087685Y-282659757D01*
X317087685Y-282659757D02*
X316944827Y-282731185D01*
X316944827Y-282731185D02*
X316659113Y-282731185D01*
X316659113Y-282731185D02*
X316516256Y-282802614D01*
X316516256Y-282802614D02*
X316444827Y-282874042D01*
X316444827Y-282874042D02*
X316373399Y-283016900D01*
X316373399Y-283016900D02*
X316373399Y-283302614D01*
X316373399Y-283302614D02*
X316444827Y-283445471D01*
X316444827Y-283445471D02*
X316516256Y-283516900D01*
X316516256Y-283516900D02*
X316659113Y-283588328D01*
X316659113Y-283588328D02*
X316944827Y-283588328D01*
X316944827Y-283588328D02*
X317087685Y-283516900D01*
X317087685Y-283516900D02*
X317159113Y-283445471D01*
X317159113Y-283445471D02*
X317230542Y-283302614D01*
X317230542Y-283302614D02*
X317230542Y-283016900D01*
X317230542Y-283016900D02*
X317159113Y-282874042D01*
X317159113Y-282874042D02*
X317087685Y-282802614D01*
X317087685Y-282802614D02*
X316944827Y-282731185D01*
X317873398Y-283445471D02*
X317944827Y-283516900D01*
X317944827Y-283516900D02*
X317873398Y-283588328D01*
X317873398Y-283588328D02*
X317801970Y-283516900D01*
X317801970Y-283516900D02*
X317873398Y-283445471D01*
X317873398Y-283445471D02*
X317873398Y-283588328D01*
X318873399Y-282088328D02*
X319016256Y-282088328D01*
X319016256Y-282088328D02*
X319159113Y-282159757D01*
X319159113Y-282159757D02*
X319230542Y-282231185D01*
X319230542Y-282231185D02*
X319301970Y-282374042D01*
X319301970Y-282374042D02*
X319373399Y-282659757D01*
X319373399Y-282659757D02*
X319373399Y-283016900D01*
X319373399Y-283016900D02*
X319301970Y-283302614D01*
X319301970Y-283302614D02*
X319230542Y-283445471D01*
X319230542Y-283445471D02*
X319159113Y-283516900D01*
X319159113Y-283516900D02*
X319016256Y-283588328D01*
X319016256Y-283588328D02*
X318873399Y-283588328D01*
X318873399Y-283588328D02*
X318730542Y-283516900D01*
X318730542Y-283516900D02*
X318659113Y-283445471D01*
X318659113Y-283445471D02*
X318587684Y-283302614D01*
X318587684Y-283302614D02*
X318516256Y-283016900D01*
X318516256Y-283016900D02*
X318516256Y-282659757D01*
X318516256Y-282659757D02*
X318587684Y-282374042D01*
X318587684Y-282374042D02*
X318659113Y-282231185D01*
X318659113Y-282231185D02*
X318730542Y-282159757D01*
X318730542Y-282159757D02*
X318873399Y-282088328D01*
X320016255Y-283445471D02*
X320087684Y-283516900D01*
X320087684Y-283516900D02*
X320016255Y-283588328D01*
X320016255Y-283588328D02*
X319944827Y-283516900D01*
X319944827Y-283516900D02*
X320016255Y-283445471D01*
X320016255Y-283445471D02*
X320016255Y-283588328D01*
X321516256Y-283588328D02*
X320659113Y-283588328D01*
X321087684Y-283588328D02*
X321087684Y-282088328D01*
X321087684Y-282088328D02*
X320944827Y-282302614D01*
X320944827Y-282302614D02*
X320801970Y-282445471D01*
X320801970Y-282445471D02*
X320659113Y-282516900D01*
D10*
D11*
X299989000Y-278502200D02*
X407989000Y-278502200D01*
D10*
D12*
X387400653Y-280780528D02*
X386900653Y-280066242D01*
X386543510Y-280780528D02*
X386543510Y-279280528D01*
X386543510Y-279280528D02*
X387114939Y-279280528D01*
X387114939Y-279280528D02*
X387257796Y-279351957D01*
X387257796Y-279351957D02*
X387329225Y-279423385D01*
X387329225Y-279423385D02*
X387400653Y-279566242D01*
X387400653Y-279566242D02*
X387400653Y-279780528D01*
X387400653Y-279780528D02*
X387329225Y-279923385D01*
X387329225Y-279923385D02*
X387257796Y-279994814D01*
X387257796Y-279994814D02*
X387114939Y-280066242D01*
X387114939Y-280066242D02*
X386543510Y-280066242D01*
X388614939Y-280709100D02*
X388472082Y-280780528D01*
X388472082Y-280780528D02*
X388186368Y-280780528D01*
X388186368Y-280780528D02*
X388043510Y-280709100D01*
X388043510Y-280709100D02*
X387972082Y-280566242D01*
X387972082Y-280566242D02*
X387972082Y-279994814D01*
X387972082Y-279994814D02*
X388043510Y-279851957D01*
X388043510Y-279851957D02*
X388186368Y-279780528D01*
X388186368Y-279780528D02*
X388472082Y-279780528D01*
X388472082Y-279780528D02*
X388614939Y-279851957D01*
X388614939Y-279851957D02*
X388686368Y-279994814D01*
X388686368Y-279994814D02*
X388686368Y-280137671D01*
X388686368Y-280137671D02*
X387972082Y-280280528D01*
X389186367Y-279780528D02*
X389543510Y-280780528D01*
X389543510Y-280780528D02*
X389900653Y-279780528D01*
X390472081Y-280637671D02*
X390543510Y-280709100D01*
X390543510Y-280709100D02*
X390472081Y-280780528D01*
X390472081Y-280780528D02*
X390400653Y-280709100D01*
X390400653Y-280709100D02*
X390472081Y-280637671D01*
X390472081Y-280637671D02*
X390472081Y-280780528D01*
X390472081Y-279851957D02*
X390543510Y-279923385D01*
X390543510Y-279923385D02*
X390472081Y-279994814D01*
X390472081Y-279994814D02*
X390400653Y-279923385D01*
X390400653Y-279923385D02*
X390472081Y-279851957D01*
X390472081Y-279851957D02*
X390472081Y-279994814D01*
D10*
D11*
X301373398Y-280716900D02*
X301587684Y-280788328D01*
X301587684Y-280788328D02*
X301944826Y-280788328D01*
X301944826Y-280788328D02*
X302087684Y-280716900D01*
X302087684Y-280716900D02*
X302159112Y-280645471D01*
X302159112Y-280645471D02*
X302230541Y-280502614D01*
X302230541Y-280502614D02*
X302230541Y-280359757D01*
X302230541Y-280359757D02*
X302159112Y-280216900D01*
X302159112Y-280216900D02*
X302087684Y-280145471D01*
X302087684Y-280145471D02*
X301944826Y-280074042D01*
X301944826Y-280074042D02*
X301659112Y-280002614D01*
X301659112Y-280002614D02*
X301516255Y-279931185D01*
X301516255Y-279931185D02*
X301444826Y-279859757D01*
X301444826Y-279859757D02*
X301373398Y-279716900D01*
X301373398Y-279716900D02*
X301373398Y-279574042D01*
X301373398Y-279574042D02*
X301444826Y-279431185D01*
X301444826Y-279431185D02*
X301516255Y-279359757D01*
X301516255Y-279359757D02*
X301659112Y-279288328D01*
X301659112Y-279288328D02*
X302016255Y-279288328D01*
X302016255Y-279288328D02*
X302230541Y-279359757D01*
X302873397Y-280788328D02*
X302873397Y-279788328D01*
X302873397Y-279288328D02*
X302801969Y-279359757D01*
X302801969Y-279359757D02*
X302873397Y-279431185D01*
X302873397Y-279431185D02*
X302944826Y-279359757D01*
X302944826Y-279359757D02*
X302873397Y-279288328D01*
X302873397Y-279288328D02*
X302873397Y-279431185D01*
X303444826Y-279788328D02*
X304230541Y-279788328D01*
X304230541Y-279788328D02*
X303444826Y-280788328D01*
X303444826Y-280788328D02*
X304230541Y-280788328D01*
X305373398Y-280716900D02*
X305230541Y-280788328D01*
X305230541Y-280788328D02*
X304944827Y-280788328D01*
X304944827Y-280788328D02*
X304801969Y-280716900D01*
X304801969Y-280716900D02*
X304730541Y-280574042D01*
X304730541Y-280574042D02*
X304730541Y-280002614D01*
X304730541Y-280002614D02*
X304801969Y-279859757D01*
X304801969Y-279859757D02*
X304944827Y-279788328D01*
X304944827Y-279788328D02*
X305230541Y-279788328D01*
X305230541Y-279788328D02*
X305373398Y-279859757D01*
X305373398Y-279859757D02*
X305444827Y-280002614D01*
X305444827Y-280002614D02*
X305444827Y-280145471D01*
X305444827Y-280145471D02*
X304730541Y-280288328D01*
X306087683Y-280645471D02*
X306159112Y-280716900D01*
X306159112Y-280716900D02*
X306087683Y-280788328D01*
X306087683Y-280788328D02*
X306016255Y-280716900D01*
X306016255Y-280716900D02*
X306087683Y-280645471D01*
X306087683Y-280645471D02*
X306087683Y-280788328D01*
X306087683Y-279859757D02*
X306159112Y-279931185D01*
X306159112Y-279931185D02*
X306087683Y-280002614D01*
X306087683Y-280002614D02*
X306016255Y-279931185D01*
X306016255Y-279931185D02*
X306087683Y-279859757D01*
X306087683Y-279859757D02*
X306087683Y-280002614D01*
X307873398Y-280359757D02*
X308587684Y-280359757D01*
X307730541Y-280788328D02*
X308230541Y-279288328D01*
X308230541Y-279288328D02*
X308730541Y-280788328D01*
X309087683Y-279288328D02*
X310016255Y-279288328D01*
X310016255Y-279288328D02*
X309516255Y-279859757D01*
X309516255Y-279859757D02*
X309730540Y-279859757D01*
X309730540Y-279859757D02*
X309873398Y-279931185D01*
X309873398Y-279931185D02*
X309944826Y-280002614D01*
X309944826Y-280002614D02*
X310016255Y-280145471D01*
X310016255Y-280145471D02*
X310016255Y-280502614D01*
X310016255Y-280502614D02*
X309944826Y-280645471D01*
X309944826Y-280645471D02*
X309873398Y-280716900D01*
X309873398Y-280716900D02*
X309730540Y-280788328D01*
X309730540Y-280788328D02*
X309301969Y-280788328D01*
X309301969Y-280788328D02*
X309159112Y-280716900D01*
X309159112Y-280716900D02*
X309087683Y-280645471D01*
D10*
D11*
X386444826Y-283588328D02*
X386444826Y-282088328D01*
X387801970Y-283588328D02*
X387801970Y-282088328D01*
X387801970Y-283516900D02*
X387659112Y-283588328D01*
X387659112Y-283588328D02*
X387373398Y-283588328D01*
X387373398Y-283588328D02*
X387230541Y-283516900D01*
X387230541Y-283516900D02*
X387159112Y-283445471D01*
X387159112Y-283445471D02*
X387087684Y-283302614D01*
X387087684Y-283302614D02*
X387087684Y-282874042D01*
X387087684Y-282874042D02*
X387159112Y-282731185D01*
X387159112Y-282731185D02*
X387230541Y-282659757D01*
X387230541Y-282659757D02*
X387373398Y-282588328D01*
X387373398Y-282588328D02*
X387659112Y-282588328D01*
X387659112Y-282588328D02*
X387801970Y-282659757D01*
X388516255Y-283445471D02*
X388587684Y-283516900D01*
X388587684Y-283516900D02*
X388516255Y-283588328D01*
X388516255Y-283588328D02*
X388444827Y-283516900D01*
X388444827Y-283516900D02*
X388516255Y-283445471D01*
X388516255Y-283445471D02*
X388516255Y-283588328D01*
X388516255Y-282659757D02*
X388587684Y-282731185D01*
X388587684Y-282731185D02*
X388516255Y-282802614D01*
X388516255Y-282802614D02*
X388444827Y-282731185D01*
X388444827Y-282731185D02*
X388516255Y-282659757D01*
X388516255Y-282659757D02*
X388516255Y-282802614D01*
X391159113Y-283588328D02*
X390301970Y-283588328D01*
X390730541Y-283588328D02*
X390730541Y-282088328D01*
X390730541Y-282088328D02*
X390587684Y-282302614D01*
X390587684Y-282302614D02*
X390444827Y-282445471D01*
X390444827Y-282445471D02*
X390301970Y-282516900D01*
X392873398Y-282016900D02*
X391587684Y-283945471D01*
X394159113Y-283588328D02*
X393301970Y-283588328D01*
X393730541Y-283588328D02*
X393730541Y-282088328D01*
X393730541Y-282088328D02*
X393587684Y-282302614D01*
X393587684Y-282302614D02*
X393444827Y-282445471D01*
X393444827Y-282445471D02*
X393301970Y-282516900D01*
D10*
D11*
X299989000Y-274502200D02*
X407989000Y-274502200D01*
D10*
D13*
X301680728Y-275206638D02*
X302823585Y-275206638D01*
X302002157Y-277206638D02*
X302252157Y-275206638D01*
X303240252Y-277206638D02*
X303406919Y-275873304D01*
X303490252Y-275206638D02*
X303383109Y-275301876D01*
X303383109Y-275301876D02*
X303466443Y-275397114D01*
X303466443Y-275397114D02*
X303573586Y-275301876D01*
X303573586Y-275301876D02*
X303490252Y-275206638D01*
X303490252Y-275206638D02*
X303466443Y-275397114D01*
X304073586Y-275873304D02*
X304835490Y-275873304D01*
X304442633Y-275206638D02*
X304228348Y-276920923D01*
X304228348Y-276920923D02*
X304299776Y-277111400D01*
X304299776Y-277111400D02*
X304478348Y-277206638D01*
X304478348Y-277206638D02*
X304668824Y-277206638D01*
X305621205Y-277206638D02*
X305442633Y-277111400D01*
X305442633Y-277111400D02*
X305371205Y-276920923D01*
X305371205Y-276920923D02*
X305585490Y-275206638D01*
X307156919Y-277111400D02*
X306954538Y-277206638D01*
X306954538Y-277206638D02*
X306573585Y-277206638D01*
X306573585Y-277206638D02*
X306395014Y-277111400D01*
X306395014Y-277111400D02*
X306323585Y-276920923D01*
X306323585Y-276920923D02*
X306418824Y-276159019D01*
X306418824Y-276159019D02*
X306537871Y-275968542D01*
X306537871Y-275968542D02*
X306740252Y-275873304D01*
X306740252Y-275873304D02*
X307121204Y-275873304D01*
X307121204Y-275873304D02*
X307299776Y-275968542D01*
X307299776Y-275968542D02*
X307371204Y-276159019D01*
X307371204Y-276159019D02*
X307347395Y-276349495D01*
X307347395Y-276349495D02*
X306371204Y-276539971D01*
X308121205Y-277016161D02*
X308204538Y-277111400D01*
X308204538Y-277111400D02*
X308097395Y-277206638D01*
X308097395Y-277206638D02*
X308014062Y-277111400D01*
X308014062Y-277111400D02*
X308121205Y-277016161D01*
X308121205Y-277016161D02*
X308097395Y-277206638D01*
X308252157Y-275968542D02*
X308335490Y-276063780D01*
X308335490Y-276063780D02*
X308228348Y-276159019D01*
X308228348Y-276159019D02*
X308145014Y-276063780D01*
X308145014Y-276063780D02*
X308252157Y-275968542D01*
X308252157Y-275968542D02*
X308228348Y-276159019D01*
D10*
D11*
X301944826Y-272602614D02*
X301444826Y-272602614D01*
X301444826Y-273388328D02*
X301444826Y-271888328D01*
X301444826Y-271888328D02*
X302159112Y-271888328D01*
X302730540Y-273388328D02*
X302730540Y-272388328D01*
X302730540Y-271888328D02*
X302659112Y-271959757D01*
X302659112Y-271959757D02*
X302730540Y-272031185D01*
X302730540Y-272031185D02*
X302801969Y-271959757D01*
X302801969Y-271959757D02*
X302730540Y-271888328D01*
X302730540Y-271888328D02*
X302730540Y-272031185D01*
X303659112Y-273388328D02*
X303516255Y-273316900D01*
X303516255Y-273316900D02*
X303444826Y-273174042D01*
X303444826Y-273174042D02*
X303444826Y-271888328D01*
X304801969Y-273316900D02*
X304659112Y-273388328D01*
X304659112Y-273388328D02*
X304373398Y-273388328D01*
X304373398Y-273388328D02*
X304230540Y-273316900D01*
X304230540Y-273316900D02*
X304159112Y-273174042D01*
X304159112Y-273174042D02*
X304159112Y-272602614D01*
X304159112Y-272602614D02*
X304230540Y-272459757D01*
X304230540Y-272459757D02*
X304373398Y-272388328D01*
X304373398Y-272388328D02*
X304659112Y-272388328D01*
X304659112Y-272388328D02*
X304801969Y-272459757D01*
X304801969Y-272459757D02*
X304873398Y-272602614D01*
X304873398Y-272602614D02*
X304873398Y-272745471D01*
X304873398Y-272745471D02*
X304159112Y-272888328D01*
X305516254Y-273245471D02*
X305587683Y-273316900D01*
X305587683Y-273316900D02*
X305516254Y-273388328D01*
X305516254Y-273388328D02*
X305444826Y-273316900D01*
X305444826Y-273316900D02*
X305516254Y-273245471D01*
X305516254Y-273245471D02*
X305516254Y-273388328D01*
X305516254Y-272459757D02*
X305587683Y-272531185D01*
X305587683Y-272531185D02*
X305516254Y-272602614D01*
X305516254Y-272602614D02*
X305444826Y-272531185D01*
X305444826Y-272531185D02*
X305516254Y-272459757D01*
X305516254Y-272459757D02*
X305516254Y-272602614D01*
X307873397Y-272602614D02*
X308087683Y-272674042D01*
X308087683Y-272674042D02*
X308159112Y-272745471D01*
X308159112Y-272745471D02*
X308230540Y-272888328D01*
X308230540Y-272888328D02*
X308230540Y-273102614D01*
X308230540Y-273102614D02*
X308159112Y-273245471D01*
X308159112Y-273245471D02*
X308087683Y-273316900D01*
X308087683Y-273316900D02*
X307944826Y-273388328D01*
X307944826Y-273388328D02*
X307373397Y-273388328D01*
X307373397Y-273388328D02*
X307373397Y-271888328D01*
X307373397Y-271888328D02*
X307873397Y-271888328D01*
X307873397Y-271888328D02*
X308016255Y-271959757D01*
X308016255Y-271959757D02*
X308087683Y-272031185D01*
X308087683Y-272031185D02*
X308159112Y-272174042D01*
X308159112Y-272174042D02*
X308159112Y-272316900D01*
X308159112Y-272316900D02*
X308087683Y-272459757D01*
X308087683Y-272459757D02*
X308016255Y-272531185D01*
X308016255Y-272531185D02*
X307873397Y-272602614D01*
X307873397Y-272602614D02*
X307373397Y-272602614D01*
X309087683Y-273388328D02*
X308944826Y-273316900D01*
X308944826Y-273316900D02*
X308873397Y-273174042D01*
X308873397Y-273174042D02*
X308873397Y-271888328D01*
X310301969Y-272388328D02*
X310301969Y-273388328D01*
X309659111Y-272388328D02*
X309659111Y-273174042D01*
X309659111Y-273174042D02*
X309730540Y-273316900D01*
X309730540Y-273316900D02*
X309873397Y-273388328D01*
X309873397Y-273388328D02*
X310087683Y-273388328D01*
X310087683Y-273388328D02*
X310230540Y-273316900D01*
X310230540Y-273316900D02*
X310301969Y-273245471D01*
X311587683Y-273316900D02*
X311444826Y-273388328D01*
X311444826Y-273388328D02*
X311159112Y-273388328D01*
X311159112Y-273388328D02*
X311016254Y-273316900D01*
X311016254Y-273316900D02*
X310944826Y-273174042D01*
X310944826Y-273174042D02*
X310944826Y-272602614D01*
X310944826Y-272602614D02*
X311016254Y-272459757D01*
X311016254Y-272459757D02*
X311159112Y-272388328D01*
X311159112Y-272388328D02*
X311444826Y-272388328D01*
X311444826Y-272388328D02*
X311587683Y-272459757D01*
X311587683Y-272459757D02*
X311659112Y-272602614D01*
X311659112Y-272602614D02*
X311659112Y-272745471D01*
X311659112Y-272745471D02*
X310944826Y-272888328D01*
X312087683Y-272388328D02*
X312659111Y-272388328D01*
X312301968Y-271888328D02*
X312301968Y-273174042D01*
X312301968Y-273174042D02*
X312373397Y-273316900D01*
X312373397Y-273316900D02*
X312516254Y-273388328D01*
X312516254Y-273388328D02*
X312659111Y-273388328D01*
X313373397Y-273388328D02*
X313230540Y-273316900D01*
X313230540Y-273316900D02*
X313159111Y-273245471D01*
X313159111Y-273245471D02*
X313087683Y-273102614D01*
X313087683Y-273102614D02*
X313087683Y-272674042D01*
X313087683Y-272674042D02*
X313159111Y-272531185D01*
X313159111Y-272531185D02*
X313230540Y-272459757D01*
X313230540Y-272459757D02*
X313373397Y-272388328D01*
X313373397Y-272388328D02*
X313587683Y-272388328D01*
X313587683Y-272388328D02*
X313730540Y-272459757D01*
X313730540Y-272459757D02*
X313801969Y-272531185D01*
X313801969Y-272531185D02*
X313873397Y-272674042D01*
X313873397Y-272674042D02*
X313873397Y-273102614D01*
X313873397Y-273102614D02*
X313801969Y-273245471D01*
X313801969Y-273245471D02*
X313730540Y-273316900D01*
X313730540Y-273316900D02*
X313587683Y-273388328D01*
X313587683Y-273388328D02*
X313373397Y-273388328D01*
X314730540Y-273388328D02*
X314587683Y-273316900D01*
X314587683Y-273316900D02*
X314516254Y-273245471D01*
X314516254Y-273245471D02*
X314444826Y-273102614D01*
X314444826Y-273102614D02*
X314444826Y-272674042D01*
X314444826Y-272674042D02*
X314516254Y-272531185D01*
X314516254Y-272531185D02*
X314587683Y-272459757D01*
X314587683Y-272459757D02*
X314730540Y-272388328D01*
X314730540Y-272388328D02*
X314944826Y-272388328D01*
X314944826Y-272388328D02*
X315087683Y-272459757D01*
X315087683Y-272459757D02*
X315159112Y-272531185D01*
X315159112Y-272531185D02*
X315230540Y-272674042D01*
X315230540Y-272674042D02*
X315230540Y-273102614D01*
X315230540Y-273102614D02*
X315159112Y-273245471D01*
X315159112Y-273245471D02*
X315087683Y-273316900D01*
X315087683Y-273316900D02*
X314944826Y-273388328D01*
X314944826Y-273388328D02*
X314730540Y-273388328D01*
X315659112Y-272388328D02*
X316230540Y-272388328D01*
X315873397Y-271888328D02*
X315873397Y-273174042D01*
X315873397Y-273174042D02*
X315944826Y-273316900D01*
X315944826Y-273316900D02*
X316087683Y-273388328D01*
X316087683Y-273388328D02*
X316230540Y-273388328D01*
X316730540Y-273388328D02*
X316730540Y-271888328D01*
X317373398Y-273388328D02*
X317373398Y-272602614D01*
X317373398Y-272602614D02*
X317301969Y-272459757D01*
X317301969Y-272459757D02*
X317159112Y-272388328D01*
X317159112Y-272388328D02*
X316944826Y-272388328D01*
X316944826Y-272388328D02*
X316801969Y-272459757D01*
X316801969Y-272459757D02*
X316730540Y-272531185D01*
X317730541Y-273531185D02*
X318873398Y-273531185D01*
X319516255Y-271888328D02*
X319801969Y-271888328D01*
X319801969Y-271888328D02*
X319944826Y-271959757D01*
X319944826Y-271959757D02*
X320087683Y-272102614D01*
X320087683Y-272102614D02*
X320159112Y-272388328D01*
X320159112Y-272388328D02*
X320159112Y-272888328D01*
X320159112Y-272888328D02*
X320087683Y-273174042D01*
X320087683Y-273174042D02*
X319944826Y-273316900D01*
X319944826Y-273316900D02*
X319801969Y-273388328D01*
X319801969Y-273388328D02*
X319516255Y-273388328D01*
X319516255Y-273388328D02*
X319373398Y-273316900D01*
X319373398Y-273316900D02*
X319230540Y-273174042D01*
X319230540Y-273174042D02*
X319159112Y-272888328D01*
X319159112Y-272888328D02*
X319159112Y-272388328D01*
X319159112Y-272388328D02*
X319230540Y-272102614D01*
X319230540Y-272102614D02*
X319373398Y-271959757D01*
X319373398Y-271959757D02*
X319516255Y-271888328D01*
X320730541Y-273316900D02*
X320944827Y-273388328D01*
X320944827Y-273388328D02*
X321301969Y-273388328D01*
X321301969Y-273388328D02*
X321444827Y-273316900D01*
X321444827Y-273316900D02*
X321516255Y-273245471D01*
X321516255Y-273245471D02*
X321587684Y-273102614D01*
X321587684Y-273102614D02*
X321587684Y-272959757D01*
X321587684Y-272959757D02*
X321516255Y-272816900D01*
X321516255Y-272816900D02*
X321444827Y-272745471D01*
X321444827Y-272745471D02*
X321301969Y-272674042D01*
X321301969Y-272674042D02*
X321016255Y-272602614D01*
X321016255Y-272602614D02*
X320873398Y-272531185D01*
X320873398Y-272531185D02*
X320801969Y-272459757D01*
X320801969Y-272459757D02*
X320730541Y-272316900D01*
X320730541Y-272316900D02*
X320730541Y-272174042D01*
X320730541Y-272174042D02*
X320801969Y-272031185D01*
X320801969Y-272031185D02*
X320873398Y-271959757D01*
X320873398Y-271959757D02*
X321016255Y-271888328D01*
X321016255Y-271888328D02*
X321373398Y-271888328D01*
X321373398Y-271888328D02*
X321587684Y-271959757D01*
X322230540Y-273388328D02*
X322230540Y-271888328D01*
X322230540Y-272602614D02*
X323087683Y-272602614D01*
X323087683Y-273388328D02*
X323087683Y-271888328D01*
X323659112Y-271888328D02*
X324016255Y-273388328D01*
X324016255Y-273388328D02*
X324301969Y-272316900D01*
X324301969Y-272316900D02*
X324587684Y-273388328D01*
X324587684Y-273388328D02*
X324944827Y-271888328D01*
X325516255Y-273245471D02*
X325587684Y-273316900D01*
X325587684Y-273316900D02*
X325516255Y-273388328D01*
X325516255Y-273388328D02*
X325444827Y-273316900D01*
X325444827Y-273316900D02*
X325516255Y-273245471D01*
X325516255Y-273245471D02*
X325516255Y-273388328D01*
X326230541Y-273388328D02*
X326230541Y-271888328D01*
X326373399Y-272816900D02*
X326801970Y-273388328D01*
X326801970Y-272388328D02*
X326230541Y-272959757D01*
X327444827Y-273388328D02*
X327444827Y-272388328D01*
X327444827Y-271888328D02*
X327373399Y-271959757D01*
X327373399Y-271959757D02*
X327444827Y-272031185D01*
X327444827Y-272031185D02*
X327516256Y-271959757D01*
X327516256Y-271959757D02*
X327444827Y-271888328D01*
X327444827Y-271888328D02*
X327444827Y-272031185D01*
X328801971Y-273316900D02*
X328659113Y-273388328D01*
X328659113Y-273388328D02*
X328373399Y-273388328D01*
X328373399Y-273388328D02*
X328230542Y-273316900D01*
X328230542Y-273316900D02*
X328159113Y-273245471D01*
X328159113Y-273245471D02*
X328087685Y-273102614D01*
X328087685Y-273102614D02*
X328087685Y-272674042D01*
X328087685Y-272674042D02*
X328159113Y-272531185D01*
X328159113Y-272531185D02*
X328230542Y-272459757D01*
X328230542Y-272459757D02*
X328373399Y-272388328D01*
X328373399Y-272388328D02*
X328659113Y-272388328D01*
X328659113Y-272388328D02*
X328801971Y-272459757D01*
X330087685Y-273388328D02*
X330087685Y-272602614D01*
X330087685Y-272602614D02*
X330016256Y-272459757D01*
X330016256Y-272459757D02*
X329873399Y-272388328D01*
X329873399Y-272388328D02*
X329587685Y-272388328D01*
X329587685Y-272388328D02*
X329444827Y-272459757D01*
X330087685Y-273316900D02*
X329944827Y-273388328D01*
X329944827Y-273388328D02*
X329587685Y-273388328D01*
X329587685Y-273388328D02*
X329444827Y-273316900D01*
X329444827Y-273316900D02*
X329373399Y-273174042D01*
X329373399Y-273174042D02*
X329373399Y-273031185D01*
X329373399Y-273031185D02*
X329444827Y-272888328D01*
X329444827Y-272888328D02*
X329587685Y-272816900D01*
X329587685Y-272816900D02*
X329944827Y-272816900D01*
X329944827Y-272816900D02*
X330087685Y-272745471D01*
X331444828Y-273388328D02*
X331444828Y-271888328D01*
X331444828Y-273316900D02*
X331301970Y-273388328D01*
X331301970Y-273388328D02*
X331016256Y-273388328D01*
X331016256Y-273388328D02*
X330873399Y-273316900D01*
X330873399Y-273316900D02*
X330801970Y-273245471D01*
X330801970Y-273245471D02*
X330730542Y-273102614D01*
X330730542Y-273102614D02*
X330730542Y-272674042D01*
X330730542Y-272674042D02*
X330801970Y-272531185D01*
X330801970Y-272531185D02*
X330873399Y-272459757D01*
X330873399Y-272459757D02*
X331016256Y-272388328D01*
X331016256Y-272388328D02*
X331301970Y-272388328D01*
X331301970Y-272388328D02*
X331444828Y-272459757D01*
X331801971Y-273531185D02*
X332944828Y-273531185D01*
X333301970Y-272388328D02*
X333301970Y-273888328D01*
X333301970Y-272459757D02*
X333444828Y-272388328D01*
X333444828Y-272388328D02*
X333730542Y-272388328D01*
X333730542Y-272388328D02*
X333873399Y-272459757D01*
X333873399Y-272459757D02*
X333944828Y-272531185D01*
X333944828Y-272531185D02*
X334016256Y-272674042D01*
X334016256Y-272674042D02*
X334016256Y-273102614D01*
X334016256Y-273102614D02*
X333944828Y-273245471D01*
X333944828Y-273245471D02*
X333873399Y-273316900D01*
X333873399Y-273316900D02*
X333730542Y-273388328D01*
X333730542Y-273388328D02*
X333444828Y-273388328D01*
X333444828Y-273388328D02*
X333301970Y-273316900D01*
X335301971Y-273316900D02*
X335159113Y-273388328D01*
X335159113Y-273388328D02*
X334873399Y-273388328D01*
X334873399Y-273388328D02*
X334730542Y-273316900D01*
X334730542Y-273316900D02*
X334659113Y-273245471D01*
X334659113Y-273245471D02*
X334587685Y-273102614D01*
X334587685Y-273102614D02*
X334587685Y-272674042D01*
X334587685Y-272674042D02*
X334659113Y-272531185D01*
X334659113Y-272531185D02*
X334730542Y-272459757D01*
X334730542Y-272459757D02*
X334873399Y-272388328D01*
X334873399Y-272388328D02*
X335159113Y-272388328D01*
X335159113Y-272388328D02*
X335301971Y-272459757D01*
X335944827Y-273388328D02*
X335944827Y-271888328D01*
X335944827Y-272459757D02*
X336087685Y-272388328D01*
X336087685Y-272388328D02*
X336373399Y-272388328D01*
X336373399Y-272388328D02*
X336516256Y-272459757D01*
X336516256Y-272459757D02*
X336587685Y-272531185D01*
X336587685Y-272531185D02*
X336659113Y-272674042D01*
X336659113Y-272674042D02*
X336659113Y-273102614D01*
X336659113Y-273102614D02*
X336587685Y-273245471D01*
X336587685Y-273245471D02*
X336516256Y-273316900D01*
X336516256Y-273316900D02*
X336373399Y-273388328D01*
X336373399Y-273388328D02*
X336087685Y-273388328D01*
X336087685Y-273388328D02*
X335944827Y-273316900D01*
D10*
D11*
X299989000Y-268502200D02*
X407989000Y-268502200D01*
D10*
D11*
X301373398Y-270616900D02*
X301587684Y-270688328D01*
X301587684Y-270688328D02*
X301944826Y-270688328D01*
X301944826Y-270688328D02*
X302087684Y-270616900D01*
X302087684Y-270616900D02*
X302159112Y-270545471D01*
X302159112Y-270545471D02*
X302230541Y-270402614D01*
X302230541Y-270402614D02*
X302230541Y-270259757D01*
X302230541Y-270259757D02*
X302159112Y-270116900D01*
X302159112Y-270116900D02*
X302087684Y-270045471D01*
X302087684Y-270045471D02*
X301944826Y-269974042D01*
X301944826Y-269974042D02*
X301659112Y-269902614D01*
X301659112Y-269902614D02*
X301516255Y-269831185D01*
X301516255Y-269831185D02*
X301444826Y-269759757D01*
X301444826Y-269759757D02*
X301373398Y-269616900D01*
X301373398Y-269616900D02*
X301373398Y-269474042D01*
X301373398Y-269474042D02*
X301444826Y-269331185D01*
X301444826Y-269331185D02*
X301516255Y-269259757D01*
X301516255Y-269259757D02*
X301659112Y-269188328D01*
X301659112Y-269188328D02*
X302016255Y-269188328D01*
X302016255Y-269188328D02*
X302230541Y-269259757D01*
X302873397Y-270688328D02*
X302873397Y-269188328D01*
X303516255Y-270688328D02*
X303516255Y-269902614D01*
X303516255Y-269902614D02*
X303444826Y-269759757D01*
X303444826Y-269759757D02*
X303301969Y-269688328D01*
X303301969Y-269688328D02*
X303087683Y-269688328D01*
X303087683Y-269688328D02*
X302944826Y-269759757D01*
X302944826Y-269759757D02*
X302873397Y-269831185D01*
X304801969Y-270616900D02*
X304659112Y-270688328D01*
X304659112Y-270688328D02*
X304373398Y-270688328D01*
X304373398Y-270688328D02*
X304230540Y-270616900D01*
X304230540Y-270616900D02*
X304159112Y-270474042D01*
X304159112Y-270474042D02*
X304159112Y-269902614D01*
X304159112Y-269902614D02*
X304230540Y-269759757D01*
X304230540Y-269759757D02*
X304373398Y-269688328D01*
X304373398Y-269688328D02*
X304659112Y-269688328D01*
X304659112Y-269688328D02*
X304801969Y-269759757D01*
X304801969Y-269759757D02*
X304873398Y-269902614D01*
X304873398Y-269902614D02*
X304873398Y-270045471D01*
X304873398Y-270045471D02*
X304159112Y-270188328D01*
X306087683Y-270616900D02*
X305944826Y-270688328D01*
X305944826Y-270688328D02*
X305659112Y-270688328D01*
X305659112Y-270688328D02*
X305516254Y-270616900D01*
X305516254Y-270616900D02*
X305444826Y-270474042D01*
X305444826Y-270474042D02*
X305444826Y-269902614D01*
X305444826Y-269902614D02*
X305516254Y-269759757D01*
X305516254Y-269759757D02*
X305659112Y-269688328D01*
X305659112Y-269688328D02*
X305944826Y-269688328D01*
X305944826Y-269688328D02*
X306087683Y-269759757D01*
X306087683Y-269759757D02*
X306159112Y-269902614D01*
X306159112Y-269902614D02*
X306159112Y-270045471D01*
X306159112Y-270045471D02*
X305444826Y-270188328D01*
X306587683Y-269688328D02*
X307159111Y-269688328D01*
X306801968Y-269188328D02*
X306801968Y-270474042D01*
X306801968Y-270474042D02*
X306873397Y-270616900D01*
X306873397Y-270616900D02*
X307016254Y-270688328D01*
X307016254Y-270688328D02*
X307159111Y-270688328D01*
X307659111Y-270545471D02*
X307730540Y-270616900D01*
X307730540Y-270616900D02*
X307659111Y-270688328D01*
X307659111Y-270688328D02*
X307587683Y-270616900D01*
X307587683Y-270616900D02*
X307659111Y-270545471D01*
X307659111Y-270545471D02*
X307659111Y-270688328D01*
X307659111Y-269759757D02*
X307730540Y-269831185D01*
X307730540Y-269831185D02*
X307659111Y-269902614D01*
X307659111Y-269902614D02*
X307587683Y-269831185D01*
X307587683Y-269831185D02*
X307659111Y-269759757D01*
X307659111Y-269759757D02*
X307659111Y-269902614D01*
D10*
D12*
D10*
D11*
D10*
D11*
D10*
D11*
D10*
D11*
D10*
D11*
X319989000Y-278502200D02*
X319989000Y-281502200D01*
D10*
D11*
X383989000Y-278502200D02*
X383989000Y-285002200D01*
D14*
%TO.P,J1,1,Pin_1*%
%TO.N,PP1800_ALW*%
X208280000Y-128894000D03*
D15*
%TO.P,J1,2,Pin_2*%
%TO.N,GND*%
X209550000Y-128894000D03*
%TO.P,J1,3,Pin_3*%
%TO.N,GPIO_PC11*%
X210820000Y-128894000D03*
%TO.P,J1,4,Pin_4*%
%TO.N,GPIO_PC10*%
X212090000Y-128894000D03*
%TO.P,J1,5,Pin_5*%
%TO.N,GPIO_PA15*%
X213360000Y-128894000D03*
%TO.P,J1,6,Pin_6*%
%TO.N,SPI2_DEV_DC_PC6*%
X214630000Y-128894000D03*
%TO.P,J1,7,Pin_7*%
%TO.N,SPI2_STM_DO_DEV_DI_PB15*%
X215900000Y-128894000D03*
%TO.P,J1,8,Pin_8*%
%TO.N,SPI2_DEV_DO_STM_DI_PB14*%
X217170000Y-128894000D03*
%TO.P,J1,9,Pin_9*%
%TO.N,SPI2_CLK_PB13*%
X218440000Y-128894000D03*
%TO.P,J1,10,Pin_10*%
%TO.N,SPI2_DEV_CS_L_PB12*%
X219710000Y-128894000D03*
%TO.P,J1,11,Pin_11*%
%TO.N,GPIO_PE4*%
X220980000Y-128894000D03*
%TO.P,J1,12,Pin_12*%
%TO.N,GPIO_PB1*%
X222250000Y-128894000D03*
%TO.P,J1,13,Pin_13*%
%TO.N,GPIO_PB0*%
X223520000Y-128894000D03*
%TO.P,J1,14,Pin_14*%
%TO.N,STM_LPUART_TXD_PA2*%
X224790000Y-128894000D03*
%TO.P,J1,15,Pin_15*%
%TO.N,STM_LPUART_RXD_PB10*%
X226060000Y-128894000D03*
%TD*%
D16*
%TO.P,J3,1,Pin_1*%
%TO.N,PPVAR_BAT*%
X197281800Y-141510000D03*
D17*
%TO.P,J3,2,Pin_2*%
%TO.N,/POWER/CHGR_BAT_THERM*%
X197281800Y-143510000D03*
%TO.P,J3,3,Pin_3*%
%TO.N,GND*%
X197281800Y-145510000D03*
%TD*%
D14*
%TO.P,J2,1,Pin_1*%
%TO.N,PPVAR_VIN*%
X208280000Y-146665000D03*
D15*
%TO.P,J2,2,Pin_2*%
%TO.N,GND*%
X209550000Y-146665000D03*
%TO.P,J2,3,Pin_3*%
%TO.N,RESETB*%
X210820000Y-146665000D03*
%TO.P,J2,4,Pin_4*%
%TO.N,STM_WKUP2_PC13*%
X212090000Y-146665000D03*
%TO.P,J2,5,Pin_5*%
%TO.N,STM_BOOT0*%
X213360000Y-146665000D03*
%TO.P,J2,6,Pin_6*%
%TO.N,I2C3_SCL*%
X214630000Y-146665000D03*
%TO.P,J2,7,Pin_7*%
%TO.N,I2C3_SDA*%
X215900000Y-146665000D03*
%TO.P,J2,8,Pin_8*%
%TO.N,ADC1_IN3*%
X217170000Y-146665000D03*
%TO.P,J2,9,Pin_9*%
%TO.N,ADC1_IN4*%
X218440000Y-146665000D03*
%TO.P,J2,10,Pin_10*%
%TO.N,ADC1_IN5*%
X219710000Y-146665000D03*
%TO.P,J2,11,Pin_11*%
%TO.N,PPVAR_ADC*%
X220980000Y-146665000D03*
%TO.P,J2,12,Pin_12*%
%TO.N,GND*%
X222250000Y-146665000D03*
%TO.P,J2,13,Pin_13*%
%TO.N,STM_SAI1_SCK_A*%
X223520000Y-146665000D03*
%TO.P,J2,14,Pin_14*%
%TO.N,STM_SAI1_FS_A*%
X224790000Y-146665000D03*
%TO.P,J2,15,Pin_15*%
%TO.N,STM_SAI1_SD_A*%
X226060000Y-146665000D03*
%TD*%
D18*
%TO.P,J5,S1,SHIELD*%
%TO.N,GND*%
X198130000Y-129160000D03*
D19*
X194305000Y-129160000D03*
D18*
X198130000Y-137800000D03*
D19*
X194305000Y-137800000D03*
%TD*%
D20*
%TO.P,U4,11,EP*%
%TO.N,GND*%
X202714800Y-143010000D03*
X202714800Y-144010000D03*
%TD*%
D21*
%TO.P,R1,1*%
%TO.N,Net-(U8-EN)*%
X204020000Y-132800000D03*
%TO.P,R1,2*%
%TO.N,GND*%
X203380000Y-132800000D03*
%TD*%
D22*
%TO.P,C16,1*%
%TO.N,PPVAR_ADC*%
X219810000Y-140850000D03*
%TO.P,C16,2*%
%TO.N,GND*%
X220450000Y-140850000D03*
%TD*%
D23*
%TO.P,C30,1*%
%TO.N,Net-(U8-EN)*%
X204090000Y-131970000D03*
%TO.P,C30,2*%
%TO.N,GND*%
X203130000Y-131970000D03*
%TD*%
D22*
%TO.P,C14,1*%
%TO.N,PP1800_ALW*%
X222600000Y-132940000D03*
%TO.P,C14,2*%
%TO.N,GND*%
X223240000Y-132940000D03*
%TD*%
D24*
%TO.P,C8,1*%
%TO.N,PP1800_ALW*%
X212330000Y-139920000D03*
%TO.P,C8,2*%
%TO.N,GND*%
X212330000Y-140560000D03*
%TD*%
D21*
%TO.P,C6,1*%
%TO.N,PP1800_ALW*%
X215760000Y-131250000D03*
%TO.P,C6,2*%
%TO.N,GND*%
X215120000Y-131250000D03*
%TD*%
D24*
%TO.P,C9,1*%
%TO.N,PP3300_VDDUSB*%
X212290000Y-134780000D03*
%TO.P,C9,2*%
%TO.N,GND*%
X212290000Y-135420000D03*
%TD*%
D22*
%TO.P,C13,1*%
%TO.N,PP1800_ALW*%
X222610000Y-132240000D03*
%TO.P,C13,2*%
%TO.N,GND*%
X223250000Y-132240000D03*
%TD*%
D24*
%TO.P,C4,1*%
%TO.N,PP1800_ALW*%
X213580000Y-139970000D03*
%TO.P,C4,2*%
%TO.N,GND*%
X213580000Y-140610000D03*
%TD*%
%TO.P,R4,1*%
%TO.N,PP1800_ALW*%
X208480000Y-136550000D03*
%TO.P,R4,2*%
%TO.N,FLT_CHG_L*%
X208480000Y-137190000D03*
%TD*%
D22*
%TO.P,C17,1*%
%TO.N,PPVAR_ADC*%
X219810000Y-140150000D03*
%TO.P,C17,2*%
%TO.N,GND*%
X220450000Y-140150000D03*
%TD*%
D25*
%TO.P,R20,1*%
%TO.N,Net-(J5-CC2)*%
X196596000Y-134686000D03*
%TO.P,R20,2*%
%TO.N,GND*%
X196596000Y-134046000D03*
%TD*%
D26*
%TO.P,D3,1,K*%
%TO.N,PPVAR_SYS*%
X202985000Y-139300000D03*
%TO.P,D3,2,A*%
%TO.N,PP3300_DBG*%
X203955000Y-139300000D03*
%TD*%
D27*
%TO.P,Q1,1,G*%
%TO.N,/BLE_MCU/BT_CONN_LED*%
X208090000Y-143820000D03*
%TO.P,Q1,2,S*%
%TO.N,GND*%
X208090000Y-144820000D03*
%TO.P,Q1,3,D*%
%TO.N,Net-(Q1-D)*%
X206800000Y-144320000D03*
%TD*%
D24*
%TO.P,R24,1*%
%TO.N,Net-(Q1-D)*%
X205890000Y-144330000D03*
%TO.P,R24,2*%
%TO.N,Net-(D4-K)*%
X205890000Y-144970000D03*
%TD*%
D28*
%TO.P,R26,1*%
%TO.N,PP1800_ALW*%
X217220800Y-140868400D03*
%TO.P,R26,2*%
%TO.N,PPVAR_ADC*%
X218240800Y-140868400D03*
%TD*%
D24*
%TO.P,R18,1*%
%TO.N,VBUS*%
X204165200Y-130470000D03*
%TO.P,R18,2*%
%TO.N,Net-(U8-EN)*%
X204165200Y-131110000D03*
%TD*%
%TO.P,C10,1*%
%TO.N,RESETB*%
X215544400Y-141615200D03*
%TO.P,C10,2*%
%TO.N,GND*%
X215544400Y-142255200D03*
%TD*%
%TO.P,R10,1*%
%TO.N,Net-(U4-~{CE})*%
X201770000Y-143470000D03*
%TO.P,R10,2*%
%TO.N,GND*%
X201770000Y-144110000D03*
%TD*%
D21*
%TO.P,R13,1*%
%TO.N,PPVAR_SYS*%
X201945200Y-139293600D03*
%TO.P,R13,2*%
%TO.N,PPVAR_VIN*%
X201305200Y-139293600D03*
%TD*%
D24*
%TO.P,R21,1*%
%TO.N,Net-(J5-CC1)*%
X196596000Y-131760000D03*
%TO.P,R21,2*%
%TO.N,GND*%
X196596000Y-132400000D03*
%TD*%
D25*
%TO.P,R9,1*%
%TO.N,Net-(U4-~{CE})*%
X201060000Y-143480000D03*
%TO.P,R9,2*%
%TO.N,PPVAR_VIN*%
X201060000Y-142840000D03*
%TD*%
D23*
%TO.P,C27,1*%
%TO.N,PP3300_DBG*%
X203920000Y-140250000D03*
%TO.P,C27,2*%
%TO.N,GND*%
X202960000Y-140250000D03*
%TD*%
%TO.P,C12,1*%
%TO.N,PP1800_ALW*%
X216170000Y-130440000D03*
%TO.P,C12,2*%
%TO.N,GND*%
X215210000Y-130440000D03*
%TD*%
D22*
%TO.P,R16,1*%
%TO.N,Net-(U5-VINSW)*%
X202331700Y-137470000D03*
%TO.P,R16,2*%
%TO.N,VIN_SNS_ADC1_IN9*%
X202971700Y-137470000D03*
%TD*%
%TO.P,C7,1*%
%TO.N,PP1800_ALW*%
X217000000Y-130630000D03*
%TO.P,C7,2*%
%TO.N,GND*%
X217640000Y-130630000D03*
%TD*%
%TO.P,C5,1*%
%TO.N,PP1800_ALW*%
X222160000Y-135390000D03*
%TO.P,C5,2*%
%TO.N,GND*%
X222800000Y-135390000D03*
%TD*%
D24*
%TO.P,R25,1*%
%TO.N,/BLE_MCU/BT_CONN_LED*%
X208970000Y-144030000D03*
%TO.P,R25,2*%
%TO.N,GND*%
X208970000Y-144670000D03*
%TD*%
D25*
%TO.P,C25,1*%
%TO.N,VIN_SNS_ADC1_IN9*%
X204429700Y-137459800D03*
%TO.P,C25,2*%
%TO.N,GND*%
X204429700Y-136819800D03*
%TD*%
D24*
%TO.P,R3,1*%
%TO.N,/POWER/CHG_LED_GRN*%
X204560000Y-144820000D03*
%TO.P,R3,2*%
%TO.N,Net-(D1-K)*%
X204560000Y-145460000D03*
%TD*%
D25*
%TO.P,R17,1*%
%TO.N,VIN_SNS_ADC1_IN9*%
X203718500Y-137459800D03*
%TO.P,R17,2*%
%TO.N,GND*%
X203718500Y-136819800D03*
%TD*%
D29*
%TO.N,GND*%
X227990000Y-137830000D03*
X227010000Y-140918334D03*
D30*
X215510000Y-134509000D03*
D29*
X230010000Y-139030000D03*
X230010000Y-144076664D03*
X230980000Y-134430000D03*
X226000000Y-133630000D03*
D30*
X215510000Y-137734800D03*
X217110000Y-137734800D03*
D29*
X228720000Y-136480000D03*
X230880000Y-143546664D03*
X225440000Y-130560000D03*
X227965000Y-128905000D03*
X202960000Y-140958600D03*
X226970000Y-134050000D03*
D31*
X203030000Y-135310000D03*
D29*
X226710000Y-136220000D03*
X230880000Y-138500000D03*
X223080322Y-139152500D03*
X227010000Y-138395002D03*
X209550000Y-145550000D03*
X224850000Y-133650000D03*
X222890000Y-134760000D03*
X227000000Y-130870000D03*
X228990000Y-143419996D03*
X224880000Y-141410000D03*
D30*
X209550000Y-129990000D03*
D29*
X230880000Y-141023332D03*
X227965000Y-130175000D03*
X221160000Y-139990000D03*
D31*
X201664800Y-144729200D03*
D30*
X217110000Y-134509000D03*
D29*
X223400000Y-144070000D03*
X227880000Y-136720000D03*
X223060000Y-130540000D03*
X228990000Y-145943332D03*
X227000000Y-132140000D03*
X203160000Y-136819800D03*
X224620000Y-143600000D03*
X201730000Y-138540000D03*
X214510000Y-130500000D03*
X230880000Y-144808330D03*
X230770000Y-136370000D03*
X208350000Y-131890000D03*
X223840000Y-135860000D03*
X221610000Y-143860000D03*
X230010000Y-145338330D03*
X205600010Y-142900000D03*
X226060000Y-131445000D03*
X227980000Y-141558334D03*
X226370000Y-134420000D03*
X230880000Y-146070000D03*
X202809998Y-134110000D03*
X227980000Y-146605002D03*
X228730000Y-133720000D03*
X224610000Y-136180000D03*
X229070000Y-132130000D03*
X206279998Y-142890000D03*
X227010000Y-142180000D03*
D30*
X215510000Y-136109200D03*
D29*
X230880000Y-139761666D03*
X202280400Y-140980000D03*
X216820000Y-143590000D03*
D31*
X204260000Y-135040000D03*
D29*
X227080000Y-133360000D03*
X227965000Y-131445000D03*
X228940000Y-129620000D03*
X199415400Y-130377000D03*
X229560000Y-136740000D03*
X230010000Y-140291666D03*
X225230000Y-135760000D03*
X223200000Y-133500000D03*
X227010000Y-139656668D03*
X228940000Y-130890000D03*
D30*
X218710000Y-134509000D03*
D29*
X202750000Y-132790000D03*
X225730000Y-134430000D03*
X230880000Y-142284998D03*
X227010000Y-144703332D03*
X227980000Y-144081666D03*
X230850000Y-137400000D03*
X227840000Y-133490000D03*
D30*
X209942141Y-136563091D03*
D29*
X207314800Y-144881600D03*
D30*
X217110000Y-136109200D03*
D29*
X225880000Y-135770000D03*
X230010000Y-146600000D03*
X227980000Y-145343332D03*
X227010000Y-143441666D03*
X211680000Y-135560000D03*
X228990000Y-139634998D03*
X224470000Y-134170000D03*
X229580000Y-133490000D03*
X227980000Y-142820000D03*
X230440000Y-134070000D03*
D30*
X218710000Y-136109200D03*
D29*
X224020000Y-133840000D03*
X228990000Y-144681662D03*
X230420000Y-133350000D03*
X230040000Y-137860000D03*
X223720000Y-136870000D03*
X227980000Y-139035002D03*
X230010000Y-142814998D03*
X227980000Y-140296668D03*
X228990000Y-138373332D03*
X218190000Y-130640000D03*
X223590000Y-135090000D03*
X213550000Y-141240000D03*
X211740000Y-140570000D03*
X230340000Y-136830000D03*
X223090000Y-140090000D03*
X223800000Y-133410000D03*
X202909300Y-131253100D03*
X228990000Y-142158330D03*
X228990000Y-140896664D03*
X227965000Y-132715000D03*
D30*
X218710000Y-137734800D03*
D29*
X213550000Y-144570000D03*
X227120000Y-136820000D03*
X230010000Y-141553332D03*
X222490000Y-133520000D03*
X212890000Y-132340000D03*
X199415400Y-136575800D03*
X223740000Y-140880000D03*
X226060000Y-132715000D03*
X214934800Y-144932400D03*
X225090000Y-134430000D03*
X215011000Y-142722600D03*
X196590000Y-133190000D03*
%TO.N,PP1800_ALW*%
X213010000Y-140020000D03*
X221600000Y-142010000D03*
X216310000Y-131460000D03*
D31*
X206470000Y-134250000D03*
D29*
X218922600Y-144297400D03*
X221872500Y-133320000D03*
X212320000Y-139310000D03*
D31*
X205900000Y-134240000D03*
D29*
X221910000Y-134810000D03*
X218140600Y-141980600D03*
X216890000Y-131460000D03*
X215809998Y-144330000D03*
%TO.N,PPVAR_SYS*%
X203380000Y-138150000D03*
D30*
X202082400Y-140131800D03*
D29*
%TO.N,PPVAR_BAT*%
X201540000Y-146870000D03*
X204650000Y-146880000D03*
D30*
%TO.N,PP3300_DBG*%
X204860000Y-140110000D03*
D29*
%TO.N,RESETB*%
X216660000Y-141630000D03*
X209010000Y-142110000D03*
%TO.N,PP3300_VDDUSB*%
X209340000Y-132290000D03*
X212250000Y-134180000D03*
X209030000Y-134180000D03*
D30*
%TO.N,PPVAR_VIN*%
X204901800Y-141050000D03*
X204901800Y-141808200D03*
X201093806Y-137720806D03*
X200290000Y-138250000D03*
D29*
%TO.N,VIN_SNS_ADC1_IN9*%
X222100000Y-139090000D03*
D30*
%TO.N,VBUS*%
X200030000Y-131940000D03*
X200620000Y-135660000D03*
X199690000Y-135540000D03*
D29*
X204180000Y-129460000D03*
X201020000Y-134110000D03*
D30*
X200012796Y-131126998D03*
D29*
%TO.N,Net-(U4-~{CE})*%
X200837800Y-144068800D03*
%TO.N,BAT_CHRG_FACTORY*%
X209990000Y-144530000D03*
X205333600Y-145516600D03*
X206908400Y-145680000D03*
%TO.N,Net-(U5-VINSW)*%
X202120000Y-136900000D03*
%TO.N,VIN_SNS_EN*%
X201170000Y-136630000D03*
X210520000Y-139150000D03*
%TO.N,FLT_CHG_L*%
X206960000Y-136670000D03*
X205080810Y-142654679D03*
X212090000Y-137670000D03*
X206530000Y-139370000D03*
%TO.N,/POWER/CHGR_BAT_THERM*%
X203610556Y-145180556D03*
%TO.N,Net-(U8-EN)*%
X204910000Y-132220000D03*
%TO.N,STM_LPUART_TXD_PA2*%
X222550000Y-140270000D03*
X220210000Y-131370000D03*
%TO.N,STM_WKUP2_PC13*%
X214172800Y-141579600D03*
X210590000Y-142180000D03*
%TO.N,STM_LPUART_RXD_PB10*%
X223270000Y-136020000D03*
X220820000Y-131410000D03*
%TO.N,STM_SAI1_SD_A*%
X213450000Y-132410000D03*
X223010000Y-136840000D03*
%TO.N,Net-(D1-K)*%
X203980000Y-146100000D03*
%TO.N,/POWER/CHG_LED_GRN*%
X200355200Y-143510000D03*
%TO.N,Net-(U5-VOS)*%
X201828400Y-137947400D03*
X205090000Y-136710000D03*
%TO.N,QSPI_MEM_D1*%
X216712800Y-143052800D03*
X223880000Y-141440000D03*
%TO.N,QSPI_MEM_D3*%
X223540000Y-138720000D03*
X222990000Y-143570000D03*
%TO.N,QSPI_MEM_D0*%
X225000000Y-143080000D03*
X217373200Y-143610000D03*
%TO.N,QSPI_MEM_CLK*%
X223800000Y-143690000D03*
X223561772Y-139557284D03*
%TO.N,PPVAR_ADC*%
X219810000Y-141530000D03*
X219100000Y-140870000D03*
%TO.N,GPIO_PC10*%
X211120000Y-135850000D03*
X210750000Y-131890000D03*
%TO.N,GPIO_PA15*%
X211220000Y-132280000D03*
X211230000Y-135140000D03*
%TO.N,GPIO_PC11*%
X211470000Y-136540000D03*
X210150000Y-132270000D03*
%TO.N,Net-(D4-K)*%
X206340000Y-146100000D03*
%TO.N,/BLE_MCU/BT_CONN_LED*%
X209620000Y-144010000D03*
%TO.N,Net-(J5-CC2)*%
X197330000Y-134720004D03*
%TO.N,Net-(J5-CC1)*%
X197360000Y-131730000D03*
%TD*%
D32*
%TO.N,GND*%
X202760000Y-132800000D02*
X202750000Y-132790000D01*
D33*
X218180000Y-130630000D02*
X217640000Y-130630000D01*
D34*
X213580000Y-140610000D02*
X213580000Y-141210000D01*
X212330000Y-140560000D02*
X211750000Y-140560000D01*
D32*
X203380000Y-132800000D02*
X202760000Y-132800000D01*
X204429700Y-136819800D02*
X203718500Y-136819800D01*
X223250000Y-132930000D02*
X223240000Y-132940000D01*
D33*
X218190000Y-130640000D02*
X218180000Y-130630000D01*
D32*
X201777600Y-144007800D02*
X201777600Y-144616400D01*
D34*
X215150000Y-130500000D02*
X214510000Y-130500000D01*
D33*
X207314800Y-144881600D02*
X207376400Y-144820000D01*
D34*
X213580000Y-141210000D02*
X213550000Y-141240000D01*
X223240000Y-132940000D02*
X223330000Y-132940000D01*
X215120000Y-130530000D02*
X215210000Y-130440000D01*
X211750000Y-140560000D02*
X211740000Y-140570000D01*
D32*
X215077000Y-142722600D02*
X215544400Y-142255200D01*
D33*
X212240000Y-135420000D02*
X211820000Y-135420000D01*
X207376400Y-144820000D02*
X208090000Y-144820000D01*
D32*
X215011000Y-142722600D02*
X215077000Y-142722600D01*
D33*
X208970000Y-144670000D02*
X208240000Y-144670000D01*
D34*
X222800000Y-135390000D02*
X222800000Y-134850000D01*
D35*
X220450000Y-140850000D02*
X220450000Y-140150000D01*
D32*
X201777600Y-144616400D02*
X201664800Y-144729200D01*
D36*
X209550000Y-146665000D02*
X209550000Y-145550000D01*
D32*
X196596000Y-134046000D02*
X196596000Y-132400000D01*
X203718500Y-136819800D02*
X203160000Y-136819800D01*
D36*
X202960000Y-140958600D02*
X202960000Y-140250000D01*
D34*
X223330000Y-132940000D02*
X223800000Y-133410000D01*
D35*
X221160000Y-139990000D02*
X221000000Y-140150000D01*
D34*
X215120000Y-131250000D02*
X215120000Y-130530000D01*
X223250000Y-132240000D02*
X223250000Y-132930000D01*
D33*
X208240000Y-144670000D02*
X208090000Y-144820000D01*
D36*
X209550000Y-128894000D02*
X209550000Y-129990000D01*
D34*
X215210000Y-130440000D02*
X215150000Y-130500000D01*
D32*
X203126400Y-132232400D02*
X203126400Y-131470200D01*
D33*
X211820000Y-135420000D02*
X211680000Y-135560000D01*
D34*
X222800000Y-134850000D02*
X222890000Y-134760000D01*
D32*
X203126400Y-131470200D02*
X202909300Y-131253100D01*
D35*
X221000000Y-140150000D02*
X220450000Y-140150000D01*
D34*
%TO.N,PP1800_ALW*%
X216760000Y-139970000D02*
X213580000Y-139970000D01*
X218140600Y-141980600D02*
X217700600Y-141980600D01*
D32*
X208480000Y-136550000D02*
X208480000Y-134830000D01*
D33*
X218890000Y-144330000D02*
X218922600Y-144297400D01*
D34*
X217000000Y-130630000D02*
X217000000Y-131350000D01*
X222160000Y-135060000D02*
X221910000Y-134810000D01*
D32*
X207900000Y-134250000D02*
X206470000Y-134250000D01*
D34*
X221590000Y-142000000D02*
X218160000Y-142000000D01*
X222160000Y-135390000D02*
X222160000Y-135060000D01*
X221600000Y-142010000D02*
X221590000Y-142000000D01*
X216310000Y-130580000D02*
X216170000Y-130440000D01*
D33*
X216220000Y-131370000D02*
X216310000Y-131460000D01*
D34*
X217220800Y-140430800D02*
X216760000Y-139970000D01*
D33*
X215730000Y-131370000D02*
X216220000Y-131370000D01*
X215809998Y-144330000D02*
X218890000Y-144330000D01*
D32*
X208480000Y-134830000D02*
X207900000Y-134250000D01*
D33*
X217000000Y-131350000D02*
X216890000Y-131460000D01*
D34*
X217700600Y-141980600D02*
X217220800Y-141500800D01*
X218160000Y-142000000D02*
X218140600Y-141980600D01*
X217220800Y-140868400D02*
X217220800Y-140430800D01*
X216310000Y-131460000D02*
X216310000Y-130580000D01*
X217220800Y-141500800D02*
X217220800Y-140868400D01*
D36*
%TO.N,PPVAR_SYS*%
X201945200Y-139293600D02*
X201945200Y-139994600D01*
D32*
X202980000Y-138540000D02*
X202980000Y-139295000D01*
X202980000Y-139295000D02*
X202985000Y-139300000D01*
X203380000Y-138150000D02*
X203370000Y-138150000D01*
X203370000Y-138150000D02*
X202980000Y-138540000D01*
D36*
X202985000Y-139300000D02*
X201951600Y-139300000D01*
X201951600Y-139300000D02*
X201945200Y-139293600D01*
X201945200Y-139994600D02*
X202082400Y-140131800D01*
D34*
%TO.N,PPVAR_BAT*%
X196342000Y-146888200D02*
X204641800Y-146888200D01*
X195376800Y-142240000D02*
X195376800Y-145923000D01*
X204641800Y-146888200D02*
X204650000Y-146880000D01*
X196106800Y-141510000D02*
X195376800Y-142240000D01*
X195376800Y-145923000D02*
X196342000Y-146888200D01*
X197281800Y-141510000D02*
X196106800Y-141510000D01*
D36*
%TO.N,PP3300_DBG*%
X203920000Y-140250000D02*
X203955000Y-140215000D01*
X203955000Y-140215000D02*
X203955000Y-139300000D01*
X203920000Y-140250000D02*
X204060000Y-140110000D01*
X204060000Y-140110000D02*
X204860000Y-140110000D01*
D32*
%TO.N,RESETB*%
X209010000Y-142110000D02*
X209600000Y-142700000D01*
X214833600Y-141630000D02*
X216660000Y-141630000D01*
X213763600Y-142700000D02*
X214833600Y-141630000D01*
X209600000Y-142700000D02*
X213763600Y-142700000D01*
D33*
%TO.N,PP3300_VDDUSB*%
X212250000Y-134740000D02*
X212290000Y-134780000D01*
X212250000Y-134180000D02*
X212250000Y-134740000D01*
X212290000Y-134780000D02*
X212240000Y-134780000D01*
D34*
X209340000Y-132290000D02*
X209340000Y-133870000D01*
X209340000Y-133870000D02*
X209030000Y-134180000D01*
D32*
%TO.N,PPVAR_VIN*%
X201060000Y-139538800D02*
X201305200Y-139293600D01*
X201060000Y-142840000D02*
X201060000Y-139538800D01*
D33*
%TO.N,VIN_SNS_ADC1_IN9*%
X216402800Y-142550000D02*
X215696800Y-143256000D01*
X222100000Y-139090000D02*
X222100000Y-142190000D01*
X206510000Y-140230000D02*
X207040000Y-139700000D01*
X207040000Y-139110000D02*
X205389800Y-137459800D01*
X209416000Y-143256000D02*
X208925000Y-142765000D01*
X221740000Y-142550000D02*
X216402800Y-142550000D01*
X202971700Y-137470000D02*
X203708300Y-137470000D01*
X208925000Y-142765000D02*
X207195000Y-142765000D01*
X206510000Y-142080000D02*
X206510000Y-140230000D01*
X207040000Y-139700000D02*
X207040000Y-139110000D01*
X215696800Y-143256000D02*
X209416000Y-143256000D01*
X222100000Y-142190000D02*
X221740000Y-142550000D01*
X207195000Y-142765000D02*
X206510000Y-142080000D01*
X205389800Y-137459800D02*
X204429700Y-137459800D01*
X203718500Y-137459800D02*
X204429700Y-137459800D01*
D32*
%TO.N,VBUS*%
X204165200Y-130470000D02*
X204165200Y-129474800D01*
X204165200Y-129474800D02*
X204180000Y-129460000D01*
%TO.N,Net-(U4-~{CE})*%
X201060000Y-143846600D02*
X200837800Y-144068800D01*
X201060000Y-143480000D02*
X201060000Y-143846600D01*
X201070000Y-143470000D02*
X201060000Y-143480000D01*
X201770000Y-143470000D02*
X201070000Y-143470000D01*
%TO.N,BAT_CHRG_FACTORY*%
X209990000Y-144950000D02*
X209820000Y-145120000D01*
X209310000Y-145120000D02*
X208750000Y-145680000D01*
X209820000Y-145120000D02*
X209310000Y-145120000D01*
X208750000Y-145680000D02*
X206908400Y-145680000D01*
X209990000Y-144530000D02*
X209990000Y-144950000D01*
D33*
%TO.N,Net-(U5-VINSW)*%
X202331700Y-137470000D02*
X202331700Y-137111700D01*
X202331700Y-137111700D02*
X202120000Y-136900000D01*
D32*
%TO.N,VIN_SNS_EN*%
X205530000Y-137010000D02*
X205530000Y-136550000D01*
X204930000Y-135950000D02*
X201850000Y-135950000D01*
X205530000Y-136550000D02*
X204930000Y-135950000D01*
X210520000Y-139150000D02*
X210340000Y-138970000D01*
X207490000Y-138970000D02*
X205530000Y-137010000D01*
X210340000Y-138970000D02*
X207490000Y-138970000D01*
X201850000Y-135950000D02*
X201170000Y-136630000D01*
%TO.N,FLT_CHG_L*%
X206300000Y-139370000D02*
X205590000Y-140080000D01*
X205590000Y-142145489D02*
X205080810Y-142654679D01*
X207480000Y-137190000D02*
X208480000Y-137190000D01*
X206530000Y-139370000D02*
X206300000Y-139370000D01*
X208480000Y-137190000D02*
X208960000Y-137670000D01*
X206960000Y-136670000D02*
X207480000Y-137190000D01*
X205590000Y-140080000D02*
X205590000Y-142145489D01*
X208960000Y-137670000D02*
X212090000Y-137670000D01*
D34*
%TO.N,/POWER/CHGR_BAT_THERM*%
X199288400Y-145516600D02*
X197281800Y-143510000D01*
X203274512Y-145516600D02*
X199288400Y-145516600D01*
X203610556Y-145180556D02*
X203274512Y-145516600D01*
D32*
%TO.N,Net-(U8-EN)*%
X204165200Y-132153600D02*
X204165200Y-131110000D01*
X204020000Y-132800000D02*
X204020000Y-132040000D01*
X204231600Y-132220000D02*
X204165200Y-132153600D01*
X204910000Y-132220000D02*
X204231600Y-132220000D01*
X204020000Y-132040000D02*
X204090000Y-131970000D01*
%TO.N,STM_LPUART_TXD_PA2*%
X220210000Y-132780000D02*
X220210000Y-131370000D01*
X224400000Y-137240000D02*
X224400000Y-136900000D01*
X224400000Y-136900000D02*
X223930000Y-136430000D01*
X220370000Y-135900000D02*
X220370000Y-132940000D01*
X222550000Y-139090000D02*
X224400000Y-137240000D01*
X220900000Y-136430000D02*
X220370000Y-135900000D01*
X222550000Y-140270000D02*
X222550000Y-139090000D01*
X223930000Y-136430000D02*
X220900000Y-136430000D01*
X220370000Y-132940000D02*
X220210000Y-132780000D01*
%TO.N,STM_WKUP2_PC13*%
X210936400Y-141833600D02*
X210590000Y-142180000D01*
X213916400Y-141833600D02*
X211632800Y-141833600D01*
X214172800Y-141579600D02*
X214170400Y-141579600D01*
X214170400Y-141579600D02*
X213916400Y-141833600D01*
X211632800Y-141833600D02*
X210936400Y-141833600D01*
%TO.N,STM_LPUART_RXD_PB10*%
X221010000Y-136020000D02*
X220840000Y-135850000D01*
X220840000Y-135850000D02*
X220840000Y-131430000D01*
X223270000Y-136020000D02*
X221010000Y-136020000D01*
X220840000Y-131430000D02*
X220820000Y-131410000D01*
%TO.N,STM_SAI1_SD_A*%
X220600000Y-136840000D02*
X220000000Y-136240000D01*
X220000000Y-136240000D02*
X220000000Y-133280000D01*
X220000000Y-133280000D02*
X219600000Y-132880000D01*
X219600000Y-132880000D02*
X213920000Y-132880000D01*
X223010000Y-136840000D02*
X220600000Y-136840000D01*
X213920000Y-132880000D02*
X213450000Y-132410000D01*
D34*
%TO.N,Net-(D1-K)*%
X204560000Y-145520000D02*
X204560000Y-145460000D01*
X203980000Y-146100000D02*
X204560000Y-145520000D01*
D33*
%TO.N,/POWER/CHG_LED_GRN*%
X200355200Y-144399000D02*
X200355200Y-143510000D01*
X201089400Y-145133200D02*
X200355200Y-144399000D01*
X202876800Y-145133200D02*
X201089400Y-145133200D01*
X203470000Y-144540000D02*
X202876800Y-145133200D01*
X204560000Y-144820000D02*
X204280000Y-144540000D01*
X204280000Y-144540000D02*
X203470000Y-144540000D01*
D32*
%TO.N,Net-(U5-VOS)*%
X201690000Y-137809000D02*
X201828400Y-137947400D01*
X201690000Y-136610000D02*
X201690000Y-137809000D01*
X204670000Y-136290000D02*
X202010000Y-136290000D01*
X205090000Y-136710000D02*
X204670000Y-136290000D01*
X202010000Y-136290000D02*
X201690000Y-136610000D01*
%TO.N,QSPI_MEM_D1*%
X223340000Y-142690000D02*
X223400000Y-142630000D01*
X220410000Y-143220000D02*
X220410000Y-143470000D01*
X222970000Y-142360000D02*
X222970000Y-142620000D01*
X223400000Y-141530000D02*
X223490000Y-141440000D01*
X223400000Y-142630000D02*
X223400000Y-141530000D01*
X222900000Y-142290000D02*
X222970000Y-142360000D01*
X223040000Y-142690000D02*
X223340000Y-142690000D01*
X222650000Y-142290000D02*
X222900000Y-142290000D01*
X221890000Y-143440000D02*
X222015000Y-143315000D01*
X222970000Y-142620000D02*
X223040000Y-142690000D01*
X216712800Y-143052800D02*
X216715600Y-143050000D01*
X222015000Y-142925000D02*
X222650000Y-142290000D01*
X221440000Y-143440000D02*
X221890000Y-143440000D01*
X220760000Y-143820000D02*
X221060000Y-143820000D01*
X216715600Y-143050000D02*
X220240000Y-143050000D01*
X222015000Y-143315000D02*
X222015000Y-142925000D01*
X221060000Y-143820000D02*
X221440000Y-143440000D01*
X220240000Y-143050000D02*
X220410000Y-143220000D01*
X223490000Y-141440000D02*
X223880000Y-141440000D01*
X220410000Y-143470000D02*
X220760000Y-143820000D01*
%TO.N,QSPI_MEM_D3*%
X224830000Y-144480000D02*
X225730000Y-143580000D01*
X225730000Y-143580000D02*
X225730000Y-140910000D01*
X225730000Y-140910000D02*
X223540000Y-138720000D01*
X223230000Y-144480000D02*
X224830000Y-144480000D01*
X222990000Y-143570000D02*
X222990000Y-144240000D01*
X222990000Y-144240000D02*
X223230000Y-144480000D01*
%TO.N,QSPI_MEM_D0*%
X222690000Y-143080000D02*
X225000000Y-143080000D01*
X222350000Y-144390000D02*
X222430000Y-144310000D01*
X222430000Y-144310000D02*
X222430000Y-143340000D01*
X222430000Y-143340000D02*
X222690000Y-143080000D01*
X220600000Y-144390000D02*
X222350000Y-144390000D01*
X217373200Y-143610000D02*
X219820000Y-143610000D01*
X219820000Y-143610000D02*
X220600000Y-144390000D01*
%TO.N,QSPI_MEM_CLK*%
X225230000Y-141910000D02*
X224050000Y-141910000D01*
X223600041Y-139557284D02*
X224150000Y-140107244D01*
X224150000Y-140920000D02*
X224230000Y-141000000D01*
X225150000Y-141000000D02*
X225310000Y-141160000D01*
X225230000Y-142570000D02*
X225420000Y-142760000D01*
X225310000Y-141160000D02*
X225310000Y-141830000D01*
X223870000Y-142410000D02*
X224030000Y-142570000D01*
X224230000Y-141000000D02*
X225150000Y-141000000D01*
X224030000Y-142570000D02*
X225230000Y-142570000D01*
X225310000Y-141830000D02*
X225230000Y-141910000D01*
X224050000Y-141910000D02*
X223870000Y-142090000D01*
X224150000Y-144040000D02*
X223800000Y-143690000D01*
X224780000Y-144040000D02*
X224150000Y-144040000D01*
X223561772Y-139557284D02*
X223600041Y-139557284D01*
X225420000Y-143400000D02*
X224780000Y-144040000D01*
X224150000Y-140107244D02*
X224150000Y-140920000D01*
X223870000Y-142090000D02*
X223870000Y-142410000D01*
X225420000Y-142760000D02*
X225420000Y-143400000D01*
%TO.N,PPVAR_ADC*%
X219120000Y-140850000D02*
X219100000Y-140870000D01*
D34*
X219810000Y-140850000D02*
X219120000Y-140850000D01*
X219810000Y-140150000D02*
X219810000Y-140850000D01*
X219810000Y-141530000D02*
X219810000Y-140850000D01*
D32*
%TO.N,GPIO_PC10*%
X210750000Y-131890000D02*
X210750000Y-135480000D01*
X210750000Y-135480000D02*
X211120000Y-135850000D01*
X212086000Y-128894000D02*
X212090000Y-128894000D01*
%TO.N,GPIO_PA15*%
X211230000Y-135140000D02*
X211220000Y-135130000D01*
X213360000Y-128900000D02*
X213360000Y-128894000D01*
X211220000Y-135130000D02*
X211220000Y-132280000D01*
%TO.N,GPIO_PC11*%
X210400000Y-136060000D02*
X210880000Y-136540000D01*
X210880000Y-136540000D02*
X211470000Y-136540000D01*
X210150000Y-132270000D02*
X210400000Y-132520000D01*
X210400000Y-132520000D02*
X210400000Y-136060000D01*
D33*
%TO.N,Net-(D4-K)*%
X205890000Y-144970000D02*
X205890000Y-145650000D01*
X205890000Y-145650000D02*
X206340000Y-146100000D01*
%TO.N,Net-(Q1-D)*%
X206790000Y-144330000D02*
X206800000Y-144320000D01*
X205890000Y-144330000D02*
X206790000Y-144330000D01*
D32*
%TO.N,/BLE_MCU/BT_CONN_LED*%
X208270000Y-144000000D02*
X208090000Y-143820000D01*
X209610000Y-144000000D02*
X208270000Y-144000000D01*
X209620000Y-144010000D02*
X209610000Y-144000000D01*
%TO.N,Net-(J5-CC2)*%
X197295996Y-134686000D02*
X197330000Y-134720004D01*
X196596000Y-134686000D02*
X197295996Y-134686000D01*
%TO.N,Net-(J5-CC1)*%
X196626000Y-131730000D02*
X196596000Y-131760000D01*
X197360000Y-131730000D02*
X196626000Y-131730000D01*
%TD*%
%TA.AperFunction,Conductor*%
%TO.N,PPVAR_VIN*%
G36*
X201511910Y-137431057D02*
G01*
X201519007Y-137448000D01*
X201519007Y-137448087D01*
X201519112Y-137767786D01*
X201516496Y-137778689D01*
X201487049Y-137836483D01*
X201469481Y-137947400D01*
X201487048Y-138058314D01*
X201516613Y-138116338D01*
X201519229Y-138127226D01*
X201519266Y-138239445D01*
X201512242Y-138256418D01*
X201439626Y-138329034D01*
X201388648Y-138429085D01*
X201371081Y-138540000D01*
X201388648Y-138650914D01*
X201439625Y-138750963D01*
X201439626Y-138750964D01*
X201439628Y-138750967D01*
X201512434Y-138823773D01*
X201519463Y-138840735D01*
X201519999Y-140479092D01*
X201520000Y-140480000D01*
X201914120Y-140821571D01*
X201934014Y-140838812D01*
X201942235Y-140855239D01*
X201939684Y-140867837D01*
X201939050Y-140869080D01*
X201939048Y-140869088D01*
X201921481Y-140980000D01*
X201939048Y-141090914D01*
X201990025Y-141190963D01*
X201990026Y-141190964D01*
X201990028Y-141190967D01*
X202069433Y-141270372D01*
X202069435Y-141270373D01*
X202069436Y-141270374D01*
X202169485Y-141321351D01*
X202169486Y-141321351D01*
X202169488Y-141321352D01*
X202280400Y-141338919D01*
X202391312Y-141321352D01*
X202491367Y-141270372D01*
X202570772Y-141190967D01*
X202604267Y-141125227D01*
X202618234Y-141113298D01*
X202636546Y-141114739D01*
X202647035Y-141125227D01*
X202669625Y-141169563D01*
X202669626Y-141169564D01*
X202669628Y-141169567D01*
X202749033Y-141248972D01*
X202749035Y-141248973D01*
X202749036Y-141248974D01*
X202849085Y-141299951D01*
X202849086Y-141299951D01*
X202849088Y-141299952D01*
X202960000Y-141317519D01*
X203070912Y-141299952D01*
X203170967Y-141248972D01*
X203250372Y-141169567D01*
X203301352Y-141069512D01*
X203318919Y-140958600D01*
X203310795Y-140907307D01*
X203310500Y-140903553D01*
X203310500Y-140894000D01*
X203317529Y-140877029D01*
X203334500Y-140870000D01*
X204270000Y-140870000D01*
X204422856Y-140701475D01*
X204439464Y-140693628D01*
X204440633Y-140693600D01*
X205121058Y-140693600D01*
X205138029Y-140700629D01*
X205258971Y-140821571D01*
X205266000Y-140838542D01*
X205266000Y-142012812D01*
X205260553Y-142028037D01*
X205040677Y-142295980D01*
X205025879Y-142304459D01*
X204969898Y-142313326D01*
X204969897Y-142313326D01*
X204869843Y-142364305D01*
X204829578Y-142404571D01*
X204812608Y-142411600D01*
X200873784Y-142411600D01*
X200856813Y-142404571D01*
X200856063Y-142403786D01*
X200025857Y-141494850D01*
X200019578Y-141478721D01*
X200019085Y-141270374D01*
X200010056Y-137453959D01*
X200017045Y-137436974D01*
X200033959Y-137429904D01*
X201494913Y-137424095D01*
X201511910Y-137431057D01*
G37*
%TD.AperFunction*%
%TD*%
%TA.AperFunction,Conductor*%
%TO.N,PP1800_ALW*%
G36*
X208890000Y-131650000D02*
G01*
X208890000Y-131610000D01*
X208930000Y-131610000D01*
X208890000Y-131650000D01*
G37*
%TD.AperFunction*%
%TA.AperFunction,Conductor*%
G36*
X208765648Y-128408352D02*
G01*
X208780000Y-128443000D01*
X208780000Y-129644000D01*
X208804624Y-129644000D01*
X208804627Y-129643999D01*
X208831440Y-129638666D01*
X208868222Y-129645982D01*
X208889058Y-129677164D01*
X208890000Y-129686724D01*
X208890000Y-131610000D01*
X208571339Y-131610000D01*
X208560967Y-131599628D01*
X208560965Y-131599627D01*
X208560961Y-131599624D01*
X208460915Y-131548649D01*
X208460913Y-131548648D01*
X208460912Y-131548648D01*
X208350000Y-131531081D01*
X208239088Y-131548648D01*
X208239086Y-131548648D01*
X208239084Y-131548649D01*
X208139038Y-131599624D01*
X208139031Y-131599629D01*
X208128660Y-131610000D01*
X207740000Y-131610000D01*
X207690000Y-131560000D01*
X207690000Y-129690702D01*
X207704352Y-129656054D01*
X207739000Y-129641702D01*
X207748562Y-129642644D01*
X207755377Y-129644000D01*
X207780000Y-129644000D01*
X207780000Y-128936787D01*
X207955000Y-128936787D01*
X207977149Y-129019445D01*
X208019936Y-129093554D01*
X208080446Y-129154064D01*
X208154555Y-129196851D01*
X208237213Y-129219000D01*
X208322787Y-129219000D01*
X208405445Y-129196851D01*
X208479554Y-129154064D01*
X208540064Y-129093554D01*
X208582851Y-129019445D01*
X208605000Y-128936787D01*
X208605000Y-128851213D01*
X208582851Y-128768555D01*
X208540064Y-128694446D01*
X208479554Y-128633936D01*
X208405445Y-128591149D01*
X208322787Y-128569000D01*
X208237213Y-128569000D01*
X208154555Y-128591149D01*
X208080446Y-128633936D01*
X208019936Y-128694446D01*
X207977149Y-128768555D01*
X207955000Y-128851213D01*
X207955000Y-128936787D01*
X207780000Y-128936787D01*
X207780000Y-128443000D01*
X207794352Y-128408352D01*
X207829000Y-128394000D01*
X208731000Y-128394000D01*
X208765648Y-128408352D01*
G37*
%TD.AperFunction*%
%TD*%
%TA.AperFunction,Conductor*%
%TO.N,PP1800_ALW*%
G36*
X212599628Y-132550967D02*
G01*
X212679033Y-132630372D01*
X212708555Y-132645414D01*
X212779087Y-132681352D01*
X212794252Y-132683753D01*
X212890000Y-132698919D01*
X213000912Y-132681352D01*
X213098154Y-132631804D01*
X213154616Y-132627362D01*
X213184075Y-132645414D01*
X213239033Y-132700372D01*
X213288107Y-132725376D01*
X213339087Y-132751352D01*
X213359959Y-132754657D01*
X213450000Y-132768919D01*
X213476602Y-132764705D01*
X213531673Y-132777926D01*
X213540504Y-132785468D01*
X213744955Y-132989919D01*
X213744958Y-132989923D01*
X213749176Y-132994141D01*
X213805859Y-133050824D01*
X213879919Y-133081500D01*
X213879922Y-133081500D01*
X213887068Y-133082922D01*
X213886486Y-133085843D01*
X213928326Y-133103174D01*
X213950000Y-133155500D01*
X213950000Y-139242800D01*
X213461600Y-139242800D01*
X213391200Y-139313200D01*
X213391200Y-139551266D01*
X213307521Y-139588213D01*
X213228213Y-139667521D01*
X213182910Y-139770124D01*
X213180000Y-139795210D01*
X213180000Y-139870000D01*
X213391200Y-139870000D01*
X213391200Y-140070000D01*
X213180001Y-140070000D01*
X213180001Y-140144785D01*
X213182632Y-140167477D01*
X213167128Y-140221951D01*
X213117647Y-140249508D01*
X213109124Y-140250000D01*
X212783201Y-140250000D01*
X212730875Y-140228326D01*
X212709201Y-140176000D01*
X212715506Y-140146110D01*
X212727089Y-140119875D01*
X212730000Y-140094789D01*
X212730000Y-140020000D01*
X212304000Y-140020000D01*
X212251674Y-139998326D01*
X212230000Y-139946000D01*
X212230000Y-139490000D01*
X212430000Y-139490000D01*
X212430000Y-139820000D01*
X212729999Y-139820000D01*
X212729999Y-139745207D01*
X212727091Y-139720131D01*
X212727089Y-139720125D01*
X212681786Y-139617521D01*
X212602478Y-139538213D01*
X212499875Y-139492910D01*
X212499876Y-139492910D01*
X212474789Y-139490000D01*
X212430000Y-139490000D01*
X212230000Y-139490000D01*
X212229999Y-139489999D01*
X212185208Y-139490000D01*
X212160131Y-139492908D01*
X212160123Y-139492911D01*
X212103889Y-139517740D01*
X212047267Y-139519048D01*
X212006305Y-139479934D01*
X212000000Y-139450045D01*
X212000000Y-138720652D01*
X212021674Y-138668326D01*
X212650000Y-138040000D01*
X212650000Y-134050000D01*
X212340000Y-133740000D01*
X211580652Y-133740000D01*
X211528326Y-133718326D01*
X211443174Y-133633174D01*
X211421500Y-133580848D01*
X211421500Y-132610491D01*
X211443174Y-132558165D01*
X211461339Y-132540000D01*
X212594040Y-132540000D01*
X212599628Y-132550967D01*
G37*
%TD.AperFunction*%
%TD*%
%TA.AperFunction,Conductor*%
%TO.N,PPVAR_ADC*%
G36*
X219358326Y-139975674D02*
G01*
X219380000Y-140028000D01*
X219380000Y-140050000D01*
X219836000Y-140050000D01*
X219888326Y-140071674D01*
X219910000Y-140124000D01*
X219910000Y-141249999D01*
X219940800Y-141249999D01*
X219993126Y-141271673D01*
X220014800Y-141323999D01*
X220014800Y-141650548D01*
X219993126Y-141702874D01*
X219985674Y-141710326D01*
X219933348Y-141732000D01*
X218423991Y-141732000D01*
X218371665Y-141710326D01*
X218351566Y-141690227D01*
X218346857Y-141686806D01*
X218347063Y-141686521D01*
X218334841Y-141677641D01*
X218156874Y-141499674D01*
X218135200Y-141447348D01*
X218135200Y-141424651D01*
X218140800Y-141411131D01*
X218140800Y-140968400D01*
X218340800Y-140968400D01*
X218340800Y-141388399D01*
X218415054Y-141388399D01*
X218463840Y-141381977D01*
X218463842Y-141381976D01*
X218570911Y-141332048D01*
X218570912Y-141332048D01*
X218654448Y-141248512D01*
X218704377Y-141141440D01*
X218710800Y-141092653D01*
X218710800Y-140968400D01*
X218340800Y-140968400D01*
X218140800Y-140968400D01*
X218140800Y-140950000D01*
X219380001Y-140950000D01*
X219380001Y-140994792D01*
X219382908Y-141019868D01*
X219382910Y-141019874D01*
X219428213Y-141122478D01*
X219507521Y-141201786D01*
X219610124Y-141247089D01*
X219610123Y-141247089D01*
X219635210Y-141249999D01*
X219710000Y-141249999D01*
X219710000Y-140950000D01*
X219380001Y-140950000D01*
X218140800Y-140950000D01*
X218140800Y-140348400D01*
X218340800Y-140348400D01*
X218340800Y-140768400D01*
X218710799Y-140768400D01*
X218710799Y-140750000D01*
X219380000Y-140750000D01*
X219710000Y-140750000D01*
X219710000Y-140250000D01*
X219380001Y-140250000D01*
X219380001Y-140294792D01*
X219382908Y-140319868D01*
X219382910Y-140319874D01*
X219428213Y-140422478D01*
X219453409Y-140447674D01*
X219475083Y-140500000D01*
X219453409Y-140552326D01*
X219428213Y-140577521D01*
X219382910Y-140680124D01*
X219380000Y-140705210D01*
X219380000Y-140750000D01*
X218710799Y-140750000D01*
X218710799Y-140644146D01*
X218704377Y-140595359D01*
X218704376Y-140595357D01*
X218654448Y-140488288D01*
X218654448Y-140488287D01*
X218570912Y-140404751D01*
X218463839Y-140354822D01*
X218463840Y-140354822D01*
X218415053Y-140348400D01*
X218340800Y-140348400D01*
X218140800Y-140348400D01*
X218140800Y-140334652D01*
X218162474Y-140282326D01*
X218469126Y-139975674D01*
X218521452Y-139954000D01*
X219306000Y-139954000D01*
X219358326Y-139975674D01*
G37*
%TD.AperFunction*%
%TD*%
%TA.AperFunction,Conductor*%
%TO.N,PP1800_ALW*%
G36*
X209180000Y-130950000D02*
G01*
X209180000Y-131590000D01*
X209538634Y-131948634D01*
X209475460Y-131955427D01*
X209459154Y-131951326D01*
X209450910Y-131948647D01*
X209340002Y-131931081D01*
X209339998Y-131931081D01*
X209229090Y-131948646D01*
X209129034Y-131999626D01*
X209049626Y-132079034D01*
X208998646Y-132179090D01*
X208981081Y-132289997D01*
X208981081Y-132290002D01*
X208998646Y-132400909D01*
X209049626Y-132500965D01*
X209103181Y-132554520D01*
X209136666Y-132615843D01*
X209139500Y-132642201D01*
X209139500Y-132669138D01*
X209119815Y-132736177D01*
X209103181Y-132756819D01*
X207626319Y-134233681D01*
X207564996Y-134267166D01*
X207538638Y-134270000D01*
X207070000Y-134270000D01*
X206743583Y-134523880D01*
X206678580Y-134549500D01*
X206667454Y-134550000D01*
X206160000Y-134550000D01*
X205634000Y-134550000D01*
X205566961Y-134530315D01*
X205521206Y-134477511D01*
X205510000Y-134426000D01*
X205510000Y-133281362D01*
X205529685Y-133214323D01*
X205546319Y-133193681D01*
X206560910Y-132179090D01*
X207690000Y-131050000D01*
X207690000Y-131560000D01*
X207740000Y-131610000D01*
X208128660Y-131610000D01*
X208059626Y-131679034D01*
X208008646Y-131779090D01*
X207991081Y-131889997D01*
X207991081Y-131890002D01*
X208008646Y-132000909D01*
X208059626Y-132100965D01*
X208139034Y-132180373D01*
X208239090Y-132231353D01*
X208349998Y-132248919D01*
X208350000Y-132248919D01*
X208350002Y-132248919D01*
X208460909Y-132231353D01*
X208460910Y-132231352D01*
X208460912Y-132231352D01*
X208560967Y-132180372D01*
X208640372Y-132100967D01*
X208691352Y-132000912D01*
X208691352Y-132000910D01*
X208691353Y-132000909D01*
X208708919Y-131890002D01*
X208708919Y-131889997D01*
X208691353Y-131779090D01*
X208640373Y-131679034D01*
X208571339Y-131610000D01*
X208890000Y-131610000D01*
X208890000Y-131650000D01*
X208930000Y-131610000D01*
X208890000Y-131610000D01*
X208890000Y-130530000D01*
X209480000Y-130530000D01*
X209180000Y-130950000D01*
G37*
%TD.AperFunction*%
%TD*%
%TA.AperFunction,Conductor*%
%TO.N,PP1800_ALW*%
G36*
X216785274Y-139264474D02*
G01*
X217300726Y-139779926D01*
X217322400Y-139832252D01*
X217322400Y-140316148D01*
X217320800Y-140320010D01*
X217320800Y-140894400D01*
X217299126Y-140946726D01*
X217246800Y-140968400D01*
X216722412Y-140968400D01*
X216718549Y-140970000D01*
X216591052Y-140970000D01*
X216538726Y-140948326D01*
X216531274Y-140940874D01*
X216509600Y-140888548D01*
X216509600Y-140768400D01*
X216750800Y-140768400D01*
X217120800Y-140768400D01*
X217120800Y-140348400D01*
X217046546Y-140348400D01*
X216997759Y-140354822D01*
X216997757Y-140354823D01*
X216890688Y-140404751D01*
X216890687Y-140404751D01*
X216807151Y-140488287D01*
X216757222Y-140595359D01*
X216750800Y-140644146D01*
X216750800Y-140768400D01*
X216509600Y-140768400D01*
X216509600Y-140512800D01*
X216486694Y-140488287D01*
X216310000Y-140299200D01*
X216309999Y-140299200D01*
X214033554Y-140299200D01*
X213981228Y-140277526D01*
X213959554Y-140225200D01*
X213965859Y-140195310D01*
X213977089Y-140169875D01*
X213980000Y-140144789D01*
X213980000Y-140070000D01*
X213554000Y-140070000D01*
X213501674Y-140048326D01*
X213480000Y-139996000D01*
X213480000Y-139540000D01*
X213680000Y-139540000D01*
X213680000Y-139870000D01*
X213979999Y-139870000D01*
X213979999Y-139795207D01*
X213977091Y-139770131D01*
X213977089Y-139770125D01*
X213931786Y-139667521D01*
X213852478Y-139588213D01*
X213749875Y-139542910D01*
X213749876Y-139542910D01*
X213724789Y-139540000D01*
X213680000Y-139540000D01*
X213480000Y-139540000D01*
X213479999Y-139539999D01*
X213435208Y-139540000D01*
X213410131Y-139542908D01*
X213410122Y-139542911D01*
X213391200Y-139551265D01*
X213391200Y-139313200D01*
X213461600Y-139242800D01*
X213950000Y-139242800D01*
X216732948Y-139242800D01*
X216785274Y-139264474D01*
G37*
%TD.AperFunction*%
%TD*%
%TA.AperFunction,Conductor*%
%TO.N,PP1800_ALW*%
G36*
X221811674Y-129841674D02*
G01*
X222428326Y-130458326D01*
X222450000Y-130510652D01*
X222450000Y-131777085D01*
X222428326Y-131829411D01*
X222405890Y-131844780D01*
X222307521Y-131888213D01*
X222228213Y-131967521D01*
X222182910Y-132070124D01*
X222180000Y-132095210D01*
X222180000Y-132140000D01*
X222450000Y-132140000D01*
X222450000Y-132340000D01*
X222180001Y-132340000D01*
X222180001Y-132384792D01*
X222182908Y-132409868D01*
X222182910Y-132409874D01*
X222228213Y-132512478D01*
X222248409Y-132532674D01*
X222270083Y-132585000D01*
X222248409Y-132637326D01*
X222218213Y-132667521D01*
X222172910Y-132770124D01*
X222170000Y-132795210D01*
X222170000Y-132840000D01*
X222450000Y-132840000D01*
X222450000Y-133040000D01*
X222170001Y-133040000D01*
X222170001Y-133084792D01*
X222172908Y-133109868D01*
X222172910Y-133109874D01*
X222220983Y-133218751D01*
X222217743Y-133220181D01*
X222226871Y-133263485D01*
X222206461Y-133302199D01*
X222199628Y-133309032D01*
X222148647Y-133409088D01*
X222140691Y-133459321D01*
X222119929Y-133500069D01*
X222020000Y-133600000D01*
X222020000Y-134440000D01*
X222238326Y-134658326D01*
X222260000Y-134710652D01*
X222260000Y-135390000D01*
X222170000Y-135480000D01*
X221370652Y-135480000D01*
X221318326Y-135458326D01*
X221150000Y-135290000D01*
X221730000Y-135290000D01*
X222060000Y-135290000D01*
X222060000Y-134990000D01*
X221985207Y-134990000D01*
X221960131Y-134992908D01*
X221960125Y-134992910D01*
X221857521Y-135038213D01*
X221778213Y-135117521D01*
X221732910Y-135220124D01*
X221730000Y-135245210D01*
X221730000Y-135290000D01*
X221150000Y-135290000D01*
X221063174Y-135203174D01*
X221041500Y-135150848D01*
X221041500Y-131720491D01*
X221063174Y-131668165D01*
X221084250Y-131647089D01*
X221110372Y-131620967D01*
X221161352Y-131520912D01*
X221178919Y-131410000D01*
X221161352Y-131299088D01*
X221161352Y-131299087D01*
X221110371Y-131199032D01*
X221030967Y-131119628D01*
X220930912Y-131068647D01*
X220820000Y-131051081D01*
X220709087Y-131068647D01*
X220609032Y-131119628D01*
X220587326Y-131141335D01*
X220535000Y-131163009D01*
X220482674Y-131141335D01*
X220420967Y-131079628D01*
X220320912Y-131028647D01*
X220210000Y-131011081D01*
X220099087Y-131028647D01*
X219999032Y-131079628D01*
X219919628Y-131159032D01*
X219868647Y-131259087D01*
X219851081Y-131370000D01*
X219868647Y-131480912D01*
X219919628Y-131580967D01*
X219986826Y-131648165D01*
X220008500Y-131700491D01*
X220008500Y-131740848D01*
X219986826Y-131793174D01*
X219123174Y-132656826D01*
X219070848Y-132678500D01*
X214034116Y-132678500D01*
X213981790Y-132656826D01*
X213825468Y-132500504D01*
X213803794Y-132448178D01*
X213804704Y-132436610D01*
X213808919Y-132410000D01*
X213791352Y-132299088D01*
X213791352Y-132299087D01*
X213765376Y-132248107D01*
X213740372Y-132199033D01*
X213660967Y-132119628D01*
X213658153Y-132118194D01*
X213560912Y-132068647D01*
X213450000Y-132051081D01*
X213339087Y-132068648D01*
X213339085Y-132068648D01*
X213241844Y-132118194D01*
X213185382Y-132122637D01*
X213155924Y-132104585D01*
X213100967Y-132049628D01*
X213000912Y-131998647D01*
X212890000Y-131981081D01*
X212779087Y-131998647D01*
X212679032Y-132049628D01*
X212599628Y-132129032D01*
X212548647Y-132229087D01*
X212531081Y-132340000D01*
X212548647Y-132450912D01*
X212594040Y-132540000D01*
X211461339Y-132540000D01*
X211468665Y-132532674D01*
X211510372Y-132490967D01*
X211561352Y-132390912D01*
X211578919Y-132280000D01*
X211561352Y-132169088D01*
X211561352Y-132169087D01*
X211528486Y-132104585D01*
X211510372Y-132069033D01*
X211430967Y-131989628D01*
X211330912Y-131938647D01*
X211220000Y-131921081D01*
X211189528Y-131925907D01*
X211134455Y-131912685D01*
X211104863Y-131864394D01*
X211091352Y-131779088D01*
X211040372Y-131679033D01*
X210960967Y-131599628D01*
X210860912Y-131548647D01*
X210750000Y-131531081D01*
X210639087Y-131548647D01*
X210539032Y-131599628D01*
X210459628Y-131679032D01*
X210408648Y-131779087D01*
X210391629Y-131886535D01*
X210362035Y-131934826D01*
X210306963Y-131948047D01*
X210284945Y-131940893D01*
X210260912Y-131928648D01*
X210150000Y-131911081D01*
X210039087Y-131928647D01*
X209939032Y-131979628D01*
X209859626Y-132059034D01*
X209859626Y-132059035D01*
X209834783Y-132107792D01*
X209791716Y-132144575D01*
X209735254Y-132140131D01*
X209716523Y-132126523D01*
X209539999Y-131949999D01*
X209180000Y-131590000D01*
X209180000Y-130950000D01*
X209480000Y-130530000D01*
X214092630Y-130530000D01*
X214144956Y-130551674D01*
X214165719Y-130592422D01*
X214168648Y-130610912D01*
X214219628Y-130710967D01*
X214299033Y-130790372D01*
X214348107Y-130815376D01*
X214399087Y-130841352D01*
X214414252Y-130843753D01*
X214510000Y-130858919D01*
X214523514Y-130856778D01*
X214578586Y-130869996D01*
X214581050Y-130871867D01*
X214726043Y-130986862D01*
X214753572Y-131036358D01*
X214752638Y-131059276D01*
X214739500Y-131125326D01*
X214739500Y-131374674D01*
X214754034Y-131447740D01*
X214809399Y-131530601D01*
X214892260Y-131585966D01*
X214965326Y-131600500D01*
X214965328Y-131600500D01*
X215274672Y-131600500D01*
X215274674Y-131600500D01*
X215347740Y-131585966D01*
X215353566Y-131582072D01*
X215409114Y-131571020D01*
X215447008Y-131591273D01*
X215457521Y-131601786D01*
X215560124Y-131647089D01*
X215560123Y-131647089D01*
X215585210Y-131649999D01*
X215660000Y-131649999D01*
X215660000Y-131350000D01*
X215860000Y-131350000D01*
X215860000Y-131649999D01*
X215934792Y-131649999D01*
X215959868Y-131647091D01*
X215959874Y-131647089D01*
X216062478Y-131601786D01*
X216141786Y-131522478D01*
X216187089Y-131419875D01*
X216190000Y-131394789D01*
X216190000Y-131350000D01*
X215860000Y-131350000D01*
X215660000Y-131350000D01*
X215660000Y-131224000D01*
X215681674Y-131171674D01*
X215734000Y-131150000D01*
X216189999Y-131150000D01*
X216189999Y-131105207D01*
X216186449Y-131074594D01*
X216189155Y-131074280D01*
X216195169Y-131027241D01*
X216239972Y-130992594D01*
X216259393Y-130990000D01*
X216700513Y-130990000D01*
X216730403Y-130996305D01*
X216800124Y-131027089D01*
X216800123Y-131027089D01*
X216825210Y-131029999D01*
X216900000Y-131029999D01*
X216900000Y-130990000D01*
X217100000Y-130990000D01*
X217100000Y-131029999D01*
X217174792Y-131029999D01*
X217199868Y-131027091D01*
X217199876Y-131027088D01*
X217269598Y-130996305D01*
X217299487Y-130990000D01*
X218010001Y-130990000D01*
X218023409Y-130984545D01*
X218025072Y-130988634D01*
X218054476Y-130976875D01*
X218076440Y-130980491D01*
X218079082Y-130981349D01*
X218079088Y-130981352D01*
X218190000Y-130998919D01*
X218300912Y-130981352D01*
X218400967Y-130930372D01*
X218480372Y-130850967D01*
X218531352Y-130750912D01*
X218548919Y-130640000D01*
X218531352Y-130529088D01*
X218531351Y-130529086D01*
X218530838Y-130525847D01*
X218544059Y-130470774D01*
X218552253Y-130461303D01*
X219188445Y-129841015D01*
X219240104Y-129820000D01*
X221759348Y-129820000D01*
X221811674Y-129841674D01*
G37*
%TD.AperFunction*%
%TD*%
%TA.AperFunction,Conductor*%
%TO.N,VBUS*%
G36*
X200248667Y-130772666D02*
G01*
X201137869Y-131463192D01*
X201146961Y-131479153D01*
X201147149Y-131482110D01*
X201154446Y-136059962D01*
X201147444Y-136076943D01*
X201130484Y-136084000D01*
X199333400Y-136084000D01*
X199316429Y-136076971D01*
X199309400Y-136060000D01*
X199309400Y-130793388D01*
X199316429Y-130776417D01*
X199333352Y-130769388D01*
X200233901Y-130767623D01*
X200248667Y-130772666D01*
G37*
%TD.AperFunction*%
%TD*%
D37*
X192024000Y-147574000D02*
G75*
G02*
X191389000Y-146939000I0J635000D01*
G01*
X237236000Y-146812009D02*
G75*
G02*
X236473993Y-147574000I-762000J9D01*
G01*
X237236000Y-146812000D02*
X237236000Y-133399000D01*
X228965000Y-128016000D02*
G75*
G02*
X229600000Y-128651000I0J-635000D01*
G01*
X191389000Y-128651000D02*
G75*
G02*
X192024000Y-128016000I635000J0D01*
G01*
X191389000Y-128651000D02*
X191389000Y-146939000D01*
X236601000Y-132764000D02*
G75*
G02*
X237236000Y-133399000I0J-635000D01*
G01*
X230235000Y-132764000D02*
G75*
G02*
X229600000Y-132129000I0J635000D01*
G01*
X229600000Y-132129000D02*
X229600000Y-128651000D01*
X236601000Y-132764000D02*
X230235000Y-132764000D01*
X192024000Y-147574000D02*
X236473993Y-147574000D01*
X192024000Y-128016000D02*
X228965000Y-128016000D01*
M02*
