M48
; DRILL file {KiCad 8.0.1} date 2024-04-17T19:21:21-0700
; FORMAT={3:3/ absolute / metric / suppress leading zeros}
; #@! TF.CreationDate,2024-04-17T19:21:21-07:00
; #@! TF.GenerationSoftware,Kicad,Pcbnew,8.0.1
; #@! TF.FileFunction,MixedPlating,1,4
FMAT,2
METRIC,TZ
; #@! TA.AperFunction,Plated,PTH,ComponentDrill
T1C0.200
; #@! TA.AperFunction,Plated,PTH,ViaDrill
T2C0.300
; #@! TA.AperFunction,Plated,PTH,ComponentDrill
T3C0.300
; #@! TA.AperFunction,Plated,PTH,ComponentDrill
T4C0.600
; #@! TA.AperFunction,Plated,PTH,ComponentDrill
T5C0.650
; #@! TA.AperFunction,Plated,PTH,ComponentDrill
T6C0.750
; #@! TA.AperFunction,NonPlated,NPTH,ComponentDrill
T7C0.600
; #@! TA.AperFunction,NonPlated,NPTH,ComponentDrill
T8C0.991
%
G90
G05
T1
X202715Y-143010
X202715Y-144010
T2
X196590Y-133190
X197190Y-131730
X197190Y-134710
X198690Y-139690
X199140Y-139140
X199366Y-130377
X199400Y-144740
X199400Y-146870
X199415Y-136576
X199450Y-131200
X199560Y-139680
X199710Y-135850
X199960Y-146130
X200130Y-131180
X200330Y-137690
X200390Y-135840
X200430Y-143490
X200850Y-144290
X200990Y-133030
X201010Y-136560
X201094Y-137721
X201560Y-137030
X201630Y-146640
X201650Y-144780
X201770Y-138130
X201790Y-145590
X202186Y-146934
X202210Y-132370
X202280Y-141050
X202365Y-137015
X202565Y-134110
X202740Y-140270
X202770Y-139690
X202909Y-131253
X203030Y-135310
X203040Y-145530
X203086Y-141084
X203380Y-138150
X203530Y-129550
X203880Y-136700
X204110Y-134110
X204290Y-135160
X204330Y-146320
X204750Y-142740
X204860Y-141850
X205010Y-134680
X205030Y-132210
X205055Y-146315
X205480Y-141840
X205900Y-134240
X205940Y-143560
X205960Y-144240
X206470Y-134250
X206600Y-138390
X206690Y-139130
X206820Y-136030
X206960Y-136790
X207040Y-140360
X207080Y-145730
X207420Y-145080
X207600Y-132180
X209340Y-132290
X209550Y-129990
X209550Y-145550
X209720Y-134180
X209720Y-143020
X209942Y-136563
X210110Y-142010
X210160Y-132460
X210300Y-144030
X210540Y-138490
X210650Y-144850
X210740Y-131980
X210840Y-137260
X210900Y-136220
X211240Y-135030
X211290Y-132285
X211450Y-138380
X211675Y-135515
X211740Y-136790
X211750Y-140460
X212250Y-134180
X212320Y-139310
X213010Y-140020
X213140Y-131780
X213430Y-132350
X214000Y-141200
X214510Y-130500
X214590Y-144000
X215510Y-134509
X215510Y-136109
X215510Y-137735
X215650Y-143240
X215860Y-143960
X216310Y-131460
X216520Y-143700
X216650Y-142380
X216890Y-131460
X217110Y-134509
X217110Y-136109
X217110Y-137735
X217770Y-142000
X218190Y-130640
X218710Y-134509
X218710Y-136109
X218710Y-137735
X219100Y-140870
X219810Y-141530
X220220Y-131310
X220822Y-131513
X221310Y-139910
X221590Y-141910
X221620Y-143920
X221890Y-140320
X221950Y-134790
X221960Y-132710
X222040Y-139130
X222250Y-145560
X222580Y-134800
X222930Y-136901
X222945Y-143615
X223007Y-139180
X223070Y-139820
X223310Y-135960
X223330Y-135100
X223410Y-144100
X223540Y-138720
X223690Y-136940
X223700Y-140830
X223730Y-133200
X223800Y-143580
X223880Y-133800
X223880Y-141440
X224000Y-135660
X224390Y-134220
X224500Y-143570
X224740Y-136270
X224890Y-141420
X225000Y-143080
X225060Y-133650
X225140Y-130500
X225140Y-134430
X225320Y-135770
X225860Y-134440
X226000Y-133630
X226060Y-131445
X226060Y-132715
X226080Y-135790
X226620Y-134430
X226700Y-136270
X227000Y-130870
X227000Y-132140
X227010Y-138395
X227010Y-139657
X227010Y-140918
X227010Y-142180
X227010Y-143442
X227010Y-144703
X227080Y-133360
X227190Y-134190
X227240Y-136680
X227550Y-131480
X227840Y-133490
X227880Y-136720
X227965Y-128905
X227965Y-130175
X227965Y-132715
X227980Y-139035
X227980Y-140297
X227980Y-141558
X227980Y-142820
X227980Y-144082
X227980Y-145343
X227980Y-146605
X227990Y-137830
X228720Y-136480
X228730Y-133720
X228940Y-129620
X228990Y-138373
X228990Y-139635
X228990Y-140897
X228990Y-142158
X228990Y-143420
X228990Y-144682
X228990Y-145943
X229000Y-130710
X229080Y-133000
X229560Y-136740
X229580Y-132280
X229580Y-133490
X230010Y-139030
X230010Y-140292
X230010Y-141553
X230010Y-142815
X230010Y-144077
X230010Y-145338
X230010Y-146600
X230040Y-137860
X230050Y-132960
X230310Y-133670
X230350Y-136460
X230370Y-134440
X230450Y-132400
X230780Y-135860
X230850Y-137400
X230880Y-138500
X230880Y-139762
X230880Y-141023
X230880Y-142285
X230880Y-143547
X230880Y-144808
X230880Y-146070
X230990Y-134080
T3
X231050Y-133000
T5
X208280Y-128894
X208280Y-146665
X209550Y-128894
X209550Y-146665
X210820Y-128894
X210820Y-146665
X212090Y-128894
X212090Y-146665
X213360Y-128894
X213360Y-146665
X214630Y-128894
X214630Y-146665
X215900Y-128894
X215900Y-146665
X217170Y-128894
X217170Y-146665
X218440Y-128894
X218440Y-146665
X219710Y-128894
X219710Y-146665
X220980Y-128894
X220980Y-146665
X222250Y-128894
X222250Y-146665
X223520Y-128894
X223520Y-146665
X224790Y-128894
X224790Y-146665
X226060Y-128894
X226060Y-146665
T6
X197282Y-141510
X197282Y-143510
X197282Y-145510
T7
X196945Y-130480
T8
X207489Y-135310
X208505Y-140390
X209521Y-135310
T4
G00X194495Y-129160
M15
G01X193195Y-129160
M16
G05
G00X194495Y-137800
M15
G01X193195Y-137800
M16
G05
G00X198170Y-129160
M15
G01X197170Y-129160
M16
G05
G00X198170Y-137800
M15
G01X197170Y-137800
M16
G05
T7
G00X196945Y-136355
M15
G01X196945Y-136605
M16
G05
M30
