%TF.GenerationSoftware,KiCad,Pcbnew,8.0.1*%
%TF.CreationDate,2024-04-17T19:21:13-07:00*%
%TF.ProjectId,stm32_bluet_pill,73746d33-325f-4626-9c75-65745f70696c,Proto*%
%TF.SameCoordinates,Original*%
%TF.FileFunction,Soldermask,Top*%
%TF.FilePolarity,Negative*%
%FSLAX46Y46*%
G04 Gerber Fmt 4.6, Leading zero omitted, Abs format (unit mm)*
G04 Created by KiCad (PCBNEW 8.0.1) date 2024-04-17 19:21:13*
%MOMM*%
%LPD*%
G01*
G04 APERTURE LIST*
G04 Aperture macros list*
%AMRoundRect*
0 Rectangle with rounded corners*
0 $1 Rounding radius*
0 $2 $3 $4 $5 $6 $7 $8 $9 X,Y pos of 4 corners*
0 Add a 4 corners polygon primitive as box body*
4,1,4,$2,$3,$4,$5,$6,$7,$8,$9,$2,$3,0*
0 Add four circle primitives for the rounded corners*
1,1,$1+$1,$2,$3*
1,1,$1+$1,$4,$5*
1,1,$1+$1,$6,$7*
1,1,$1+$1,$8,$9*
0 Add four rect primitives between the rounded corners*
20,1,$1+$1,$2,$3,$4,$5,0*
20,1,$1+$1,$4,$5,$6,$7,0*
20,1,$1+$1,$6,$7,$8,$9,0*
20,1,$1+$1,$8,$9,$2,$3,0*%
%AMFreePoly0*
4,1,10,-0.450000,0.185000,0.450000,0.185000,0.450000,0.435000,1.200000,0.435000,1.200000,-0.235000,-1.000000,-0.235000,-1.200000,-0.035000,-1.200000,0.435000,-0.450000,0.435000,-0.450000,0.185000,-0.450000,0.185000,$1*%
%AMFreePoly1*
4,1,10,-0.450000,0.185000,0.450000,0.185000,0.450000,0.435000,1.200000,0.435000,1.200000,-0.035000,1.000000,-0.235000,-1.200000,-0.235000,-1.200000,0.435000,-0.450000,0.435000,-0.450000,0.185000,-0.450000,0.185000,$1*%
G04 Aperture macros list end*
%ADD10C,0.100000*%
%ADD11C,0.150000*%
%ADD12C,0.300000*%
%ADD13C,0.400000*%
%ADD14C,0.120000*%
%ADD15RoundRect,0.100000X0.130000X0.100000X-0.130000X0.100000X-0.130000X-0.100000X0.130000X-0.100000X0*%
%ADD16RoundRect,0.100000X-0.100000X0.130000X-0.100000X-0.130000X0.100000X-0.130000X0.100000X0.130000X0*%
%ADD17RoundRect,0.140000X-0.140000X-0.170000X0.140000X-0.170000X0.140000X0.170000X-0.140000X0.170000X0*%
%ADD18C,0.300000*%
%ADD19RoundRect,0.225000X0.225000X0.250000X-0.225000X0.250000X-0.225000X-0.250000X0.225000X-0.250000X0*%
%ADD20C,1.000000*%
%ADD21RoundRect,0.147500X0.147500X0.172500X-0.147500X0.172500X-0.147500X-0.172500X0.147500X-0.172500X0*%
%ADD22RoundRect,0.100000X-0.130000X-0.100000X0.130000X-0.100000X0.130000X0.100000X-0.130000X0.100000X0*%
%ADD23RoundRect,0.225000X-0.250000X0.225000X-0.250000X-0.225000X0.250000X-0.225000X0.250000X0.225000X0*%
%ADD24RoundRect,0.140000X0.140000X0.170000X-0.140000X0.170000X-0.140000X-0.170000X0.140000X-0.170000X0*%
%ADD25RoundRect,0.147500X-0.147500X-0.172500X0.147500X-0.172500X0.147500X0.172500X-0.147500X0.172500X0*%
%ADD26RoundRect,0.140000X-0.170000X0.140000X-0.170000X-0.140000X0.170000X-0.140000X0.170000X0.140000X0*%
%ADD27R,1.000000X1.000000*%
%ADD28O,1.000000X1.000000*%
%ADD29R,1.600000X0.550000*%
%ADD30RoundRect,0.135000X0.135000X0.185000X-0.135000X0.185000X-0.135000X-0.185000X0.135000X-0.185000X0*%
%ADD31RoundRect,0.250000X-0.625000X0.350000X-0.625000X-0.350000X0.625000X-0.350000X0.625000X0.350000X0*%
%ADD32O,1.750000X1.200000*%
%ADD33C,0.200000*%
%ADD34RoundRect,0.100000X0.100000X-0.130000X0.100000X0.130000X-0.100000X0.130000X-0.100000X-0.130000X0*%
%ADD35C,0.600000*%
%ADD36R,2.000000X1.000000*%
%ADD37O,0.600000X0.850000*%
%ADD38R,1.000000X0.520000*%
%ADD39R,1.000000X0.270000*%
%ADD40O,2.300000X1.300000*%
%ADD41O,2.600000X1.300000*%
%ADD42C,0.990600*%
%ADD43C,0.787400*%
%ADD44R,0.800000X0.900000*%
%ADD45R,0.480000X0.500000*%
%ADD46FreePoly0,180.000000*%
%ADD47FreePoly1,0.000000*%
%ADD48RoundRect,0.050000X0.200000X0.050000X-0.200000X0.050000X-0.200000X-0.050000X0.200000X-0.050000X0*%
%ADD49RoundRect,0.050000X-0.200000X-0.050000X0.200000X-0.050000X0.200000X0.050000X-0.200000X0.050000X0*%
%ADD50C,0.400000*%
%ADD51RoundRect,0.050000X-0.400000X-0.700000X0.400000X-0.700000X0.400000X0.700000X-0.400000X0.700000X0*%
%ADD52R,1.800000X1.000000*%
%ADD53RoundRect,0.093750X0.156250X0.093750X-0.156250X0.093750X-0.156250X-0.093750X0.156250X-0.093750X0*%
%ADD54RoundRect,0.075000X0.250000X0.075000X-0.250000X0.075000X-0.250000X-0.075000X0.250000X-0.075000X0*%
%ADD55RoundRect,0.150000X-0.512500X-0.150000X0.512500X-0.150000X0.512500X0.150000X-0.512500X0.150000X0*%
%ADD56RoundRect,0.062500X0.062500X-0.400000X0.062500X0.400000X-0.062500X0.400000X-0.062500X-0.400000X0*%
%ADD57RoundRect,0.062500X0.400000X-0.062500X0.400000X0.062500X-0.400000X0.062500X-0.400000X-0.062500X0*%
%ADD58R,6.400000X6.400000*%
%TA.AperFunction,Profile*%
%ADD59C,0.100000*%
%TD*%
G04 APERTURE END LIST*
D10*
X345821001Y-254402167D02*
X345821001Y-267313833D01*
X362331000Y-267313833D01*
X362331000Y-254402167D01*
X345821001Y-254402167D01*
D11*
X299989000Y-253002200D02*
X407989000Y-253002200D01*
X407989000Y-285002200D01*
X299989000Y-285002200D01*
X299989000Y-253002200D01*
D10*
D11*
X10000000Y-10000000D02*
X409989000Y-10000000D01*
X409989000Y-287002200D01*
X10000000Y-287002200D01*
X10000000Y-10000000D01*
D10*
D11*
X12000000Y-12000000D02*
X407989000Y-12000000D01*
X407989000Y-285002200D01*
X12000000Y-285002200D01*
X12000000Y-12000000D01*
D10*
D11*
X60000000Y-12000000D02*
X60000000Y-10000000D01*
D10*
D11*
X110000000Y-12000000D02*
X110000000Y-10000000D01*
D10*
D11*
X160000000Y-12000000D02*
X160000000Y-10000000D01*
D10*
D11*
X210000000Y-12000000D02*
X210000000Y-10000000D01*
D10*
D11*
X260000000Y-12000000D02*
X260000000Y-10000000D01*
D10*
D11*
X310000000Y-12000000D02*
X310000000Y-10000000D01*
D10*
D11*
X360000000Y-12000000D02*
X360000000Y-10000000D01*
D10*
D11*
X36089160Y-11593604D02*
X35346303Y-11593604D01*
X35717731Y-11593604D02*
X35717731Y-10293604D01*
X35717731Y-10293604D02*
X35593922Y-10479319D01*
X35593922Y-10479319D02*
X35470112Y-10603128D01*
X35470112Y-10603128D02*
X35346303Y-10665033D01*
D10*
D11*
X85346303Y-10417414D02*
X85408207Y-10355509D01*
X85408207Y-10355509D02*
X85532017Y-10293604D01*
X85532017Y-10293604D02*
X85841541Y-10293604D01*
X85841541Y-10293604D02*
X85965350Y-10355509D01*
X85965350Y-10355509D02*
X86027255Y-10417414D01*
X86027255Y-10417414D02*
X86089160Y-10541223D01*
X86089160Y-10541223D02*
X86089160Y-10665033D01*
X86089160Y-10665033D02*
X86027255Y-10850747D01*
X86027255Y-10850747D02*
X85284398Y-11593604D01*
X85284398Y-11593604D02*
X86089160Y-11593604D01*
D10*
D11*
X135284398Y-10293604D02*
X136089160Y-10293604D01*
X136089160Y-10293604D02*
X135655826Y-10788842D01*
X135655826Y-10788842D02*
X135841541Y-10788842D01*
X135841541Y-10788842D02*
X135965350Y-10850747D01*
X135965350Y-10850747D02*
X136027255Y-10912652D01*
X136027255Y-10912652D02*
X136089160Y-11036461D01*
X136089160Y-11036461D02*
X136089160Y-11345985D01*
X136089160Y-11345985D02*
X136027255Y-11469795D01*
X136027255Y-11469795D02*
X135965350Y-11531700D01*
X135965350Y-11531700D02*
X135841541Y-11593604D01*
X135841541Y-11593604D02*
X135470112Y-11593604D01*
X135470112Y-11593604D02*
X135346303Y-11531700D01*
X135346303Y-11531700D02*
X135284398Y-11469795D01*
D10*
D11*
X185965350Y-10726938D02*
X185965350Y-11593604D01*
X185655826Y-10231700D02*
X185346303Y-11160271D01*
X185346303Y-11160271D02*
X186151064Y-11160271D01*
D10*
D11*
X236027255Y-10293604D02*
X235408207Y-10293604D01*
X235408207Y-10293604D02*
X235346303Y-10912652D01*
X235346303Y-10912652D02*
X235408207Y-10850747D01*
X235408207Y-10850747D02*
X235532017Y-10788842D01*
X235532017Y-10788842D02*
X235841541Y-10788842D01*
X235841541Y-10788842D02*
X235965350Y-10850747D01*
X235965350Y-10850747D02*
X236027255Y-10912652D01*
X236027255Y-10912652D02*
X236089160Y-11036461D01*
X236089160Y-11036461D02*
X236089160Y-11345985D01*
X236089160Y-11345985D02*
X236027255Y-11469795D01*
X236027255Y-11469795D02*
X235965350Y-11531700D01*
X235965350Y-11531700D02*
X235841541Y-11593604D01*
X235841541Y-11593604D02*
X235532017Y-11593604D01*
X235532017Y-11593604D02*
X235408207Y-11531700D01*
X235408207Y-11531700D02*
X235346303Y-11469795D01*
D10*
D11*
X285965350Y-10293604D02*
X285717731Y-10293604D01*
X285717731Y-10293604D02*
X285593922Y-10355509D01*
X285593922Y-10355509D02*
X285532017Y-10417414D01*
X285532017Y-10417414D02*
X285408207Y-10603128D01*
X285408207Y-10603128D02*
X285346303Y-10850747D01*
X285346303Y-10850747D02*
X285346303Y-11345985D01*
X285346303Y-11345985D02*
X285408207Y-11469795D01*
X285408207Y-11469795D02*
X285470112Y-11531700D01*
X285470112Y-11531700D02*
X285593922Y-11593604D01*
X285593922Y-11593604D02*
X285841541Y-11593604D01*
X285841541Y-11593604D02*
X285965350Y-11531700D01*
X285965350Y-11531700D02*
X286027255Y-11469795D01*
X286027255Y-11469795D02*
X286089160Y-11345985D01*
X286089160Y-11345985D02*
X286089160Y-11036461D01*
X286089160Y-11036461D02*
X286027255Y-10912652D01*
X286027255Y-10912652D02*
X285965350Y-10850747D01*
X285965350Y-10850747D02*
X285841541Y-10788842D01*
X285841541Y-10788842D02*
X285593922Y-10788842D01*
X285593922Y-10788842D02*
X285470112Y-10850747D01*
X285470112Y-10850747D02*
X285408207Y-10912652D01*
X285408207Y-10912652D02*
X285346303Y-11036461D01*
D10*
D11*
X335284398Y-10293604D02*
X336151064Y-10293604D01*
X336151064Y-10293604D02*
X335593922Y-11593604D01*
D10*
D11*
X385593922Y-10850747D02*
X385470112Y-10788842D01*
X385470112Y-10788842D02*
X385408207Y-10726938D01*
X385408207Y-10726938D02*
X385346303Y-10603128D01*
X385346303Y-10603128D02*
X385346303Y-10541223D01*
X385346303Y-10541223D02*
X385408207Y-10417414D01*
X385408207Y-10417414D02*
X385470112Y-10355509D01*
X385470112Y-10355509D02*
X385593922Y-10293604D01*
X385593922Y-10293604D02*
X385841541Y-10293604D01*
X385841541Y-10293604D02*
X385965350Y-10355509D01*
X385965350Y-10355509D02*
X386027255Y-10417414D01*
X386027255Y-10417414D02*
X386089160Y-10541223D01*
X386089160Y-10541223D02*
X386089160Y-10603128D01*
X386089160Y-10603128D02*
X386027255Y-10726938D01*
X386027255Y-10726938D02*
X385965350Y-10788842D01*
X385965350Y-10788842D02*
X385841541Y-10850747D01*
X385841541Y-10850747D02*
X385593922Y-10850747D01*
X385593922Y-10850747D02*
X385470112Y-10912652D01*
X385470112Y-10912652D02*
X385408207Y-10974557D01*
X385408207Y-10974557D02*
X385346303Y-11098366D01*
X385346303Y-11098366D02*
X385346303Y-11345985D01*
X385346303Y-11345985D02*
X385408207Y-11469795D01*
X385408207Y-11469795D02*
X385470112Y-11531700D01*
X385470112Y-11531700D02*
X385593922Y-11593604D01*
X385593922Y-11593604D02*
X385841541Y-11593604D01*
X385841541Y-11593604D02*
X385965350Y-11531700D01*
X385965350Y-11531700D02*
X386027255Y-11469795D01*
X386027255Y-11469795D02*
X386089160Y-11345985D01*
X386089160Y-11345985D02*
X386089160Y-11098366D01*
X386089160Y-11098366D02*
X386027255Y-10974557D01*
X386027255Y-10974557D02*
X385965350Y-10912652D01*
X385965350Y-10912652D02*
X385841541Y-10850747D01*
D10*
D11*
X60000000Y-285002200D02*
X60000000Y-287002200D01*
D10*
D11*
X110000000Y-285002200D02*
X110000000Y-287002200D01*
D10*
D11*
X160000000Y-285002200D02*
X160000000Y-287002200D01*
D10*
D11*
X210000000Y-285002200D02*
X210000000Y-287002200D01*
D10*
D11*
X260000000Y-285002200D02*
X260000000Y-287002200D01*
D10*
D11*
X310000000Y-285002200D02*
X310000000Y-287002200D01*
D10*
D11*
X360000000Y-285002200D02*
X360000000Y-287002200D01*
D10*
D11*
X36089160Y-286595804D02*
X35346303Y-286595804D01*
X35717731Y-286595804D02*
X35717731Y-285295804D01*
X35717731Y-285295804D02*
X35593922Y-285481519D01*
X35593922Y-285481519D02*
X35470112Y-285605328D01*
X35470112Y-285605328D02*
X35346303Y-285667233D01*
D10*
D11*
X85346303Y-285419614D02*
X85408207Y-285357709D01*
X85408207Y-285357709D02*
X85532017Y-285295804D01*
X85532017Y-285295804D02*
X85841541Y-285295804D01*
X85841541Y-285295804D02*
X85965350Y-285357709D01*
X85965350Y-285357709D02*
X86027255Y-285419614D01*
X86027255Y-285419614D02*
X86089160Y-285543423D01*
X86089160Y-285543423D02*
X86089160Y-285667233D01*
X86089160Y-285667233D02*
X86027255Y-285852947D01*
X86027255Y-285852947D02*
X85284398Y-286595804D01*
X85284398Y-286595804D02*
X86089160Y-286595804D01*
D10*
D11*
X135284398Y-285295804D02*
X136089160Y-285295804D01*
X136089160Y-285295804D02*
X135655826Y-285791042D01*
X135655826Y-285791042D02*
X135841541Y-285791042D01*
X135841541Y-285791042D02*
X135965350Y-285852947D01*
X135965350Y-285852947D02*
X136027255Y-285914852D01*
X136027255Y-285914852D02*
X136089160Y-286038661D01*
X136089160Y-286038661D02*
X136089160Y-286348185D01*
X136089160Y-286348185D02*
X136027255Y-286471995D01*
X136027255Y-286471995D02*
X135965350Y-286533900D01*
X135965350Y-286533900D02*
X135841541Y-286595804D01*
X135841541Y-286595804D02*
X135470112Y-286595804D01*
X135470112Y-286595804D02*
X135346303Y-286533900D01*
X135346303Y-286533900D02*
X135284398Y-286471995D01*
D10*
D11*
X185965350Y-285729138D02*
X185965350Y-286595804D01*
X185655826Y-285233900D02*
X185346303Y-286162471D01*
X185346303Y-286162471D02*
X186151064Y-286162471D01*
D10*
D11*
X236027255Y-285295804D02*
X235408207Y-285295804D01*
X235408207Y-285295804D02*
X235346303Y-285914852D01*
X235346303Y-285914852D02*
X235408207Y-285852947D01*
X235408207Y-285852947D02*
X235532017Y-285791042D01*
X235532017Y-285791042D02*
X235841541Y-285791042D01*
X235841541Y-285791042D02*
X235965350Y-285852947D01*
X235965350Y-285852947D02*
X236027255Y-285914852D01*
X236027255Y-285914852D02*
X236089160Y-286038661D01*
X236089160Y-286038661D02*
X236089160Y-286348185D01*
X236089160Y-286348185D02*
X236027255Y-286471995D01*
X236027255Y-286471995D02*
X235965350Y-286533900D01*
X235965350Y-286533900D02*
X235841541Y-286595804D01*
X235841541Y-286595804D02*
X235532017Y-286595804D01*
X235532017Y-286595804D02*
X235408207Y-286533900D01*
X235408207Y-286533900D02*
X235346303Y-286471995D01*
D10*
D11*
X285965350Y-285295804D02*
X285717731Y-285295804D01*
X285717731Y-285295804D02*
X285593922Y-285357709D01*
X285593922Y-285357709D02*
X285532017Y-285419614D01*
X285532017Y-285419614D02*
X285408207Y-285605328D01*
X285408207Y-285605328D02*
X285346303Y-285852947D01*
X285346303Y-285852947D02*
X285346303Y-286348185D01*
X285346303Y-286348185D02*
X285408207Y-286471995D01*
X285408207Y-286471995D02*
X285470112Y-286533900D01*
X285470112Y-286533900D02*
X285593922Y-286595804D01*
X285593922Y-286595804D02*
X285841541Y-286595804D01*
X285841541Y-286595804D02*
X285965350Y-286533900D01*
X285965350Y-286533900D02*
X286027255Y-286471995D01*
X286027255Y-286471995D02*
X286089160Y-286348185D01*
X286089160Y-286348185D02*
X286089160Y-286038661D01*
X286089160Y-286038661D02*
X286027255Y-285914852D01*
X286027255Y-285914852D02*
X285965350Y-285852947D01*
X285965350Y-285852947D02*
X285841541Y-285791042D01*
X285841541Y-285791042D02*
X285593922Y-285791042D01*
X285593922Y-285791042D02*
X285470112Y-285852947D01*
X285470112Y-285852947D02*
X285408207Y-285914852D01*
X285408207Y-285914852D02*
X285346303Y-286038661D01*
D10*
D11*
X335284398Y-285295804D02*
X336151064Y-285295804D01*
X336151064Y-285295804D02*
X335593922Y-286595804D01*
D10*
D11*
X385593922Y-285852947D02*
X385470112Y-285791042D01*
X385470112Y-285791042D02*
X385408207Y-285729138D01*
X385408207Y-285729138D02*
X385346303Y-285605328D01*
X385346303Y-285605328D02*
X385346303Y-285543423D01*
X385346303Y-285543423D02*
X385408207Y-285419614D01*
X385408207Y-285419614D02*
X385470112Y-285357709D01*
X385470112Y-285357709D02*
X385593922Y-285295804D01*
X385593922Y-285295804D02*
X385841541Y-285295804D01*
X385841541Y-285295804D02*
X385965350Y-285357709D01*
X385965350Y-285357709D02*
X386027255Y-285419614D01*
X386027255Y-285419614D02*
X386089160Y-285543423D01*
X386089160Y-285543423D02*
X386089160Y-285605328D01*
X386089160Y-285605328D02*
X386027255Y-285729138D01*
X386027255Y-285729138D02*
X385965350Y-285791042D01*
X385965350Y-285791042D02*
X385841541Y-285852947D01*
X385841541Y-285852947D02*
X385593922Y-285852947D01*
X385593922Y-285852947D02*
X385470112Y-285914852D01*
X385470112Y-285914852D02*
X385408207Y-285976757D01*
X385408207Y-285976757D02*
X385346303Y-286100566D01*
X385346303Y-286100566D02*
X385346303Y-286348185D01*
X385346303Y-286348185D02*
X385408207Y-286471995D01*
X385408207Y-286471995D02*
X385470112Y-286533900D01*
X385470112Y-286533900D02*
X385593922Y-286595804D01*
X385593922Y-286595804D02*
X385841541Y-286595804D01*
X385841541Y-286595804D02*
X385965350Y-286533900D01*
X385965350Y-286533900D02*
X386027255Y-286471995D01*
X386027255Y-286471995D02*
X386089160Y-286348185D01*
X386089160Y-286348185D02*
X386089160Y-286100566D01*
X386089160Y-286100566D02*
X386027255Y-285976757D01*
X386027255Y-285976757D02*
X385965350Y-285914852D01*
X385965350Y-285914852D02*
X385841541Y-285852947D01*
D10*
D11*
X10000000Y-60000000D02*
X12000000Y-60000000D01*
D10*
D11*
X10000000Y-110000000D02*
X12000000Y-110000000D01*
D10*
D11*
X10000000Y-160000000D02*
X12000000Y-160000000D01*
D10*
D11*
X10000000Y-210000000D02*
X12000000Y-210000000D01*
D10*
D11*
X10000000Y-260000000D02*
X12000000Y-260000000D01*
D10*
D11*
X10690476Y-35222176D02*
X11309523Y-35222176D01*
X10566666Y-35593604D02*
X10999999Y-34293604D01*
X10999999Y-34293604D02*
X11433333Y-35593604D01*
D10*
D11*
X11092857Y-84912652D02*
X11278571Y-84974557D01*
X11278571Y-84974557D02*
X11340476Y-85036461D01*
X11340476Y-85036461D02*
X11402380Y-85160271D01*
X11402380Y-85160271D02*
X11402380Y-85345985D01*
X11402380Y-85345985D02*
X11340476Y-85469795D01*
X11340476Y-85469795D02*
X11278571Y-85531700D01*
X11278571Y-85531700D02*
X11154761Y-85593604D01*
X11154761Y-85593604D02*
X10659523Y-85593604D01*
X10659523Y-85593604D02*
X10659523Y-84293604D01*
X10659523Y-84293604D02*
X11092857Y-84293604D01*
X11092857Y-84293604D02*
X11216666Y-84355509D01*
X11216666Y-84355509D02*
X11278571Y-84417414D01*
X11278571Y-84417414D02*
X11340476Y-84541223D01*
X11340476Y-84541223D02*
X11340476Y-84665033D01*
X11340476Y-84665033D02*
X11278571Y-84788842D01*
X11278571Y-84788842D02*
X11216666Y-84850747D01*
X11216666Y-84850747D02*
X11092857Y-84912652D01*
X11092857Y-84912652D02*
X10659523Y-84912652D01*
D10*
D11*
X11402380Y-135469795D02*
X11340476Y-135531700D01*
X11340476Y-135531700D02*
X11154761Y-135593604D01*
X11154761Y-135593604D02*
X11030952Y-135593604D01*
X11030952Y-135593604D02*
X10845238Y-135531700D01*
X10845238Y-135531700D02*
X10721428Y-135407890D01*
X10721428Y-135407890D02*
X10659523Y-135284080D01*
X10659523Y-135284080D02*
X10597619Y-135036461D01*
X10597619Y-135036461D02*
X10597619Y-134850747D01*
X10597619Y-134850747D02*
X10659523Y-134603128D01*
X10659523Y-134603128D02*
X10721428Y-134479319D01*
X10721428Y-134479319D02*
X10845238Y-134355509D01*
X10845238Y-134355509D02*
X11030952Y-134293604D01*
X11030952Y-134293604D02*
X11154761Y-134293604D01*
X11154761Y-134293604D02*
X11340476Y-134355509D01*
X11340476Y-134355509D02*
X11402380Y-134417414D01*
D10*
D11*
X10659523Y-185593604D02*
X10659523Y-184293604D01*
X10659523Y-184293604D02*
X10969047Y-184293604D01*
X10969047Y-184293604D02*
X11154761Y-184355509D01*
X11154761Y-184355509D02*
X11278571Y-184479319D01*
X11278571Y-184479319D02*
X11340476Y-184603128D01*
X11340476Y-184603128D02*
X11402380Y-184850747D01*
X11402380Y-184850747D02*
X11402380Y-185036461D01*
X11402380Y-185036461D02*
X11340476Y-185284080D01*
X11340476Y-185284080D02*
X11278571Y-185407890D01*
X11278571Y-185407890D02*
X11154761Y-185531700D01*
X11154761Y-185531700D02*
X10969047Y-185593604D01*
X10969047Y-185593604D02*
X10659523Y-185593604D01*
D10*
D11*
X10721428Y-234912652D02*
X11154762Y-234912652D01*
X11340476Y-235593604D02*
X10721428Y-235593604D01*
X10721428Y-235593604D02*
X10721428Y-234293604D01*
X10721428Y-234293604D02*
X11340476Y-234293604D01*
D10*
D11*
X11185714Y-284912652D02*
X10752380Y-284912652D01*
X10752380Y-285593604D02*
X10752380Y-284293604D01*
X10752380Y-284293604D02*
X11371428Y-284293604D01*
D10*
D11*
X409989000Y-60000000D02*
X407989000Y-60000000D01*
D10*
D11*
X409989000Y-110000000D02*
X407989000Y-110000000D01*
D10*
D11*
X409989000Y-160000000D02*
X407989000Y-160000000D01*
D10*
D11*
X409989000Y-210000000D02*
X407989000Y-210000000D01*
D10*
D11*
X409989000Y-260000000D02*
X407989000Y-260000000D01*
D10*
D11*
X408679476Y-35222176D02*
X409298523Y-35222176D01*
X408555666Y-35593604D02*
X408988999Y-34293604D01*
X408988999Y-34293604D02*
X409422333Y-35593604D01*
D10*
D11*
X409081857Y-84912652D02*
X409267571Y-84974557D01*
X409267571Y-84974557D02*
X409329476Y-85036461D01*
X409329476Y-85036461D02*
X409391380Y-85160271D01*
X409391380Y-85160271D02*
X409391380Y-85345985D01*
X409391380Y-85345985D02*
X409329476Y-85469795D01*
X409329476Y-85469795D02*
X409267571Y-85531700D01*
X409267571Y-85531700D02*
X409143761Y-85593604D01*
X409143761Y-85593604D02*
X408648523Y-85593604D01*
X408648523Y-85593604D02*
X408648523Y-84293604D01*
X408648523Y-84293604D02*
X409081857Y-84293604D01*
X409081857Y-84293604D02*
X409205666Y-84355509D01*
X409205666Y-84355509D02*
X409267571Y-84417414D01*
X409267571Y-84417414D02*
X409329476Y-84541223D01*
X409329476Y-84541223D02*
X409329476Y-84665033D01*
X409329476Y-84665033D02*
X409267571Y-84788842D01*
X409267571Y-84788842D02*
X409205666Y-84850747D01*
X409205666Y-84850747D02*
X409081857Y-84912652D01*
X409081857Y-84912652D02*
X408648523Y-84912652D01*
D10*
D11*
X409391380Y-135469795D02*
X409329476Y-135531700D01*
X409329476Y-135531700D02*
X409143761Y-135593604D01*
X409143761Y-135593604D02*
X409019952Y-135593604D01*
X409019952Y-135593604D02*
X408834238Y-135531700D01*
X408834238Y-135531700D02*
X408710428Y-135407890D01*
X408710428Y-135407890D02*
X408648523Y-135284080D01*
X408648523Y-135284080D02*
X408586619Y-135036461D01*
X408586619Y-135036461D02*
X408586619Y-134850747D01*
X408586619Y-134850747D02*
X408648523Y-134603128D01*
X408648523Y-134603128D02*
X408710428Y-134479319D01*
X408710428Y-134479319D02*
X408834238Y-134355509D01*
X408834238Y-134355509D02*
X409019952Y-134293604D01*
X409019952Y-134293604D02*
X409143761Y-134293604D01*
X409143761Y-134293604D02*
X409329476Y-134355509D01*
X409329476Y-134355509D02*
X409391380Y-134417414D01*
D10*
D11*
X408648523Y-185593604D02*
X408648523Y-184293604D01*
X408648523Y-184293604D02*
X408958047Y-184293604D01*
X408958047Y-184293604D02*
X409143761Y-184355509D01*
X409143761Y-184355509D02*
X409267571Y-184479319D01*
X409267571Y-184479319D02*
X409329476Y-184603128D01*
X409329476Y-184603128D02*
X409391380Y-184850747D01*
X409391380Y-184850747D02*
X409391380Y-185036461D01*
X409391380Y-185036461D02*
X409329476Y-185284080D01*
X409329476Y-185284080D02*
X409267571Y-185407890D01*
X409267571Y-185407890D02*
X409143761Y-185531700D01*
X409143761Y-185531700D02*
X408958047Y-185593604D01*
X408958047Y-185593604D02*
X408648523Y-185593604D01*
D10*
D11*
X408710428Y-234912652D02*
X409143762Y-234912652D01*
X409329476Y-235593604D02*
X408710428Y-235593604D01*
X408710428Y-235593604D02*
X408710428Y-234293604D01*
X408710428Y-234293604D02*
X409329476Y-234293604D01*
D10*
D11*
X409174714Y-284912652D02*
X408741380Y-284912652D01*
X408741380Y-285593604D02*
X408741380Y-284293604D01*
X408741380Y-284293604D02*
X409360428Y-284293604D01*
D10*
D11*
X323444826Y-280788328D02*
X323444826Y-279288328D01*
X323444826Y-279288328D02*
X323801969Y-279288328D01*
X323801969Y-279288328D02*
X324016255Y-279359757D01*
X324016255Y-279359757D02*
X324159112Y-279502614D01*
X324159112Y-279502614D02*
X324230541Y-279645471D01*
X324230541Y-279645471D02*
X324301969Y-279931185D01*
X324301969Y-279931185D02*
X324301969Y-280145471D01*
X324301969Y-280145471D02*
X324230541Y-280431185D01*
X324230541Y-280431185D02*
X324159112Y-280574042D01*
X324159112Y-280574042D02*
X324016255Y-280716900D01*
X324016255Y-280716900D02*
X323801969Y-280788328D01*
X323801969Y-280788328D02*
X323444826Y-280788328D01*
X325587684Y-280788328D02*
X325587684Y-280002614D01*
X325587684Y-280002614D02*
X325516255Y-279859757D01*
X325516255Y-279859757D02*
X325373398Y-279788328D01*
X325373398Y-279788328D02*
X325087684Y-279788328D01*
X325087684Y-279788328D02*
X324944826Y-279859757D01*
X325587684Y-280716900D02*
X325444826Y-280788328D01*
X325444826Y-280788328D02*
X325087684Y-280788328D01*
X325087684Y-280788328D02*
X324944826Y-280716900D01*
X324944826Y-280716900D02*
X324873398Y-280574042D01*
X324873398Y-280574042D02*
X324873398Y-280431185D01*
X324873398Y-280431185D02*
X324944826Y-280288328D01*
X324944826Y-280288328D02*
X325087684Y-280216900D01*
X325087684Y-280216900D02*
X325444826Y-280216900D01*
X325444826Y-280216900D02*
X325587684Y-280145471D01*
X326087684Y-279788328D02*
X326659112Y-279788328D01*
X326301969Y-279288328D02*
X326301969Y-280574042D01*
X326301969Y-280574042D02*
X326373398Y-280716900D01*
X326373398Y-280716900D02*
X326516255Y-280788328D01*
X326516255Y-280788328D02*
X326659112Y-280788328D01*
X327730541Y-280716900D02*
X327587684Y-280788328D01*
X327587684Y-280788328D02*
X327301970Y-280788328D01*
X327301970Y-280788328D02*
X327159112Y-280716900D01*
X327159112Y-280716900D02*
X327087684Y-280574042D01*
X327087684Y-280574042D02*
X327087684Y-280002614D01*
X327087684Y-280002614D02*
X327159112Y-279859757D01*
X327159112Y-279859757D02*
X327301970Y-279788328D01*
X327301970Y-279788328D02*
X327587684Y-279788328D01*
X327587684Y-279788328D02*
X327730541Y-279859757D01*
X327730541Y-279859757D02*
X327801970Y-280002614D01*
X327801970Y-280002614D02*
X327801970Y-280145471D01*
X327801970Y-280145471D02*
X327087684Y-280288328D01*
X328444826Y-280645471D02*
X328516255Y-280716900D01*
X328516255Y-280716900D02*
X328444826Y-280788328D01*
X328444826Y-280788328D02*
X328373398Y-280716900D01*
X328373398Y-280716900D02*
X328444826Y-280645471D01*
X328444826Y-280645471D02*
X328444826Y-280788328D01*
X328444826Y-279859757D02*
X328516255Y-279931185D01*
X328516255Y-279931185D02*
X328444826Y-280002614D01*
X328444826Y-280002614D02*
X328373398Y-279931185D01*
X328373398Y-279931185D02*
X328444826Y-279859757D01*
X328444826Y-279859757D02*
X328444826Y-280002614D01*
X330230541Y-279431185D02*
X330301969Y-279359757D01*
X330301969Y-279359757D02*
X330444827Y-279288328D01*
X330444827Y-279288328D02*
X330801969Y-279288328D01*
X330801969Y-279288328D02*
X330944827Y-279359757D01*
X330944827Y-279359757D02*
X331016255Y-279431185D01*
X331016255Y-279431185D02*
X331087684Y-279574042D01*
X331087684Y-279574042D02*
X331087684Y-279716900D01*
X331087684Y-279716900D02*
X331016255Y-279931185D01*
X331016255Y-279931185D02*
X330159112Y-280788328D01*
X330159112Y-280788328D02*
X331087684Y-280788328D01*
X332016255Y-279288328D02*
X332159112Y-279288328D01*
X332159112Y-279288328D02*
X332301969Y-279359757D01*
X332301969Y-279359757D02*
X332373398Y-279431185D01*
X332373398Y-279431185D02*
X332444826Y-279574042D01*
X332444826Y-279574042D02*
X332516255Y-279859757D01*
X332516255Y-279859757D02*
X332516255Y-280216900D01*
X332516255Y-280216900D02*
X332444826Y-280502614D01*
X332444826Y-280502614D02*
X332373398Y-280645471D01*
X332373398Y-280645471D02*
X332301969Y-280716900D01*
X332301969Y-280716900D02*
X332159112Y-280788328D01*
X332159112Y-280788328D02*
X332016255Y-280788328D01*
X332016255Y-280788328D02*
X331873398Y-280716900D01*
X331873398Y-280716900D02*
X331801969Y-280645471D01*
X331801969Y-280645471D02*
X331730540Y-280502614D01*
X331730540Y-280502614D02*
X331659112Y-280216900D01*
X331659112Y-280216900D02*
X331659112Y-279859757D01*
X331659112Y-279859757D02*
X331730540Y-279574042D01*
X331730540Y-279574042D02*
X331801969Y-279431185D01*
X331801969Y-279431185D02*
X331873398Y-279359757D01*
X331873398Y-279359757D02*
X332016255Y-279288328D01*
X333087683Y-279431185D02*
X333159111Y-279359757D01*
X333159111Y-279359757D02*
X333301969Y-279288328D01*
X333301969Y-279288328D02*
X333659111Y-279288328D01*
X333659111Y-279288328D02*
X333801969Y-279359757D01*
X333801969Y-279359757D02*
X333873397Y-279431185D01*
X333873397Y-279431185D02*
X333944826Y-279574042D01*
X333944826Y-279574042D02*
X333944826Y-279716900D01*
X333944826Y-279716900D02*
X333873397Y-279931185D01*
X333873397Y-279931185D02*
X333016254Y-280788328D01*
X333016254Y-280788328D02*
X333944826Y-280788328D01*
X335230540Y-279788328D02*
X335230540Y-280788328D01*
X334873397Y-279216900D02*
X334516254Y-280288328D01*
X334516254Y-280288328D02*
X335444825Y-280288328D01*
X336016253Y-280216900D02*
X337159111Y-280216900D01*
X338159111Y-279288328D02*
X338301968Y-279288328D01*
X338301968Y-279288328D02*
X338444825Y-279359757D01*
X338444825Y-279359757D02*
X338516254Y-279431185D01*
X338516254Y-279431185D02*
X338587682Y-279574042D01*
X338587682Y-279574042D02*
X338659111Y-279859757D01*
X338659111Y-279859757D02*
X338659111Y-280216900D01*
X338659111Y-280216900D02*
X338587682Y-280502614D01*
X338587682Y-280502614D02*
X338516254Y-280645471D01*
X338516254Y-280645471D02*
X338444825Y-280716900D01*
X338444825Y-280716900D02*
X338301968Y-280788328D01*
X338301968Y-280788328D02*
X338159111Y-280788328D01*
X338159111Y-280788328D02*
X338016254Y-280716900D01*
X338016254Y-280716900D02*
X337944825Y-280645471D01*
X337944825Y-280645471D02*
X337873396Y-280502614D01*
X337873396Y-280502614D02*
X337801968Y-280216900D01*
X337801968Y-280216900D02*
X337801968Y-279859757D01*
X337801968Y-279859757D02*
X337873396Y-279574042D01*
X337873396Y-279574042D02*
X337944825Y-279431185D01*
X337944825Y-279431185D02*
X338016254Y-279359757D01*
X338016254Y-279359757D02*
X338159111Y-279288328D01*
X339944825Y-279788328D02*
X339944825Y-280788328D01*
X339587682Y-279216900D02*
X339230539Y-280288328D01*
X339230539Y-280288328D02*
X340159110Y-280288328D01*
X340730538Y-280216900D02*
X341873396Y-280216900D01*
X342873396Y-279288328D02*
X343016253Y-279288328D01*
X343016253Y-279288328D02*
X343159110Y-279359757D01*
X343159110Y-279359757D02*
X343230539Y-279431185D01*
X343230539Y-279431185D02*
X343301967Y-279574042D01*
X343301967Y-279574042D02*
X343373396Y-279859757D01*
X343373396Y-279859757D02*
X343373396Y-280216900D01*
X343373396Y-280216900D02*
X343301967Y-280502614D01*
X343301967Y-280502614D02*
X343230539Y-280645471D01*
X343230539Y-280645471D02*
X343159110Y-280716900D01*
X343159110Y-280716900D02*
X343016253Y-280788328D01*
X343016253Y-280788328D02*
X342873396Y-280788328D01*
X342873396Y-280788328D02*
X342730539Y-280716900D01*
X342730539Y-280716900D02*
X342659110Y-280645471D01*
X342659110Y-280645471D02*
X342587681Y-280502614D01*
X342587681Y-280502614D02*
X342516253Y-280216900D01*
X342516253Y-280216900D02*
X342516253Y-279859757D01*
X342516253Y-279859757D02*
X342587681Y-279574042D01*
X342587681Y-279574042D02*
X342659110Y-279431185D01*
X342659110Y-279431185D02*
X342730539Y-279359757D01*
X342730539Y-279359757D02*
X342873396Y-279288328D01*
X343873395Y-279288328D02*
X344801967Y-279288328D01*
X344801967Y-279288328D02*
X344301967Y-279859757D01*
X344301967Y-279859757D02*
X344516252Y-279859757D01*
X344516252Y-279859757D02*
X344659110Y-279931185D01*
X344659110Y-279931185D02*
X344730538Y-280002614D01*
X344730538Y-280002614D02*
X344801967Y-280145471D01*
X344801967Y-280145471D02*
X344801967Y-280502614D01*
X344801967Y-280502614D02*
X344730538Y-280645471D01*
X344730538Y-280645471D02*
X344659110Y-280716900D01*
X344659110Y-280716900D02*
X344516252Y-280788328D01*
X344516252Y-280788328D02*
X344087681Y-280788328D01*
X344087681Y-280788328D02*
X343944824Y-280716900D01*
X343944824Y-280716900D02*
X343873395Y-280645471D01*
D10*
D11*
X299989000Y-281502200D02*
X407989000Y-281502200D01*
D10*
D11*
X301444826Y-283588328D02*
X301444826Y-282088328D01*
X302301969Y-283588328D02*
X301659112Y-282731185D01*
X302301969Y-282088328D02*
X301444826Y-282945471D01*
X302944826Y-283588328D02*
X302944826Y-282588328D01*
X302944826Y-282088328D02*
X302873398Y-282159757D01*
X302873398Y-282159757D02*
X302944826Y-282231185D01*
X302944826Y-282231185D02*
X303016255Y-282159757D01*
X303016255Y-282159757D02*
X302944826Y-282088328D01*
X302944826Y-282088328D02*
X302944826Y-282231185D01*
X304516255Y-283445471D02*
X304444827Y-283516900D01*
X304444827Y-283516900D02*
X304230541Y-283588328D01*
X304230541Y-283588328D02*
X304087684Y-283588328D01*
X304087684Y-283588328D02*
X303873398Y-283516900D01*
X303873398Y-283516900D02*
X303730541Y-283374042D01*
X303730541Y-283374042D02*
X303659112Y-283231185D01*
X303659112Y-283231185D02*
X303587684Y-282945471D01*
X303587684Y-282945471D02*
X303587684Y-282731185D01*
X303587684Y-282731185D02*
X303659112Y-282445471D01*
X303659112Y-282445471D02*
X303730541Y-282302614D01*
X303730541Y-282302614D02*
X303873398Y-282159757D01*
X303873398Y-282159757D02*
X304087684Y-282088328D01*
X304087684Y-282088328D02*
X304230541Y-282088328D01*
X304230541Y-282088328D02*
X304444827Y-282159757D01*
X304444827Y-282159757D02*
X304516255Y-282231185D01*
X305801970Y-283588328D02*
X305801970Y-282802614D01*
X305801970Y-282802614D02*
X305730541Y-282659757D01*
X305730541Y-282659757D02*
X305587684Y-282588328D01*
X305587684Y-282588328D02*
X305301970Y-282588328D01*
X305301970Y-282588328D02*
X305159112Y-282659757D01*
X305801970Y-283516900D02*
X305659112Y-283588328D01*
X305659112Y-283588328D02*
X305301970Y-283588328D01*
X305301970Y-283588328D02*
X305159112Y-283516900D01*
X305159112Y-283516900D02*
X305087684Y-283374042D01*
X305087684Y-283374042D02*
X305087684Y-283231185D01*
X305087684Y-283231185D02*
X305159112Y-283088328D01*
X305159112Y-283088328D02*
X305301970Y-283016900D01*
X305301970Y-283016900D02*
X305659112Y-283016900D01*
X305659112Y-283016900D02*
X305801970Y-282945471D01*
X307159113Y-283588328D02*
X307159113Y-282088328D01*
X307159113Y-283516900D02*
X307016255Y-283588328D01*
X307016255Y-283588328D02*
X306730541Y-283588328D01*
X306730541Y-283588328D02*
X306587684Y-283516900D01*
X306587684Y-283516900D02*
X306516255Y-283445471D01*
X306516255Y-283445471D02*
X306444827Y-283302614D01*
X306444827Y-283302614D02*
X306444827Y-282874042D01*
X306444827Y-282874042D02*
X306516255Y-282731185D01*
X306516255Y-282731185D02*
X306587684Y-282659757D01*
X306587684Y-282659757D02*
X306730541Y-282588328D01*
X306730541Y-282588328D02*
X307016255Y-282588328D01*
X307016255Y-282588328D02*
X307159113Y-282659757D01*
X309016255Y-282802614D02*
X309516255Y-282802614D01*
X309730541Y-283588328D02*
X309016255Y-283588328D01*
X309016255Y-283588328D02*
X309016255Y-282088328D01*
X309016255Y-282088328D02*
X309730541Y-282088328D01*
X310373398Y-283445471D02*
X310444827Y-283516900D01*
X310444827Y-283516900D02*
X310373398Y-283588328D01*
X310373398Y-283588328D02*
X310301970Y-283516900D01*
X310301970Y-283516900D02*
X310373398Y-283445471D01*
X310373398Y-283445471D02*
X310373398Y-283588328D01*
X311087684Y-283588328D02*
X311087684Y-282088328D01*
X311087684Y-282088328D02*
X311444827Y-282088328D01*
X311444827Y-282088328D02*
X311659113Y-282159757D01*
X311659113Y-282159757D02*
X311801970Y-282302614D01*
X311801970Y-282302614D02*
X311873399Y-282445471D01*
X311873399Y-282445471D02*
X311944827Y-282731185D01*
X311944827Y-282731185D02*
X311944827Y-282945471D01*
X311944827Y-282945471D02*
X311873399Y-283231185D01*
X311873399Y-283231185D02*
X311801970Y-283374042D01*
X311801970Y-283374042D02*
X311659113Y-283516900D01*
X311659113Y-283516900D02*
X311444827Y-283588328D01*
X311444827Y-283588328D02*
X311087684Y-283588328D01*
X312587684Y-283445471D02*
X312659113Y-283516900D01*
X312659113Y-283516900D02*
X312587684Y-283588328D01*
X312587684Y-283588328D02*
X312516256Y-283516900D01*
X312516256Y-283516900D02*
X312587684Y-283445471D01*
X312587684Y-283445471D02*
X312587684Y-283588328D01*
X313230542Y-283159757D02*
X313944828Y-283159757D01*
X313087685Y-283588328D02*
X313587685Y-282088328D01*
X313587685Y-282088328D02*
X314087685Y-283588328D01*
X314587684Y-283445471D02*
X314659113Y-283516900D01*
X314659113Y-283516900D02*
X314587684Y-283588328D01*
X314587684Y-283588328D02*
X314516256Y-283516900D01*
X314516256Y-283516900D02*
X314587684Y-283445471D01*
X314587684Y-283445471D02*
X314587684Y-283588328D01*
X316659113Y-282731185D02*
X316516256Y-282659757D01*
X316516256Y-282659757D02*
X316444827Y-282588328D01*
X316444827Y-282588328D02*
X316373399Y-282445471D01*
X316373399Y-282445471D02*
X316373399Y-282374042D01*
X316373399Y-282374042D02*
X316444827Y-282231185D01*
X316444827Y-282231185D02*
X316516256Y-282159757D01*
X316516256Y-282159757D02*
X316659113Y-282088328D01*
X316659113Y-282088328D02*
X316944827Y-282088328D01*
X316944827Y-282088328D02*
X317087685Y-282159757D01*
X317087685Y-282159757D02*
X317159113Y-282231185D01*
X317159113Y-282231185D02*
X317230542Y-282374042D01*
X317230542Y-282374042D02*
X317230542Y-282445471D01*
X317230542Y-282445471D02*
X317159113Y-282588328D01*
X317159113Y-282588328D02*
X317087685Y-282659757D01*
X317087685Y-282659757D02*
X316944827Y-282731185D01*
X316944827Y-282731185D02*
X316659113Y-282731185D01*
X316659113Y-282731185D02*
X316516256Y-282802614D01*
X316516256Y-282802614D02*
X316444827Y-282874042D01*
X316444827Y-282874042D02*
X316373399Y-283016900D01*
X316373399Y-283016900D02*
X316373399Y-283302614D01*
X316373399Y-283302614D02*
X316444827Y-283445471D01*
X316444827Y-283445471D02*
X316516256Y-283516900D01*
X316516256Y-283516900D02*
X316659113Y-283588328D01*
X316659113Y-283588328D02*
X316944827Y-283588328D01*
X316944827Y-283588328D02*
X317087685Y-283516900D01*
X317087685Y-283516900D02*
X317159113Y-283445471D01*
X317159113Y-283445471D02*
X317230542Y-283302614D01*
X317230542Y-283302614D02*
X317230542Y-283016900D01*
X317230542Y-283016900D02*
X317159113Y-282874042D01*
X317159113Y-282874042D02*
X317087685Y-282802614D01*
X317087685Y-282802614D02*
X316944827Y-282731185D01*
X317873398Y-283445471D02*
X317944827Y-283516900D01*
X317944827Y-283516900D02*
X317873398Y-283588328D01*
X317873398Y-283588328D02*
X317801970Y-283516900D01*
X317801970Y-283516900D02*
X317873398Y-283445471D01*
X317873398Y-283445471D02*
X317873398Y-283588328D01*
X318873399Y-282088328D02*
X319016256Y-282088328D01*
X319016256Y-282088328D02*
X319159113Y-282159757D01*
X319159113Y-282159757D02*
X319230542Y-282231185D01*
X319230542Y-282231185D02*
X319301970Y-282374042D01*
X319301970Y-282374042D02*
X319373399Y-282659757D01*
X319373399Y-282659757D02*
X319373399Y-283016900D01*
X319373399Y-283016900D02*
X319301970Y-283302614D01*
X319301970Y-283302614D02*
X319230542Y-283445471D01*
X319230542Y-283445471D02*
X319159113Y-283516900D01*
X319159113Y-283516900D02*
X319016256Y-283588328D01*
X319016256Y-283588328D02*
X318873399Y-283588328D01*
X318873399Y-283588328D02*
X318730542Y-283516900D01*
X318730542Y-283516900D02*
X318659113Y-283445471D01*
X318659113Y-283445471D02*
X318587684Y-283302614D01*
X318587684Y-283302614D02*
X318516256Y-283016900D01*
X318516256Y-283016900D02*
X318516256Y-282659757D01*
X318516256Y-282659757D02*
X318587684Y-282374042D01*
X318587684Y-282374042D02*
X318659113Y-282231185D01*
X318659113Y-282231185D02*
X318730542Y-282159757D01*
X318730542Y-282159757D02*
X318873399Y-282088328D01*
X320016255Y-283445471D02*
X320087684Y-283516900D01*
X320087684Y-283516900D02*
X320016255Y-283588328D01*
X320016255Y-283588328D02*
X319944827Y-283516900D01*
X319944827Y-283516900D02*
X320016255Y-283445471D01*
X320016255Y-283445471D02*
X320016255Y-283588328D01*
X321516256Y-283588328D02*
X320659113Y-283588328D01*
X321087684Y-283588328D02*
X321087684Y-282088328D01*
X321087684Y-282088328D02*
X320944827Y-282302614D01*
X320944827Y-282302614D02*
X320801970Y-282445471D01*
X320801970Y-282445471D02*
X320659113Y-282516900D01*
D10*
D11*
X299989000Y-278502200D02*
X407989000Y-278502200D01*
D10*
D12*
X387400653Y-280780528D02*
X386900653Y-280066242D01*
X386543510Y-280780528D02*
X386543510Y-279280528D01*
X386543510Y-279280528D02*
X387114939Y-279280528D01*
X387114939Y-279280528D02*
X387257796Y-279351957D01*
X387257796Y-279351957D02*
X387329225Y-279423385D01*
X387329225Y-279423385D02*
X387400653Y-279566242D01*
X387400653Y-279566242D02*
X387400653Y-279780528D01*
X387400653Y-279780528D02*
X387329225Y-279923385D01*
X387329225Y-279923385D02*
X387257796Y-279994814D01*
X387257796Y-279994814D02*
X387114939Y-280066242D01*
X387114939Y-280066242D02*
X386543510Y-280066242D01*
X388614939Y-280709100D02*
X388472082Y-280780528D01*
X388472082Y-280780528D02*
X388186368Y-280780528D01*
X388186368Y-280780528D02*
X388043510Y-280709100D01*
X388043510Y-280709100D02*
X387972082Y-280566242D01*
X387972082Y-280566242D02*
X387972082Y-279994814D01*
X387972082Y-279994814D02*
X388043510Y-279851957D01*
X388043510Y-279851957D02*
X388186368Y-279780528D01*
X388186368Y-279780528D02*
X388472082Y-279780528D01*
X388472082Y-279780528D02*
X388614939Y-279851957D01*
X388614939Y-279851957D02*
X388686368Y-279994814D01*
X388686368Y-279994814D02*
X388686368Y-280137671D01*
X388686368Y-280137671D02*
X387972082Y-280280528D01*
X389186367Y-279780528D02*
X389543510Y-280780528D01*
X389543510Y-280780528D02*
X389900653Y-279780528D01*
X390472081Y-280637671D02*
X390543510Y-280709100D01*
X390543510Y-280709100D02*
X390472081Y-280780528D01*
X390472081Y-280780528D02*
X390400653Y-280709100D01*
X390400653Y-280709100D02*
X390472081Y-280637671D01*
X390472081Y-280637671D02*
X390472081Y-280780528D01*
X390472081Y-279851957D02*
X390543510Y-279923385D01*
X390543510Y-279923385D02*
X390472081Y-279994814D01*
X390472081Y-279994814D02*
X390400653Y-279923385D01*
X390400653Y-279923385D02*
X390472081Y-279851957D01*
X390472081Y-279851957D02*
X390472081Y-279994814D01*
X392329224Y-280780528D02*
X392329224Y-279280528D01*
X392329224Y-279280528D02*
X392900653Y-279280528D01*
X392900653Y-279280528D02*
X393043510Y-279351957D01*
X393043510Y-279351957D02*
X393114939Y-279423385D01*
X393114939Y-279423385D02*
X393186367Y-279566242D01*
X393186367Y-279566242D02*
X393186367Y-279780528D01*
X393186367Y-279780528D02*
X393114939Y-279923385D01*
X393114939Y-279923385D02*
X393043510Y-279994814D01*
X393043510Y-279994814D02*
X392900653Y-280066242D01*
X392900653Y-280066242D02*
X392329224Y-280066242D01*
X393829224Y-280780528D02*
X393829224Y-279780528D01*
X393829224Y-280066242D02*
X393900653Y-279923385D01*
X393900653Y-279923385D02*
X393972082Y-279851957D01*
X393972082Y-279851957D02*
X394114939Y-279780528D01*
X394114939Y-279780528D02*
X394257796Y-279780528D01*
X394972081Y-280780528D02*
X394829224Y-280709100D01*
X394829224Y-280709100D02*
X394757795Y-280637671D01*
X394757795Y-280637671D02*
X394686367Y-280494814D01*
X394686367Y-280494814D02*
X394686367Y-280066242D01*
X394686367Y-280066242D02*
X394757795Y-279923385D01*
X394757795Y-279923385D02*
X394829224Y-279851957D01*
X394829224Y-279851957D02*
X394972081Y-279780528D01*
X394972081Y-279780528D02*
X395186367Y-279780528D01*
X395186367Y-279780528D02*
X395329224Y-279851957D01*
X395329224Y-279851957D02*
X395400653Y-279923385D01*
X395400653Y-279923385D02*
X395472081Y-280066242D01*
X395472081Y-280066242D02*
X395472081Y-280494814D01*
X395472081Y-280494814D02*
X395400653Y-280637671D01*
X395400653Y-280637671D02*
X395329224Y-280709100D01*
X395329224Y-280709100D02*
X395186367Y-280780528D01*
X395186367Y-280780528D02*
X394972081Y-280780528D01*
X395900653Y-279780528D02*
X396472081Y-279780528D01*
X396114938Y-279280528D02*
X396114938Y-280566242D01*
X396114938Y-280566242D02*
X396186367Y-280709100D01*
X396186367Y-280709100D02*
X396329224Y-280780528D01*
X396329224Y-280780528D02*
X396472081Y-280780528D01*
X397186367Y-280780528D02*
X397043510Y-280709100D01*
X397043510Y-280709100D02*
X396972081Y-280637671D01*
X396972081Y-280637671D02*
X396900653Y-280494814D01*
X396900653Y-280494814D02*
X396900653Y-280066242D01*
X396900653Y-280066242D02*
X396972081Y-279923385D01*
X396972081Y-279923385D02*
X397043510Y-279851957D01*
X397043510Y-279851957D02*
X397186367Y-279780528D01*
X397186367Y-279780528D02*
X397400653Y-279780528D01*
X397400653Y-279780528D02*
X397543510Y-279851957D01*
X397543510Y-279851957D02*
X397614939Y-279923385D01*
X397614939Y-279923385D02*
X397686367Y-280066242D01*
X397686367Y-280066242D02*
X397686367Y-280494814D01*
X397686367Y-280494814D02*
X397614939Y-280637671D01*
X397614939Y-280637671D02*
X397543510Y-280709100D01*
X397543510Y-280709100D02*
X397400653Y-280780528D01*
X397400653Y-280780528D02*
X397186367Y-280780528D01*
D10*
D11*
X301373398Y-280716900D02*
X301587684Y-280788328D01*
X301587684Y-280788328D02*
X301944826Y-280788328D01*
X301944826Y-280788328D02*
X302087684Y-280716900D01*
X302087684Y-280716900D02*
X302159112Y-280645471D01*
X302159112Y-280645471D02*
X302230541Y-280502614D01*
X302230541Y-280502614D02*
X302230541Y-280359757D01*
X302230541Y-280359757D02*
X302159112Y-280216900D01*
X302159112Y-280216900D02*
X302087684Y-280145471D01*
X302087684Y-280145471D02*
X301944826Y-280074042D01*
X301944826Y-280074042D02*
X301659112Y-280002614D01*
X301659112Y-280002614D02*
X301516255Y-279931185D01*
X301516255Y-279931185D02*
X301444826Y-279859757D01*
X301444826Y-279859757D02*
X301373398Y-279716900D01*
X301373398Y-279716900D02*
X301373398Y-279574042D01*
X301373398Y-279574042D02*
X301444826Y-279431185D01*
X301444826Y-279431185D02*
X301516255Y-279359757D01*
X301516255Y-279359757D02*
X301659112Y-279288328D01*
X301659112Y-279288328D02*
X302016255Y-279288328D01*
X302016255Y-279288328D02*
X302230541Y-279359757D01*
X302873397Y-280788328D02*
X302873397Y-279788328D01*
X302873397Y-279288328D02*
X302801969Y-279359757D01*
X302801969Y-279359757D02*
X302873397Y-279431185D01*
X302873397Y-279431185D02*
X302944826Y-279359757D01*
X302944826Y-279359757D02*
X302873397Y-279288328D01*
X302873397Y-279288328D02*
X302873397Y-279431185D01*
X303444826Y-279788328D02*
X304230541Y-279788328D01*
X304230541Y-279788328D02*
X303444826Y-280788328D01*
X303444826Y-280788328D02*
X304230541Y-280788328D01*
X305373398Y-280716900D02*
X305230541Y-280788328D01*
X305230541Y-280788328D02*
X304944827Y-280788328D01*
X304944827Y-280788328D02*
X304801969Y-280716900D01*
X304801969Y-280716900D02*
X304730541Y-280574042D01*
X304730541Y-280574042D02*
X304730541Y-280002614D01*
X304730541Y-280002614D02*
X304801969Y-279859757D01*
X304801969Y-279859757D02*
X304944827Y-279788328D01*
X304944827Y-279788328D02*
X305230541Y-279788328D01*
X305230541Y-279788328D02*
X305373398Y-279859757D01*
X305373398Y-279859757D02*
X305444827Y-280002614D01*
X305444827Y-280002614D02*
X305444827Y-280145471D01*
X305444827Y-280145471D02*
X304730541Y-280288328D01*
X306087683Y-280645471D02*
X306159112Y-280716900D01*
X306159112Y-280716900D02*
X306087683Y-280788328D01*
X306087683Y-280788328D02*
X306016255Y-280716900D01*
X306016255Y-280716900D02*
X306087683Y-280645471D01*
X306087683Y-280645471D02*
X306087683Y-280788328D01*
X306087683Y-279859757D02*
X306159112Y-279931185D01*
X306159112Y-279931185D02*
X306087683Y-280002614D01*
X306087683Y-280002614D02*
X306016255Y-279931185D01*
X306016255Y-279931185D02*
X306087683Y-279859757D01*
X306087683Y-279859757D02*
X306087683Y-280002614D01*
X307873398Y-280359757D02*
X308587684Y-280359757D01*
X307730541Y-280788328D02*
X308230541Y-279288328D01*
X308230541Y-279288328D02*
X308730541Y-280788328D01*
X309087683Y-279288328D02*
X310016255Y-279288328D01*
X310016255Y-279288328D02*
X309516255Y-279859757D01*
X309516255Y-279859757D02*
X309730540Y-279859757D01*
X309730540Y-279859757D02*
X309873398Y-279931185D01*
X309873398Y-279931185D02*
X309944826Y-280002614D01*
X309944826Y-280002614D02*
X310016255Y-280145471D01*
X310016255Y-280145471D02*
X310016255Y-280502614D01*
X310016255Y-280502614D02*
X309944826Y-280645471D01*
X309944826Y-280645471D02*
X309873398Y-280716900D01*
X309873398Y-280716900D02*
X309730540Y-280788328D01*
X309730540Y-280788328D02*
X309301969Y-280788328D01*
X309301969Y-280788328D02*
X309159112Y-280716900D01*
X309159112Y-280716900D02*
X309087683Y-280645471D01*
D10*
D11*
X386444826Y-283588328D02*
X386444826Y-282088328D01*
X387801970Y-283588328D02*
X387801970Y-282088328D01*
X387801970Y-283516900D02*
X387659112Y-283588328D01*
X387659112Y-283588328D02*
X387373398Y-283588328D01*
X387373398Y-283588328D02*
X387230541Y-283516900D01*
X387230541Y-283516900D02*
X387159112Y-283445471D01*
X387159112Y-283445471D02*
X387087684Y-283302614D01*
X387087684Y-283302614D02*
X387087684Y-282874042D01*
X387087684Y-282874042D02*
X387159112Y-282731185D01*
X387159112Y-282731185D02*
X387230541Y-282659757D01*
X387230541Y-282659757D02*
X387373398Y-282588328D01*
X387373398Y-282588328D02*
X387659112Y-282588328D01*
X387659112Y-282588328D02*
X387801970Y-282659757D01*
X388516255Y-283445471D02*
X388587684Y-283516900D01*
X388587684Y-283516900D02*
X388516255Y-283588328D01*
X388516255Y-283588328D02*
X388444827Y-283516900D01*
X388444827Y-283516900D02*
X388516255Y-283445471D01*
X388516255Y-283445471D02*
X388516255Y-283588328D01*
X388516255Y-282659757D02*
X388587684Y-282731185D01*
X388587684Y-282731185D02*
X388516255Y-282802614D01*
X388516255Y-282802614D02*
X388444827Y-282731185D01*
X388444827Y-282731185D02*
X388516255Y-282659757D01*
X388516255Y-282659757D02*
X388516255Y-282802614D01*
X391159113Y-283588328D02*
X390301970Y-283588328D01*
X390730541Y-283588328D02*
X390730541Y-282088328D01*
X390730541Y-282088328D02*
X390587684Y-282302614D01*
X390587684Y-282302614D02*
X390444827Y-282445471D01*
X390444827Y-282445471D02*
X390301970Y-282516900D01*
X392873398Y-282016900D02*
X391587684Y-283945471D01*
X394159113Y-283588328D02*
X393301970Y-283588328D01*
X393730541Y-283588328D02*
X393730541Y-282088328D01*
X393730541Y-282088328D02*
X393587684Y-282302614D01*
X393587684Y-282302614D02*
X393444827Y-282445471D01*
X393444827Y-282445471D02*
X393301970Y-282516900D01*
D10*
D11*
X299989000Y-274502200D02*
X407989000Y-274502200D01*
D10*
D13*
X301680728Y-275206638D02*
X302823585Y-275206638D01*
X302002157Y-277206638D02*
X302252157Y-275206638D01*
X303240252Y-277206638D02*
X303406919Y-275873304D01*
X303490252Y-275206638D02*
X303383109Y-275301876D01*
X303383109Y-275301876D02*
X303466443Y-275397114D01*
X303466443Y-275397114D02*
X303573586Y-275301876D01*
X303573586Y-275301876D02*
X303490252Y-275206638D01*
X303490252Y-275206638D02*
X303466443Y-275397114D01*
X304073586Y-275873304D02*
X304835490Y-275873304D01*
X304442633Y-275206638D02*
X304228348Y-276920923D01*
X304228348Y-276920923D02*
X304299776Y-277111400D01*
X304299776Y-277111400D02*
X304478348Y-277206638D01*
X304478348Y-277206638D02*
X304668824Y-277206638D01*
X305621205Y-277206638D02*
X305442633Y-277111400D01*
X305442633Y-277111400D02*
X305371205Y-276920923D01*
X305371205Y-276920923D02*
X305585490Y-275206638D01*
X307156919Y-277111400D02*
X306954538Y-277206638D01*
X306954538Y-277206638D02*
X306573585Y-277206638D01*
X306573585Y-277206638D02*
X306395014Y-277111400D01*
X306395014Y-277111400D02*
X306323585Y-276920923D01*
X306323585Y-276920923D02*
X306418824Y-276159019D01*
X306418824Y-276159019D02*
X306537871Y-275968542D01*
X306537871Y-275968542D02*
X306740252Y-275873304D01*
X306740252Y-275873304D02*
X307121204Y-275873304D01*
X307121204Y-275873304D02*
X307299776Y-275968542D01*
X307299776Y-275968542D02*
X307371204Y-276159019D01*
X307371204Y-276159019D02*
X307347395Y-276349495D01*
X307347395Y-276349495D02*
X306371204Y-276539971D01*
X308121205Y-277016161D02*
X308204538Y-277111400D01*
X308204538Y-277111400D02*
X308097395Y-277206638D01*
X308097395Y-277206638D02*
X308014062Y-277111400D01*
X308014062Y-277111400D02*
X308121205Y-277016161D01*
X308121205Y-277016161D02*
X308097395Y-277206638D01*
X308252157Y-275968542D02*
X308335490Y-276063780D01*
X308335490Y-276063780D02*
X308228348Y-276159019D01*
X308228348Y-276159019D02*
X308145014Y-276063780D01*
X308145014Y-276063780D02*
X308252157Y-275968542D01*
X308252157Y-275968542D02*
X308228348Y-276159019D01*
X310490253Y-277111400D02*
X310668824Y-277206638D01*
X310668824Y-277206638D02*
X311049777Y-277206638D01*
X311049777Y-277206638D02*
X311252158Y-277111400D01*
X311252158Y-277111400D02*
X311371205Y-276920923D01*
X311371205Y-276920923D02*
X311383110Y-276825685D01*
X311383110Y-276825685D02*
X311311681Y-276635209D01*
X311311681Y-276635209D02*
X311133110Y-276539971D01*
X311133110Y-276539971D02*
X310847396Y-276539971D01*
X310847396Y-276539971D02*
X310668824Y-276444733D01*
X310668824Y-276444733D02*
X310597396Y-276254257D01*
X310597396Y-276254257D02*
X310609301Y-276159019D01*
X310609301Y-276159019D02*
X310728348Y-275968542D01*
X310728348Y-275968542D02*
X310930729Y-275873304D01*
X310930729Y-275873304D02*
X311216443Y-275873304D01*
X311216443Y-275873304D02*
X311395015Y-275968542D01*
X312073587Y-275873304D02*
X312835491Y-275873304D01*
X312442634Y-275206638D02*
X312228349Y-276920923D01*
X312228349Y-276920923D02*
X312299777Y-277111400D01*
X312299777Y-277111400D02*
X312478349Y-277206638D01*
X312478349Y-277206638D02*
X312668825Y-277206638D01*
X313335491Y-277206638D02*
X313502158Y-275873304D01*
X313478348Y-276063780D02*
X313585491Y-275968542D01*
X313585491Y-275968542D02*
X313787872Y-275873304D01*
X313787872Y-275873304D02*
X314073586Y-275873304D01*
X314073586Y-275873304D02*
X314252158Y-275968542D01*
X314252158Y-275968542D02*
X314323586Y-276159019D01*
X314323586Y-276159019D02*
X314192634Y-277206638D01*
X314323586Y-276159019D02*
X314442634Y-275968542D01*
X314442634Y-275968542D02*
X314645015Y-275873304D01*
X314645015Y-275873304D02*
X314930729Y-275873304D01*
X314930729Y-275873304D02*
X315109301Y-275968542D01*
X315109301Y-275968542D02*
X315180729Y-276159019D01*
X315180729Y-276159019D02*
X315049777Y-277206638D01*
X316061682Y-275206638D02*
X317299777Y-275206638D01*
X317299777Y-275206638D02*
X316537873Y-275968542D01*
X316537873Y-275968542D02*
X316823587Y-275968542D01*
X316823587Y-275968542D02*
X317002158Y-276063780D01*
X317002158Y-276063780D02*
X317085492Y-276159019D01*
X317085492Y-276159019D02*
X317156920Y-276349495D01*
X317156920Y-276349495D02*
X317097396Y-276825685D01*
X317097396Y-276825685D02*
X316978349Y-277016161D01*
X316978349Y-277016161D02*
X316871206Y-277111400D01*
X316871206Y-277111400D02*
X316668825Y-277206638D01*
X316668825Y-277206638D02*
X316097396Y-277206638D01*
X316097396Y-277206638D02*
X315918825Y-277111400D01*
X315918825Y-277111400D02*
X315835492Y-277016161D01*
X318037873Y-275397114D02*
X318145015Y-275301876D01*
X318145015Y-275301876D02*
X318347396Y-275206638D01*
X318347396Y-275206638D02*
X318823587Y-275206638D01*
X318823587Y-275206638D02*
X319002158Y-275301876D01*
X319002158Y-275301876D02*
X319085492Y-275397114D01*
X319085492Y-275397114D02*
X319156920Y-275587590D01*
X319156920Y-275587590D02*
X319133111Y-275778066D01*
X319133111Y-275778066D02*
X319002158Y-276063780D01*
X319002158Y-276063780D02*
X317716444Y-277206638D01*
X317716444Y-277206638D02*
X318954539Y-277206638D01*
X319311682Y-277397114D02*
X320835492Y-277397114D01*
X321335492Y-277206638D02*
X321585492Y-275206638D01*
X321490254Y-275968542D02*
X321692635Y-275873304D01*
X321692635Y-275873304D02*
X322073587Y-275873304D01*
X322073587Y-275873304D02*
X322252159Y-275968542D01*
X322252159Y-275968542D02*
X322335492Y-276063780D01*
X322335492Y-276063780D02*
X322406921Y-276254257D01*
X322406921Y-276254257D02*
X322335492Y-276825685D01*
X322335492Y-276825685D02*
X322216445Y-277016161D01*
X322216445Y-277016161D02*
X322109302Y-277111400D01*
X322109302Y-277111400D02*
X321906921Y-277206638D01*
X321906921Y-277206638D02*
X321525968Y-277206638D01*
X321525968Y-277206638D02*
X321347397Y-277111400D01*
X323430731Y-277206638D02*
X323252159Y-277111400D01*
X323252159Y-277111400D02*
X323180731Y-276920923D01*
X323180731Y-276920923D02*
X323395016Y-275206638D01*
X325216445Y-275873304D02*
X325049778Y-277206638D01*
X324359302Y-275873304D02*
X324228350Y-276920923D01*
X324228350Y-276920923D02*
X324299778Y-277111400D01*
X324299778Y-277111400D02*
X324478350Y-277206638D01*
X324478350Y-277206638D02*
X324764064Y-277206638D01*
X324764064Y-277206638D02*
X324966445Y-277111400D01*
X324966445Y-277111400D02*
X325073588Y-277016161D01*
X326775969Y-277111400D02*
X326573588Y-277206638D01*
X326573588Y-277206638D02*
X326192635Y-277206638D01*
X326192635Y-277206638D02*
X326014064Y-277111400D01*
X326014064Y-277111400D02*
X325942635Y-276920923D01*
X325942635Y-276920923D02*
X326037874Y-276159019D01*
X326037874Y-276159019D02*
X326156921Y-275968542D01*
X326156921Y-275968542D02*
X326359302Y-275873304D01*
X326359302Y-275873304D02*
X326740254Y-275873304D01*
X326740254Y-275873304D02*
X326918826Y-275968542D01*
X326918826Y-275968542D02*
X326990254Y-276159019D01*
X326990254Y-276159019D02*
X326966445Y-276349495D01*
X326966445Y-276349495D02*
X325990254Y-276539971D01*
X327597398Y-275873304D02*
X328359302Y-275873304D01*
X327966445Y-275206638D02*
X327752160Y-276920923D01*
X327752160Y-276920923D02*
X327823588Y-277111400D01*
X327823588Y-277111400D02*
X328002160Y-277206638D01*
X328002160Y-277206638D02*
X328192636Y-277206638D01*
X328359302Y-277397114D02*
X329883112Y-277397114D01*
X330549779Y-275873304D02*
X330299779Y-277873304D01*
X330537874Y-275968542D02*
X330740255Y-275873304D01*
X330740255Y-275873304D02*
X331121207Y-275873304D01*
X331121207Y-275873304D02*
X331299779Y-275968542D01*
X331299779Y-275968542D02*
X331383112Y-276063780D01*
X331383112Y-276063780D02*
X331454541Y-276254257D01*
X331454541Y-276254257D02*
X331383112Y-276825685D01*
X331383112Y-276825685D02*
X331264065Y-277016161D01*
X331264065Y-277016161D02*
X331156922Y-277111400D01*
X331156922Y-277111400D02*
X330954541Y-277206638D01*
X330954541Y-277206638D02*
X330573588Y-277206638D01*
X330573588Y-277206638D02*
X330395017Y-277111400D01*
X332192636Y-277206638D02*
X332359303Y-275873304D01*
X332442636Y-275206638D02*
X332335493Y-275301876D01*
X332335493Y-275301876D02*
X332418827Y-275397114D01*
X332418827Y-275397114D02*
X332525970Y-275301876D01*
X332525970Y-275301876D02*
X332442636Y-275206638D01*
X332442636Y-275206638D02*
X332418827Y-275397114D01*
X333430732Y-277206638D02*
X333252160Y-277111400D01*
X333252160Y-277111400D02*
X333180732Y-276920923D01*
X333180732Y-276920923D02*
X333395017Y-275206638D01*
X334478351Y-277206638D02*
X334299779Y-277111400D01*
X334299779Y-277111400D02*
X334228351Y-276920923D01*
X334228351Y-276920923D02*
X334442636Y-275206638D01*
D10*
D11*
X301944826Y-272602614D02*
X301444826Y-272602614D01*
X301444826Y-273388328D02*
X301444826Y-271888328D01*
X301444826Y-271888328D02*
X302159112Y-271888328D01*
X302730540Y-273388328D02*
X302730540Y-272388328D01*
X302730540Y-271888328D02*
X302659112Y-271959757D01*
X302659112Y-271959757D02*
X302730540Y-272031185D01*
X302730540Y-272031185D02*
X302801969Y-271959757D01*
X302801969Y-271959757D02*
X302730540Y-271888328D01*
X302730540Y-271888328D02*
X302730540Y-272031185D01*
X303659112Y-273388328D02*
X303516255Y-273316900D01*
X303516255Y-273316900D02*
X303444826Y-273174042D01*
X303444826Y-273174042D02*
X303444826Y-271888328D01*
X304801969Y-273316900D02*
X304659112Y-273388328D01*
X304659112Y-273388328D02*
X304373398Y-273388328D01*
X304373398Y-273388328D02*
X304230540Y-273316900D01*
X304230540Y-273316900D02*
X304159112Y-273174042D01*
X304159112Y-273174042D02*
X304159112Y-272602614D01*
X304159112Y-272602614D02*
X304230540Y-272459757D01*
X304230540Y-272459757D02*
X304373398Y-272388328D01*
X304373398Y-272388328D02*
X304659112Y-272388328D01*
X304659112Y-272388328D02*
X304801969Y-272459757D01*
X304801969Y-272459757D02*
X304873398Y-272602614D01*
X304873398Y-272602614D02*
X304873398Y-272745471D01*
X304873398Y-272745471D02*
X304159112Y-272888328D01*
X305516254Y-273245471D02*
X305587683Y-273316900D01*
X305587683Y-273316900D02*
X305516254Y-273388328D01*
X305516254Y-273388328D02*
X305444826Y-273316900D01*
X305444826Y-273316900D02*
X305516254Y-273245471D01*
X305516254Y-273245471D02*
X305516254Y-273388328D01*
X305516254Y-272459757D02*
X305587683Y-272531185D01*
X305587683Y-272531185D02*
X305516254Y-272602614D01*
X305516254Y-272602614D02*
X305444826Y-272531185D01*
X305444826Y-272531185D02*
X305516254Y-272459757D01*
X305516254Y-272459757D02*
X305516254Y-272602614D01*
X307301969Y-273316900D02*
X307444826Y-273388328D01*
X307444826Y-273388328D02*
X307730540Y-273388328D01*
X307730540Y-273388328D02*
X307873397Y-273316900D01*
X307873397Y-273316900D02*
X307944826Y-273174042D01*
X307944826Y-273174042D02*
X307944826Y-273102614D01*
X307944826Y-273102614D02*
X307873397Y-272959757D01*
X307873397Y-272959757D02*
X307730540Y-272888328D01*
X307730540Y-272888328D02*
X307516255Y-272888328D01*
X307516255Y-272888328D02*
X307373397Y-272816900D01*
X307373397Y-272816900D02*
X307301969Y-272674042D01*
X307301969Y-272674042D02*
X307301969Y-272602614D01*
X307301969Y-272602614D02*
X307373397Y-272459757D01*
X307373397Y-272459757D02*
X307516255Y-272388328D01*
X307516255Y-272388328D02*
X307730540Y-272388328D01*
X307730540Y-272388328D02*
X307873397Y-272459757D01*
X308373398Y-272388328D02*
X308944826Y-272388328D01*
X308587683Y-271888328D02*
X308587683Y-273174042D01*
X308587683Y-273174042D02*
X308659112Y-273316900D01*
X308659112Y-273316900D02*
X308801969Y-273388328D01*
X308801969Y-273388328D02*
X308944826Y-273388328D01*
X309444826Y-273388328D02*
X309444826Y-272388328D01*
X309444826Y-272531185D02*
X309516255Y-272459757D01*
X309516255Y-272459757D02*
X309659112Y-272388328D01*
X309659112Y-272388328D02*
X309873398Y-272388328D01*
X309873398Y-272388328D02*
X310016255Y-272459757D01*
X310016255Y-272459757D02*
X310087684Y-272602614D01*
X310087684Y-272602614D02*
X310087684Y-273388328D01*
X310087684Y-272602614D02*
X310159112Y-272459757D01*
X310159112Y-272459757D02*
X310301969Y-272388328D01*
X310301969Y-272388328D02*
X310516255Y-272388328D01*
X310516255Y-272388328D02*
X310659112Y-272459757D01*
X310659112Y-272459757D02*
X310730541Y-272602614D01*
X310730541Y-272602614D02*
X310730541Y-273388328D01*
X311301969Y-271888328D02*
X312230541Y-271888328D01*
X312230541Y-271888328D02*
X311730541Y-272459757D01*
X311730541Y-272459757D02*
X311944826Y-272459757D01*
X311944826Y-272459757D02*
X312087684Y-272531185D01*
X312087684Y-272531185D02*
X312159112Y-272602614D01*
X312159112Y-272602614D02*
X312230541Y-272745471D01*
X312230541Y-272745471D02*
X312230541Y-273102614D01*
X312230541Y-273102614D02*
X312159112Y-273245471D01*
X312159112Y-273245471D02*
X312087684Y-273316900D01*
X312087684Y-273316900D02*
X311944826Y-273388328D01*
X311944826Y-273388328D02*
X311516255Y-273388328D01*
X311516255Y-273388328D02*
X311373398Y-273316900D01*
X311373398Y-273316900D02*
X311301969Y-273245471D01*
X312801969Y-272031185D02*
X312873397Y-271959757D01*
X312873397Y-271959757D02*
X313016255Y-271888328D01*
X313016255Y-271888328D02*
X313373397Y-271888328D01*
X313373397Y-271888328D02*
X313516255Y-271959757D01*
X313516255Y-271959757D02*
X313587683Y-272031185D01*
X313587683Y-272031185D02*
X313659112Y-272174042D01*
X313659112Y-272174042D02*
X313659112Y-272316900D01*
X313659112Y-272316900D02*
X313587683Y-272531185D01*
X313587683Y-272531185D02*
X312730540Y-273388328D01*
X312730540Y-273388328D02*
X313659112Y-273388328D01*
X313944826Y-273531185D02*
X315087683Y-273531185D01*
X315444825Y-273388328D02*
X315444825Y-271888328D01*
X315444825Y-272459757D02*
X315587683Y-272388328D01*
X315587683Y-272388328D02*
X315873397Y-272388328D01*
X315873397Y-272388328D02*
X316016254Y-272459757D01*
X316016254Y-272459757D02*
X316087683Y-272531185D01*
X316087683Y-272531185D02*
X316159111Y-272674042D01*
X316159111Y-272674042D02*
X316159111Y-273102614D01*
X316159111Y-273102614D02*
X316087683Y-273245471D01*
X316087683Y-273245471D02*
X316016254Y-273316900D01*
X316016254Y-273316900D02*
X315873397Y-273388328D01*
X315873397Y-273388328D02*
X315587683Y-273388328D01*
X315587683Y-273388328D02*
X315444825Y-273316900D01*
X317016254Y-273388328D02*
X316873397Y-273316900D01*
X316873397Y-273316900D02*
X316801968Y-273174042D01*
X316801968Y-273174042D02*
X316801968Y-271888328D01*
X318230540Y-272388328D02*
X318230540Y-273388328D01*
X317587682Y-272388328D02*
X317587682Y-273174042D01*
X317587682Y-273174042D02*
X317659111Y-273316900D01*
X317659111Y-273316900D02*
X317801968Y-273388328D01*
X317801968Y-273388328D02*
X318016254Y-273388328D01*
X318016254Y-273388328D02*
X318159111Y-273316900D01*
X318159111Y-273316900D02*
X318230540Y-273245471D01*
X319516254Y-273316900D02*
X319373397Y-273388328D01*
X319373397Y-273388328D02*
X319087683Y-273388328D01*
X319087683Y-273388328D02*
X318944825Y-273316900D01*
X318944825Y-273316900D02*
X318873397Y-273174042D01*
X318873397Y-273174042D02*
X318873397Y-272602614D01*
X318873397Y-272602614D02*
X318944825Y-272459757D01*
X318944825Y-272459757D02*
X319087683Y-272388328D01*
X319087683Y-272388328D02*
X319373397Y-272388328D01*
X319373397Y-272388328D02*
X319516254Y-272459757D01*
X319516254Y-272459757D02*
X319587683Y-272602614D01*
X319587683Y-272602614D02*
X319587683Y-272745471D01*
X319587683Y-272745471D02*
X318873397Y-272888328D01*
X320016254Y-272388328D02*
X320587682Y-272388328D01*
X320230539Y-271888328D02*
X320230539Y-273174042D01*
X320230539Y-273174042D02*
X320301968Y-273316900D01*
X320301968Y-273316900D02*
X320444825Y-273388328D01*
X320444825Y-273388328D02*
X320587682Y-273388328D01*
X320730540Y-273531185D02*
X321873397Y-273531185D01*
X322230539Y-272388328D02*
X322230539Y-273888328D01*
X322230539Y-272459757D02*
X322373397Y-272388328D01*
X322373397Y-272388328D02*
X322659111Y-272388328D01*
X322659111Y-272388328D02*
X322801968Y-272459757D01*
X322801968Y-272459757D02*
X322873397Y-272531185D01*
X322873397Y-272531185D02*
X322944825Y-272674042D01*
X322944825Y-272674042D02*
X322944825Y-273102614D01*
X322944825Y-273102614D02*
X322873397Y-273245471D01*
X322873397Y-273245471D02*
X322801968Y-273316900D01*
X322801968Y-273316900D02*
X322659111Y-273388328D01*
X322659111Y-273388328D02*
X322373397Y-273388328D01*
X322373397Y-273388328D02*
X322230539Y-273316900D01*
X323587682Y-273388328D02*
X323587682Y-272388328D01*
X323587682Y-271888328D02*
X323516254Y-271959757D01*
X323516254Y-271959757D02*
X323587682Y-272031185D01*
X323587682Y-272031185D02*
X323659111Y-271959757D01*
X323659111Y-271959757D02*
X323587682Y-271888328D01*
X323587682Y-271888328D02*
X323587682Y-272031185D01*
X324516254Y-273388328D02*
X324373397Y-273316900D01*
X324373397Y-273316900D02*
X324301968Y-273174042D01*
X324301968Y-273174042D02*
X324301968Y-271888328D01*
X325301968Y-273388328D02*
X325159111Y-273316900D01*
X325159111Y-273316900D02*
X325087682Y-273174042D01*
X325087682Y-273174042D02*
X325087682Y-271888328D01*
X325873396Y-273245471D02*
X325944825Y-273316900D01*
X325944825Y-273316900D02*
X325873396Y-273388328D01*
X325873396Y-273388328D02*
X325801968Y-273316900D01*
X325801968Y-273316900D02*
X325873396Y-273245471D01*
X325873396Y-273245471D02*
X325873396Y-273388328D01*
X326587682Y-273388328D02*
X326587682Y-271888328D01*
X326730540Y-272816900D02*
X327159111Y-273388328D01*
X327159111Y-272388328D02*
X326587682Y-272959757D01*
X327801968Y-273388328D02*
X327801968Y-272388328D01*
X327801968Y-271888328D02*
X327730540Y-271959757D01*
X327730540Y-271959757D02*
X327801968Y-272031185D01*
X327801968Y-272031185D02*
X327873397Y-271959757D01*
X327873397Y-271959757D02*
X327801968Y-271888328D01*
X327801968Y-271888328D02*
X327801968Y-272031185D01*
X329159112Y-273316900D02*
X329016254Y-273388328D01*
X329016254Y-273388328D02*
X328730540Y-273388328D01*
X328730540Y-273388328D02*
X328587683Y-273316900D01*
X328587683Y-273316900D02*
X328516254Y-273245471D01*
X328516254Y-273245471D02*
X328444826Y-273102614D01*
X328444826Y-273102614D02*
X328444826Y-272674042D01*
X328444826Y-272674042D02*
X328516254Y-272531185D01*
X328516254Y-272531185D02*
X328587683Y-272459757D01*
X328587683Y-272459757D02*
X328730540Y-272388328D01*
X328730540Y-272388328D02*
X329016254Y-272388328D01*
X329016254Y-272388328D02*
X329159112Y-272459757D01*
X330444826Y-273388328D02*
X330444826Y-272602614D01*
X330444826Y-272602614D02*
X330373397Y-272459757D01*
X330373397Y-272459757D02*
X330230540Y-272388328D01*
X330230540Y-272388328D02*
X329944826Y-272388328D01*
X329944826Y-272388328D02*
X329801968Y-272459757D01*
X330444826Y-273316900D02*
X330301968Y-273388328D01*
X330301968Y-273388328D02*
X329944826Y-273388328D01*
X329944826Y-273388328D02*
X329801968Y-273316900D01*
X329801968Y-273316900D02*
X329730540Y-273174042D01*
X329730540Y-273174042D02*
X329730540Y-273031185D01*
X329730540Y-273031185D02*
X329801968Y-272888328D01*
X329801968Y-272888328D02*
X329944826Y-272816900D01*
X329944826Y-272816900D02*
X330301968Y-272816900D01*
X330301968Y-272816900D02*
X330444826Y-272745471D01*
X331801969Y-273388328D02*
X331801969Y-271888328D01*
X331801969Y-273316900D02*
X331659111Y-273388328D01*
X331659111Y-273388328D02*
X331373397Y-273388328D01*
X331373397Y-273388328D02*
X331230540Y-273316900D01*
X331230540Y-273316900D02*
X331159111Y-273245471D01*
X331159111Y-273245471D02*
X331087683Y-273102614D01*
X331087683Y-273102614D02*
X331087683Y-272674042D01*
X331087683Y-272674042D02*
X331159111Y-272531185D01*
X331159111Y-272531185D02*
X331230540Y-272459757D01*
X331230540Y-272459757D02*
X331373397Y-272388328D01*
X331373397Y-272388328D02*
X331659111Y-272388328D01*
X331659111Y-272388328D02*
X331801969Y-272459757D01*
X332159112Y-273531185D02*
X333301969Y-273531185D01*
X333659111Y-272388328D02*
X333659111Y-273888328D01*
X333659111Y-272459757D02*
X333801969Y-272388328D01*
X333801969Y-272388328D02*
X334087683Y-272388328D01*
X334087683Y-272388328D02*
X334230540Y-272459757D01*
X334230540Y-272459757D02*
X334301969Y-272531185D01*
X334301969Y-272531185D02*
X334373397Y-272674042D01*
X334373397Y-272674042D02*
X334373397Y-273102614D01*
X334373397Y-273102614D02*
X334301969Y-273245471D01*
X334301969Y-273245471D02*
X334230540Y-273316900D01*
X334230540Y-273316900D02*
X334087683Y-273388328D01*
X334087683Y-273388328D02*
X333801969Y-273388328D01*
X333801969Y-273388328D02*
X333659111Y-273316900D01*
X335659112Y-273316900D02*
X335516254Y-273388328D01*
X335516254Y-273388328D02*
X335230540Y-273388328D01*
X335230540Y-273388328D02*
X335087683Y-273316900D01*
X335087683Y-273316900D02*
X335016254Y-273245471D01*
X335016254Y-273245471D02*
X334944826Y-273102614D01*
X334944826Y-273102614D02*
X334944826Y-272674042D01*
X334944826Y-272674042D02*
X335016254Y-272531185D01*
X335016254Y-272531185D02*
X335087683Y-272459757D01*
X335087683Y-272459757D02*
X335230540Y-272388328D01*
X335230540Y-272388328D02*
X335516254Y-272388328D01*
X335516254Y-272388328D02*
X335659112Y-272459757D01*
X336301968Y-273388328D02*
X336301968Y-271888328D01*
X336301968Y-272459757D02*
X336444826Y-272388328D01*
X336444826Y-272388328D02*
X336730540Y-272388328D01*
X336730540Y-272388328D02*
X336873397Y-272459757D01*
X336873397Y-272459757D02*
X336944826Y-272531185D01*
X336944826Y-272531185D02*
X337016254Y-272674042D01*
X337016254Y-272674042D02*
X337016254Y-273102614D01*
X337016254Y-273102614D02*
X336944826Y-273245471D01*
X336944826Y-273245471D02*
X336873397Y-273316900D01*
X336873397Y-273316900D02*
X336730540Y-273388328D01*
X336730540Y-273388328D02*
X336444826Y-273388328D01*
X336444826Y-273388328D02*
X336301968Y-273316900D01*
D10*
D11*
X299989000Y-268502200D02*
X407989000Y-268502200D01*
D10*
D11*
X301373398Y-270616900D02*
X301587684Y-270688328D01*
X301587684Y-270688328D02*
X301944826Y-270688328D01*
X301944826Y-270688328D02*
X302087684Y-270616900D01*
X302087684Y-270616900D02*
X302159112Y-270545471D01*
X302159112Y-270545471D02*
X302230541Y-270402614D01*
X302230541Y-270402614D02*
X302230541Y-270259757D01*
X302230541Y-270259757D02*
X302159112Y-270116900D01*
X302159112Y-270116900D02*
X302087684Y-270045471D01*
X302087684Y-270045471D02*
X301944826Y-269974042D01*
X301944826Y-269974042D02*
X301659112Y-269902614D01*
X301659112Y-269902614D02*
X301516255Y-269831185D01*
X301516255Y-269831185D02*
X301444826Y-269759757D01*
X301444826Y-269759757D02*
X301373398Y-269616900D01*
X301373398Y-269616900D02*
X301373398Y-269474042D01*
X301373398Y-269474042D02*
X301444826Y-269331185D01*
X301444826Y-269331185D02*
X301516255Y-269259757D01*
X301516255Y-269259757D02*
X301659112Y-269188328D01*
X301659112Y-269188328D02*
X302016255Y-269188328D01*
X302016255Y-269188328D02*
X302230541Y-269259757D01*
X302873397Y-270688328D02*
X302873397Y-269188328D01*
X303516255Y-270688328D02*
X303516255Y-269902614D01*
X303516255Y-269902614D02*
X303444826Y-269759757D01*
X303444826Y-269759757D02*
X303301969Y-269688328D01*
X303301969Y-269688328D02*
X303087683Y-269688328D01*
X303087683Y-269688328D02*
X302944826Y-269759757D01*
X302944826Y-269759757D02*
X302873397Y-269831185D01*
X304801969Y-270616900D02*
X304659112Y-270688328D01*
X304659112Y-270688328D02*
X304373398Y-270688328D01*
X304373398Y-270688328D02*
X304230540Y-270616900D01*
X304230540Y-270616900D02*
X304159112Y-270474042D01*
X304159112Y-270474042D02*
X304159112Y-269902614D01*
X304159112Y-269902614D02*
X304230540Y-269759757D01*
X304230540Y-269759757D02*
X304373398Y-269688328D01*
X304373398Y-269688328D02*
X304659112Y-269688328D01*
X304659112Y-269688328D02*
X304801969Y-269759757D01*
X304801969Y-269759757D02*
X304873398Y-269902614D01*
X304873398Y-269902614D02*
X304873398Y-270045471D01*
X304873398Y-270045471D02*
X304159112Y-270188328D01*
X306087683Y-270616900D02*
X305944826Y-270688328D01*
X305944826Y-270688328D02*
X305659112Y-270688328D01*
X305659112Y-270688328D02*
X305516254Y-270616900D01*
X305516254Y-270616900D02*
X305444826Y-270474042D01*
X305444826Y-270474042D02*
X305444826Y-269902614D01*
X305444826Y-269902614D02*
X305516254Y-269759757D01*
X305516254Y-269759757D02*
X305659112Y-269688328D01*
X305659112Y-269688328D02*
X305944826Y-269688328D01*
X305944826Y-269688328D02*
X306087683Y-269759757D01*
X306087683Y-269759757D02*
X306159112Y-269902614D01*
X306159112Y-269902614D02*
X306159112Y-270045471D01*
X306159112Y-270045471D02*
X305444826Y-270188328D01*
X306587683Y-269688328D02*
X307159111Y-269688328D01*
X306801968Y-269188328D02*
X306801968Y-270474042D01*
X306801968Y-270474042D02*
X306873397Y-270616900D01*
X306873397Y-270616900D02*
X307016254Y-270688328D01*
X307016254Y-270688328D02*
X307159111Y-270688328D01*
X307659111Y-270545471D02*
X307730540Y-270616900D01*
X307730540Y-270616900D02*
X307659111Y-270688328D01*
X307659111Y-270688328D02*
X307587683Y-270616900D01*
X307587683Y-270616900D02*
X307659111Y-270545471D01*
X307659111Y-270545471D02*
X307659111Y-270688328D01*
X307659111Y-269759757D02*
X307730540Y-269831185D01*
X307730540Y-269831185D02*
X307659111Y-269902614D01*
X307659111Y-269902614D02*
X307587683Y-269831185D01*
X307587683Y-269831185D02*
X307659111Y-269759757D01*
X307659111Y-269759757D02*
X307659111Y-269902614D01*
D10*
D12*
X302043510Y-266894814D02*
X302257796Y-266966242D01*
X302257796Y-266966242D02*
X302329225Y-267037671D01*
X302329225Y-267037671D02*
X302400653Y-267180528D01*
X302400653Y-267180528D02*
X302400653Y-267394814D01*
X302400653Y-267394814D02*
X302329225Y-267537671D01*
X302329225Y-267537671D02*
X302257796Y-267609100D01*
X302257796Y-267609100D02*
X302114939Y-267680528D01*
X302114939Y-267680528D02*
X301543510Y-267680528D01*
X301543510Y-267680528D02*
X301543510Y-266180528D01*
X301543510Y-266180528D02*
X302043510Y-266180528D01*
X302043510Y-266180528D02*
X302186368Y-266251957D01*
X302186368Y-266251957D02*
X302257796Y-266323385D01*
X302257796Y-266323385D02*
X302329225Y-266466242D01*
X302329225Y-266466242D02*
X302329225Y-266609100D01*
X302329225Y-266609100D02*
X302257796Y-266751957D01*
X302257796Y-266751957D02*
X302186368Y-266823385D01*
X302186368Y-266823385D02*
X302043510Y-266894814D01*
X302043510Y-266894814D02*
X301543510Y-266894814D01*
X303043510Y-267680528D02*
X303043510Y-266680528D01*
X303043510Y-266966242D02*
X303114939Y-266823385D01*
X303114939Y-266823385D02*
X303186368Y-266751957D01*
X303186368Y-266751957D02*
X303329225Y-266680528D01*
X303329225Y-266680528D02*
X303472082Y-266680528D01*
X304543510Y-267609100D02*
X304400653Y-267680528D01*
X304400653Y-267680528D02*
X304114939Y-267680528D01*
X304114939Y-267680528D02*
X303972081Y-267609100D01*
X303972081Y-267609100D02*
X303900653Y-267466242D01*
X303900653Y-267466242D02*
X303900653Y-266894814D01*
X303900653Y-266894814D02*
X303972081Y-266751957D01*
X303972081Y-266751957D02*
X304114939Y-266680528D01*
X304114939Y-266680528D02*
X304400653Y-266680528D01*
X304400653Y-266680528D02*
X304543510Y-266751957D01*
X304543510Y-266751957D02*
X304614939Y-266894814D01*
X304614939Y-266894814D02*
X304614939Y-267037671D01*
X304614939Y-267037671D02*
X303900653Y-267180528D01*
X305257795Y-266680528D02*
X305257795Y-267680528D01*
X305257795Y-266823385D02*
X305329224Y-266751957D01*
X305329224Y-266751957D02*
X305472081Y-266680528D01*
X305472081Y-266680528D02*
X305686367Y-266680528D01*
X305686367Y-266680528D02*
X305829224Y-266751957D01*
X305829224Y-266751957D02*
X305900653Y-266894814D01*
X305900653Y-266894814D02*
X305900653Y-267680528D01*
X307257796Y-267680528D02*
X307257796Y-266180528D01*
X307257796Y-267609100D02*
X307114938Y-267680528D01*
X307114938Y-267680528D02*
X306829224Y-267680528D01*
X306829224Y-267680528D02*
X306686367Y-267609100D01*
X306686367Y-267609100D02*
X306614938Y-267537671D01*
X306614938Y-267537671D02*
X306543510Y-267394814D01*
X306543510Y-267394814D02*
X306543510Y-266966242D01*
X306543510Y-266966242D02*
X306614938Y-266823385D01*
X306614938Y-266823385D02*
X306686367Y-266751957D01*
X306686367Y-266751957D02*
X306829224Y-266680528D01*
X306829224Y-266680528D02*
X307114938Y-266680528D01*
X307114938Y-266680528D02*
X307257796Y-266751957D01*
X308614939Y-267680528D02*
X308614939Y-266894814D01*
X308614939Y-266894814D02*
X308543510Y-266751957D01*
X308543510Y-266751957D02*
X308400653Y-266680528D01*
X308400653Y-266680528D02*
X308114939Y-266680528D01*
X308114939Y-266680528D02*
X307972081Y-266751957D01*
X308614939Y-267609100D02*
X308472081Y-267680528D01*
X308472081Y-267680528D02*
X308114939Y-267680528D01*
X308114939Y-267680528D02*
X307972081Y-267609100D01*
X307972081Y-267609100D02*
X307900653Y-267466242D01*
X307900653Y-267466242D02*
X307900653Y-267323385D01*
X307900653Y-267323385D02*
X307972081Y-267180528D01*
X307972081Y-267180528D02*
X308114939Y-267109100D01*
X308114939Y-267109100D02*
X308472081Y-267109100D01*
X308472081Y-267109100D02*
X308614939Y-267037671D01*
X309329224Y-266680528D02*
X309329224Y-267680528D01*
X309329224Y-266823385D02*
X309400653Y-266751957D01*
X309400653Y-266751957D02*
X309543510Y-266680528D01*
X309543510Y-266680528D02*
X309757796Y-266680528D01*
X309757796Y-266680528D02*
X309900653Y-266751957D01*
X309900653Y-266751957D02*
X309972082Y-266894814D01*
X309972082Y-266894814D02*
X309972082Y-267680528D01*
X312329224Y-266894814D02*
X312543510Y-266966242D01*
X312543510Y-266966242D02*
X312614939Y-267037671D01*
X312614939Y-267037671D02*
X312686367Y-267180528D01*
X312686367Y-267180528D02*
X312686367Y-267394814D01*
X312686367Y-267394814D02*
X312614939Y-267537671D01*
X312614939Y-267537671D02*
X312543510Y-267609100D01*
X312543510Y-267609100D02*
X312400653Y-267680528D01*
X312400653Y-267680528D02*
X311829224Y-267680528D01*
X311829224Y-267680528D02*
X311829224Y-266180528D01*
X311829224Y-266180528D02*
X312329224Y-266180528D01*
X312329224Y-266180528D02*
X312472082Y-266251957D01*
X312472082Y-266251957D02*
X312543510Y-266323385D01*
X312543510Y-266323385D02*
X312614939Y-266466242D01*
X312614939Y-266466242D02*
X312614939Y-266609100D01*
X312614939Y-266609100D02*
X312543510Y-266751957D01*
X312543510Y-266751957D02*
X312472082Y-266823385D01*
X312472082Y-266823385D02*
X312329224Y-266894814D01*
X312329224Y-266894814D02*
X311829224Y-266894814D01*
X313543510Y-267680528D02*
X313400653Y-267609100D01*
X313400653Y-267609100D02*
X313329224Y-267466242D01*
X313329224Y-267466242D02*
X313329224Y-266180528D01*
X314686367Y-267609100D02*
X314543510Y-267680528D01*
X314543510Y-267680528D02*
X314257796Y-267680528D01*
X314257796Y-267680528D02*
X314114938Y-267609100D01*
X314114938Y-267609100D02*
X314043510Y-267466242D01*
X314043510Y-267466242D02*
X314043510Y-266894814D01*
X314043510Y-266894814D02*
X314114938Y-266751957D01*
X314114938Y-266751957D02*
X314257796Y-266680528D01*
X314257796Y-266680528D02*
X314543510Y-266680528D01*
X314543510Y-266680528D02*
X314686367Y-266751957D01*
X314686367Y-266751957D02*
X314757796Y-266894814D01*
X314757796Y-266894814D02*
X314757796Y-267037671D01*
X314757796Y-267037671D02*
X314043510Y-267180528D01*
X315400652Y-267680528D02*
X315400652Y-266180528D01*
X315543510Y-267109100D02*
X315972081Y-267680528D01*
X315972081Y-266680528D02*
X315400652Y-267251957D01*
X317186367Y-267609100D02*
X317043510Y-267680528D01*
X317043510Y-267680528D02*
X316757796Y-267680528D01*
X316757796Y-267680528D02*
X316614938Y-267609100D01*
X316614938Y-267609100D02*
X316543510Y-267466242D01*
X316543510Y-267466242D02*
X316543510Y-266894814D01*
X316543510Y-266894814D02*
X316614938Y-266751957D01*
X316614938Y-266751957D02*
X316757796Y-266680528D01*
X316757796Y-266680528D02*
X317043510Y-266680528D01*
X317043510Y-266680528D02*
X317186367Y-266751957D01*
X317186367Y-266751957D02*
X317257796Y-266894814D01*
X317257796Y-266894814D02*
X317257796Y-267037671D01*
X317257796Y-267037671D02*
X316543510Y-267180528D01*
X317900652Y-267680528D02*
X317900652Y-266680528D01*
X317900652Y-266966242D02*
X317972081Y-266823385D01*
X317972081Y-266823385D02*
X318043510Y-266751957D01*
X318043510Y-266751957D02*
X318186367Y-266680528D01*
X318186367Y-266680528D02*
X318329224Y-266680528D01*
D10*
D11*
X301444826Y-264688328D02*
X301444826Y-263188328D01*
X301444826Y-263188328D02*
X301801969Y-263188328D01*
X301801969Y-263188328D02*
X302016255Y-263259757D01*
X302016255Y-263259757D02*
X302159112Y-263402614D01*
X302159112Y-263402614D02*
X302230541Y-263545471D01*
X302230541Y-263545471D02*
X302301969Y-263831185D01*
X302301969Y-263831185D02*
X302301969Y-264045471D01*
X302301969Y-264045471D02*
X302230541Y-264331185D01*
X302230541Y-264331185D02*
X302159112Y-264474042D01*
X302159112Y-264474042D02*
X302016255Y-264616900D01*
X302016255Y-264616900D02*
X301801969Y-264688328D01*
X301801969Y-264688328D02*
X301444826Y-264688328D01*
X303516255Y-264616900D02*
X303373398Y-264688328D01*
X303373398Y-264688328D02*
X303087684Y-264688328D01*
X303087684Y-264688328D02*
X302944826Y-264616900D01*
X302944826Y-264616900D02*
X302873398Y-264474042D01*
X302873398Y-264474042D02*
X302873398Y-263902614D01*
X302873398Y-263902614D02*
X302944826Y-263759757D01*
X302944826Y-263759757D02*
X303087684Y-263688328D01*
X303087684Y-263688328D02*
X303373398Y-263688328D01*
X303373398Y-263688328D02*
X303516255Y-263759757D01*
X303516255Y-263759757D02*
X303587684Y-263902614D01*
X303587684Y-263902614D02*
X303587684Y-264045471D01*
X303587684Y-264045471D02*
X302873398Y-264188328D01*
X304159112Y-264616900D02*
X304301969Y-264688328D01*
X304301969Y-264688328D02*
X304587683Y-264688328D01*
X304587683Y-264688328D02*
X304730540Y-264616900D01*
X304730540Y-264616900D02*
X304801969Y-264474042D01*
X304801969Y-264474042D02*
X304801969Y-264402614D01*
X304801969Y-264402614D02*
X304730540Y-264259757D01*
X304730540Y-264259757D02*
X304587683Y-264188328D01*
X304587683Y-264188328D02*
X304373398Y-264188328D01*
X304373398Y-264188328D02*
X304230540Y-264116900D01*
X304230540Y-264116900D02*
X304159112Y-263974042D01*
X304159112Y-263974042D02*
X304159112Y-263902614D01*
X304159112Y-263902614D02*
X304230540Y-263759757D01*
X304230540Y-263759757D02*
X304373398Y-263688328D01*
X304373398Y-263688328D02*
X304587683Y-263688328D01*
X304587683Y-263688328D02*
X304730540Y-263759757D01*
X305444826Y-264688328D02*
X305444826Y-263688328D01*
X305444826Y-263188328D02*
X305373398Y-263259757D01*
X305373398Y-263259757D02*
X305444826Y-263331185D01*
X305444826Y-263331185D02*
X305516255Y-263259757D01*
X305516255Y-263259757D02*
X305444826Y-263188328D01*
X305444826Y-263188328D02*
X305444826Y-263331185D01*
X306801970Y-263688328D02*
X306801970Y-264902614D01*
X306801970Y-264902614D02*
X306730541Y-265045471D01*
X306730541Y-265045471D02*
X306659112Y-265116900D01*
X306659112Y-265116900D02*
X306516255Y-265188328D01*
X306516255Y-265188328D02*
X306301970Y-265188328D01*
X306301970Y-265188328D02*
X306159112Y-265116900D01*
X306801970Y-264616900D02*
X306659112Y-264688328D01*
X306659112Y-264688328D02*
X306373398Y-264688328D01*
X306373398Y-264688328D02*
X306230541Y-264616900D01*
X306230541Y-264616900D02*
X306159112Y-264545471D01*
X306159112Y-264545471D02*
X306087684Y-264402614D01*
X306087684Y-264402614D02*
X306087684Y-263974042D01*
X306087684Y-263974042D02*
X306159112Y-263831185D01*
X306159112Y-263831185D02*
X306230541Y-263759757D01*
X306230541Y-263759757D02*
X306373398Y-263688328D01*
X306373398Y-263688328D02*
X306659112Y-263688328D01*
X306659112Y-263688328D02*
X306801970Y-263759757D01*
X307516255Y-263688328D02*
X307516255Y-264688328D01*
X307516255Y-263831185D02*
X307587684Y-263759757D01*
X307587684Y-263759757D02*
X307730541Y-263688328D01*
X307730541Y-263688328D02*
X307944827Y-263688328D01*
X307944827Y-263688328D02*
X308087684Y-263759757D01*
X308087684Y-263759757D02*
X308159113Y-263902614D01*
X308159113Y-263902614D02*
X308159113Y-264688328D01*
X309444827Y-264616900D02*
X309301970Y-264688328D01*
X309301970Y-264688328D02*
X309016256Y-264688328D01*
X309016256Y-264688328D02*
X308873398Y-264616900D01*
X308873398Y-264616900D02*
X308801970Y-264474042D01*
X308801970Y-264474042D02*
X308801970Y-263902614D01*
X308801970Y-263902614D02*
X308873398Y-263759757D01*
X308873398Y-263759757D02*
X309016256Y-263688328D01*
X309016256Y-263688328D02*
X309301970Y-263688328D01*
X309301970Y-263688328D02*
X309444827Y-263759757D01*
X309444827Y-263759757D02*
X309516256Y-263902614D01*
X309516256Y-263902614D02*
X309516256Y-264045471D01*
X309516256Y-264045471D02*
X308801970Y-264188328D01*
X310801970Y-264688328D02*
X310801970Y-263188328D01*
X310801970Y-264616900D02*
X310659112Y-264688328D01*
X310659112Y-264688328D02*
X310373398Y-264688328D01*
X310373398Y-264688328D02*
X310230541Y-264616900D01*
X310230541Y-264616900D02*
X310159112Y-264545471D01*
X310159112Y-264545471D02*
X310087684Y-264402614D01*
X310087684Y-264402614D02*
X310087684Y-263974042D01*
X310087684Y-263974042D02*
X310159112Y-263831185D01*
X310159112Y-263831185D02*
X310230541Y-263759757D01*
X310230541Y-263759757D02*
X310373398Y-263688328D01*
X310373398Y-263688328D02*
X310659112Y-263688328D01*
X310659112Y-263688328D02*
X310801970Y-263759757D01*
X312659112Y-264688328D02*
X312659112Y-263188328D01*
X312659112Y-263759757D02*
X312801970Y-263688328D01*
X312801970Y-263688328D02*
X313087684Y-263688328D01*
X313087684Y-263688328D02*
X313230541Y-263759757D01*
X313230541Y-263759757D02*
X313301970Y-263831185D01*
X313301970Y-263831185D02*
X313373398Y-263974042D01*
X313373398Y-263974042D02*
X313373398Y-264402614D01*
X313373398Y-264402614D02*
X313301970Y-264545471D01*
X313301970Y-264545471D02*
X313230541Y-264616900D01*
X313230541Y-264616900D02*
X313087684Y-264688328D01*
X313087684Y-264688328D02*
X312801970Y-264688328D01*
X312801970Y-264688328D02*
X312659112Y-264616900D01*
X313873398Y-263688328D02*
X314230541Y-264688328D01*
X314587684Y-263688328D02*
X314230541Y-264688328D01*
X314230541Y-264688328D02*
X314087684Y-265045471D01*
X314087684Y-265045471D02*
X314016255Y-265116900D01*
X314016255Y-265116900D02*
X313873398Y-265188328D01*
X315159112Y-264545471D02*
X315230541Y-264616900D01*
X315230541Y-264616900D02*
X315159112Y-264688328D01*
X315159112Y-264688328D02*
X315087684Y-264616900D01*
X315087684Y-264616900D02*
X315159112Y-264545471D01*
X315159112Y-264545471D02*
X315159112Y-264688328D01*
X315159112Y-263759757D02*
X315230541Y-263831185D01*
X315230541Y-263831185D02*
X315159112Y-263902614D01*
X315159112Y-263902614D02*
X315087684Y-263831185D01*
X315087684Y-263831185D02*
X315159112Y-263759757D01*
X315159112Y-263759757D02*
X315159112Y-263902614D01*
D10*
D11*
X319989000Y-278502200D02*
X319989000Y-281502200D01*
D10*
D11*
X383989000Y-278502200D02*
X383989000Y-285002200D01*
%TO.C,TP1*%
D14*
X229918400Y-135825800D02*
X227618400Y-135825800D01*
X227618400Y-134375800D01*
X229918400Y-134375800D01*
X229918400Y-135825800D01*
G36*
X229918400Y-135825800D02*
G01*
X227618400Y-135825800D01*
X227618400Y-134375800D01*
X229918400Y-134375800D01*
X229918400Y-135825800D01*
G37*
%TD*%
D15*
%TO.C,R2*%
X222620000Y-134110000D03*
X221980000Y-134110000D03*
%TD*%
%TO.C,R5*%
X214650000Y-144760000D03*
X214010000Y-144760000D03*
%TD*%
D16*
%TO.C,C32*%
X222620000Y-132240000D03*
X222620000Y-132880000D03*
%TD*%
D17*
%TO.C,C24*%
X201320400Y-141808200D03*
X202280400Y-141808200D03*
%TD*%
D18*
%TO.C,U5*%
X202765000Y-138750600D03*
X202365000Y-138750600D03*
X202765000Y-138350600D03*
X202365000Y-138350600D03*
X202765000Y-137950600D03*
X202365000Y-137950600D03*
X202765000Y-137550600D03*
X202365000Y-137550600D03*
%TD*%
D19*
%TO.C,C29*%
X208265000Y-143780000D03*
X206715000Y-143780000D03*
%TD*%
D16*
%TO.C,C2*%
X226710000Y-135120000D03*
X226710000Y-135760000D03*
%TD*%
D20*
%TO.C,FID2*%
X228570000Y-131840000D03*
%TD*%
D21*
%TO.C,D1*%
X201015000Y-146860000D03*
X200045000Y-146860000D03*
%TD*%
D22*
%TO.C,R8*%
X217800000Y-143940000D03*
X218440000Y-143940000D03*
%TD*%
%TO.C,R6*%
X215520000Y-130520000D03*
X216160000Y-130520000D03*
%TD*%
D23*
%TO.C,C28*%
X200990000Y-130750000D03*
X200990000Y-132300000D03*
%TD*%
D24*
%TO.C,C15*%
X205970000Y-135290000D03*
X205010000Y-135290000D03*
%TD*%
D25*
%TO.C,D4*%
X205605000Y-146860000D03*
X206575000Y-146860000D03*
%TD*%
D26*
%TO.C,C11*%
X207600000Y-130550000D03*
X207600000Y-131510000D03*
%TD*%
D27*
%TO.C,J1*%
X208280000Y-128894000D03*
D28*
X209550000Y-128894000D03*
X210820000Y-128894000D03*
X212090000Y-128894000D03*
X213360000Y-128894000D03*
X214630000Y-128894000D03*
X215900000Y-128894000D03*
X217170000Y-128894000D03*
X218440000Y-128894000D03*
X219710000Y-128894000D03*
X220980000Y-128894000D03*
X222250000Y-128894000D03*
X223520000Y-128894000D03*
X224790000Y-128894000D03*
X226060000Y-128894000D03*
%TD*%
D15*
%TO.C,R7*%
X217760000Y-143200000D03*
X217120000Y-143200000D03*
%TD*%
D24*
%TO.C,C26*%
X203990000Y-135930000D03*
X203030000Y-135930000D03*
%TD*%
D15*
%TO.C,L1*%
X225980000Y-135110000D03*
X225340000Y-135110000D03*
%TD*%
D29*
%TO.C,L4*%
X204978000Y-138748600D03*
X204978000Y-137298600D03*
%TD*%
D16*
%TO.C,C21*%
X221600000Y-142740000D03*
X221600000Y-143380000D03*
%TD*%
D30*
%TO.C,R23*%
X206030000Y-136270000D03*
X205010000Y-136270000D03*
%TD*%
D16*
%TO.C,C3*%
X224610000Y-135100000D03*
X224610000Y-135740000D03*
%TD*%
D31*
%TO.C,J3*%
X197281800Y-141510000D03*
D32*
X197281800Y-143510000D03*
X197281800Y-145510000D03*
%TD*%
D27*
%TO.C,J2*%
X208280000Y-146665000D03*
D28*
X209550000Y-146665000D03*
X210820000Y-146665000D03*
X212090000Y-146665000D03*
X213360000Y-146665000D03*
X214630000Y-146665000D03*
X215900000Y-146665000D03*
X217170000Y-146665000D03*
X218440000Y-146665000D03*
X219710000Y-146665000D03*
X220980000Y-146665000D03*
X222250000Y-146665000D03*
X223520000Y-146665000D03*
X224790000Y-146665000D03*
X226060000Y-146665000D03*
%TD*%
D33*
%TO.C,U3*%
X223380000Y-142480000D03*
X223380000Y-141980000D03*
X223880000Y-142480000D03*
X223880000Y-141980000D03*
X224380000Y-142480000D03*
X224380000Y-141980000D03*
X224880000Y-142480000D03*
X224880000Y-141980000D03*
%TD*%
D20*
%TO.C,FID1*%
X200730000Y-129090000D03*
%TD*%
D34*
%TO.C,C34*%
X213980000Y-142425000D03*
X213980000Y-141785000D03*
%TD*%
D35*
%TO.C,J5*%
X196945000Y-130480000D03*
D36*
X193845000Y-132080000D03*
X193845000Y-134880000D03*
D37*
X196945000Y-136480000D03*
D38*
X198045000Y-130380000D03*
X198045000Y-131130000D03*
D39*
X198045000Y-131730000D03*
X198045000Y-133230000D03*
X198045000Y-134230000D03*
X198045000Y-135230000D03*
D38*
X198045000Y-135830000D03*
X198045000Y-136580000D03*
X198045000Y-136580000D03*
X198045000Y-135830000D03*
D39*
X198045000Y-134730000D03*
X198045000Y-133730000D03*
X198045000Y-132730000D03*
X198045000Y-132230000D03*
D38*
X198045000Y-131130000D03*
X198045000Y-130380000D03*
D40*
X197670000Y-129160000D03*
D41*
X193845000Y-129160000D03*
D40*
X197670000Y-137800000D03*
D41*
X193845000Y-137800000D03*
%TD*%
D42*
%TO.C,J4*%
X208505000Y-140390000D03*
X207489000Y-135310000D03*
X209521000Y-135310000D03*
D43*
X209140000Y-139120000D03*
X207870000Y-139120000D03*
X209140000Y-137850000D03*
X207870000Y-137850000D03*
X209140000Y-136580000D03*
X207870000Y-136580000D03*
%TD*%
D15*
%TO.C,R11*%
X205350000Y-144160000D03*
X204710000Y-144160000D03*
%TD*%
D34*
%TO.C,C31*%
X222620000Y-131480000D03*
X222620000Y-130840000D03*
%TD*%
D22*
%TO.C,R12*%
X204710000Y-143440000D03*
X205350000Y-143440000D03*
%TD*%
D44*
%TO.C,Y1*%
X224830000Y-132550000D03*
X224830000Y-131150000D03*
X223730000Y-131150000D03*
X223730000Y-132550000D03*
%TD*%
D45*
%TO.C,TP1*%
X227808400Y-135100800D03*
X229728400Y-135100800D03*
D46*
X228768400Y-135915800D03*
D47*
X228768400Y-134285800D03*
%TD*%
D48*
%TO.C,U4*%
X201664800Y-142710000D03*
X201664800Y-143110000D03*
D49*
X201664800Y-143510000D03*
X201664800Y-143910000D03*
X201664800Y-144310000D03*
X203764800Y-144310000D03*
X203764800Y-143910000D03*
D48*
X203764800Y-143510000D03*
X203764800Y-143110000D03*
X203764800Y-142710000D03*
D50*
X202714800Y-143010000D03*
D51*
X202714800Y-143510000D03*
D50*
X202714800Y-144010000D03*
%TD*%
D52*
%TO.C,Y2*%
X212450000Y-143990000D03*
X212450000Y-141490000D03*
%TD*%
D53*
%TO.C,U6*%
X203415000Y-134647500D03*
D54*
X203490000Y-134110000D03*
D53*
X203415000Y-133572500D03*
X201715000Y-133572500D03*
D54*
X201640000Y-134110000D03*
D53*
X201715000Y-134647500D03*
%TD*%
D55*
%TO.C,U8*%
X203916700Y-130303100D03*
X203916700Y-131253100D03*
X203916700Y-132203100D03*
X206191700Y-132203100D03*
X206191700Y-130303100D03*
%TD*%
D26*
%TO.C,C33*%
X202210000Y-130470000D03*
X202210000Y-131430000D03*
%TD*%
D24*
%TO.C,C22*%
X204109200Y-141808200D03*
X203149200Y-141808200D03*
%TD*%
D15*
%TO.C,R14*%
X205340000Y-144880000D03*
X204700000Y-144880000D03*
%TD*%
D22*
%TO.C,R19*%
X201550000Y-136010000D03*
X202190000Y-136010000D03*
%TD*%
D21*
%TO.C,D5*%
X203795000Y-146860000D03*
X202825000Y-146860000D03*
%TD*%
D56*
%TO.C,U1*%
X213910000Y-139997500D03*
X214310000Y-139997501D03*
X214710000Y-139997500D03*
X215110000Y-139997500D03*
X215510000Y-139997500D03*
X215909999Y-139997500D03*
X216310000Y-139997500D03*
X216710000Y-139997500D03*
X217110000Y-139997501D03*
X217510000Y-139997500D03*
X217910000Y-139997500D03*
X218310001Y-139997500D03*
X218710000Y-139997500D03*
X219110000Y-139997500D03*
X219510000Y-139997500D03*
X219910000Y-139997501D03*
X220310000Y-139997500D03*
D57*
X220997500Y-139310000D03*
X220997501Y-138910000D03*
X220997500Y-138510000D03*
X220997500Y-138110000D03*
X220997500Y-137710000D03*
X220997500Y-137310001D03*
X220997500Y-136910000D03*
X220997500Y-136510000D03*
X220997501Y-136110000D03*
X220997500Y-135710000D03*
X220997500Y-135310000D03*
X220997500Y-134909999D03*
X220997500Y-134510000D03*
X220997500Y-134110000D03*
X220997500Y-133710000D03*
X220997501Y-133310000D03*
X220997500Y-132910000D03*
D56*
X220310000Y-132222500D03*
X219910000Y-132222499D03*
X219510000Y-132222500D03*
X219110000Y-132222500D03*
X218710000Y-132222500D03*
X218310001Y-132222500D03*
X217910000Y-132222500D03*
X217510000Y-132222500D03*
X217110000Y-132222499D03*
X216710000Y-132222500D03*
X216310000Y-132222500D03*
X215909999Y-132222500D03*
X215510000Y-132222500D03*
X215110000Y-132222500D03*
X214710000Y-132222500D03*
X214310000Y-132222499D03*
X213910000Y-132222500D03*
D57*
X213222500Y-132910000D03*
X213222499Y-133310000D03*
X213222500Y-133710000D03*
X213222500Y-134110000D03*
X213222500Y-134510000D03*
X213222500Y-134909999D03*
X213222500Y-135310000D03*
X213222500Y-135710000D03*
X213222499Y-136110000D03*
X213222500Y-136510000D03*
X213222500Y-136910000D03*
X213222500Y-137310001D03*
X213222500Y-137710000D03*
X213222500Y-138110000D03*
X213222500Y-138510000D03*
X213222499Y-138910000D03*
X213222500Y-139310000D03*
D58*
X217110000Y-136110000D03*
%TD*%
D26*
%TO.C,C23*%
X199700000Y-143020000D03*
X199700000Y-143980000D03*
%TD*%
D16*
%TO.C,C18*%
X213970000Y-143197800D03*
X213970000Y-143837800D03*
%TD*%
D15*
%TO.C,R15*%
X206740000Y-144880000D03*
X206100000Y-144880000D03*
%TD*%
G36*
X236233022Y-131864066D02*
G01*
X236299975Y-131866250D01*
X236328027Y-131870409D01*
X236459286Y-131905581D01*
X236489191Y-131917969D01*
X236605094Y-131984885D01*
X236630775Y-132004591D01*
X236725408Y-132099224D01*
X236745114Y-132124905D01*
X236812030Y-132240808D01*
X236824418Y-132270713D01*
X236859590Y-132401972D01*
X236863749Y-132430022D01*
X236865934Y-132496976D01*
X236866000Y-132501021D01*
X236866000Y-146810289D01*
X236865951Y-146813761D01*
X236863945Y-146885381D01*
X236860885Y-146909503D01*
X236828621Y-147050854D01*
X236819449Y-147077063D01*
X236757300Y-147206112D01*
X236742528Y-147229622D01*
X236653226Y-147341603D01*
X236633590Y-147361238D01*
X236521609Y-147450537D01*
X236498098Y-147465310D01*
X236369047Y-147527456D01*
X236342838Y-147536626D01*
X236201490Y-147568886D01*
X236177369Y-147571946D01*
X236105745Y-147573951D01*
X236102275Y-147574000D01*
X231434000Y-147574000D01*
X231366961Y-147554315D01*
X231321206Y-147501511D01*
X231310000Y-147450000D01*
X231310000Y-135460025D01*
X231183680Y-135459699D01*
X231116691Y-135439841D01*
X231071073Y-135386919D01*
X231060000Y-135335699D01*
X231060000Y-134864000D01*
X231079685Y-134796961D01*
X231132489Y-134751206D01*
X231184000Y-134740000D01*
X231310000Y-134740000D01*
X231310000Y-131988000D01*
X231329685Y-131920961D01*
X231382489Y-131875206D01*
X231434000Y-131864000D01*
X236228979Y-131864000D01*
X236233022Y-131864066D01*
G37*
G36*
X222973039Y-133369685D02*
G01*
X223018794Y-133422489D01*
X223030000Y-133474000D01*
X223030000Y-133676000D01*
X223010315Y-133743039D01*
X223007654Y-133745343D01*
X223000000Y-133799999D01*
X223023700Y-133806771D01*
X223082753Y-133844115D01*
X223112241Y-133907457D01*
X223102802Y-133976686D01*
X223057434Y-134029823D01*
X222990540Y-134049997D01*
X222989635Y-134050000D01*
X222302211Y-134050000D01*
X222278019Y-134047617D01*
X222218518Y-134035781D01*
X222173820Y-134017267D01*
X222145631Y-133998432D01*
X222100826Y-133944820D01*
X222092118Y-133875495D01*
X222122272Y-133812467D01*
X222181715Y-133775748D01*
X222214521Y-133771329D01*
X222261329Y-133771329D01*
X222264264Y-133764241D01*
X222242834Y-133724995D01*
X222240000Y-133698637D01*
X222240000Y-133474000D01*
X222259685Y-133406961D01*
X222312489Y-133361206D01*
X222364000Y-133350000D01*
X222906000Y-133350000D01*
X222973039Y-133369685D01*
G37*
G36*
X222765351Y-133521551D02*
G01*
X222787789Y-133522895D01*
X222795184Y-133523560D01*
X222920809Y-133538671D01*
X222985018Y-133566221D01*
X223024139Y-133624112D01*
X223030000Y-133661784D01*
X223030000Y-133676000D01*
X223010315Y-133743039D01*
X223007654Y-133745344D01*
X223000000Y-133799999D01*
X223274348Y-133878385D01*
X223285468Y-133882140D01*
X223499501Y-133965892D01*
X223519584Y-133975933D01*
X223713987Y-134096278D01*
X223725555Y-134104385D01*
X223905372Y-134246345D01*
X223914248Y-134254063D01*
X224140000Y-134470000D01*
X224139997Y-134470003D01*
X224140122Y-134470117D01*
X224335595Y-134657604D01*
X224335600Y-134657608D01*
X224449999Y-134719999D01*
X224573490Y-134740000D01*
X231310000Y-134740000D01*
X231310000Y-134662531D01*
X231329685Y-134595492D01*
X231382489Y-134549737D01*
X231451647Y-134539793D01*
X231515203Y-134568818D01*
X231537104Y-134593643D01*
X231557268Y-134623822D01*
X231575781Y-134668517D01*
X231587617Y-134728017D01*
X231590000Y-134752210D01*
X231590000Y-135447892D01*
X231587617Y-135472085D01*
X231575781Y-135531585D01*
X231557268Y-135576280D01*
X231537104Y-135606459D01*
X231483492Y-135651266D01*
X231414168Y-135659975D01*
X231351140Y-135629821D01*
X231314419Y-135570379D01*
X231310000Y-135537571D01*
X231310000Y-135460026D01*
X231309999Y-135460025D01*
X227418946Y-135450000D01*
X224611182Y-135450000D01*
X224589000Y-135448000D01*
X224490004Y-135430000D01*
X224377730Y-135411288D01*
X224362485Y-135407745D01*
X224180252Y-135353075D01*
X224160429Y-135345214D01*
X224036361Y-135283180D01*
X224024047Y-135276114D01*
X223916099Y-135205667D01*
X223899793Y-135192970D01*
X223779446Y-135081960D01*
X223775304Y-135077957D01*
X223559995Y-134859995D01*
X223559991Y-134859992D01*
X223389994Y-134709995D01*
X223230001Y-134610001D01*
X223229995Y-134609998D01*
X223020000Y-134520000D01*
X222819996Y-134469999D01*
X222819998Y-134469999D01*
X222560054Y-134460002D01*
X221876733Y-134444357D01*
X221830470Y-134434253D01*
X221380000Y-134240000D01*
X221368927Y-134237714D01*
X221307252Y-134204880D01*
X221273120Y-134143915D01*
X221270000Y-134116275D01*
X221270000Y-134104000D01*
X221289685Y-134036961D01*
X221342489Y-133991206D01*
X221366587Y-133985963D01*
X221365962Y-133983311D01*
X221379998Y-133980000D01*
X221771673Y-133784394D01*
X221827075Y-133771329D01*
X222261329Y-133771329D01*
X222264264Y-133764241D01*
X222242834Y-133724995D01*
X222240000Y-133698637D01*
X222240000Y-133645329D01*
X222259685Y-133578290D01*
X222312489Y-133532535D01*
X222364000Y-133521329D01*
X222757937Y-133521329D01*
X222765351Y-133521551D01*
G37*
D59*
X192024000Y-147574000D02*
G75*
G02*
X191389000Y-146939000I0J635000D01*
G01*
X236866000Y-146812009D02*
G75*
G02*
X236103993Y-147574000I-762000J9D01*
G01*
X236866000Y-146812000D02*
X236866000Y-132500000D01*
X228965000Y-128016000D02*
G75*
G02*
X229600000Y-128651000I0J-635000D01*
G01*
X191389000Y-128651000D02*
G75*
G02*
X192024000Y-128016000I635000J0D01*
G01*
X191389000Y-128651000D02*
X191389000Y-146939000D01*
X229600000Y-131220000D02*
X229600000Y-128660000D01*
X236231000Y-131864000D02*
G75*
G02*
X236866000Y-132499000I0J-635000D01*
G01*
X230235000Y-131864000D02*
G75*
G02*
X229600000Y-131229000I0J635000D01*
G01*
X236231000Y-131864000D02*
X230240000Y-131864000D01*
X192024000Y-147574000D02*
X236103993Y-147574000D01*
X192024000Y-128016000D02*
X228965000Y-128016000D01*
M02*
