%TF.GenerationSoftware,KiCad,Pcbnew,8.0.6-8.0.6-0~ubuntu24.04.1*%
%TF.CreationDate,2024-12-02T20:40:39-08:00*%
%TF.ProjectId,stm32_bluet_pill,73746d33-325f-4626-9c75-65745f70696c,V2*%
%TF.SameCoordinates,Original*%
%TF.FileFunction,Copper,L1,Top*%
%TF.FilePolarity,Positive*%
%FSLAX46Y46*%
G04 Gerber Fmt 4.6, Leading zero omitted, Abs format (unit mm)*
G04 Created by KiCad (PCBNEW 8.0.6-8.0.6-0~ubuntu24.04.1) date 2024-12-02 20:40:39*
%MOMM*%
%LPD*%
G01*
G04 APERTURE LIST*
G04 Aperture macros list*
%AMRoundRect*
0 Rectangle with rounded corners*
0 $1 Rounding radius*
0 $2 $3 $4 $5 $6 $7 $8 $9 X,Y pos of 4 corners*
0 Add a 4 corners polygon primitive as box body*
4,1,4,$2,$3,$4,$5,$6,$7,$8,$9,$2,$3,0*
0 Add four circle primitives for the rounded corners*
1,1,$1+$1,$2,$3*
1,1,$1+$1,$4,$5*
1,1,$1+$1,$6,$7*
1,1,$1+$1,$8,$9*
0 Add four rect primitives between the rounded corners*
20,1,$1+$1,$2,$3,$4,$5,0*
20,1,$1+$1,$4,$5,$6,$7,0*
20,1,$1+$1,$6,$7,$8,$9,0*
20,1,$1+$1,$8,$9,$2,$3,0*%
%AMFreePoly0*
4,1,10,-0.450000,0.185000,0.450000,0.185000,0.450000,0.435000,1.200000,0.435000,1.200000,-0.235000,-1.000000,-0.235000,-1.200000,-0.035000,-1.200000,0.435000,-0.450000,0.435000,-0.450000,0.185000,-0.450000,0.185000,$1*%
%AMFreePoly1*
4,1,10,-0.450000,0.185000,0.450000,0.185000,0.450000,0.435000,1.200000,0.435000,1.200000,-0.035000,1.000000,-0.235000,-1.200000,-0.235000,-1.200000,0.435000,-0.450000,0.435000,-0.450000,0.185000,-0.450000,0.185000,$1*%
G04 Aperture macros list end*
%ADD10C,0.100000*%
%ADD11C,0.150000*%
%ADD12C,0.300000*%
%ADD13C,0.400000*%
%TA.AperFunction,Conductor*%
%ADD14C,0.200000*%
%TD*%
%TA.AperFunction,EtchedComponent*%
%ADD15C,0.000000*%
%TD*%
%TA.AperFunction,SMDPad,CuDef*%
%ADD16RoundRect,0.100000X0.130000X0.100000X-0.130000X0.100000X-0.130000X-0.100000X0.130000X-0.100000X0*%
%TD*%
%TA.AperFunction,SMDPad,CuDef*%
%ADD17RoundRect,0.100000X-0.100000X0.130000X-0.100000X-0.130000X0.100000X-0.130000X0.100000X0.130000X0*%
%TD*%
%TA.AperFunction,SMDPad,CuDef*%
%ADD18RoundRect,0.140000X-0.140000X-0.170000X0.140000X-0.170000X0.140000X0.170000X-0.140000X0.170000X0*%
%TD*%
%TA.AperFunction,BGAPad,CuDef*%
%ADD19C,0.200000*%
%TD*%
%TA.AperFunction,SMDPad,CuDef*%
%ADD20RoundRect,0.225000X0.225000X0.250000X-0.225000X0.250000X-0.225000X-0.250000X0.225000X-0.250000X0*%
%TD*%
%TA.AperFunction,SMDPad,CuDef*%
%ADD21C,1.000000*%
%TD*%
%TA.AperFunction,SMDPad,CuDef*%
%ADD22C,0.500000*%
%TD*%
%TA.AperFunction,SMDPad,CuDef*%
%ADD23RoundRect,0.147500X0.147500X0.172500X-0.147500X0.172500X-0.147500X-0.172500X0.147500X-0.172500X0*%
%TD*%
%TA.AperFunction,SMDPad,CuDef*%
%ADD24RoundRect,0.100000X-0.130000X-0.100000X0.130000X-0.100000X0.130000X0.100000X-0.130000X0.100000X0*%
%TD*%
%TA.AperFunction,SMDPad,CuDef*%
%ADD25RoundRect,0.140000X0.140000X0.170000X-0.140000X0.170000X-0.140000X-0.170000X0.140000X-0.170000X0*%
%TD*%
%TA.AperFunction,SMDPad,CuDef*%
%ADD26RoundRect,0.147500X-0.147500X-0.172500X0.147500X-0.172500X0.147500X0.172500X-0.147500X0.172500X0*%
%TD*%
%TA.AperFunction,SMDPad,CuDef*%
%ADD27RoundRect,0.140000X-0.170000X0.140000X-0.170000X-0.140000X0.170000X-0.140000X0.170000X0.140000X0*%
%TD*%
%TA.AperFunction,ComponentPad*%
%ADD28R,1.000000X1.000000*%
%TD*%
%TA.AperFunction,ComponentPad*%
%ADD29O,1.000000X1.000000*%
%TD*%
%TA.AperFunction,SMDPad,CuDef*%
%ADD30R,1.600000X0.550000*%
%TD*%
%TA.AperFunction,SMDPad,CuDef*%
%ADD31RoundRect,0.135000X0.135000X0.185000X-0.135000X0.185000X-0.135000X-0.185000X0.135000X-0.185000X0*%
%TD*%
%TA.AperFunction,ComponentPad*%
%ADD32RoundRect,0.250000X-0.625000X0.350000X-0.625000X-0.350000X0.625000X-0.350000X0.625000X0.350000X0*%
%TD*%
%TA.AperFunction,ComponentPad*%
%ADD33O,1.750000X1.200000*%
%TD*%
%TA.AperFunction,SMDPad,CuDef*%
%ADD34RoundRect,0.100000X0.100000X-0.130000X0.100000X0.130000X-0.100000X0.130000X-0.100000X-0.130000X0*%
%TD*%
%TA.AperFunction,SMDPad,CuDef*%
%ADD35R,2.000000X1.000000*%
%TD*%
%TA.AperFunction,SMDPad,CuDef*%
%ADD36R,1.000000X0.520000*%
%TD*%
%TA.AperFunction,SMDPad,CuDef*%
%ADD37R,1.000000X0.270000*%
%TD*%
%TA.AperFunction,ComponentPad*%
%ADD38O,2.300000X1.300000*%
%TD*%
%TA.AperFunction,ComponentPad*%
%ADD39O,2.600000X1.300000*%
%TD*%
%TA.AperFunction,ConnectorPad*%
%ADD40C,0.787400*%
%TD*%
%TA.AperFunction,SMDPad,CuDef*%
%ADD41R,0.800000X0.900000*%
%TD*%
%TA.AperFunction,SMDPad,CuDef*%
%ADD42R,0.480000X0.500000*%
%TD*%
%TA.AperFunction,SMDPad,CuDef*%
%ADD43FreePoly0,0.000000*%
%TD*%
%TA.AperFunction,SMDPad,CuDef*%
%ADD44FreePoly1,180.000000*%
%TD*%
%TA.AperFunction,SMDPad,CuDef*%
%ADD45RoundRect,0.050000X0.200000X0.050000X-0.200000X0.050000X-0.200000X-0.050000X0.200000X-0.050000X0*%
%TD*%
%TA.AperFunction,SMDPad,CuDef*%
%ADD46RoundRect,0.050000X-0.200000X-0.050000X0.200000X-0.050000X0.200000X0.050000X-0.200000X0.050000X0*%
%TD*%
%TA.AperFunction,ComponentPad*%
%ADD47C,0.400000*%
%TD*%
%TA.AperFunction,SMDPad,CuDef*%
%ADD48RoundRect,0.050000X-0.400000X-0.700000X0.400000X-0.700000X0.400000X0.700000X-0.400000X0.700000X0*%
%TD*%
%TA.AperFunction,SMDPad,CuDef*%
%ADD49RoundRect,0.225000X-0.250000X0.225000X-0.250000X-0.225000X0.250000X-0.225000X0.250000X0.225000X0*%
%TD*%
%TA.AperFunction,SMDPad,CuDef*%
%ADD50R,1.800000X1.000000*%
%TD*%
%TA.AperFunction,SMDPad,CuDef*%
%ADD51RoundRect,0.093750X0.156250X0.093750X-0.156250X0.093750X-0.156250X-0.093750X0.156250X-0.093750X0*%
%TD*%
%TA.AperFunction,SMDPad,CuDef*%
%ADD52RoundRect,0.075000X0.250000X0.075000X-0.250000X0.075000X-0.250000X-0.075000X0.250000X-0.075000X0*%
%TD*%
%TA.AperFunction,SMDPad,CuDef*%
%ADD53RoundRect,0.135000X-0.185000X0.135000X-0.185000X-0.135000X0.185000X-0.135000X0.185000X0.135000X0*%
%TD*%
%TA.AperFunction,ConnectorPad*%
%ADD54R,0.500000X0.500000*%
%TD*%
%TA.AperFunction,ComponentPad*%
%ADD55R,0.500000X0.900000*%
%TD*%
%TA.AperFunction,SMDPad,CuDef*%
%ADD56RoundRect,0.150000X-0.512500X-0.150000X0.512500X-0.150000X0.512500X0.150000X-0.512500X0.150000X0*%
%TD*%
%TA.AperFunction,SMDPad,CuDef*%
%ADD57RoundRect,0.062500X0.062500X-0.400000X0.062500X0.400000X-0.062500X0.400000X-0.062500X-0.400000X0*%
%TD*%
%TA.AperFunction,SMDPad,CuDef*%
%ADD58RoundRect,0.062500X0.400000X-0.062500X0.400000X0.062500X-0.400000X0.062500X-0.400000X-0.062500X0*%
%TD*%
%TA.AperFunction,HeatsinkPad*%
%ADD59R,6.400000X6.400000*%
%TD*%
%TA.AperFunction,ViaPad*%
%ADD60C,0.450000*%
%TD*%
%TA.AperFunction,Conductor*%
%ADD61C,0.102000*%
%TD*%
%TA.AperFunction,Conductor*%
%ADD62C,0.500000*%
%TD*%
%TA.AperFunction,Conductor*%
%ADD63C,0.150000*%
%TD*%
%TA.AperFunction,Conductor*%
%ADD64C,0.127000*%
%TD*%
%TA.AperFunction,Conductor*%
%ADD65C,0.250000*%
%TD*%
%TA.AperFunction,Conductor*%
%ADD66C,0.514400*%
%TD*%
%TA.AperFunction,Conductor*%
%ADD67C,0.400000*%
%TD*%
%TA.AperFunction,Conductor*%
%ADD68C,0.300000*%
%TD*%
%TA.AperFunction,Conductor*%
%ADD69C,0.103400*%
%TD*%
%TA.AperFunction,Conductor*%
%ADD70C,0.118400*%
%TD*%
%TA.AperFunction,Profile*%
%ADD71C,0.100000*%
%TD*%
G04 APERTURE END LIST*
D10*
X345821001Y-254402167D02*
X345821001Y-267313833D01*
X362331000Y-267313833D01*
X362331000Y-254402167D01*
X345821001Y-254402167D01*
D11*
X299989000Y-253002200D02*
X407989000Y-253002200D01*
X407989000Y-285002200D01*
X299989000Y-285002200D01*
X299989000Y-253002200D01*
D10*
D11*
X10000000Y-10000000D02*
X409989000Y-10000000D01*
X409989000Y-287002200D01*
X10000000Y-287002200D01*
X10000000Y-10000000D01*
D10*
D11*
X12000000Y-12000000D02*
X407989000Y-12000000D01*
X407989000Y-285002200D01*
X12000000Y-285002200D01*
X12000000Y-12000000D01*
D10*
D11*
X60000000Y-12000000D02*
X60000000Y-10000000D01*
D10*
D11*
X110000000Y-12000000D02*
X110000000Y-10000000D01*
D10*
D11*
X160000000Y-12000000D02*
X160000000Y-10000000D01*
D10*
D11*
X210000000Y-12000000D02*
X210000000Y-10000000D01*
D10*
D11*
X260000000Y-12000000D02*
X260000000Y-10000000D01*
D10*
D11*
X310000000Y-12000000D02*
X310000000Y-10000000D01*
D10*
D11*
X360000000Y-12000000D02*
X360000000Y-10000000D01*
D10*
D11*
X36089160Y-11593604D02*
X35346303Y-11593604D01*
X35717731Y-11593604D02*
X35717731Y-10293604D01*
X35717731Y-10293604D02*
X35593922Y-10479319D01*
X35593922Y-10479319D02*
X35470112Y-10603128D01*
X35470112Y-10603128D02*
X35346303Y-10665033D01*
D10*
D11*
X85346303Y-10417414D02*
X85408207Y-10355509D01*
X85408207Y-10355509D02*
X85532017Y-10293604D01*
X85532017Y-10293604D02*
X85841541Y-10293604D01*
X85841541Y-10293604D02*
X85965350Y-10355509D01*
X85965350Y-10355509D02*
X86027255Y-10417414D01*
X86027255Y-10417414D02*
X86089160Y-10541223D01*
X86089160Y-10541223D02*
X86089160Y-10665033D01*
X86089160Y-10665033D02*
X86027255Y-10850747D01*
X86027255Y-10850747D02*
X85284398Y-11593604D01*
X85284398Y-11593604D02*
X86089160Y-11593604D01*
D10*
D11*
X135284398Y-10293604D02*
X136089160Y-10293604D01*
X136089160Y-10293604D02*
X135655826Y-10788842D01*
X135655826Y-10788842D02*
X135841541Y-10788842D01*
X135841541Y-10788842D02*
X135965350Y-10850747D01*
X135965350Y-10850747D02*
X136027255Y-10912652D01*
X136027255Y-10912652D02*
X136089160Y-11036461D01*
X136089160Y-11036461D02*
X136089160Y-11345985D01*
X136089160Y-11345985D02*
X136027255Y-11469795D01*
X136027255Y-11469795D02*
X135965350Y-11531700D01*
X135965350Y-11531700D02*
X135841541Y-11593604D01*
X135841541Y-11593604D02*
X135470112Y-11593604D01*
X135470112Y-11593604D02*
X135346303Y-11531700D01*
X135346303Y-11531700D02*
X135284398Y-11469795D01*
D10*
D11*
X185965350Y-10726938D02*
X185965350Y-11593604D01*
X185655826Y-10231700D02*
X185346303Y-11160271D01*
X185346303Y-11160271D02*
X186151064Y-11160271D01*
D10*
D11*
X236027255Y-10293604D02*
X235408207Y-10293604D01*
X235408207Y-10293604D02*
X235346303Y-10912652D01*
X235346303Y-10912652D02*
X235408207Y-10850747D01*
X235408207Y-10850747D02*
X235532017Y-10788842D01*
X235532017Y-10788842D02*
X235841541Y-10788842D01*
X235841541Y-10788842D02*
X235965350Y-10850747D01*
X235965350Y-10850747D02*
X236027255Y-10912652D01*
X236027255Y-10912652D02*
X236089160Y-11036461D01*
X236089160Y-11036461D02*
X236089160Y-11345985D01*
X236089160Y-11345985D02*
X236027255Y-11469795D01*
X236027255Y-11469795D02*
X235965350Y-11531700D01*
X235965350Y-11531700D02*
X235841541Y-11593604D01*
X235841541Y-11593604D02*
X235532017Y-11593604D01*
X235532017Y-11593604D02*
X235408207Y-11531700D01*
X235408207Y-11531700D02*
X235346303Y-11469795D01*
D10*
D11*
X285965350Y-10293604D02*
X285717731Y-10293604D01*
X285717731Y-10293604D02*
X285593922Y-10355509D01*
X285593922Y-10355509D02*
X285532017Y-10417414D01*
X285532017Y-10417414D02*
X285408207Y-10603128D01*
X285408207Y-10603128D02*
X285346303Y-10850747D01*
X285346303Y-10850747D02*
X285346303Y-11345985D01*
X285346303Y-11345985D02*
X285408207Y-11469795D01*
X285408207Y-11469795D02*
X285470112Y-11531700D01*
X285470112Y-11531700D02*
X285593922Y-11593604D01*
X285593922Y-11593604D02*
X285841541Y-11593604D01*
X285841541Y-11593604D02*
X285965350Y-11531700D01*
X285965350Y-11531700D02*
X286027255Y-11469795D01*
X286027255Y-11469795D02*
X286089160Y-11345985D01*
X286089160Y-11345985D02*
X286089160Y-11036461D01*
X286089160Y-11036461D02*
X286027255Y-10912652D01*
X286027255Y-10912652D02*
X285965350Y-10850747D01*
X285965350Y-10850747D02*
X285841541Y-10788842D01*
X285841541Y-10788842D02*
X285593922Y-10788842D01*
X285593922Y-10788842D02*
X285470112Y-10850747D01*
X285470112Y-10850747D02*
X285408207Y-10912652D01*
X285408207Y-10912652D02*
X285346303Y-11036461D01*
D10*
D11*
X335284398Y-10293604D02*
X336151064Y-10293604D01*
X336151064Y-10293604D02*
X335593922Y-11593604D01*
D10*
D11*
X385593922Y-10850747D02*
X385470112Y-10788842D01*
X385470112Y-10788842D02*
X385408207Y-10726938D01*
X385408207Y-10726938D02*
X385346303Y-10603128D01*
X385346303Y-10603128D02*
X385346303Y-10541223D01*
X385346303Y-10541223D02*
X385408207Y-10417414D01*
X385408207Y-10417414D02*
X385470112Y-10355509D01*
X385470112Y-10355509D02*
X385593922Y-10293604D01*
X385593922Y-10293604D02*
X385841541Y-10293604D01*
X385841541Y-10293604D02*
X385965350Y-10355509D01*
X385965350Y-10355509D02*
X386027255Y-10417414D01*
X386027255Y-10417414D02*
X386089160Y-10541223D01*
X386089160Y-10541223D02*
X386089160Y-10603128D01*
X386089160Y-10603128D02*
X386027255Y-10726938D01*
X386027255Y-10726938D02*
X385965350Y-10788842D01*
X385965350Y-10788842D02*
X385841541Y-10850747D01*
X385841541Y-10850747D02*
X385593922Y-10850747D01*
X385593922Y-10850747D02*
X385470112Y-10912652D01*
X385470112Y-10912652D02*
X385408207Y-10974557D01*
X385408207Y-10974557D02*
X385346303Y-11098366D01*
X385346303Y-11098366D02*
X385346303Y-11345985D01*
X385346303Y-11345985D02*
X385408207Y-11469795D01*
X385408207Y-11469795D02*
X385470112Y-11531700D01*
X385470112Y-11531700D02*
X385593922Y-11593604D01*
X385593922Y-11593604D02*
X385841541Y-11593604D01*
X385841541Y-11593604D02*
X385965350Y-11531700D01*
X385965350Y-11531700D02*
X386027255Y-11469795D01*
X386027255Y-11469795D02*
X386089160Y-11345985D01*
X386089160Y-11345985D02*
X386089160Y-11098366D01*
X386089160Y-11098366D02*
X386027255Y-10974557D01*
X386027255Y-10974557D02*
X385965350Y-10912652D01*
X385965350Y-10912652D02*
X385841541Y-10850747D01*
D10*
D11*
X60000000Y-285002200D02*
X60000000Y-287002200D01*
D10*
D11*
X110000000Y-285002200D02*
X110000000Y-287002200D01*
D10*
D11*
X160000000Y-285002200D02*
X160000000Y-287002200D01*
D10*
D11*
X210000000Y-285002200D02*
X210000000Y-287002200D01*
D10*
D11*
X260000000Y-285002200D02*
X260000000Y-287002200D01*
D10*
D11*
X310000000Y-285002200D02*
X310000000Y-287002200D01*
D10*
D11*
X360000000Y-285002200D02*
X360000000Y-287002200D01*
D10*
D11*
X36089160Y-286595804D02*
X35346303Y-286595804D01*
X35717731Y-286595804D02*
X35717731Y-285295804D01*
X35717731Y-285295804D02*
X35593922Y-285481519D01*
X35593922Y-285481519D02*
X35470112Y-285605328D01*
X35470112Y-285605328D02*
X35346303Y-285667233D01*
D10*
D11*
X85346303Y-285419614D02*
X85408207Y-285357709D01*
X85408207Y-285357709D02*
X85532017Y-285295804D01*
X85532017Y-285295804D02*
X85841541Y-285295804D01*
X85841541Y-285295804D02*
X85965350Y-285357709D01*
X85965350Y-285357709D02*
X86027255Y-285419614D01*
X86027255Y-285419614D02*
X86089160Y-285543423D01*
X86089160Y-285543423D02*
X86089160Y-285667233D01*
X86089160Y-285667233D02*
X86027255Y-285852947D01*
X86027255Y-285852947D02*
X85284398Y-286595804D01*
X85284398Y-286595804D02*
X86089160Y-286595804D01*
D10*
D11*
X135284398Y-285295804D02*
X136089160Y-285295804D01*
X136089160Y-285295804D02*
X135655826Y-285791042D01*
X135655826Y-285791042D02*
X135841541Y-285791042D01*
X135841541Y-285791042D02*
X135965350Y-285852947D01*
X135965350Y-285852947D02*
X136027255Y-285914852D01*
X136027255Y-285914852D02*
X136089160Y-286038661D01*
X136089160Y-286038661D02*
X136089160Y-286348185D01*
X136089160Y-286348185D02*
X136027255Y-286471995D01*
X136027255Y-286471995D02*
X135965350Y-286533900D01*
X135965350Y-286533900D02*
X135841541Y-286595804D01*
X135841541Y-286595804D02*
X135470112Y-286595804D01*
X135470112Y-286595804D02*
X135346303Y-286533900D01*
X135346303Y-286533900D02*
X135284398Y-286471995D01*
D10*
D11*
X185965350Y-285729138D02*
X185965350Y-286595804D01*
X185655826Y-285233900D02*
X185346303Y-286162471D01*
X185346303Y-286162471D02*
X186151064Y-286162471D01*
D10*
D11*
X236027255Y-285295804D02*
X235408207Y-285295804D01*
X235408207Y-285295804D02*
X235346303Y-285914852D01*
X235346303Y-285914852D02*
X235408207Y-285852947D01*
X235408207Y-285852947D02*
X235532017Y-285791042D01*
X235532017Y-285791042D02*
X235841541Y-285791042D01*
X235841541Y-285791042D02*
X235965350Y-285852947D01*
X235965350Y-285852947D02*
X236027255Y-285914852D01*
X236027255Y-285914852D02*
X236089160Y-286038661D01*
X236089160Y-286038661D02*
X236089160Y-286348185D01*
X236089160Y-286348185D02*
X236027255Y-286471995D01*
X236027255Y-286471995D02*
X235965350Y-286533900D01*
X235965350Y-286533900D02*
X235841541Y-286595804D01*
X235841541Y-286595804D02*
X235532017Y-286595804D01*
X235532017Y-286595804D02*
X235408207Y-286533900D01*
X235408207Y-286533900D02*
X235346303Y-286471995D01*
D10*
D11*
X285965350Y-285295804D02*
X285717731Y-285295804D01*
X285717731Y-285295804D02*
X285593922Y-285357709D01*
X285593922Y-285357709D02*
X285532017Y-285419614D01*
X285532017Y-285419614D02*
X285408207Y-285605328D01*
X285408207Y-285605328D02*
X285346303Y-285852947D01*
X285346303Y-285852947D02*
X285346303Y-286348185D01*
X285346303Y-286348185D02*
X285408207Y-286471995D01*
X285408207Y-286471995D02*
X285470112Y-286533900D01*
X285470112Y-286533900D02*
X285593922Y-286595804D01*
X285593922Y-286595804D02*
X285841541Y-286595804D01*
X285841541Y-286595804D02*
X285965350Y-286533900D01*
X285965350Y-286533900D02*
X286027255Y-286471995D01*
X286027255Y-286471995D02*
X286089160Y-286348185D01*
X286089160Y-286348185D02*
X286089160Y-286038661D01*
X286089160Y-286038661D02*
X286027255Y-285914852D01*
X286027255Y-285914852D02*
X285965350Y-285852947D01*
X285965350Y-285852947D02*
X285841541Y-285791042D01*
X285841541Y-285791042D02*
X285593922Y-285791042D01*
X285593922Y-285791042D02*
X285470112Y-285852947D01*
X285470112Y-285852947D02*
X285408207Y-285914852D01*
X285408207Y-285914852D02*
X285346303Y-286038661D01*
D10*
D11*
X335284398Y-285295804D02*
X336151064Y-285295804D01*
X336151064Y-285295804D02*
X335593922Y-286595804D01*
D10*
D11*
X385593922Y-285852947D02*
X385470112Y-285791042D01*
X385470112Y-285791042D02*
X385408207Y-285729138D01*
X385408207Y-285729138D02*
X385346303Y-285605328D01*
X385346303Y-285605328D02*
X385346303Y-285543423D01*
X385346303Y-285543423D02*
X385408207Y-285419614D01*
X385408207Y-285419614D02*
X385470112Y-285357709D01*
X385470112Y-285357709D02*
X385593922Y-285295804D01*
X385593922Y-285295804D02*
X385841541Y-285295804D01*
X385841541Y-285295804D02*
X385965350Y-285357709D01*
X385965350Y-285357709D02*
X386027255Y-285419614D01*
X386027255Y-285419614D02*
X386089160Y-285543423D01*
X386089160Y-285543423D02*
X386089160Y-285605328D01*
X386089160Y-285605328D02*
X386027255Y-285729138D01*
X386027255Y-285729138D02*
X385965350Y-285791042D01*
X385965350Y-285791042D02*
X385841541Y-285852947D01*
X385841541Y-285852947D02*
X385593922Y-285852947D01*
X385593922Y-285852947D02*
X385470112Y-285914852D01*
X385470112Y-285914852D02*
X385408207Y-285976757D01*
X385408207Y-285976757D02*
X385346303Y-286100566D01*
X385346303Y-286100566D02*
X385346303Y-286348185D01*
X385346303Y-286348185D02*
X385408207Y-286471995D01*
X385408207Y-286471995D02*
X385470112Y-286533900D01*
X385470112Y-286533900D02*
X385593922Y-286595804D01*
X385593922Y-286595804D02*
X385841541Y-286595804D01*
X385841541Y-286595804D02*
X385965350Y-286533900D01*
X385965350Y-286533900D02*
X386027255Y-286471995D01*
X386027255Y-286471995D02*
X386089160Y-286348185D01*
X386089160Y-286348185D02*
X386089160Y-286100566D01*
X386089160Y-286100566D02*
X386027255Y-285976757D01*
X386027255Y-285976757D02*
X385965350Y-285914852D01*
X385965350Y-285914852D02*
X385841541Y-285852947D01*
D10*
D11*
X10000000Y-60000000D02*
X12000000Y-60000000D01*
D10*
D11*
X10000000Y-110000000D02*
X12000000Y-110000000D01*
D10*
D11*
X10000000Y-160000000D02*
X12000000Y-160000000D01*
D10*
D11*
X10000000Y-210000000D02*
X12000000Y-210000000D01*
D10*
D11*
X10000000Y-260000000D02*
X12000000Y-260000000D01*
D10*
D11*
X10690476Y-35222176D02*
X11309523Y-35222176D01*
X10566666Y-35593604D02*
X10999999Y-34293604D01*
X10999999Y-34293604D02*
X11433333Y-35593604D01*
D10*
D11*
X11092857Y-84912652D02*
X11278571Y-84974557D01*
X11278571Y-84974557D02*
X11340476Y-85036461D01*
X11340476Y-85036461D02*
X11402380Y-85160271D01*
X11402380Y-85160271D02*
X11402380Y-85345985D01*
X11402380Y-85345985D02*
X11340476Y-85469795D01*
X11340476Y-85469795D02*
X11278571Y-85531700D01*
X11278571Y-85531700D02*
X11154761Y-85593604D01*
X11154761Y-85593604D02*
X10659523Y-85593604D01*
X10659523Y-85593604D02*
X10659523Y-84293604D01*
X10659523Y-84293604D02*
X11092857Y-84293604D01*
X11092857Y-84293604D02*
X11216666Y-84355509D01*
X11216666Y-84355509D02*
X11278571Y-84417414D01*
X11278571Y-84417414D02*
X11340476Y-84541223D01*
X11340476Y-84541223D02*
X11340476Y-84665033D01*
X11340476Y-84665033D02*
X11278571Y-84788842D01*
X11278571Y-84788842D02*
X11216666Y-84850747D01*
X11216666Y-84850747D02*
X11092857Y-84912652D01*
X11092857Y-84912652D02*
X10659523Y-84912652D01*
D10*
D11*
X11402380Y-135469795D02*
X11340476Y-135531700D01*
X11340476Y-135531700D02*
X11154761Y-135593604D01*
X11154761Y-135593604D02*
X11030952Y-135593604D01*
X11030952Y-135593604D02*
X10845238Y-135531700D01*
X10845238Y-135531700D02*
X10721428Y-135407890D01*
X10721428Y-135407890D02*
X10659523Y-135284080D01*
X10659523Y-135284080D02*
X10597619Y-135036461D01*
X10597619Y-135036461D02*
X10597619Y-134850747D01*
X10597619Y-134850747D02*
X10659523Y-134603128D01*
X10659523Y-134603128D02*
X10721428Y-134479319D01*
X10721428Y-134479319D02*
X10845238Y-134355509D01*
X10845238Y-134355509D02*
X11030952Y-134293604D01*
X11030952Y-134293604D02*
X11154761Y-134293604D01*
X11154761Y-134293604D02*
X11340476Y-134355509D01*
X11340476Y-134355509D02*
X11402380Y-134417414D01*
D10*
D11*
X10659523Y-185593604D02*
X10659523Y-184293604D01*
X10659523Y-184293604D02*
X10969047Y-184293604D01*
X10969047Y-184293604D02*
X11154761Y-184355509D01*
X11154761Y-184355509D02*
X11278571Y-184479319D01*
X11278571Y-184479319D02*
X11340476Y-184603128D01*
X11340476Y-184603128D02*
X11402380Y-184850747D01*
X11402380Y-184850747D02*
X11402380Y-185036461D01*
X11402380Y-185036461D02*
X11340476Y-185284080D01*
X11340476Y-185284080D02*
X11278571Y-185407890D01*
X11278571Y-185407890D02*
X11154761Y-185531700D01*
X11154761Y-185531700D02*
X10969047Y-185593604D01*
X10969047Y-185593604D02*
X10659523Y-185593604D01*
D10*
D11*
X10721428Y-234912652D02*
X11154762Y-234912652D01*
X11340476Y-235593604D02*
X10721428Y-235593604D01*
X10721428Y-235593604D02*
X10721428Y-234293604D01*
X10721428Y-234293604D02*
X11340476Y-234293604D01*
D10*
D11*
X11185714Y-284912652D02*
X10752380Y-284912652D01*
X10752380Y-285593604D02*
X10752380Y-284293604D01*
X10752380Y-284293604D02*
X11371428Y-284293604D01*
D10*
D11*
X409989000Y-60000000D02*
X407989000Y-60000000D01*
D10*
D11*
X409989000Y-110000000D02*
X407989000Y-110000000D01*
D10*
D11*
X409989000Y-160000000D02*
X407989000Y-160000000D01*
D10*
D11*
X409989000Y-210000000D02*
X407989000Y-210000000D01*
D10*
D11*
X409989000Y-260000000D02*
X407989000Y-260000000D01*
D10*
D11*
X408679476Y-35222176D02*
X409298523Y-35222176D01*
X408555666Y-35593604D02*
X408988999Y-34293604D01*
X408988999Y-34293604D02*
X409422333Y-35593604D01*
D10*
D11*
X409081857Y-84912652D02*
X409267571Y-84974557D01*
X409267571Y-84974557D02*
X409329476Y-85036461D01*
X409329476Y-85036461D02*
X409391380Y-85160271D01*
X409391380Y-85160271D02*
X409391380Y-85345985D01*
X409391380Y-85345985D02*
X409329476Y-85469795D01*
X409329476Y-85469795D02*
X409267571Y-85531700D01*
X409267571Y-85531700D02*
X409143761Y-85593604D01*
X409143761Y-85593604D02*
X408648523Y-85593604D01*
X408648523Y-85593604D02*
X408648523Y-84293604D01*
X408648523Y-84293604D02*
X409081857Y-84293604D01*
X409081857Y-84293604D02*
X409205666Y-84355509D01*
X409205666Y-84355509D02*
X409267571Y-84417414D01*
X409267571Y-84417414D02*
X409329476Y-84541223D01*
X409329476Y-84541223D02*
X409329476Y-84665033D01*
X409329476Y-84665033D02*
X409267571Y-84788842D01*
X409267571Y-84788842D02*
X409205666Y-84850747D01*
X409205666Y-84850747D02*
X409081857Y-84912652D01*
X409081857Y-84912652D02*
X408648523Y-84912652D01*
D10*
D11*
X409391380Y-135469795D02*
X409329476Y-135531700D01*
X409329476Y-135531700D02*
X409143761Y-135593604D01*
X409143761Y-135593604D02*
X409019952Y-135593604D01*
X409019952Y-135593604D02*
X408834238Y-135531700D01*
X408834238Y-135531700D02*
X408710428Y-135407890D01*
X408710428Y-135407890D02*
X408648523Y-135284080D01*
X408648523Y-135284080D02*
X408586619Y-135036461D01*
X408586619Y-135036461D02*
X408586619Y-134850747D01*
X408586619Y-134850747D02*
X408648523Y-134603128D01*
X408648523Y-134603128D02*
X408710428Y-134479319D01*
X408710428Y-134479319D02*
X408834238Y-134355509D01*
X408834238Y-134355509D02*
X409019952Y-134293604D01*
X409019952Y-134293604D02*
X409143761Y-134293604D01*
X409143761Y-134293604D02*
X409329476Y-134355509D01*
X409329476Y-134355509D02*
X409391380Y-134417414D01*
D10*
D11*
X408648523Y-185593604D02*
X408648523Y-184293604D01*
X408648523Y-184293604D02*
X408958047Y-184293604D01*
X408958047Y-184293604D02*
X409143761Y-184355509D01*
X409143761Y-184355509D02*
X409267571Y-184479319D01*
X409267571Y-184479319D02*
X409329476Y-184603128D01*
X409329476Y-184603128D02*
X409391380Y-184850747D01*
X409391380Y-184850747D02*
X409391380Y-185036461D01*
X409391380Y-185036461D02*
X409329476Y-185284080D01*
X409329476Y-185284080D02*
X409267571Y-185407890D01*
X409267571Y-185407890D02*
X409143761Y-185531700D01*
X409143761Y-185531700D02*
X408958047Y-185593604D01*
X408958047Y-185593604D02*
X408648523Y-185593604D01*
D10*
D11*
X408710428Y-234912652D02*
X409143762Y-234912652D01*
X409329476Y-235593604D02*
X408710428Y-235593604D01*
X408710428Y-235593604D02*
X408710428Y-234293604D01*
X408710428Y-234293604D02*
X409329476Y-234293604D01*
D10*
D11*
X409174714Y-284912652D02*
X408741380Y-284912652D01*
X408741380Y-285593604D02*
X408741380Y-284293604D01*
X408741380Y-284293604D02*
X409360428Y-284293604D01*
D10*
D11*
X323444826Y-280788328D02*
X323444826Y-279288328D01*
X323444826Y-279288328D02*
X323801969Y-279288328D01*
X323801969Y-279288328D02*
X324016255Y-279359757D01*
X324016255Y-279359757D02*
X324159112Y-279502614D01*
X324159112Y-279502614D02*
X324230541Y-279645471D01*
X324230541Y-279645471D02*
X324301969Y-279931185D01*
X324301969Y-279931185D02*
X324301969Y-280145471D01*
X324301969Y-280145471D02*
X324230541Y-280431185D01*
X324230541Y-280431185D02*
X324159112Y-280574042D01*
X324159112Y-280574042D02*
X324016255Y-280716900D01*
X324016255Y-280716900D02*
X323801969Y-280788328D01*
X323801969Y-280788328D02*
X323444826Y-280788328D01*
X325587684Y-280788328D02*
X325587684Y-280002614D01*
X325587684Y-280002614D02*
X325516255Y-279859757D01*
X325516255Y-279859757D02*
X325373398Y-279788328D01*
X325373398Y-279788328D02*
X325087684Y-279788328D01*
X325087684Y-279788328D02*
X324944826Y-279859757D01*
X325587684Y-280716900D02*
X325444826Y-280788328D01*
X325444826Y-280788328D02*
X325087684Y-280788328D01*
X325087684Y-280788328D02*
X324944826Y-280716900D01*
X324944826Y-280716900D02*
X324873398Y-280574042D01*
X324873398Y-280574042D02*
X324873398Y-280431185D01*
X324873398Y-280431185D02*
X324944826Y-280288328D01*
X324944826Y-280288328D02*
X325087684Y-280216900D01*
X325087684Y-280216900D02*
X325444826Y-280216900D01*
X325444826Y-280216900D02*
X325587684Y-280145471D01*
X326087684Y-279788328D02*
X326659112Y-279788328D01*
X326301969Y-279288328D02*
X326301969Y-280574042D01*
X326301969Y-280574042D02*
X326373398Y-280716900D01*
X326373398Y-280716900D02*
X326516255Y-280788328D01*
X326516255Y-280788328D02*
X326659112Y-280788328D01*
X327730541Y-280716900D02*
X327587684Y-280788328D01*
X327587684Y-280788328D02*
X327301970Y-280788328D01*
X327301970Y-280788328D02*
X327159112Y-280716900D01*
X327159112Y-280716900D02*
X327087684Y-280574042D01*
X327087684Y-280574042D02*
X327087684Y-280002614D01*
X327087684Y-280002614D02*
X327159112Y-279859757D01*
X327159112Y-279859757D02*
X327301970Y-279788328D01*
X327301970Y-279788328D02*
X327587684Y-279788328D01*
X327587684Y-279788328D02*
X327730541Y-279859757D01*
X327730541Y-279859757D02*
X327801970Y-280002614D01*
X327801970Y-280002614D02*
X327801970Y-280145471D01*
X327801970Y-280145471D02*
X327087684Y-280288328D01*
X328444826Y-280645471D02*
X328516255Y-280716900D01*
X328516255Y-280716900D02*
X328444826Y-280788328D01*
X328444826Y-280788328D02*
X328373398Y-280716900D01*
X328373398Y-280716900D02*
X328444826Y-280645471D01*
X328444826Y-280645471D02*
X328444826Y-280788328D01*
X328444826Y-279859757D02*
X328516255Y-279931185D01*
X328516255Y-279931185D02*
X328444826Y-280002614D01*
X328444826Y-280002614D02*
X328373398Y-279931185D01*
X328373398Y-279931185D02*
X328444826Y-279859757D01*
X328444826Y-279859757D02*
X328444826Y-280002614D01*
X330230541Y-279431185D02*
X330301969Y-279359757D01*
X330301969Y-279359757D02*
X330444827Y-279288328D01*
X330444827Y-279288328D02*
X330801969Y-279288328D01*
X330801969Y-279288328D02*
X330944827Y-279359757D01*
X330944827Y-279359757D02*
X331016255Y-279431185D01*
X331016255Y-279431185D02*
X331087684Y-279574042D01*
X331087684Y-279574042D02*
X331087684Y-279716900D01*
X331087684Y-279716900D02*
X331016255Y-279931185D01*
X331016255Y-279931185D02*
X330159112Y-280788328D01*
X330159112Y-280788328D02*
X331087684Y-280788328D01*
X332016255Y-279288328D02*
X332159112Y-279288328D01*
X332159112Y-279288328D02*
X332301969Y-279359757D01*
X332301969Y-279359757D02*
X332373398Y-279431185D01*
X332373398Y-279431185D02*
X332444826Y-279574042D01*
X332444826Y-279574042D02*
X332516255Y-279859757D01*
X332516255Y-279859757D02*
X332516255Y-280216900D01*
X332516255Y-280216900D02*
X332444826Y-280502614D01*
X332444826Y-280502614D02*
X332373398Y-280645471D01*
X332373398Y-280645471D02*
X332301969Y-280716900D01*
X332301969Y-280716900D02*
X332159112Y-280788328D01*
X332159112Y-280788328D02*
X332016255Y-280788328D01*
X332016255Y-280788328D02*
X331873398Y-280716900D01*
X331873398Y-280716900D02*
X331801969Y-280645471D01*
X331801969Y-280645471D02*
X331730540Y-280502614D01*
X331730540Y-280502614D02*
X331659112Y-280216900D01*
X331659112Y-280216900D02*
X331659112Y-279859757D01*
X331659112Y-279859757D02*
X331730540Y-279574042D01*
X331730540Y-279574042D02*
X331801969Y-279431185D01*
X331801969Y-279431185D02*
X331873398Y-279359757D01*
X331873398Y-279359757D02*
X332016255Y-279288328D01*
X333087683Y-279431185D02*
X333159111Y-279359757D01*
X333159111Y-279359757D02*
X333301969Y-279288328D01*
X333301969Y-279288328D02*
X333659111Y-279288328D01*
X333659111Y-279288328D02*
X333801969Y-279359757D01*
X333801969Y-279359757D02*
X333873397Y-279431185D01*
X333873397Y-279431185D02*
X333944826Y-279574042D01*
X333944826Y-279574042D02*
X333944826Y-279716900D01*
X333944826Y-279716900D02*
X333873397Y-279931185D01*
X333873397Y-279931185D02*
X333016254Y-280788328D01*
X333016254Y-280788328D02*
X333944826Y-280788328D01*
X335230540Y-279788328D02*
X335230540Y-280788328D01*
X334873397Y-279216900D02*
X334516254Y-280288328D01*
X334516254Y-280288328D02*
X335444825Y-280288328D01*
X336016253Y-280216900D02*
X337159111Y-280216900D01*
X338159111Y-279288328D02*
X338301968Y-279288328D01*
X338301968Y-279288328D02*
X338444825Y-279359757D01*
X338444825Y-279359757D02*
X338516254Y-279431185D01*
X338516254Y-279431185D02*
X338587682Y-279574042D01*
X338587682Y-279574042D02*
X338659111Y-279859757D01*
X338659111Y-279859757D02*
X338659111Y-280216900D01*
X338659111Y-280216900D02*
X338587682Y-280502614D01*
X338587682Y-280502614D02*
X338516254Y-280645471D01*
X338516254Y-280645471D02*
X338444825Y-280716900D01*
X338444825Y-280716900D02*
X338301968Y-280788328D01*
X338301968Y-280788328D02*
X338159111Y-280788328D01*
X338159111Y-280788328D02*
X338016254Y-280716900D01*
X338016254Y-280716900D02*
X337944825Y-280645471D01*
X337944825Y-280645471D02*
X337873396Y-280502614D01*
X337873396Y-280502614D02*
X337801968Y-280216900D01*
X337801968Y-280216900D02*
X337801968Y-279859757D01*
X337801968Y-279859757D02*
X337873396Y-279574042D01*
X337873396Y-279574042D02*
X337944825Y-279431185D01*
X337944825Y-279431185D02*
X338016254Y-279359757D01*
X338016254Y-279359757D02*
X338159111Y-279288328D01*
X339944825Y-279788328D02*
X339944825Y-280788328D01*
X339587682Y-279216900D02*
X339230539Y-280288328D01*
X339230539Y-280288328D02*
X340159110Y-280288328D01*
X340730538Y-280216900D02*
X341873396Y-280216900D01*
X342873396Y-279288328D02*
X343016253Y-279288328D01*
X343016253Y-279288328D02*
X343159110Y-279359757D01*
X343159110Y-279359757D02*
X343230539Y-279431185D01*
X343230539Y-279431185D02*
X343301967Y-279574042D01*
X343301967Y-279574042D02*
X343373396Y-279859757D01*
X343373396Y-279859757D02*
X343373396Y-280216900D01*
X343373396Y-280216900D02*
X343301967Y-280502614D01*
X343301967Y-280502614D02*
X343230539Y-280645471D01*
X343230539Y-280645471D02*
X343159110Y-280716900D01*
X343159110Y-280716900D02*
X343016253Y-280788328D01*
X343016253Y-280788328D02*
X342873396Y-280788328D01*
X342873396Y-280788328D02*
X342730539Y-280716900D01*
X342730539Y-280716900D02*
X342659110Y-280645471D01*
X342659110Y-280645471D02*
X342587681Y-280502614D01*
X342587681Y-280502614D02*
X342516253Y-280216900D01*
X342516253Y-280216900D02*
X342516253Y-279859757D01*
X342516253Y-279859757D02*
X342587681Y-279574042D01*
X342587681Y-279574042D02*
X342659110Y-279431185D01*
X342659110Y-279431185D02*
X342730539Y-279359757D01*
X342730539Y-279359757D02*
X342873396Y-279288328D01*
X343873395Y-279288328D02*
X344801967Y-279288328D01*
X344801967Y-279288328D02*
X344301967Y-279859757D01*
X344301967Y-279859757D02*
X344516252Y-279859757D01*
X344516252Y-279859757D02*
X344659110Y-279931185D01*
X344659110Y-279931185D02*
X344730538Y-280002614D01*
X344730538Y-280002614D02*
X344801967Y-280145471D01*
X344801967Y-280145471D02*
X344801967Y-280502614D01*
X344801967Y-280502614D02*
X344730538Y-280645471D01*
X344730538Y-280645471D02*
X344659110Y-280716900D01*
X344659110Y-280716900D02*
X344516252Y-280788328D01*
X344516252Y-280788328D02*
X344087681Y-280788328D01*
X344087681Y-280788328D02*
X343944824Y-280716900D01*
X343944824Y-280716900D02*
X343873395Y-280645471D01*
D10*
D11*
X299989000Y-281502200D02*
X407989000Y-281502200D01*
D10*
D11*
X301444826Y-283588328D02*
X301444826Y-282088328D01*
X302301969Y-283588328D02*
X301659112Y-282731185D01*
X302301969Y-282088328D02*
X301444826Y-282945471D01*
X302944826Y-283588328D02*
X302944826Y-282588328D01*
X302944826Y-282088328D02*
X302873398Y-282159757D01*
X302873398Y-282159757D02*
X302944826Y-282231185D01*
X302944826Y-282231185D02*
X303016255Y-282159757D01*
X303016255Y-282159757D02*
X302944826Y-282088328D01*
X302944826Y-282088328D02*
X302944826Y-282231185D01*
X304516255Y-283445471D02*
X304444827Y-283516900D01*
X304444827Y-283516900D02*
X304230541Y-283588328D01*
X304230541Y-283588328D02*
X304087684Y-283588328D01*
X304087684Y-283588328D02*
X303873398Y-283516900D01*
X303873398Y-283516900D02*
X303730541Y-283374042D01*
X303730541Y-283374042D02*
X303659112Y-283231185D01*
X303659112Y-283231185D02*
X303587684Y-282945471D01*
X303587684Y-282945471D02*
X303587684Y-282731185D01*
X303587684Y-282731185D02*
X303659112Y-282445471D01*
X303659112Y-282445471D02*
X303730541Y-282302614D01*
X303730541Y-282302614D02*
X303873398Y-282159757D01*
X303873398Y-282159757D02*
X304087684Y-282088328D01*
X304087684Y-282088328D02*
X304230541Y-282088328D01*
X304230541Y-282088328D02*
X304444827Y-282159757D01*
X304444827Y-282159757D02*
X304516255Y-282231185D01*
X305801970Y-283588328D02*
X305801970Y-282802614D01*
X305801970Y-282802614D02*
X305730541Y-282659757D01*
X305730541Y-282659757D02*
X305587684Y-282588328D01*
X305587684Y-282588328D02*
X305301970Y-282588328D01*
X305301970Y-282588328D02*
X305159112Y-282659757D01*
X305801970Y-283516900D02*
X305659112Y-283588328D01*
X305659112Y-283588328D02*
X305301970Y-283588328D01*
X305301970Y-283588328D02*
X305159112Y-283516900D01*
X305159112Y-283516900D02*
X305087684Y-283374042D01*
X305087684Y-283374042D02*
X305087684Y-283231185D01*
X305087684Y-283231185D02*
X305159112Y-283088328D01*
X305159112Y-283088328D02*
X305301970Y-283016900D01*
X305301970Y-283016900D02*
X305659112Y-283016900D01*
X305659112Y-283016900D02*
X305801970Y-282945471D01*
X307159113Y-283588328D02*
X307159113Y-282088328D01*
X307159113Y-283516900D02*
X307016255Y-283588328D01*
X307016255Y-283588328D02*
X306730541Y-283588328D01*
X306730541Y-283588328D02*
X306587684Y-283516900D01*
X306587684Y-283516900D02*
X306516255Y-283445471D01*
X306516255Y-283445471D02*
X306444827Y-283302614D01*
X306444827Y-283302614D02*
X306444827Y-282874042D01*
X306444827Y-282874042D02*
X306516255Y-282731185D01*
X306516255Y-282731185D02*
X306587684Y-282659757D01*
X306587684Y-282659757D02*
X306730541Y-282588328D01*
X306730541Y-282588328D02*
X307016255Y-282588328D01*
X307016255Y-282588328D02*
X307159113Y-282659757D01*
X309016255Y-282802614D02*
X309516255Y-282802614D01*
X309730541Y-283588328D02*
X309016255Y-283588328D01*
X309016255Y-283588328D02*
X309016255Y-282088328D01*
X309016255Y-282088328D02*
X309730541Y-282088328D01*
X310373398Y-283445471D02*
X310444827Y-283516900D01*
X310444827Y-283516900D02*
X310373398Y-283588328D01*
X310373398Y-283588328D02*
X310301970Y-283516900D01*
X310301970Y-283516900D02*
X310373398Y-283445471D01*
X310373398Y-283445471D02*
X310373398Y-283588328D01*
X311087684Y-283588328D02*
X311087684Y-282088328D01*
X311087684Y-282088328D02*
X311444827Y-282088328D01*
X311444827Y-282088328D02*
X311659113Y-282159757D01*
X311659113Y-282159757D02*
X311801970Y-282302614D01*
X311801970Y-282302614D02*
X311873399Y-282445471D01*
X311873399Y-282445471D02*
X311944827Y-282731185D01*
X311944827Y-282731185D02*
X311944827Y-282945471D01*
X311944827Y-282945471D02*
X311873399Y-283231185D01*
X311873399Y-283231185D02*
X311801970Y-283374042D01*
X311801970Y-283374042D02*
X311659113Y-283516900D01*
X311659113Y-283516900D02*
X311444827Y-283588328D01*
X311444827Y-283588328D02*
X311087684Y-283588328D01*
X312587684Y-283445471D02*
X312659113Y-283516900D01*
X312659113Y-283516900D02*
X312587684Y-283588328D01*
X312587684Y-283588328D02*
X312516256Y-283516900D01*
X312516256Y-283516900D02*
X312587684Y-283445471D01*
X312587684Y-283445471D02*
X312587684Y-283588328D01*
X313230542Y-283159757D02*
X313944828Y-283159757D01*
X313087685Y-283588328D02*
X313587685Y-282088328D01*
X313587685Y-282088328D02*
X314087685Y-283588328D01*
X314587684Y-283445471D02*
X314659113Y-283516900D01*
X314659113Y-283516900D02*
X314587684Y-283588328D01*
X314587684Y-283588328D02*
X314516256Y-283516900D01*
X314516256Y-283516900D02*
X314587684Y-283445471D01*
X314587684Y-283445471D02*
X314587684Y-283588328D01*
X316659113Y-282731185D02*
X316516256Y-282659757D01*
X316516256Y-282659757D02*
X316444827Y-282588328D01*
X316444827Y-282588328D02*
X316373399Y-282445471D01*
X316373399Y-282445471D02*
X316373399Y-282374042D01*
X316373399Y-282374042D02*
X316444827Y-282231185D01*
X316444827Y-282231185D02*
X316516256Y-282159757D01*
X316516256Y-282159757D02*
X316659113Y-282088328D01*
X316659113Y-282088328D02*
X316944827Y-282088328D01*
X316944827Y-282088328D02*
X317087685Y-282159757D01*
X317087685Y-282159757D02*
X317159113Y-282231185D01*
X317159113Y-282231185D02*
X317230542Y-282374042D01*
X317230542Y-282374042D02*
X317230542Y-282445471D01*
X317230542Y-282445471D02*
X317159113Y-282588328D01*
X317159113Y-282588328D02*
X317087685Y-282659757D01*
X317087685Y-282659757D02*
X316944827Y-282731185D01*
X316944827Y-282731185D02*
X316659113Y-282731185D01*
X316659113Y-282731185D02*
X316516256Y-282802614D01*
X316516256Y-282802614D02*
X316444827Y-282874042D01*
X316444827Y-282874042D02*
X316373399Y-283016900D01*
X316373399Y-283016900D02*
X316373399Y-283302614D01*
X316373399Y-283302614D02*
X316444827Y-283445471D01*
X316444827Y-283445471D02*
X316516256Y-283516900D01*
X316516256Y-283516900D02*
X316659113Y-283588328D01*
X316659113Y-283588328D02*
X316944827Y-283588328D01*
X316944827Y-283588328D02*
X317087685Y-283516900D01*
X317087685Y-283516900D02*
X317159113Y-283445471D01*
X317159113Y-283445471D02*
X317230542Y-283302614D01*
X317230542Y-283302614D02*
X317230542Y-283016900D01*
X317230542Y-283016900D02*
X317159113Y-282874042D01*
X317159113Y-282874042D02*
X317087685Y-282802614D01*
X317087685Y-282802614D02*
X316944827Y-282731185D01*
X317873398Y-283445471D02*
X317944827Y-283516900D01*
X317944827Y-283516900D02*
X317873398Y-283588328D01*
X317873398Y-283588328D02*
X317801970Y-283516900D01*
X317801970Y-283516900D02*
X317873398Y-283445471D01*
X317873398Y-283445471D02*
X317873398Y-283588328D01*
X318873399Y-282088328D02*
X319016256Y-282088328D01*
X319016256Y-282088328D02*
X319159113Y-282159757D01*
X319159113Y-282159757D02*
X319230542Y-282231185D01*
X319230542Y-282231185D02*
X319301970Y-282374042D01*
X319301970Y-282374042D02*
X319373399Y-282659757D01*
X319373399Y-282659757D02*
X319373399Y-283016900D01*
X319373399Y-283016900D02*
X319301970Y-283302614D01*
X319301970Y-283302614D02*
X319230542Y-283445471D01*
X319230542Y-283445471D02*
X319159113Y-283516900D01*
X319159113Y-283516900D02*
X319016256Y-283588328D01*
X319016256Y-283588328D02*
X318873399Y-283588328D01*
X318873399Y-283588328D02*
X318730542Y-283516900D01*
X318730542Y-283516900D02*
X318659113Y-283445471D01*
X318659113Y-283445471D02*
X318587684Y-283302614D01*
X318587684Y-283302614D02*
X318516256Y-283016900D01*
X318516256Y-283016900D02*
X318516256Y-282659757D01*
X318516256Y-282659757D02*
X318587684Y-282374042D01*
X318587684Y-282374042D02*
X318659113Y-282231185D01*
X318659113Y-282231185D02*
X318730542Y-282159757D01*
X318730542Y-282159757D02*
X318873399Y-282088328D01*
X320016255Y-283445471D02*
X320087684Y-283516900D01*
X320087684Y-283516900D02*
X320016255Y-283588328D01*
X320016255Y-283588328D02*
X319944827Y-283516900D01*
X319944827Y-283516900D02*
X320016255Y-283445471D01*
X320016255Y-283445471D02*
X320016255Y-283588328D01*
X321373399Y-282088328D02*
X321087684Y-282088328D01*
X321087684Y-282088328D02*
X320944827Y-282159757D01*
X320944827Y-282159757D02*
X320873399Y-282231185D01*
X320873399Y-282231185D02*
X320730541Y-282445471D01*
X320730541Y-282445471D02*
X320659113Y-282731185D01*
X320659113Y-282731185D02*
X320659113Y-283302614D01*
X320659113Y-283302614D02*
X320730541Y-283445471D01*
X320730541Y-283445471D02*
X320801970Y-283516900D01*
X320801970Y-283516900D02*
X320944827Y-283588328D01*
X320944827Y-283588328D02*
X321230541Y-283588328D01*
X321230541Y-283588328D02*
X321373399Y-283516900D01*
X321373399Y-283516900D02*
X321444827Y-283445471D01*
X321444827Y-283445471D02*
X321516256Y-283302614D01*
X321516256Y-283302614D02*
X321516256Y-282945471D01*
X321516256Y-282945471D02*
X321444827Y-282802614D01*
X321444827Y-282802614D02*
X321373399Y-282731185D01*
X321373399Y-282731185D02*
X321230541Y-282659757D01*
X321230541Y-282659757D02*
X320944827Y-282659757D01*
X320944827Y-282659757D02*
X320801970Y-282731185D01*
X320801970Y-282731185D02*
X320730541Y-282802614D01*
X320730541Y-282802614D02*
X320659113Y-282945471D01*
D10*
D11*
X299989000Y-278502200D02*
X407989000Y-278502200D01*
D10*
D12*
X387400653Y-280780528D02*
X386900653Y-280066242D01*
X386543510Y-280780528D02*
X386543510Y-279280528D01*
X386543510Y-279280528D02*
X387114939Y-279280528D01*
X387114939Y-279280528D02*
X387257796Y-279351957D01*
X387257796Y-279351957D02*
X387329225Y-279423385D01*
X387329225Y-279423385D02*
X387400653Y-279566242D01*
X387400653Y-279566242D02*
X387400653Y-279780528D01*
X387400653Y-279780528D02*
X387329225Y-279923385D01*
X387329225Y-279923385D02*
X387257796Y-279994814D01*
X387257796Y-279994814D02*
X387114939Y-280066242D01*
X387114939Y-280066242D02*
X386543510Y-280066242D01*
X388614939Y-280709100D02*
X388472082Y-280780528D01*
X388472082Y-280780528D02*
X388186368Y-280780528D01*
X388186368Y-280780528D02*
X388043510Y-280709100D01*
X388043510Y-280709100D02*
X387972082Y-280566242D01*
X387972082Y-280566242D02*
X387972082Y-279994814D01*
X387972082Y-279994814D02*
X388043510Y-279851957D01*
X388043510Y-279851957D02*
X388186368Y-279780528D01*
X388186368Y-279780528D02*
X388472082Y-279780528D01*
X388472082Y-279780528D02*
X388614939Y-279851957D01*
X388614939Y-279851957D02*
X388686368Y-279994814D01*
X388686368Y-279994814D02*
X388686368Y-280137671D01*
X388686368Y-280137671D02*
X387972082Y-280280528D01*
X389186367Y-279780528D02*
X389543510Y-280780528D01*
X389543510Y-280780528D02*
X389900653Y-279780528D01*
X390472081Y-280637671D02*
X390543510Y-280709100D01*
X390543510Y-280709100D02*
X390472081Y-280780528D01*
X390472081Y-280780528D02*
X390400653Y-280709100D01*
X390400653Y-280709100D02*
X390472081Y-280637671D01*
X390472081Y-280637671D02*
X390472081Y-280780528D01*
X390472081Y-279851957D02*
X390543510Y-279923385D01*
X390543510Y-279923385D02*
X390472081Y-279994814D01*
X390472081Y-279994814D02*
X390400653Y-279923385D01*
X390400653Y-279923385D02*
X390472081Y-279851957D01*
X390472081Y-279851957D02*
X390472081Y-279994814D01*
X392114939Y-279280528D02*
X392614939Y-280780528D01*
X392614939Y-280780528D02*
X393114939Y-279280528D01*
X393543510Y-279423385D02*
X393614938Y-279351957D01*
X393614938Y-279351957D02*
X393757796Y-279280528D01*
X393757796Y-279280528D02*
X394114938Y-279280528D01*
X394114938Y-279280528D02*
X394257796Y-279351957D01*
X394257796Y-279351957D02*
X394329224Y-279423385D01*
X394329224Y-279423385D02*
X394400653Y-279566242D01*
X394400653Y-279566242D02*
X394400653Y-279709100D01*
X394400653Y-279709100D02*
X394329224Y-279923385D01*
X394329224Y-279923385D02*
X393472081Y-280780528D01*
X393472081Y-280780528D02*
X394400653Y-280780528D01*
D10*
D11*
X301373398Y-280716900D02*
X301587684Y-280788328D01*
X301587684Y-280788328D02*
X301944826Y-280788328D01*
X301944826Y-280788328D02*
X302087684Y-280716900D01*
X302087684Y-280716900D02*
X302159112Y-280645471D01*
X302159112Y-280645471D02*
X302230541Y-280502614D01*
X302230541Y-280502614D02*
X302230541Y-280359757D01*
X302230541Y-280359757D02*
X302159112Y-280216900D01*
X302159112Y-280216900D02*
X302087684Y-280145471D01*
X302087684Y-280145471D02*
X301944826Y-280074042D01*
X301944826Y-280074042D02*
X301659112Y-280002614D01*
X301659112Y-280002614D02*
X301516255Y-279931185D01*
X301516255Y-279931185D02*
X301444826Y-279859757D01*
X301444826Y-279859757D02*
X301373398Y-279716900D01*
X301373398Y-279716900D02*
X301373398Y-279574042D01*
X301373398Y-279574042D02*
X301444826Y-279431185D01*
X301444826Y-279431185D02*
X301516255Y-279359757D01*
X301516255Y-279359757D02*
X301659112Y-279288328D01*
X301659112Y-279288328D02*
X302016255Y-279288328D01*
X302016255Y-279288328D02*
X302230541Y-279359757D01*
X302873397Y-280788328D02*
X302873397Y-279788328D01*
X302873397Y-279288328D02*
X302801969Y-279359757D01*
X302801969Y-279359757D02*
X302873397Y-279431185D01*
X302873397Y-279431185D02*
X302944826Y-279359757D01*
X302944826Y-279359757D02*
X302873397Y-279288328D01*
X302873397Y-279288328D02*
X302873397Y-279431185D01*
X303444826Y-279788328D02*
X304230541Y-279788328D01*
X304230541Y-279788328D02*
X303444826Y-280788328D01*
X303444826Y-280788328D02*
X304230541Y-280788328D01*
X305373398Y-280716900D02*
X305230541Y-280788328D01*
X305230541Y-280788328D02*
X304944827Y-280788328D01*
X304944827Y-280788328D02*
X304801969Y-280716900D01*
X304801969Y-280716900D02*
X304730541Y-280574042D01*
X304730541Y-280574042D02*
X304730541Y-280002614D01*
X304730541Y-280002614D02*
X304801969Y-279859757D01*
X304801969Y-279859757D02*
X304944827Y-279788328D01*
X304944827Y-279788328D02*
X305230541Y-279788328D01*
X305230541Y-279788328D02*
X305373398Y-279859757D01*
X305373398Y-279859757D02*
X305444827Y-280002614D01*
X305444827Y-280002614D02*
X305444827Y-280145471D01*
X305444827Y-280145471D02*
X304730541Y-280288328D01*
X306087683Y-280645471D02*
X306159112Y-280716900D01*
X306159112Y-280716900D02*
X306087683Y-280788328D01*
X306087683Y-280788328D02*
X306016255Y-280716900D01*
X306016255Y-280716900D02*
X306087683Y-280645471D01*
X306087683Y-280645471D02*
X306087683Y-280788328D01*
X306087683Y-279859757D02*
X306159112Y-279931185D01*
X306159112Y-279931185D02*
X306087683Y-280002614D01*
X306087683Y-280002614D02*
X306016255Y-279931185D01*
X306016255Y-279931185D02*
X306087683Y-279859757D01*
X306087683Y-279859757D02*
X306087683Y-280002614D01*
X307873398Y-280359757D02*
X308587684Y-280359757D01*
X307730541Y-280788328D02*
X308230541Y-279288328D01*
X308230541Y-279288328D02*
X308730541Y-280788328D01*
X309087683Y-279288328D02*
X310016255Y-279288328D01*
X310016255Y-279288328D02*
X309516255Y-279859757D01*
X309516255Y-279859757D02*
X309730540Y-279859757D01*
X309730540Y-279859757D02*
X309873398Y-279931185D01*
X309873398Y-279931185D02*
X309944826Y-280002614D01*
X309944826Y-280002614D02*
X310016255Y-280145471D01*
X310016255Y-280145471D02*
X310016255Y-280502614D01*
X310016255Y-280502614D02*
X309944826Y-280645471D01*
X309944826Y-280645471D02*
X309873398Y-280716900D01*
X309873398Y-280716900D02*
X309730540Y-280788328D01*
X309730540Y-280788328D02*
X309301969Y-280788328D01*
X309301969Y-280788328D02*
X309159112Y-280716900D01*
X309159112Y-280716900D02*
X309087683Y-280645471D01*
D10*
D11*
X386444826Y-283588328D02*
X386444826Y-282088328D01*
X387801970Y-283588328D02*
X387801970Y-282088328D01*
X387801970Y-283516900D02*
X387659112Y-283588328D01*
X387659112Y-283588328D02*
X387373398Y-283588328D01*
X387373398Y-283588328D02*
X387230541Y-283516900D01*
X387230541Y-283516900D02*
X387159112Y-283445471D01*
X387159112Y-283445471D02*
X387087684Y-283302614D01*
X387087684Y-283302614D02*
X387087684Y-282874042D01*
X387087684Y-282874042D02*
X387159112Y-282731185D01*
X387159112Y-282731185D02*
X387230541Y-282659757D01*
X387230541Y-282659757D02*
X387373398Y-282588328D01*
X387373398Y-282588328D02*
X387659112Y-282588328D01*
X387659112Y-282588328D02*
X387801970Y-282659757D01*
X388516255Y-283445471D02*
X388587684Y-283516900D01*
X388587684Y-283516900D02*
X388516255Y-283588328D01*
X388516255Y-283588328D02*
X388444827Y-283516900D01*
X388444827Y-283516900D02*
X388516255Y-283445471D01*
X388516255Y-283445471D02*
X388516255Y-283588328D01*
X388516255Y-282659757D02*
X388587684Y-282731185D01*
X388587684Y-282731185D02*
X388516255Y-282802614D01*
X388516255Y-282802614D02*
X388444827Y-282731185D01*
X388444827Y-282731185D02*
X388516255Y-282659757D01*
X388516255Y-282659757D02*
X388516255Y-282802614D01*
X391159113Y-283588328D02*
X390301970Y-283588328D01*
X390730541Y-283588328D02*
X390730541Y-282088328D01*
X390730541Y-282088328D02*
X390587684Y-282302614D01*
X390587684Y-282302614D02*
X390444827Y-282445471D01*
X390444827Y-282445471D02*
X390301970Y-282516900D01*
X392873398Y-282016900D02*
X391587684Y-283945471D01*
X394159113Y-283588328D02*
X393301970Y-283588328D01*
X393730541Y-283588328D02*
X393730541Y-282088328D01*
X393730541Y-282088328D02*
X393587684Y-282302614D01*
X393587684Y-282302614D02*
X393444827Y-282445471D01*
X393444827Y-282445471D02*
X393301970Y-282516900D01*
D10*
D11*
X299989000Y-274502200D02*
X407989000Y-274502200D01*
D10*
D13*
X301680728Y-275206638D02*
X302823585Y-275206638D01*
X302002157Y-277206638D02*
X302252157Y-275206638D01*
X303240252Y-277206638D02*
X303406919Y-275873304D01*
X303490252Y-275206638D02*
X303383109Y-275301876D01*
X303383109Y-275301876D02*
X303466443Y-275397114D01*
X303466443Y-275397114D02*
X303573586Y-275301876D01*
X303573586Y-275301876D02*
X303490252Y-275206638D01*
X303490252Y-275206638D02*
X303466443Y-275397114D01*
X304073586Y-275873304D02*
X304835490Y-275873304D01*
X304442633Y-275206638D02*
X304228348Y-276920923D01*
X304228348Y-276920923D02*
X304299776Y-277111400D01*
X304299776Y-277111400D02*
X304478348Y-277206638D01*
X304478348Y-277206638D02*
X304668824Y-277206638D01*
X305621205Y-277206638D02*
X305442633Y-277111400D01*
X305442633Y-277111400D02*
X305371205Y-276920923D01*
X305371205Y-276920923D02*
X305585490Y-275206638D01*
X307156919Y-277111400D02*
X306954538Y-277206638D01*
X306954538Y-277206638D02*
X306573585Y-277206638D01*
X306573585Y-277206638D02*
X306395014Y-277111400D01*
X306395014Y-277111400D02*
X306323585Y-276920923D01*
X306323585Y-276920923D02*
X306418824Y-276159019D01*
X306418824Y-276159019D02*
X306537871Y-275968542D01*
X306537871Y-275968542D02*
X306740252Y-275873304D01*
X306740252Y-275873304D02*
X307121204Y-275873304D01*
X307121204Y-275873304D02*
X307299776Y-275968542D01*
X307299776Y-275968542D02*
X307371204Y-276159019D01*
X307371204Y-276159019D02*
X307347395Y-276349495D01*
X307347395Y-276349495D02*
X306371204Y-276539971D01*
X308121205Y-277016161D02*
X308204538Y-277111400D01*
X308204538Y-277111400D02*
X308097395Y-277206638D01*
X308097395Y-277206638D02*
X308014062Y-277111400D01*
X308014062Y-277111400D02*
X308121205Y-277016161D01*
X308121205Y-277016161D02*
X308097395Y-277206638D01*
X308252157Y-275968542D02*
X308335490Y-276063780D01*
X308335490Y-276063780D02*
X308228348Y-276159019D01*
X308228348Y-276159019D02*
X308145014Y-276063780D01*
X308145014Y-276063780D02*
X308252157Y-275968542D01*
X308252157Y-275968542D02*
X308228348Y-276159019D01*
X310490253Y-277111400D02*
X310668824Y-277206638D01*
X310668824Y-277206638D02*
X311049777Y-277206638D01*
X311049777Y-277206638D02*
X311252158Y-277111400D01*
X311252158Y-277111400D02*
X311371205Y-276920923D01*
X311371205Y-276920923D02*
X311383110Y-276825685D01*
X311383110Y-276825685D02*
X311311681Y-276635209D01*
X311311681Y-276635209D02*
X311133110Y-276539971D01*
X311133110Y-276539971D02*
X310847396Y-276539971D01*
X310847396Y-276539971D02*
X310668824Y-276444733D01*
X310668824Y-276444733D02*
X310597396Y-276254257D01*
X310597396Y-276254257D02*
X310609301Y-276159019D01*
X310609301Y-276159019D02*
X310728348Y-275968542D01*
X310728348Y-275968542D02*
X310930729Y-275873304D01*
X310930729Y-275873304D02*
X311216443Y-275873304D01*
X311216443Y-275873304D02*
X311395015Y-275968542D01*
X312073587Y-275873304D02*
X312835491Y-275873304D01*
X312442634Y-275206638D02*
X312228349Y-276920923D01*
X312228349Y-276920923D02*
X312299777Y-277111400D01*
X312299777Y-277111400D02*
X312478349Y-277206638D01*
X312478349Y-277206638D02*
X312668825Y-277206638D01*
X313335491Y-277206638D02*
X313502158Y-275873304D01*
X313478348Y-276063780D02*
X313585491Y-275968542D01*
X313585491Y-275968542D02*
X313787872Y-275873304D01*
X313787872Y-275873304D02*
X314073586Y-275873304D01*
X314073586Y-275873304D02*
X314252158Y-275968542D01*
X314252158Y-275968542D02*
X314323586Y-276159019D01*
X314323586Y-276159019D02*
X314192634Y-277206638D01*
X314323586Y-276159019D02*
X314442634Y-275968542D01*
X314442634Y-275968542D02*
X314645015Y-275873304D01*
X314645015Y-275873304D02*
X314930729Y-275873304D01*
X314930729Y-275873304D02*
X315109301Y-275968542D01*
X315109301Y-275968542D02*
X315180729Y-276159019D01*
X315180729Y-276159019D02*
X315049777Y-277206638D01*
X316061682Y-275206638D02*
X317299777Y-275206638D01*
X317299777Y-275206638D02*
X316537873Y-275968542D01*
X316537873Y-275968542D02*
X316823587Y-275968542D01*
X316823587Y-275968542D02*
X317002158Y-276063780D01*
X317002158Y-276063780D02*
X317085492Y-276159019D01*
X317085492Y-276159019D02*
X317156920Y-276349495D01*
X317156920Y-276349495D02*
X317097396Y-276825685D01*
X317097396Y-276825685D02*
X316978349Y-277016161D01*
X316978349Y-277016161D02*
X316871206Y-277111400D01*
X316871206Y-277111400D02*
X316668825Y-277206638D01*
X316668825Y-277206638D02*
X316097396Y-277206638D01*
X316097396Y-277206638D02*
X315918825Y-277111400D01*
X315918825Y-277111400D02*
X315835492Y-277016161D01*
X318037873Y-275397114D02*
X318145015Y-275301876D01*
X318145015Y-275301876D02*
X318347396Y-275206638D01*
X318347396Y-275206638D02*
X318823587Y-275206638D01*
X318823587Y-275206638D02*
X319002158Y-275301876D01*
X319002158Y-275301876D02*
X319085492Y-275397114D01*
X319085492Y-275397114D02*
X319156920Y-275587590D01*
X319156920Y-275587590D02*
X319133111Y-275778066D01*
X319133111Y-275778066D02*
X319002158Y-276063780D01*
X319002158Y-276063780D02*
X317716444Y-277206638D01*
X317716444Y-277206638D02*
X318954539Y-277206638D01*
X319311682Y-277397114D02*
X320835492Y-277397114D01*
X321335492Y-277206638D02*
X321585492Y-275206638D01*
X321490254Y-275968542D02*
X321692635Y-275873304D01*
X321692635Y-275873304D02*
X322073587Y-275873304D01*
X322073587Y-275873304D02*
X322252159Y-275968542D01*
X322252159Y-275968542D02*
X322335492Y-276063780D01*
X322335492Y-276063780D02*
X322406921Y-276254257D01*
X322406921Y-276254257D02*
X322335492Y-276825685D01*
X322335492Y-276825685D02*
X322216445Y-277016161D01*
X322216445Y-277016161D02*
X322109302Y-277111400D01*
X322109302Y-277111400D02*
X321906921Y-277206638D01*
X321906921Y-277206638D02*
X321525968Y-277206638D01*
X321525968Y-277206638D02*
X321347397Y-277111400D01*
X323430731Y-277206638D02*
X323252159Y-277111400D01*
X323252159Y-277111400D02*
X323180731Y-276920923D01*
X323180731Y-276920923D02*
X323395016Y-275206638D01*
X325216445Y-275873304D02*
X325049778Y-277206638D01*
X324359302Y-275873304D02*
X324228350Y-276920923D01*
X324228350Y-276920923D02*
X324299778Y-277111400D01*
X324299778Y-277111400D02*
X324478350Y-277206638D01*
X324478350Y-277206638D02*
X324764064Y-277206638D01*
X324764064Y-277206638D02*
X324966445Y-277111400D01*
X324966445Y-277111400D02*
X325073588Y-277016161D01*
X326775969Y-277111400D02*
X326573588Y-277206638D01*
X326573588Y-277206638D02*
X326192635Y-277206638D01*
X326192635Y-277206638D02*
X326014064Y-277111400D01*
X326014064Y-277111400D02*
X325942635Y-276920923D01*
X325942635Y-276920923D02*
X326037874Y-276159019D01*
X326037874Y-276159019D02*
X326156921Y-275968542D01*
X326156921Y-275968542D02*
X326359302Y-275873304D01*
X326359302Y-275873304D02*
X326740254Y-275873304D01*
X326740254Y-275873304D02*
X326918826Y-275968542D01*
X326918826Y-275968542D02*
X326990254Y-276159019D01*
X326990254Y-276159019D02*
X326966445Y-276349495D01*
X326966445Y-276349495D02*
X325990254Y-276539971D01*
X327597398Y-275873304D02*
X328359302Y-275873304D01*
X327966445Y-275206638D02*
X327752160Y-276920923D01*
X327752160Y-276920923D02*
X327823588Y-277111400D01*
X327823588Y-277111400D02*
X328002160Y-277206638D01*
X328002160Y-277206638D02*
X328192636Y-277206638D01*
X328359302Y-277397114D02*
X329883112Y-277397114D01*
X330549779Y-275873304D02*
X330299779Y-277873304D01*
X330537874Y-275968542D02*
X330740255Y-275873304D01*
X330740255Y-275873304D02*
X331121207Y-275873304D01*
X331121207Y-275873304D02*
X331299779Y-275968542D01*
X331299779Y-275968542D02*
X331383112Y-276063780D01*
X331383112Y-276063780D02*
X331454541Y-276254257D01*
X331454541Y-276254257D02*
X331383112Y-276825685D01*
X331383112Y-276825685D02*
X331264065Y-277016161D01*
X331264065Y-277016161D02*
X331156922Y-277111400D01*
X331156922Y-277111400D02*
X330954541Y-277206638D01*
X330954541Y-277206638D02*
X330573588Y-277206638D01*
X330573588Y-277206638D02*
X330395017Y-277111400D01*
X332192636Y-277206638D02*
X332359303Y-275873304D01*
X332442636Y-275206638D02*
X332335493Y-275301876D01*
X332335493Y-275301876D02*
X332418827Y-275397114D01*
X332418827Y-275397114D02*
X332525970Y-275301876D01*
X332525970Y-275301876D02*
X332442636Y-275206638D01*
X332442636Y-275206638D02*
X332418827Y-275397114D01*
X333430732Y-277206638D02*
X333252160Y-277111400D01*
X333252160Y-277111400D02*
X333180732Y-276920923D01*
X333180732Y-276920923D02*
X333395017Y-275206638D01*
X334478351Y-277206638D02*
X334299779Y-277111400D01*
X334299779Y-277111400D02*
X334228351Y-276920923D01*
X334228351Y-276920923D02*
X334442636Y-275206638D01*
D10*
D11*
X301944826Y-272602614D02*
X301444826Y-272602614D01*
X301444826Y-273388328D02*
X301444826Y-271888328D01*
X301444826Y-271888328D02*
X302159112Y-271888328D01*
X302730540Y-273388328D02*
X302730540Y-272388328D01*
X302730540Y-271888328D02*
X302659112Y-271959757D01*
X302659112Y-271959757D02*
X302730540Y-272031185D01*
X302730540Y-272031185D02*
X302801969Y-271959757D01*
X302801969Y-271959757D02*
X302730540Y-271888328D01*
X302730540Y-271888328D02*
X302730540Y-272031185D01*
X303659112Y-273388328D02*
X303516255Y-273316900D01*
X303516255Y-273316900D02*
X303444826Y-273174042D01*
X303444826Y-273174042D02*
X303444826Y-271888328D01*
X304801969Y-273316900D02*
X304659112Y-273388328D01*
X304659112Y-273388328D02*
X304373398Y-273388328D01*
X304373398Y-273388328D02*
X304230540Y-273316900D01*
X304230540Y-273316900D02*
X304159112Y-273174042D01*
X304159112Y-273174042D02*
X304159112Y-272602614D01*
X304159112Y-272602614D02*
X304230540Y-272459757D01*
X304230540Y-272459757D02*
X304373398Y-272388328D01*
X304373398Y-272388328D02*
X304659112Y-272388328D01*
X304659112Y-272388328D02*
X304801969Y-272459757D01*
X304801969Y-272459757D02*
X304873398Y-272602614D01*
X304873398Y-272602614D02*
X304873398Y-272745471D01*
X304873398Y-272745471D02*
X304159112Y-272888328D01*
X305516254Y-273245471D02*
X305587683Y-273316900D01*
X305587683Y-273316900D02*
X305516254Y-273388328D01*
X305516254Y-273388328D02*
X305444826Y-273316900D01*
X305444826Y-273316900D02*
X305516254Y-273245471D01*
X305516254Y-273245471D02*
X305516254Y-273388328D01*
X305516254Y-272459757D02*
X305587683Y-272531185D01*
X305587683Y-272531185D02*
X305516254Y-272602614D01*
X305516254Y-272602614D02*
X305444826Y-272531185D01*
X305444826Y-272531185D02*
X305516254Y-272459757D01*
X305516254Y-272459757D02*
X305516254Y-272602614D01*
X307301969Y-273316900D02*
X307444826Y-273388328D01*
X307444826Y-273388328D02*
X307730540Y-273388328D01*
X307730540Y-273388328D02*
X307873397Y-273316900D01*
X307873397Y-273316900D02*
X307944826Y-273174042D01*
X307944826Y-273174042D02*
X307944826Y-273102614D01*
X307944826Y-273102614D02*
X307873397Y-272959757D01*
X307873397Y-272959757D02*
X307730540Y-272888328D01*
X307730540Y-272888328D02*
X307516255Y-272888328D01*
X307516255Y-272888328D02*
X307373397Y-272816900D01*
X307373397Y-272816900D02*
X307301969Y-272674042D01*
X307301969Y-272674042D02*
X307301969Y-272602614D01*
X307301969Y-272602614D02*
X307373397Y-272459757D01*
X307373397Y-272459757D02*
X307516255Y-272388328D01*
X307516255Y-272388328D02*
X307730540Y-272388328D01*
X307730540Y-272388328D02*
X307873397Y-272459757D01*
X308373398Y-272388328D02*
X308944826Y-272388328D01*
X308587683Y-271888328D02*
X308587683Y-273174042D01*
X308587683Y-273174042D02*
X308659112Y-273316900D01*
X308659112Y-273316900D02*
X308801969Y-273388328D01*
X308801969Y-273388328D02*
X308944826Y-273388328D01*
X309444826Y-273388328D02*
X309444826Y-272388328D01*
X309444826Y-272531185D02*
X309516255Y-272459757D01*
X309516255Y-272459757D02*
X309659112Y-272388328D01*
X309659112Y-272388328D02*
X309873398Y-272388328D01*
X309873398Y-272388328D02*
X310016255Y-272459757D01*
X310016255Y-272459757D02*
X310087684Y-272602614D01*
X310087684Y-272602614D02*
X310087684Y-273388328D01*
X310087684Y-272602614D02*
X310159112Y-272459757D01*
X310159112Y-272459757D02*
X310301969Y-272388328D01*
X310301969Y-272388328D02*
X310516255Y-272388328D01*
X310516255Y-272388328D02*
X310659112Y-272459757D01*
X310659112Y-272459757D02*
X310730541Y-272602614D01*
X310730541Y-272602614D02*
X310730541Y-273388328D01*
X311301969Y-271888328D02*
X312230541Y-271888328D01*
X312230541Y-271888328D02*
X311730541Y-272459757D01*
X311730541Y-272459757D02*
X311944826Y-272459757D01*
X311944826Y-272459757D02*
X312087684Y-272531185D01*
X312087684Y-272531185D02*
X312159112Y-272602614D01*
X312159112Y-272602614D02*
X312230541Y-272745471D01*
X312230541Y-272745471D02*
X312230541Y-273102614D01*
X312230541Y-273102614D02*
X312159112Y-273245471D01*
X312159112Y-273245471D02*
X312087684Y-273316900D01*
X312087684Y-273316900D02*
X311944826Y-273388328D01*
X311944826Y-273388328D02*
X311516255Y-273388328D01*
X311516255Y-273388328D02*
X311373398Y-273316900D01*
X311373398Y-273316900D02*
X311301969Y-273245471D01*
X312801969Y-272031185D02*
X312873397Y-271959757D01*
X312873397Y-271959757D02*
X313016255Y-271888328D01*
X313016255Y-271888328D02*
X313373397Y-271888328D01*
X313373397Y-271888328D02*
X313516255Y-271959757D01*
X313516255Y-271959757D02*
X313587683Y-272031185D01*
X313587683Y-272031185D02*
X313659112Y-272174042D01*
X313659112Y-272174042D02*
X313659112Y-272316900D01*
X313659112Y-272316900D02*
X313587683Y-272531185D01*
X313587683Y-272531185D02*
X312730540Y-273388328D01*
X312730540Y-273388328D02*
X313659112Y-273388328D01*
X313944826Y-273531185D02*
X315087683Y-273531185D01*
X315444825Y-273388328D02*
X315444825Y-271888328D01*
X315444825Y-272459757D02*
X315587683Y-272388328D01*
X315587683Y-272388328D02*
X315873397Y-272388328D01*
X315873397Y-272388328D02*
X316016254Y-272459757D01*
X316016254Y-272459757D02*
X316087683Y-272531185D01*
X316087683Y-272531185D02*
X316159111Y-272674042D01*
X316159111Y-272674042D02*
X316159111Y-273102614D01*
X316159111Y-273102614D02*
X316087683Y-273245471D01*
X316087683Y-273245471D02*
X316016254Y-273316900D01*
X316016254Y-273316900D02*
X315873397Y-273388328D01*
X315873397Y-273388328D02*
X315587683Y-273388328D01*
X315587683Y-273388328D02*
X315444825Y-273316900D01*
X317016254Y-273388328D02*
X316873397Y-273316900D01*
X316873397Y-273316900D02*
X316801968Y-273174042D01*
X316801968Y-273174042D02*
X316801968Y-271888328D01*
X318230540Y-272388328D02*
X318230540Y-273388328D01*
X317587682Y-272388328D02*
X317587682Y-273174042D01*
X317587682Y-273174042D02*
X317659111Y-273316900D01*
X317659111Y-273316900D02*
X317801968Y-273388328D01*
X317801968Y-273388328D02*
X318016254Y-273388328D01*
X318016254Y-273388328D02*
X318159111Y-273316900D01*
X318159111Y-273316900D02*
X318230540Y-273245471D01*
X319516254Y-273316900D02*
X319373397Y-273388328D01*
X319373397Y-273388328D02*
X319087683Y-273388328D01*
X319087683Y-273388328D02*
X318944825Y-273316900D01*
X318944825Y-273316900D02*
X318873397Y-273174042D01*
X318873397Y-273174042D02*
X318873397Y-272602614D01*
X318873397Y-272602614D02*
X318944825Y-272459757D01*
X318944825Y-272459757D02*
X319087683Y-272388328D01*
X319087683Y-272388328D02*
X319373397Y-272388328D01*
X319373397Y-272388328D02*
X319516254Y-272459757D01*
X319516254Y-272459757D02*
X319587683Y-272602614D01*
X319587683Y-272602614D02*
X319587683Y-272745471D01*
X319587683Y-272745471D02*
X318873397Y-272888328D01*
X320016254Y-272388328D02*
X320587682Y-272388328D01*
X320230539Y-271888328D02*
X320230539Y-273174042D01*
X320230539Y-273174042D02*
X320301968Y-273316900D01*
X320301968Y-273316900D02*
X320444825Y-273388328D01*
X320444825Y-273388328D02*
X320587682Y-273388328D01*
X320730540Y-273531185D02*
X321873397Y-273531185D01*
X322230539Y-272388328D02*
X322230539Y-273888328D01*
X322230539Y-272459757D02*
X322373397Y-272388328D01*
X322373397Y-272388328D02*
X322659111Y-272388328D01*
X322659111Y-272388328D02*
X322801968Y-272459757D01*
X322801968Y-272459757D02*
X322873397Y-272531185D01*
X322873397Y-272531185D02*
X322944825Y-272674042D01*
X322944825Y-272674042D02*
X322944825Y-273102614D01*
X322944825Y-273102614D02*
X322873397Y-273245471D01*
X322873397Y-273245471D02*
X322801968Y-273316900D01*
X322801968Y-273316900D02*
X322659111Y-273388328D01*
X322659111Y-273388328D02*
X322373397Y-273388328D01*
X322373397Y-273388328D02*
X322230539Y-273316900D01*
X323587682Y-273388328D02*
X323587682Y-272388328D01*
X323587682Y-271888328D02*
X323516254Y-271959757D01*
X323516254Y-271959757D02*
X323587682Y-272031185D01*
X323587682Y-272031185D02*
X323659111Y-271959757D01*
X323659111Y-271959757D02*
X323587682Y-271888328D01*
X323587682Y-271888328D02*
X323587682Y-272031185D01*
X324516254Y-273388328D02*
X324373397Y-273316900D01*
X324373397Y-273316900D02*
X324301968Y-273174042D01*
X324301968Y-273174042D02*
X324301968Y-271888328D01*
X325301968Y-273388328D02*
X325159111Y-273316900D01*
X325159111Y-273316900D02*
X325087682Y-273174042D01*
X325087682Y-273174042D02*
X325087682Y-271888328D01*
X325873396Y-273245471D02*
X325944825Y-273316900D01*
X325944825Y-273316900D02*
X325873396Y-273388328D01*
X325873396Y-273388328D02*
X325801968Y-273316900D01*
X325801968Y-273316900D02*
X325873396Y-273245471D01*
X325873396Y-273245471D02*
X325873396Y-273388328D01*
X326587682Y-273388328D02*
X326587682Y-271888328D01*
X326730540Y-272816900D02*
X327159111Y-273388328D01*
X327159111Y-272388328D02*
X326587682Y-272959757D01*
X327801968Y-273388328D02*
X327801968Y-272388328D01*
X327801968Y-271888328D02*
X327730540Y-271959757D01*
X327730540Y-271959757D02*
X327801968Y-272031185D01*
X327801968Y-272031185D02*
X327873397Y-271959757D01*
X327873397Y-271959757D02*
X327801968Y-271888328D01*
X327801968Y-271888328D02*
X327801968Y-272031185D01*
X329159112Y-273316900D02*
X329016254Y-273388328D01*
X329016254Y-273388328D02*
X328730540Y-273388328D01*
X328730540Y-273388328D02*
X328587683Y-273316900D01*
X328587683Y-273316900D02*
X328516254Y-273245471D01*
X328516254Y-273245471D02*
X328444826Y-273102614D01*
X328444826Y-273102614D02*
X328444826Y-272674042D01*
X328444826Y-272674042D02*
X328516254Y-272531185D01*
X328516254Y-272531185D02*
X328587683Y-272459757D01*
X328587683Y-272459757D02*
X328730540Y-272388328D01*
X328730540Y-272388328D02*
X329016254Y-272388328D01*
X329016254Y-272388328D02*
X329159112Y-272459757D01*
X330444826Y-273388328D02*
X330444826Y-272602614D01*
X330444826Y-272602614D02*
X330373397Y-272459757D01*
X330373397Y-272459757D02*
X330230540Y-272388328D01*
X330230540Y-272388328D02*
X329944826Y-272388328D01*
X329944826Y-272388328D02*
X329801968Y-272459757D01*
X330444826Y-273316900D02*
X330301968Y-273388328D01*
X330301968Y-273388328D02*
X329944826Y-273388328D01*
X329944826Y-273388328D02*
X329801968Y-273316900D01*
X329801968Y-273316900D02*
X329730540Y-273174042D01*
X329730540Y-273174042D02*
X329730540Y-273031185D01*
X329730540Y-273031185D02*
X329801968Y-272888328D01*
X329801968Y-272888328D02*
X329944826Y-272816900D01*
X329944826Y-272816900D02*
X330301968Y-272816900D01*
X330301968Y-272816900D02*
X330444826Y-272745471D01*
X331801969Y-273388328D02*
X331801969Y-271888328D01*
X331801969Y-273316900D02*
X331659111Y-273388328D01*
X331659111Y-273388328D02*
X331373397Y-273388328D01*
X331373397Y-273388328D02*
X331230540Y-273316900D01*
X331230540Y-273316900D02*
X331159111Y-273245471D01*
X331159111Y-273245471D02*
X331087683Y-273102614D01*
X331087683Y-273102614D02*
X331087683Y-272674042D01*
X331087683Y-272674042D02*
X331159111Y-272531185D01*
X331159111Y-272531185D02*
X331230540Y-272459757D01*
X331230540Y-272459757D02*
X331373397Y-272388328D01*
X331373397Y-272388328D02*
X331659111Y-272388328D01*
X331659111Y-272388328D02*
X331801969Y-272459757D01*
X332159112Y-273531185D02*
X333301969Y-273531185D01*
X333659111Y-272388328D02*
X333659111Y-273888328D01*
X333659111Y-272459757D02*
X333801969Y-272388328D01*
X333801969Y-272388328D02*
X334087683Y-272388328D01*
X334087683Y-272388328D02*
X334230540Y-272459757D01*
X334230540Y-272459757D02*
X334301969Y-272531185D01*
X334301969Y-272531185D02*
X334373397Y-272674042D01*
X334373397Y-272674042D02*
X334373397Y-273102614D01*
X334373397Y-273102614D02*
X334301969Y-273245471D01*
X334301969Y-273245471D02*
X334230540Y-273316900D01*
X334230540Y-273316900D02*
X334087683Y-273388328D01*
X334087683Y-273388328D02*
X333801969Y-273388328D01*
X333801969Y-273388328D02*
X333659111Y-273316900D01*
X335659112Y-273316900D02*
X335516254Y-273388328D01*
X335516254Y-273388328D02*
X335230540Y-273388328D01*
X335230540Y-273388328D02*
X335087683Y-273316900D01*
X335087683Y-273316900D02*
X335016254Y-273245471D01*
X335016254Y-273245471D02*
X334944826Y-273102614D01*
X334944826Y-273102614D02*
X334944826Y-272674042D01*
X334944826Y-272674042D02*
X335016254Y-272531185D01*
X335016254Y-272531185D02*
X335087683Y-272459757D01*
X335087683Y-272459757D02*
X335230540Y-272388328D01*
X335230540Y-272388328D02*
X335516254Y-272388328D01*
X335516254Y-272388328D02*
X335659112Y-272459757D01*
X336301968Y-273388328D02*
X336301968Y-271888328D01*
X336301968Y-272459757D02*
X336444826Y-272388328D01*
X336444826Y-272388328D02*
X336730540Y-272388328D01*
X336730540Y-272388328D02*
X336873397Y-272459757D01*
X336873397Y-272459757D02*
X336944826Y-272531185D01*
X336944826Y-272531185D02*
X337016254Y-272674042D01*
X337016254Y-272674042D02*
X337016254Y-273102614D01*
X337016254Y-273102614D02*
X336944826Y-273245471D01*
X336944826Y-273245471D02*
X336873397Y-273316900D01*
X336873397Y-273316900D02*
X336730540Y-273388328D01*
X336730540Y-273388328D02*
X336444826Y-273388328D01*
X336444826Y-273388328D02*
X336301968Y-273316900D01*
D10*
D11*
X299989000Y-268502200D02*
X407989000Y-268502200D01*
D10*
D11*
X301373398Y-270616900D02*
X301587684Y-270688328D01*
X301587684Y-270688328D02*
X301944826Y-270688328D01*
X301944826Y-270688328D02*
X302087684Y-270616900D01*
X302087684Y-270616900D02*
X302159112Y-270545471D01*
X302159112Y-270545471D02*
X302230541Y-270402614D01*
X302230541Y-270402614D02*
X302230541Y-270259757D01*
X302230541Y-270259757D02*
X302159112Y-270116900D01*
X302159112Y-270116900D02*
X302087684Y-270045471D01*
X302087684Y-270045471D02*
X301944826Y-269974042D01*
X301944826Y-269974042D02*
X301659112Y-269902614D01*
X301659112Y-269902614D02*
X301516255Y-269831185D01*
X301516255Y-269831185D02*
X301444826Y-269759757D01*
X301444826Y-269759757D02*
X301373398Y-269616900D01*
X301373398Y-269616900D02*
X301373398Y-269474042D01*
X301373398Y-269474042D02*
X301444826Y-269331185D01*
X301444826Y-269331185D02*
X301516255Y-269259757D01*
X301516255Y-269259757D02*
X301659112Y-269188328D01*
X301659112Y-269188328D02*
X302016255Y-269188328D01*
X302016255Y-269188328D02*
X302230541Y-269259757D01*
X302873397Y-270688328D02*
X302873397Y-269188328D01*
X303516255Y-270688328D02*
X303516255Y-269902614D01*
X303516255Y-269902614D02*
X303444826Y-269759757D01*
X303444826Y-269759757D02*
X303301969Y-269688328D01*
X303301969Y-269688328D02*
X303087683Y-269688328D01*
X303087683Y-269688328D02*
X302944826Y-269759757D01*
X302944826Y-269759757D02*
X302873397Y-269831185D01*
X304801969Y-270616900D02*
X304659112Y-270688328D01*
X304659112Y-270688328D02*
X304373398Y-270688328D01*
X304373398Y-270688328D02*
X304230540Y-270616900D01*
X304230540Y-270616900D02*
X304159112Y-270474042D01*
X304159112Y-270474042D02*
X304159112Y-269902614D01*
X304159112Y-269902614D02*
X304230540Y-269759757D01*
X304230540Y-269759757D02*
X304373398Y-269688328D01*
X304373398Y-269688328D02*
X304659112Y-269688328D01*
X304659112Y-269688328D02*
X304801969Y-269759757D01*
X304801969Y-269759757D02*
X304873398Y-269902614D01*
X304873398Y-269902614D02*
X304873398Y-270045471D01*
X304873398Y-270045471D02*
X304159112Y-270188328D01*
X306087683Y-270616900D02*
X305944826Y-270688328D01*
X305944826Y-270688328D02*
X305659112Y-270688328D01*
X305659112Y-270688328D02*
X305516254Y-270616900D01*
X305516254Y-270616900D02*
X305444826Y-270474042D01*
X305444826Y-270474042D02*
X305444826Y-269902614D01*
X305444826Y-269902614D02*
X305516254Y-269759757D01*
X305516254Y-269759757D02*
X305659112Y-269688328D01*
X305659112Y-269688328D02*
X305944826Y-269688328D01*
X305944826Y-269688328D02*
X306087683Y-269759757D01*
X306087683Y-269759757D02*
X306159112Y-269902614D01*
X306159112Y-269902614D02*
X306159112Y-270045471D01*
X306159112Y-270045471D02*
X305444826Y-270188328D01*
X306587683Y-269688328D02*
X307159111Y-269688328D01*
X306801968Y-269188328D02*
X306801968Y-270474042D01*
X306801968Y-270474042D02*
X306873397Y-270616900D01*
X306873397Y-270616900D02*
X307016254Y-270688328D01*
X307016254Y-270688328D02*
X307159111Y-270688328D01*
X307659111Y-270545471D02*
X307730540Y-270616900D01*
X307730540Y-270616900D02*
X307659111Y-270688328D01*
X307659111Y-270688328D02*
X307587683Y-270616900D01*
X307587683Y-270616900D02*
X307659111Y-270545471D01*
X307659111Y-270545471D02*
X307659111Y-270688328D01*
X307659111Y-269759757D02*
X307730540Y-269831185D01*
X307730540Y-269831185D02*
X307659111Y-269902614D01*
X307659111Y-269902614D02*
X307587683Y-269831185D01*
X307587683Y-269831185D02*
X307659111Y-269759757D01*
X307659111Y-269759757D02*
X307659111Y-269902614D01*
D10*
D12*
X302043510Y-266894814D02*
X302257796Y-266966242D01*
X302257796Y-266966242D02*
X302329225Y-267037671D01*
X302329225Y-267037671D02*
X302400653Y-267180528D01*
X302400653Y-267180528D02*
X302400653Y-267394814D01*
X302400653Y-267394814D02*
X302329225Y-267537671D01*
X302329225Y-267537671D02*
X302257796Y-267609100D01*
X302257796Y-267609100D02*
X302114939Y-267680528D01*
X302114939Y-267680528D02*
X301543510Y-267680528D01*
X301543510Y-267680528D02*
X301543510Y-266180528D01*
X301543510Y-266180528D02*
X302043510Y-266180528D01*
X302043510Y-266180528D02*
X302186368Y-266251957D01*
X302186368Y-266251957D02*
X302257796Y-266323385D01*
X302257796Y-266323385D02*
X302329225Y-266466242D01*
X302329225Y-266466242D02*
X302329225Y-266609100D01*
X302329225Y-266609100D02*
X302257796Y-266751957D01*
X302257796Y-266751957D02*
X302186368Y-266823385D01*
X302186368Y-266823385D02*
X302043510Y-266894814D01*
X302043510Y-266894814D02*
X301543510Y-266894814D01*
X303043510Y-267680528D02*
X303043510Y-266680528D01*
X303043510Y-266966242D02*
X303114939Y-266823385D01*
X303114939Y-266823385D02*
X303186368Y-266751957D01*
X303186368Y-266751957D02*
X303329225Y-266680528D01*
X303329225Y-266680528D02*
X303472082Y-266680528D01*
X304543510Y-267609100D02*
X304400653Y-267680528D01*
X304400653Y-267680528D02*
X304114939Y-267680528D01*
X304114939Y-267680528D02*
X303972081Y-267609100D01*
X303972081Y-267609100D02*
X303900653Y-267466242D01*
X303900653Y-267466242D02*
X303900653Y-266894814D01*
X303900653Y-266894814D02*
X303972081Y-266751957D01*
X303972081Y-266751957D02*
X304114939Y-266680528D01*
X304114939Y-266680528D02*
X304400653Y-266680528D01*
X304400653Y-266680528D02*
X304543510Y-266751957D01*
X304543510Y-266751957D02*
X304614939Y-266894814D01*
X304614939Y-266894814D02*
X304614939Y-267037671D01*
X304614939Y-267037671D02*
X303900653Y-267180528D01*
X305257795Y-266680528D02*
X305257795Y-267680528D01*
X305257795Y-266823385D02*
X305329224Y-266751957D01*
X305329224Y-266751957D02*
X305472081Y-266680528D01*
X305472081Y-266680528D02*
X305686367Y-266680528D01*
X305686367Y-266680528D02*
X305829224Y-266751957D01*
X305829224Y-266751957D02*
X305900653Y-266894814D01*
X305900653Y-266894814D02*
X305900653Y-267680528D01*
X307257796Y-267680528D02*
X307257796Y-266180528D01*
X307257796Y-267609100D02*
X307114938Y-267680528D01*
X307114938Y-267680528D02*
X306829224Y-267680528D01*
X306829224Y-267680528D02*
X306686367Y-267609100D01*
X306686367Y-267609100D02*
X306614938Y-267537671D01*
X306614938Y-267537671D02*
X306543510Y-267394814D01*
X306543510Y-267394814D02*
X306543510Y-266966242D01*
X306543510Y-266966242D02*
X306614938Y-266823385D01*
X306614938Y-266823385D02*
X306686367Y-266751957D01*
X306686367Y-266751957D02*
X306829224Y-266680528D01*
X306829224Y-266680528D02*
X307114938Y-266680528D01*
X307114938Y-266680528D02*
X307257796Y-266751957D01*
X308614939Y-267680528D02*
X308614939Y-266894814D01*
X308614939Y-266894814D02*
X308543510Y-266751957D01*
X308543510Y-266751957D02*
X308400653Y-266680528D01*
X308400653Y-266680528D02*
X308114939Y-266680528D01*
X308114939Y-266680528D02*
X307972081Y-266751957D01*
X308614939Y-267609100D02*
X308472081Y-267680528D01*
X308472081Y-267680528D02*
X308114939Y-267680528D01*
X308114939Y-267680528D02*
X307972081Y-267609100D01*
X307972081Y-267609100D02*
X307900653Y-267466242D01*
X307900653Y-267466242D02*
X307900653Y-267323385D01*
X307900653Y-267323385D02*
X307972081Y-267180528D01*
X307972081Y-267180528D02*
X308114939Y-267109100D01*
X308114939Y-267109100D02*
X308472081Y-267109100D01*
X308472081Y-267109100D02*
X308614939Y-267037671D01*
X309329224Y-266680528D02*
X309329224Y-267680528D01*
X309329224Y-266823385D02*
X309400653Y-266751957D01*
X309400653Y-266751957D02*
X309543510Y-266680528D01*
X309543510Y-266680528D02*
X309757796Y-266680528D01*
X309757796Y-266680528D02*
X309900653Y-266751957D01*
X309900653Y-266751957D02*
X309972082Y-266894814D01*
X309972082Y-266894814D02*
X309972082Y-267680528D01*
X312329224Y-266894814D02*
X312543510Y-266966242D01*
X312543510Y-266966242D02*
X312614939Y-267037671D01*
X312614939Y-267037671D02*
X312686367Y-267180528D01*
X312686367Y-267180528D02*
X312686367Y-267394814D01*
X312686367Y-267394814D02*
X312614939Y-267537671D01*
X312614939Y-267537671D02*
X312543510Y-267609100D01*
X312543510Y-267609100D02*
X312400653Y-267680528D01*
X312400653Y-267680528D02*
X311829224Y-267680528D01*
X311829224Y-267680528D02*
X311829224Y-266180528D01*
X311829224Y-266180528D02*
X312329224Y-266180528D01*
X312329224Y-266180528D02*
X312472082Y-266251957D01*
X312472082Y-266251957D02*
X312543510Y-266323385D01*
X312543510Y-266323385D02*
X312614939Y-266466242D01*
X312614939Y-266466242D02*
X312614939Y-266609100D01*
X312614939Y-266609100D02*
X312543510Y-266751957D01*
X312543510Y-266751957D02*
X312472082Y-266823385D01*
X312472082Y-266823385D02*
X312329224Y-266894814D01*
X312329224Y-266894814D02*
X311829224Y-266894814D01*
X313543510Y-267680528D02*
X313400653Y-267609100D01*
X313400653Y-267609100D02*
X313329224Y-267466242D01*
X313329224Y-267466242D02*
X313329224Y-266180528D01*
X314686367Y-267609100D02*
X314543510Y-267680528D01*
X314543510Y-267680528D02*
X314257796Y-267680528D01*
X314257796Y-267680528D02*
X314114938Y-267609100D01*
X314114938Y-267609100D02*
X314043510Y-267466242D01*
X314043510Y-267466242D02*
X314043510Y-266894814D01*
X314043510Y-266894814D02*
X314114938Y-266751957D01*
X314114938Y-266751957D02*
X314257796Y-266680528D01*
X314257796Y-266680528D02*
X314543510Y-266680528D01*
X314543510Y-266680528D02*
X314686367Y-266751957D01*
X314686367Y-266751957D02*
X314757796Y-266894814D01*
X314757796Y-266894814D02*
X314757796Y-267037671D01*
X314757796Y-267037671D02*
X314043510Y-267180528D01*
X315400652Y-267680528D02*
X315400652Y-266180528D01*
X315543510Y-267109100D02*
X315972081Y-267680528D01*
X315972081Y-266680528D02*
X315400652Y-267251957D01*
X317186367Y-267609100D02*
X317043510Y-267680528D01*
X317043510Y-267680528D02*
X316757796Y-267680528D01*
X316757796Y-267680528D02*
X316614938Y-267609100D01*
X316614938Y-267609100D02*
X316543510Y-267466242D01*
X316543510Y-267466242D02*
X316543510Y-266894814D01*
X316543510Y-266894814D02*
X316614938Y-266751957D01*
X316614938Y-266751957D02*
X316757796Y-266680528D01*
X316757796Y-266680528D02*
X317043510Y-266680528D01*
X317043510Y-266680528D02*
X317186367Y-266751957D01*
X317186367Y-266751957D02*
X317257796Y-266894814D01*
X317257796Y-266894814D02*
X317257796Y-267037671D01*
X317257796Y-267037671D02*
X316543510Y-267180528D01*
X317900652Y-267680528D02*
X317900652Y-266680528D01*
X317900652Y-266966242D02*
X317972081Y-266823385D01*
X317972081Y-266823385D02*
X318043510Y-266751957D01*
X318043510Y-266751957D02*
X318186367Y-266680528D01*
X318186367Y-266680528D02*
X318329224Y-266680528D01*
D10*
D11*
X301444826Y-264688328D02*
X301444826Y-263188328D01*
X301444826Y-263188328D02*
X301801969Y-263188328D01*
X301801969Y-263188328D02*
X302016255Y-263259757D01*
X302016255Y-263259757D02*
X302159112Y-263402614D01*
X302159112Y-263402614D02*
X302230541Y-263545471D01*
X302230541Y-263545471D02*
X302301969Y-263831185D01*
X302301969Y-263831185D02*
X302301969Y-264045471D01*
X302301969Y-264045471D02*
X302230541Y-264331185D01*
X302230541Y-264331185D02*
X302159112Y-264474042D01*
X302159112Y-264474042D02*
X302016255Y-264616900D01*
X302016255Y-264616900D02*
X301801969Y-264688328D01*
X301801969Y-264688328D02*
X301444826Y-264688328D01*
X303516255Y-264616900D02*
X303373398Y-264688328D01*
X303373398Y-264688328D02*
X303087684Y-264688328D01*
X303087684Y-264688328D02*
X302944826Y-264616900D01*
X302944826Y-264616900D02*
X302873398Y-264474042D01*
X302873398Y-264474042D02*
X302873398Y-263902614D01*
X302873398Y-263902614D02*
X302944826Y-263759757D01*
X302944826Y-263759757D02*
X303087684Y-263688328D01*
X303087684Y-263688328D02*
X303373398Y-263688328D01*
X303373398Y-263688328D02*
X303516255Y-263759757D01*
X303516255Y-263759757D02*
X303587684Y-263902614D01*
X303587684Y-263902614D02*
X303587684Y-264045471D01*
X303587684Y-264045471D02*
X302873398Y-264188328D01*
X304159112Y-264616900D02*
X304301969Y-264688328D01*
X304301969Y-264688328D02*
X304587683Y-264688328D01*
X304587683Y-264688328D02*
X304730540Y-264616900D01*
X304730540Y-264616900D02*
X304801969Y-264474042D01*
X304801969Y-264474042D02*
X304801969Y-264402614D01*
X304801969Y-264402614D02*
X304730540Y-264259757D01*
X304730540Y-264259757D02*
X304587683Y-264188328D01*
X304587683Y-264188328D02*
X304373398Y-264188328D01*
X304373398Y-264188328D02*
X304230540Y-264116900D01*
X304230540Y-264116900D02*
X304159112Y-263974042D01*
X304159112Y-263974042D02*
X304159112Y-263902614D01*
X304159112Y-263902614D02*
X304230540Y-263759757D01*
X304230540Y-263759757D02*
X304373398Y-263688328D01*
X304373398Y-263688328D02*
X304587683Y-263688328D01*
X304587683Y-263688328D02*
X304730540Y-263759757D01*
X305444826Y-264688328D02*
X305444826Y-263688328D01*
X305444826Y-263188328D02*
X305373398Y-263259757D01*
X305373398Y-263259757D02*
X305444826Y-263331185D01*
X305444826Y-263331185D02*
X305516255Y-263259757D01*
X305516255Y-263259757D02*
X305444826Y-263188328D01*
X305444826Y-263188328D02*
X305444826Y-263331185D01*
X306801970Y-263688328D02*
X306801970Y-264902614D01*
X306801970Y-264902614D02*
X306730541Y-265045471D01*
X306730541Y-265045471D02*
X306659112Y-265116900D01*
X306659112Y-265116900D02*
X306516255Y-265188328D01*
X306516255Y-265188328D02*
X306301970Y-265188328D01*
X306301970Y-265188328D02*
X306159112Y-265116900D01*
X306801970Y-264616900D02*
X306659112Y-264688328D01*
X306659112Y-264688328D02*
X306373398Y-264688328D01*
X306373398Y-264688328D02*
X306230541Y-264616900D01*
X306230541Y-264616900D02*
X306159112Y-264545471D01*
X306159112Y-264545471D02*
X306087684Y-264402614D01*
X306087684Y-264402614D02*
X306087684Y-263974042D01*
X306087684Y-263974042D02*
X306159112Y-263831185D01*
X306159112Y-263831185D02*
X306230541Y-263759757D01*
X306230541Y-263759757D02*
X306373398Y-263688328D01*
X306373398Y-263688328D02*
X306659112Y-263688328D01*
X306659112Y-263688328D02*
X306801970Y-263759757D01*
X307516255Y-263688328D02*
X307516255Y-264688328D01*
X307516255Y-263831185D02*
X307587684Y-263759757D01*
X307587684Y-263759757D02*
X307730541Y-263688328D01*
X307730541Y-263688328D02*
X307944827Y-263688328D01*
X307944827Y-263688328D02*
X308087684Y-263759757D01*
X308087684Y-263759757D02*
X308159113Y-263902614D01*
X308159113Y-263902614D02*
X308159113Y-264688328D01*
X309444827Y-264616900D02*
X309301970Y-264688328D01*
X309301970Y-264688328D02*
X309016256Y-264688328D01*
X309016256Y-264688328D02*
X308873398Y-264616900D01*
X308873398Y-264616900D02*
X308801970Y-264474042D01*
X308801970Y-264474042D02*
X308801970Y-263902614D01*
X308801970Y-263902614D02*
X308873398Y-263759757D01*
X308873398Y-263759757D02*
X309016256Y-263688328D01*
X309016256Y-263688328D02*
X309301970Y-263688328D01*
X309301970Y-263688328D02*
X309444827Y-263759757D01*
X309444827Y-263759757D02*
X309516256Y-263902614D01*
X309516256Y-263902614D02*
X309516256Y-264045471D01*
X309516256Y-264045471D02*
X308801970Y-264188328D01*
X310801970Y-264688328D02*
X310801970Y-263188328D01*
X310801970Y-264616900D02*
X310659112Y-264688328D01*
X310659112Y-264688328D02*
X310373398Y-264688328D01*
X310373398Y-264688328D02*
X310230541Y-264616900D01*
X310230541Y-264616900D02*
X310159112Y-264545471D01*
X310159112Y-264545471D02*
X310087684Y-264402614D01*
X310087684Y-264402614D02*
X310087684Y-263974042D01*
X310087684Y-263974042D02*
X310159112Y-263831185D01*
X310159112Y-263831185D02*
X310230541Y-263759757D01*
X310230541Y-263759757D02*
X310373398Y-263688328D01*
X310373398Y-263688328D02*
X310659112Y-263688328D01*
X310659112Y-263688328D02*
X310801970Y-263759757D01*
X312659112Y-264688328D02*
X312659112Y-263188328D01*
X312659112Y-263759757D02*
X312801970Y-263688328D01*
X312801970Y-263688328D02*
X313087684Y-263688328D01*
X313087684Y-263688328D02*
X313230541Y-263759757D01*
X313230541Y-263759757D02*
X313301970Y-263831185D01*
X313301970Y-263831185D02*
X313373398Y-263974042D01*
X313373398Y-263974042D02*
X313373398Y-264402614D01*
X313373398Y-264402614D02*
X313301970Y-264545471D01*
X313301970Y-264545471D02*
X313230541Y-264616900D01*
X313230541Y-264616900D02*
X313087684Y-264688328D01*
X313087684Y-264688328D02*
X312801970Y-264688328D01*
X312801970Y-264688328D02*
X312659112Y-264616900D01*
X313873398Y-263688328D02*
X314230541Y-264688328D01*
X314587684Y-263688328D02*
X314230541Y-264688328D01*
X314230541Y-264688328D02*
X314087684Y-265045471D01*
X314087684Y-265045471D02*
X314016255Y-265116900D01*
X314016255Y-265116900D02*
X313873398Y-265188328D01*
X315159112Y-264545471D02*
X315230541Y-264616900D01*
X315230541Y-264616900D02*
X315159112Y-264688328D01*
X315159112Y-264688328D02*
X315087684Y-264616900D01*
X315087684Y-264616900D02*
X315159112Y-264545471D01*
X315159112Y-264545471D02*
X315159112Y-264688328D01*
X315159112Y-263759757D02*
X315230541Y-263831185D01*
X315230541Y-263831185D02*
X315159112Y-263902614D01*
X315159112Y-263902614D02*
X315087684Y-263831185D01*
X315087684Y-263831185D02*
X315159112Y-263759757D01*
X315159112Y-263759757D02*
X315159112Y-263902614D01*
D10*
D11*
X319989000Y-278502200D02*
X319989000Y-281502200D01*
D10*
D11*
X383989000Y-278502200D02*
X383989000Y-285002200D01*
D14*
%TO.N,/BLE_MCU/STM_RF*%
X221830000Y-134210000D02*
X221420000Y-134110000D01*
X221840000Y-134010000D01*
X221830000Y-134210000D01*
%TA.AperFunction,Conductor*%
G36*
X221830000Y-134210000D02*
G01*
X221420000Y-134110000D01*
X221840000Y-134010000D01*
X221830000Y-134210000D01*
G37*
%TD.AperFunction*%
D15*
%TA.AperFunction,EtchedComponent*%
%TD*%
%TO.C,AE1*%
G36*
X231388115Y-132550000D02*
G01*
X236544900Y-132550000D01*
X236544900Y-137550000D01*
X233904900Y-137550000D01*
X233904900Y-139550000D01*
X236544900Y-139550000D01*
X236544900Y-142250000D01*
X233904900Y-142250000D01*
X233904900Y-144250000D01*
X236544900Y-144250000D01*
X236544900Y-146950000D01*
X232104900Y-146950000D01*
X232104900Y-146450000D01*
X236044900Y-146450000D01*
X236044900Y-144750000D01*
X233404900Y-144750000D01*
X233404900Y-141750000D01*
X236044900Y-141750000D01*
X236044900Y-140050000D01*
X233404900Y-140050000D01*
X233404900Y-137050000D01*
X236044900Y-137050000D01*
X236044900Y-135350000D01*
X231144900Y-135350000D01*
X231144900Y-134850000D01*
X236044900Y-134850000D01*
X236044900Y-133450000D01*
X231144900Y-133450000D01*
X231144900Y-132974844D01*
X231248857Y-132974844D01*
X231249600Y-133023363D01*
X231262500Y-133068878D01*
X231273113Y-133087489D01*
X231308347Y-133121132D01*
X231353532Y-133141691D01*
X231403058Y-133148222D01*
X231451317Y-133139782D01*
X231483543Y-133122888D01*
X231516213Y-133087628D01*
X231536308Y-133042318D01*
X231542882Y-132992733D01*
X231534992Y-132944647D01*
X231518086Y-132911755D01*
X231481316Y-132876815D01*
X231436522Y-132857153D01*
X231388115Y-132852417D01*
X231340505Y-132862258D01*
X231298103Y-132886326D01*
X231265319Y-132924269D01*
X231260965Y-132932181D01*
X231248857Y-132974844D01*
X231144900Y-132974844D01*
X231144900Y-132550000D01*
X231388115Y-132550000D01*
G37*
%TD.AperFunction*%
D16*
%TO.P,R2,1*%
%TO.N,/BLE_MCU/BT_ANT_MTCH*%
X222590000Y-134110000D03*
%TO.P,R2,2*%
%TO.N,/BLE_MCU/STM_RF*%
X221950000Y-134110000D03*
%TD*%
%TO.P,R5,1*%
%TO.N,STM_BOOT0*%
X214650000Y-144760000D03*
%TO.P,R5,2*%
%TO.N,GND*%
X214010000Y-144760000D03*
%TD*%
D17*
%TO.P,C32,1*%
%TO.N,/BLE_MCU/OSC_OUT*%
X222620000Y-132240000D03*
%TO.P,C32,2*%
%TO.N,GND*%
X222620000Y-132880000D03*
%TD*%
D18*
%TO.P,C24,1*%
%TO.N,PPVAR_SYS*%
X201320400Y-141808200D03*
%TO.P,C24,2*%
%TO.N,GND*%
X202280400Y-141808200D03*
%TD*%
D19*
%TO.P,U5,A1,SW*%
%TO.N,Net-(U5-SW)*%
X202765000Y-138750600D03*
%TO.P,U5,A2,VIN*%
%TO.N,PPVAR_SYS*%
X202365000Y-138750600D03*
%TO.P,U5,B1,EN*%
X202765000Y-138350600D03*
%TO.P,U5,B2,GND*%
%TO.N,GND*%
X202365000Y-138350600D03*
%TO.P,U5,C1,VSEL*%
%TO.N,PPVAR_SYS*%
X202765000Y-137950600D03*
%TO.P,U5,C2,VOS*%
%TO.N,Net-(U5-VOS)*%
X202365000Y-137950600D03*
%TO.P,U5,D1,CTRL*%
%TO.N,VIN_SNS_EN*%
X202765000Y-137550600D03*
%TO.P,U5,D2,VINSW*%
%TO.N,Net-(U5-VINSW)*%
X202365000Y-137550600D03*
%TD*%
D20*
%TO.P,C29,1*%
%TO.N,PPVAR_VIN*%
X208265000Y-143780000D03*
%TO.P,C29,2*%
%TO.N,GND*%
X206715000Y-143780000D03*
%TD*%
D17*
%TO.P,C2,1*%
%TO.N,/BLE_MCU/BT_ANT_UFL*%
X226710000Y-135110000D03*
%TO.P,C2,2*%
%TO.N,GND*%
X226710000Y-135750000D03*
%TD*%
D21*
%TO.P,TP8,1,1*%
%TO.N,PP3300_VDDUSB*%
X209360000Y-131300000D03*
%TD*%
D22*
%TO.P,FID2,*%
%TO.N,*%
X227990000Y-130460000D03*
%TD*%
D23*
%TO.P,D1,1,K*%
%TO.N,Net-(D1-K)*%
X201015000Y-146860000D03*
%TO.P,D1,2,A*%
%TO.N,PPVAR_VIN*%
X200045000Y-146860000D03*
%TD*%
D24*
%TO.P,R8,1*%
%TO.N,PP1800_ALW*%
X217610000Y-142500000D03*
%TO.P,R8,2*%
%TO.N,I2C3_SDA*%
X218250000Y-142500000D03*
%TD*%
D21*
%TO.P,TP6,1,1*%
%TO.N,PP3300_DBG*%
X205690000Y-140300000D03*
%TD*%
%TO.P,TP4,1,1*%
%TO.N,PPVAR_SYS*%
X200730000Y-140530000D03*
%TD*%
D25*
%TO.P,C15,1*%
%TO.N,PP1800_ALW*%
X205980000Y-135320000D03*
%TO.P,C15,2*%
%TO.N,GND*%
X205020000Y-135320000D03*
%TD*%
D26*
%TO.P,D4,1,K*%
%TO.N,Net-(D4-K)*%
X205605000Y-146860000D03*
%TO.P,D4,2,A*%
%TO.N,PPVAR_VIN*%
X206575000Y-146860000D03*
%TD*%
D27*
%TO.P,C11,1*%
%TO.N,PP3300_VDDUSB*%
X207600000Y-130550000D03*
%TO.P,C11,2*%
%TO.N,GND*%
X207600000Y-131510000D03*
%TD*%
D28*
%TO.P,J1,1,Pin_1*%
%TO.N,PP1800_ALW*%
X208280000Y-128894000D03*
D29*
%TO.P,J1,2,Pin_2*%
%TO.N,GND*%
X209550000Y-128894000D03*
%TO.P,J1,3,Pin_3*%
%TO.N,GPIO_PC11*%
X210820000Y-128894000D03*
%TO.P,J1,4,Pin_4*%
%TO.N,GPIO_PC10*%
X212090000Y-128894000D03*
%TO.P,J1,5,Pin_5*%
%TO.N,GPIO_PA15*%
X213360000Y-128894000D03*
%TO.P,J1,6,Pin_6*%
%TO.N,SPI2_DEV_DC_PC6*%
X214630000Y-128894000D03*
%TO.P,J1,7,Pin_7*%
%TO.N,SPI2_STM_DO_DEV_DI_PB15*%
X215900000Y-128894000D03*
%TO.P,J1,8,Pin_8*%
%TO.N,SPI2_DEV_DO_STM_DI_PB14*%
X217170000Y-128894000D03*
%TO.P,J1,9,Pin_9*%
%TO.N,SPI2_CLK_PB13*%
X218440000Y-128894000D03*
%TO.P,J1,10,Pin_10*%
%TO.N,SPI2_DEV_CS_L_PB12*%
X219710000Y-128894000D03*
%TO.P,J1,11,Pin_11*%
%TO.N,GND*%
X220980000Y-128894000D03*
%TO.P,J1,12,Pin_12*%
%TO.N,GPIO_PB1*%
X222250000Y-128894000D03*
%TO.P,J1,13,Pin_13*%
%TO.N,GPIO_PB0*%
X223520000Y-128894000D03*
%TO.P,J1,14,Pin_14*%
%TO.N,STM_LPUART_TXD_PA2*%
X224790000Y-128894000D03*
%TO.P,J1,15,Pin_15*%
%TO.N,STM_LPUART_RXD_PB10*%
X226060000Y-128894000D03*
%TD*%
D16*
%TO.P,R7,1*%
%TO.N,PP1800_ALW*%
X217700000Y-143200000D03*
%TO.P,R7,2*%
%TO.N,I2C3_SCL*%
X217060000Y-143200000D03*
%TD*%
D25*
%TO.P,C26,1*%
%TO.N,Net-(U5-VOS)*%
X203990000Y-135930000D03*
%TO.P,C26,2*%
%TO.N,GND*%
X203030000Y-135930000D03*
%TD*%
D16*
%TO.P,L1,1,1*%
%TO.N,/BLE_MCU/BT_ANT_UFL*%
X225970000Y-135110000D03*
%TO.P,L1,2,2*%
%TO.N,/BLE_MCU/BT_ANT_MTCH*%
X225330000Y-135110000D03*
%TD*%
D30*
%TO.P,L4,1,1*%
%TO.N,Net-(U5-SW)*%
X204978000Y-138748600D03*
%TO.P,L4,2,2*%
%TO.N,Net-(U5-VOS)*%
X204978000Y-137298600D03*
%TD*%
D17*
%TO.P,C21,1*%
%TO.N,PP1800_ALW*%
X221610000Y-143030000D03*
%TO.P,C21,2*%
%TO.N,GND*%
X221610000Y-143670000D03*
%TD*%
D31*
%TO.P,R23,1*%
%TO.N,PP1800_ALW*%
X206030000Y-136270000D03*
%TO.P,R23,2*%
%TO.N,Net-(U5-VOS)*%
X205010000Y-136270000D03*
%TD*%
D17*
%TO.P,C3,1*%
%TO.N,/BLE_MCU/BT_ANT_MTCH*%
X224590000Y-135100000D03*
%TO.P,C3,2*%
%TO.N,GND*%
X224590000Y-135740000D03*
%TD*%
D32*
%TO.P,J3,1,Pin_1*%
%TO.N,PPVAR_BAT*%
X197281800Y-141510000D03*
D33*
%TO.P,J3,2,Pin_2*%
%TO.N,/POWER/CHGR_BAT_THERM*%
X197281800Y-143510000D03*
%TO.P,J3,3,Pin_3*%
%TO.N,GND*%
X197281800Y-145510000D03*
%TD*%
D28*
%TO.P,J2,1,Pin_1*%
%TO.N,PPVAR_VIN*%
X208280000Y-146665000D03*
D29*
%TO.P,J2,2,Pin_2*%
%TO.N,GND*%
X209550000Y-146665000D03*
%TO.P,J2,3,Pin_3*%
%TO.N,RESETB*%
X210820000Y-146665000D03*
%TO.P,J2,4,Pin_4*%
%TO.N,STM_WKUP2_PC13*%
X212090000Y-146665000D03*
%TO.P,J2,5,Pin_5*%
%TO.N,STM_BOOT0*%
X213360000Y-146665000D03*
%TO.P,J2,6,Pin_6*%
%TO.N,I2C3_SCL*%
X214630000Y-146665000D03*
%TO.P,J2,7,Pin_7*%
%TO.N,I2C3_SDA*%
X215900000Y-146665000D03*
%TO.P,J2,8,Pin_8*%
%TO.N,Net-(J2-Pin_8)*%
X217170000Y-146665000D03*
%TO.P,J2,9,Pin_9*%
%TO.N,GND*%
X218440000Y-146665000D03*
%TO.P,J2,10,Pin_10*%
%TO.N,STM_SAI1_SD_A*%
X219710000Y-146665000D03*
%TO.P,J2,11,Pin_11*%
%TO.N,STM_SAI1_SCK_A*%
X220980000Y-146665000D03*
%TO.P,J2,12,Pin_12*%
%TO.N,STM_SAI1_FS_A*%
X222250000Y-146665000D03*
%TO.P,J2,13,Pin_13*%
%TO.N,GND*%
X223520000Y-146665000D03*
%TO.P,J2,14,Pin_14*%
%TO.N,ADC1_IN13*%
X224790000Y-146665000D03*
%TO.P,J2,15,Pin_15*%
%TO.N,ADC1_IN14*%
X226060000Y-146665000D03*
%TD*%
D19*
%TO.P,U3,A1,VCC*%
%TO.N,PP1800_ALW*%
X223380000Y-142480000D03*
%TO.P,U3,A2,~{CS}*%
%TO.N,/BLE_MCU/QSPI_MEM_CS_L*%
X223380000Y-141980000D03*
%TO.P,U3,B1,~{HOLD}/IO3*%
%TO.N,/BLE_MCU/QSPI_MEM_D3*%
X223880000Y-142480000D03*
%TO.P,U3,B2,IO1/SO*%
%TO.N,/BLE_MCU/QSPI_MEM_D1*%
X223880000Y-141980000D03*
%TO.P,U3,C1,SCK*%
%TO.N,/BLE_MCU/QSPI_MEM_CLK*%
X224380000Y-142480000D03*
%TO.P,U3,C2,~{WP}/IO2*%
%TO.N,/BLE_MCU/QSPI_MEM_D2*%
X224380000Y-141980000D03*
%TO.P,U3,D1,SI/IO0*%
%TO.N,/BLE_MCU/QSPI_MEM_D0*%
X224880000Y-142480000D03*
%TO.P,U3,D2,GND*%
%TO.N,GND*%
X224880000Y-141980000D03*
%TD*%
D22*
%TO.P,FID1,*%
%TO.N,*%
X202310000Y-129150000D03*
%TD*%
D21*
%TO.P,TP7,1,1*%
%TO.N,VBUS*%
X200440000Y-129220000D03*
%TD*%
D34*
%TO.P,C34,1*%
%TO.N,/BLE_MCU/OSC32_IN*%
X213980000Y-142425000D03*
%TO.P,C34,2*%
%TO.N,GND*%
X213980000Y-141785000D03*
%TD*%
D35*
%TO.P,J5,*%
%TO.N,*%
X193845000Y-132080000D03*
X193845000Y-134880000D03*
D36*
%TO.P,J5,A1,GND*%
%TO.N,GND*%
X198045000Y-130380000D03*
%TO.P,J5,A4,VBUS*%
%TO.N,VBUS*%
X198045000Y-131130000D03*
D37*
%TO.P,J5,A5,CC1*%
%TO.N,Net-(J5-CC1)*%
X198045000Y-131730000D03*
%TO.P,J5,A6,D+*%
%TO.N,USB_D_P*%
X198045000Y-133230000D03*
%TO.P,J5,A7,D-*%
%TO.N,USB_D_N*%
X198045000Y-134230000D03*
%TO.P,J5,A8,SBU1*%
%TO.N,unconnected-(J5-SBU1-PadA8)*%
X198045000Y-135230000D03*
D36*
%TO.P,J5,A9,VBUS*%
%TO.N,VBUS*%
X198045000Y-135830000D03*
%TO.P,J5,A12,GND*%
%TO.N,GND*%
X198045000Y-136580000D03*
%TO.P,J5,B1,GND*%
X198045000Y-136580000D03*
%TO.P,J5,B4,VBUS*%
%TO.N,VBUS*%
X198045000Y-135830000D03*
D37*
%TO.P,J5,B5,CC2*%
%TO.N,Net-(J5-CC2)*%
X198045000Y-134730000D03*
%TO.P,J5,B6,D+*%
%TO.N,USB_D_P*%
X198045000Y-133730000D03*
%TO.P,J5,B7,D-*%
%TO.N,USB_D_N*%
X198045000Y-132730000D03*
%TO.P,J5,B8,SBU2*%
%TO.N,unconnected-(J5-SBU2-PadB8)*%
X198045000Y-132230000D03*
D36*
%TO.P,J5,B9,VBUS*%
%TO.N,VBUS*%
X198045000Y-131130000D03*
%TO.P,J5,B12,GND*%
%TO.N,GND*%
X198045000Y-130380000D03*
D38*
%TO.P,J5,S1,SHIELD*%
X197670000Y-129160000D03*
D39*
X193845000Y-129160000D03*
D38*
X197670000Y-137800000D03*
D39*
X193845000Y-137800000D03*
%TD*%
D40*
%TO.P,J4,1,VCC*%
%TO.N,PP3300_DBG*%
X209140000Y-139120000D03*
%TO.P,J4,2,SWDIO*%
%TO.N,SWD_IO*%
X207870000Y-139120000D03*
%TO.P,J4,3,~{RESET}*%
%TO.N,RESETB*%
X209140000Y-137850000D03*
%TO.P,J4,4,SWCLK*%
%TO.N,SWD_CLK*%
X207870000Y-137850000D03*
%TO.P,J4,5,GND*%
%TO.N,GND*%
X209140000Y-136580000D03*
%TO.P,J4,6,SWO*%
%TO.N,SWD_O*%
X207870000Y-136580000D03*
%TD*%
D16*
%TO.P,R11,1*%
%TO.N,GND*%
X205350000Y-144160000D03*
%TO.P,R11,2*%
%TO.N,Net-(U4-ILIM{slash}VSET)*%
X204710000Y-144160000D03*
%TD*%
D34*
%TO.P,C31,1*%
%TO.N,/BLE_MCU/OSC_IN*%
X222620000Y-131480000D03*
%TO.P,C31,2*%
%TO.N,GND*%
X222620000Y-130840000D03*
%TD*%
D21*
%TO.P,TP5,1,1*%
%TO.N,PPVAR_VIN*%
X207000000Y-142040000D03*
%TD*%
D24*
%TO.P,R12,1*%
%TO.N,Net-(U4-ISET)*%
X204710000Y-143440000D03*
%TO.P,R12,2*%
%TO.N,GND*%
X205350000Y-143440000D03*
%TD*%
D41*
%TO.P,Y1,1,1*%
%TO.N,/BLE_MCU/OSC_OUT*%
X224860000Y-132310000D03*
%TO.P,Y1,2,2*%
%TO.N,GND*%
X224860000Y-130910000D03*
%TO.P,Y1,3,3*%
%TO.N,/BLE_MCU/OSC_IN*%
X223760000Y-130910000D03*
%TO.P,Y1,4,4*%
%TO.N,GND*%
X223760000Y-132310000D03*
%TD*%
D42*
%TO.P,TP1,A,A*%
%TO.N,/BLE_MCU/BT_PCB_ANT*%
X229728401Y-135100800D03*
%TO.P,TP1,C,C*%
%TO.N,/BLE_MCU/BT_ANT_UFL*%
X227808399Y-135100800D03*
D43*
%TO.P,TP1,G,G*%
%TO.N,GND*%
X228768400Y-134285800D03*
D44*
X228768400Y-135915800D03*
%TD*%
D45*
%TO.P,U4,1,SYS*%
%TO.N,PPVAR_SYS*%
X201664800Y-142710000D03*
%TO.P,U4,2,BAT*%
%TO.N,PPVAR_BAT*%
X201664800Y-143110000D03*
D46*
%TO.P,U4,3,STAT2*%
%TO.N,/POWER/CHG_LED_GRN*%
X201664800Y-143510000D03*
%TO.P,U4,4,~{CE}*%
%TO.N,Net-(U4-~{CE})*%
X201664800Y-143910000D03*
%TO.P,U4,5,GND*%
%TO.N,GND*%
X201664800Y-144310000D03*
%TO.P,U4,6,TS/MR*%
%TO.N,/POWER/CHGR_BAT_THERM*%
X203764800Y-144310000D03*
%TO.P,U4,7,ILIM/VSET*%
%TO.N,Net-(U4-ILIM{slash}VSET)*%
X203764800Y-143910000D03*
D45*
%TO.P,U4,8,ISET*%
%TO.N,Net-(U4-ISET)*%
X203764800Y-143510000D03*
%TO.P,U4,9,STAT1*%
%TO.N,FLT_CHG_ODL*%
X203764800Y-143110000D03*
%TO.P,U4,10,IN*%
%TO.N,PPVAR_VIN*%
X203764800Y-142710000D03*
D47*
%TO.P,U4,11,EP*%
%TO.N,GND*%
X202714800Y-143010000D03*
D48*
X202714800Y-143510000D03*
D47*
X202714800Y-144010000D03*
%TD*%
D49*
%TO.P,C20,1*%
%TO.N,VBUS*%
X201020000Y-130745000D03*
%TO.P,C20,2*%
%TO.N,GND*%
X201020000Y-132295000D03*
%TD*%
D50*
%TO.P,Y2,1,1*%
%TO.N,/BLE_MCU/OSC32_OUT*%
X212450000Y-143990000D03*
%TO.P,Y2,2,2*%
%TO.N,/BLE_MCU/OSC32_IN*%
X212450000Y-141490000D03*
%TD*%
D51*
%TO.P,U6,1,I/O1*%
%TO.N,USB_D_P*%
X203415000Y-134647500D03*
D52*
%TO.P,U6,2,GND*%
%TO.N,GND*%
X203490000Y-134110000D03*
D51*
%TO.P,U6,3,I/O2*%
%TO.N,USB_D_N*%
X203415000Y-133572500D03*
%TO.P,U6,4,I/O2*%
X201715000Y-133572500D03*
D52*
%TO.P,U6,5,VBUS*%
%TO.N,VBUS*%
X201640000Y-134110000D03*
D51*
%TO.P,U6,6,I/O1*%
%TO.N,USB_D_P*%
X201715000Y-134647500D03*
%TD*%
D53*
%TO.P,R6,1*%
%TO.N,PPVAR_ADC*%
X218930000Y-143495001D03*
%TO.P,R6,2*%
%TO.N,Net-(J2-Pin_8)*%
X218930000Y-144514999D03*
%TD*%
D54*
%TO.P,AE1,1,A*%
%TO.N,/BLE_MCU/BT_PCB_ANT*%
X231394900Y-135100000D03*
D55*
%TO.P,AE1,2,Shield*%
%TO.N,GND*%
X231394900Y-133000000D03*
%TD*%
D56*
%TO.P,U8,1,IN*%
%TO.N,VBUS*%
X203916700Y-130303100D03*
%TO.P,U8,2,GND*%
%TO.N,GND*%
X203916700Y-131253100D03*
%TO.P,U8,3,EN*%
%TO.N,Net-(U8-EN)*%
X203916700Y-132203100D03*
%TO.P,U8,4,NC*%
%TO.N,unconnected-(U8-NC-Pad4)*%
X206191700Y-132203100D03*
%TO.P,U8,5,OUT*%
%TO.N,PP3300_VDDUSB*%
X206191700Y-130303100D03*
%TD*%
D27*
%TO.P,C33,1*%
%TO.N,VBUS*%
X202210000Y-130470000D03*
%TO.P,C33,2*%
%TO.N,GND*%
X202210000Y-131430000D03*
%TD*%
D25*
%TO.P,C22,1*%
%TO.N,PPVAR_VIN*%
X204109200Y-141808200D03*
%TO.P,C22,2*%
%TO.N,GND*%
X203149200Y-141808200D03*
%TD*%
D16*
%TO.P,R14,1*%
%TO.N,BAT_CHRG_FACTORY*%
X205340000Y-144880000D03*
%TO.P,R14,2*%
%TO.N,/POWER/CHGR_BAT_THERM*%
X204700000Y-144880000D03*
%TD*%
D24*
%TO.P,R19,1*%
%TO.N,VIN_SNS_EN*%
X201550000Y-136010000D03*
%TO.P,R19,2*%
%TO.N,GND*%
X202190000Y-136010000D03*
%TD*%
D23*
%TO.P,D5,1,K*%
%TO.N,Net-(D5-K)*%
X203795000Y-146860000D03*
%TO.P,D5,2,A*%
%TO.N,PPVAR_VIN*%
X202825000Y-146860000D03*
%TD*%
D57*
%TO.P,U1,1,VBAT*%
%TO.N,PP1800_ALW*%
X213910000Y-139997500D03*
%TO.P,U1,2,PC13*%
%TO.N,STM_WKUP2_PC13*%
X214310000Y-139997501D03*
%TO.P,U1,3,PC14*%
%TO.N,/BLE_MCU/OSC32_IN*%
X214710000Y-139997500D03*
%TO.P,U1,4,PC15*%
%TO.N,/BLE_MCU/OSC32_OUT*%
X215110000Y-139997500D03*
%TO.P,U1,5,PH3*%
%TO.N,STM_BOOT0*%
X215510000Y-139997500D03*
%TO.P,U1,6,PB8*%
%TO.N,/BLE_MCU/QSPI_MEM_D1*%
X215909999Y-139997500D03*
%TO.P,U1,7,PB9*%
%TO.N,/BLE_MCU/QSPI_MEM_D0*%
X216310000Y-139997500D03*
%TO.P,U1,8,NRST*%
%TO.N,RESETB*%
X216710000Y-139997500D03*
%TO.P,U1,9,PC0*%
%TO.N,I2C3_SCL*%
X217110000Y-139997501D03*
%TO.P,U1,10,PC1*%
%TO.N,I2C3_SDA*%
X217510000Y-139997500D03*
%TO.P,U1,11,PC2*%
%TO.N,unconnected-(U1-PC2-Pad11)*%
X217910000Y-139997500D03*
%TO.P,U1,12,PC3*%
%TO.N,STM_SAI1_SD_A*%
X218310001Y-139997500D03*
%TO.P,U1,13,VREF+*%
%TO.N,unconnected-(U1-VREF+-Pad13)*%
X218710000Y-139997500D03*
%TO.P,U1,14,VDDA*%
%TO.N,PPVAR_ADC*%
X219110000Y-139997500D03*
%TO.P,U1,15,PA0*%
%TO.N,unconnected-(U1-PA0-Pad15)*%
X219510000Y-139997500D03*
%TO.P,U1,16,PA1*%
%TO.N,/BLE_MCU/QSPI_MEM_CS_L*%
X219910000Y-139997501D03*
%TO.P,U1,17,PA2*%
%TO.N,STM_LPUART_TXD_PA2*%
X220310000Y-139997500D03*
D58*
%TO.P,U1,18,PA3*%
%TO.N,/BLE_MCU/QSPI_MEM_CLK*%
X220997500Y-139310000D03*
%TO.P,U1,19,PA4*%
%TO.N,VIN_SNS_ADC1_IN9*%
X220997501Y-138910000D03*
%TO.P,U1,20,PA5*%
%TO.N,unconnected-(U1-PA5-Pad20)*%
X220997500Y-138510000D03*
%TO.P,U1,21,PA6*%
%TO.N,/BLE_MCU/QSPI_MEM_D3*%
X220997500Y-138110000D03*
%TO.P,U1,22,PA7*%
%TO.N,/BLE_MCU/QSPI_MEM_D2*%
X220997500Y-137710000D03*
%TO.P,U1,23,PA8*%
%TO.N,STM_SAI1_SCK_A*%
X220997500Y-137310001D03*
%TO.P,U1,24,PA9*%
%TO.N,STM_SAI1_FS_A*%
X220997500Y-136910000D03*
%TO.P,U1,25,ADC1_IN13*%
%TO.N,ADC1_IN13*%
X220997500Y-136510000D03*
%TO.P,U1,26,ADC1_IN14*%
%TO.N,ADC1_IN14*%
X220997501Y-136110000D03*
%TO.P,U1,27,PB2*%
%TO.N,unconnected-(U1-PB2-Pad27)*%
X220997500Y-135710000D03*
%TO.P,U1,28,PB10*%
%TO.N,STM_LPUART_RXD_PB10*%
X220997500Y-135310000D03*
%TO.P,U1,29,PB11*%
%TO.N,unconnected-(U1-PB11-Pad29)*%
X220997500Y-134909999D03*
%TO.P,U1,30,VDD*%
%TO.N,PP1800_ALW*%
X220997500Y-134510000D03*
%TO.P,U1,31,RF1*%
%TO.N,/BLE_MCU/STM_RF*%
X220997500Y-134110000D03*
%TO.P,U1,32,VSSRF*%
%TO.N,GND*%
X220997500Y-133710000D03*
%TO.P,U1,33,VDDRF*%
%TO.N,PP1800_ALW*%
X220997501Y-133310000D03*
%TO.P,U1,34,OSC_OUT*%
%TO.N,/BLE_MCU/OSC_OUT*%
X220997500Y-132910000D03*
D57*
%TO.P,U1,35,OSC_IN*%
%TO.N,/BLE_MCU/OSC_IN*%
X220310000Y-132222500D03*
%TO.P,U1,36,AT0*%
%TO.N,unconnected-(U1-AT0-Pad36)*%
X219910000Y-132222499D03*
%TO.P,U1,37,AT1*%
%TO.N,unconnected-(U1-AT1-Pad37)*%
X219510000Y-132222500D03*
%TO.P,U1,38,PB0*%
%TO.N,GPIO_PB0*%
X219110000Y-132222500D03*
%TO.P,U1,39,PB1*%
%TO.N,GPIO_PB1*%
X218710000Y-132222500D03*
%TO.P,U1,40,PE4*%
%TO.N,unconnected-(U1-PE4-Pad40)*%
X218310001Y-132222500D03*
%TO.P,U1,41,VFBSMPS*%
%TO.N,PP1800_ALW*%
X217910000Y-132222500D03*
%TO.P,U1,42,VSSSMPS*%
%TO.N,GND*%
X217510000Y-132222500D03*
%TO.P,U1,43,VLXSMPS*%
%TO.N,PP1800_ALW*%
X217110000Y-132222499D03*
%TO.P,U1,44,VDDSMPS*%
X216710000Y-132222500D03*
%TO.P,U1,45,VDD*%
X216310000Y-132222500D03*
%TO.P,U1,46,PB12*%
%TO.N,SPI2_DEV_CS_L_PB12*%
X215909999Y-132222500D03*
%TO.P,U1,47,PB13*%
%TO.N,SPI2_CLK_PB13*%
X215510000Y-132222500D03*
%TO.P,U1,48,PB14*%
%TO.N,SPI2_DEV_DO_STM_DI_PB14*%
X215110000Y-132222500D03*
%TO.P,U1,49,PB15*%
%TO.N,SPI2_STM_DO_DEV_DI_PB15*%
X214710000Y-132222500D03*
%TO.P,U1,50,PC6*%
%TO.N,SPI2_DEV_DC_PC6*%
X214310000Y-132222499D03*
%TO.P,U1,51,PA10*%
%TO.N,unconnected-(U1-PA10-Pad51)*%
X213910000Y-132222500D03*
D58*
%TO.P,U1,52,PA11*%
%TO.N,USB_D_N*%
X213222500Y-132910000D03*
%TO.P,U1,53,PA12*%
%TO.N,USB_D_P*%
X213222499Y-133310000D03*
%TO.P,U1,54,PA13*%
%TO.N,SWD_IO*%
X213222500Y-133710000D03*
%TO.P,U1,55,VDDUSB*%
%TO.N,PP3300_VDDUSB*%
X213222500Y-134110000D03*
%TO.P,U1,56,PA14*%
%TO.N,SWD_CLK*%
X213222500Y-134510000D03*
%TO.P,U1,57,PA15*%
%TO.N,GPIO_PA15*%
X213222500Y-134909999D03*
%TO.P,U1,58,PC10*%
%TO.N,GPIO_PC10*%
X213222500Y-135310000D03*
%TO.P,U1,59,PC11*%
%TO.N,GPIO_PC11*%
X213222500Y-135710000D03*
%TO.P,U1,60,PC12*%
%TO.N,SWD_O*%
X213222499Y-136110000D03*
%TO.P,U1,61,PD0*%
%TO.N,unconnected-(U1-PD0-Pad61)*%
X213222500Y-136510000D03*
%TO.P,U1,62,PD1*%
%TO.N,unconnected-(U1-PD1-Pad62)*%
X213222500Y-136910000D03*
%TO.P,U1,63,PB3*%
%TO.N,unconnected-(U1-PB3-Pad63)*%
X213222500Y-137310001D03*
%TO.P,U1,64,PB4*%
%TO.N,/BLE_MCU/FLT_CHG_OD*%
X213222500Y-137710000D03*
%TO.P,U1,65,PB5*%
%TO.N,VIN_SNS_EN*%
X213222500Y-138110000D03*
%TO.P,U1,66,PB6*%
%TO.N,/BLE_MCU/BT_CONN_LED*%
X213222500Y-138510000D03*
%TO.P,U1,67,PB7*%
%TO.N,BAT_CHRG_FACTORY*%
X213222499Y-138910000D03*
%TO.P,U1,68,VDD*%
%TO.N,PP1800_ALW*%
X213222500Y-139310000D03*
D59*
%TO.P,U1,69,VSS*%
%TO.N,GND*%
X217110000Y-136110000D03*
%TD*%
D27*
%TO.P,C23,1*%
%TO.N,PPVAR_BAT*%
X199700000Y-143020000D03*
%TO.P,C23,2*%
%TO.N,GND*%
X199700000Y-143980000D03*
%TD*%
D17*
%TO.P,C18,1*%
%TO.N,/BLE_MCU/OSC32_OUT*%
X213970000Y-143197800D03*
%TO.P,C18,2*%
%TO.N,GND*%
X213970000Y-143837800D03*
%TD*%
D16*
%TO.P,R15,1*%
%TO.N,GND*%
X206740000Y-144880000D03*
%TO.P,R15,2*%
%TO.N,BAT_CHRG_FACTORY*%
X206100000Y-144880000D03*
%TD*%
D60*
%TO.N,GND*%
X227990000Y-137830000D03*
X215510000Y-134509000D03*
X230180000Y-139135000D03*
X206690000Y-139130000D03*
X205960000Y-144240000D03*
X230180000Y-144181664D03*
X231135000Y-134325000D03*
X227025000Y-129615000D03*
X199400000Y-144740000D03*
X226000000Y-133630000D03*
X215510000Y-137715000D03*
X202440000Y-145500000D03*
X198690000Y-139690000D03*
X211675000Y-140520000D03*
X217110000Y-137715000D03*
X228720000Y-136480000D03*
X231215000Y-143481664D03*
X225480000Y-130250000D03*
X217110000Y-133025000D03*
X220390000Y-129905000D03*
X202210000Y-132370000D03*
X228870000Y-128745000D03*
X203149200Y-141055000D03*
X227190000Y-134190000D03*
X206820000Y-136030000D03*
X203030000Y-135310000D03*
X223525000Y-145555000D03*
X227625000Y-128720000D03*
X226700000Y-136270000D03*
X231215000Y-138435000D03*
X223007016Y-139179935D03*
X213390000Y-145035000D03*
X209550000Y-145550000D03*
X223725000Y-133735000D03*
X223330000Y-135100000D03*
X226580000Y-134410000D03*
X226165000Y-137565000D03*
X226410000Y-130510000D03*
X229105000Y-143466664D03*
X224890000Y-141270000D03*
X209550000Y-129990000D03*
X231215000Y-140958332D03*
X221025000Y-139910000D03*
X201650000Y-144780000D03*
X224330000Y-145395000D03*
X217110000Y-134509000D03*
X204134994Y-134105000D03*
X225380000Y-136720000D03*
X199140000Y-139140000D03*
X223410000Y-144100000D03*
X227880000Y-136720000D03*
X229105000Y-145990000D03*
X227440000Y-132185000D03*
X215740000Y-143950000D03*
X224500000Y-143570000D03*
X231215000Y-144743330D03*
X231135000Y-135870000D03*
X207600000Y-132180000D03*
X224000000Y-135660000D03*
X221605000Y-144165000D03*
X230180000Y-145443330D03*
X205940000Y-143560000D03*
X215510000Y-133025000D03*
X222630000Y-134800000D03*
X225060000Y-133650000D03*
X226260000Y-131620000D03*
X218710000Y-133025000D03*
X227980000Y-141558334D03*
X231215000Y-146005000D03*
X227980000Y-146605002D03*
X228730000Y-133720000D03*
X224610000Y-136240000D03*
X203170000Y-144820000D03*
X215510000Y-136109200D03*
X231215000Y-139696666D03*
X202280400Y-141055000D03*
X200990000Y-133030000D03*
X222125000Y-133510000D03*
X222010000Y-131075000D03*
X223240000Y-136895000D03*
X204290000Y-135160000D03*
X226930000Y-133280000D03*
X226930000Y-138560000D03*
X222995000Y-133525000D03*
X227440000Y-131215000D03*
X228890000Y-129840000D03*
X199365800Y-130377000D03*
X229280000Y-132200000D03*
X229560000Y-136740000D03*
X230180000Y-140396666D03*
X225320000Y-135770000D03*
X228890000Y-130875000D03*
X218710000Y-134509000D03*
X225850000Y-134450000D03*
X211815000Y-135465000D03*
X218375000Y-145540000D03*
X231215000Y-142219998D03*
X199560000Y-139680000D03*
X227980000Y-144081666D03*
X199010000Y-145990000D03*
X231185000Y-137335000D03*
X227840000Y-133490000D03*
X209942141Y-136563091D03*
X207420000Y-145080000D03*
X217110000Y-136109200D03*
X226080000Y-135790000D03*
X230180000Y-146705000D03*
X227980000Y-145343332D03*
X229105000Y-139681666D03*
X224360000Y-134190000D03*
X229580000Y-133490000D03*
X227980000Y-142820000D03*
X206600000Y-138390000D03*
X218710000Y-136109200D03*
X205010000Y-134680000D03*
X229105000Y-144728330D03*
X230350000Y-134290000D03*
X230210000Y-137965000D03*
X227980000Y-139035002D03*
X230180000Y-142919998D03*
X227980000Y-140296668D03*
X229105000Y-138420000D03*
X230430000Y-132695000D03*
X214000000Y-141200000D03*
X230364200Y-135915800D03*
X201765000Y-138065000D03*
X223730000Y-133110000D03*
X202909300Y-131253100D03*
X229105000Y-142204998D03*
X229105000Y-140943332D03*
X228445000Y-132785000D03*
X218710000Y-137715000D03*
X214545000Y-143955000D03*
X227240000Y-136680000D03*
X230180000Y-141658332D03*
X199415400Y-136575800D03*
X223350000Y-140490000D03*
X226165000Y-132735000D03*
X225045000Y-134420000D03*
X228435000Y-131630000D03*
X196590000Y-133190000D03*
%TO.N,PP1800_ALW*%
X218355000Y-131075000D03*
X213010000Y-140020000D03*
X221595000Y-142070000D03*
X216081138Y-131008200D03*
X206470000Y-134250000D03*
X221960000Y-132710000D03*
X212320000Y-139310000D03*
X205900000Y-134240000D03*
X221950000Y-134790000D03*
X217640000Y-141740000D03*
X216745000Y-130980000D03*
X217435000Y-131020000D03*
%TO.N,PPVAR_SYS*%
X203380000Y-138150000D03*
X202775000Y-140265000D03*
X202790000Y-139560000D03*
%TO.N,PP3300_DBG*%
X207040000Y-140360000D03*
%TO.N,RESETB*%
X216540000Y-142370000D03*
X209720000Y-143020000D03*
%TO.N,PP3300_VDDUSB*%
X209340000Y-132290000D03*
X212410000Y-134170000D03*
%TO.N,PPVAR_VIN*%
X205480000Y-141840000D03*
X206180000Y-146020000D03*
X204860000Y-141850000D03*
X201093806Y-137720806D03*
X199400000Y-146870000D03*
X202185905Y-146934303D03*
X200330000Y-137690000D03*
%TO.N,VIN_SNS_ADC1_IN9*%
X222340000Y-139280000D03*
%TO.N,VBUS*%
X203530000Y-129550000D03*
X200130000Y-131180000D03*
X200390000Y-135840000D03*
X199450000Y-131200000D03*
X199710000Y-135850000D03*
X202565000Y-134110000D03*
%TO.N,Net-(U4-~{CE})*%
X200850000Y-144290000D03*
%TO.N,BAT_CHRG_FACTORY*%
X210650000Y-144850000D03*
X207080000Y-145730000D03*
%TO.N,Net-(U5-VINSW)*%
X202365000Y-137015000D03*
%TO.N,VIN_SNS_EN*%
X201010000Y-136560000D03*
X211450000Y-138380000D03*
%TO.N,FLT_CHG_ODL*%
X204760000Y-142820000D03*
%TO.N,SWD_O*%
X206960000Y-136790000D03*
X210840000Y-137260000D03*
%TO.N,/POWER/CHGR_BAT_THERM*%
X199960000Y-146000000D03*
%TO.N,Net-(U8-EN)*%
X205030000Y-132210000D03*
%TO.N,STM_LPUART_TXD_PA2*%
X221690000Y-140130000D03*
X220050122Y-131369686D03*
%TO.N,STM_LPUART_RXD_PB10*%
X223310000Y-135960000D03*
X220815000Y-131570000D03*
%TO.N,Net-(D1-K)*%
X201590000Y-146500000D03*
%TO.N,/POWER/CHG_LED_GRN*%
X200358800Y-143601200D03*
%TO.N,Net-(U5-VOS)*%
X201560000Y-137030000D03*
X203880000Y-136700000D03*
%TO.N,/BLE_MCU/QSPI_MEM_CLK*%
X223800000Y-143580000D03*
X223070000Y-139820000D03*
%TO.N,/BLE_MCU/QSPI_MEM_D0*%
X225000000Y-143080000D03*
X216380000Y-143790000D03*
%TO.N,/BLE_MCU/QSPI_MEM_D3*%
X223540000Y-138720000D03*
X222897262Y-143662738D03*
%TO.N,/BLE_MCU/QSPI_MEM_D1*%
X215650000Y-143240000D03*
X223840000Y-141110000D03*
%TO.N,PPVAR_ADC*%
X218930000Y-141760000D03*
X219100000Y-140870000D03*
%TO.N,GPIO_PC10*%
X211060000Y-136140000D03*
X210685000Y-132605000D03*
%TO.N,GPIO_PA15*%
X211445000Y-132774998D03*
X211220000Y-135190000D03*
%TO.N,GPIO_PC11*%
X211740000Y-136790000D03*
X209760000Y-132840000D03*
%TO.N,/BLE_MCU/BT_CONN_LED*%
X210300000Y-144030000D03*
%TO.N,Net-(J5-CC2)*%
X197190000Y-134710000D03*
%TO.N,Net-(J5-CC1)*%
X197190000Y-131730000D03*
%TO.N,Net-(D5-K)*%
X204330000Y-146320000D03*
%TO.N,/BLE_MCU/FLT_CHG_OD*%
X210540000Y-138490000D03*
X210110000Y-142010000D03*
%TO.N,ADC1_IN13*%
X222480000Y-136870000D03*
X225225000Y-145640000D03*
%TO.N,ADC1_IN14*%
X226080000Y-145795000D03*
X223970000Y-136800000D03*
%TO.N,Net-(D4-K)*%
X205105000Y-146345000D03*
%TD*%
D14*
%TO.N,GND*%
X229484200Y-134285800D02*
X229590000Y-134180000D01*
X228727000Y-133723000D02*
X228730000Y-133720000D01*
D61*
X223230000Y-132870000D02*
X223550000Y-132550000D01*
D14*
X230364200Y-135915800D02*
X228768400Y-135915800D01*
X227240000Y-135920000D02*
X227244200Y-135915800D01*
D62*
X199362800Y-130380000D02*
X198045000Y-130380000D01*
X201060000Y-132370000D02*
X202210000Y-132370000D01*
D63*
X221610000Y-144160000D02*
X221610000Y-143670000D01*
D62*
X198045000Y-136580000D02*
X199411200Y-136580000D01*
D64*
X214500000Y-143910000D02*
X213990000Y-143910000D01*
D14*
X203490000Y-134110000D02*
X204119994Y-134110000D01*
D61*
X202990000Y-135350000D02*
X203030000Y-135310000D01*
X224890000Y-141270000D02*
X224880000Y-141280000D01*
D62*
X199411200Y-136580000D02*
X199415400Y-136575800D01*
D61*
X213700000Y-145035000D02*
X213975000Y-144760000D01*
D62*
X218430000Y-146640000D02*
X218430000Y-145595000D01*
X223520000Y-146670000D02*
X223520000Y-145560000D01*
D14*
X228727000Y-136473000D02*
X228720000Y-136480000D01*
X229464200Y-134285800D02*
X229580000Y-134170000D01*
D63*
X221605000Y-144165000D02*
X221610000Y-144160000D01*
D62*
X199700000Y-144530000D02*
X199700000Y-143980000D01*
D63*
X205470000Y-143560000D02*
X205350000Y-143440000D01*
D62*
X199365800Y-130377000D02*
X198042000Y-130377000D01*
D61*
X206745800Y-144071600D02*
X206463600Y-143789400D01*
D64*
X214000000Y-141200000D02*
X214000000Y-141857200D01*
D14*
X227820000Y-134210000D02*
X227840000Y-134190000D01*
D61*
X225560000Y-130140000D02*
X225540000Y-130120000D01*
D62*
X202180000Y-131430000D02*
X202210000Y-131460000D01*
X197670000Y-129160000D02*
X197673000Y-129157000D01*
D14*
X226710000Y-136260000D02*
X226710000Y-135750000D01*
D62*
X205010000Y-134680000D02*
X205010000Y-135290000D01*
D61*
X201650000Y-144780000D02*
X201664800Y-144765200D01*
X224840000Y-131253000D02*
X224840000Y-131230000D01*
D14*
X224610000Y-136300000D02*
X224610000Y-135730000D01*
X228768400Y-134285800D02*
X227421281Y-134285800D01*
D64*
X214545000Y-143955000D02*
X214500000Y-143910000D01*
D14*
X205960000Y-144240000D02*
X206250000Y-144240000D01*
X223770000Y-133080000D02*
X223730000Y-133040000D01*
D62*
X205010000Y-135290000D02*
X204420000Y-135290000D01*
D14*
X229560000Y-136080000D02*
X229560000Y-136740000D01*
X227240000Y-136680000D02*
X227240000Y-135920000D01*
X228727000Y-135915800D02*
X229395800Y-135915800D01*
D62*
X200990000Y-133030000D02*
X200990000Y-132300000D01*
X220390000Y-129900000D02*
X220390000Y-129905000D01*
D61*
X213390000Y-145035000D02*
X213700000Y-145035000D01*
D14*
X228727000Y-134285800D02*
X229484200Y-134285800D01*
D62*
X209550000Y-146665000D02*
X209550000Y-145550000D01*
D14*
X227840000Y-134190000D02*
X227840000Y-133490000D01*
X207420000Y-145080000D02*
X207220000Y-144880000D01*
D64*
X201765000Y-138065000D02*
X201765000Y-138346200D01*
D61*
X213975000Y-144760000D02*
X214010000Y-144760000D01*
D62*
X220980000Y-129310000D02*
X220390000Y-129900000D01*
D61*
X205430000Y-144240000D02*
X205350000Y-144160000D01*
D62*
X198045000Y-137425000D02*
X197670000Y-137800000D01*
X204420000Y-135290000D02*
X204290000Y-135160000D01*
D14*
X206250000Y-144240000D02*
X206710000Y-143780000D01*
D64*
X201769400Y-138350600D02*
X202365000Y-138350600D01*
D14*
X227895800Y-134285800D02*
X227820000Y-134210000D01*
X228014200Y-135915800D02*
X227870000Y-136060000D01*
D63*
X222030000Y-133605000D02*
X222125000Y-133510000D01*
D62*
X220980000Y-128894000D02*
X220980000Y-129310000D01*
X209550000Y-128894000D02*
X209550000Y-129990000D01*
X218430000Y-145595000D02*
X218375000Y-145540000D01*
X207600000Y-132180000D02*
X207600000Y-131510000D01*
D14*
X201664800Y-144310000D02*
X201664800Y-144729198D01*
D64*
X222620000Y-130840000D02*
X222245000Y-130840000D01*
D63*
X205940000Y-143560000D02*
X205470000Y-143560000D01*
D14*
X206040000Y-143460000D02*
X206395000Y-143460000D01*
X229395800Y-135915800D02*
X229560000Y-136080000D01*
D63*
X206489000Y-143554000D02*
X206489000Y-143800000D01*
D62*
X202356900Y-131253100D02*
X202180000Y-131430000D01*
D61*
X201664800Y-144765200D02*
X201664800Y-144729198D01*
D14*
X228727000Y-135915800D02*
X228727000Y-136473000D01*
D61*
X219510000Y-133710000D02*
X217110000Y-136110000D01*
D63*
X206395000Y-143460000D02*
X206489000Y-143554000D01*
D62*
X200990000Y-132300000D02*
X201060000Y-132370000D01*
D14*
X224840000Y-130890000D02*
X224840000Y-131150000D01*
X228727000Y-134285800D02*
X227895800Y-134285800D01*
X229590000Y-134180000D02*
X229580000Y-134170000D01*
X227870000Y-136710000D02*
X227880000Y-136720000D01*
D62*
X198045000Y-136580000D02*
X198045000Y-137425000D01*
D61*
X214010000Y-144760000D02*
X213990000Y-144760000D01*
X205960000Y-144240000D02*
X205430000Y-144240000D01*
X224840000Y-131230000D02*
X224830000Y-131220000D01*
D63*
X217510000Y-132222500D02*
X217510000Y-135710000D01*
D14*
X205940000Y-143560000D02*
X206040000Y-143460000D01*
D63*
X202190000Y-136010000D02*
X202950000Y-136010000D01*
X222630000Y-130925000D02*
X222630000Y-130910000D01*
D64*
X201765000Y-138346200D02*
X201769400Y-138350600D01*
D14*
X207220000Y-144880000D02*
X206800000Y-144880000D01*
X204119994Y-134110000D02*
X204134994Y-134125000D01*
D63*
X221530000Y-133710000D02*
X220997500Y-133710000D01*
D14*
X226700000Y-136270000D02*
X226710000Y-136260000D01*
X227244200Y-135915800D02*
X228768400Y-135915800D01*
D62*
X199400000Y-144740000D02*
X199490000Y-144740000D01*
X203030000Y-135310000D02*
X203030000Y-135930000D01*
X197673000Y-129157000D02*
X198128000Y-129157000D01*
D14*
X225480000Y-130250000D02*
X224840000Y-130890000D01*
X228727000Y-134285800D02*
X228727000Y-133723000D01*
D61*
X202950000Y-136010000D02*
X203030000Y-135930000D01*
D14*
X230345800Y-134285800D02*
X228768400Y-134285800D01*
X227870000Y-136060000D02*
X227870000Y-136710000D01*
D64*
X213990000Y-144640000D02*
X214010000Y-144660000D01*
X222245000Y-130840000D02*
X222010000Y-131075000D01*
D14*
X206710000Y-143780000D02*
X206715000Y-143780000D01*
D63*
X221635000Y-133605000D02*
X221530000Y-133710000D01*
D62*
X202210000Y-131460000D02*
X202210000Y-132370000D01*
X202909300Y-131253100D02*
X202356900Y-131253100D01*
D14*
X206535000Y-143770000D02*
X206565000Y-143800000D01*
D64*
X198045000Y-129535000D02*
X197670000Y-129160000D01*
D62*
X199490000Y-144740000D02*
X199700000Y-144530000D01*
D14*
X228768400Y-134285800D02*
X229464200Y-134285800D01*
D62*
X223520000Y-145560000D02*
X223525000Y-145555000D01*
D61*
X222620000Y-132870000D02*
X223230000Y-132870000D01*
D62*
X209140000Y-136580000D02*
X209925232Y-136580000D01*
D61*
X217510000Y-135710000D02*
X217110000Y-136110000D01*
D14*
X228727000Y-135915800D02*
X228014200Y-135915800D01*
D61*
X220980000Y-129200000D02*
X220980000Y-128894000D01*
X223550000Y-132550000D02*
X223740000Y-132550000D01*
D62*
X209925232Y-136580000D02*
X209942141Y-136563091D01*
D63*
X206489000Y-143800000D02*
X206745800Y-144056800D01*
D61*
X224880000Y-141280000D02*
X224880000Y-141980000D01*
D14*
X229580000Y-134170000D02*
X229580000Y-133490000D01*
D62*
X198045000Y-130380000D02*
X198045000Y-129535000D01*
X199365800Y-130377000D02*
X199362800Y-130380000D01*
D63*
X221635000Y-133605000D02*
X222030000Y-133605000D01*
D65*
X220997500Y-133710000D02*
X219510000Y-133710000D01*
D61*
X203149200Y-141055000D02*
X203149200Y-141808200D01*
X220980000Y-128910000D02*
X220980000Y-128894000D01*
D62*
X202909300Y-131253100D02*
X203916700Y-131253100D01*
D14*
X230350000Y-134290000D02*
X230345800Y-134285800D01*
D61*
X202280400Y-141055000D02*
X202280400Y-141808200D01*
D14*
X223730000Y-133040000D02*
X223730000Y-132620000D01*
X227421281Y-134285800D02*
G75*
G02*
X227190005Y-134189995I19J327100D01*
G01*
%TO.N,PP1800_ALW*%
X217435000Y-131020000D02*
X217110000Y-131345000D01*
D63*
X218355000Y-131075000D02*
X217910000Y-131520000D01*
X222830000Y-143030000D02*
X223380000Y-142480000D01*
X216310000Y-132222500D02*
X216310000Y-131237062D01*
X216710000Y-131015000D02*
X216710000Y-132222500D01*
X216745000Y-130980000D02*
X216710000Y-131015000D01*
X221610000Y-143030000D02*
X222830000Y-143030000D01*
X216310000Y-131237062D02*
X216081138Y-131008200D01*
D14*
X221595000Y-142070000D02*
X221595000Y-142775000D01*
X217110000Y-131345000D02*
X217110000Y-132222499D01*
D63*
X221950000Y-134790000D02*
X221660000Y-134500000D01*
D14*
X213910000Y-139997500D02*
X213887500Y-140020000D01*
D63*
X221660000Y-134500000D02*
X220987500Y-134500000D01*
D14*
X213201250Y-139320000D02*
X212338750Y-139320000D01*
X213887500Y-140020000D02*
X213010000Y-140020000D01*
D63*
X221960000Y-132710000D02*
X221960000Y-132975000D01*
X221960000Y-132975000D02*
X221625000Y-133310000D01*
X221625000Y-133310000D02*
X221000000Y-133310000D01*
X217910000Y-131520000D02*
X217910000Y-132222500D01*
X217640000Y-141740000D02*
X217670000Y-141770000D01*
X217670000Y-141770000D02*
X217670000Y-143220000D01*
D61*
%TO.N,PPVAR_SYS*%
X203180600Y-137950600D02*
X202765000Y-137950600D01*
X203179400Y-138350600D02*
X202765000Y-138350600D01*
X203380000Y-138150000D02*
X203180600Y-137950600D01*
X203380000Y-138150000D02*
X203179400Y-138350600D01*
D66*
%TO.N,/BLE_MCU/BT_PCB_ANT*%
X231349200Y-135100800D02*
X231350000Y-135100000D01*
X229728400Y-135100800D02*
X231349200Y-135100800D01*
D62*
%TO.N,PP3300_DBG*%
X209504300Y-140835700D02*
X209504300Y-139484300D01*
X207040000Y-140360000D02*
X205530000Y-140360000D01*
X209504300Y-139484300D02*
X209140000Y-139120000D01*
X208940000Y-141400000D02*
X209504300Y-140835700D01*
X208080000Y-141400000D02*
X208940000Y-141400000D01*
X207040000Y-140360000D02*
X208080000Y-141400000D01*
X205530000Y-140360000D02*
X205490000Y-140400000D01*
D61*
%TO.N,SWD_CLK*%
X210630000Y-134560000D02*
X211760000Y-134560000D01*
X208510000Y-137740000D02*
X208510000Y-137385000D01*
X210500000Y-136760000D02*
X210500000Y-134690000D01*
X207870000Y-137850000D02*
X208400000Y-137850000D01*
X212715000Y-134510000D02*
X213222500Y-134510000D01*
X212570000Y-134655000D02*
X212715000Y-134510000D01*
X210040000Y-137220000D02*
X210500000Y-136760000D01*
X208675000Y-137220000D02*
X210040000Y-137220000D01*
X210500000Y-134690000D02*
X210630000Y-134560000D01*
X208400000Y-137850000D02*
X208510000Y-137740000D01*
X211855000Y-134655000D02*
X212570000Y-134655000D01*
X211760000Y-134560000D02*
X211855000Y-134655000D01*
X208510000Y-137385000D02*
X208675000Y-137220000D01*
%TO.N,SWD_IO*%
X207162400Y-137515600D02*
X207162400Y-138462400D01*
X208490000Y-134850000D02*
X208490000Y-136920000D01*
X209125000Y-134215000D02*
X208490000Y-134850000D01*
X208199200Y-137210800D02*
X207467200Y-137210800D01*
X208490000Y-136920000D02*
X208199200Y-137210800D01*
X213222500Y-133710000D02*
X212195000Y-133710000D01*
X207467200Y-137210800D02*
X207162400Y-137515600D01*
X207820000Y-139120000D02*
X207870000Y-139120000D01*
X211690000Y-134215000D02*
X209125000Y-134215000D01*
X212195000Y-133710000D02*
X211690000Y-134215000D01*
X207162400Y-138462400D02*
X207820000Y-139120000D01*
%TO.N,RESETB*%
X216540000Y-142370000D02*
X216540000Y-141590000D01*
X209970000Y-141385000D02*
X209970000Y-138680000D01*
X209520000Y-141835000D02*
X209970000Y-141385000D01*
X209720000Y-144770000D02*
X210820000Y-145870000D01*
X209720000Y-143020000D02*
X209520000Y-142820000D01*
X209520000Y-142820000D02*
X209520000Y-141835000D01*
X210820000Y-145870000D02*
X210820000Y-146665000D01*
X209720000Y-143020000D02*
X209720000Y-144770000D01*
X216710000Y-141420000D02*
X216710000Y-139997500D01*
X209970000Y-138680000D02*
X209140000Y-137850000D01*
X216540000Y-141590000D02*
X216710000Y-141420000D01*
D66*
%TO.N,/BLE_MCU/BT_ANT_UFL*%
X227808399Y-135100800D02*
X226719200Y-135100800D01*
X225970000Y-135100000D02*
X226718400Y-135100000D01*
X226718400Y-135100000D02*
X226719200Y-135100800D01*
%TO.N,/BLE_MCU/BT_ANT_MTCH*%
X224444025Y-135100000D02*
X225307065Y-135100000D01*
D14*
X225216600Y-135100000D02*
X225206600Y-135110000D01*
D66*
X223774090Y-134607089D02*
X224039911Y-134872911D01*
X222620000Y-134131960D02*
G75*
G02*
X223774092Y-134609998I0J-1632140D01*
G01*
X224056981Y-134883867D02*
G75*
G03*
X224444028Y-135099987I593619J608467D01*
G01*
D14*
%TO.N,PP3300_VDDUSB*%
X212410000Y-134170000D02*
X212470000Y-134110000D01*
D67*
X212410000Y-134170000D02*
X212400000Y-134180000D01*
D62*
X209340000Y-131150000D02*
X209340000Y-132290000D01*
X208493100Y-130303100D02*
X209340000Y-131150000D01*
D14*
X212470000Y-134110000D02*
X213222500Y-134110000D01*
D62*
X206191700Y-130303100D02*
X208493100Y-130303100D01*
D61*
%TO.N,/BLE_MCU/OSC32_OUT*%
X214770000Y-142410000D02*
X214770000Y-141060000D01*
X212450000Y-143330000D02*
X212450000Y-143990000D01*
X214770000Y-141060000D02*
X215110000Y-140720000D01*
X213982200Y-143197800D02*
X213970000Y-143197800D01*
X215110000Y-139997500D02*
X215110000Y-140720000D01*
X212582200Y-143197800D02*
X212450000Y-143330000D01*
X213970000Y-143197800D02*
X212582200Y-143197800D01*
X214770000Y-142410000D02*
X213982200Y-143197800D01*
D14*
%TO.N,PPVAR_VIN*%
X202825000Y-146860000D02*
X202825000Y-146900000D01*
X202185905Y-146934303D02*
X202750697Y-146934303D01*
X200047500Y-146880000D02*
X199410000Y-146880000D01*
X208085000Y-146860000D02*
X208280000Y-146665000D01*
X206575000Y-146860000D02*
X206575000Y-146415000D01*
X202750697Y-146934303D02*
X202825000Y-146860000D01*
X206575000Y-146415000D02*
X206180000Y-146020000D01*
X206570000Y-146905000D02*
X206575000Y-146910000D01*
X206575000Y-146860000D02*
X208085000Y-146860000D01*
D62*
X200355200Y-137720800D02*
X201093800Y-137720800D01*
D14*
X199410000Y-146880000D02*
X199400000Y-146870000D01*
D62*
X201093800Y-137720800D02*
X201093806Y-137720806D01*
D14*
%TO.N,VIN_SNS_ADC1_IN9*%
X221985000Y-138930000D02*
X222335000Y-139280000D01*
X220777501Y-138930000D02*
X221985000Y-138930000D01*
X222335000Y-139280000D02*
X222340000Y-139280000D01*
D62*
%TO.N,VBUS*%
X199710000Y-135850000D02*
X199690000Y-135830000D01*
D68*
X202565000Y-134110000D02*
X201612600Y-134110000D01*
D62*
X199690000Y-135830000D02*
X198045000Y-135830000D01*
D61*
X203916700Y-129631700D02*
X203916700Y-130303100D01*
X203530000Y-129550000D02*
X203835000Y-129550000D01*
X203835000Y-129550000D02*
X203916700Y-129631700D01*
D14*
X201612600Y-134110000D02*
X201640000Y-134137400D01*
D61*
%TO.N,Net-(U4-~{CE})*%
X200850000Y-144259800D02*
X201199800Y-143910000D01*
X201199800Y-143910000D02*
X201664800Y-143910000D01*
X200850000Y-144290000D02*
X200850000Y-144259800D01*
%TO.N,Net-(U4-ILIM{slash}VSET)*%
X204710000Y-144160000D02*
X204670000Y-144160000D01*
X204420000Y-143910000D02*
X203764800Y-143910000D01*
X204670000Y-144160000D02*
X204420000Y-143910000D01*
%TO.N,Net-(U4-ISET)*%
X204640000Y-143510000D02*
X204710000Y-143440000D01*
X203764800Y-143510000D02*
X204640000Y-143510000D01*
%TO.N,BAT_CHRG_FACTORY*%
X210650000Y-144850000D02*
X210870000Y-144630000D01*
X210870000Y-140116532D02*
X212131532Y-138855000D01*
X206160000Y-145270000D02*
X206160000Y-144880000D01*
X206350000Y-145460000D02*
X206160000Y-145270000D01*
X210870000Y-144630000D02*
X210870000Y-140116532D01*
X206160000Y-144880000D02*
X205390000Y-144880000D01*
X212131532Y-138855000D02*
X213167499Y-138855000D01*
X206810000Y-145460000D02*
X206350000Y-145460000D01*
X213167499Y-138855000D02*
X213222499Y-138910000D01*
X207080000Y-145730000D02*
X206810000Y-145460000D01*
D63*
%TO.N,Net-(U5-VINSW)*%
X202365000Y-137015000D02*
X202365000Y-137550600D01*
D61*
%TO.N,VIN_SNS_EN*%
X201550000Y-136560000D02*
X202730000Y-136560000D01*
X202730000Y-136560000D02*
X202970000Y-136800000D01*
X202970000Y-136800000D02*
X202970000Y-137345600D01*
X211450000Y-138380000D02*
X211720000Y-138110000D01*
X201010000Y-136560000D02*
X201550000Y-136560000D01*
X201550000Y-136010000D02*
X201550000Y-136560000D01*
X211720000Y-138110000D02*
X213222500Y-138110000D01*
X202970000Y-137345600D02*
X202765000Y-137550600D01*
D69*
%TO.N,USB_D_N*%
X211458732Y-133428300D02*
X211862032Y-133025000D01*
X212650000Y-132910000D02*
X213222500Y-132910000D01*
X203415000Y-133572500D02*
X201715000Y-133572500D01*
X197270000Y-134030000D02*
X197470000Y-134230000D01*
X201339999Y-133572500D02*
X201715000Y-133572500D01*
X198045000Y-132730000D02*
X198640000Y-132730000D01*
X204639096Y-134000000D02*
X204830000Y-134000000D01*
X198640000Y-132730000D02*
X198778300Y-132868300D01*
X200346268Y-133998300D02*
X200914199Y-133998300D01*
X199216268Y-132868300D02*
X200346268Y-133998300D01*
X211862032Y-133025000D02*
X212535000Y-133025000D01*
X203415000Y-133572500D02*
X204211596Y-133572500D01*
X198045000Y-132730000D02*
X197430000Y-132730000D01*
X197470000Y-134230000D02*
X198045000Y-134230000D01*
X212535000Y-133025000D02*
X212650000Y-132910000D01*
X200914199Y-133998300D02*
X201339999Y-133572500D01*
X203415000Y-133572500D02*
X203464200Y-133523300D01*
X204830000Y-134000000D02*
X205401700Y-133428300D01*
X205401700Y-133428300D02*
X211458732Y-133428300D01*
X197430000Y-132730000D02*
X197270000Y-132890000D01*
X197270000Y-132890000D02*
X197270000Y-134030000D01*
X204211596Y-133572500D02*
X204639096Y-134000000D01*
X198778300Y-132868300D02*
X199216268Y-132868300D01*
D63*
%TO.N,FLT_CHG_ODL*%
X204760000Y-142820000D02*
X204757499Y-142822501D01*
D61*
X203769800Y-143105000D02*
X203764800Y-143110000D01*
D63*
X204423320Y-143105000D02*
X204708320Y-142820000D01*
X203769800Y-143105000D02*
X204423320Y-143105000D01*
X204708320Y-142820000D02*
X204760000Y-142820000D01*
D69*
%TO.N,USB_D_P*%
X198640000Y-133230000D02*
X198778300Y-133091700D01*
X199123732Y-133091700D02*
X200253732Y-134221700D01*
X204202500Y-134647500D02*
X204640000Y-134210000D01*
X205093400Y-134024251D02*
X205465952Y-133651700D01*
X198778300Y-133091700D02*
X199123732Y-133091700D01*
X198045000Y-133230000D02*
X198045000Y-133730000D01*
X204640000Y-134210000D02*
X204907651Y-134210000D01*
X200253732Y-134221700D02*
X200914199Y-134221700D01*
X200914199Y-134221700D02*
X201339999Y-134647500D01*
X201339999Y-134647500D02*
X201715000Y-134647500D01*
X201715000Y-134647500D02*
X203415000Y-134647500D01*
X198045000Y-133230000D02*
X198640000Y-133230000D01*
X203415000Y-134647500D02*
X204202500Y-134647500D01*
X211551268Y-133651700D02*
X211974568Y-133228400D01*
X204907651Y-134210000D02*
X205093400Y-134024251D01*
X212661600Y-133310000D02*
X213222499Y-133310000D01*
X205465952Y-133651700D02*
X211551268Y-133651700D01*
X211974568Y-133228400D02*
X212580000Y-133228400D01*
X212580000Y-133228400D02*
X212661600Y-133310000D01*
D61*
%TO.N,SWD_O*%
X211950000Y-137260000D02*
X210840000Y-137260000D01*
X212680000Y-136110000D02*
X212470000Y-136320000D01*
X206960000Y-136790000D02*
X207170000Y-136580000D01*
X212470000Y-136740000D02*
X211950000Y-137260000D01*
X212470000Y-136320000D02*
X212470000Y-136740000D01*
X213222499Y-136110000D02*
X212680000Y-136110000D01*
X207170000Y-136580000D02*
X207870000Y-136580000D01*
%TO.N,/BLE_MCU/OSC32_IN*%
X212450000Y-142365000D02*
X212510000Y-142425000D01*
X214490000Y-140910000D02*
X214710000Y-140690000D01*
X214255000Y-142425000D02*
X214490000Y-142190000D01*
X214490000Y-142190000D02*
X214490000Y-140910000D01*
X212450000Y-141490000D02*
X212450000Y-142365000D01*
X214710000Y-140690000D02*
X214710000Y-139997500D01*
X212510000Y-142425000D02*
X214255000Y-142425000D01*
D70*
%TO.N,I2C3_SCL*%
X216590000Y-144340000D02*
X217110000Y-143820000D01*
X217150000Y-140037501D02*
X217110000Y-139997501D01*
X214630000Y-146665000D02*
X214630000Y-145965000D01*
X216255000Y-144340000D02*
X216590000Y-144340000D01*
X217110000Y-143820000D02*
X217110000Y-139997501D01*
X214630000Y-145965000D02*
X216255000Y-144340000D01*
%TO.N,I2C3_SDA*%
X218270000Y-141550000D02*
X217510000Y-140790000D01*
X215900000Y-146665000D02*
X215900000Y-145850000D01*
X215900000Y-145850000D02*
X218270000Y-143480000D01*
X218270000Y-143480000D02*
X218270000Y-141550000D01*
X217510000Y-140790000D02*
X217510000Y-139997500D01*
%TO.N,SPI2_DEV_CS_L_PB12*%
X215909999Y-131554999D02*
X215535000Y-131180000D01*
X215885000Y-130440000D02*
X218164000Y-130440000D01*
X215909999Y-132222500D02*
X215909999Y-131554999D01*
X215535000Y-131180000D02*
X215535000Y-130790000D01*
X215535000Y-130790000D02*
X215885000Y-130440000D01*
X218164000Y-130440000D02*
X219710000Y-128894000D01*
%TO.N,SPI2_DEV_DC_PC6*%
X213880000Y-131225000D02*
X214310000Y-131655000D01*
X214630000Y-128894000D02*
X213880000Y-129644000D01*
X213880000Y-129644000D02*
X213880000Y-131225000D01*
X214310000Y-131655000D02*
X214310000Y-132222499D01*
%TO.N,SPI2_DEV_DO_STM_DI_PB14*%
X217170000Y-128895000D02*
X216365000Y-129700000D01*
X216365000Y-129700000D02*
X215535000Y-129700000D01*
X215535000Y-129700000D02*
X215235000Y-130000000D01*
X215110000Y-131595000D02*
X215110000Y-132222500D01*
X214790000Y-130000000D02*
X214590000Y-130200000D01*
X214590000Y-131075000D02*
X215110000Y-131595000D01*
X214590000Y-130200000D02*
X214590000Y-131075000D01*
X215235000Y-130000000D02*
X214790000Y-130000000D01*
X217170000Y-128894000D02*
X217170000Y-128895000D01*
%TO.N,SPI2_CLK_PB13*%
X218440000Y-128894000D02*
X218440000Y-129070000D01*
X215065000Y-131082500D02*
X215510000Y-131527500D01*
X217440000Y-130070000D02*
X215680000Y-130070000D01*
X218440000Y-129070000D02*
X217440000Y-130070000D01*
X215510000Y-131527500D02*
X215510000Y-132222500D01*
X215065000Y-130685000D02*
X215065000Y-131082500D01*
X215680000Y-130070000D02*
X215065000Y-130685000D01*
%TO.N,SPI2_STM_DO_DEV_DI_PB15*%
X214675000Y-129670000D02*
X215124000Y-129670000D01*
X214717000Y-131657000D02*
X214230000Y-131170000D01*
X214230000Y-130115000D02*
X214675000Y-129670000D01*
X214710000Y-132222500D02*
X214717000Y-132215500D01*
X214230000Y-131170000D02*
X214230000Y-130115000D01*
X214717000Y-132215500D02*
X214717000Y-131657000D01*
X215124000Y-129670000D02*
X215900000Y-128894000D01*
D14*
%TO.N,/POWER/CHGR_BAT_THERM*%
X199960000Y-146000000D02*
X203370000Y-146000000D01*
X203764800Y-145605200D02*
X203764800Y-144310000D01*
D61*
X204700000Y-144910000D02*
X203764800Y-144910000D01*
D14*
X203370000Y-146000000D02*
X203764800Y-145605200D01*
D61*
%TO.N,Net-(U8-EN)*%
X204303100Y-132203100D02*
X203916700Y-132203100D01*
X204310000Y-132210000D02*
X204303100Y-132203100D01*
X205030000Y-132210000D02*
X204310000Y-132210000D01*
D65*
%TO.N,/BLE_MCU/STM_RF*%
X220997500Y-134110000D02*
X221980000Y-134110000D01*
D61*
%TO.N,STM_LPUART_TXD_PA2*%
X220459808Y-130960000D02*
X220050122Y-131369686D01*
X220860000Y-140365000D02*
X220492500Y-139997500D01*
X221690000Y-140130000D02*
X221455000Y-140365000D01*
X221080000Y-130960000D02*
X220459808Y-130960000D01*
X224790000Y-128894000D02*
X223829000Y-129855000D01*
X221455000Y-140365000D02*
X220860000Y-140365000D01*
X222185000Y-129855000D02*
X221080000Y-130960000D01*
X220492500Y-139997500D02*
X220310000Y-139997500D01*
X223829000Y-129855000D02*
X222185000Y-129855000D01*
%TO.N,/BLE_MCU/OSC_IN*%
X222900000Y-131480000D02*
X222620000Y-131480000D01*
X222620000Y-131480000D02*
X222330000Y-131770000D01*
X223230000Y-131150000D02*
X222900000Y-131480000D01*
X223740000Y-131150000D02*
X223230000Y-131150000D01*
X222330000Y-131770000D02*
X221530000Y-131770000D01*
X221530000Y-131770000D02*
X221077500Y-132222500D01*
X221077500Y-132222500D02*
X220310000Y-132222500D01*
D70*
%TO.N,STM_SAI1_SCK_A*%
X225840000Y-138885000D02*
X225840000Y-143600000D01*
X225840000Y-143600000D02*
X225140000Y-144300000D01*
X222890000Y-144540000D02*
X221715000Y-145715000D01*
X221715000Y-145715000D02*
X221185000Y-145715000D01*
X224671446Y-137716446D02*
X225840000Y-138885000D01*
X222166446Y-137716446D02*
X224671446Y-137716446D01*
X220980000Y-145920000D02*
X220980000Y-146665000D01*
X221760001Y-137310001D02*
X222166446Y-137716446D01*
X220997500Y-137310001D02*
X221760001Y-137310001D01*
X223740000Y-144540000D02*
X222890000Y-144540000D01*
X221185000Y-145715000D02*
X220980000Y-145920000D01*
X225140000Y-144300000D02*
X223980000Y-144300000D01*
X223980000Y-144300000D02*
X223740000Y-144540000D01*
D61*
%TO.N,STM_WKUP2_PC13*%
X212040000Y-140000000D02*
X211500000Y-140000000D01*
X212090000Y-145660000D02*
X212090000Y-146665000D01*
X214310000Y-139997501D02*
X214310000Y-140560400D01*
X214310000Y-140560400D02*
X214190400Y-140680000D01*
X211190000Y-144760000D02*
X212090000Y-145660000D01*
X211190000Y-140310000D02*
X211190000Y-144760000D01*
X211500000Y-140000000D02*
X211190000Y-140310000D01*
X214190400Y-140680000D02*
X212720000Y-140680000D01*
X212720000Y-140680000D02*
X212040000Y-140000000D01*
%TO.N,STM_LPUART_RXD_PB10*%
X223310000Y-135960000D02*
X222715000Y-135960000D01*
X222065000Y-135310000D02*
X220997500Y-135310000D01*
X222295000Y-130090000D02*
X220815000Y-131570000D01*
X222715000Y-135960000D02*
X222065000Y-135310000D01*
X224864000Y-130090000D02*
X222295000Y-130090000D01*
X226060000Y-128894000D02*
X224864000Y-130090000D01*
%TO.N,/BLE_MCU/OSC_OUT*%
X224830000Y-132370000D02*
X224570000Y-132110000D01*
X224840000Y-132550000D02*
X224840000Y-132488000D01*
X222700000Y-132150000D02*
X221560000Y-132150000D01*
X223210000Y-131620000D02*
X222620000Y-132210000D01*
X221560000Y-132150000D02*
X220997500Y-132712500D01*
X224570000Y-132110000D02*
X224570000Y-131755000D01*
X222620000Y-132210000D02*
X222620000Y-132240000D01*
X220997500Y-132712500D02*
X220997500Y-132910000D01*
X224435000Y-131620000D02*
X223210000Y-131620000D01*
X224840000Y-132653000D02*
X224840000Y-132698400D01*
X224570000Y-131755000D02*
X224435000Y-131620000D01*
D70*
%TO.N,STM_SAI1_SD_A*%
X219505000Y-141655000D02*
X219505000Y-143005000D01*
X218310001Y-140840001D02*
X218785000Y-141315000D01*
X219165000Y-141315000D02*
X219505000Y-141655000D01*
X218915000Y-145365000D02*
X218915000Y-145675000D01*
X221025000Y-143210000D02*
X221025000Y-143690000D01*
X221025000Y-143690000D02*
X220930000Y-143785000D01*
X220930000Y-143785000D02*
X219695000Y-143785000D01*
X218915000Y-145675000D02*
X219085000Y-145845000D01*
X218785000Y-141315000D02*
X219165000Y-141315000D01*
X219085000Y-145845000D02*
X219560000Y-145845000D01*
X219710000Y-145995000D02*
X219710000Y-146665000D01*
X218310001Y-139997500D02*
X218310001Y-140840001D01*
X219595000Y-143095000D02*
X220910000Y-143095000D01*
X219675000Y-144455000D02*
X221165000Y-144455000D01*
X219695000Y-143785000D02*
X219580000Y-143900000D01*
X219560000Y-145845000D02*
X219710000Y-145995000D01*
X221180000Y-145170000D02*
X219110000Y-145170000D01*
X219505000Y-143005000D02*
X219595000Y-143095000D01*
X220910000Y-143095000D02*
X221025000Y-143210000D01*
X221350000Y-145000000D02*
X221180000Y-145170000D01*
X219580000Y-143900000D02*
X219580000Y-144360000D01*
X219580000Y-144360000D02*
X219675000Y-144455000D01*
X219110000Y-145170000D02*
X218915000Y-145365000D01*
X221165000Y-144455000D02*
X221350000Y-144640000D01*
X221350000Y-144640000D02*
X221350000Y-145000000D01*
%TO.N,STM_SAI1_FS_A*%
X225165000Y-144945000D02*
X223400000Y-144945000D01*
X222245000Y-137370000D02*
X224960000Y-137370000D01*
X224960000Y-137370000D02*
X226220000Y-138630000D01*
X222250000Y-146095000D02*
X222250000Y-146665000D01*
X223400000Y-144945000D02*
X222250000Y-146095000D01*
X226220000Y-143890000D02*
X225165000Y-144945000D01*
X226220000Y-138630000D02*
X226220000Y-143890000D01*
X220997500Y-136910000D02*
X221785000Y-136910000D01*
X221785000Y-136910000D02*
X222245000Y-137370000D01*
D14*
%TO.N,Net-(D1-K)*%
X201590000Y-146500000D02*
X201590000Y-146775000D01*
X201485000Y-146880000D02*
X201017500Y-146880000D01*
X201590000Y-146775000D02*
X201485000Y-146880000D01*
D63*
%TO.N,/POWER/CHG_LED_GRN*%
X200450000Y-143510000D02*
X201664800Y-143510000D01*
X200358800Y-143601200D02*
X200450000Y-143510000D01*
D61*
%TO.N,Net-(U5-VOS)*%
X202365000Y-137950600D02*
X202340600Y-137950600D01*
X201695000Y-137495000D02*
X201560000Y-137360000D01*
X201560000Y-137360000D02*
X201560000Y-137030000D01*
X202340600Y-137950600D02*
X201885000Y-137495000D01*
X201885000Y-137495000D02*
X201695000Y-137495000D01*
D70*
%TO.N,/BLE_MCU/QSPI_MEM_D2*%
X223615000Y-140130000D02*
X223890000Y-140405000D01*
X223805000Y-139080000D02*
X223572500Y-139312500D01*
X220997500Y-137710000D02*
X221720000Y-137710000D01*
X224380000Y-140910000D02*
X224380000Y-141980000D01*
X225450000Y-140740000D02*
X225358200Y-140831800D01*
X225160000Y-138970000D02*
X225050000Y-139080000D01*
X224458200Y-140831800D02*
X224380000Y-140910000D01*
X225360000Y-139500000D02*
X225430000Y-139570000D01*
X225430000Y-139830000D02*
X225320000Y-139940000D01*
X223220000Y-138170000D02*
X223310000Y-138080000D01*
X225320000Y-139940000D02*
X223690000Y-139940000D01*
X225015570Y-138695570D02*
X225160000Y-138840000D01*
X224250000Y-138300000D02*
X224080000Y-138470000D01*
X225450000Y-140510000D02*
X225450000Y-140740000D01*
X223572500Y-139432500D02*
X223640000Y-139500000D01*
X224160000Y-138080000D02*
X224250000Y-138170000D01*
X223310000Y-138080000D02*
X224160000Y-138080000D01*
X223890000Y-140405000D02*
X225345000Y-140405000D01*
X225430000Y-139570000D02*
X225430000Y-139830000D01*
X225160000Y-138840000D02*
X225160000Y-138970000D01*
X224080000Y-138628233D02*
X224147337Y-138695570D01*
X223640000Y-139500000D02*
X225360000Y-139500000D01*
X224805000Y-140831800D02*
X224458200Y-140831800D01*
X221720000Y-137710000D02*
X222375000Y-138365000D01*
X223615000Y-140015000D02*
X223615000Y-140130000D01*
X225050000Y-139080000D02*
X223805000Y-139080000D01*
X222375000Y-138365000D02*
X223130000Y-138365000D01*
X224080000Y-138470000D02*
X224080000Y-138628233D01*
X223220000Y-138275000D02*
X223220000Y-138170000D01*
X223690000Y-139940000D02*
X223615000Y-140015000D01*
X223130000Y-138365000D02*
X223220000Y-138275000D01*
X224250000Y-138170000D02*
X224250000Y-138300000D01*
X225345000Y-140405000D02*
X225450000Y-140510000D01*
X223572500Y-139312500D02*
X223572500Y-139432500D01*
X225358200Y-140831800D02*
X224740000Y-140831800D01*
X224147337Y-138695570D02*
X225015570Y-138695570D01*
%TO.N,/BLE_MCU/QSPI_MEM_CLK*%
X222820000Y-140070000D02*
X222300000Y-140070000D01*
X224380000Y-142995000D02*
X224380000Y-142480000D01*
X221540000Y-139310000D02*
X220997500Y-139310000D01*
X222300000Y-140070000D02*
X221540000Y-139310000D01*
X223070000Y-139820000D02*
X222820000Y-140070000D01*
X223800000Y-143580000D02*
X223800000Y-143575000D01*
X223800000Y-143575000D02*
X224380000Y-142995000D01*
%TO.N,/BLE_MCU/QSPI_MEM_CS_L*%
X221630000Y-141275000D02*
X221119177Y-141785823D01*
X222930000Y-142260000D02*
X222930000Y-142390000D01*
X220510000Y-140720000D02*
X220430000Y-140800000D01*
X222789864Y-142119864D02*
X222930000Y-142260000D01*
X221630000Y-140930000D02*
X221630000Y-141275000D01*
X219925000Y-142295000D02*
X221210000Y-141010000D01*
X220020000Y-142615000D02*
X219925000Y-142520000D01*
X221710000Y-140850000D02*
X221630000Y-140930000D01*
X220430000Y-140800000D02*
X220430000Y-141170000D01*
X223380000Y-141980000D02*
X223150000Y-141980000D01*
X221210000Y-141010000D02*
X221210000Y-140810000D01*
X222490000Y-142009876D02*
X222599988Y-142119864D01*
X223340000Y-141148195D02*
X222781805Y-140590000D01*
X223260000Y-141530000D02*
X223340000Y-141450000D01*
X223150000Y-141980000D02*
X223020000Y-141850000D01*
X221015000Y-142615000D02*
X220020000Y-142615000D01*
X223020000Y-141630000D02*
X223120000Y-141530000D01*
X220010000Y-141270000D02*
X219910000Y-141170000D01*
X220330000Y-141270000D02*
X220010000Y-141270000D01*
X222490000Y-140680000D02*
X222490000Y-142009876D01*
X221940000Y-140850000D02*
X221710000Y-140850000D01*
X219925000Y-142520000D02*
X219925000Y-142295000D01*
X220430000Y-141170000D02*
X220330000Y-141270000D01*
X223340000Y-141450000D02*
X223340000Y-141148195D01*
X222075000Y-142635861D02*
X222075000Y-140985000D01*
X222075000Y-140985000D02*
X221940000Y-140850000D01*
X222930000Y-142390000D02*
X222549200Y-142770800D01*
X223120000Y-141530000D02*
X223260000Y-141530000D01*
X221119177Y-142510823D02*
X221015000Y-142615000D01*
X221120000Y-140720000D02*
X220510000Y-140720000D01*
X221119177Y-141785823D02*
X221119177Y-142510823D01*
X222549200Y-142770800D02*
X222209939Y-142770800D01*
X222580000Y-140590000D02*
X222490000Y-140680000D01*
X222209939Y-142770800D02*
X222075000Y-142635861D01*
X219910000Y-141170000D02*
X219910000Y-139997501D01*
X223020000Y-141850000D02*
X223020000Y-141630000D01*
X221210000Y-140810000D02*
X221120000Y-140720000D01*
X222781805Y-140590000D02*
X222580000Y-140590000D01*
X222599988Y-142119864D02*
X222789864Y-142119864D01*
%TO.N,/BLE_MCU/QSPI_MEM_D0*%
X216088200Y-143498200D02*
X216088200Y-141421800D01*
X225000000Y-143080000D02*
X225000000Y-142600000D01*
X225000000Y-142600000D02*
X224880000Y-142480000D01*
X216380000Y-143790000D02*
X216088200Y-143498200D01*
X216088200Y-141421800D02*
X216310000Y-141200000D01*
X216310000Y-141200000D02*
X216310000Y-139997500D01*
%TO.N,/BLE_MCU/QSPI_MEM_D3*%
X222290000Y-138720000D02*
X221680000Y-138110000D01*
X222897262Y-143662738D02*
X223880000Y-142680000D01*
X223540000Y-138720000D02*
X222290000Y-138720000D01*
X221680000Y-138110000D02*
X220997500Y-138110000D01*
X223880000Y-142680000D02*
X223880000Y-142480000D01*
%TO.N,/BLE_MCU/QSPI_MEM_D1*%
X223880000Y-141980000D02*
X223880000Y-141150000D01*
X215650000Y-141330000D02*
X215909999Y-141070001D01*
X223880000Y-141150000D02*
X223840000Y-141110000D01*
X215650000Y-143240000D02*
X215650000Y-141330000D01*
X215909999Y-141070001D02*
X215909999Y-139997500D01*
D61*
%TO.N,STM_BOOT0*%
X215160000Y-141280000D02*
X215510000Y-140930000D01*
X214650000Y-145080000D02*
X214650000Y-144780000D01*
X213360000Y-145930000D02*
X213910000Y-145380000D01*
X215160000Y-144270000D02*
X215160000Y-141280000D01*
X213360000Y-146665000D02*
X213360000Y-145930000D01*
X214650000Y-144780000D02*
X215160000Y-144270000D01*
X214350000Y-145380000D02*
X214650000Y-145080000D01*
X213910000Y-145380000D02*
X214350000Y-145380000D01*
X215510000Y-140930000D02*
X215510000Y-139997500D01*
%TO.N,PPVAR_ADC*%
X219110000Y-140860000D02*
X219100000Y-140870000D01*
D62*
X218930000Y-143495001D02*
X218930000Y-141760000D01*
D14*
X219110000Y-139997500D02*
X219110000Y-140860000D01*
D61*
%TO.N,GPIO_PC10*%
X212580000Y-135310000D02*
X213222500Y-135310000D01*
X211060000Y-136140000D02*
X211750000Y-136140000D01*
X212090000Y-131200000D02*
X210685000Y-132605000D01*
X211750000Y-136140000D02*
X212580000Y-135310000D01*
X212090000Y-128894000D02*
X212090000Y-131200000D01*
%TO.N,GPIO_PA15*%
X213222500Y-134909999D02*
X211500001Y-134909999D01*
X211500001Y-134909999D02*
X211220000Y-135190000D01*
X213360000Y-130859998D02*
X211445000Y-132774998D01*
X213360000Y-128894000D02*
X213360000Y-130859998D01*
%TO.N,GPIO_PC11*%
X212080000Y-136450000D02*
X212080000Y-136310000D01*
X210820000Y-131535000D02*
X210040000Y-132315000D01*
X212080000Y-136310000D02*
X212680000Y-135710000D01*
X212680000Y-135710000D02*
X213222500Y-135710000D01*
X210040000Y-132560000D02*
X209760000Y-132840000D01*
X210820000Y-128894000D02*
X210820000Y-131535000D01*
X210040000Y-132315000D02*
X210040000Y-132560000D01*
X211740000Y-136790000D02*
X212080000Y-136450000D01*
%TO.N,GPIO_PB0*%
X219110000Y-132222500D02*
X219110000Y-131620000D01*
X220870000Y-130700000D02*
X221980000Y-129590000D01*
X221980000Y-129590000D02*
X222824000Y-129590000D01*
X222824000Y-129590000D02*
X223520000Y-128894000D01*
X220030000Y-130700000D02*
X220870000Y-130700000D01*
X219110000Y-131620000D02*
X220030000Y-130700000D01*
%TO.N,GPIO_PB1*%
X218710000Y-131550000D02*
X219870000Y-130390000D01*
X219870000Y-130390000D02*
X220754000Y-130390000D01*
X218710000Y-132222500D02*
X218710000Y-131550000D01*
X220754000Y-130390000D02*
X222250000Y-128894000D01*
%TO.N,/BLE_MCU/BT_CONN_LED*%
X210570000Y-139980000D02*
X212040000Y-138510000D01*
X210300000Y-144030000D02*
X210570000Y-143760000D01*
X212040000Y-138510000D02*
X213222500Y-138510000D01*
X210570000Y-143760000D02*
X210570000Y-139980000D01*
%TO.N,Net-(J5-CC2)*%
X197190000Y-134710000D02*
X197207000Y-134727000D01*
X197207000Y-134727000D02*
X198503000Y-134727000D01*
%TO.N,Net-(J5-CC1)*%
X197190000Y-131730000D02*
X197193000Y-131727000D01*
X197193000Y-131727000D02*
X198503000Y-131727000D01*
D14*
%TO.N,Net-(D5-K)*%
X204330000Y-146320000D02*
X203795000Y-146855000D01*
X203795000Y-146855000D02*
X203795000Y-146860000D01*
D61*
%TO.N,/BLE_MCU/FLT_CHG_OD*%
X210540000Y-138490000D02*
X210540000Y-138416532D01*
X210110000Y-142010000D02*
X210250000Y-141870000D01*
X210540000Y-138416532D02*
X211246532Y-137710000D01*
X211246532Y-137710000D02*
X213222500Y-137710000D01*
X210250000Y-141870000D02*
X210250000Y-138780000D01*
X210250000Y-138780000D02*
X210540000Y-138490000D01*
D63*
%TO.N,ADC1_IN13*%
X222120000Y-136510000D02*
X220997500Y-136510000D01*
X222480000Y-136870000D02*
X222120000Y-136510000D01*
X224790000Y-146075000D02*
X224790000Y-146665000D01*
X225225000Y-145640000D02*
X224790000Y-146075000D01*
%TO.N,ADC1_IN14*%
X226060000Y-145815000D02*
X226060000Y-146665000D01*
X222746000Y-136441000D02*
X223611000Y-136441000D01*
X223611000Y-136441000D02*
X223970000Y-136800000D01*
X220997501Y-136110000D02*
X222415000Y-136110000D01*
X222415000Y-136110000D02*
X222746000Y-136441000D01*
X226080000Y-145795000D02*
X226060000Y-145815000D01*
D61*
%TO.N,unconnected-(U1-PA0-Pad15)*%
X219510000Y-139997500D02*
X219568024Y-140055524D01*
D14*
%TO.N,Net-(D4-K)*%
X205600000Y-146860000D02*
X205055014Y-146315014D01*
X205605000Y-146860000D02*
X205600000Y-146860000D01*
D61*
%TO.N,Net-(J2-Pin_8)*%
X217170000Y-146300000D02*
X217170000Y-146665000D01*
D62*
X218034039Y-144514999D02*
X218930000Y-144514999D01*
X217170000Y-145379038D02*
X218034039Y-144514999D01*
X217170000Y-146665000D02*
X217170000Y-145379038D01*
%TD*%
%TA.AperFunction,Conductor*%
%TO.N,VBUS*%
G36*
X200918039Y-135389685D02*
G01*
X200963794Y-135442489D01*
X200975000Y-135494000D01*
X200975000Y-136077277D01*
X200955315Y-136144316D01*
X200902511Y-136190071D01*
X200892305Y-136194044D01*
X200801039Y-136240547D01*
X200745113Y-136254061D01*
X199656353Y-136257292D01*
X199599691Y-136243778D01*
X199568987Y-136228133D01*
X199534131Y-136210373D01*
X199415402Y-136191569D01*
X199415399Y-136191569D01*
X199396421Y-136194575D01*
X199343398Y-136202973D01*
X199324002Y-136204500D01*
X198916869Y-136204500D01*
X198849830Y-136184815D01*
X198804075Y-136132011D01*
X198792869Y-136080377D01*
X198793449Y-135493877D01*
X198813200Y-135426857D01*
X198866049Y-135381155D01*
X198917449Y-135370000D01*
X200851000Y-135370000D01*
X200918039Y-135389685D01*
G37*
%TD.AperFunction*%
%TD*%
%TA.AperFunction,Conductor*%
%TO.N,VBUS*%
G36*
X203571186Y-130010019D02*
G01*
X204369375Y-130023233D01*
X204436079Y-130044025D01*
X204480954Y-130097579D01*
X204491258Y-130151212D01*
X204482270Y-130429996D01*
X204460435Y-130496366D01*
X204406184Y-130540396D01*
X204358334Y-130550000D01*
X203230000Y-130550000D01*
X202986564Y-130802130D01*
X202925837Y-130836685D01*
X202897358Y-130840000D01*
X200510000Y-130840000D01*
X200500000Y-130280000D01*
X200810000Y-130020000D01*
X203568797Y-130010004D01*
X203571186Y-130010019D01*
G37*
%TD.AperFunction*%
%TD*%
%TA.AperFunction,Conductor*%
%TO.N,Net-(U5-SW)*%
G36*
X205783771Y-138360829D02*
G01*
X205790800Y-138377800D01*
X205790800Y-139168000D01*
X205783771Y-139184971D01*
X205766800Y-139192000D01*
X203286659Y-139192000D01*
X203269688Y-139184971D01*
X203269079Y-139184338D01*
X202945712Y-138836400D01*
X202766800Y-138836400D01*
X202749829Y-138829371D01*
X202742800Y-138812400D01*
X202742800Y-138682600D01*
X202749829Y-138665629D01*
X202766800Y-138658600D01*
X202947952Y-138658600D01*
X202947953Y-138658600D01*
X203035729Y-138577093D01*
X203082663Y-138533513D01*
X203098994Y-138527100D01*
X203214510Y-138527100D01*
X203242694Y-138515425D01*
X203242871Y-138515852D01*
X203259419Y-138514996D01*
X203259470Y-138514841D01*
X203259875Y-138514972D01*
X203259926Y-138514970D01*
X203260106Y-138515047D01*
X203261264Y-138515424D01*
X203261266Y-138515425D01*
X203380000Y-138534231D01*
X203498734Y-138515425D01*
X203605845Y-138460849D01*
X203690849Y-138375845D01*
X203695405Y-138366902D01*
X203709374Y-138354974D01*
X203716789Y-138353800D01*
X205766800Y-138353800D01*
X205783771Y-138360829D01*
G37*
%TD.AperFunction*%
%TD*%
%TA.AperFunction,Conductor*%
%TO.N,GND*%
G36*
X225605007Y-137397263D02*
G01*
X225597059Y-137389440D01*
X225596387Y-137388766D01*
X225169321Y-136951092D01*
X225168893Y-136951091D01*
X224387739Y-136950384D01*
X224353103Y-136936001D01*
X224338783Y-136901340D01*
X224339384Y-136893733D01*
X224354231Y-136800000D01*
X224335425Y-136681266D01*
X224319036Y-136649101D01*
X224316093Y-136611714D01*
X224340449Y-136583196D01*
X224362695Y-136577855D01*
X224944792Y-136577855D01*
X224944914Y-135541693D01*
X224959270Y-135507048D01*
X224993914Y-135492700D01*
X225358766Y-135492700D01*
X225362614Y-135491669D01*
X225375295Y-135490000D01*
X225646350Y-135490000D01*
X225605007Y-137397263D01*
G37*
%TD.AperFunction*%
%TA.AperFunction,Conductor*%
G36*
X222626238Y-134525150D02*
G01*
X222810050Y-134539616D01*
X222817636Y-134540818D01*
X222914840Y-134564155D01*
X222999257Y-134584422D01*
X223006569Y-134586798D01*
X223029377Y-134596245D01*
X223179135Y-134658276D01*
X223185975Y-134661761D01*
X223345234Y-134759355D01*
X223351445Y-134763866D01*
X223494922Y-134886406D01*
X223497728Y-134889000D01*
X223536335Y-134927606D01*
X223536557Y-134927727D01*
X223547726Y-134936087D01*
X223798787Y-135187149D01*
X223798791Y-135187151D01*
X223798792Y-135187152D01*
X223809953Y-135193596D01*
X223819650Y-135200937D01*
X223841518Y-135222251D01*
X223973070Y-135320433D01*
X224116391Y-135400460D01*
X224204056Y-135435206D01*
X224230977Y-135461313D01*
X224235000Y-135480757D01*
X224235000Y-136429140D01*
X224220648Y-136463788D01*
X224186000Y-136478140D01*
X224163755Y-136472799D01*
X224088738Y-136434576D01*
X224088735Y-136434575D01*
X224088734Y-136434575D01*
X223970000Y-136415769D01*
X223969999Y-136415769D01*
X223877222Y-136430463D01*
X223840755Y-136421708D01*
X223834909Y-136416714D01*
X223710415Y-136292219D01*
X223705096Y-136290016D01*
X223645909Y-136265500D01*
X223641450Y-136263653D01*
X223642207Y-136261823D01*
X223617291Y-136245169D01*
X223609980Y-136208385D01*
X223619889Y-136189908D01*
X223618585Y-136188960D01*
X223620845Y-136185848D01*
X223620849Y-136185845D01*
X223658730Y-136111500D01*
X223675423Y-136078739D01*
X223675423Y-136078737D01*
X223675425Y-136078734D01*
X223694231Y-135960000D01*
X223675425Y-135841266D01*
X223675423Y-135841262D01*
X223675423Y-135841260D01*
X223620853Y-135734161D01*
X223620848Y-135734154D01*
X223535845Y-135649151D01*
X223535838Y-135649146D01*
X223428738Y-135594576D01*
X223428735Y-135594575D01*
X223428734Y-135594575D01*
X223310000Y-135575769D01*
X223191266Y-135594575D01*
X223191264Y-135594575D01*
X223191262Y-135594576D01*
X223191260Y-135594576D01*
X223084161Y-135649146D01*
X223084154Y-135649151D01*
X222999154Y-135734151D01*
X222999149Y-135734157D01*
X222974902Y-135781746D01*
X222946385Y-135806102D01*
X222931243Y-135808500D01*
X222841862Y-135808500D01*
X222807214Y-135794148D01*
X222807183Y-135794117D01*
X222180057Y-135165870D01*
X222165736Y-135131209D01*
X222180087Y-135096606D01*
X222260849Y-135015845D01*
X222260853Y-135015838D01*
X222315423Y-134908739D01*
X222315423Y-134908737D01*
X222315425Y-134908734D01*
X222334231Y-134790000D01*
X222315425Y-134671266D01*
X222315423Y-134671262D01*
X222315423Y-134671260D01*
X222277201Y-134596245D01*
X222274258Y-134558858D01*
X222298615Y-134530341D01*
X222320860Y-134525000D01*
X222622395Y-134525000D01*
X222626238Y-134525150D01*
G37*
%TD.AperFunction*%
%TA.AperFunction,Conductor*%
G36*
X223370648Y-133029352D02*
G01*
X223385000Y-133064000D01*
X223385000Y-133435000D01*
X224100000Y-133435000D01*
X224100000Y-133064000D01*
X224114352Y-133029352D01*
X224149000Y-133015000D01*
X225603942Y-133015000D01*
X225700000Y-133015000D01*
X225663258Y-134710000D01*
X225375295Y-134710000D01*
X225362614Y-134708331D01*
X225358766Y-134707300D01*
X225358765Y-134707300D01*
X224513711Y-134707300D01*
X224497675Y-134704602D01*
X224467624Y-134694194D01*
X224459771Y-134690674D01*
X224397178Y-134655723D01*
X224390062Y-134650884D01*
X224332989Y-134604247D01*
X224329777Y-134601378D01*
X224290799Y-134563353D01*
X224290796Y-134563350D01*
X224290794Y-134563349D01*
X224290793Y-134563348D01*
X224286469Y-134561056D01*
X224274773Y-134552412D01*
X224015215Y-134292852D01*
X224015214Y-134292851D01*
X224013917Y-134292102D01*
X224003775Y-134284319D01*
X223971368Y-134251912D01*
X223896240Y-134192000D01*
X223793557Y-134110114D01*
X223600991Y-133989118D01*
X223396089Y-133890443D01*
X223181428Y-133815330D01*
X223181427Y-133815329D01*
X223181426Y-133815329D01*
X223075824Y-133791227D01*
X222959706Y-133764724D01*
X222959700Y-133764723D01*
X222959699Y-133764723D01*
X222733713Y-133739260D01*
X222733712Y-133739260D01*
X222620000Y-133739260D01*
X222563538Y-133739260D01*
X222563535Y-133739260D01*
X222561866Y-133739501D01*
X222554889Y-133740000D01*
X221774000Y-133740000D01*
X221739352Y-133725648D01*
X221725000Y-133691000D01*
X221725000Y-133513845D01*
X221739351Y-133479198D01*
X221934108Y-133284441D01*
X221968749Y-133270092D01*
X223004224Y-133270536D01*
X223004689Y-133117142D01*
X223004852Y-133063851D01*
X223019309Y-133029247D01*
X223053852Y-133015000D01*
X223336000Y-133015000D01*
X223370648Y-133029352D01*
G37*
%TD.AperFunction*%
%TD*%
%TA.AperFunction,Conductor*%
%TO.N,GND*%
G36*
X225917630Y-135492520D02*
G01*
X225918300Y-135492700D01*
X226286000Y-135492700D01*
X226338326Y-135514374D01*
X226360000Y-135566700D01*
X226360000Y-136569866D01*
X227065000Y-136569866D01*
X227065000Y-135567500D01*
X227086674Y-135515174D01*
X227139000Y-135493500D01*
X227391000Y-135493500D01*
X227443326Y-135515174D01*
X227465000Y-135567500D01*
X227465000Y-135780932D01*
X227459559Y-135803075D01*
X227461090Y-135803525D01*
X227438400Y-135880797D01*
X227438400Y-136350799D01*
X227450148Y-136404804D01*
X227498116Y-136460163D01*
X227568398Y-136480800D01*
X228318399Y-136480800D01*
X228372404Y-136469051D01*
X228427763Y-136421083D01*
X228427763Y-136421082D01*
X228448400Y-136350802D01*
X228448400Y-136304800D01*
X228470074Y-136252474D01*
X228522400Y-136230800D01*
X229014400Y-136230800D01*
X229066726Y-136252474D01*
X229088400Y-136304800D01*
X229088400Y-136350799D01*
X229100148Y-136404804D01*
X229148116Y-136460163D01*
X229218398Y-136480800D01*
X229968399Y-136480800D01*
X230022404Y-136469051D01*
X230077763Y-136421083D01*
X230077763Y-136421082D01*
X230098400Y-136350802D01*
X230098400Y-135680800D01*
X230098399Y-135680798D01*
X230091691Y-135649958D01*
X230090000Y-135634229D01*
X230090000Y-135569000D01*
X230111674Y-135516674D01*
X230164000Y-135495000D01*
X231586798Y-135495000D01*
X231639124Y-135516674D01*
X231660798Y-135569000D01*
X231660798Y-147199500D01*
X231639124Y-147251826D01*
X231586798Y-147273500D01*
X226998602Y-147273500D01*
X226946276Y-147251826D01*
X226924602Y-147199754D01*
X226924140Y-147065431D01*
X226920866Y-146112679D01*
X226604137Y-145562129D01*
X226594280Y-145525234D01*
X226593683Y-138370448D01*
X226593682Y-138370446D01*
X225605007Y-137397262D01*
X225646350Y-135490000D01*
X225898481Y-135490000D01*
X225917630Y-135492520D01*
G37*
%TD.AperFunction*%
%TA.AperFunction,Conductor*%
G36*
X228969808Y-128317133D02*
G01*
X229041916Y-128326626D01*
X229060574Y-128331626D01*
X229123250Y-128357587D01*
X229139974Y-128367242D01*
X229193798Y-128408542D01*
X229207456Y-128422200D01*
X229248755Y-128476023D01*
X229258412Y-128492749D01*
X229284373Y-128555425D01*
X229289373Y-128574083D01*
X229298867Y-128646190D01*
X229299500Y-128655850D01*
X229299500Y-131310849D01*
X229327924Y-131472049D01*
X229383911Y-131625869D01*
X229465750Y-131767621D01*
X229465754Y-131767627D01*
X229465756Y-131767630D01*
X229570975Y-131893025D01*
X229696370Y-131998244D01*
X229696374Y-131998246D01*
X229696378Y-131998249D01*
X229763602Y-132037060D01*
X229838131Y-132080089D01*
X229991950Y-132136075D01*
X230153154Y-132164500D01*
X230153158Y-132164500D01*
X231586798Y-132164500D01*
X231639124Y-132186174D01*
X231660798Y-132238500D01*
X231660798Y-134634072D01*
X231639124Y-134686398D01*
X231586798Y-134708072D01*
X231412422Y-134708072D01*
X231402764Y-134707439D01*
X231401701Y-134707299D01*
X231401700Y-134707299D01*
X231298300Y-134707299D01*
X231298299Y-134707299D01*
X231297236Y-134707439D01*
X231287578Y-134708072D01*
X230164000Y-134708072D01*
X230111674Y-134686398D01*
X230090000Y-134634072D01*
X230090000Y-134560045D01*
X230092998Y-134539196D01*
X230098400Y-134520798D01*
X230098400Y-133850800D01*
X230086651Y-133796795D01*
X230038683Y-133741436D01*
X229968402Y-133720800D01*
X229218401Y-133720800D01*
X229164395Y-133732548D01*
X229109036Y-133780516D01*
X229109036Y-133780517D01*
X229088400Y-133850797D01*
X229088400Y-133896800D01*
X229066726Y-133949126D01*
X229014400Y-133970800D01*
X228522400Y-133970800D01*
X228470074Y-133949126D01*
X228448400Y-133896800D01*
X228448400Y-133850800D01*
X228436651Y-133796795D01*
X228388683Y-133741436D01*
X228318402Y-133720800D01*
X227568401Y-133720800D01*
X227514395Y-133732548D01*
X227459036Y-133780516D01*
X227459036Y-133780517D01*
X227438400Y-133850797D01*
X227438400Y-134320800D01*
X227441370Y-134348431D01*
X227441371Y-134348433D01*
X227455948Y-134375128D01*
X227465000Y-134410593D01*
X227465000Y-134634100D01*
X227443326Y-134686426D01*
X227391000Y-134708100D01*
X226781036Y-134708100D01*
X226771378Y-134707467D01*
X226770102Y-134707299D01*
X226770100Y-134707299D01*
X226666700Y-134707299D01*
X226662170Y-134707299D01*
X226662154Y-134707300D01*
X225918300Y-134707300D01*
X225917630Y-134707479D01*
X225898481Y-134710000D01*
X225663258Y-134710000D01*
X225700000Y-133015000D01*
X225603942Y-133015000D01*
X225608739Y-133010204D01*
X225609568Y-133006042D01*
X225610000Y-133004999D01*
X225610000Y-130674000D01*
X225631674Y-130621674D01*
X225684000Y-130600000D01*
X225850000Y-130600000D01*
X225850000Y-130460000D01*
X227484353Y-130460000D01*
X227504834Y-130602454D01*
X227504834Y-130602455D01*
X227504835Y-130602457D01*
X227537508Y-130674000D01*
X227564623Y-130733373D01*
X227658868Y-130842139D01*
X227658869Y-130842140D01*
X227658872Y-130842143D01*
X227779947Y-130919953D01*
X227886403Y-130951211D01*
X227918035Y-130960499D01*
X227918037Y-130960500D01*
X227918039Y-130960500D01*
X228061963Y-130960500D01*
X228061964Y-130960499D01*
X228200053Y-130919953D01*
X228321128Y-130842143D01*
X228415377Y-130733373D01*
X228475165Y-130602457D01*
X228495647Y-130460000D01*
X228475165Y-130317543D01*
X228415377Y-130186627D01*
X228321128Y-130077857D01*
X228264182Y-130041260D01*
X228200054Y-130000047D01*
X228200050Y-130000046D01*
X228061964Y-129959500D01*
X228061961Y-129959500D01*
X227918039Y-129959500D01*
X227918036Y-129959500D01*
X227779949Y-130000046D01*
X227779945Y-130000047D01*
X227658875Y-130077855D01*
X227658868Y-130077860D01*
X227564623Y-130186626D01*
X227504834Y-130317545D01*
X227484353Y-130460000D01*
X225850000Y-130460000D01*
X225850000Y-129872293D01*
X225871674Y-129819967D01*
X225896915Y-129803428D01*
X226893101Y-129411654D01*
X226896132Y-128651000D01*
X226897171Y-128390204D01*
X226919053Y-128337966D01*
X226971170Y-128316500D01*
X228917405Y-128316500D01*
X228960149Y-128316500D01*
X228969808Y-128317133D01*
G37*
%TD.AperFunction*%
%TD*%
%TA.AperFunction,Conductor*%
%TO.N,VBUS*%
G36*
X200948694Y-129239685D02*
G01*
X200965587Y-129252724D01*
X201763783Y-129986697D01*
X201796114Y-130016427D01*
X200810000Y-130020000D01*
X200500000Y-130280000D01*
X200510000Y-130840000D01*
X201800000Y-130840000D01*
X201386264Y-131287511D01*
X201346817Y-131330178D01*
X201286853Y-131366040D01*
X201255767Y-131370000D01*
X200520000Y-131370000D01*
X200333492Y-131514119D01*
X200268410Y-131539534D01*
X200257674Y-131540000D01*
X198889550Y-131540000D01*
X198822511Y-131520315D01*
X198799401Y-131501142D01*
X198666100Y-131360000D01*
X197984000Y-131360000D01*
X197916961Y-131340315D01*
X197871206Y-131287511D01*
X197860000Y-131236000D01*
X197860000Y-131034000D01*
X197879685Y-130966961D01*
X197932489Y-130921206D01*
X197984000Y-130910000D01*
X198707450Y-130910000D01*
X198783879Y-130806047D01*
X198839450Y-130763696D01*
X198883783Y-130755500D01*
X199313364Y-130755500D01*
X199319859Y-130755500D01*
X199339258Y-130757027D01*
X199365799Y-130761231D01*
X199365800Y-130761231D01*
X199365801Y-130761231D01*
X199392342Y-130757027D01*
X199411741Y-130755500D01*
X199412235Y-130755500D01*
X199412236Y-130755500D01*
X199420773Y-130753211D01*
X199433467Y-130750512D01*
X199484534Y-130742425D01*
X199591645Y-130687849D01*
X199676649Y-130602845D01*
X199731225Y-130495734D01*
X199731225Y-130495732D01*
X199731226Y-130495731D01*
X199750031Y-130377002D01*
X199750031Y-130376997D01*
X199731226Y-130258268D01*
X199731225Y-130258266D01*
X199676649Y-130151155D01*
X199676645Y-130151151D01*
X199676644Y-130151149D01*
X199591650Y-130066155D01*
X199591646Y-130066152D01*
X199591645Y-130066151D01*
X199590363Y-130065497D01*
X199529866Y-130034672D01*
X199479070Y-129986697D01*
X199462276Y-129918876D01*
X199484814Y-129852741D01*
X199486187Y-129850834D01*
X199912836Y-129270547D01*
X199968407Y-129228196D01*
X200012739Y-129220000D01*
X200881655Y-129220000D01*
X200948694Y-129239685D01*
G37*
%TD.AperFunction*%
%TD*%
%TA.AperFunction,Conductor*%
%TO.N,GND*%
G36*
X203282829Y-140818829D02*
G01*
X203517771Y-141053771D01*
X203524800Y-141070742D01*
X203524800Y-142073858D01*
X203517771Y-142090828D01*
X203403200Y-142205399D01*
X203403200Y-142578679D01*
X203400013Y-142589185D01*
X203400387Y-142589340D01*
X203399482Y-142591522D01*
X203389300Y-142642711D01*
X203389300Y-142777288D01*
X203399482Y-142828474D01*
X203400387Y-142830658D01*
X203400010Y-142830813D01*
X203403200Y-142841319D01*
X203403200Y-142978679D01*
X203400013Y-142989185D01*
X203400387Y-142989340D01*
X203399482Y-142991522D01*
X203389300Y-143042711D01*
X203389300Y-143177288D01*
X203399482Y-143228474D01*
X203400387Y-143230658D01*
X203400010Y-143230813D01*
X203403200Y-143241319D01*
X203403200Y-143378679D01*
X203400013Y-143389185D01*
X203400387Y-143389340D01*
X203399482Y-143391522D01*
X203389300Y-143442711D01*
X203389300Y-143577288D01*
X203399482Y-143628474D01*
X203400387Y-143630658D01*
X203400010Y-143630813D01*
X203403200Y-143641319D01*
X203403200Y-143778679D01*
X203400013Y-143789185D01*
X203400387Y-143789340D01*
X203399482Y-143791522D01*
X203389300Y-143842711D01*
X203389300Y-143977288D01*
X203399482Y-144028474D01*
X203400387Y-144030658D01*
X203400010Y-144030813D01*
X203403200Y-144041319D01*
X203403200Y-144178679D01*
X203400013Y-144189185D01*
X203400387Y-144189340D01*
X203399482Y-144191522D01*
X203389300Y-144242711D01*
X203389300Y-144377288D01*
X203399482Y-144428474D01*
X203400387Y-144430658D01*
X203400010Y-144430813D01*
X203403200Y-144441319D01*
X203403200Y-145637953D01*
X203396171Y-145654924D01*
X203283624Y-145767471D01*
X203266653Y-145774500D01*
X200281135Y-145774500D01*
X200264165Y-145767471D01*
X200185845Y-145689151D01*
X200185842Y-145689149D01*
X200185841Y-145689148D01*
X200078737Y-145634576D01*
X200078735Y-145634575D01*
X200078734Y-145634575D01*
X199960000Y-145615769D01*
X199841266Y-145634575D01*
X199841264Y-145634575D01*
X199841262Y-145634576D01*
X199734158Y-145689148D01*
X199649148Y-145774158D01*
X199594576Y-145881262D01*
X199594575Y-145881264D01*
X199594575Y-145881266D01*
X199575769Y-146000000D01*
X199594575Y-146118734D01*
X199594575Y-146118735D01*
X199594576Y-146118737D01*
X199649148Y-146225841D01*
X199649149Y-146225842D01*
X199649151Y-146225845D01*
X199734155Y-146310849D01*
X199734157Y-146310850D01*
X199734158Y-146310851D01*
X199765883Y-146327016D01*
X199777812Y-146340984D01*
X199776371Y-146359296D01*
X199762403Y-146371225D01*
X199754987Y-146372400D01*
X196725142Y-146372400D01*
X196708171Y-146365371D01*
X196298229Y-145955429D01*
X196291200Y-145938458D01*
X196291200Y-145043942D01*
X196298229Y-145026971D01*
X196792171Y-144533029D01*
X196809142Y-144526000D01*
X200539364Y-144526000D01*
X200556334Y-144533029D01*
X200624156Y-144600850D01*
X200624155Y-144600850D01*
X200731262Y-144655423D01*
X200731266Y-144655425D01*
X200850000Y-144674231D01*
X200968734Y-144655425D01*
X201075845Y-144600849D01*
X201109754Y-144566939D01*
X201143666Y-144533029D01*
X201160636Y-144526000D01*
X201955398Y-144526000D01*
X201955400Y-144526000D01*
X202057000Y-144424400D01*
X202057000Y-142246600D01*
X201905829Y-142095429D01*
X201898800Y-142078458D01*
X201898800Y-141096542D01*
X201905829Y-141079571D01*
X202166571Y-140818829D01*
X202183542Y-140811800D01*
X203265858Y-140811800D01*
X203282829Y-140818829D01*
G37*
%TD.AperFunction*%
%TD*%
%TA.AperFunction,Conductor*%
%TO.N,PPVAR_BAT*%
G36*
X199651029Y-140570629D02*
G01*
X200385971Y-141305571D01*
X200393000Y-141322542D01*
X200393000Y-142096842D01*
X201384600Y-143027400D01*
X201753600Y-143027400D01*
X201770571Y-143034429D01*
X201777600Y-143051400D01*
X201777600Y-143165800D01*
X201770571Y-143182771D01*
X201753600Y-143189800D01*
X201396600Y-143189800D01*
X201283928Y-143302471D01*
X201266958Y-143309500D01*
X200613736Y-143309500D01*
X200596766Y-143302471D01*
X200584644Y-143290350D01*
X200584644Y-143290349D01*
X200477537Y-143235776D01*
X200477535Y-143235775D01*
X200477534Y-143235775D01*
X200358800Y-143216969D01*
X200240066Y-143235775D01*
X200240064Y-143235775D01*
X200240062Y-143235776D01*
X200132955Y-143290349D01*
X200132955Y-143290350D01*
X200118934Y-143304371D01*
X200101964Y-143311400D01*
X199277542Y-143311400D01*
X199260571Y-143304371D01*
X198983599Y-143027399D01*
X198501000Y-142544800D01*
X198500999Y-142544800D01*
X196250342Y-142544800D01*
X196233371Y-142537771D01*
X196069629Y-142374029D01*
X196062600Y-142357058D01*
X196062600Y-140929142D01*
X196069629Y-140912171D01*
X196411171Y-140570629D01*
X196428142Y-140563600D01*
X199634058Y-140563600D01*
X199651029Y-140570629D01*
G37*
%TD.AperFunction*%
%TD*%
%TA.AperFunction,Conductor*%
%TO.N,GND*%
G36*
X199512229Y-137040029D02*
G01*
X199801909Y-137329709D01*
X199808937Y-137346480D01*
X199816893Y-138299999D01*
X199816893Y-138299998D01*
X199816894Y-138300000D01*
X201280000Y-138297600D01*
X201604539Y-138122938D01*
X201616202Y-138120075D01*
X201939225Y-138124000D01*
X201952483Y-138128191D01*
X202118786Y-138242015D01*
X202170776Y-138277599D01*
X202170777Y-138277599D01*
X202170778Y-138277600D01*
X202388600Y-138277600D01*
X202405571Y-138284629D01*
X202412600Y-138301600D01*
X202412600Y-138394658D01*
X202405571Y-138411629D01*
X202399229Y-138417971D01*
X202382258Y-138425000D01*
X202220438Y-138425000D01*
X200848985Y-139698866D01*
X200839240Y-139704359D01*
X199952593Y-139957478D01*
X199946005Y-139958400D01*
X198524299Y-139958400D01*
X198507624Y-139951661D01*
X196755725Y-138259276D01*
X196748404Y-138242430D01*
X196748400Y-138242015D01*
X196748400Y-137423942D01*
X196755429Y-137406971D01*
X196995871Y-137166529D01*
X197012842Y-137159500D01*
X197018000Y-137159500D01*
X197018001Y-137159500D01*
X197159029Y-137121712D01*
X197285471Y-137048711D01*
X197289813Y-137044369D01*
X197294154Y-137040029D01*
X197311124Y-137033000D01*
X199495258Y-137033000D01*
X199512229Y-137040029D01*
G37*
%TD.AperFunction*%
%TD*%
%TA.AperFunction,Conductor*%
%TO.N,Net-(U5-VOS)*%
G36*
X204161477Y-135562516D02*
G01*
X204161494Y-135562533D01*
X204179050Y-135580088D01*
X204189437Y-135590475D01*
X204275063Y-135639911D01*
X204370564Y-135665500D01*
X204370565Y-135665500D01*
X204665123Y-135665500D01*
X204682094Y-135672529D01*
X204685075Y-135676163D01*
X204688585Y-135681415D01*
X204700627Y-135689461D01*
X204776406Y-135740095D01*
X204791811Y-135743159D01*
X204853853Y-135755500D01*
X205186146Y-135755499D01*
X205263593Y-135740095D01*
X205272728Y-135733990D01*
X205290739Y-135730407D01*
X205306013Y-135740610D01*
X205310059Y-135753948D01*
X205310000Y-136590000D01*
X205782589Y-137002827D01*
X205790746Y-137019286D01*
X205790800Y-137020902D01*
X205790800Y-137593200D01*
X205783771Y-137610171D01*
X205766800Y-137617200D01*
X203692884Y-137617200D01*
X203675913Y-137610171D01*
X203668884Y-137593316D01*
X203659116Y-135580088D01*
X203666063Y-135563087D01*
X203682998Y-135555975D01*
X204144501Y-135555504D01*
X204161477Y-135562516D01*
G37*
%TD.AperFunction*%
%TD*%
%TA.AperFunction,Conductor*%
%TO.N,PP1800_ALW*%
G36*
X206722971Y-133877029D02*
G01*
X206730000Y-133894000D01*
X206730000Y-135639525D01*
X206722971Y-135656496D01*
X206709757Y-135663229D01*
X206701269Y-135664574D01*
X206701262Y-135664576D01*
X206594158Y-135719148D01*
X206509148Y-135804158D01*
X206454576Y-135911262D01*
X206454575Y-135911264D01*
X206454575Y-135911266D01*
X206435769Y-136030000D01*
X206454575Y-136148734D01*
X206454575Y-136148735D01*
X206454576Y-136148737D01*
X206509149Y-136255843D01*
X206571644Y-136318339D01*
X206578673Y-136335309D01*
X206574655Y-136348603D01*
X206420342Y-136580549D01*
X206405089Y-136590784D01*
X206400772Y-136591251D01*
X205657739Y-136604011D01*
X205640650Y-136597274D01*
X205640270Y-136596898D01*
X205513555Y-136468879D01*
X205506612Y-136451887D01*
X205517286Y-134122705D01*
X205524392Y-134105769D01*
X205757335Y-133876880D01*
X205774156Y-133870000D01*
X206706000Y-133870000D01*
X206722971Y-133877029D01*
G37*
%TD.AperFunction*%
%TD*%
%TA.AperFunction,Conductor*%
%TO.N,PPVAR_VIN*%
G36*
X201346298Y-137363499D02*
G01*
X201392149Y-137416219D01*
X201394010Y-137420484D01*
X201410368Y-137459978D01*
X201417126Y-137470091D01*
X201438005Y-137536768D01*
X201438021Y-137537969D01*
X201439695Y-137742754D01*
X201420559Y-137809953D01*
X201419730Y-137811247D01*
X201236662Y-138093479D01*
X201183666Y-138139011D01*
X201132631Y-138150000D01*
X200128965Y-138150000D01*
X200061926Y-138130315D01*
X200016171Y-138077511D01*
X200004968Y-138026905D01*
X200003384Y-137809953D01*
X200000910Y-137470943D01*
X200020105Y-137403763D01*
X200072574Y-137357624D01*
X200124676Y-137346039D01*
X201279227Y-137343937D01*
X201346298Y-137363499D01*
G37*
%TD.AperFunction*%
%TD*%
%TA.AperFunction,Conductor*%
%TO.N,PPVAR_SYS*%
G36*
X202430971Y-138686429D02*
G01*
X202438000Y-138703400D01*
X202438000Y-138844424D01*
X203006864Y-139458622D01*
X203013255Y-139475090D01*
X203006257Y-140526226D01*
X202999115Y-140543149D01*
X202982325Y-140550066D01*
X202195343Y-140552257D01*
X202195342Y-140552258D01*
X201701400Y-141046200D01*
X201701400Y-141046201D01*
X201701400Y-142163800D01*
X201791818Y-142254219D01*
X201798847Y-142271088D01*
X201800809Y-142736739D01*
X201793851Y-142753739D01*
X201776910Y-142760840D01*
X201776707Y-142760840D01*
X201522320Y-142759764D01*
X201505380Y-142752663D01*
X201498422Y-142735662D01*
X201498423Y-142735590D01*
X201500279Y-142478800D01*
X201107142Y-142478800D01*
X201090171Y-142471771D01*
X200639429Y-142021029D01*
X200632400Y-142004058D01*
X200632400Y-140376009D01*
X200639429Y-140359038D01*
X200640116Y-140358379D01*
X202285600Y-138841953D01*
X202285600Y-138703400D01*
X202292629Y-138686429D01*
X202309600Y-138679400D01*
X202414000Y-138679400D01*
X202430971Y-138686429D01*
G37*
%TD.AperFunction*%
%TD*%
%TA.AperFunction,Conductor*%
%TO.N,PPVAR_VIN*%
G36*
X207279336Y-141130374D02*
G01*
X207279378Y-141130415D01*
X207779525Y-141630562D01*
X207779524Y-141630562D01*
X207834332Y-141685369D01*
X207849438Y-141700475D01*
X207935062Y-141749910D01*
X207982813Y-141762705D01*
X208030564Y-141775500D01*
X208030565Y-141775500D01*
X208093446Y-141775500D01*
X208110415Y-141782528D01*
X208110506Y-141782620D01*
X209213484Y-142897371D01*
X209220424Y-142914173D01*
X209228279Y-145339650D01*
X209225663Y-145350624D01*
X209184576Y-145431262D01*
X209184575Y-145431264D01*
X209184575Y-145431266D01*
X209181413Y-145451231D01*
X209165769Y-145550000D01*
X209174205Y-145603262D01*
X209174500Y-145607016D01*
X209174500Y-146151203D01*
X209167471Y-146168174D01*
X209166415Y-146169167D01*
X209078371Y-146247165D01*
X208992075Y-146372186D01*
X208938215Y-146514207D01*
X208919906Y-146664999D01*
X208919906Y-146665000D01*
X208938215Y-146815792D01*
X208992075Y-146957813D01*
X208992077Y-146957817D01*
X209042171Y-147030391D01*
X209046026Y-147048350D01*
X209042628Y-147056970D01*
X208917082Y-147252946D01*
X208902008Y-147263444D01*
X208896873Y-147264000D01*
X207620267Y-147264000D01*
X207603296Y-147256971D01*
X207596267Y-147240136D01*
X207590085Y-146151203D01*
X207586026Y-145436168D01*
X207592959Y-145419160D01*
X207599121Y-145414655D01*
X207645845Y-145390849D01*
X207730849Y-145305845D01*
X207785425Y-145198734D01*
X207804231Y-145080000D01*
X207785425Y-144961266D01*
X207730849Y-144854155D01*
X207645845Y-144769151D01*
X207645842Y-144769149D01*
X207645841Y-144769148D01*
X207595077Y-144743282D01*
X207583148Y-144729314D01*
X207581973Y-144722034D01*
X207575836Y-143640836D01*
X206740000Y-142805000D01*
X206739999Y-142805000D01*
X205162353Y-142805000D01*
X205145382Y-142797971D01*
X205138648Y-142784754D01*
X205125425Y-142701266D01*
X205125424Y-142701264D01*
X205125424Y-142701263D01*
X205070851Y-142594158D01*
X205070850Y-142594157D01*
X205070849Y-142594155D01*
X204985845Y-142509151D01*
X204985842Y-142509149D01*
X204985841Y-142509148D01*
X204878737Y-142454576D01*
X204878735Y-142454575D01*
X204878734Y-142454575D01*
X204760000Y-142435769D01*
X204641266Y-142454575D01*
X204641264Y-142454575D01*
X204641262Y-142454576D01*
X204534158Y-142509148D01*
X204449148Y-142594158D01*
X204394575Y-142701263D01*
X204389273Y-142734738D01*
X204381947Y-142781000D01*
X204381352Y-142784754D01*
X204371754Y-142800416D01*
X204357647Y-142805000D01*
X203794526Y-142805000D01*
X203777555Y-142797971D01*
X203770526Y-142781000D01*
X203770532Y-142780480D01*
X203771523Y-142734738D01*
X203704349Y-142734931D01*
X203687358Y-142727950D01*
X203680280Y-142711040D01*
X203679932Y-142634512D01*
X203895000Y-142634512D01*
X203895487Y-142634512D01*
X204135223Y-142635000D01*
X204135000Y-142469948D01*
X203895001Y-142469562D01*
X203895000Y-142469562D01*
X203895000Y-142634512D01*
X203679932Y-142634512D01*
X203679362Y-142509148D01*
X203679181Y-142469214D01*
X203680733Y-141591364D01*
X203687761Y-141574438D01*
X204124163Y-141138036D01*
X204141072Y-141131008D01*
X207262350Y-141123386D01*
X207279336Y-141130374D01*
G37*
%TD.AperFunction*%
%TD*%
D71*
X192024000Y-147574000D02*
G75*
G02*
X191389000Y-146939000I0J635000D01*
G01*
X236866000Y-146812009D02*
G75*
G02*
X236103993Y-147574000I-762000J9D01*
G01*
X236866000Y-146812000D02*
X236866000Y-132500000D01*
X228965000Y-128016000D02*
G75*
G02*
X229600000Y-128651000I0J-635000D01*
G01*
X191389000Y-128651000D02*
G75*
G02*
X192024000Y-128016000I635000J0D01*
G01*
X191389000Y-128651000D02*
X191389000Y-146939000D01*
X229600000Y-131220000D02*
X229600000Y-128660000D01*
X236231000Y-131864000D02*
G75*
G02*
X236866000Y-132499000I0J-635000D01*
G01*
X230235000Y-131864000D02*
G75*
G02*
X229600000Y-131229000I0J635000D01*
G01*
X236231000Y-131864000D02*
X230240000Y-131864000D01*
X192024000Y-147574000D02*
X236103993Y-147574000D01*
X192024000Y-128016000D02*
X228965000Y-128016000D01*
M02*
