%TF.GenerationSoftware,KiCad,Pcbnew,8.0.1*%
%TF.CreationDate,2024-04-17T19:21:13-07:00*%
%TF.ProjectId,stm32_bluet_pill,73746d33-325f-4626-9c75-65745f70696c,Proto*%
%TF.SameCoordinates,Original*%
%TF.FileFunction,Copper,L1,Top*%
%TF.FilePolarity,Positive*%
%FSLAX46Y46*%
G04 Gerber Fmt 4.6, Leading zero omitted, Abs format (unit mm)*
G04 Created by KiCad (PCBNEW 8.0.1) date 2024-04-17 19:21:13*
%MOMM*%
%LPD*%
G01*
G04 APERTURE LIST*
G04 Aperture macros list*
%AMRoundRect*
0 Rectangle with rounded corners*
0 $1 Rounding radius*
0 $2 $3 $4 $5 $6 $7 $8 $9 X,Y pos of 4 corners*
0 Add a 4 corners polygon primitive as box body*
4,1,4,$2,$3,$4,$5,$6,$7,$8,$9,$2,$3,0*
0 Add four circle primitives for the rounded corners*
1,1,$1+$1,$2,$3*
1,1,$1+$1,$4,$5*
1,1,$1+$1,$6,$7*
1,1,$1+$1,$8,$9*
0 Add four rect primitives between the rounded corners*
20,1,$1+$1,$2,$3,$4,$5,0*
20,1,$1+$1,$4,$5,$6,$7,0*
20,1,$1+$1,$6,$7,$8,$9,0*
20,1,$1+$1,$8,$9,$2,$3,0*%
%AMFreePoly0*
4,1,10,-0.450000,0.185000,0.450000,0.185000,0.450000,0.435000,1.200000,0.435000,1.200000,-0.235000,-1.000000,-0.235000,-1.200000,-0.035000,-1.200000,0.435000,-0.450000,0.435000,-0.450000,0.185000,-0.450000,0.185000,$1*%
%AMFreePoly1*
4,1,10,-0.450000,0.185000,0.450000,0.185000,0.450000,0.435000,1.200000,0.435000,1.200000,-0.035000,1.000000,-0.235000,-1.200000,-0.235000,-1.200000,0.435000,-0.450000,0.435000,-0.450000,0.185000,-0.450000,0.185000,$1*%
G04 Aperture macros list end*
%ADD10C,0.100000*%
%ADD11C,0.150000*%
%ADD12C,0.300000*%
%ADD13C,0.400000*%
%TA.AperFunction,Conductor*%
%ADD14C,0.200000*%
%TD*%
%TA.AperFunction,EtchedComponent*%
%ADD15C,0.000000*%
%TD*%
%TA.AperFunction,SMDPad,CuDef*%
%ADD16RoundRect,0.100000X0.130000X0.100000X-0.130000X0.100000X-0.130000X-0.100000X0.130000X-0.100000X0*%
%TD*%
%TA.AperFunction,SMDPad,CuDef*%
%ADD17RoundRect,0.100000X-0.100000X0.130000X-0.100000X-0.130000X0.100000X-0.130000X0.100000X0.130000X0*%
%TD*%
%TA.AperFunction,SMDPad,CuDef*%
%ADD18RoundRect,0.140000X-0.140000X-0.170000X0.140000X-0.170000X0.140000X0.170000X-0.140000X0.170000X0*%
%TD*%
%TA.AperFunction,BGAPad,CuDef*%
%ADD19C,0.200000*%
%TD*%
%TA.AperFunction,SMDPad,CuDef*%
%ADD20RoundRect,0.225000X0.225000X0.250000X-0.225000X0.250000X-0.225000X-0.250000X0.225000X-0.250000X0*%
%TD*%
%TA.AperFunction,SMDPad,CuDef*%
%ADD21C,0.500000*%
%TD*%
%TA.AperFunction,SMDPad,CuDef*%
%ADD22RoundRect,0.147500X0.147500X0.172500X-0.147500X0.172500X-0.147500X-0.172500X0.147500X-0.172500X0*%
%TD*%
%TA.AperFunction,SMDPad,CuDef*%
%ADD23RoundRect,0.100000X-0.130000X-0.100000X0.130000X-0.100000X0.130000X0.100000X-0.130000X0.100000X0*%
%TD*%
%TA.AperFunction,SMDPad,CuDef*%
%ADD24RoundRect,0.225000X-0.250000X0.225000X-0.250000X-0.225000X0.250000X-0.225000X0.250000X0.225000X0*%
%TD*%
%TA.AperFunction,SMDPad,CuDef*%
%ADD25RoundRect,0.140000X0.140000X0.170000X-0.140000X0.170000X-0.140000X-0.170000X0.140000X-0.170000X0*%
%TD*%
%TA.AperFunction,SMDPad,CuDef*%
%ADD26RoundRect,0.147500X-0.147500X-0.172500X0.147500X-0.172500X0.147500X0.172500X-0.147500X0.172500X0*%
%TD*%
%TA.AperFunction,SMDPad,CuDef*%
%ADD27RoundRect,0.140000X-0.170000X0.140000X-0.170000X-0.140000X0.170000X-0.140000X0.170000X0.140000X0*%
%TD*%
%TA.AperFunction,ComponentPad*%
%ADD28R,1.000000X1.000000*%
%TD*%
%TA.AperFunction,ComponentPad*%
%ADD29O,1.000000X1.000000*%
%TD*%
%TA.AperFunction,SMDPad,CuDef*%
%ADD30R,1.600000X0.550000*%
%TD*%
%TA.AperFunction,SMDPad,CuDef*%
%ADD31RoundRect,0.135000X0.135000X0.185000X-0.135000X0.185000X-0.135000X-0.185000X0.135000X-0.185000X0*%
%TD*%
%TA.AperFunction,ComponentPad*%
%ADD32RoundRect,0.250000X-0.625000X0.350000X-0.625000X-0.350000X0.625000X-0.350000X0.625000X0.350000X0*%
%TD*%
%TA.AperFunction,ComponentPad*%
%ADD33O,1.750000X1.200000*%
%TD*%
%TA.AperFunction,SMDPad,CuDef*%
%ADD34RoundRect,0.100000X0.100000X-0.130000X0.100000X0.130000X-0.100000X0.130000X-0.100000X-0.130000X0*%
%TD*%
%TA.AperFunction,SMDPad,CuDef*%
%ADD35R,2.000000X1.000000*%
%TD*%
%TA.AperFunction,SMDPad,CuDef*%
%ADD36R,1.000000X0.520000*%
%TD*%
%TA.AperFunction,SMDPad,CuDef*%
%ADD37R,1.000000X0.270000*%
%TD*%
%TA.AperFunction,ComponentPad*%
%ADD38O,2.300000X1.300000*%
%TD*%
%TA.AperFunction,ComponentPad*%
%ADD39O,2.600000X1.300000*%
%TD*%
%TA.AperFunction,ConnectorPad*%
%ADD40C,0.787400*%
%TD*%
%TA.AperFunction,SMDPad,CuDef*%
%ADD41R,0.800000X0.900000*%
%TD*%
%TA.AperFunction,SMDPad,CuDef*%
%ADD42R,0.480000X0.500000*%
%TD*%
%TA.AperFunction,SMDPad,CuDef*%
%ADD43FreePoly0,180.000000*%
%TD*%
%TA.AperFunction,SMDPad,CuDef*%
%ADD44FreePoly1,0.000000*%
%TD*%
%TA.AperFunction,SMDPad,CuDef*%
%ADD45RoundRect,0.050000X0.200000X0.050000X-0.200000X0.050000X-0.200000X-0.050000X0.200000X-0.050000X0*%
%TD*%
%TA.AperFunction,SMDPad,CuDef*%
%ADD46RoundRect,0.050000X-0.200000X-0.050000X0.200000X-0.050000X0.200000X0.050000X-0.200000X0.050000X0*%
%TD*%
%TA.AperFunction,ComponentPad*%
%ADD47C,0.400000*%
%TD*%
%TA.AperFunction,SMDPad,CuDef*%
%ADD48RoundRect,0.050000X-0.400000X-0.700000X0.400000X-0.700000X0.400000X0.700000X-0.400000X0.700000X0*%
%TD*%
%TA.AperFunction,SMDPad,CuDef*%
%ADD49R,1.800000X1.000000*%
%TD*%
%TA.AperFunction,SMDPad,CuDef*%
%ADD50RoundRect,0.093750X0.156250X0.093750X-0.156250X0.093750X-0.156250X-0.093750X0.156250X-0.093750X0*%
%TD*%
%TA.AperFunction,SMDPad,CuDef*%
%ADD51RoundRect,0.075000X0.250000X0.075000X-0.250000X0.075000X-0.250000X-0.075000X0.250000X-0.075000X0*%
%TD*%
%TA.AperFunction,ConnectorPad*%
%ADD52R,0.500000X0.500000*%
%TD*%
%TA.AperFunction,ComponentPad*%
%ADD53R,0.500000X0.900000*%
%TD*%
%TA.AperFunction,SMDPad,CuDef*%
%ADD54RoundRect,0.150000X-0.512500X-0.150000X0.512500X-0.150000X0.512500X0.150000X-0.512500X0.150000X0*%
%TD*%
%TA.AperFunction,SMDPad,CuDef*%
%ADD55RoundRect,0.062500X0.062500X-0.400000X0.062500X0.400000X-0.062500X0.400000X-0.062500X-0.400000X0*%
%TD*%
%TA.AperFunction,SMDPad,CuDef*%
%ADD56RoundRect,0.062500X0.400000X-0.062500X0.400000X0.062500X-0.400000X0.062500X-0.400000X-0.062500X0*%
%TD*%
%TA.AperFunction,HeatsinkPad*%
%ADD57R,6.400000X6.400000*%
%TD*%
%TA.AperFunction,ViaPad*%
%ADD58C,0.450000*%
%TD*%
%TA.AperFunction,Conductor*%
%ADD59C,0.102000*%
%TD*%
%TA.AperFunction,Conductor*%
%ADD60C,0.500000*%
%TD*%
%TA.AperFunction,Conductor*%
%ADD61C,0.150000*%
%TD*%
%TA.AperFunction,Conductor*%
%ADD62C,0.127000*%
%TD*%
%TA.AperFunction,Conductor*%
%ADD63C,0.300000*%
%TD*%
%TA.AperFunction,Conductor*%
%ADD64C,0.250000*%
%TD*%
%TA.AperFunction,Conductor*%
%ADD65C,0.514400*%
%TD*%
%TA.AperFunction,Conductor*%
%ADD66C,0.400000*%
%TD*%
%TA.AperFunction,Conductor*%
%ADD67C,0.103400*%
%TD*%
%TA.AperFunction,Conductor*%
%ADD68C,0.118400*%
%TD*%
%TA.AperFunction,Profile*%
%ADD69C,0.100000*%
%TD*%
G04 APERTURE END LIST*
D10*
X345821001Y-254402167D02*
X345821001Y-267313833D01*
X362331000Y-267313833D01*
X362331000Y-254402167D01*
X345821001Y-254402167D01*
D11*
X299989000Y-253002200D02*
X407989000Y-253002200D01*
X407989000Y-285002200D01*
X299989000Y-285002200D01*
X299989000Y-253002200D01*
D10*
D11*
X10000000Y-10000000D02*
X409989000Y-10000000D01*
X409989000Y-287002200D01*
X10000000Y-287002200D01*
X10000000Y-10000000D01*
D10*
D11*
X12000000Y-12000000D02*
X407989000Y-12000000D01*
X407989000Y-285002200D01*
X12000000Y-285002200D01*
X12000000Y-12000000D01*
D10*
D11*
X60000000Y-12000000D02*
X60000000Y-10000000D01*
D10*
D11*
X110000000Y-12000000D02*
X110000000Y-10000000D01*
D10*
D11*
X160000000Y-12000000D02*
X160000000Y-10000000D01*
D10*
D11*
X210000000Y-12000000D02*
X210000000Y-10000000D01*
D10*
D11*
X260000000Y-12000000D02*
X260000000Y-10000000D01*
D10*
D11*
X310000000Y-12000000D02*
X310000000Y-10000000D01*
D10*
D11*
X360000000Y-12000000D02*
X360000000Y-10000000D01*
D10*
D11*
X36089160Y-11593604D02*
X35346303Y-11593604D01*
X35717731Y-11593604D02*
X35717731Y-10293604D01*
X35717731Y-10293604D02*
X35593922Y-10479319D01*
X35593922Y-10479319D02*
X35470112Y-10603128D01*
X35470112Y-10603128D02*
X35346303Y-10665033D01*
D10*
D11*
X85346303Y-10417414D02*
X85408207Y-10355509D01*
X85408207Y-10355509D02*
X85532017Y-10293604D01*
X85532017Y-10293604D02*
X85841541Y-10293604D01*
X85841541Y-10293604D02*
X85965350Y-10355509D01*
X85965350Y-10355509D02*
X86027255Y-10417414D01*
X86027255Y-10417414D02*
X86089160Y-10541223D01*
X86089160Y-10541223D02*
X86089160Y-10665033D01*
X86089160Y-10665033D02*
X86027255Y-10850747D01*
X86027255Y-10850747D02*
X85284398Y-11593604D01*
X85284398Y-11593604D02*
X86089160Y-11593604D01*
D10*
D11*
X135284398Y-10293604D02*
X136089160Y-10293604D01*
X136089160Y-10293604D02*
X135655826Y-10788842D01*
X135655826Y-10788842D02*
X135841541Y-10788842D01*
X135841541Y-10788842D02*
X135965350Y-10850747D01*
X135965350Y-10850747D02*
X136027255Y-10912652D01*
X136027255Y-10912652D02*
X136089160Y-11036461D01*
X136089160Y-11036461D02*
X136089160Y-11345985D01*
X136089160Y-11345985D02*
X136027255Y-11469795D01*
X136027255Y-11469795D02*
X135965350Y-11531700D01*
X135965350Y-11531700D02*
X135841541Y-11593604D01*
X135841541Y-11593604D02*
X135470112Y-11593604D01*
X135470112Y-11593604D02*
X135346303Y-11531700D01*
X135346303Y-11531700D02*
X135284398Y-11469795D01*
D10*
D11*
X185965350Y-10726938D02*
X185965350Y-11593604D01*
X185655826Y-10231700D02*
X185346303Y-11160271D01*
X185346303Y-11160271D02*
X186151064Y-11160271D01*
D10*
D11*
X236027255Y-10293604D02*
X235408207Y-10293604D01*
X235408207Y-10293604D02*
X235346303Y-10912652D01*
X235346303Y-10912652D02*
X235408207Y-10850747D01*
X235408207Y-10850747D02*
X235532017Y-10788842D01*
X235532017Y-10788842D02*
X235841541Y-10788842D01*
X235841541Y-10788842D02*
X235965350Y-10850747D01*
X235965350Y-10850747D02*
X236027255Y-10912652D01*
X236027255Y-10912652D02*
X236089160Y-11036461D01*
X236089160Y-11036461D02*
X236089160Y-11345985D01*
X236089160Y-11345985D02*
X236027255Y-11469795D01*
X236027255Y-11469795D02*
X235965350Y-11531700D01*
X235965350Y-11531700D02*
X235841541Y-11593604D01*
X235841541Y-11593604D02*
X235532017Y-11593604D01*
X235532017Y-11593604D02*
X235408207Y-11531700D01*
X235408207Y-11531700D02*
X235346303Y-11469795D01*
D10*
D11*
X285965350Y-10293604D02*
X285717731Y-10293604D01*
X285717731Y-10293604D02*
X285593922Y-10355509D01*
X285593922Y-10355509D02*
X285532017Y-10417414D01*
X285532017Y-10417414D02*
X285408207Y-10603128D01*
X285408207Y-10603128D02*
X285346303Y-10850747D01*
X285346303Y-10850747D02*
X285346303Y-11345985D01*
X285346303Y-11345985D02*
X285408207Y-11469795D01*
X285408207Y-11469795D02*
X285470112Y-11531700D01*
X285470112Y-11531700D02*
X285593922Y-11593604D01*
X285593922Y-11593604D02*
X285841541Y-11593604D01*
X285841541Y-11593604D02*
X285965350Y-11531700D01*
X285965350Y-11531700D02*
X286027255Y-11469795D01*
X286027255Y-11469795D02*
X286089160Y-11345985D01*
X286089160Y-11345985D02*
X286089160Y-11036461D01*
X286089160Y-11036461D02*
X286027255Y-10912652D01*
X286027255Y-10912652D02*
X285965350Y-10850747D01*
X285965350Y-10850747D02*
X285841541Y-10788842D01*
X285841541Y-10788842D02*
X285593922Y-10788842D01*
X285593922Y-10788842D02*
X285470112Y-10850747D01*
X285470112Y-10850747D02*
X285408207Y-10912652D01*
X285408207Y-10912652D02*
X285346303Y-11036461D01*
D10*
D11*
X335284398Y-10293604D02*
X336151064Y-10293604D01*
X336151064Y-10293604D02*
X335593922Y-11593604D01*
D10*
D11*
X385593922Y-10850747D02*
X385470112Y-10788842D01*
X385470112Y-10788842D02*
X385408207Y-10726938D01*
X385408207Y-10726938D02*
X385346303Y-10603128D01*
X385346303Y-10603128D02*
X385346303Y-10541223D01*
X385346303Y-10541223D02*
X385408207Y-10417414D01*
X385408207Y-10417414D02*
X385470112Y-10355509D01*
X385470112Y-10355509D02*
X385593922Y-10293604D01*
X385593922Y-10293604D02*
X385841541Y-10293604D01*
X385841541Y-10293604D02*
X385965350Y-10355509D01*
X385965350Y-10355509D02*
X386027255Y-10417414D01*
X386027255Y-10417414D02*
X386089160Y-10541223D01*
X386089160Y-10541223D02*
X386089160Y-10603128D01*
X386089160Y-10603128D02*
X386027255Y-10726938D01*
X386027255Y-10726938D02*
X385965350Y-10788842D01*
X385965350Y-10788842D02*
X385841541Y-10850747D01*
X385841541Y-10850747D02*
X385593922Y-10850747D01*
X385593922Y-10850747D02*
X385470112Y-10912652D01*
X385470112Y-10912652D02*
X385408207Y-10974557D01*
X385408207Y-10974557D02*
X385346303Y-11098366D01*
X385346303Y-11098366D02*
X385346303Y-11345985D01*
X385346303Y-11345985D02*
X385408207Y-11469795D01*
X385408207Y-11469795D02*
X385470112Y-11531700D01*
X385470112Y-11531700D02*
X385593922Y-11593604D01*
X385593922Y-11593604D02*
X385841541Y-11593604D01*
X385841541Y-11593604D02*
X385965350Y-11531700D01*
X385965350Y-11531700D02*
X386027255Y-11469795D01*
X386027255Y-11469795D02*
X386089160Y-11345985D01*
X386089160Y-11345985D02*
X386089160Y-11098366D01*
X386089160Y-11098366D02*
X386027255Y-10974557D01*
X386027255Y-10974557D02*
X385965350Y-10912652D01*
X385965350Y-10912652D02*
X385841541Y-10850747D01*
D10*
D11*
X60000000Y-285002200D02*
X60000000Y-287002200D01*
D10*
D11*
X110000000Y-285002200D02*
X110000000Y-287002200D01*
D10*
D11*
X160000000Y-285002200D02*
X160000000Y-287002200D01*
D10*
D11*
X210000000Y-285002200D02*
X210000000Y-287002200D01*
D10*
D11*
X260000000Y-285002200D02*
X260000000Y-287002200D01*
D10*
D11*
X310000000Y-285002200D02*
X310000000Y-287002200D01*
D10*
D11*
X360000000Y-285002200D02*
X360000000Y-287002200D01*
D10*
D11*
X36089160Y-286595804D02*
X35346303Y-286595804D01*
X35717731Y-286595804D02*
X35717731Y-285295804D01*
X35717731Y-285295804D02*
X35593922Y-285481519D01*
X35593922Y-285481519D02*
X35470112Y-285605328D01*
X35470112Y-285605328D02*
X35346303Y-285667233D01*
D10*
D11*
X85346303Y-285419614D02*
X85408207Y-285357709D01*
X85408207Y-285357709D02*
X85532017Y-285295804D01*
X85532017Y-285295804D02*
X85841541Y-285295804D01*
X85841541Y-285295804D02*
X85965350Y-285357709D01*
X85965350Y-285357709D02*
X86027255Y-285419614D01*
X86027255Y-285419614D02*
X86089160Y-285543423D01*
X86089160Y-285543423D02*
X86089160Y-285667233D01*
X86089160Y-285667233D02*
X86027255Y-285852947D01*
X86027255Y-285852947D02*
X85284398Y-286595804D01*
X85284398Y-286595804D02*
X86089160Y-286595804D01*
D10*
D11*
X135284398Y-285295804D02*
X136089160Y-285295804D01*
X136089160Y-285295804D02*
X135655826Y-285791042D01*
X135655826Y-285791042D02*
X135841541Y-285791042D01*
X135841541Y-285791042D02*
X135965350Y-285852947D01*
X135965350Y-285852947D02*
X136027255Y-285914852D01*
X136027255Y-285914852D02*
X136089160Y-286038661D01*
X136089160Y-286038661D02*
X136089160Y-286348185D01*
X136089160Y-286348185D02*
X136027255Y-286471995D01*
X136027255Y-286471995D02*
X135965350Y-286533900D01*
X135965350Y-286533900D02*
X135841541Y-286595804D01*
X135841541Y-286595804D02*
X135470112Y-286595804D01*
X135470112Y-286595804D02*
X135346303Y-286533900D01*
X135346303Y-286533900D02*
X135284398Y-286471995D01*
D10*
D11*
X185965350Y-285729138D02*
X185965350Y-286595804D01*
X185655826Y-285233900D02*
X185346303Y-286162471D01*
X185346303Y-286162471D02*
X186151064Y-286162471D01*
D10*
D11*
X236027255Y-285295804D02*
X235408207Y-285295804D01*
X235408207Y-285295804D02*
X235346303Y-285914852D01*
X235346303Y-285914852D02*
X235408207Y-285852947D01*
X235408207Y-285852947D02*
X235532017Y-285791042D01*
X235532017Y-285791042D02*
X235841541Y-285791042D01*
X235841541Y-285791042D02*
X235965350Y-285852947D01*
X235965350Y-285852947D02*
X236027255Y-285914852D01*
X236027255Y-285914852D02*
X236089160Y-286038661D01*
X236089160Y-286038661D02*
X236089160Y-286348185D01*
X236089160Y-286348185D02*
X236027255Y-286471995D01*
X236027255Y-286471995D02*
X235965350Y-286533900D01*
X235965350Y-286533900D02*
X235841541Y-286595804D01*
X235841541Y-286595804D02*
X235532017Y-286595804D01*
X235532017Y-286595804D02*
X235408207Y-286533900D01*
X235408207Y-286533900D02*
X235346303Y-286471995D01*
D10*
D11*
X285965350Y-285295804D02*
X285717731Y-285295804D01*
X285717731Y-285295804D02*
X285593922Y-285357709D01*
X285593922Y-285357709D02*
X285532017Y-285419614D01*
X285532017Y-285419614D02*
X285408207Y-285605328D01*
X285408207Y-285605328D02*
X285346303Y-285852947D01*
X285346303Y-285852947D02*
X285346303Y-286348185D01*
X285346303Y-286348185D02*
X285408207Y-286471995D01*
X285408207Y-286471995D02*
X285470112Y-286533900D01*
X285470112Y-286533900D02*
X285593922Y-286595804D01*
X285593922Y-286595804D02*
X285841541Y-286595804D01*
X285841541Y-286595804D02*
X285965350Y-286533900D01*
X285965350Y-286533900D02*
X286027255Y-286471995D01*
X286027255Y-286471995D02*
X286089160Y-286348185D01*
X286089160Y-286348185D02*
X286089160Y-286038661D01*
X286089160Y-286038661D02*
X286027255Y-285914852D01*
X286027255Y-285914852D02*
X285965350Y-285852947D01*
X285965350Y-285852947D02*
X285841541Y-285791042D01*
X285841541Y-285791042D02*
X285593922Y-285791042D01*
X285593922Y-285791042D02*
X285470112Y-285852947D01*
X285470112Y-285852947D02*
X285408207Y-285914852D01*
X285408207Y-285914852D02*
X285346303Y-286038661D01*
D10*
D11*
X335284398Y-285295804D02*
X336151064Y-285295804D01*
X336151064Y-285295804D02*
X335593922Y-286595804D01*
D10*
D11*
X385593922Y-285852947D02*
X385470112Y-285791042D01*
X385470112Y-285791042D02*
X385408207Y-285729138D01*
X385408207Y-285729138D02*
X385346303Y-285605328D01*
X385346303Y-285605328D02*
X385346303Y-285543423D01*
X385346303Y-285543423D02*
X385408207Y-285419614D01*
X385408207Y-285419614D02*
X385470112Y-285357709D01*
X385470112Y-285357709D02*
X385593922Y-285295804D01*
X385593922Y-285295804D02*
X385841541Y-285295804D01*
X385841541Y-285295804D02*
X385965350Y-285357709D01*
X385965350Y-285357709D02*
X386027255Y-285419614D01*
X386027255Y-285419614D02*
X386089160Y-285543423D01*
X386089160Y-285543423D02*
X386089160Y-285605328D01*
X386089160Y-285605328D02*
X386027255Y-285729138D01*
X386027255Y-285729138D02*
X385965350Y-285791042D01*
X385965350Y-285791042D02*
X385841541Y-285852947D01*
X385841541Y-285852947D02*
X385593922Y-285852947D01*
X385593922Y-285852947D02*
X385470112Y-285914852D01*
X385470112Y-285914852D02*
X385408207Y-285976757D01*
X385408207Y-285976757D02*
X385346303Y-286100566D01*
X385346303Y-286100566D02*
X385346303Y-286348185D01*
X385346303Y-286348185D02*
X385408207Y-286471995D01*
X385408207Y-286471995D02*
X385470112Y-286533900D01*
X385470112Y-286533900D02*
X385593922Y-286595804D01*
X385593922Y-286595804D02*
X385841541Y-286595804D01*
X385841541Y-286595804D02*
X385965350Y-286533900D01*
X385965350Y-286533900D02*
X386027255Y-286471995D01*
X386027255Y-286471995D02*
X386089160Y-286348185D01*
X386089160Y-286348185D02*
X386089160Y-286100566D01*
X386089160Y-286100566D02*
X386027255Y-285976757D01*
X386027255Y-285976757D02*
X385965350Y-285914852D01*
X385965350Y-285914852D02*
X385841541Y-285852947D01*
D10*
D11*
X10000000Y-60000000D02*
X12000000Y-60000000D01*
D10*
D11*
X10000000Y-110000000D02*
X12000000Y-110000000D01*
D10*
D11*
X10000000Y-160000000D02*
X12000000Y-160000000D01*
D10*
D11*
X10000000Y-210000000D02*
X12000000Y-210000000D01*
D10*
D11*
X10000000Y-260000000D02*
X12000000Y-260000000D01*
D10*
D11*
X10690476Y-35222176D02*
X11309523Y-35222176D01*
X10566666Y-35593604D02*
X10999999Y-34293604D01*
X10999999Y-34293604D02*
X11433333Y-35593604D01*
D10*
D11*
X11092857Y-84912652D02*
X11278571Y-84974557D01*
X11278571Y-84974557D02*
X11340476Y-85036461D01*
X11340476Y-85036461D02*
X11402380Y-85160271D01*
X11402380Y-85160271D02*
X11402380Y-85345985D01*
X11402380Y-85345985D02*
X11340476Y-85469795D01*
X11340476Y-85469795D02*
X11278571Y-85531700D01*
X11278571Y-85531700D02*
X11154761Y-85593604D01*
X11154761Y-85593604D02*
X10659523Y-85593604D01*
X10659523Y-85593604D02*
X10659523Y-84293604D01*
X10659523Y-84293604D02*
X11092857Y-84293604D01*
X11092857Y-84293604D02*
X11216666Y-84355509D01*
X11216666Y-84355509D02*
X11278571Y-84417414D01*
X11278571Y-84417414D02*
X11340476Y-84541223D01*
X11340476Y-84541223D02*
X11340476Y-84665033D01*
X11340476Y-84665033D02*
X11278571Y-84788842D01*
X11278571Y-84788842D02*
X11216666Y-84850747D01*
X11216666Y-84850747D02*
X11092857Y-84912652D01*
X11092857Y-84912652D02*
X10659523Y-84912652D01*
D10*
D11*
X11402380Y-135469795D02*
X11340476Y-135531700D01*
X11340476Y-135531700D02*
X11154761Y-135593604D01*
X11154761Y-135593604D02*
X11030952Y-135593604D01*
X11030952Y-135593604D02*
X10845238Y-135531700D01*
X10845238Y-135531700D02*
X10721428Y-135407890D01*
X10721428Y-135407890D02*
X10659523Y-135284080D01*
X10659523Y-135284080D02*
X10597619Y-135036461D01*
X10597619Y-135036461D02*
X10597619Y-134850747D01*
X10597619Y-134850747D02*
X10659523Y-134603128D01*
X10659523Y-134603128D02*
X10721428Y-134479319D01*
X10721428Y-134479319D02*
X10845238Y-134355509D01*
X10845238Y-134355509D02*
X11030952Y-134293604D01*
X11030952Y-134293604D02*
X11154761Y-134293604D01*
X11154761Y-134293604D02*
X11340476Y-134355509D01*
X11340476Y-134355509D02*
X11402380Y-134417414D01*
D10*
D11*
X10659523Y-185593604D02*
X10659523Y-184293604D01*
X10659523Y-184293604D02*
X10969047Y-184293604D01*
X10969047Y-184293604D02*
X11154761Y-184355509D01*
X11154761Y-184355509D02*
X11278571Y-184479319D01*
X11278571Y-184479319D02*
X11340476Y-184603128D01*
X11340476Y-184603128D02*
X11402380Y-184850747D01*
X11402380Y-184850747D02*
X11402380Y-185036461D01*
X11402380Y-185036461D02*
X11340476Y-185284080D01*
X11340476Y-185284080D02*
X11278571Y-185407890D01*
X11278571Y-185407890D02*
X11154761Y-185531700D01*
X11154761Y-185531700D02*
X10969047Y-185593604D01*
X10969047Y-185593604D02*
X10659523Y-185593604D01*
D10*
D11*
X10721428Y-234912652D02*
X11154762Y-234912652D01*
X11340476Y-235593604D02*
X10721428Y-235593604D01*
X10721428Y-235593604D02*
X10721428Y-234293604D01*
X10721428Y-234293604D02*
X11340476Y-234293604D01*
D10*
D11*
X11185714Y-284912652D02*
X10752380Y-284912652D01*
X10752380Y-285593604D02*
X10752380Y-284293604D01*
X10752380Y-284293604D02*
X11371428Y-284293604D01*
D10*
D11*
X409989000Y-60000000D02*
X407989000Y-60000000D01*
D10*
D11*
X409989000Y-110000000D02*
X407989000Y-110000000D01*
D10*
D11*
X409989000Y-160000000D02*
X407989000Y-160000000D01*
D10*
D11*
X409989000Y-210000000D02*
X407989000Y-210000000D01*
D10*
D11*
X409989000Y-260000000D02*
X407989000Y-260000000D01*
D10*
D11*
X408679476Y-35222176D02*
X409298523Y-35222176D01*
X408555666Y-35593604D02*
X408988999Y-34293604D01*
X408988999Y-34293604D02*
X409422333Y-35593604D01*
D10*
D11*
X409081857Y-84912652D02*
X409267571Y-84974557D01*
X409267571Y-84974557D02*
X409329476Y-85036461D01*
X409329476Y-85036461D02*
X409391380Y-85160271D01*
X409391380Y-85160271D02*
X409391380Y-85345985D01*
X409391380Y-85345985D02*
X409329476Y-85469795D01*
X409329476Y-85469795D02*
X409267571Y-85531700D01*
X409267571Y-85531700D02*
X409143761Y-85593604D01*
X409143761Y-85593604D02*
X408648523Y-85593604D01*
X408648523Y-85593604D02*
X408648523Y-84293604D01*
X408648523Y-84293604D02*
X409081857Y-84293604D01*
X409081857Y-84293604D02*
X409205666Y-84355509D01*
X409205666Y-84355509D02*
X409267571Y-84417414D01*
X409267571Y-84417414D02*
X409329476Y-84541223D01*
X409329476Y-84541223D02*
X409329476Y-84665033D01*
X409329476Y-84665033D02*
X409267571Y-84788842D01*
X409267571Y-84788842D02*
X409205666Y-84850747D01*
X409205666Y-84850747D02*
X409081857Y-84912652D01*
X409081857Y-84912652D02*
X408648523Y-84912652D01*
D10*
D11*
X409391380Y-135469795D02*
X409329476Y-135531700D01*
X409329476Y-135531700D02*
X409143761Y-135593604D01*
X409143761Y-135593604D02*
X409019952Y-135593604D01*
X409019952Y-135593604D02*
X408834238Y-135531700D01*
X408834238Y-135531700D02*
X408710428Y-135407890D01*
X408710428Y-135407890D02*
X408648523Y-135284080D01*
X408648523Y-135284080D02*
X408586619Y-135036461D01*
X408586619Y-135036461D02*
X408586619Y-134850747D01*
X408586619Y-134850747D02*
X408648523Y-134603128D01*
X408648523Y-134603128D02*
X408710428Y-134479319D01*
X408710428Y-134479319D02*
X408834238Y-134355509D01*
X408834238Y-134355509D02*
X409019952Y-134293604D01*
X409019952Y-134293604D02*
X409143761Y-134293604D01*
X409143761Y-134293604D02*
X409329476Y-134355509D01*
X409329476Y-134355509D02*
X409391380Y-134417414D01*
D10*
D11*
X408648523Y-185593604D02*
X408648523Y-184293604D01*
X408648523Y-184293604D02*
X408958047Y-184293604D01*
X408958047Y-184293604D02*
X409143761Y-184355509D01*
X409143761Y-184355509D02*
X409267571Y-184479319D01*
X409267571Y-184479319D02*
X409329476Y-184603128D01*
X409329476Y-184603128D02*
X409391380Y-184850747D01*
X409391380Y-184850747D02*
X409391380Y-185036461D01*
X409391380Y-185036461D02*
X409329476Y-185284080D01*
X409329476Y-185284080D02*
X409267571Y-185407890D01*
X409267571Y-185407890D02*
X409143761Y-185531700D01*
X409143761Y-185531700D02*
X408958047Y-185593604D01*
X408958047Y-185593604D02*
X408648523Y-185593604D01*
D10*
D11*
X408710428Y-234912652D02*
X409143762Y-234912652D01*
X409329476Y-235593604D02*
X408710428Y-235593604D01*
X408710428Y-235593604D02*
X408710428Y-234293604D01*
X408710428Y-234293604D02*
X409329476Y-234293604D01*
D10*
D11*
X409174714Y-284912652D02*
X408741380Y-284912652D01*
X408741380Y-285593604D02*
X408741380Y-284293604D01*
X408741380Y-284293604D02*
X409360428Y-284293604D01*
D10*
D11*
X323444826Y-280788328D02*
X323444826Y-279288328D01*
X323444826Y-279288328D02*
X323801969Y-279288328D01*
X323801969Y-279288328D02*
X324016255Y-279359757D01*
X324016255Y-279359757D02*
X324159112Y-279502614D01*
X324159112Y-279502614D02*
X324230541Y-279645471D01*
X324230541Y-279645471D02*
X324301969Y-279931185D01*
X324301969Y-279931185D02*
X324301969Y-280145471D01*
X324301969Y-280145471D02*
X324230541Y-280431185D01*
X324230541Y-280431185D02*
X324159112Y-280574042D01*
X324159112Y-280574042D02*
X324016255Y-280716900D01*
X324016255Y-280716900D02*
X323801969Y-280788328D01*
X323801969Y-280788328D02*
X323444826Y-280788328D01*
X325587684Y-280788328D02*
X325587684Y-280002614D01*
X325587684Y-280002614D02*
X325516255Y-279859757D01*
X325516255Y-279859757D02*
X325373398Y-279788328D01*
X325373398Y-279788328D02*
X325087684Y-279788328D01*
X325087684Y-279788328D02*
X324944826Y-279859757D01*
X325587684Y-280716900D02*
X325444826Y-280788328D01*
X325444826Y-280788328D02*
X325087684Y-280788328D01*
X325087684Y-280788328D02*
X324944826Y-280716900D01*
X324944826Y-280716900D02*
X324873398Y-280574042D01*
X324873398Y-280574042D02*
X324873398Y-280431185D01*
X324873398Y-280431185D02*
X324944826Y-280288328D01*
X324944826Y-280288328D02*
X325087684Y-280216900D01*
X325087684Y-280216900D02*
X325444826Y-280216900D01*
X325444826Y-280216900D02*
X325587684Y-280145471D01*
X326087684Y-279788328D02*
X326659112Y-279788328D01*
X326301969Y-279288328D02*
X326301969Y-280574042D01*
X326301969Y-280574042D02*
X326373398Y-280716900D01*
X326373398Y-280716900D02*
X326516255Y-280788328D01*
X326516255Y-280788328D02*
X326659112Y-280788328D01*
X327730541Y-280716900D02*
X327587684Y-280788328D01*
X327587684Y-280788328D02*
X327301970Y-280788328D01*
X327301970Y-280788328D02*
X327159112Y-280716900D01*
X327159112Y-280716900D02*
X327087684Y-280574042D01*
X327087684Y-280574042D02*
X327087684Y-280002614D01*
X327087684Y-280002614D02*
X327159112Y-279859757D01*
X327159112Y-279859757D02*
X327301970Y-279788328D01*
X327301970Y-279788328D02*
X327587684Y-279788328D01*
X327587684Y-279788328D02*
X327730541Y-279859757D01*
X327730541Y-279859757D02*
X327801970Y-280002614D01*
X327801970Y-280002614D02*
X327801970Y-280145471D01*
X327801970Y-280145471D02*
X327087684Y-280288328D01*
X328444826Y-280645471D02*
X328516255Y-280716900D01*
X328516255Y-280716900D02*
X328444826Y-280788328D01*
X328444826Y-280788328D02*
X328373398Y-280716900D01*
X328373398Y-280716900D02*
X328444826Y-280645471D01*
X328444826Y-280645471D02*
X328444826Y-280788328D01*
X328444826Y-279859757D02*
X328516255Y-279931185D01*
X328516255Y-279931185D02*
X328444826Y-280002614D01*
X328444826Y-280002614D02*
X328373398Y-279931185D01*
X328373398Y-279931185D02*
X328444826Y-279859757D01*
X328444826Y-279859757D02*
X328444826Y-280002614D01*
X330230541Y-279431185D02*
X330301969Y-279359757D01*
X330301969Y-279359757D02*
X330444827Y-279288328D01*
X330444827Y-279288328D02*
X330801969Y-279288328D01*
X330801969Y-279288328D02*
X330944827Y-279359757D01*
X330944827Y-279359757D02*
X331016255Y-279431185D01*
X331016255Y-279431185D02*
X331087684Y-279574042D01*
X331087684Y-279574042D02*
X331087684Y-279716900D01*
X331087684Y-279716900D02*
X331016255Y-279931185D01*
X331016255Y-279931185D02*
X330159112Y-280788328D01*
X330159112Y-280788328D02*
X331087684Y-280788328D01*
X332016255Y-279288328D02*
X332159112Y-279288328D01*
X332159112Y-279288328D02*
X332301969Y-279359757D01*
X332301969Y-279359757D02*
X332373398Y-279431185D01*
X332373398Y-279431185D02*
X332444826Y-279574042D01*
X332444826Y-279574042D02*
X332516255Y-279859757D01*
X332516255Y-279859757D02*
X332516255Y-280216900D01*
X332516255Y-280216900D02*
X332444826Y-280502614D01*
X332444826Y-280502614D02*
X332373398Y-280645471D01*
X332373398Y-280645471D02*
X332301969Y-280716900D01*
X332301969Y-280716900D02*
X332159112Y-280788328D01*
X332159112Y-280788328D02*
X332016255Y-280788328D01*
X332016255Y-280788328D02*
X331873398Y-280716900D01*
X331873398Y-280716900D02*
X331801969Y-280645471D01*
X331801969Y-280645471D02*
X331730540Y-280502614D01*
X331730540Y-280502614D02*
X331659112Y-280216900D01*
X331659112Y-280216900D02*
X331659112Y-279859757D01*
X331659112Y-279859757D02*
X331730540Y-279574042D01*
X331730540Y-279574042D02*
X331801969Y-279431185D01*
X331801969Y-279431185D02*
X331873398Y-279359757D01*
X331873398Y-279359757D02*
X332016255Y-279288328D01*
X333087683Y-279431185D02*
X333159111Y-279359757D01*
X333159111Y-279359757D02*
X333301969Y-279288328D01*
X333301969Y-279288328D02*
X333659111Y-279288328D01*
X333659111Y-279288328D02*
X333801969Y-279359757D01*
X333801969Y-279359757D02*
X333873397Y-279431185D01*
X333873397Y-279431185D02*
X333944826Y-279574042D01*
X333944826Y-279574042D02*
X333944826Y-279716900D01*
X333944826Y-279716900D02*
X333873397Y-279931185D01*
X333873397Y-279931185D02*
X333016254Y-280788328D01*
X333016254Y-280788328D02*
X333944826Y-280788328D01*
X335230540Y-279788328D02*
X335230540Y-280788328D01*
X334873397Y-279216900D02*
X334516254Y-280288328D01*
X334516254Y-280288328D02*
X335444825Y-280288328D01*
X336016253Y-280216900D02*
X337159111Y-280216900D01*
X338159111Y-279288328D02*
X338301968Y-279288328D01*
X338301968Y-279288328D02*
X338444825Y-279359757D01*
X338444825Y-279359757D02*
X338516254Y-279431185D01*
X338516254Y-279431185D02*
X338587682Y-279574042D01*
X338587682Y-279574042D02*
X338659111Y-279859757D01*
X338659111Y-279859757D02*
X338659111Y-280216900D01*
X338659111Y-280216900D02*
X338587682Y-280502614D01*
X338587682Y-280502614D02*
X338516254Y-280645471D01*
X338516254Y-280645471D02*
X338444825Y-280716900D01*
X338444825Y-280716900D02*
X338301968Y-280788328D01*
X338301968Y-280788328D02*
X338159111Y-280788328D01*
X338159111Y-280788328D02*
X338016254Y-280716900D01*
X338016254Y-280716900D02*
X337944825Y-280645471D01*
X337944825Y-280645471D02*
X337873396Y-280502614D01*
X337873396Y-280502614D02*
X337801968Y-280216900D01*
X337801968Y-280216900D02*
X337801968Y-279859757D01*
X337801968Y-279859757D02*
X337873396Y-279574042D01*
X337873396Y-279574042D02*
X337944825Y-279431185D01*
X337944825Y-279431185D02*
X338016254Y-279359757D01*
X338016254Y-279359757D02*
X338159111Y-279288328D01*
X339944825Y-279788328D02*
X339944825Y-280788328D01*
X339587682Y-279216900D02*
X339230539Y-280288328D01*
X339230539Y-280288328D02*
X340159110Y-280288328D01*
X340730538Y-280216900D02*
X341873396Y-280216900D01*
X342873396Y-279288328D02*
X343016253Y-279288328D01*
X343016253Y-279288328D02*
X343159110Y-279359757D01*
X343159110Y-279359757D02*
X343230539Y-279431185D01*
X343230539Y-279431185D02*
X343301967Y-279574042D01*
X343301967Y-279574042D02*
X343373396Y-279859757D01*
X343373396Y-279859757D02*
X343373396Y-280216900D01*
X343373396Y-280216900D02*
X343301967Y-280502614D01*
X343301967Y-280502614D02*
X343230539Y-280645471D01*
X343230539Y-280645471D02*
X343159110Y-280716900D01*
X343159110Y-280716900D02*
X343016253Y-280788328D01*
X343016253Y-280788328D02*
X342873396Y-280788328D01*
X342873396Y-280788328D02*
X342730539Y-280716900D01*
X342730539Y-280716900D02*
X342659110Y-280645471D01*
X342659110Y-280645471D02*
X342587681Y-280502614D01*
X342587681Y-280502614D02*
X342516253Y-280216900D01*
X342516253Y-280216900D02*
X342516253Y-279859757D01*
X342516253Y-279859757D02*
X342587681Y-279574042D01*
X342587681Y-279574042D02*
X342659110Y-279431185D01*
X342659110Y-279431185D02*
X342730539Y-279359757D01*
X342730539Y-279359757D02*
X342873396Y-279288328D01*
X343873395Y-279288328D02*
X344801967Y-279288328D01*
X344801967Y-279288328D02*
X344301967Y-279859757D01*
X344301967Y-279859757D02*
X344516252Y-279859757D01*
X344516252Y-279859757D02*
X344659110Y-279931185D01*
X344659110Y-279931185D02*
X344730538Y-280002614D01*
X344730538Y-280002614D02*
X344801967Y-280145471D01*
X344801967Y-280145471D02*
X344801967Y-280502614D01*
X344801967Y-280502614D02*
X344730538Y-280645471D01*
X344730538Y-280645471D02*
X344659110Y-280716900D01*
X344659110Y-280716900D02*
X344516252Y-280788328D01*
X344516252Y-280788328D02*
X344087681Y-280788328D01*
X344087681Y-280788328D02*
X343944824Y-280716900D01*
X343944824Y-280716900D02*
X343873395Y-280645471D01*
D10*
D11*
X299989000Y-281502200D02*
X407989000Y-281502200D01*
D10*
D11*
X301444826Y-283588328D02*
X301444826Y-282088328D01*
X302301969Y-283588328D02*
X301659112Y-282731185D01*
X302301969Y-282088328D02*
X301444826Y-282945471D01*
X302944826Y-283588328D02*
X302944826Y-282588328D01*
X302944826Y-282088328D02*
X302873398Y-282159757D01*
X302873398Y-282159757D02*
X302944826Y-282231185D01*
X302944826Y-282231185D02*
X303016255Y-282159757D01*
X303016255Y-282159757D02*
X302944826Y-282088328D01*
X302944826Y-282088328D02*
X302944826Y-282231185D01*
X304516255Y-283445471D02*
X304444827Y-283516900D01*
X304444827Y-283516900D02*
X304230541Y-283588328D01*
X304230541Y-283588328D02*
X304087684Y-283588328D01*
X304087684Y-283588328D02*
X303873398Y-283516900D01*
X303873398Y-283516900D02*
X303730541Y-283374042D01*
X303730541Y-283374042D02*
X303659112Y-283231185D01*
X303659112Y-283231185D02*
X303587684Y-282945471D01*
X303587684Y-282945471D02*
X303587684Y-282731185D01*
X303587684Y-282731185D02*
X303659112Y-282445471D01*
X303659112Y-282445471D02*
X303730541Y-282302614D01*
X303730541Y-282302614D02*
X303873398Y-282159757D01*
X303873398Y-282159757D02*
X304087684Y-282088328D01*
X304087684Y-282088328D02*
X304230541Y-282088328D01*
X304230541Y-282088328D02*
X304444827Y-282159757D01*
X304444827Y-282159757D02*
X304516255Y-282231185D01*
X305801970Y-283588328D02*
X305801970Y-282802614D01*
X305801970Y-282802614D02*
X305730541Y-282659757D01*
X305730541Y-282659757D02*
X305587684Y-282588328D01*
X305587684Y-282588328D02*
X305301970Y-282588328D01*
X305301970Y-282588328D02*
X305159112Y-282659757D01*
X305801970Y-283516900D02*
X305659112Y-283588328D01*
X305659112Y-283588328D02*
X305301970Y-283588328D01*
X305301970Y-283588328D02*
X305159112Y-283516900D01*
X305159112Y-283516900D02*
X305087684Y-283374042D01*
X305087684Y-283374042D02*
X305087684Y-283231185D01*
X305087684Y-283231185D02*
X305159112Y-283088328D01*
X305159112Y-283088328D02*
X305301970Y-283016900D01*
X305301970Y-283016900D02*
X305659112Y-283016900D01*
X305659112Y-283016900D02*
X305801970Y-282945471D01*
X307159113Y-283588328D02*
X307159113Y-282088328D01*
X307159113Y-283516900D02*
X307016255Y-283588328D01*
X307016255Y-283588328D02*
X306730541Y-283588328D01*
X306730541Y-283588328D02*
X306587684Y-283516900D01*
X306587684Y-283516900D02*
X306516255Y-283445471D01*
X306516255Y-283445471D02*
X306444827Y-283302614D01*
X306444827Y-283302614D02*
X306444827Y-282874042D01*
X306444827Y-282874042D02*
X306516255Y-282731185D01*
X306516255Y-282731185D02*
X306587684Y-282659757D01*
X306587684Y-282659757D02*
X306730541Y-282588328D01*
X306730541Y-282588328D02*
X307016255Y-282588328D01*
X307016255Y-282588328D02*
X307159113Y-282659757D01*
X309016255Y-282802614D02*
X309516255Y-282802614D01*
X309730541Y-283588328D02*
X309016255Y-283588328D01*
X309016255Y-283588328D02*
X309016255Y-282088328D01*
X309016255Y-282088328D02*
X309730541Y-282088328D01*
X310373398Y-283445471D02*
X310444827Y-283516900D01*
X310444827Y-283516900D02*
X310373398Y-283588328D01*
X310373398Y-283588328D02*
X310301970Y-283516900D01*
X310301970Y-283516900D02*
X310373398Y-283445471D01*
X310373398Y-283445471D02*
X310373398Y-283588328D01*
X311087684Y-283588328D02*
X311087684Y-282088328D01*
X311087684Y-282088328D02*
X311444827Y-282088328D01*
X311444827Y-282088328D02*
X311659113Y-282159757D01*
X311659113Y-282159757D02*
X311801970Y-282302614D01*
X311801970Y-282302614D02*
X311873399Y-282445471D01*
X311873399Y-282445471D02*
X311944827Y-282731185D01*
X311944827Y-282731185D02*
X311944827Y-282945471D01*
X311944827Y-282945471D02*
X311873399Y-283231185D01*
X311873399Y-283231185D02*
X311801970Y-283374042D01*
X311801970Y-283374042D02*
X311659113Y-283516900D01*
X311659113Y-283516900D02*
X311444827Y-283588328D01*
X311444827Y-283588328D02*
X311087684Y-283588328D01*
X312587684Y-283445471D02*
X312659113Y-283516900D01*
X312659113Y-283516900D02*
X312587684Y-283588328D01*
X312587684Y-283588328D02*
X312516256Y-283516900D01*
X312516256Y-283516900D02*
X312587684Y-283445471D01*
X312587684Y-283445471D02*
X312587684Y-283588328D01*
X313230542Y-283159757D02*
X313944828Y-283159757D01*
X313087685Y-283588328D02*
X313587685Y-282088328D01*
X313587685Y-282088328D02*
X314087685Y-283588328D01*
X314587684Y-283445471D02*
X314659113Y-283516900D01*
X314659113Y-283516900D02*
X314587684Y-283588328D01*
X314587684Y-283588328D02*
X314516256Y-283516900D01*
X314516256Y-283516900D02*
X314587684Y-283445471D01*
X314587684Y-283445471D02*
X314587684Y-283588328D01*
X316659113Y-282731185D02*
X316516256Y-282659757D01*
X316516256Y-282659757D02*
X316444827Y-282588328D01*
X316444827Y-282588328D02*
X316373399Y-282445471D01*
X316373399Y-282445471D02*
X316373399Y-282374042D01*
X316373399Y-282374042D02*
X316444827Y-282231185D01*
X316444827Y-282231185D02*
X316516256Y-282159757D01*
X316516256Y-282159757D02*
X316659113Y-282088328D01*
X316659113Y-282088328D02*
X316944827Y-282088328D01*
X316944827Y-282088328D02*
X317087685Y-282159757D01*
X317087685Y-282159757D02*
X317159113Y-282231185D01*
X317159113Y-282231185D02*
X317230542Y-282374042D01*
X317230542Y-282374042D02*
X317230542Y-282445471D01*
X317230542Y-282445471D02*
X317159113Y-282588328D01*
X317159113Y-282588328D02*
X317087685Y-282659757D01*
X317087685Y-282659757D02*
X316944827Y-282731185D01*
X316944827Y-282731185D02*
X316659113Y-282731185D01*
X316659113Y-282731185D02*
X316516256Y-282802614D01*
X316516256Y-282802614D02*
X316444827Y-282874042D01*
X316444827Y-282874042D02*
X316373399Y-283016900D01*
X316373399Y-283016900D02*
X316373399Y-283302614D01*
X316373399Y-283302614D02*
X316444827Y-283445471D01*
X316444827Y-283445471D02*
X316516256Y-283516900D01*
X316516256Y-283516900D02*
X316659113Y-283588328D01*
X316659113Y-283588328D02*
X316944827Y-283588328D01*
X316944827Y-283588328D02*
X317087685Y-283516900D01*
X317087685Y-283516900D02*
X317159113Y-283445471D01*
X317159113Y-283445471D02*
X317230542Y-283302614D01*
X317230542Y-283302614D02*
X317230542Y-283016900D01*
X317230542Y-283016900D02*
X317159113Y-282874042D01*
X317159113Y-282874042D02*
X317087685Y-282802614D01*
X317087685Y-282802614D02*
X316944827Y-282731185D01*
X317873398Y-283445471D02*
X317944827Y-283516900D01*
X317944827Y-283516900D02*
X317873398Y-283588328D01*
X317873398Y-283588328D02*
X317801970Y-283516900D01*
X317801970Y-283516900D02*
X317873398Y-283445471D01*
X317873398Y-283445471D02*
X317873398Y-283588328D01*
X318873399Y-282088328D02*
X319016256Y-282088328D01*
X319016256Y-282088328D02*
X319159113Y-282159757D01*
X319159113Y-282159757D02*
X319230542Y-282231185D01*
X319230542Y-282231185D02*
X319301970Y-282374042D01*
X319301970Y-282374042D02*
X319373399Y-282659757D01*
X319373399Y-282659757D02*
X319373399Y-283016900D01*
X319373399Y-283016900D02*
X319301970Y-283302614D01*
X319301970Y-283302614D02*
X319230542Y-283445471D01*
X319230542Y-283445471D02*
X319159113Y-283516900D01*
X319159113Y-283516900D02*
X319016256Y-283588328D01*
X319016256Y-283588328D02*
X318873399Y-283588328D01*
X318873399Y-283588328D02*
X318730542Y-283516900D01*
X318730542Y-283516900D02*
X318659113Y-283445471D01*
X318659113Y-283445471D02*
X318587684Y-283302614D01*
X318587684Y-283302614D02*
X318516256Y-283016900D01*
X318516256Y-283016900D02*
X318516256Y-282659757D01*
X318516256Y-282659757D02*
X318587684Y-282374042D01*
X318587684Y-282374042D02*
X318659113Y-282231185D01*
X318659113Y-282231185D02*
X318730542Y-282159757D01*
X318730542Y-282159757D02*
X318873399Y-282088328D01*
X320016255Y-283445471D02*
X320087684Y-283516900D01*
X320087684Y-283516900D02*
X320016255Y-283588328D01*
X320016255Y-283588328D02*
X319944827Y-283516900D01*
X319944827Y-283516900D02*
X320016255Y-283445471D01*
X320016255Y-283445471D02*
X320016255Y-283588328D01*
X321516256Y-283588328D02*
X320659113Y-283588328D01*
X321087684Y-283588328D02*
X321087684Y-282088328D01*
X321087684Y-282088328D02*
X320944827Y-282302614D01*
X320944827Y-282302614D02*
X320801970Y-282445471D01*
X320801970Y-282445471D02*
X320659113Y-282516900D01*
D10*
D11*
X299989000Y-278502200D02*
X407989000Y-278502200D01*
D10*
D12*
X387400653Y-280780528D02*
X386900653Y-280066242D01*
X386543510Y-280780528D02*
X386543510Y-279280528D01*
X386543510Y-279280528D02*
X387114939Y-279280528D01*
X387114939Y-279280528D02*
X387257796Y-279351957D01*
X387257796Y-279351957D02*
X387329225Y-279423385D01*
X387329225Y-279423385D02*
X387400653Y-279566242D01*
X387400653Y-279566242D02*
X387400653Y-279780528D01*
X387400653Y-279780528D02*
X387329225Y-279923385D01*
X387329225Y-279923385D02*
X387257796Y-279994814D01*
X387257796Y-279994814D02*
X387114939Y-280066242D01*
X387114939Y-280066242D02*
X386543510Y-280066242D01*
X388614939Y-280709100D02*
X388472082Y-280780528D01*
X388472082Y-280780528D02*
X388186368Y-280780528D01*
X388186368Y-280780528D02*
X388043510Y-280709100D01*
X388043510Y-280709100D02*
X387972082Y-280566242D01*
X387972082Y-280566242D02*
X387972082Y-279994814D01*
X387972082Y-279994814D02*
X388043510Y-279851957D01*
X388043510Y-279851957D02*
X388186368Y-279780528D01*
X388186368Y-279780528D02*
X388472082Y-279780528D01*
X388472082Y-279780528D02*
X388614939Y-279851957D01*
X388614939Y-279851957D02*
X388686368Y-279994814D01*
X388686368Y-279994814D02*
X388686368Y-280137671D01*
X388686368Y-280137671D02*
X387972082Y-280280528D01*
X389186367Y-279780528D02*
X389543510Y-280780528D01*
X389543510Y-280780528D02*
X389900653Y-279780528D01*
X390472081Y-280637671D02*
X390543510Y-280709100D01*
X390543510Y-280709100D02*
X390472081Y-280780528D01*
X390472081Y-280780528D02*
X390400653Y-280709100D01*
X390400653Y-280709100D02*
X390472081Y-280637671D01*
X390472081Y-280637671D02*
X390472081Y-280780528D01*
X390472081Y-279851957D02*
X390543510Y-279923385D01*
X390543510Y-279923385D02*
X390472081Y-279994814D01*
X390472081Y-279994814D02*
X390400653Y-279923385D01*
X390400653Y-279923385D02*
X390472081Y-279851957D01*
X390472081Y-279851957D02*
X390472081Y-279994814D01*
X392329224Y-280780528D02*
X392329224Y-279280528D01*
X392329224Y-279280528D02*
X392900653Y-279280528D01*
X392900653Y-279280528D02*
X393043510Y-279351957D01*
X393043510Y-279351957D02*
X393114939Y-279423385D01*
X393114939Y-279423385D02*
X393186367Y-279566242D01*
X393186367Y-279566242D02*
X393186367Y-279780528D01*
X393186367Y-279780528D02*
X393114939Y-279923385D01*
X393114939Y-279923385D02*
X393043510Y-279994814D01*
X393043510Y-279994814D02*
X392900653Y-280066242D01*
X392900653Y-280066242D02*
X392329224Y-280066242D01*
X393829224Y-280780528D02*
X393829224Y-279780528D01*
X393829224Y-280066242D02*
X393900653Y-279923385D01*
X393900653Y-279923385D02*
X393972082Y-279851957D01*
X393972082Y-279851957D02*
X394114939Y-279780528D01*
X394114939Y-279780528D02*
X394257796Y-279780528D01*
X394972081Y-280780528D02*
X394829224Y-280709100D01*
X394829224Y-280709100D02*
X394757795Y-280637671D01*
X394757795Y-280637671D02*
X394686367Y-280494814D01*
X394686367Y-280494814D02*
X394686367Y-280066242D01*
X394686367Y-280066242D02*
X394757795Y-279923385D01*
X394757795Y-279923385D02*
X394829224Y-279851957D01*
X394829224Y-279851957D02*
X394972081Y-279780528D01*
X394972081Y-279780528D02*
X395186367Y-279780528D01*
X395186367Y-279780528D02*
X395329224Y-279851957D01*
X395329224Y-279851957D02*
X395400653Y-279923385D01*
X395400653Y-279923385D02*
X395472081Y-280066242D01*
X395472081Y-280066242D02*
X395472081Y-280494814D01*
X395472081Y-280494814D02*
X395400653Y-280637671D01*
X395400653Y-280637671D02*
X395329224Y-280709100D01*
X395329224Y-280709100D02*
X395186367Y-280780528D01*
X395186367Y-280780528D02*
X394972081Y-280780528D01*
X395900653Y-279780528D02*
X396472081Y-279780528D01*
X396114938Y-279280528D02*
X396114938Y-280566242D01*
X396114938Y-280566242D02*
X396186367Y-280709100D01*
X396186367Y-280709100D02*
X396329224Y-280780528D01*
X396329224Y-280780528D02*
X396472081Y-280780528D01*
X397186367Y-280780528D02*
X397043510Y-280709100D01*
X397043510Y-280709100D02*
X396972081Y-280637671D01*
X396972081Y-280637671D02*
X396900653Y-280494814D01*
X396900653Y-280494814D02*
X396900653Y-280066242D01*
X396900653Y-280066242D02*
X396972081Y-279923385D01*
X396972081Y-279923385D02*
X397043510Y-279851957D01*
X397043510Y-279851957D02*
X397186367Y-279780528D01*
X397186367Y-279780528D02*
X397400653Y-279780528D01*
X397400653Y-279780528D02*
X397543510Y-279851957D01*
X397543510Y-279851957D02*
X397614939Y-279923385D01*
X397614939Y-279923385D02*
X397686367Y-280066242D01*
X397686367Y-280066242D02*
X397686367Y-280494814D01*
X397686367Y-280494814D02*
X397614939Y-280637671D01*
X397614939Y-280637671D02*
X397543510Y-280709100D01*
X397543510Y-280709100D02*
X397400653Y-280780528D01*
X397400653Y-280780528D02*
X397186367Y-280780528D01*
D10*
D11*
X301373398Y-280716900D02*
X301587684Y-280788328D01*
X301587684Y-280788328D02*
X301944826Y-280788328D01*
X301944826Y-280788328D02*
X302087684Y-280716900D01*
X302087684Y-280716900D02*
X302159112Y-280645471D01*
X302159112Y-280645471D02*
X302230541Y-280502614D01*
X302230541Y-280502614D02*
X302230541Y-280359757D01*
X302230541Y-280359757D02*
X302159112Y-280216900D01*
X302159112Y-280216900D02*
X302087684Y-280145471D01*
X302087684Y-280145471D02*
X301944826Y-280074042D01*
X301944826Y-280074042D02*
X301659112Y-280002614D01*
X301659112Y-280002614D02*
X301516255Y-279931185D01*
X301516255Y-279931185D02*
X301444826Y-279859757D01*
X301444826Y-279859757D02*
X301373398Y-279716900D01*
X301373398Y-279716900D02*
X301373398Y-279574042D01*
X301373398Y-279574042D02*
X301444826Y-279431185D01*
X301444826Y-279431185D02*
X301516255Y-279359757D01*
X301516255Y-279359757D02*
X301659112Y-279288328D01*
X301659112Y-279288328D02*
X302016255Y-279288328D01*
X302016255Y-279288328D02*
X302230541Y-279359757D01*
X302873397Y-280788328D02*
X302873397Y-279788328D01*
X302873397Y-279288328D02*
X302801969Y-279359757D01*
X302801969Y-279359757D02*
X302873397Y-279431185D01*
X302873397Y-279431185D02*
X302944826Y-279359757D01*
X302944826Y-279359757D02*
X302873397Y-279288328D01*
X302873397Y-279288328D02*
X302873397Y-279431185D01*
X303444826Y-279788328D02*
X304230541Y-279788328D01*
X304230541Y-279788328D02*
X303444826Y-280788328D01*
X303444826Y-280788328D02*
X304230541Y-280788328D01*
X305373398Y-280716900D02*
X305230541Y-280788328D01*
X305230541Y-280788328D02*
X304944827Y-280788328D01*
X304944827Y-280788328D02*
X304801969Y-280716900D01*
X304801969Y-280716900D02*
X304730541Y-280574042D01*
X304730541Y-280574042D02*
X304730541Y-280002614D01*
X304730541Y-280002614D02*
X304801969Y-279859757D01*
X304801969Y-279859757D02*
X304944827Y-279788328D01*
X304944827Y-279788328D02*
X305230541Y-279788328D01*
X305230541Y-279788328D02*
X305373398Y-279859757D01*
X305373398Y-279859757D02*
X305444827Y-280002614D01*
X305444827Y-280002614D02*
X305444827Y-280145471D01*
X305444827Y-280145471D02*
X304730541Y-280288328D01*
X306087683Y-280645471D02*
X306159112Y-280716900D01*
X306159112Y-280716900D02*
X306087683Y-280788328D01*
X306087683Y-280788328D02*
X306016255Y-280716900D01*
X306016255Y-280716900D02*
X306087683Y-280645471D01*
X306087683Y-280645471D02*
X306087683Y-280788328D01*
X306087683Y-279859757D02*
X306159112Y-279931185D01*
X306159112Y-279931185D02*
X306087683Y-280002614D01*
X306087683Y-280002614D02*
X306016255Y-279931185D01*
X306016255Y-279931185D02*
X306087683Y-279859757D01*
X306087683Y-279859757D02*
X306087683Y-280002614D01*
X307873398Y-280359757D02*
X308587684Y-280359757D01*
X307730541Y-280788328D02*
X308230541Y-279288328D01*
X308230541Y-279288328D02*
X308730541Y-280788328D01*
X309087683Y-279288328D02*
X310016255Y-279288328D01*
X310016255Y-279288328D02*
X309516255Y-279859757D01*
X309516255Y-279859757D02*
X309730540Y-279859757D01*
X309730540Y-279859757D02*
X309873398Y-279931185D01*
X309873398Y-279931185D02*
X309944826Y-280002614D01*
X309944826Y-280002614D02*
X310016255Y-280145471D01*
X310016255Y-280145471D02*
X310016255Y-280502614D01*
X310016255Y-280502614D02*
X309944826Y-280645471D01*
X309944826Y-280645471D02*
X309873398Y-280716900D01*
X309873398Y-280716900D02*
X309730540Y-280788328D01*
X309730540Y-280788328D02*
X309301969Y-280788328D01*
X309301969Y-280788328D02*
X309159112Y-280716900D01*
X309159112Y-280716900D02*
X309087683Y-280645471D01*
D10*
D11*
X386444826Y-283588328D02*
X386444826Y-282088328D01*
X387801970Y-283588328D02*
X387801970Y-282088328D01*
X387801970Y-283516900D02*
X387659112Y-283588328D01*
X387659112Y-283588328D02*
X387373398Y-283588328D01*
X387373398Y-283588328D02*
X387230541Y-283516900D01*
X387230541Y-283516900D02*
X387159112Y-283445471D01*
X387159112Y-283445471D02*
X387087684Y-283302614D01*
X387087684Y-283302614D02*
X387087684Y-282874042D01*
X387087684Y-282874042D02*
X387159112Y-282731185D01*
X387159112Y-282731185D02*
X387230541Y-282659757D01*
X387230541Y-282659757D02*
X387373398Y-282588328D01*
X387373398Y-282588328D02*
X387659112Y-282588328D01*
X387659112Y-282588328D02*
X387801970Y-282659757D01*
X388516255Y-283445471D02*
X388587684Y-283516900D01*
X388587684Y-283516900D02*
X388516255Y-283588328D01*
X388516255Y-283588328D02*
X388444827Y-283516900D01*
X388444827Y-283516900D02*
X388516255Y-283445471D01*
X388516255Y-283445471D02*
X388516255Y-283588328D01*
X388516255Y-282659757D02*
X388587684Y-282731185D01*
X388587684Y-282731185D02*
X388516255Y-282802614D01*
X388516255Y-282802614D02*
X388444827Y-282731185D01*
X388444827Y-282731185D02*
X388516255Y-282659757D01*
X388516255Y-282659757D02*
X388516255Y-282802614D01*
X391159113Y-283588328D02*
X390301970Y-283588328D01*
X390730541Y-283588328D02*
X390730541Y-282088328D01*
X390730541Y-282088328D02*
X390587684Y-282302614D01*
X390587684Y-282302614D02*
X390444827Y-282445471D01*
X390444827Y-282445471D02*
X390301970Y-282516900D01*
X392873398Y-282016900D02*
X391587684Y-283945471D01*
X394159113Y-283588328D02*
X393301970Y-283588328D01*
X393730541Y-283588328D02*
X393730541Y-282088328D01*
X393730541Y-282088328D02*
X393587684Y-282302614D01*
X393587684Y-282302614D02*
X393444827Y-282445471D01*
X393444827Y-282445471D02*
X393301970Y-282516900D01*
D10*
D11*
X299989000Y-274502200D02*
X407989000Y-274502200D01*
D10*
D13*
X301680728Y-275206638D02*
X302823585Y-275206638D01*
X302002157Y-277206638D02*
X302252157Y-275206638D01*
X303240252Y-277206638D02*
X303406919Y-275873304D01*
X303490252Y-275206638D02*
X303383109Y-275301876D01*
X303383109Y-275301876D02*
X303466443Y-275397114D01*
X303466443Y-275397114D02*
X303573586Y-275301876D01*
X303573586Y-275301876D02*
X303490252Y-275206638D01*
X303490252Y-275206638D02*
X303466443Y-275397114D01*
X304073586Y-275873304D02*
X304835490Y-275873304D01*
X304442633Y-275206638D02*
X304228348Y-276920923D01*
X304228348Y-276920923D02*
X304299776Y-277111400D01*
X304299776Y-277111400D02*
X304478348Y-277206638D01*
X304478348Y-277206638D02*
X304668824Y-277206638D01*
X305621205Y-277206638D02*
X305442633Y-277111400D01*
X305442633Y-277111400D02*
X305371205Y-276920923D01*
X305371205Y-276920923D02*
X305585490Y-275206638D01*
X307156919Y-277111400D02*
X306954538Y-277206638D01*
X306954538Y-277206638D02*
X306573585Y-277206638D01*
X306573585Y-277206638D02*
X306395014Y-277111400D01*
X306395014Y-277111400D02*
X306323585Y-276920923D01*
X306323585Y-276920923D02*
X306418824Y-276159019D01*
X306418824Y-276159019D02*
X306537871Y-275968542D01*
X306537871Y-275968542D02*
X306740252Y-275873304D01*
X306740252Y-275873304D02*
X307121204Y-275873304D01*
X307121204Y-275873304D02*
X307299776Y-275968542D01*
X307299776Y-275968542D02*
X307371204Y-276159019D01*
X307371204Y-276159019D02*
X307347395Y-276349495D01*
X307347395Y-276349495D02*
X306371204Y-276539971D01*
X308121205Y-277016161D02*
X308204538Y-277111400D01*
X308204538Y-277111400D02*
X308097395Y-277206638D01*
X308097395Y-277206638D02*
X308014062Y-277111400D01*
X308014062Y-277111400D02*
X308121205Y-277016161D01*
X308121205Y-277016161D02*
X308097395Y-277206638D01*
X308252157Y-275968542D02*
X308335490Y-276063780D01*
X308335490Y-276063780D02*
X308228348Y-276159019D01*
X308228348Y-276159019D02*
X308145014Y-276063780D01*
X308145014Y-276063780D02*
X308252157Y-275968542D01*
X308252157Y-275968542D02*
X308228348Y-276159019D01*
X310490253Y-277111400D02*
X310668824Y-277206638D01*
X310668824Y-277206638D02*
X311049777Y-277206638D01*
X311049777Y-277206638D02*
X311252158Y-277111400D01*
X311252158Y-277111400D02*
X311371205Y-276920923D01*
X311371205Y-276920923D02*
X311383110Y-276825685D01*
X311383110Y-276825685D02*
X311311681Y-276635209D01*
X311311681Y-276635209D02*
X311133110Y-276539971D01*
X311133110Y-276539971D02*
X310847396Y-276539971D01*
X310847396Y-276539971D02*
X310668824Y-276444733D01*
X310668824Y-276444733D02*
X310597396Y-276254257D01*
X310597396Y-276254257D02*
X310609301Y-276159019D01*
X310609301Y-276159019D02*
X310728348Y-275968542D01*
X310728348Y-275968542D02*
X310930729Y-275873304D01*
X310930729Y-275873304D02*
X311216443Y-275873304D01*
X311216443Y-275873304D02*
X311395015Y-275968542D01*
X312073587Y-275873304D02*
X312835491Y-275873304D01*
X312442634Y-275206638D02*
X312228349Y-276920923D01*
X312228349Y-276920923D02*
X312299777Y-277111400D01*
X312299777Y-277111400D02*
X312478349Y-277206638D01*
X312478349Y-277206638D02*
X312668825Y-277206638D01*
X313335491Y-277206638D02*
X313502158Y-275873304D01*
X313478348Y-276063780D02*
X313585491Y-275968542D01*
X313585491Y-275968542D02*
X313787872Y-275873304D01*
X313787872Y-275873304D02*
X314073586Y-275873304D01*
X314073586Y-275873304D02*
X314252158Y-275968542D01*
X314252158Y-275968542D02*
X314323586Y-276159019D01*
X314323586Y-276159019D02*
X314192634Y-277206638D01*
X314323586Y-276159019D02*
X314442634Y-275968542D01*
X314442634Y-275968542D02*
X314645015Y-275873304D01*
X314645015Y-275873304D02*
X314930729Y-275873304D01*
X314930729Y-275873304D02*
X315109301Y-275968542D01*
X315109301Y-275968542D02*
X315180729Y-276159019D01*
X315180729Y-276159019D02*
X315049777Y-277206638D01*
X316061682Y-275206638D02*
X317299777Y-275206638D01*
X317299777Y-275206638D02*
X316537873Y-275968542D01*
X316537873Y-275968542D02*
X316823587Y-275968542D01*
X316823587Y-275968542D02*
X317002158Y-276063780D01*
X317002158Y-276063780D02*
X317085492Y-276159019D01*
X317085492Y-276159019D02*
X317156920Y-276349495D01*
X317156920Y-276349495D02*
X317097396Y-276825685D01*
X317097396Y-276825685D02*
X316978349Y-277016161D01*
X316978349Y-277016161D02*
X316871206Y-277111400D01*
X316871206Y-277111400D02*
X316668825Y-277206638D01*
X316668825Y-277206638D02*
X316097396Y-277206638D01*
X316097396Y-277206638D02*
X315918825Y-277111400D01*
X315918825Y-277111400D02*
X315835492Y-277016161D01*
X318037873Y-275397114D02*
X318145015Y-275301876D01*
X318145015Y-275301876D02*
X318347396Y-275206638D01*
X318347396Y-275206638D02*
X318823587Y-275206638D01*
X318823587Y-275206638D02*
X319002158Y-275301876D01*
X319002158Y-275301876D02*
X319085492Y-275397114D01*
X319085492Y-275397114D02*
X319156920Y-275587590D01*
X319156920Y-275587590D02*
X319133111Y-275778066D01*
X319133111Y-275778066D02*
X319002158Y-276063780D01*
X319002158Y-276063780D02*
X317716444Y-277206638D01*
X317716444Y-277206638D02*
X318954539Y-277206638D01*
X319311682Y-277397114D02*
X320835492Y-277397114D01*
X321335492Y-277206638D02*
X321585492Y-275206638D01*
X321490254Y-275968542D02*
X321692635Y-275873304D01*
X321692635Y-275873304D02*
X322073587Y-275873304D01*
X322073587Y-275873304D02*
X322252159Y-275968542D01*
X322252159Y-275968542D02*
X322335492Y-276063780D01*
X322335492Y-276063780D02*
X322406921Y-276254257D01*
X322406921Y-276254257D02*
X322335492Y-276825685D01*
X322335492Y-276825685D02*
X322216445Y-277016161D01*
X322216445Y-277016161D02*
X322109302Y-277111400D01*
X322109302Y-277111400D02*
X321906921Y-277206638D01*
X321906921Y-277206638D02*
X321525968Y-277206638D01*
X321525968Y-277206638D02*
X321347397Y-277111400D01*
X323430731Y-277206638D02*
X323252159Y-277111400D01*
X323252159Y-277111400D02*
X323180731Y-276920923D01*
X323180731Y-276920923D02*
X323395016Y-275206638D01*
X325216445Y-275873304D02*
X325049778Y-277206638D01*
X324359302Y-275873304D02*
X324228350Y-276920923D01*
X324228350Y-276920923D02*
X324299778Y-277111400D01*
X324299778Y-277111400D02*
X324478350Y-277206638D01*
X324478350Y-277206638D02*
X324764064Y-277206638D01*
X324764064Y-277206638D02*
X324966445Y-277111400D01*
X324966445Y-277111400D02*
X325073588Y-277016161D01*
X326775969Y-277111400D02*
X326573588Y-277206638D01*
X326573588Y-277206638D02*
X326192635Y-277206638D01*
X326192635Y-277206638D02*
X326014064Y-277111400D01*
X326014064Y-277111400D02*
X325942635Y-276920923D01*
X325942635Y-276920923D02*
X326037874Y-276159019D01*
X326037874Y-276159019D02*
X326156921Y-275968542D01*
X326156921Y-275968542D02*
X326359302Y-275873304D01*
X326359302Y-275873304D02*
X326740254Y-275873304D01*
X326740254Y-275873304D02*
X326918826Y-275968542D01*
X326918826Y-275968542D02*
X326990254Y-276159019D01*
X326990254Y-276159019D02*
X326966445Y-276349495D01*
X326966445Y-276349495D02*
X325990254Y-276539971D01*
X327597398Y-275873304D02*
X328359302Y-275873304D01*
X327966445Y-275206638D02*
X327752160Y-276920923D01*
X327752160Y-276920923D02*
X327823588Y-277111400D01*
X327823588Y-277111400D02*
X328002160Y-277206638D01*
X328002160Y-277206638D02*
X328192636Y-277206638D01*
X328359302Y-277397114D02*
X329883112Y-277397114D01*
X330549779Y-275873304D02*
X330299779Y-277873304D01*
X330537874Y-275968542D02*
X330740255Y-275873304D01*
X330740255Y-275873304D02*
X331121207Y-275873304D01*
X331121207Y-275873304D02*
X331299779Y-275968542D01*
X331299779Y-275968542D02*
X331383112Y-276063780D01*
X331383112Y-276063780D02*
X331454541Y-276254257D01*
X331454541Y-276254257D02*
X331383112Y-276825685D01*
X331383112Y-276825685D02*
X331264065Y-277016161D01*
X331264065Y-277016161D02*
X331156922Y-277111400D01*
X331156922Y-277111400D02*
X330954541Y-277206638D01*
X330954541Y-277206638D02*
X330573588Y-277206638D01*
X330573588Y-277206638D02*
X330395017Y-277111400D01*
X332192636Y-277206638D02*
X332359303Y-275873304D01*
X332442636Y-275206638D02*
X332335493Y-275301876D01*
X332335493Y-275301876D02*
X332418827Y-275397114D01*
X332418827Y-275397114D02*
X332525970Y-275301876D01*
X332525970Y-275301876D02*
X332442636Y-275206638D01*
X332442636Y-275206638D02*
X332418827Y-275397114D01*
X333430732Y-277206638D02*
X333252160Y-277111400D01*
X333252160Y-277111400D02*
X333180732Y-276920923D01*
X333180732Y-276920923D02*
X333395017Y-275206638D01*
X334478351Y-277206638D02*
X334299779Y-277111400D01*
X334299779Y-277111400D02*
X334228351Y-276920923D01*
X334228351Y-276920923D02*
X334442636Y-275206638D01*
D10*
D11*
X301944826Y-272602614D02*
X301444826Y-272602614D01*
X301444826Y-273388328D02*
X301444826Y-271888328D01*
X301444826Y-271888328D02*
X302159112Y-271888328D01*
X302730540Y-273388328D02*
X302730540Y-272388328D01*
X302730540Y-271888328D02*
X302659112Y-271959757D01*
X302659112Y-271959757D02*
X302730540Y-272031185D01*
X302730540Y-272031185D02*
X302801969Y-271959757D01*
X302801969Y-271959757D02*
X302730540Y-271888328D01*
X302730540Y-271888328D02*
X302730540Y-272031185D01*
X303659112Y-273388328D02*
X303516255Y-273316900D01*
X303516255Y-273316900D02*
X303444826Y-273174042D01*
X303444826Y-273174042D02*
X303444826Y-271888328D01*
X304801969Y-273316900D02*
X304659112Y-273388328D01*
X304659112Y-273388328D02*
X304373398Y-273388328D01*
X304373398Y-273388328D02*
X304230540Y-273316900D01*
X304230540Y-273316900D02*
X304159112Y-273174042D01*
X304159112Y-273174042D02*
X304159112Y-272602614D01*
X304159112Y-272602614D02*
X304230540Y-272459757D01*
X304230540Y-272459757D02*
X304373398Y-272388328D01*
X304373398Y-272388328D02*
X304659112Y-272388328D01*
X304659112Y-272388328D02*
X304801969Y-272459757D01*
X304801969Y-272459757D02*
X304873398Y-272602614D01*
X304873398Y-272602614D02*
X304873398Y-272745471D01*
X304873398Y-272745471D02*
X304159112Y-272888328D01*
X305516254Y-273245471D02*
X305587683Y-273316900D01*
X305587683Y-273316900D02*
X305516254Y-273388328D01*
X305516254Y-273388328D02*
X305444826Y-273316900D01*
X305444826Y-273316900D02*
X305516254Y-273245471D01*
X305516254Y-273245471D02*
X305516254Y-273388328D01*
X305516254Y-272459757D02*
X305587683Y-272531185D01*
X305587683Y-272531185D02*
X305516254Y-272602614D01*
X305516254Y-272602614D02*
X305444826Y-272531185D01*
X305444826Y-272531185D02*
X305516254Y-272459757D01*
X305516254Y-272459757D02*
X305516254Y-272602614D01*
X307301969Y-273316900D02*
X307444826Y-273388328D01*
X307444826Y-273388328D02*
X307730540Y-273388328D01*
X307730540Y-273388328D02*
X307873397Y-273316900D01*
X307873397Y-273316900D02*
X307944826Y-273174042D01*
X307944826Y-273174042D02*
X307944826Y-273102614D01*
X307944826Y-273102614D02*
X307873397Y-272959757D01*
X307873397Y-272959757D02*
X307730540Y-272888328D01*
X307730540Y-272888328D02*
X307516255Y-272888328D01*
X307516255Y-272888328D02*
X307373397Y-272816900D01*
X307373397Y-272816900D02*
X307301969Y-272674042D01*
X307301969Y-272674042D02*
X307301969Y-272602614D01*
X307301969Y-272602614D02*
X307373397Y-272459757D01*
X307373397Y-272459757D02*
X307516255Y-272388328D01*
X307516255Y-272388328D02*
X307730540Y-272388328D01*
X307730540Y-272388328D02*
X307873397Y-272459757D01*
X308373398Y-272388328D02*
X308944826Y-272388328D01*
X308587683Y-271888328D02*
X308587683Y-273174042D01*
X308587683Y-273174042D02*
X308659112Y-273316900D01*
X308659112Y-273316900D02*
X308801969Y-273388328D01*
X308801969Y-273388328D02*
X308944826Y-273388328D01*
X309444826Y-273388328D02*
X309444826Y-272388328D01*
X309444826Y-272531185D02*
X309516255Y-272459757D01*
X309516255Y-272459757D02*
X309659112Y-272388328D01*
X309659112Y-272388328D02*
X309873398Y-272388328D01*
X309873398Y-272388328D02*
X310016255Y-272459757D01*
X310016255Y-272459757D02*
X310087684Y-272602614D01*
X310087684Y-272602614D02*
X310087684Y-273388328D01*
X310087684Y-272602614D02*
X310159112Y-272459757D01*
X310159112Y-272459757D02*
X310301969Y-272388328D01*
X310301969Y-272388328D02*
X310516255Y-272388328D01*
X310516255Y-272388328D02*
X310659112Y-272459757D01*
X310659112Y-272459757D02*
X310730541Y-272602614D01*
X310730541Y-272602614D02*
X310730541Y-273388328D01*
X311301969Y-271888328D02*
X312230541Y-271888328D01*
X312230541Y-271888328D02*
X311730541Y-272459757D01*
X311730541Y-272459757D02*
X311944826Y-272459757D01*
X311944826Y-272459757D02*
X312087684Y-272531185D01*
X312087684Y-272531185D02*
X312159112Y-272602614D01*
X312159112Y-272602614D02*
X312230541Y-272745471D01*
X312230541Y-272745471D02*
X312230541Y-273102614D01*
X312230541Y-273102614D02*
X312159112Y-273245471D01*
X312159112Y-273245471D02*
X312087684Y-273316900D01*
X312087684Y-273316900D02*
X311944826Y-273388328D01*
X311944826Y-273388328D02*
X311516255Y-273388328D01*
X311516255Y-273388328D02*
X311373398Y-273316900D01*
X311373398Y-273316900D02*
X311301969Y-273245471D01*
X312801969Y-272031185D02*
X312873397Y-271959757D01*
X312873397Y-271959757D02*
X313016255Y-271888328D01*
X313016255Y-271888328D02*
X313373397Y-271888328D01*
X313373397Y-271888328D02*
X313516255Y-271959757D01*
X313516255Y-271959757D02*
X313587683Y-272031185D01*
X313587683Y-272031185D02*
X313659112Y-272174042D01*
X313659112Y-272174042D02*
X313659112Y-272316900D01*
X313659112Y-272316900D02*
X313587683Y-272531185D01*
X313587683Y-272531185D02*
X312730540Y-273388328D01*
X312730540Y-273388328D02*
X313659112Y-273388328D01*
X313944826Y-273531185D02*
X315087683Y-273531185D01*
X315444825Y-273388328D02*
X315444825Y-271888328D01*
X315444825Y-272459757D02*
X315587683Y-272388328D01*
X315587683Y-272388328D02*
X315873397Y-272388328D01*
X315873397Y-272388328D02*
X316016254Y-272459757D01*
X316016254Y-272459757D02*
X316087683Y-272531185D01*
X316087683Y-272531185D02*
X316159111Y-272674042D01*
X316159111Y-272674042D02*
X316159111Y-273102614D01*
X316159111Y-273102614D02*
X316087683Y-273245471D01*
X316087683Y-273245471D02*
X316016254Y-273316900D01*
X316016254Y-273316900D02*
X315873397Y-273388328D01*
X315873397Y-273388328D02*
X315587683Y-273388328D01*
X315587683Y-273388328D02*
X315444825Y-273316900D01*
X317016254Y-273388328D02*
X316873397Y-273316900D01*
X316873397Y-273316900D02*
X316801968Y-273174042D01*
X316801968Y-273174042D02*
X316801968Y-271888328D01*
X318230540Y-272388328D02*
X318230540Y-273388328D01*
X317587682Y-272388328D02*
X317587682Y-273174042D01*
X317587682Y-273174042D02*
X317659111Y-273316900D01*
X317659111Y-273316900D02*
X317801968Y-273388328D01*
X317801968Y-273388328D02*
X318016254Y-273388328D01*
X318016254Y-273388328D02*
X318159111Y-273316900D01*
X318159111Y-273316900D02*
X318230540Y-273245471D01*
X319516254Y-273316900D02*
X319373397Y-273388328D01*
X319373397Y-273388328D02*
X319087683Y-273388328D01*
X319087683Y-273388328D02*
X318944825Y-273316900D01*
X318944825Y-273316900D02*
X318873397Y-273174042D01*
X318873397Y-273174042D02*
X318873397Y-272602614D01*
X318873397Y-272602614D02*
X318944825Y-272459757D01*
X318944825Y-272459757D02*
X319087683Y-272388328D01*
X319087683Y-272388328D02*
X319373397Y-272388328D01*
X319373397Y-272388328D02*
X319516254Y-272459757D01*
X319516254Y-272459757D02*
X319587683Y-272602614D01*
X319587683Y-272602614D02*
X319587683Y-272745471D01*
X319587683Y-272745471D02*
X318873397Y-272888328D01*
X320016254Y-272388328D02*
X320587682Y-272388328D01*
X320230539Y-271888328D02*
X320230539Y-273174042D01*
X320230539Y-273174042D02*
X320301968Y-273316900D01*
X320301968Y-273316900D02*
X320444825Y-273388328D01*
X320444825Y-273388328D02*
X320587682Y-273388328D01*
X320730540Y-273531185D02*
X321873397Y-273531185D01*
X322230539Y-272388328D02*
X322230539Y-273888328D01*
X322230539Y-272459757D02*
X322373397Y-272388328D01*
X322373397Y-272388328D02*
X322659111Y-272388328D01*
X322659111Y-272388328D02*
X322801968Y-272459757D01*
X322801968Y-272459757D02*
X322873397Y-272531185D01*
X322873397Y-272531185D02*
X322944825Y-272674042D01*
X322944825Y-272674042D02*
X322944825Y-273102614D01*
X322944825Y-273102614D02*
X322873397Y-273245471D01*
X322873397Y-273245471D02*
X322801968Y-273316900D01*
X322801968Y-273316900D02*
X322659111Y-273388328D01*
X322659111Y-273388328D02*
X322373397Y-273388328D01*
X322373397Y-273388328D02*
X322230539Y-273316900D01*
X323587682Y-273388328D02*
X323587682Y-272388328D01*
X323587682Y-271888328D02*
X323516254Y-271959757D01*
X323516254Y-271959757D02*
X323587682Y-272031185D01*
X323587682Y-272031185D02*
X323659111Y-271959757D01*
X323659111Y-271959757D02*
X323587682Y-271888328D01*
X323587682Y-271888328D02*
X323587682Y-272031185D01*
X324516254Y-273388328D02*
X324373397Y-273316900D01*
X324373397Y-273316900D02*
X324301968Y-273174042D01*
X324301968Y-273174042D02*
X324301968Y-271888328D01*
X325301968Y-273388328D02*
X325159111Y-273316900D01*
X325159111Y-273316900D02*
X325087682Y-273174042D01*
X325087682Y-273174042D02*
X325087682Y-271888328D01*
X325873396Y-273245471D02*
X325944825Y-273316900D01*
X325944825Y-273316900D02*
X325873396Y-273388328D01*
X325873396Y-273388328D02*
X325801968Y-273316900D01*
X325801968Y-273316900D02*
X325873396Y-273245471D01*
X325873396Y-273245471D02*
X325873396Y-273388328D01*
X326587682Y-273388328D02*
X326587682Y-271888328D01*
X326730540Y-272816900D02*
X327159111Y-273388328D01*
X327159111Y-272388328D02*
X326587682Y-272959757D01*
X327801968Y-273388328D02*
X327801968Y-272388328D01*
X327801968Y-271888328D02*
X327730540Y-271959757D01*
X327730540Y-271959757D02*
X327801968Y-272031185D01*
X327801968Y-272031185D02*
X327873397Y-271959757D01*
X327873397Y-271959757D02*
X327801968Y-271888328D01*
X327801968Y-271888328D02*
X327801968Y-272031185D01*
X329159112Y-273316900D02*
X329016254Y-273388328D01*
X329016254Y-273388328D02*
X328730540Y-273388328D01*
X328730540Y-273388328D02*
X328587683Y-273316900D01*
X328587683Y-273316900D02*
X328516254Y-273245471D01*
X328516254Y-273245471D02*
X328444826Y-273102614D01*
X328444826Y-273102614D02*
X328444826Y-272674042D01*
X328444826Y-272674042D02*
X328516254Y-272531185D01*
X328516254Y-272531185D02*
X328587683Y-272459757D01*
X328587683Y-272459757D02*
X328730540Y-272388328D01*
X328730540Y-272388328D02*
X329016254Y-272388328D01*
X329016254Y-272388328D02*
X329159112Y-272459757D01*
X330444826Y-273388328D02*
X330444826Y-272602614D01*
X330444826Y-272602614D02*
X330373397Y-272459757D01*
X330373397Y-272459757D02*
X330230540Y-272388328D01*
X330230540Y-272388328D02*
X329944826Y-272388328D01*
X329944826Y-272388328D02*
X329801968Y-272459757D01*
X330444826Y-273316900D02*
X330301968Y-273388328D01*
X330301968Y-273388328D02*
X329944826Y-273388328D01*
X329944826Y-273388328D02*
X329801968Y-273316900D01*
X329801968Y-273316900D02*
X329730540Y-273174042D01*
X329730540Y-273174042D02*
X329730540Y-273031185D01*
X329730540Y-273031185D02*
X329801968Y-272888328D01*
X329801968Y-272888328D02*
X329944826Y-272816900D01*
X329944826Y-272816900D02*
X330301968Y-272816900D01*
X330301968Y-272816900D02*
X330444826Y-272745471D01*
X331801969Y-273388328D02*
X331801969Y-271888328D01*
X331801969Y-273316900D02*
X331659111Y-273388328D01*
X331659111Y-273388328D02*
X331373397Y-273388328D01*
X331373397Y-273388328D02*
X331230540Y-273316900D01*
X331230540Y-273316900D02*
X331159111Y-273245471D01*
X331159111Y-273245471D02*
X331087683Y-273102614D01*
X331087683Y-273102614D02*
X331087683Y-272674042D01*
X331087683Y-272674042D02*
X331159111Y-272531185D01*
X331159111Y-272531185D02*
X331230540Y-272459757D01*
X331230540Y-272459757D02*
X331373397Y-272388328D01*
X331373397Y-272388328D02*
X331659111Y-272388328D01*
X331659111Y-272388328D02*
X331801969Y-272459757D01*
X332159112Y-273531185D02*
X333301969Y-273531185D01*
X333659111Y-272388328D02*
X333659111Y-273888328D01*
X333659111Y-272459757D02*
X333801969Y-272388328D01*
X333801969Y-272388328D02*
X334087683Y-272388328D01*
X334087683Y-272388328D02*
X334230540Y-272459757D01*
X334230540Y-272459757D02*
X334301969Y-272531185D01*
X334301969Y-272531185D02*
X334373397Y-272674042D01*
X334373397Y-272674042D02*
X334373397Y-273102614D01*
X334373397Y-273102614D02*
X334301969Y-273245471D01*
X334301969Y-273245471D02*
X334230540Y-273316900D01*
X334230540Y-273316900D02*
X334087683Y-273388328D01*
X334087683Y-273388328D02*
X333801969Y-273388328D01*
X333801969Y-273388328D02*
X333659111Y-273316900D01*
X335659112Y-273316900D02*
X335516254Y-273388328D01*
X335516254Y-273388328D02*
X335230540Y-273388328D01*
X335230540Y-273388328D02*
X335087683Y-273316900D01*
X335087683Y-273316900D02*
X335016254Y-273245471D01*
X335016254Y-273245471D02*
X334944826Y-273102614D01*
X334944826Y-273102614D02*
X334944826Y-272674042D01*
X334944826Y-272674042D02*
X335016254Y-272531185D01*
X335016254Y-272531185D02*
X335087683Y-272459757D01*
X335087683Y-272459757D02*
X335230540Y-272388328D01*
X335230540Y-272388328D02*
X335516254Y-272388328D01*
X335516254Y-272388328D02*
X335659112Y-272459757D01*
X336301968Y-273388328D02*
X336301968Y-271888328D01*
X336301968Y-272459757D02*
X336444826Y-272388328D01*
X336444826Y-272388328D02*
X336730540Y-272388328D01*
X336730540Y-272388328D02*
X336873397Y-272459757D01*
X336873397Y-272459757D02*
X336944826Y-272531185D01*
X336944826Y-272531185D02*
X337016254Y-272674042D01*
X337016254Y-272674042D02*
X337016254Y-273102614D01*
X337016254Y-273102614D02*
X336944826Y-273245471D01*
X336944826Y-273245471D02*
X336873397Y-273316900D01*
X336873397Y-273316900D02*
X336730540Y-273388328D01*
X336730540Y-273388328D02*
X336444826Y-273388328D01*
X336444826Y-273388328D02*
X336301968Y-273316900D01*
D10*
D11*
X299989000Y-268502200D02*
X407989000Y-268502200D01*
D10*
D11*
X301373398Y-270616900D02*
X301587684Y-270688328D01*
X301587684Y-270688328D02*
X301944826Y-270688328D01*
X301944826Y-270688328D02*
X302087684Y-270616900D01*
X302087684Y-270616900D02*
X302159112Y-270545471D01*
X302159112Y-270545471D02*
X302230541Y-270402614D01*
X302230541Y-270402614D02*
X302230541Y-270259757D01*
X302230541Y-270259757D02*
X302159112Y-270116900D01*
X302159112Y-270116900D02*
X302087684Y-270045471D01*
X302087684Y-270045471D02*
X301944826Y-269974042D01*
X301944826Y-269974042D02*
X301659112Y-269902614D01*
X301659112Y-269902614D02*
X301516255Y-269831185D01*
X301516255Y-269831185D02*
X301444826Y-269759757D01*
X301444826Y-269759757D02*
X301373398Y-269616900D01*
X301373398Y-269616900D02*
X301373398Y-269474042D01*
X301373398Y-269474042D02*
X301444826Y-269331185D01*
X301444826Y-269331185D02*
X301516255Y-269259757D01*
X301516255Y-269259757D02*
X301659112Y-269188328D01*
X301659112Y-269188328D02*
X302016255Y-269188328D01*
X302016255Y-269188328D02*
X302230541Y-269259757D01*
X302873397Y-270688328D02*
X302873397Y-269188328D01*
X303516255Y-270688328D02*
X303516255Y-269902614D01*
X303516255Y-269902614D02*
X303444826Y-269759757D01*
X303444826Y-269759757D02*
X303301969Y-269688328D01*
X303301969Y-269688328D02*
X303087683Y-269688328D01*
X303087683Y-269688328D02*
X302944826Y-269759757D01*
X302944826Y-269759757D02*
X302873397Y-269831185D01*
X304801969Y-270616900D02*
X304659112Y-270688328D01*
X304659112Y-270688328D02*
X304373398Y-270688328D01*
X304373398Y-270688328D02*
X304230540Y-270616900D01*
X304230540Y-270616900D02*
X304159112Y-270474042D01*
X304159112Y-270474042D02*
X304159112Y-269902614D01*
X304159112Y-269902614D02*
X304230540Y-269759757D01*
X304230540Y-269759757D02*
X304373398Y-269688328D01*
X304373398Y-269688328D02*
X304659112Y-269688328D01*
X304659112Y-269688328D02*
X304801969Y-269759757D01*
X304801969Y-269759757D02*
X304873398Y-269902614D01*
X304873398Y-269902614D02*
X304873398Y-270045471D01*
X304873398Y-270045471D02*
X304159112Y-270188328D01*
X306087683Y-270616900D02*
X305944826Y-270688328D01*
X305944826Y-270688328D02*
X305659112Y-270688328D01*
X305659112Y-270688328D02*
X305516254Y-270616900D01*
X305516254Y-270616900D02*
X305444826Y-270474042D01*
X305444826Y-270474042D02*
X305444826Y-269902614D01*
X305444826Y-269902614D02*
X305516254Y-269759757D01*
X305516254Y-269759757D02*
X305659112Y-269688328D01*
X305659112Y-269688328D02*
X305944826Y-269688328D01*
X305944826Y-269688328D02*
X306087683Y-269759757D01*
X306087683Y-269759757D02*
X306159112Y-269902614D01*
X306159112Y-269902614D02*
X306159112Y-270045471D01*
X306159112Y-270045471D02*
X305444826Y-270188328D01*
X306587683Y-269688328D02*
X307159111Y-269688328D01*
X306801968Y-269188328D02*
X306801968Y-270474042D01*
X306801968Y-270474042D02*
X306873397Y-270616900D01*
X306873397Y-270616900D02*
X307016254Y-270688328D01*
X307016254Y-270688328D02*
X307159111Y-270688328D01*
X307659111Y-270545471D02*
X307730540Y-270616900D01*
X307730540Y-270616900D02*
X307659111Y-270688328D01*
X307659111Y-270688328D02*
X307587683Y-270616900D01*
X307587683Y-270616900D02*
X307659111Y-270545471D01*
X307659111Y-270545471D02*
X307659111Y-270688328D01*
X307659111Y-269759757D02*
X307730540Y-269831185D01*
X307730540Y-269831185D02*
X307659111Y-269902614D01*
X307659111Y-269902614D02*
X307587683Y-269831185D01*
X307587683Y-269831185D02*
X307659111Y-269759757D01*
X307659111Y-269759757D02*
X307659111Y-269902614D01*
D10*
D12*
X302043510Y-266894814D02*
X302257796Y-266966242D01*
X302257796Y-266966242D02*
X302329225Y-267037671D01*
X302329225Y-267037671D02*
X302400653Y-267180528D01*
X302400653Y-267180528D02*
X302400653Y-267394814D01*
X302400653Y-267394814D02*
X302329225Y-267537671D01*
X302329225Y-267537671D02*
X302257796Y-267609100D01*
X302257796Y-267609100D02*
X302114939Y-267680528D01*
X302114939Y-267680528D02*
X301543510Y-267680528D01*
X301543510Y-267680528D02*
X301543510Y-266180528D01*
X301543510Y-266180528D02*
X302043510Y-266180528D01*
X302043510Y-266180528D02*
X302186368Y-266251957D01*
X302186368Y-266251957D02*
X302257796Y-266323385D01*
X302257796Y-266323385D02*
X302329225Y-266466242D01*
X302329225Y-266466242D02*
X302329225Y-266609100D01*
X302329225Y-266609100D02*
X302257796Y-266751957D01*
X302257796Y-266751957D02*
X302186368Y-266823385D01*
X302186368Y-266823385D02*
X302043510Y-266894814D01*
X302043510Y-266894814D02*
X301543510Y-266894814D01*
X303043510Y-267680528D02*
X303043510Y-266680528D01*
X303043510Y-266966242D02*
X303114939Y-266823385D01*
X303114939Y-266823385D02*
X303186368Y-266751957D01*
X303186368Y-266751957D02*
X303329225Y-266680528D01*
X303329225Y-266680528D02*
X303472082Y-266680528D01*
X304543510Y-267609100D02*
X304400653Y-267680528D01*
X304400653Y-267680528D02*
X304114939Y-267680528D01*
X304114939Y-267680528D02*
X303972081Y-267609100D01*
X303972081Y-267609100D02*
X303900653Y-267466242D01*
X303900653Y-267466242D02*
X303900653Y-266894814D01*
X303900653Y-266894814D02*
X303972081Y-266751957D01*
X303972081Y-266751957D02*
X304114939Y-266680528D01*
X304114939Y-266680528D02*
X304400653Y-266680528D01*
X304400653Y-266680528D02*
X304543510Y-266751957D01*
X304543510Y-266751957D02*
X304614939Y-266894814D01*
X304614939Y-266894814D02*
X304614939Y-267037671D01*
X304614939Y-267037671D02*
X303900653Y-267180528D01*
X305257795Y-266680528D02*
X305257795Y-267680528D01*
X305257795Y-266823385D02*
X305329224Y-266751957D01*
X305329224Y-266751957D02*
X305472081Y-266680528D01*
X305472081Y-266680528D02*
X305686367Y-266680528D01*
X305686367Y-266680528D02*
X305829224Y-266751957D01*
X305829224Y-266751957D02*
X305900653Y-266894814D01*
X305900653Y-266894814D02*
X305900653Y-267680528D01*
X307257796Y-267680528D02*
X307257796Y-266180528D01*
X307257796Y-267609100D02*
X307114938Y-267680528D01*
X307114938Y-267680528D02*
X306829224Y-267680528D01*
X306829224Y-267680528D02*
X306686367Y-267609100D01*
X306686367Y-267609100D02*
X306614938Y-267537671D01*
X306614938Y-267537671D02*
X306543510Y-267394814D01*
X306543510Y-267394814D02*
X306543510Y-266966242D01*
X306543510Y-266966242D02*
X306614938Y-266823385D01*
X306614938Y-266823385D02*
X306686367Y-266751957D01*
X306686367Y-266751957D02*
X306829224Y-266680528D01*
X306829224Y-266680528D02*
X307114938Y-266680528D01*
X307114938Y-266680528D02*
X307257796Y-266751957D01*
X308614939Y-267680528D02*
X308614939Y-266894814D01*
X308614939Y-266894814D02*
X308543510Y-266751957D01*
X308543510Y-266751957D02*
X308400653Y-266680528D01*
X308400653Y-266680528D02*
X308114939Y-266680528D01*
X308114939Y-266680528D02*
X307972081Y-266751957D01*
X308614939Y-267609100D02*
X308472081Y-267680528D01*
X308472081Y-267680528D02*
X308114939Y-267680528D01*
X308114939Y-267680528D02*
X307972081Y-267609100D01*
X307972081Y-267609100D02*
X307900653Y-267466242D01*
X307900653Y-267466242D02*
X307900653Y-267323385D01*
X307900653Y-267323385D02*
X307972081Y-267180528D01*
X307972081Y-267180528D02*
X308114939Y-267109100D01*
X308114939Y-267109100D02*
X308472081Y-267109100D01*
X308472081Y-267109100D02*
X308614939Y-267037671D01*
X309329224Y-266680528D02*
X309329224Y-267680528D01*
X309329224Y-266823385D02*
X309400653Y-266751957D01*
X309400653Y-266751957D02*
X309543510Y-266680528D01*
X309543510Y-266680528D02*
X309757796Y-266680528D01*
X309757796Y-266680528D02*
X309900653Y-266751957D01*
X309900653Y-266751957D02*
X309972082Y-266894814D01*
X309972082Y-266894814D02*
X309972082Y-267680528D01*
X312329224Y-266894814D02*
X312543510Y-266966242D01*
X312543510Y-266966242D02*
X312614939Y-267037671D01*
X312614939Y-267037671D02*
X312686367Y-267180528D01*
X312686367Y-267180528D02*
X312686367Y-267394814D01*
X312686367Y-267394814D02*
X312614939Y-267537671D01*
X312614939Y-267537671D02*
X312543510Y-267609100D01*
X312543510Y-267609100D02*
X312400653Y-267680528D01*
X312400653Y-267680528D02*
X311829224Y-267680528D01*
X311829224Y-267680528D02*
X311829224Y-266180528D01*
X311829224Y-266180528D02*
X312329224Y-266180528D01*
X312329224Y-266180528D02*
X312472082Y-266251957D01*
X312472082Y-266251957D02*
X312543510Y-266323385D01*
X312543510Y-266323385D02*
X312614939Y-266466242D01*
X312614939Y-266466242D02*
X312614939Y-266609100D01*
X312614939Y-266609100D02*
X312543510Y-266751957D01*
X312543510Y-266751957D02*
X312472082Y-266823385D01*
X312472082Y-266823385D02*
X312329224Y-266894814D01*
X312329224Y-266894814D02*
X311829224Y-266894814D01*
X313543510Y-267680528D02*
X313400653Y-267609100D01*
X313400653Y-267609100D02*
X313329224Y-267466242D01*
X313329224Y-267466242D02*
X313329224Y-266180528D01*
X314686367Y-267609100D02*
X314543510Y-267680528D01*
X314543510Y-267680528D02*
X314257796Y-267680528D01*
X314257796Y-267680528D02*
X314114938Y-267609100D01*
X314114938Y-267609100D02*
X314043510Y-267466242D01*
X314043510Y-267466242D02*
X314043510Y-266894814D01*
X314043510Y-266894814D02*
X314114938Y-266751957D01*
X314114938Y-266751957D02*
X314257796Y-266680528D01*
X314257796Y-266680528D02*
X314543510Y-266680528D01*
X314543510Y-266680528D02*
X314686367Y-266751957D01*
X314686367Y-266751957D02*
X314757796Y-266894814D01*
X314757796Y-266894814D02*
X314757796Y-267037671D01*
X314757796Y-267037671D02*
X314043510Y-267180528D01*
X315400652Y-267680528D02*
X315400652Y-266180528D01*
X315543510Y-267109100D02*
X315972081Y-267680528D01*
X315972081Y-266680528D02*
X315400652Y-267251957D01*
X317186367Y-267609100D02*
X317043510Y-267680528D01*
X317043510Y-267680528D02*
X316757796Y-267680528D01*
X316757796Y-267680528D02*
X316614938Y-267609100D01*
X316614938Y-267609100D02*
X316543510Y-267466242D01*
X316543510Y-267466242D02*
X316543510Y-266894814D01*
X316543510Y-266894814D02*
X316614938Y-266751957D01*
X316614938Y-266751957D02*
X316757796Y-266680528D01*
X316757796Y-266680528D02*
X317043510Y-266680528D01*
X317043510Y-266680528D02*
X317186367Y-266751957D01*
X317186367Y-266751957D02*
X317257796Y-266894814D01*
X317257796Y-266894814D02*
X317257796Y-267037671D01*
X317257796Y-267037671D02*
X316543510Y-267180528D01*
X317900652Y-267680528D02*
X317900652Y-266680528D01*
X317900652Y-266966242D02*
X317972081Y-266823385D01*
X317972081Y-266823385D02*
X318043510Y-266751957D01*
X318043510Y-266751957D02*
X318186367Y-266680528D01*
X318186367Y-266680528D02*
X318329224Y-266680528D01*
D10*
D11*
X301444826Y-264688328D02*
X301444826Y-263188328D01*
X301444826Y-263188328D02*
X301801969Y-263188328D01*
X301801969Y-263188328D02*
X302016255Y-263259757D01*
X302016255Y-263259757D02*
X302159112Y-263402614D01*
X302159112Y-263402614D02*
X302230541Y-263545471D01*
X302230541Y-263545471D02*
X302301969Y-263831185D01*
X302301969Y-263831185D02*
X302301969Y-264045471D01*
X302301969Y-264045471D02*
X302230541Y-264331185D01*
X302230541Y-264331185D02*
X302159112Y-264474042D01*
X302159112Y-264474042D02*
X302016255Y-264616900D01*
X302016255Y-264616900D02*
X301801969Y-264688328D01*
X301801969Y-264688328D02*
X301444826Y-264688328D01*
X303516255Y-264616900D02*
X303373398Y-264688328D01*
X303373398Y-264688328D02*
X303087684Y-264688328D01*
X303087684Y-264688328D02*
X302944826Y-264616900D01*
X302944826Y-264616900D02*
X302873398Y-264474042D01*
X302873398Y-264474042D02*
X302873398Y-263902614D01*
X302873398Y-263902614D02*
X302944826Y-263759757D01*
X302944826Y-263759757D02*
X303087684Y-263688328D01*
X303087684Y-263688328D02*
X303373398Y-263688328D01*
X303373398Y-263688328D02*
X303516255Y-263759757D01*
X303516255Y-263759757D02*
X303587684Y-263902614D01*
X303587684Y-263902614D02*
X303587684Y-264045471D01*
X303587684Y-264045471D02*
X302873398Y-264188328D01*
X304159112Y-264616900D02*
X304301969Y-264688328D01*
X304301969Y-264688328D02*
X304587683Y-264688328D01*
X304587683Y-264688328D02*
X304730540Y-264616900D01*
X304730540Y-264616900D02*
X304801969Y-264474042D01*
X304801969Y-264474042D02*
X304801969Y-264402614D01*
X304801969Y-264402614D02*
X304730540Y-264259757D01*
X304730540Y-264259757D02*
X304587683Y-264188328D01*
X304587683Y-264188328D02*
X304373398Y-264188328D01*
X304373398Y-264188328D02*
X304230540Y-264116900D01*
X304230540Y-264116900D02*
X304159112Y-263974042D01*
X304159112Y-263974042D02*
X304159112Y-263902614D01*
X304159112Y-263902614D02*
X304230540Y-263759757D01*
X304230540Y-263759757D02*
X304373398Y-263688328D01*
X304373398Y-263688328D02*
X304587683Y-263688328D01*
X304587683Y-263688328D02*
X304730540Y-263759757D01*
X305444826Y-264688328D02*
X305444826Y-263688328D01*
X305444826Y-263188328D02*
X305373398Y-263259757D01*
X305373398Y-263259757D02*
X305444826Y-263331185D01*
X305444826Y-263331185D02*
X305516255Y-263259757D01*
X305516255Y-263259757D02*
X305444826Y-263188328D01*
X305444826Y-263188328D02*
X305444826Y-263331185D01*
X306801970Y-263688328D02*
X306801970Y-264902614D01*
X306801970Y-264902614D02*
X306730541Y-265045471D01*
X306730541Y-265045471D02*
X306659112Y-265116900D01*
X306659112Y-265116900D02*
X306516255Y-265188328D01*
X306516255Y-265188328D02*
X306301970Y-265188328D01*
X306301970Y-265188328D02*
X306159112Y-265116900D01*
X306801970Y-264616900D02*
X306659112Y-264688328D01*
X306659112Y-264688328D02*
X306373398Y-264688328D01*
X306373398Y-264688328D02*
X306230541Y-264616900D01*
X306230541Y-264616900D02*
X306159112Y-264545471D01*
X306159112Y-264545471D02*
X306087684Y-264402614D01*
X306087684Y-264402614D02*
X306087684Y-263974042D01*
X306087684Y-263974042D02*
X306159112Y-263831185D01*
X306159112Y-263831185D02*
X306230541Y-263759757D01*
X306230541Y-263759757D02*
X306373398Y-263688328D01*
X306373398Y-263688328D02*
X306659112Y-263688328D01*
X306659112Y-263688328D02*
X306801970Y-263759757D01*
X307516255Y-263688328D02*
X307516255Y-264688328D01*
X307516255Y-263831185D02*
X307587684Y-263759757D01*
X307587684Y-263759757D02*
X307730541Y-263688328D01*
X307730541Y-263688328D02*
X307944827Y-263688328D01*
X307944827Y-263688328D02*
X308087684Y-263759757D01*
X308087684Y-263759757D02*
X308159113Y-263902614D01*
X308159113Y-263902614D02*
X308159113Y-264688328D01*
X309444827Y-264616900D02*
X309301970Y-264688328D01*
X309301970Y-264688328D02*
X309016256Y-264688328D01*
X309016256Y-264688328D02*
X308873398Y-264616900D01*
X308873398Y-264616900D02*
X308801970Y-264474042D01*
X308801970Y-264474042D02*
X308801970Y-263902614D01*
X308801970Y-263902614D02*
X308873398Y-263759757D01*
X308873398Y-263759757D02*
X309016256Y-263688328D01*
X309016256Y-263688328D02*
X309301970Y-263688328D01*
X309301970Y-263688328D02*
X309444827Y-263759757D01*
X309444827Y-263759757D02*
X309516256Y-263902614D01*
X309516256Y-263902614D02*
X309516256Y-264045471D01*
X309516256Y-264045471D02*
X308801970Y-264188328D01*
X310801970Y-264688328D02*
X310801970Y-263188328D01*
X310801970Y-264616900D02*
X310659112Y-264688328D01*
X310659112Y-264688328D02*
X310373398Y-264688328D01*
X310373398Y-264688328D02*
X310230541Y-264616900D01*
X310230541Y-264616900D02*
X310159112Y-264545471D01*
X310159112Y-264545471D02*
X310087684Y-264402614D01*
X310087684Y-264402614D02*
X310087684Y-263974042D01*
X310087684Y-263974042D02*
X310159112Y-263831185D01*
X310159112Y-263831185D02*
X310230541Y-263759757D01*
X310230541Y-263759757D02*
X310373398Y-263688328D01*
X310373398Y-263688328D02*
X310659112Y-263688328D01*
X310659112Y-263688328D02*
X310801970Y-263759757D01*
X312659112Y-264688328D02*
X312659112Y-263188328D01*
X312659112Y-263759757D02*
X312801970Y-263688328D01*
X312801970Y-263688328D02*
X313087684Y-263688328D01*
X313087684Y-263688328D02*
X313230541Y-263759757D01*
X313230541Y-263759757D02*
X313301970Y-263831185D01*
X313301970Y-263831185D02*
X313373398Y-263974042D01*
X313373398Y-263974042D02*
X313373398Y-264402614D01*
X313373398Y-264402614D02*
X313301970Y-264545471D01*
X313301970Y-264545471D02*
X313230541Y-264616900D01*
X313230541Y-264616900D02*
X313087684Y-264688328D01*
X313087684Y-264688328D02*
X312801970Y-264688328D01*
X312801970Y-264688328D02*
X312659112Y-264616900D01*
X313873398Y-263688328D02*
X314230541Y-264688328D01*
X314587684Y-263688328D02*
X314230541Y-264688328D01*
X314230541Y-264688328D02*
X314087684Y-265045471D01*
X314087684Y-265045471D02*
X314016255Y-265116900D01*
X314016255Y-265116900D02*
X313873398Y-265188328D01*
X315159112Y-264545471D02*
X315230541Y-264616900D01*
X315230541Y-264616900D02*
X315159112Y-264688328D01*
X315159112Y-264688328D02*
X315087684Y-264616900D01*
X315087684Y-264616900D02*
X315159112Y-264545471D01*
X315159112Y-264545471D02*
X315159112Y-264688328D01*
X315159112Y-263759757D02*
X315230541Y-263831185D01*
X315230541Y-263831185D02*
X315159112Y-263902614D01*
X315159112Y-263902614D02*
X315087684Y-263831185D01*
X315087684Y-263831185D02*
X315159112Y-263759757D01*
X315159112Y-263759757D02*
X315159112Y-263902614D01*
D10*
D11*
X319989000Y-278502200D02*
X319989000Y-281502200D01*
D10*
D11*
X383989000Y-278502200D02*
X383989000Y-285002200D01*
D14*
%TO.N,/BLE_MCU/STM_RF*%
X221830000Y-134210000D02*
X221420000Y-134110000D01*
X221840000Y-134010000D01*
X221830000Y-134210000D01*
%TA.AperFunction,Conductor*%
G36*
X221830000Y-134210000D02*
G01*
X221420000Y-134110000D01*
X221840000Y-134010000D01*
X221830000Y-134210000D01*
G37*
%TD.AperFunction*%
D15*
%TA.AperFunction,EtchedComponent*%
%TD*%
%TO.C,AE1*%
G36*
X231043215Y-132550000D02*
G01*
X236200000Y-132550000D01*
X236200000Y-137550000D01*
X233560000Y-137550000D01*
X233560000Y-139550000D01*
X236200000Y-139550000D01*
X236200000Y-142250000D01*
X233560000Y-142250000D01*
X233560000Y-144250000D01*
X236200000Y-144250000D01*
X236200000Y-146950000D01*
X231760000Y-146950000D01*
X231760000Y-146450000D01*
X235700000Y-146450000D01*
X235700000Y-144750000D01*
X233060000Y-144750000D01*
X233060000Y-141750000D01*
X235700000Y-141750000D01*
X235700000Y-140050000D01*
X233060000Y-140050000D01*
X233060000Y-137050000D01*
X235700000Y-137050000D01*
X235700000Y-135350000D01*
X230800000Y-135350000D01*
X230800000Y-134850000D01*
X235700000Y-134850000D01*
X235700000Y-133450000D01*
X230800000Y-133450000D01*
X230800000Y-132974844D01*
X230903957Y-132974844D01*
X230904700Y-133023363D01*
X230917600Y-133068878D01*
X230928213Y-133087489D01*
X230963447Y-133121132D01*
X231008632Y-133141691D01*
X231058158Y-133148222D01*
X231106417Y-133139782D01*
X231138643Y-133122888D01*
X231171313Y-133087628D01*
X231191408Y-133042318D01*
X231197982Y-132992733D01*
X231190092Y-132944647D01*
X231173186Y-132911755D01*
X231136416Y-132876815D01*
X231091622Y-132857153D01*
X231043215Y-132852417D01*
X230995605Y-132862258D01*
X230953203Y-132886326D01*
X230920419Y-132924269D01*
X230916065Y-132932181D01*
X230903957Y-132974844D01*
X230800000Y-132974844D01*
X230800000Y-132550000D01*
X231043215Y-132550000D01*
G37*
%TD.AperFunction*%
D16*
%TO.P,R2,1*%
%TO.N,/BLE_MCU/BT_ANT_MTCH*%
X222620000Y-134110000D03*
%TO.P,R2,2*%
%TO.N,/BLE_MCU/STM_RF*%
X221980000Y-134110000D03*
%TD*%
%TO.P,R5,1*%
%TO.N,STM_BOOT0*%
X214650000Y-144760000D03*
%TO.P,R5,2*%
%TO.N,GND*%
X214010000Y-144760000D03*
%TD*%
D17*
%TO.P,C32,1*%
%TO.N,/BLE_MCU/OSC_OUT*%
X222620000Y-132240000D03*
%TO.P,C32,2*%
%TO.N,GND*%
X222620000Y-132880000D03*
%TD*%
D18*
%TO.P,C24,1*%
%TO.N,PPVAR_SYS*%
X201320400Y-141808200D03*
%TO.P,C24,2*%
%TO.N,GND*%
X202280400Y-141808200D03*
%TD*%
D19*
%TO.P,U5,A1,SW*%
%TO.N,Net-(U5-SW)*%
X202765000Y-138750600D03*
%TO.P,U5,A2,VIN*%
%TO.N,PPVAR_SYS*%
X202365000Y-138750600D03*
%TO.P,U5,B1,EN*%
X202765000Y-138350600D03*
%TO.P,U5,B2,GND*%
%TO.N,GND*%
X202365000Y-138350600D03*
%TO.P,U5,C1,VSEL*%
%TO.N,PPVAR_SYS*%
X202765000Y-137950600D03*
%TO.P,U5,C2,VOS*%
%TO.N,Net-(U5-VOS)*%
X202365000Y-137950600D03*
%TO.P,U5,D1,CTRL*%
%TO.N,VIN_SNS_EN*%
X202765000Y-137550600D03*
%TO.P,U5,D2,VINSW*%
%TO.N,Net-(U5-VINSW)*%
X202365000Y-137550600D03*
%TD*%
D20*
%TO.P,C29,1*%
%TO.N,PPVAR_VIN*%
X208265000Y-143780000D03*
%TO.P,C29,2*%
%TO.N,GND*%
X206715000Y-143780000D03*
%TD*%
D17*
%TO.P,C2,1*%
%TO.N,/BLE_MCU/BT_ANT_UFL*%
X226710000Y-135120000D03*
%TO.P,C2,2*%
%TO.N,GND*%
X226710000Y-135760000D03*
%TD*%
D21*
%TO.P,FID2,*%
%TO.N,*%
X228570000Y-131840000D03*
%TD*%
D22*
%TO.P,D1,1,K*%
%TO.N,Net-(D1-K)*%
X201015000Y-146860000D03*
%TO.P,D1,2,A*%
%TO.N,PPVAR_BAT*%
X200045000Y-146860000D03*
%TD*%
D23*
%TO.P,R8,1*%
%TO.N,PP1800_ALW*%
X217800000Y-143940000D03*
%TO.P,R8,2*%
%TO.N,I2C3_SDA*%
X218440000Y-143940000D03*
%TD*%
%TO.P,R6,1*%
%TO.N,Net-(U1-PB13)*%
X215520000Y-130520000D03*
%TO.P,R6,2*%
%TO.N,SPI2_CLK_PB13*%
X216160000Y-130520000D03*
%TD*%
D24*
%TO.P,C28,1*%
%TO.N,VBUS*%
X200990000Y-130750000D03*
%TO.P,C28,2*%
%TO.N,GND*%
X200990000Y-132300000D03*
%TD*%
D25*
%TO.P,C15,1*%
%TO.N,PP1800_ALW*%
X205970000Y-135290000D03*
%TO.P,C15,2*%
%TO.N,GND*%
X205010000Y-135290000D03*
%TD*%
D26*
%TO.P,D4,1,K*%
%TO.N,Net-(D4-K)*%
X205605000Y-146860000D03*
%TO.P,D4,2,A*%
%TO.N,PPVAR_VIN*%
X206575000Y-146860000D03*
%TD*%
D27*
%TO.P,C11,1*%
%TO.N,PP3300_VDDUSB*%
X207600000Y-130550000D03*
%TO.P,C11,2*%
%TO.N,GND*%
X207600000Y-131510000D03*
%TD*%
D28*
%TO.P,J1,1,Pin_1*%
%TO.N,PP1800_ALW*%
X208280000Y-128894000D03*
D29*
%TO.P,J1,2,Pin_2*%
%TO.N,GND*%
X209550000Y-128894000D03*
%TO.P,J1,3,Pin_3*%
%TO.N,GPIO_PC11*%
X210820000Y-128894000D03*
%TO.P,J1,4,Pin_4*%
%TO.N,GPIO_PC10*%
X212090000Y-128894000D03*
%TO.P,J1,5,Pin_5*%
%TO.N,GPIO_PA15*%
X213360000Y-128894000D03*
%TO.P,J1,6,Pin_6*%
%TO.N,SPI2_DEV_DC_PC6*%
X214630000Y-128894000D03*
%TO.P,J1,7,Pin_7*%
%TO.N,SPI2_STM_DO_DEV_DI_PB15*%
X215900000Y-128894000D03*
%TO.P,J1,8,Pin_8*%
%TO.N,SPI2_DEV_DO_STM_DI_PB14*%
X217170000Y-128894000D03*
%TO.P,J1,9,Pin_9*%
%TO.N,SPI2_CLK_PB13*%
X218440000Y-128894000D03*
%TO.P,J1,10,Pin_10*%
%TO.N,SPI2_DEV_CS_L_PB12*%
X219710000Y-128894000D03*
%TO.P,J1,11,Pin_11*%
%TO.N,GPIO_PE4*%
X220980000Y-128894000D03*
%TO.P,J1,12,Pin_12*%
%TO.N,GPIO_PB1*%
X222250000Y-128894000D03*
%TO.P,J1,13,Pin_13*%
%TO.N,GPIO_PB0*%
X223520000Y-128894000D03*
%TO.P,J1,14,Pin_14*%
%TO.N,STM_LPUART_TXD_PA2*%
X224790000Y-128894000D03*
%TO.P,J1,15,Pin_15*%
%TO.N,STM_LPUART_RXD_PB10*%
X226060000Y-128894000D03*
%TD*%
D16*
%TO.P,R7,1*%
%TO.N,PP1800_ALW*%
X217760000Y-143200000D03*
%TO.P,R7,2*%
%TO.N,I2C3_SCL*%
X217120000Y-143200000D03*
%TD*%
D25*
%TO.P,C26,1*%
%TO.N,Net-(U5-VOS)*%
X203990000Y-135930000D03*
%TO.P,C26,2*%
%TO.N,GND*%
X203030000Y-135930000D03*
%TD*%
D16*
%TO.P,L1,1,1*%
%TO.N,/BLE_MCU/BT_ANT_UFL*%
X225980000Y-135110000D03*
%TO.P,L1,2,2*%
%TO.N,/BLE_MCU/BT_ANT_MTCH*%
X225340000Y-135110000D03*
%TD*%
D30*
%TO.P,L4,1,1*%
%TO.N,Net-(U5-SW)*%
X204978000Y-138748600D03*
%TO.P,L4,2,2*%
%TO.N,Net-(U5-VOS)*%
X204978000Y-137298600D03*
%TD*%
D17*
%TO.P,C21,1*%
%TO.N,PP1800_ALW*%
X221600000Y-142740000D03*
%TO.P,C21,2*%
%TO.N,GND*%
X221600000Y-143380000D03*
%TD*%
D31*
%TO.P,R23,1*%
%TO.N,PP1800_ALW*%
X206030000Y-136270000D03*
%TO.P,R23,2*%
%TO.N,Net-(U5-VOS)*%
X205010000Y-136270000D03*
%TD*%
D17*
%TO.P,C3,1*%
%TO.N,/BLE_MCU/BT_ANT_MTCH*%
X224610000Y-135100000D03*
%TO.P,C3,2*%
%TO.N,GND*%
X224610000Y-135740000D03*
%TD*%
D32*
%TO.P,J3,1,Pin_1*%
%TO.N,PPVAR_BAT*%
X197281800Y-141510000D03*
D33*
%TO.P,J3,2,Pin_2*%
%TO.N,/POWER/CHGR_BAT_THERM*%
X197281800Y-143510000D03*
%TO.P,J3,3,Pin_3*%
%TO.N,GND*%
X197281800Y-145510000D03*
%TD*%
D28*
%TO.P,J2,1,Pin_1*%
%TO.N,PPVAR_VIN*%
X208280000Y-146665000D03*
D29*
%TO.P,J2,2,Pin_2*%
%TO.N,GND*%
X209550000Y-146665000D03*
%TO.P,J2,3,Pin_3*%
%TO.N,RESETB*%
X210820000Y-146665000D03*
%TO.P,J2,4,Pin_4*%
%TO.N,STM_WKUP2_PC13*%
X212090000Y-146665000D03*
%TO.P,J2,5,Pin_5*%
%TO.N,STM_BOOT0*%
X213360000Y-146665000D03*
%TO.P,J2,6,Pin_6*%
%TO.N,I2C3_SCL*%
X214630000Y-146665000D03*
%TO.P,J2,7,Pin_7*%
%TO.N,I2C3_SDA*%
X215900000Y-146665000D03*
%TO.P,J2,8,Pin_8*%
%TO.N,ADC1_IN3*%
X217170000Y-146665000D03*
%TO.P,J2,9,Pin_9*%
%TO.N,ADC1_IN4*%
X218440000Y-146665000D03*
%TO.P,J2,10,Pin_10*%
%TO.N,ADC1_IN5*%
X219710000Y-146665000D03*
%TO.P,J2,11,Pin_11*%
%TO.N,PPVAR_ADC*%
X220980000Y-146665000D03*
%TO.P,J2,12,Pin_12*%
%TO.N,GND*%
X222250000Y-146665000D03*
%TO.P,J2,13,Pin_13*%
%TO.N,STM_SAI1_SCK_A*%
X223520000Y-146665000D03*
%TO.P,J2,14,Pin_14*%
%TO.N,STM_SAI1_FS_A*%
X224790000Y-146665000D03*
%TO.P,J2,15,Pin_15*%
%TO.N,STM_SAI1_SD_A*%
X226060000Y-146665000D03*
%TD*%
D19*
%TO.P,U3,A1,VCC*%
%TO.N,PP1800_ALW*%
X223380000Y-142480000D03*
%TO.P,U3,A2,~{CS}*%
%TO.N,/BLE_MCU/QSPI_MEM_CS_L*%
X223380000Y-141980000D03*
%TO.P,U3,B1,~{HOLD}/IO3*%
%TO.N,/BLE_MCU/QSPI_MEM_D3*%
X223880000Y-142480000D03*
%TO.P,U3,B2,IO1/SO*%
%TO.N,/BLE_MCU/QSPI_MEM_D1*%
X223880000Y-141980000D03*
%TO.P,U3,C1,SCK*%
%TO.N,/BLE_MCU/QSPI_MEM_CLK*%
X224380000Y-142480000D03*
%TO.P,U3,C2,~{WP}/IO2*%
%TO.N,/BLE_MCU/QSPI_MEM_D2*%
X224380000Y-141980000D03*
%TO.P,U3,D1,SI/IO0*%
%TO.N,/BLE_MCU/QSPI_MEM_D0*%
X224880000Y-142480000D03*
%TO.P,U3,D2,GND*%
%TO.N,GND*%
X224880000Y-141980000D03*
%TD*%
D21*
%TO.P,FID1,*%
%TO.N,*%
X200730000Y-129090000D03*
%TD*%
D34*
%TO.P,C34,1*%
%TO.N,/BLE_MCU/OSC32_IN*%
X213980000Y-142425000D03*
%TO.P,C34,2*%
%TO.N,GND*%
X213980000Y-141785000D03*
%TD*%
D35*
%TO.P,J5,*%
%TO.N,*%
X193845000Y-132080000D03*
X193845000Y-134880000D03*
D36*
%TO.P,J5,A1,GND*%
%TO.N,GND*%
X198045000Y-130380000D03*
%TO.P,J5,A4,VBUS*%
%TO.N,VBUS*%
X198045000Y-131130000D03*
D37*
%TO.P,J5,A5,CC1*%
%TO.N,Net-(J5-CC1)*%
X198045000Y-131730000D03*
%TO.P,J5,A6,D+*%
%TO.N,USB_D_P*%
X198045000Y-133230000D03*
%TO.P,J5,A7,D-*%
%TO.N,USB_D_N*%
X198045000Y-134230000D03*
%TO.P,J5,A8,SBU1*%
%TO.N,unconnected-(J5-SBU1-PadA8)*%
X198045000Y-135230000D03*
D36*
%TO.P,J5,A9,VBUS*%
%TO.N,VBUS*%
X198045000Y-135830000D03*
%TO.P,J5,A12,GND*%
%TO.N,GND*%
X198045000Y-136580000D03*
%TO.P,J5,B1,GND*%
X198045000Y-136580000D03*
%TO.P,J5,B4,VBUS*%
%TO.N,VBUS*%
X198045000Y-135830000D03*
D37*
%TO.P,J5,B5,CC2*%
%TO.N,Net-(J5-CC2)*%
X198045000Y-134730000D03*
%TO.P,J5,B6,D+*%
%TO.N,USB_D_P*%
X198045000Y-133730000D03*
%TO.P,J5,B7,D-*%
%TO.N,USB_D_N*%
X198045000Y-132730000D03*
%TO.P,J5,B8,SBU2*%
%TO.N,unconnected-(J5-SBU2-PadB8)*%
X198045000Y-132230000D03*
D36*
%TO.P,J5,B9,VBUS*%
%TO.N,VBUS*%
X198045000Y-131130000D03*
%TO.P,J5,B12,GND*%
%TO.N,GND*%
X198045000Y-130380000D03*
D38*
%TO.P,J5,S1,SHIELD*%
X197670000Y-129160000D03*
D39*
X193845000Y-129160000D03*
D38*
X197670000Y-137800000D03*
D39*
X193845000Y-137800000D03*
%TD*%
D40*
%TO.P,J4,1,VCC*%
%TO.N,PP3300_DBG*%
X209140000Y-139120000D03*
%TO.P,J4,2,SWDIO*%
%TO.N,SWD_IO*%
X207870000Y-139120000D03*
%TO.P,J4,3,~{RESET}*%
%TO.N,RESETB*%
X209140000Y-137850000D03*
%TO.P,J4,4,SWCLK*%
%TO.N,SWD_CLK*%
X207870000Y-137850000D03*
%TO.P,J4,5,GND*%
%TO.N,GND*%
X209140000Y-136580000D03*
%TO.P,J4,6,SWO*%
%TO.N,SWD_O*%
X207870000Y-136580000D03*
%TD*%
D16*
%TO.P,R11,1*%
%TO.N,GND*%
X205350000Y-144160000D03*
%TO.P,R11,2*%
%TO.N,Net-(U4-ILIM{slash}VSET)*%
X204710000Y-144160000D03*
%TD*%
D34*
%TO.P,C31,1*%
%TO.N,/BLE_MCU/OSC_IN*%
X222620000Y-131480000D03*
%TO.P,C31,2*%
%TO.N,GND*%
X222620000Y-130840000D03*
%TD*%
D23*
%TO.P,R12,1*%
%TO.N,Net-(U4-ISET)*%
X204710000Y-143440000D03*
%TO.P,R12,2*%
%TO.N,GND*%
X205350000Y-143440000D03*
%TD*%
D41*
%TO.P,Y1,1,1*%
%TO.N,/BLE_MCU/OSC_OUT*%
X224830000Y-132550000D03*
%TO.P,Y1,2,2*%
%TO.N,GND*%
X224830000Y-131150000D03*
%TO.P,Y1,3,3*%
%TO.N,/BLE_MCU/OSC_IN*%
X223730000Y-131150000D03*
%TO.P,Y1,4,4*%
%TO.N,GND*%
X223730000Y-132550000D03*
%TD*%
D42*
%TO.P,TP1,A,A*%
%TO.N,/BLE_MCU/BT_ANT_UFL*%
X227808400Y-135100800D03*
%TO.P,TP1,C,C*%
%TO.N,/BLE_MCU/BT_PCB_ANT*%
X229728400Y-135100800D03*
D43*
%TO.P,TP1,G,G*%
%TO.N,GND*%
X228768400Y-135915800D03*
D44*
X228768400Y-134285800D03*
%TD*%
D45*
%TO.P,U4,1,SYS*%
%TO.N,PPVAR_SYS*%
X201664800Y-142710000D03*
%TO.P,U4,2,BAT*%
%TO.N,PPVAR_BAT*%
X201664800Y-143110000D03*
D46*
%TO.P,U4,3,STAT2*%
%TO.N,/POWER/CHG_LED_GRN*%
X201664800Y-143510000D03*
%TO.P,U4,4,~{CE}*%
%TO.N,Net-(U4-~{CE})*%
X201664800Y-143910000D03*
%TO.P,U4,5,GND*%
%TO.N,GND*%
X201664800Y-144310000D03*
%TO.P,U4,6,TS/MR*%
%TO.N,/POWER/CHGR_BAT_THERM*%
X203764800Y-144310000D03*
%TO.P,U4,7,ILIM/VSET*%
%TO.N,Net-(U4-ILIM{slash}VSET)*%
X203764800Y-143910000D03*
D45*
%TO.P,U4,8,ISET*%
%TO.N,Net-(U4-ISET)*%
X203764800Y-143510000D03*
%TO.P,U4,9,STAT1*%
%TO.N,FLT_CHG_ODL*%
X203764800Y-143110000D03*
%TO.P,U4,10,IN*%
%TO.N,PPVAR_VIN*%
X203764800Y-142710000D03*
D47*
%TO.P,U4,11,EP*%
%TO.N,GND*%
X202714800Y-143010000D03*
D48*
X202714800Y-143510000D03*
D47*
X202714800Y-144010000D03*
%TD*%
D49*
%TO.P,Y2,1,1*%
%TO.N,/BLE_MCU/OSC32_OUT*%
X212450000Y-143990000D03*
%TO.P,Y2,2,2*%
%TO.N,/BLE_MCU/OSC32_IN*%
X212450000Y-141490000D03*
%TD*%
D50*
%TO.P,U6,1,I/O1*%
%TO.N,USB_D_P*%
X203415000Y-134647500D03*
D51*
%TO.P,U6,2,GND*%
%TO.N,GND*%
X203490000Y-134110000D03*
D50*
%TO.P,U6,3,I/O2*%
%TO.N,USB_D_N*%
X203415000Y-133572500D03*
%TO.P,U6,4,I/O2*%
X201715000Y-133572500D03*
D51*
%TO.P,U6,5,VBUS*%
%TO.N,VBUS*%
X201640000Y-134110000D03*
D50*
%TO.P,U6,6,I/O1*%
%TO.N,USB_D_P*%
X201715000Y-134647500D03*
%TD*%
D52*
%TO.P,AE1,1,A*%
%TO.N,/BLE_MCU/BT_PCB_ANT*%
X231050000Y-135100000D03*
D53*
%TO.P,AE1,2,Shield*%
%TO.N,GND*%
X231050000Y-133000000D03*
%TD*%
D54*
%TO.P,U8,1,IN*%
%TO.N,VBUS*%
X203916700Y-130303100D03*
%TO.P,U8,2,GND*%
%TO.N,GND*%
X203916700Y-131253100D03*
%TO.P,U8,3,EN*%
%TO.N,Net-(U8-EN)*%
X203916700Y-132203100D03*
%TO.P,U8,4,NC*%
%TO.N,unconnected-(U8-NC-Pad4)*%
X206191700Y-132203100D03*
%TO.P,U8,5,OUT*%
%TO.N,PP3300_VDDUSB*%
X206191700Y-130303100D03*
%TD*%
D27*
%TO.P,C33,1*%
%TO.N,VBUS*%
X202210000Y-130470000D03*
%TO.P,C33,2*%
%TO.N,GND*%
X202210000Y-131430000D03*
%TD*%
D25*
%TO.P,C22,1*%
%TO.N,PPVAR_VIN*%
X204109200Y-141808200D03*
%TO.P,C22,2*%
%TO.N,GND*%
X203149200Y-141808200D03*
%TD*%
D16*
%TO.P,R14,1*%
%TO.N,BAT_CHRG_FACTORY*%
X205340000Y-144880000D03*
%TO.P,R14,2*%
%TO.N,/POWER/CHGR_BAT_THERM*%
X204700000Y-144880000D03*
%TD*%
D23*
%TO.P,R19,1*%
%TO.N,VIN_SNS_EN*%
X201550000Y-136010000D03*
%TO.P,R19,2*%
%TO.N,GND*%
X202190000Y-136010000D03*
%TD*%
D22*
%TO.P,D5,1,K*%
%TO.N,Net-(D5-K)*%
X203795000Y-146860000D03*
%TO.P,D5,2,A*%
%TO.N,PPVAR_BAT*%
X202825000Y-146860000D03*
%TD*%
D55*
%TO.P,U1,1,VBAT*%
%TO.N,PP1800_ALW*%
X213910000Y-139997500D03*
%TO.P,U1,2,PC13*%
%TO.N,STM_WKUP2_PC13*%
X214310000Y-139997501D03*
%TO.P,U1,3,PC14*%
%TO.N,/BLE_MCU/OSC32_IN*%
X214710000Y-139997500D03*
%TO.P,U1,4,PC15*%
%TO.N,/BLE_MCU/OSC32_OUT*%
X215110000Y-139997500D03*
%TO.P,U1,5,PH3*%
%TO.N,STM_BOOT0*%
X215510000Y-139997500D03*
%TO.P,U1,6,PB8*%
%TO.N,/BLE_MCU/QSPI_MEM_D1*%
X215909999Y-139997500D03*
%TO.P,U1,7,PB9*%
%TO.N,/BLE_MCU/QSPI_MEM_D0*%
X216310000Y-139997500D03*
%TO.P,U1,8,NRST*%
%TO.N,RESETB*%
X216710000Y-139997500D03*
%TO.P,U1,9,PC0*%
%TO.N,I2C3_SCL*%
X217110000Y-139997501D03*
%TO.P,U1,10,PC1*%
%TO.N,I2C3_SDA*%
X217510000Y-139997500D03*
%TO.P,U1,11,PC2*%
%TO.N,ADC1_IN3*%
X217910000Y-139997500D03*
%TO.P,U1,12,PC3*%
%TO.N,ADC1_IN4*%
X218310001Y-139997500D03*
%TO.P,U1,13,VREF+*%
%TO.N,unconnected-(U1-VREF+-Pad13)*%
X218710000Y-139997500D03*
%TO.P,U1,14,VDDA*%
%TO.N,PPVAR_ADC*%
X219110000Y-139997500D03*
%TO.P,U1,15,PA0*%
%TO.N,ADC1_IN5*%
X219510000Y-139997500D03*
%TO.P,U1,16,PA1*%
%TO.N,/BLE_MCU/QSPI_MEM_CS_L*%
X219910000Y-139997501D03*
%TO.P,U1,17,PA2*%
%TO.N,STM_LPUART_TXD_PA2*%
X220310000Y-139997500D03*
D56*
%TO.P,U1,18,PA3*%
%TO.N,/BLE_MCU/QSPI_MEM_CLK*%
X220997500Y-139310000D03*
%TO.P,U1,19,PA4*%
%TO.N,VIN_SNS_ADC1_IN9*%
X220997501Y-138910000D03*
%TO.P,U1,20,PA5*%
%TO.N,unconnected-(U1-PA5-Pad20)*%
X220997500Y-138510000D03*
%TO.P,U1,21,PA6*%
%TO.N,/BLE_MCU/QSPI_MEM_D3*%
X220997500Y-138110000D03*
%TO.P,U1,22,PA7*%
%TO.N,/BLE_MCU/QSPI_MEM_D2*%
X220997500Y-137710000D03*
%TO.P,U1,23,PA8*%
%TO.N,STM_SAI1_SCK_A*%
X220997500Y-137310001D03*
%TO.P,U1,24,PA9*%
%TO.N,STM_SAI1_FS_A*%
X220997500Y-136910000D03*
%TO.P,U1,25,PC4*%
%TO.N,unconnected-(U1-PC4-Pad25)*%
X220997500Y-136510000D03*
%TO.P,U1,26,PC5*%
%TO.N,unconnected-(U1-PC5-Pad26)*%
X220997501Y-136110000D03*
%TO.P,U1,27,PB2*%
%TO.N,unconnected-(U1-PB2-Pad27)*%
X220997500Y-135710000D03*
%TO.P,U1,28,PB10*%
%TO.N,STM_LPUART_RXD_PB10*%
X220997500Y-135310000D03*
%TO.P,U1,29,PB11*%
%TO.N,unconnected-(U1-PB11-Pad29)*%
X220997500Y-134909999D03*
%TO.P,U1,30,VDD*%
%TO.N,PP1800_ALW*%
X220997500Y-134510000D03*
%TO.P,U1,31,RF1*%
%TO.N,/BLE_MCU/STM_RF*%
X220997500Y-134110000D03*
%TO.P,U1,32,VSSRF*%
%TO.N,GND*%
X220997500Y-133710000D03*
%TO.P,U1,33,VDDRF*%
%TO.N,PP1800_ALW*%
X220997501Y-133310000D03*
%TO.P,U1,34,OSC_OUT*%
%TO.N,/BLE_MCU/OSC_OUT*%
X220997500Y-132910000D03*
D55*
%TO.P,U1,35,OSC_IN*%
%TO.N,/BLE_MCU/OSC_IN*%
X220310000Y-132222500D03*
%TO.P,U1,36,AT0*%
%TO.N,unconnected-(U1-AT0-Pad36)*%
X219910000Y-132222499D03*
%TO.P,U1,37,AT1*%
%TO.N,unconnected-(U1-AT1-Pad37)*%
X219510000Y-132222500D03*
%TO.P,U1,38,PB0*%
%TO.N,GPIO_PB0*%
X219110000Y-132222500D03*
%TO.P,U1,39,PB1*%
%TO.N,GPIO_PB1*%
X218710000Y-132222500D03*
%TO.P,U1,40,PE4*%
%TO.N,GPIO_PE4*%
X218310001Y-132222500D03*
%TO.P,U1,41,VFBSMPS*%
%TO.N,PP1800_ALW*%
X217910000Y-132222500D03*
%TO.P,U1,42,VSSSMPS*%
%TO.N,GND*%
X217510000Y-132222500D03*
%TO.P,U1,43,VLXSMPS*%
%TO.N,PP1800_ALW*%
X217110000Y-132222499D03*
%TO.P,U1,44,VDDSMPS*%
X216710000Y-132222500D03*
%TO.P,U1,45,VDD*%
X216310000Y-132222500D03*
%TO.P,U1,46,PB12*%
%TO.N,SPI2_DEV_CS_L_PB12*%
X215909999Y-132222500D03*
%TO.P,U1,47,PB13*%
%TO.N,Net-(U1-PB13)*%
X215510000Y-132222500D03*
%TO.P,U1,48,PB14*%
%TO.N,SPI2_DEV_DO_STM_DI_PB14*%
X215110000Y-132222500D03*
%TO.P,U1,49,PB15*%
%TO.N,SPI2_STM_DO_DEV_DI_PB15*%
X214710000Y-132222500D03*
%TO.P,U1,50,PC6*%
%TO.N,SPI2_DEV_DC_PC6*%
X214310000Y-132222499D03*
%TO.P,U1,51,PA10*%
%TO.N,STM_SAI1_SD_A*%
X213910000Y-132222500D03*
D56*
%TO.P,U1,52,PA11*%
%TO.N,USB_D_N*%
X213222500Y-132910000D03*
%TO.P,U1,53,PA12*%
%TO.N,USB_D_P*%
X213222499Y-133310000D03*
%TO.P,U1,54,PA13*%
%TO.N,SWD_IO*%
X213222500Y-133710000D03*
%TO.P,U1,55,VDDUSB*%
%TO.N,PP3300_VDDUSB*%
X213222500Y-134110000D03*
%TO.P,U1,56,PA14*%
%TO.N,SWD_CLK*%
X213222500Y-134510000D03*
%TO.P,U1,57,PA15*%
%TO.N,GPIO_PA15*%
X213222500Y-134909999D03*
%TO.P,U1,58,PC10*%
%TO.N,GPIO_PC10*%
X213222500Y-135310000D03*
%TO.P,U1,59,PC11*%
%TO.N,GPIO_PC11*%
X213222500Y-135710000D03*
%TO.P,U1,60,PC12*%
%TO.N,SWD_O*%
X213222499Y-136110000D03*
%TO.P,U1,61,PD0*%
%TO.N,unconnected-(U1-PD0-Pad61)*%
X213222500Y-136510000D03*
%TO.P,U1,62,PD1*%
%TO.N,unconnected-(U1-PD1-Pad62)*%
X213222500Y-136910000D03*
%TO.P,U1,63,PB3*%
%TO.N,unconnected-(U1-PB3-Pad63)*%
X213222500Y-137310001D03*
%TO.P,U1,64,PB4*%
%TO.N,/BLE_MCU/FLT_CHG_OD*%
X213222500Y-137710000D03*
%TO.P,U1,65,PB5*%
%TO.N,VIN_SNS_EN*%
X213222500Y-138110000D03*
%TO.P,U1,66,PB6*%
%TO.N,/BLE_MCU/BT_CONN_LED*%
X213222500Y-138510000D03*
%TO.P,U1,67,PB7*%
%TO.N,BAT_CHRG_FACTORY*%
X213222499Y-138910000D03*
%TO.P,U1,68,VDD*%
%TO.N,PP1800_ALW*%
X213222500Y-139310000D03*
D57*
%TO.P,U1,69,VSS*%
%TO.N,GND*%
X217110000Y-136110000D03*
%TD*%
D27*
%TO.P,C23,1*%
%TO.N,PPVAR_BAT*%
X199700000Y-143020000D03*
%TO.P,C23,2*%
%TO.N,GND*%
X199700000Y-143980000D03*
%TD*%
D17*
%TO.P,C18,1*%
%TO.N,/BLE_MCU/OSC32_OUT*%
X213970000Y-143197800D03*
%TO.P,C18,2*%
%TO.N,GND*%
X213970000Y-143837800D03*
%TD*%
D16*
%TO.P,R15,1*%
%TO.N,GND*%
X206740000Y-144880000D03*
%TO.P,R15,2*%
%TO.N,BAT_CHRG_FACTORY*%
X206100000Y-144880000D03*
%TD*%
D58*
%TO.N,GND*%
X227990000Y-137830000D03*
X227010000Y-140918334D03*
X215510000Y-134509000D03*
X230010000Y-139030000D03*
X206690000Y-139130000D03*
X205960000Y-144240000D03*
X230010000Y-144076664D03*
X230990000Y-134080000D03*
X199400000Y-144740000D03*
X226000000Y-133630000D03*
X215510000Y-137734800D03*
X198690000Y-139690000D03*
X217110000Y-137734800D03*
X228720000Y-136480000D03*
X230880000Y-143546664D03*
X225140000Y-130500000D03*
X202210000Y-132370000D03*
X227965000Y-128905000D03*
X203085700Y-141084300D03*
X227190000Y-134190000D03*
X206820000Y-136030000D03*
X203030000Y-135310000D03*
X226700000Y-136270000D03*
X230880000Y-138500000D03*
X223007016Y-139179935D03*
X230050000Y-132960000D03*
X227010000Y-138395002D03*
X209550000Y-145550000D03*
X223880000Y-133800000D03*
X223330000Y-135100000D03*
X227000000Y-130870000D03*
X222250000Y-145560000D03*
X228990000Y-143419996D03*
X224890000Y-141420000D03*
X209550000Y-129990000D03*
X230880000Y-141023332D03*
X227965000Y-130175000D03*
X221310000Y-139910000D03*
X201650000Y-144780000D03*
X217110000Y-134509000D03*
X199140000Y-139140000D03*
X223410000Y-144100000D03*
X227880000Y-136720000D03*
X228990000Y-145943332D03*
X227000000Y-132140000D03*
X215860000Y-143960000D03*
X224500000Y-143570000D03*
X214510000Y-130500000D03*
X230880000Y-144808330D03*
X230780000Y-135860000D03*
X207600000Y-132180000D03*
X224000000Y-135660000D03*
X221620000Y-143920000D03*
X230010000Y-145338330D03*
X205940000Y-143560000D03*
X222580000Y-134800000D03*
X225060000Y-133650000D03*
X226060000Y-131445000D03*
X227980000Y-141558334D03*
X226620000Y-134430000D03*
X230880000Y-146070000D03*
X204110000Y-134110000D03*
X227980000Y-146605002D03*
X228730000Y-133720000D03*
X224740000Y-136270000D03*
X203040000Y-145530000D03*
X227010000Y-142180000D03*
X215510000Y-136109200D03*
X230880000Y-139761666D03*
X202280400Y-141050000D03*
X200990000Y-133030000D03*
X204290000Y-135160000D03*
X227080000Y-133360000D03*
X227550000Y-131480000D03*
X228940000Y-129620000D03*
X199365800Y-130377000D03*
X229580000Y-132280000D03*
X229560000Y-136740000D03*
X230010000Y-140291666D03*
X225320000Y-135770000D03*
X227010000Y-139656668D03*
X229000000Y-130710000D03*
X218710000Y-134509000D03*
X225860000Y-134440000D03*
X230880000Y-142284998D03*
X199560000Y-139680000D03*
X227010000Y-144703332D03*
X227980000Y-144081666D03*
X201790000Y-145590000D03*
X230850000Y-137400000D03*
X227840000Y-133490000D03*
X209942141Y-136563091D03*
X207420000Y-145080000D03*
X217110000Y-136109200D03*
X226080000Y-135790000D03*
X230010000Y-146600000D03*
X227980000Y-145343332D03*
X227010000Y-143441666D03*
X211675000Y-135515000D03*
X228990000Y-139634998D03*
X224390000Y-134220000D03*
X229580000Y-133490000D03*
X227980000Y-142820000D03*
X230370000Y-134440000D03*
X206600000Y-138390000D03*
X218710000Y-136109200D03*
X205010000Y-134680000D03*
X228990000Y-144681662D03*
X230310000Y-133670000D03*
X230040000Y-137860000D03*
X223690000Y-136940000D03*
X227980000Y-139035002D03*
X230010000Y-142814998D03*
X227980000Y-140296668D03*
X228990000Y-138373332D03*
X218190000Y-130640000D03*
X230450000Y-132400000D03*
X214000000Y-141200000D03*
X211750000Y-140460000D03*
X230350000Y-136460000D03*
X201770000Y-138130000D03*
X223730000Y-133200000D03*
X202909300Y-131253100D03*
X228990000Y-142158330D03*
X228990000Y-140896664D03*
X227965000Y-132715000D03*
X218710000Y-137734800D03*
X214590000Y-144000000D03*
X227240000Y-136680000D03*
X230010000Y-141553332D03*
X213140000Y-131780000D03*
X199415400Y-136575800D03*
X223700000Y-140830000D03*
X226060000Y-132715000D03*
X225140000Y-134430000D03*
X229080000Y-133000000D03*
X196590000Y-133190000D03*
%TO.N,PP1800_ALW*%
X213010000Y-140020000D03*
X221590000Y-141910000D03*
X216310000Y-131460000D03*
X206470000Y-134250000D03*
X221960000Y-132710000D03*
X212320000Y-139310000D03*
X205900000Y-134240000D03*
X221950000Y-134790000D03*
X217770000Y-142000000D03*
X216890000Y-131460000D03*
%TO.N,PPVAR_SYS*%
X203380000Y-138150000D03*
X202740000Y-140270000D03*
X202770000Y-139690000D03*
%TO.N,PPVAR_BAT*%
X199400000Y-146870000D03*
X202185905Y-146934303D03*
%TO.N,PP3300_DBG*%
X207040000Y-140360000D03*
%TO.N,RESETB*%
X216650000Y-142380000D03*
X209720000Y-143020000D03*
%TO.N,PP3300_VDDUSB*%
X209340000Y-132290000D03*
X212250000Y-134180000D03*
X209720000Y-134180000D03*
%TO.N,PPVAR_VIN*%
X205480000Y-141840000D03*
X204860000Y-141850000D03*
X201093806Y-137720806D03*
X200330000Y-137690000D03*
%TO.N,VIN_SNS_ADC1_IN9*%
X222040000Y-139130000D03*
%TO.N,VBUS*%
X203530000Y-129550000D03*
X200130000Y-131180000D03*
X200390000Y-135840000D03*
X199450000Y-131200000D03*
X199710000Y-135850000D03*
X202565000Y-134110000D03*
%TO.N,Net-(U4-~{CE})*%
X200850000Y-144290000D03*
%TO.N,BAT_CHRG_FACTORY*%
X210650000Y-144850000D03*
X207080000Y-145730000D03*
%TO.N,Net-(U5-VINSW)*%
X202365000Y-137015000D03*
%TO.N,VIN_SNS_EN*%
X201010000Y-136560000D03*
X211450000Y-138380000D03*
%TO.N,FLT_CHG_ODL*%
X204750000Y-142740000D03*
%TO.N,SWD_O*%
X206960000Y-136790000D03*
X210840000Y-137260000D03*
%TO.N,/POWER/CHGR_BAT_THERM*%
X199960000Y-146130000D03*
%TO.N,Net-(U8-EN)*%
X205030000Y-132210000D03*
%TO.N,STM_LPUART_TXD_PA2*%
X221890000Y-140320000D03*
X220220000Y-131310000D03*
%TO.N,STM_LPUART_RXD_PB10*%
X223310000Y-135960000D03*
X220822453Y-131513340D03*
%TO.N,STM_SAI1_SD_A*%
X213430000Y-132350000D03*
X222929922Y-136900737D03*
%TO.N,Net-(D1-K)*%
X201630000Y-146640000D03*
%TO.N,/POWER/CHG_LED_GRN*%
X200430000Y-143490000D03*
%TO.N,Net-(U5-VOS)*%
X201560000Y-137030000D03*
X203880000Y-136700000D03*
%TO.N,/BLE_MCU/QSPI_MEM_CLK*%
X223800000Y-143580000D03*
X223070000Y-139820000D03*
%TO.N,/BLE_MCU/QSPI_MEM_D0*%
X225000000Y-143080000D03*
X216520000Y-143700000D03*
%TO.N,/BLE_MCU/QSPI_MEM_D3*%
X223540000Y-138720000D03*
X222945000Y-143615000D03*
%TO.N,/BLE_MCU/QSPI_MEM_D1*%
X215650000Y-143240000D03*
X223880000Y-141440000D03*
%TO.N,PPVAR_ADC*%
X219810000Y-141530000D03*
X219100000Y-140870000D03*
%TO.N,GPIO_PC10*%
X210900000Y-136220000D03*
X210740000Y-131980000D03*
%TO.N,GPIO_PA15*%
X211289847Y-132285471D03*
X211240000Y-135030000D03*
%TO.N,GPIO_PC11*%
X211740000Y-136790000D03*
X210160000Y-132460000D03*
%TO.N,Net-(D4-K)*%
X205055000Y-146315000D03*
%TO.N,/BLE_MCU/BT_CONN_LED*%
X210300000Y-144030000D03*
%TO.N,Net-(J5-CC2)*%
X197190000Y-134710000D03*
%TO.N,Net-(J5-CC1)*%
X197190000Y-131730000D03*
%TO.N,Net-(D5-K)*%
X204330000Y-146320000D03*
%TO.N,/BLE_MCU/FLT_CHG_OD*%
X210540000Y-138490000D03*
X210110000Y-142010000D03*
%TD*%
D14*
%TO.N,GND*%
X229484200Y-134285800D02*
X229590000Y-134180000D01*
X228727000Y-133723000D02*
X228730000Y-133720000D01*
D59*
X224880000Y-141980000D02*
X224880000Y-141430000D01*
D14*
X227240000Y-135920000D02*
X227244200Y-135915800D01*
D60*
X199362800Y-130380000D02*
X198045000Y-130380000D01*
X201060000Y-132370000D02*
X202210000Y-132370000D01*
D14*
X230280000Y-133700000D02*
X230310000Y-133670000D01*
X224610000Y-136140000D02*
X224610000Y-135730000D01*
D60*
X198045000Y-136580000D02*
X199411200Y-136580000D01*
D59*
X202990000Y-135350000D02*
X203030000Y-135310000D01*
D60*
X199411200Y-136580000D02*
X199415400Y-136575800D01*
X222250000Y-146665000D02*
X222250000Y-145560000D01*
D14*
X228727000Y-136473000D02*
X228720000Y-136480000D01*
D59*
X221620000Y-143920000D02*
X221620000Y-143400000D01*
D14*
X229464200Y-134285800D02*
X229580000Y-134170000D01*
D61*
X205470000Y-143560000D02*
X205350000Y-143440000D01*
D60*
X199365800Y-130377000D02*
X198042000Y-130377000D01*
D59*
X206745800Y-144071600D02*
X206463600Y-143789400D01*
D14*
X227820000Y-134210000D02*
X227840000Y-134190000D01*
D60*
X199700000Y-144440000D02*
X199700000Y-143980000D01*
D14*
X229830000Y-136090000D02*
X229655800Y-135915800D01*
D60*
X202180000Y-131430000D02*
X202210000Y-131460000D01*
D62*
X201769400Y-138350600D02*
X202365000Y-138350600D01*
D60*
X197670000Y-129160000D02*
X197673000Y-129157000D01*
D14*
X226710000Y-136260000D02*
X226710000Y-135750000D01*
D59*
X225140000Y-130510000D02*
X225140000Y-130500000D01*
D60*
X205010000Y-134680000D02*
X205010000Y-135290000D01*
D59*
X202280400Y-141808200D02*
X202280400Y-141050000D01*
X201650000Y-144780000D02*
X201664800Y-144765200D01*
X224840000Y-131253000D02*
X224840000Y-131230000D01*
D62*
X201770000Y-138130000D02*
X201770000Y-138350000D01*
D14*
X224830000Y-131150000D02*
X224840000Y-131150000D01*
X228768400Y-134285800D02*
X227421281Y-134285800D01*
X229860000Y-134030000D02*
X230280000Y-134030000D01*
X224740000Y-136270000D02*
X224610000Y-136140000D01*
X205960000Y-144240000D02*
X206250000Y-144240000D01*
D60*
X199400000Y-144740000D02*
X199700000Y-144440000D01*
X205010000Y-135290000D02*
X204420000Y-135290000D01*
D14*
X229560000Y-136080000D02*
X229560000Y-136740000D01*
X227240000Y-136680000D02*
X227240000Y-135920000D01*
X228727000Y-135915800D02*
X229395800Y-135915800D01*
D60*
X200990000Y-133030000D02*
X200990000Y-132300000D01*
D61*
X221715892Y-133710000D02*
X220997500Y-133710000D01*
D59*
X199720200Y-144754600D02*
X199694800Y-144780000D01*
D14*
X228727000Y-134285800D02*
X229484200Y-134285800D01*
X227840000Y-134190000D02*
X227840000Y-133490000D01*
X207420000Y-145080000D02*
X207220000Y-144880000D01*
D59*
X205430000Y-144240000D02*
X205350000Y-144160000D01*
D60*
X198045000Y-137425000D02*
X197670000Y-137800000D01*
X204420000Y-135290000D02*
X204290000Y-135160000D01*
D14*
X206250000Y-144240000D02*
X206710000Y-143780000D01*
D62*
X214500000Y-143910000D02*
X214590000Y-144000000D01*
D14*
X227895800Y-134285800D02*
X227820000Y-134210000D01*
X230280000Y-134030000D02*
X230280000Y-133700000D01*
X228014200Y-135915800D02*
X227870000Y-136060000D01*
D62*
X213990000Y-143910000D02*
X213990000Y-144640000D01*
D60*
X209550000Y-128894000D02*
X209550000Y-129990000D01*
X207600000Y-132180000D02*
X207600000Y-131510000D01*
D14*
X201664800Y-144310000D02*
X201664800Y-144729198D01*
D61*
X205940000Y-143560000D02*
X205470000Y-143560000D01*
D14*
X206040000Y-143460000D02*
X206395000Y-143460000D01*
X229395800Y-135915800D02*
X229560000Y-136080000D01*
D61*
X206489000Y-143554000D02*
X206489000Y-143800000D01*
D60*
X202356900Y-131253100D02*
X202180000Y-131430000D01*
D59*
X201664800Y-144765200D02*
X201664800Y-144729198D01*
D14*
X228727000Y-135915800D02*
X228727000Y-136473000D01*
D59*
X219510000Y-133710000D02*
X217110000Y-136110000D01*
D61*
X206395000Y-143460000D02*
X206489000Y-143554000D01*
D60*
X200990000Y-132300000D02*
X201060000Y-132370000D01*
D14*
X228727000Y-134285800D02*
X227895800Y-134285800D01*
X229590000Y-134180000D02*
X229580000Y-134170000D01*
X227870000Y-136710000D02*
X227880000Y-136720000D01*
D60*
X198045000Y-136580000D02*
X198045000Y-137425000D01*
D59*
X205960000Y-144240000D02*
X205430000Y-144240000D01*
D14*
X230200000Y-136090000D02*
X229830000Y-136090000D01*
D59*
X224840000Y-131230000D02*
X224830000Y-131220000D01*
X222627071Y-130822929D02*
X222940000Y-130510000D01*
D14*
X223730000Y-133240000D02*
X223730000Y-132620000D01*
D59*
X222940000Y-130510000D02*
X225140000Y-130510000D01*
D61*
X217510000Y-132222500D02*
X217510000Y-135710000D01*
D14*
X205940000Y-143560000D02*
X206040000Y-143460000D01*
D62*
X214000000Y-141200000D02*
X214000000Y-141857200D01*
D61*
X202190000Y-136010000D02*
X202950000Y-136010000D01*
X222630000Y-130925000D02*
X222630000Y-130910000D01*
D14*
X225140000Y-130500000D02*
X225140000Y-130840000D01*
D59*
X203085700Y-141084300D02*
X203149200Y-141147800D01*
D14*
X207220000Y-144880000D02*
X206800000Y-144880000D01*
X225140000Y-130840000D02*
X224830000Y-131150000D01*
X226700000Y-136270000D02*
X226710000Y-136260000D01*
X227244200Y-135915800D02*
X228768400Y-135915800D01*
D60*
X203030000Y-135310000D02*
X203030000Y-135930000D01*
X197673000Y-129157000D02*
X198128000Y-129157000D01*
D14*
X228727000Y-134285800D02*
X228727000Y-133723000D01*
D59*
X224880000Y-141430000D02*
X224890000Y-141420000D01*
D63*
X203490000Y-134110000D02*
X204110000Y-134110000D01*
D59*
X202950000Y-136010000D02*
X203030000Y-135930000D01*
D14*
X227870000Y-136060000D02*
X227870000Y-136710000D01*
D59*
X222620000Y-130840000D02*
X222627071Y-130822929D01*
D62*
X213990000Y-144640000D02*
X214010000Y-144660000D01*
D14*
X206710000Y-143780000D02*
X206715000Y-143780000D01*
D59*
X203149200Y-141147800D02*
X203149200Y-141808200D01*
D62*
X201770000Y-138350000D02*
X201769400Y-138350600D01*
D14*
X229604200Y-134285800D02*
X229860000Y-134030000D01*
D60*
X202210000Y-131460000D02*
X202210000Y-132370000D01*
X202909300Y-131253100D02*
X202356900Y-131253100D01*
D14*
X206535000Y-143770000D02*
X206565000Y-143800000D01*
D62*
X198045000Y-129535000D02*
X197670000Y-129160000D01*
D14*
X228768400Y-134285800D02*
X229464200Y-134285800D01*
D61*
X221890000Y-133620000D02*
X221859473Y-133650527D01*
D14*
X230350000Y-136460000D02*
X230200000Y-136310000D01*
D60*
X209140000Y-136580000D02*
X209925232Y-136580000D01*
D62*
X213990000Y-143910000D02*
X214500000Y-143910000D01*
D59*
X217510000Y-135710000D02*
X217110000Y-136110000D01*
D14*
X228727000Y-135915800D02*
X228014200Y-135915800D01*
X229655800Y-135915800D02*
X228768400Y-135915800D01*
X228768400Y-134285800D02*
X229604200Y-134285800D01*
D60*
X209925232Y-136580000D02*
X209942141Y-136563091D01*
D61*
X206489000Y-143800000D02*
X206745800Y-144056800D01*
D14*
X229580000Y-134170000D02*
X229580000Y-133490000D01*
D60*
X198045000Y-130380000D02*
X198045000Y-129535000D01*
D59*
X222620000Y-132870000D02*
X223420000Y-132870000D01*
D60*
X199365800Y-130377000D02*
X199362800Y-130380000D01*
D64*
X220997500Y-133710000D02*
X219510000Y-133710000D01*
D59*
X223420000Y-132870000D02*
X223740000Y-132550000D01*
D60*
X202909300Y-131253100D02*
X203916700Y-131253100D01*
D14*
X230780000Y-135860000D02*
X230780000Y-135750000D01*
D59*
X221620000Y-143400000D02*
X221600000Y-143380000D01*
D14*
X230200000Y-136310000D02*
X230200000Y-136090000D01*
X227421281Y-134285800D02*
G75*
G02*
X227190005Y-134189995I19J327100D01*
G01*
D61*
X221859473Y-133650527D02*
G75*
G02*
X221715892Y-133709981I-143573J143627D01*
G01*
D14*
%TO.N,PP1800_ALW*%
X221590000Y-141910000D02*
X221610000Y-141930000D01*
D61*
X217910000Y-131360000D02*
X217770000Y-131220000D01*
X222960000Y-142900000D02*
X221760000Y-142900000D01*
X221960000Y-132710000D02*
X221960000Y-132970000D01*
X223380000Y-142480000D02*
X222960000Y-142900000D01*
X217910000Y-132222500D02*
X217910000Y-131360000D01*
X221760000Y-142900000D02*
X221610000Y-142750000D01*
X217770000Y-143910000D02*
X217770000Y-142000000D01*
X216890000Y-131420000D02*
X216890000Y-131460000D01*
X221610000Y-142750000D02*
X221610000Y-142480000D01*
X217110000Y-131680000D02*
X217110000Y-132222499D01*
X217770000Y-131220000D02*
X217090000Y-131220000D01*
X216710000Y-131640000D02*
X216710000Y-132222500D01*
X221950000Y-134790000D02*
X221660000Y-134500000D01*
D14*
X213910000Y-139997500D02*
X213887500Y-140020000D01*
D61*
X221660000Y-134500000D02*
X220987500Y-134500000D01*
X221960000Y-132970000D02*
X221620000Y-133310000D01*
X217800000Y-143940000D02*
X217770000Y-143910000D01*
D14*
X213201250Y-139320000D02*
X212338750Y-139320000D01*
X221610000Y-141930000D02*
X221610000Y-142480000D01*
D61*
X216310000Y-131460000D02*
X216310000Y-132222500D01*
D14*
X213887500Y-140020000D02*
X213010000Y-140020000D01*
D61*
X216890000Y-131460000D02*
X217110000Y-131680000D01*
X221620000Y-133310000D02*
X221000000Y-133310000D01*
X216890000Y-131460000D02*
X216710000Y-131640000D01*
X217090000Y-131220000D02*
X216890000Y-131420000D01*
D59*
%TO.N,PPVAR_SYS*%
X203180600Y-137950600D02*
X202765000Y-137950600D01*
X203179400Y-138350600D02*
X202765000Y-138350600D01*
X203380000Y-138150000D02*
X203180600Y-137950600D01*
X203380000Y-138150000D02*
X203179400Y-138350600D01*
D14*
%TO.N,PPVAR_BAT*%
X202825000Y-146860000D02*
X202825000Y-146900000D01*
X202185905Y-146934303D02*
X202750697Y-146934303D01*
X202750697Y-146934303D02*
X202825000Y-146860000D01*
X200047500Y-146880000D02*
X199410000Y-146880000D01*
X199410000Y-146880000D02*
X199400000Y-146870000D01*
D65*
%TO.N,/BLE_MCU/BT_PCB_ANT*%
X231050000Y-135100800D02*
X231050000Y-135100000D01*
X229728400Y-135100800D02*
X231050000Y-135100800D01*
D60*
%TO.N,PP3300_DBG*%
X209520000Y-139500000D02*
X209140000Y-139120000D01*
X209520000Y-140820000D02*
X209520000Y-139500000D01*
X207040000Y-140360000D02*
X208080000Y-141400000D01*
X208080000Y-141400000D02*
X208940000Y-141400000D01*
X208940000Y-141400000D02*
X209520000Y-140820000D01*
D59*
%TO.N,SWD_CLK*%
X212730000Y-134510000D02*
X213222500Y-134510000D01*
X211870000Y-134670000D02*
X212570000Y-134670000D01*
X210440000Y-136820000D02*
X210440000Y-135043094D01*
X212570000Y-134670000D02*
X212730000Y-134510000D01*
X211750000Y-134550000D02*
X211870000Y-134670000D01*
X208290200Y-137850000D02*
X208920200Y-137220000D01*
X210040000Y-137220000D02*
X210440000Y-136820000D01*
X210440000Y-135043094D02*
X210933094Y-134550000D01*
X208920200Y-137220000D02*
X210040000Y-137220000D01*
X210933094Y-134550000D02*
X211750000Y-134550000D01*
X207870000Y-137850000D02*
X208290200Y-137850000D01*
%TO.N,SWD_IO*%
X207162400Y-137515600D02*
X207467200Y-137210800D01*
X208490000Y-136920000D02*
X208490000Y-134080000D01*
X208490000Y-134080000D02*
X208860000Y-133710000D01*
X208860000Y-133710000D02*
X213222500Y-133710000D01*
X207467200Y-137210800D02*
X208199200Y-137210800D01*
X207870000Y-139120000D02*
X207820000Y-139120000D01*
X207162400Y-138462400D02*
X207162400Y-137515600D01*
X208199200Y-137210800D02*
X208490000Y-136920000D01*
X207820000Y-139120000D02*
X207162400Y-138462400D01*
%TO.N,RESETB*%
X209520000Y-141650000D02*
X209970000Y-141200000D01*
X209520000Y-142820000D02*
X209520000Y-141650000D01*
X209970000Y-138680000D02*
X209140000Y-137850000D01*
X209720000Y-143020000D02*
X209520000Y-142820000D01*
X209720000Y-144770000D02*
X210820000Y-145870000D01*
X210820000Y-145870000D02*
X210820000Y-146665000D01*
X209970000Y-141200000D02*
X209970000Y-138680000D01*
X216710000Y-142320000D02*
X216710000Y-139997500D01*
X209720000Y-143020000D02*
X209720000Y-144770000D01*
X216650000Y-142380000D02*
X216710000Y-142320000D01*
D65*
%TO.N,/BLE_MCU/BT_ANT_UFL*%
X225990000Y-135110000D02*
X226590986Y-135110000D01*
X226590986Y-135110000D02*
X226593400Y-135111000D01*
X226618024Y-135100800D02*
X227767000Y-135100800D01*
X226593400Y-135111000D02*
G75*
G02*
X226618024Y-135100811I24600J-24600D01*
G01*
%TO.N,/BLE_MCU/BT_ANT_MTCH*%
X224056981Y-134870932D02*
X224039911Y-134853862D01*
D14*
X225340000Y-135100000D02*
X225216600Y-135100000D01*
D65*
X224610000Y-135100000D02*
X225315858Y-135100000D01*
D14*
X225216600Y-135100000D02*
X225206600Y-135110000D01*
D65*
X224039911Y-134853862D02*
X223774090Y-134588040D01*
X223774090Y-134588040D02*
G75*
G03*
X222620000Y-134109992I-1154090J-1154060D01*
G01*
X224610000Y-135100000D02*
G75*
G02*
X224056978Y-134870935I0J782100D01*
G01*
D14*
%TO.N,PP3300_VDDUSB*%
X212250000Y-134180000D02*
X212320000Y-134110000D01*
D66*
X212250000Y-134180000D02*
X209720000Y-134180000D01*
D60*
X209340000Y-131150000D02*
X209340000Y-132290000D01*
D14*
X212320000Y-134110000D02*
X213222500Y-134110000D01*
D60*
X208493100Y-130303100D02*
X209340000Y-131150000D01*
X206191700Y-130303100D02*
X208493100Y-130303100D01*
D59*
%TO.N,/BLE_MCU/OSC32_OUT*%
X215110000Y-139997500D02*
X215110000Y-142070000D01*
X212450000Y-143330000D02*
X212450000Y-143990000D01*
X215110000Y-142070000D02*
X213982200Y-143197800D01*
X213982200Y-143197800D02*
X213970000Y-143197800D01*
X212582200Y-143197800D02*
X212450000Y-143330000D01*
X213970000Y-143197800D02*
X212582200Y-143197800D01*
D14*
%TO.N,PPVAR_VIN*%
X208085000Y-146860000D02*
X208280000Y-146665000D01*
X206570000Y-146905000D02*
X206575000Y-146910000D01*
X206575000Y-146860000D02*
X208085000Y-146860000D01*
D60*
X200355200Y-137720800D02*
X201093800Y-137720800D01*
X201093800Y-137720800D02*
X201093806Y-137720806D01*
D14*
%TO.N,VIN_SNS_ADC1_IN9*%
X221840000Y-138930000D02*
X220777501Y-138930000D01*
X222040000Y-139130000D02*
X221840000Y-138930000D01*
D60*
%TO.N,VBUS*%
X199710000Y-135850000D02*
X199690000Y-135830000D01*
D63*
X202565000Y-134110000D02*
X201612600Y-134110000D01*
D59*
X203790000Y-129550000D02*
X203916700Y-129676700D01*
X203530000Y-129550000D02*
X203790000Y-129550000D01*
X203916700Y-129676700D02*
X203916700Y-130303100D01*
D60*
X199690000Y-135830000D02*
X198045000Y-135830000D01*
D14*
X201612600Y-134110000D02*
X201640000Y-134137400D01*
D59*
%TO.N,Net-(U4-~{CE})*%
X200850000Y-144290000D02*
X200850000Y-144259800D01*
X201193400Y-143916400D02*
X201320400Y-143916400D01*
X201320400Y-143916400D02*
X201326800Y-143910000D01*
X200850000Y-144259800D02*
X201193400Y-143916400D01*
X201326800Y-143910000D02*
X201664800Y-143910000D01*
%TO.N,Net-(U4-ILIM{slash}VSET)*%
X204460000Y-143910000D02*
X203764800Y-143910000D01*
X204710000Y-144160000D02*
X204460000Y-143910000D01*
%TO.N,Net-(U4-ISET)*%
X204640000Y-143510000D02*
X204710000Y-143440000D01*
X203764800Y-143510000D02*
X204640000Y-143510000D01*
%TO.N,BAT_CHRG_FACTORY*%
X210650000Y-144850000D02*
X210870000Y-144630000D01*
X210870000Y-140116532D02*
X212131532Y-138855000D01*
X206160000Y-145270000D02*
X206160000Y-144880000D01*
X206350000Y-145460000D02*
X206160000Y-145270000D01*
X210870000Y-144630000D02*
X210870000Y-140116532D01*
X206160000Y-144880000D02*
X205390000Y-144880000D01*
X212131532Y-138855000D02*
X213167499Y-138855000D01*
X206810000Y-145460000D02*
X206350000Y-145460000D01*
X213167499Y-138855000D02*
X213222499Y-138910000D01*
X207080000Y-145730000D02*
X206810000Y-145460000D01*
D61*
%TO.N,Net-(U5-VINSW)*%
X202365000Y-137015000D02*
X202365000Y-137550600D01*
D59*
%TO.N,VIN_SNS_EN*%
X201550000Y-136560000D02*
X202730000Y-136560000D01*
X202730000Y-136560000D02*
X202970000Y-136800000D01*
X202970000Y-136800000D02*
X202970000Y-137345600D01*
X211450000Y-138380000D02*
X211720000Y-138110000D01*
X201010000Y-136560000D02*
X201550000Y-136560000D01*
X201550000Y-136010000D02*
X201550000Y-136560000D01*
X211720000Y-138110000D02*
X213222500Y-138110000D01*
X202970000Y-137345600D02*
X202765000Y-137550600D01*
D67*
%TO.N,USB_D_N*%
X197270000Y-134030000D02*
X197470000Y-134230000D01*
X205074048Y-133998300D02*
X206062348Y-133010000D01*
X204642758Y-133998300D02*
X205074048Y-133998300D01*
X213122500Y-133010000D02*
X213222500Y-132910000D01*
X201715000Y-133572500D02*
X201796800Y-133654300D01*
X203415000Y-133572500D02*
X204216958Y-133572500D01*
X201715000Y-133572500D02*
X201339999Y-133572500D01*
X204216958Y-133572500D02*
X204642758Y-133998300D01*
X201339999Y-133572500D02*
X200914199Y-133998300D01*
X199771700Y-133233732D02*
X199406268Y-132868300D01*
X198045000Y-132730000D02*
X197430000Y-132730000D01*
X197470000Y-134230000D02*
X198045000Y-134230000D01*
X200914199Y-133998300D02*
X200450000Y-133998300D01*
X203333200Y-133654300D02*
X203415000Y-133572500D01*
X199406268Y-132868300D02*
X198933301Y-132868300D01*
X206062348Y-133010000D02*
X213122500Y-133010000D01*
X200440000Y-134000000D02*
X199970000Y-134000000D01*
X199970000Y-134000000D02*
X199771700Y-133801700D01*
X197430000Y-132730000D02*
X197270000Y-132890000D01*
X198933301Y-132868300D02*
X198795001Y-132730000D01*
X197270000Y-132890000D02*
X197270000Y-134030000D01*
X201796800Y-133654300D02*
X203333200Y-133654300D01*
X198795001Y-132730000D02*
X198045000Y-132730000D01*
X199771700Y-133801700D02*
X199771700Y-133233732D01*
D59*
%TO.N,FLT_CHG_ODL*%
X203769800Y-143105000D02*
X203764800Y-143110000D01*
D61*
X204750000Y-142740000D02*
X204570000Y-142740000D01*
X204570000Y-142740000D02*
X204205000Y-143105000D01*
X204205000Y-143105000D02*
X203769800Y-143105000D01*
D67*
%TO.N,USB_D_P*%
X205136600Y-134220000D02*
X204680000Y-134220000D01*
X207696279Y-133221689D02*
X207694590Y-133220000D01*
X199313732Y-133091700D02*
X198933301Y-133091700D01*
X201796800Y-134565700D02*
X201715000Y-134647500D01*
X198045000Y-133230000D02*
X198045000Y-133730000D01*
X200914199Y-134221700D02*
X200450000Y-134221700D01*
X199548300Y-133326268D02*
X199313732Y-133091700D01*
X201715000Y-134647500D02*
X201339999Y-134647500D01*
X201339999Y-134647500D02*
X200914199Y-134221700D01*
X200550000Y-134221700D02*
X199904048Y-134221700D01*
X213222499Y-133310000D02*
X213134188Y-133221689D01*
X203415000Y-134647500D02*
X203333200Y-134565700D01*
X206140000Y-133220000D02*
X205138300Y-134221700D01*
X199904048Y-134221700D02*
X199548300Y-133865952D01*
X199548300Y-133865952D02*
X199548300Y-133326268D01*
X213134188Y-133221689D02*
X207696279Y-133221689D01*
X204680000Y-134220000D02*
X204252500Y-134647500D01*
X205138300Y-134221700D02*
X205136600Y-134220000D01*
X204252500Y-134647500D02*
X203415000Y-134647500D01*
X203333200Y-134565700D02*
X201796800Y-134565700D01*
X198933301Y-133091700D02*
X198795001Y-133230000D01*
X198795001Y-133230000D02*
X198045000Y-133230000D01*
X207694590Y-133220000D02*
X206140000Y-133220000D01*
D59*
%TO.N,SWD_O*%
X212300000Y-136410000D02*
X212300000Y-136910000D01*
X206960000Y-136790000D02*
X207170000Y-136580000D01*
X211950000Y-137260000D02*
X210840000Y-137260000D01*
X212600000Y-136110000D02*
X212300000Y-136410000D01*
X212300000Y-136910000D02*
X211950000Y-137260000D01*
X213222499Y-136110000D02*
X212600000Y-136110000D01*
X207170000Y-136580000D02*
X207870000Y-136580000D01*
%TO.N,/BLE_MCU/OSC32_IN*%
X212450000Y-142230000D02*
X212645000Y-142425000D01*
X212450000Y-141490000D02*
X212450000Y-142230000D01*
X212645000Y-142425000D02*
X214255000Y-142425000D01*
X214710000Y-141970000D02*
X214710000Y-139997500D01*
X214255000Y-142425000D02*
X214710000Y-141970000D01*
D68*
%TO.N,I2C3_SCL*%
X217113200Y-141088136D02*
X217113200Y-144026800D01*
X214630000Y-146000000D02*
X214630000Y-146665000D01*
X217150000Y-140037501D02*
X217110000Y-139997501D01*
X215490000Y-145650000D02*
X214980000Y-145650000D01*
X217113200Y-144026800D02*
X215490000Y-145650000D01*
X217110000Y-141084936D02*
X217113200Y-141088136D01*
X217110000Y-139997501D02*
X217110000Y-141084936D01*
X214980000Y-145650000D02*
X214630000Y-146000000D01*
%TO.N,I2C3_SDA*%
X217510000Y-141060000D02*
X217510000Y-139997500D01*
X217380000Y-145340000D02*
X218410000Y-144310000D01*
X218410000Y-141960000D02*
X217510000Y-141060000D01*
X215900000Y-146100000D02*
X216660000Y-145340000D01*
X215900000Y-146665000D02*
X215900000Y-146100000D01*
X218410000Y-144310000D02*
X218410000Y-141960000D01*
X216660000Y-145340000D02*
X217380000Y-145340000D01*
D59*
%TO.N,SPI2_DEV_CS_L_PB12*%
X215909999Y-132222500D02*
X215909999Y-131869999D01*
X215800000Y-131200000D02*
X216060000Y-130940000D01*
X218494000Y-130110000D02*
X219710000Y-128894000D01*
X218030000Y-130110000D02*
X218494000Y-130110000D01*
X215800000Y-131760000D02*
X215800000Y-131200000D01*
X217200000Y-130940000D02*
X218030000Y-130110000D01*
X216060000Y-130940000D02*
X217200000Y-130940000D01*
X215909999Y-131869999D02*
X215800000Y-131760000D01*
%TO.N,SPI2_DEV_DC_PC6*%
X213450000Y-131030000D02*
X213450000Y-130070000D01*
X214626000Y-128894000D02*
X214630000Y-128894000D01*
X214310000Y-132222499D02*
X214310000Y-131640000D01*
X213450000Y-130070000D02*
X214626000Y-128894000D01*
X214310000Y-131640000D02*
X214170000Y-131500000D01*
X214170000Y-131500000D02*
X213920000Y-131500000D01*
X213920000Y-131500000D02*
X213450000Y-131030000D01*
%TO.N,SPI2_DEV_DO_STM_DI_PB14*%
X213990000Y-130750000D02*
X213990000Y-130360000D01*
X215110000Y-132222500D02*
X215110000Y-131300000D01*
X216074000Y-129990000D02*
X217170000Y-128894000D01*
X213990000Y-130360000D02*
X214360000Y-129990000D01*
X215110000Y-131300000D02*
X214770000Y-130960000D01*
X214770000Y-130960000D02*
X214200000Y-130960000D01*
X214200000Y-130960000D02*
X213990000Y-130750000D01*
X214360000Y-129990000D02*
X216074000Y-129990000D01*
%TO.N,SPI2_CLK_PB13*%
X218440000Y-129070000D02*
X218440000Y-128894000D01*
X216990000Y-130520000D02*
X218440000Y-129070000D01*
X216160000Y-130520000D02*
X216990000Y-130520000D01*
%TO.N,SPI2_STM_DO_DEV_DI_PB15*%
X214550000Y-131230000D02*
X214060000Y-131230000D01*
X213710000Y-130240000D02*
X214300000Y-129650000D01*
X215144000Y-129650000D02*
X215900000Y-128894000D01*
X214710000Y-132222500D02*
X214717000Y-132215500D01*
X214717000Y-132215500D02*
X214717000Y-131397000D01*
X214060000Y-131230000D02*
X213710000Y-130880000D01*
X213710000Y-130880000D02*
X213710000Y-130240000D01*
X214300000Y-129650000D02*
X215144000Y-129650000D01*
X214717000Y-131397000D02*
X214550000Y-131230000D01*
D14*
%TO.N,/POWER/CHGR_BAT_THERM*%
X199960000Y-146130000D02*
X203240000Y-146130000D01*
X203764800Y-145605200D02*
X203764800Y-144310000D01*
D59*
X204700000Y-144910000D02*
X203764800Y-144910000D01*
D14*
X203240000Y-146130000D02*
X203764800Y-145605200D01*
D59*
%TO.N,Net-(U8-EN)*%
X204303100Y-132203100D02*
X203916700Y-132203100D01*
X204310000Y-132210000D02*
X204303100Y-132203100D01*
X205030000Y-132210000D02*
X204310000Y-132210000D01*
D64*
%TO.N,/BLE_MCU/STM_RF*%
X220997500Y-134110000D02*
X221980000Y-134110000D01*
D59*
%TO.N,STM_LPUART_TXD_PA2*%
X220830000Y-130790000D02*
X221450000Y-130790000D01*
X221450000Y-130790000D02*
X222380000Y-129860000D01*
X221845000Y-140365000D02*
X221065000Y-140365000D01*
X221890000Y-140320000D02*
X221845000Y-140365000D01*
X220697500Y-139997500D02*
X220310000Y-139997500D01*
X220310000Y-131310000D02*
X220830000Y-130790000D01*
X222380000Y-129860000D02*
X223824000Y-129860000D01*
X220220000Y-131310000D02*
X220310000Y-131310000D01*
X221065000Y-140365000D02*
X220697500Y-139997500D01*
X223824000Y-129860000D02*
X224790000Y-128894000D01*
%TO.N,/BLE_MCU/OSC_IN*%
X223740000Y-131150000D02*
X223740000Y-131210000D01*
X221700000Y-131480000D02*
X220957500Y-132222500D01*
X223740000Y-131210000D02*
X223470000Y-131480000D01*
X220957500Y-132222500D02*
X220310000Y-132222500D01*
X223470000Y-131480000D02*
X221700000Y-131480000D01*
%TO.N,STM_SAI1_SCK_A*%
X223430000Y-146575000D02*
X223520000Y-146665000D01*
X224526446Y-137716446D02*
X225790000Y-138980000D01*
X220997500Y-137310001D02*
X222230001Y-137310001D01*
X222230001Y-137310001D02*
X222636446Y-137716446D01*
X223520000Y-145750000D02*
X223520000Y-146665000D01*
X225790000Y-138980000D02*
X225790000Y-143480000D01*
X222636446Y-137716446D02*
X224526446Y-137716446D01*
X225790000Y-143480000D02*
X223520000Y-145750000D01*
%TO.N,STM_WKUP2_PC13*%
X212040000Y-140000000D02*
X211500000Y-140000000D01*
X212090000Y-145660000D02*
X212090000Y-146665000D01*
X214310000Y-139997501D02*
X214310000Y-140560400D01*
X214310000Y-140560400D02*
X214190400Y-140680000D01*
X211190000Y-144760000D02*
X212090000Y-145660000D01*
X211190000Y-140310000D02*
X211190000Y-144760000D01*
X211500000Y-140000000D02*
X211190000Y-140310000D01*
X214190400Y-140680000D02*
X212720000Y-140680000D01*
X212720000Y-140680000D02*
X212040000Y-140000000D01*
%TO.N,ADC1_IN3*%
X217670000Y-145800000D02*
X217170000Y-146300000D01*
X218780000Y-141740000D02*
X218780000Y-143060000D01*
X217170000Y-146300000D02*
X217170000Y-146665000D01*
X217910000Y-140870000D02*
X218780000Y-141740000D01*
X218020000Y-145800000D02*
X217670000Y-145800000D01*
X219400000Y-143680000D02*
X219400000Y-144420000D01*
X219400000Y-144420000D02*
X218020000Y-145800000D01*
X218780000Y-143060000D02*
X219400000Y-143680000D01*
X217910000Y-139997500D02*
X217910000Y-140870000D01*
%TO.N,STM_LPUART_RXD_PB10*%
X222280000Y-135960000D02*
X221630000Y-135310000D01*
X223310000Y-135960000D02*
X222280000Y-135960000D01*
X222590000Y-130130000D02*
X224824000Y-130130000D01*
X221630000Y-135310000D02*
X220997500Y-135310000D01*
X221185793Y-131150000D02*
X221570000Y-131150000D01*
X221570000Y-131150000D02*
X222590000Y-130130000D01*
X224824000Y-130130000D02*
X226060000Y-128894000D01*
X220822453Y-131513340D02*
X221185793Y-131150000D01*
%TO.N,/BLE_MCU/OSC_OUT*%
X222920000Y-131930000D02*
X222700000Y-132150000D01*
X224840000Y-132550000D02*
X224840000Y-132488000D01*
X222700000Y-132150000D02*
X221560000Y-132150000D01*
X221560000Y-132150000D02*
X220997500Y-132712500D01*
X224282000Y-131930000D02*
X222920000Y-131930000D01*
X220997500Y-132712500D02*
X220997500Y-132910000D01*
X224840000Y-132488000D02*
X224282000Y-131930000D01*
X224840000Y-132653000D02*
X224840000Y-132698400D01*
%TO.N,STM_SAI1_SD_A*%
X222929922Y-136900737D02*
X223360659Y-136470000D01*
X213430000Y-132350000D02*
X213557500Y-132222500D01*
X213557500Y-132222500D02*
X213910000Y-132222500D01*
X226555000Y-146170000D02*
X226060000Y-146665000D01*
X224290000Y-136470000D02*
X226560000Y-138740000D01*
X226555000Y-139468200D02*
X226555000Y-146170000D01*
X226560000Y-138740000D02*
X226560000Y-139463200D01*
X223360659Y-136470000D02*
X224290000Y-136470000D01*
X226560000Y-139463200D02*
X226555000Y-139468200D01*
%TO.N,ADC1_IN5*%
X219568024Y-140055524D02*
X219568024Y-141098988D01*
X219710000Y-145110000D02*
X219710000Y-146665000D01*
X220120000Y-144700000D02*
X219710000Y-145110000D01*
X219568024Y-141098988D02*
X219349780Y-141317232D01*
X219510000Y-139997500D02*
X219568024Y-140055524D01*
X219349780Y-141317232D02*
X219349780Y-142659780D01*
X220120000Y-143430000D02*
X220120000Y-144700000D01*
X219349780Y-142659780D02*
X220120000Y-143430000D01*
%TO.N,ADC1_IN4*%
X219070000Y-141600000D02*
X218310001Y-140840001D01*
X219760000Y-143570000D02*
X219070000Y-142880000D01*
X219070000Y-142880000D02*
X219070000Y-141600000D01*
X219760000Y-144620000D02*
X219760000Y-143570000D01*
X218440000Y-145940000D02*
X219760000Y-144620000D01*
X218310001Y-140840001D02*
X218310001Y-139997500D01*
X218440000Y-146665000D02*
X218440000Y-145940000D01*
%TO.N,STM_SAI1_FS_A*%
X222756426Y-137436426D02*
X224766426Y-137436426D01*
X226190000Y-144170000D02*
X224790000Y-145570000D01*
X220997500Y-136910000D02*
X222230000Y-136910000D01*
X226190000Y-138860000D02*
X226190000Y-144170000D01*
X222230000Y-136910000D02*
X222756426Y-137436426D01*
X224766426Y-137436426D02*
X226190000Y-138860000D01*
X224790000Y-145570000D02*
X224790000Y-146665000D01*
D14*
%TO.N,Net-(D1-K)*%
X201390000Y-146880000D02*
X201017500Y-146880000D01*
X201630000Y-146640000D02*
X201390000Y-146880000D01*
D61*
%TO.N,/POWER/CHG_LED_GRN*%
X200450000Y-143510000D02*
X201664800Y-143510000D01*
X200430000Y-143490000D02*
X200450000Y-143510000D01*
D59*
%TO.N,Net-(U5-VOS)*%
X202005000Y-137615000D02*
X202005000Y-137315000D01*
X202005000Y-137315000D02*
X201720000Y-137030000D01*
X202340600Y-137950600D02*
X202005000Y-137615000D01*
X201720000Y-137030000D02*
X201560000Y-137030000D01*
X202365000Y-137950600D02*
X202340600Y-137950600D01*
D68*
%TO.N,/BLE_MCU/QSPI_MEM_D2*%
X222733127Y-138380000D02*
X223170000Y-138380000D01*
X222063127Y-137710000D02*
X222733127Y-138380000D01*
X224160000Y-139080000D02*
X224070000Y-139170000D01*
X223170000Y-138380000D02*
X223220000Y-138330000D01*
X224147337Y-138695570D02*
X225015570Y-138695570D01*
X223220000Y-138330000D02*
X223220000Y-138170000D01*
X224380000Y-140920000D02*
X224380000Y-141980000D01*
X224190000Y-139500000D02*
X225360000Y-139500000D01*
X223860000Y-140360000D02*
X224630000Y-140360000D01*
X220997500Y-137710000D02*
X222063127Y-137710000D01*
X223220000Y-138170000D02*
X223310000Y-138080000D01*
X224790000Y-140790000D02*
X224740000Y-140840000D01*
X224740000Y-140840000D02*
X224460000Y-140840000D01*
X224070000Y-139380000D02*
X224190000Y-139500000D01*
X225320000Y-139940000D02*
X223830000Y-139940000D01*
X225360000Y-139500000D02*
X225430000Y-139570000D01*
X223760000Y-140260000D02*
X223860000Y-140360000D01*
X224790000Y-140520000D02*
X224790000Y-140790000D01*
X225015570Y-138695570D02*
X225160000Y-138840000D01*
X224160000Y-138080000D02*
X224250000Y-138170000D01*
X224250000Y-138170000D02*
X224250000Y-138300000D01*
X224630000Y-140360000D02*
X224790000Y-140520000D01*
X225160000Y-138840000D02*
X225160000Y-138970000D01*
X224070000Y-139170000D02*
X224070000Y-139380000D01*
X225050000Y-139080000D02*
X224160000Y-139080000D01*
X224460000Y-140840000D02*
X224380000Y-140920000D01*
X225430000Y-139570000D02*
X225430000Y-139830000D01*
X225430000Y-139830000D02*
X225320000Y-139940000D01*
X224250000Y-138300000D02*
X224080000Y-138470000D01*
X224080000Y-138628233D02*
X224147337Y-138695570D01*
X224080000Y-138470000D02*
X224080000Y-138628233D01*
X225160000Y-138970000D02*
X225050000Y-139080000D01*
X223310000Y-138080000D02*
X224160000Y-138080000D01*
X223830000Y-139940000D02*
X223760000Y-140010000D01*
X223760000Y-140010000D02*
X223760000Y-140260000D01*
%TO.N,/BLE_MCU/QSPI_MEM_CLK*%
X223800000Y-143300000D02*
X224380000Y-142720000D01*
X222820000Y-140070000D02*
X222300000Y-140070000D01*
X224380000Y-142720000D02*
X224380000Y-142480000D01*
X221540000Y-139310000D02*
X220997500Y-139310000D01*
X222300000Y-140070000D02*
X221540000Y-139310000D01*
X223800000Y-143580000D02*
X223800000Y-143300000D01*
X223070000Y-139820000D02*
X222820000Y-140070000D01*
%TO.N,/BLE_MCU/QSPI_MEM_CS_L*%
X222789864Y-142119864D02*
X222930000Y-142260000D01*
X222488161Y-141017823D02*
X222488161Y-142008037D01*
X223020000Y-141630000D02*
X223120000Y-141530000D01*
X221530000Y-141375000D02*
X221382462Y-141375000D01*
X221382462Y-141375000D02*
X221119177Y-141638285D01*
X223340000Y-141450000D02*
X223340000Y-141148195D01*
X219910000Y-140964796D02*
X219910000Y-139997501D01*
X223020000Y-141850000D02*
X223020000Y-141630000D01*
X221119177Y-142278587D02*
X221012761Y-142385003D01*
X220215204Y-141270000D02*
X219910000Y-140964796D01*
X222930000Y-142260000D02*
X222930000Y-142510000D01*
X221210000Y-140810000D02*
X221120000Y-140720000D01*
X221119177Y-141638285D02*
X221119177Y-142278587D01*
X220500000Y-141670000D02*
X221210000Y-140960000D01*
X223085175Y-140893370D02*
X222612614Y-140893370D01*
X220510000Y-140720000D02*
X220430000Y-140800000D01*
X222200000Y-142660000D02*
X222084139Y-142544139D01*
X222488161Y-142008037D02*
X222599988Y-142119864D01*
X222084139Y-140994139D02*
X221940000Y-140850000D01*
X223260000Y-141530000D02*
X223340000Y-141450000D01*
X223120000Y-141530000D02*
X223260000Y-141530000D01*
X223150000Y-141980000D02*
X223020000Y-141850000D01*
X222084139Y-142544139D02*
X222084139Y-140994139D01*
X221710000Y-140850000D02*
X221630000Y-140930000D01*
X220430000Y-141170000D02*
X220330000Y-141270000D01*
X220430000Y-140800000D02*
X220430000Y-141170000D01*
X222780000Y-142660000D02*
X222200000Y-142660000D01*
X221940000Y-140850000D02*
X221710000Y-140850000D01*
X223340000Y-141148195D02*
X223085175Y-140893370D01*
X222599988Y-142119864D02*
X222789864Y-142119864D01*
X221012761Y-142385003D02*
X220905003Y-142385003D01*
X221630000Y-140930000D02*
X221630000Y-141275000D01*
X222930000Y-142510000D02*
X222780000Y-142660000D01*
X220500000Y-141980000D02*
X220500000Y-141670000D01*
X221630000Y-141275000D02*
X221530000Y-141375000D01*
X223380000Y-141980000D02*
X223150000Y-141980000D01*
X221210000Y-140960000D02*
X221210000Y-140810000D01*
X220905003Y-142385003D02*
X220500000Y-141980000D01*
X220330000Y-141270000D02*
X220215204Y-141270000D01*
X222612614Y-140893370D02*
X222488161Y-141017823D01*
X221120000Y-140720000D02*
X220510000Y-140720000D01*
%TO.N,/BLE_MCU/QSPI_MEM_D0*%
X216520000Y-143700000D02*
X216150000Y-143330000D01*
X225050000Y-143030000D02*
X225000000Y-143080000D01*
X216150000Y-143330000D02*
X216150000Y-141360000D01*
X216150000Y-141360000D02*
X216310000Y-141200000D01*
X224880000Y-142480000D02*
X225050000Y-142650000D01*
X225050000Y-142650000D02*
X225050000Y-143030000D01*
X216310000Y-141200000D02*
X216310000Y-139997500D01*
%TO.N,/BLE_MCU/QSPI_MEM_D3*%
X222581141Y-138691141D02*
X222504365Y-138614365D01*
X223880000Y-142500000D02*
X223880000Y-142480000D01*
X223540000Y-138720000D02*
X223511141Y-138691141D01*
X223511141Y-138691141D02*
X222581141Y-138691141D01*
X222504365Y-138612193D02*
X222002172Y-138110000D01*
X222945000Y-143615000D02*
X222945000Y-143435000D01*
X222945000Y-143435000D02*
X223880000Y-142500000D01*
X222002172Y-138110000D02*
X220997500Y-138110000D01*
X222504365Y-138614365D02*
X222504365Y-138612193D01*
%TO.N,/BLE_MCU/QSPI_MEM_D1*%
X215650000Y-143240000D02*
X215650000Y-142560000D01*
X215850000Y-140057499D02*
X215909999Y-139997500D01*
X215850000Y-142360000D02*
X215850000Y-140057499D01*
X223880000Y-141980000D02*
X223880000Y-141440000D01*
X215650000Y-142560000D02*
X215850000Y-142360000D01*
D59*
%TO.N,Net-(U1-PB13)*%
X215510000Y-130530000D02*
X215520000Y-130520000D01*
X215510000Y-132222500D02*
X215510000Y-130530000D01*
%TO.N,STM_BOOT0*%
X214350000Y-145380000D02*
X214650000Y-145080000D01*
X215045000Y-143811532D02*
X215040000Y-143806532D01*
X214650000Y-145080000D02*
X214650000Y-144780000D01*
X215040000Y-143806532D02*
X215040000Y-142620000D01*
X214650000Y-144780000D02*
X215045000Y-144385000D01*
X215040000Y-142620000D02*
X215510000Y-142150000D01*
X215045000Y-144385000D02*
X215045000Y-143811532D01*
X215510000Y-142150000D02*
X215510000Y-139997500D01*
X213360000Y-145930000D02*
X213910000Y-145380000D01*
X213360000Y-146665000D02*
X213360000Y-145930000D01*
X213910000Y-145380000D02*
X214350000Y-145380000D01*
D60*
%TO.N,PPVAR_ADC*%
X219810000Y-142250000D02*
X220710000Y-143150000D01*
D59*
X219110000Y-140860000D02*
X219100000Y-140870000D01*
D60*
X220980000Y-144670000D02*
X220980000Y-146665000D01*
X220710000Y-143150000D02*
X220710000Y-144400000D01*
X219810000Y-141530000D02*
X219810000Y-142250000D01*
X220710000Y-144400000D02*
X220980000Y-144670000D01*
D14*
X219110000Y-139997500D02*
X219110000Y-140860000D01*
D59*
%TO.N,GPIO_PC10*%
X211662167Y-136220000D02*
X212502167Y-135380000D01*
X213152500Y-135380000D02*
X213222500Y-135310000D01*
X212502167Y-135380000D02*
X213152500Y-135380000D01*
X210740000Y-131980000D02*
X210740000Y-130244000D01*
X210740000Y-130244000D02*
X212090000Y-128894000D01*
X210900000Y-136220000D02*
X211662167Y-136220000D01*
%TO.N,GPIO_PA15*%
X212790001Y-134909999D02*
X213222500Y-134909999D01*
X211240000Y-135030000D02*
X212670000Y-135030000D01*
X211289847Y-132285471D02*
X211289847Y-130964153D01*
X212670000Y-135030000D02*
X212790001Y-134909999D01*
X211289847Y-130964153D02*
X213360000Y-128894000D01*
%TO.N,GPIO_PC11*%
X210160000Y-132460000D02*
X210160000Y-129554000D01*
X210160000Y-129554000D02*
X210820000Y-128894000D01*
X212080000Y-136240000D02*
X212610000Y-135710000D01*
X212080000Y-136450000D02*
X212080000Y-136240000D01*
X211740000Y-136790000D02*
X212080000Y-136450000D01*
X212610000Y-135710000D02*
X213222500Y-135710000D01*
%TO.N,GPIO_PB0*%
X222105000Y-129620000D02*
X222794000Y-129620000D01*
X219110000Y-132222500D02*
X219110000Y-131550000D01*
X219110000Y-131550000D02*
X220140000Y-130520000D01*
X220140000Y-130520000D02*
X221205000Y-130520000D01*
X222794000Y-129620000D02*
X223520000Y-128894000D01*
X221205000Y-130520000D02*
X222105000Y-129620000D01*
%TO.N,GPIO_PB1*%
X220894000Y-130250000D02*
X219850000Y-130250000D01*
X222250000Y-128894000D02*
X220894000Y-130250000D01*
X218710000Y-131390000D02*
X218710000Y-132222500D01*
X219850000Y-130250000D02*
X218710000Y-131390000D01*
D14*
%TO.N,Net-(D4-K)*%
X205600000Y-146860000D02*
X205605000Y-146860000D01*
X205055000Y-146315000D02*
X205600000Y-146860000D01*
D59*
%TO.N,/BLE_MCU/BT_CONN_LED*%
X210570000Y-139980000D02*
X212040000Y-138510000D01*
X210300000Y-144030000D02*
X210570000Y-143760000D01*
X212040000Y-138510000D02*
X213222500Y-138510000D01*
X210570000Y-143760000D02*
X210570000Y-139980000D01*
%TO.N,GPIO_PE4*%
X220400000Y-129780000D02*
X220980000Y-129200000D01*
X218310001Y-132222500D02*
X218310001Y-131199999D01*
X219730000Y-129780000D02*
X220400000Y-129780000D01*
X220980000Y-129200000D02*
X220980000Y-128894000D01*
X220980000Y-128910000D02*
X220980000Y-128894000D01*
X218310001Y-131199999D02*
X219730000Y-129780000D01*
%TO.N,Net-(J5-CC2)*%
X197190000Y-134710000D02*
X197207000Y-134727000D01*
X197207000Y-134727000D02*
X198503000Y-134727000D01*
%TO.N,Net-(J5-CC1)*%
X197190000Y-131730000D02*
X197193000Y-131727000D01*
X197193000Y-131727000D02*
X198503000Y-131727000D01*
D14*
%TO.N,Net-(D5-K)*%
X204330000Y-146320000D02*
X203795000Y-146855000D01*
X203795000Y-146855000D02*
X203795000Y-146860000D01*
D59*
%TO.N,/BLE_MCU/FLT_CHG_OD*%
X210540000Y-138490000D02*
X210540000Y-138416532D01*
X210110000Y-142010000D02*
X210250000Y-141870000D01*
X210540000Y-138416532D02*
X211246532Y-137710000D01*
X211246532Y-137710000D02*
X213222500Y-137710000D01*
X210250000Y-141870000D02*
X210250000Y-138780000D01*
X210250000Y-138780000D02*
X210540000Y-138490000D01*
%TD*%
%TA.AperFunction,Conductor*%
%TO.N,VBUS*%
G36*
X200918039Y-135389685D02*
G01*
X200963794Y-135442489D01*
X200975000Y-135494000D01*
X200975000Y-136050662D01*
X200955315Y-136117701D01*
X200902511Y-136163456D01*
X200889324Y-136168591D01*
X200883449Y-136170500D01*
X200769273Y-136228676D01*
X200766715Y-136230535D01*
X200763082Y-136231830D01*
X200760582Y-136233105D01*
X200760417Y-136232781D01*
X200700908Y-136254011D01*
X200694203Y-136254212D01*
X199711100Y-136257129D01*
X199654437Y-136243615D01*
X199541951Y-136186300D01*
X199415403Y-136166258D01*
X199415397Y-136166258D01*
X199288848Y-136186300D01*
X199288847Y-136186300D01*
X199244158Y-136209071D01*
X199230588Y-136215985D01*
X199174295Y-136229500D01*
X198916844Y-136229500D01*
X198849805Y-136209815D01*
X198804050Y-136157011D01*
X198792844Y-136105377D01*
X198793449Y-135493877D01*
X198813200Y-135426857D01*
X198866049Y-135381155D01*
X198917449Y-135370000D01*
X200851000Y-135370000D01*
X200918039Y-135389685D01*
G37*
%TD.AperFunction*%
%TD*%
%TA.AperFunction,Conductor*%
%TO.N,VBUS*%
G36*
X203571186Y-130010019D02*
G01*
X204369375Y-130023233D01*
X204436079Y-130044025D01*
X204480954Y-130097579D01*
X204491258Y-130151212D01*
X204482270Y-130429996D01*
X204460435Y-130496366D01*
X204406184Y-130540396D01*
X204358334Y-130550000D01*
X203230000Y-130550000D01*
X202986564Y-130802130D01*
X202925837Y-130836685D01*
X202897358Y-130840000D01*
X200510000Y-130840000D01*
X200500000Y-130280000D01*
X200775629Y-130048826D01*
X200839642Y-130020830D01*
X200854854Y-130019837D01*
X203568797Y-130010004D01*
X203571186Y-130010019D01*
G37*
%TD.AperFunction*%
%TD*%
%TA.AperFunction,Conductor*%
%TO.N,Net-(U5-SW)*%
G36*
X205783771Y-138360829D02*
G01*
X205790800Y-138377800D01*
X205790800Y-139168000D01*
X205783771Y-139184971D01*
X205766800Y-139192000D01*
X203286659Y-139192000D01*
X203269688Y-139184971D01*
X203269079Y-139184338D01*
X202945712Y-138836400D01*
X202766800Y-138836400D01*
X202749829Y-138829371D01*
X202742800Y-138812400D01*
X202742800Y-138682600D01*
X202749829Y-138665629D01*
X202766800Y-138658600D01*
X202947952Y-138658600D01*
X202947953Y-138658600D01*
X203109586Y-138508513D01*
X203125917Y-138502100D01*
X203149265Y-138502100D01*
X203174286Y-138502100D01*
X203185182Y-138504716D01*
X203253442Y-138539497D01*
X203253443Y-138539497D01*
X203253445Y-138539498D01*
X203380000Y-138559542D01*
X203506555Y-138539498D01*
X203620723Y-138481326D01*
X203711326Y-138390723D01*
X203723462Y-138366905D01*
X203737429Y-138354975D01*
X203744846Y-138353800D01*
X205766800Y-138353800D01*
X205783771Y-138360829D01*
G37*
%TD.AperFunction*%
%TD*%
%TA.AperFunction,Conductor*%
%TO.N,VBUS*%
G36*
X200510000Y-130840000D02*
G01*
X201800000Y-130840000D01*
X201386264Y-131287511D01*
X201346817Y-131330178D01*
X201286853Y-131366040D01*
X201255767Y-131370000D01*
X200520000Y-131370000D01*
X200333492Y-131514119D01*
X200268410Y-131539534D01*
X200257674Y-131540000D01*
X198889550Y-131540000D01*
X198822511Y-131520315D01*
X198799401Y-131501142D01*
X198666100Y-131360000D01*
X197984000Y-131360000D01*
X197916961Y-131340315D01*
X197871206Y-131287511D01*
X197860000Y-131236000D01*
X197860000Y-131034000D01*
X197879685Y-130966961D01*
X197932489Y-130921206D01*
X197984000Y-130910000D01*
X199130782Y-130910000D01*
X199130783Y-130910000D01*
X199214887Y-130818644D01*
X199274772Y-130782659D01*
X199325506Y-130780160D01*
X199365800Y-130786542D01*
X199365800Y-130786541D01*
X199365801Y-130786542D01*
X199365803Y-130786542D01*
X199492351Y-130766499D01*
X199492352Y-130766498D01*
X199492355Y-130766498D01*
X199606523Y-130708326D01*
X199697126Y-130617723D01*
X199755298Y-130503555D01*
X199774138Y-130384603D01*
X199804067Y-130321468D01*
X199863378Y-130284536D01*
X199896611Y-130280000D01*
X200499999Y-130280000D01*
X200500000Y-130280000D01*
X200510000Y-130840000D01*
G37*
%TD.AperFunction*%
%TD*%
%TA.AperFunction,Conductor*%
%TO.N,GND*%
G36*
X203257829Y-140773829D02*
G01*
X203497771Y-141013771D01*
X203504800Y-141030742D01*
X203504800Y-142153858D01*
X203497771Y-142170828D01*
X203403200Y-142265399D01*
X203403200Y-145673308D01*
X203396171Y-145690279D01*
X203163979Y-145922471D01*
X203147008Y-145929500D01*
X200326528Y-145929500D01*
X200309557Y-145922471D01*
X200305144Y-145916396D01*
X200291328Y-145889280D01*
X200291327Y-145889279D01*
X200291326Y-145889277D01*
X200200723Y-145798674D01*
X200200720Y-145798672D01*
X200200719Y-145798671D01*
X200086557Y-145740502D01*
X199960000Y-145720458D01*
X199833442Y-145740502D01*
X199719280Y-145798671D01*
X199628671Y-145889280D01*
X199570502Y-146003442D01*
X199550458Y-146130000D01*
X199570502Y-146256557D01*
X199611747Y-146337504D01*
X199613188Y-146355816D01*
X199601259Y-146369784D01*
X199590363Y-146372400D01*
X196725142Y-146372400D01*
X196708171Y-146365371D01*
X196298229Y-145955429D01*
X196291200Y-145938458D01*
X196291200Y-145043942D01*
X196298229Y-145026971D01*
X196792171Y-144533029D01*
X196809142Y-144526000D01*
X200504010Y-144526000D01*
X200520979Y-144533028D01*
X200609277Y-144621326D01*
X200609279Y-144621327D01*
X200609280Y-144621328D01*
X200723442Y-144679497D01*
X200723443Y-144679497D01*
X200723445Y-144679498D01*
X200850000Y-144699542D01*
X200976555Y-144679498D01*
X201090723Y-144621326D01*
X201179020Y-144533028D01*
X201195990Y-144526000D01*
X201955398Y-144526000D01*
X201955400Y-144526000D01*
X202057000Y-144424400D01*
X202057000Y-142341600D01*
X201860829Y-142145429D01*
X201853800Y-142128458D01*
X201853800Y-141081542D01*
X201860829Y-141064571D01*
X202151571Y-140773829D01*
X202168542Y-140766800D01*
X203240858Y-140766800D01*
X203257829Y-140773829D01*
G37*
%TD.AperFunction*%
%TD*%
%TA.AperFunction,Conductor*%
%TO.N,PPVAR_BAT*%
G36*
X199651029Y-140570629D02*
G01*
X200485971Y-141405571D01*
X200493000Y-141422542D01*
X200493000Y-142119927D01*
X201460000Y-143027400D01*
X201753600Y-143027400D01*
X201770571Y-143034429D01*
X201777600Y-143051400D01*
X201777600Y-143165800D01*
X201770571Y-143182771D01*
X201753600Y-143189800D01*
X201396600Y-143189800D01*
X201282028Y-143304371D01*
X201265058Y-143311400D01*
X200807687Y-143311400D01*
X200790716Y-143304371D01*
X200786303Y-143298296D01*
X200761328Y-143249280D01*
X200761327Y-143249279D01*
X200761326Y-143249277D01*
X200670723Y-143158674D01*
X200670720Y-143158672D01*
X200670719Y-143158671D01*
X200556557Y-143100502D01*
X200430000Y-143080458D01*
X200303442Y-143100502D01*
X200189280Y-143158671D01*
X200098671Y-143249280D01*
X200073697Y-143298296D01*
X200059729Y-143310225D01*
X200052313Y-143311400D01*
X199277542Y-143311400D01*
X199260571Y-143304371D01*
X198983599Y-143027399D01*
X198501000Y-142544800D01*
X198500999Y-142544800D01*
X196250342Y-142544800D01*
X196233371Y-142537771D01*
X196069629Y-142374029D01*
X196062600Y-142357058D01*
X196062600Y-140929142D01*
X196069629Y-140912171D01*
X196411171Y-140570629D01*
X196428142Y-140563600D01*
X199634058Y-140563600D01*
X199651029Y-140570629D01*
G37*
%TD.AperFunction*%
%TD*%
%TA.AperFunction,Conductor*%
%TO.N,GND*%
G36*
X199512229Y-137040029D02*
G01*
X199801909Y-137329709D01*
X199808937Y-137346480D01*
X199816893Y-138299999D01*
X199816893Y-138299998D01*
X199816894Y-138300000D01*
X201280000Y-138297600D01*
X201604539Y-138122938D01*
X201616202Y-138120075D01*
X201939225Y-138124000D01*
X201952484Y-138128192D01*
X202056836Y-138199614D01*
X202199996Y-138297598D01*
X202199998Y-138297599D01*
X202200000Y-138297600D01*
X202388600Y-138297600D01*
X202405571Y-138304629D01*
X202412600Y-138321600D01*
X202412600Y-138386000D01*
X202405571Y-138402971D01*
X202388600Y-138410000D01*
X202259557Y-138410000D01*
X200657340Y-139951694D01*
X200640699Y-139958400D01*
X198524299Y-139958400D01*
X198507624Y-139951661D01*
X196755725Y-138259276D01*
X196748404Y-138242430D01*
X196748400Y-138242015D01*
X196748400Y-137423942D01*
X196755429Y-137406971D01*
X196995871Y-137166529D01*
X197012842Y-137159500D01*
X197018000Y-137159500D01*
X197018001Y-137159500D01*
X197159029Y-137121712D01*
X197285471Y-137048711D01*
X197289813Y-137044369D01*
X197294154Y-137040029D01*
X197311124Y-137033000D01*
X199495258Y-137033000D01*
X199512229Y-137040029D01*
G37*
%TD.AperFunction*%
%TD*%
%TA.AperFunction,Conductor*%
%TO.N,Net-(U5-VOS)*%
G36*
X204196797Y-135562480D02*
G01*
X204196814Y-135562497D01*
X204204786Y-135570468D01*
X204204788Y-135570470D01*
X204284712Y-135616614D01*
X204373856Y-135640500D01*
X204373857Y-135640500D01*
X204466144Y-135640500D01*
X204699968Y-135640500D01*
X204713302Y-135644545D01*
X204776160Y-135686546D01*
X204844442Y-135700128D01*
X204846312Y-135700500D01*
X204846316Y-135700500D01*
X205173684Y-135700500D01*
X205173688Y-135700500D01*
X205243839Y-135686546D01*
X205272733Y-135667239D01*
X205290746Y-135663656D01*
X205306019Y-135673861D01*
X205310064Y-135687197D01*
X205310000Y-136590000D01*
X205782589Y-137002827D01*
X205790746Y-137019286D01*
X205790800Y-137020902D01*
X205790800Y-137593200D01*
X205783771Y-137610171D01*
X205766800Y-137617200D01*
X203692884Y-137617200D01*
X203675913Y-137610171D01*
X203668884Y-137593316D01*
X203659116Y-135580088D01*
X203666063Y-135563087D01*
X203682998Y-135555975D01*
X204179821Y-135555468D01*
X204196797Y-135562480D01*
G37*
%TD.AperFunction*%
%TD*%
%TA.AperFunction,Conductor*%
%TO.N,PP1800_ALW*%
G36*
X206672971Y-133967029D02*
G01*
X206680000Y-133984000D01*
X206680000Y-135632644D01*
X206672971Y-135649615D01*
X206666896Y-135654028D01*
X206579280Y-135698671D01*
X206488671Y-135789280D01*
X206430502Y-135903442D01*
X206410458Y-136030000D01*
X206430502Y-136156557D01*
X206488671Y-136270719D01*
X206488672Y-136270720D01*
X206488674Y-136270723D01*
X206503401Y-136285450D01*
X206510430Y-136302420D01*
X206506412Y-136315714D01*
X206329176Y-136582114D01*
X206313923Y-136592349D01*
X206309606Y-136592816D01*
X205750254Y-136602423D01*
X205733165Y-136595686D01*
X205732785Y-136595310D01*
X205513988Y-136374260D01*
X205507045Y-136357268D01*
X205516478Y-134298894D01*
X205523585Y-134281957D01*
X205523657Y-134281886D01*
X205844243Y-133966881D01*
X205861064Y-133960000D01*
X206656000Y-133960000D01*
X206672971Y-133967029D01*
G37*
%TD.AperFunction*%
%TD*%
%TA.AperFunction,Conductor*%
%TO.N,PPVAR_VIN*%
G36*
X201311762Y-137357496D02*
G01*
X201319275Y-137361324D01*
X201319277Y-137361326D01*
X201369983Y-137387162D01*
X201420779Y-137435137D01*
X201437683Y-137496632D01*
X201439695Y-137742754D01*
X201420559Y-137809952D01*
X201419730Y-137811247D01*
X201236662Y-138093479D01*
X201183666Y-138139011D01*
X201132631Y-138150000D01*
X200128965Y-138150000D01*
X200061926Y-138130315D01*
X200016171Y-138077511D01*
X200004968Y-138026905D01*
X200003384Y-137809952D01*
X200000910Y-137470943D01*
X200020105Y-137403763D01*
X200072574Y-137357624D01*
X200124676Y-137346039D01*
X201255244Y-137343980D01*
X201311762Y-137357496D01*
G37*
%TD.AperFunction*%
%TD*%
%TA.AperFunction,Conductor*%
%TO.N,PPVAR_SYS*%
G36*
X202430971Y-138716429D02*
G01*
X202438000Y-138733400D01*
X202438000Y-138880000D01*
X203006629Y-139493944D01*
X203013020Y-139510412D01*
X203006257Y-140526226D01*
X202999115Y-140543149D01*
X202982325Y-140550066D01*
X202195343Y-140552257D01*
X202195342Y-140552258D01*
X201701400Y-141046200D01*
X201701400Y-142163800D01*
X201795971Y-142258371D01*
X201803000Y-142275341D01*
X201803000Y-142774800D01*
X201795971Y-142791771D01*
X201779000Y-142798800D01*
X201427142Y-142798800D01*
X201410171Y-142791771D01*
X200639429Y-142021029D01*
X200632400Y-142004058D01*
X200632400Y-140405817D01*
X200639429Y-140388846D01*
X200640116Y-140388187D01*
X202285600Y-138871761D01*
X202285600Y-138733400D01*
X202292629Y-138716429D01*
X202309600Y-138709400D01*
X202414000Y-138709400D01*
X202430971Y-138716429D01*
G37*
%TD.AperFunction*%
%TD*%
%TA.AperFunction,Conductor*%
%TO.N,PPVAR_VIN*%
G36*
X207314605Y-141130288D02*
G01*
X207314647Y-141130329D01*
X207864788Y-141680470D01*
X207944712Y-141726614D01*
X208033856Y-141750500D01*
X208033857Y-141750500D01*
X208068710Y-141750500D01*
X208085679Y-141757528D01*
X209041299Y-142723348D01*
X209213481Y-142897367D01*
X209220421Y-142914177D01*
X209227377Y-145290561D01*
X209220397Y-145307552D01*
X209218676Y-145309273D01*
X209218673Y-145309277D01*
X209160502Y-145423442D01*
X209140458Y-145550000D01*
X209160502Y-145676557D01*
X209218672Y-145790721D01*
X209218673Y-145790722D01*
X209221872Y-145793922D01*
X209228900Y-145810821D01*
X209229869Y-146141824D01*
X209222889Y-146158815D01*
X209220479Y-146160934D01*
X209121725Y-146236711D01*
X209121716Y-146236720D01*
X209025464Y-146362158D01*
X209025461Y-146362164D01*
X208964957Y-146508232D01*
X208964956Y-146508236D01*
X208944318Y-146665000D01*
X208964956Y-146821763D01*
X208964957Y-146821767D01*
X209025461Y-146967835D01*
X209025464Y-146967841D01*
X209121718Y-147093282D01*
X209223549Y-147171419D01*
X209232734Y-147187327D01*
X209232939Y-147190389D01*
X209233085Y-147239929D01*
X209226106Y-147256920D01*
X209209156Y-147264000D01*
X207620267Y-147264000D01*
X207603296Y-147256971D01*
X207596267Y-147240136D01*
X207587391Y-145676557D01*
X207586185Y-145464145D01*
X207593118Y-145447137D01*
X207599285Y-145442630D01*
X207640834Y-145421459D01*
X207660718Y-145411329D01*
X207660718Y-145411328D01*
X207660723Y-145411326D01*
X207751326Y-145320723D01*
X207809498Y-145206555D01*
X207829542Y-145080000D01*
X207809498Y-144953445D01*
X207809497Y-144953443D01*
X207809497Y-144953442D01*
X207751328Y-144839280D01*
X207751327Y-144839279D01*
X207751326Y-144839277D01*
X207660723Y-144748674D01*
X207660720Y-144748672D01*
X207660719Y-144748671D01*
X207594917Y-144715143D01*
X207582988Y-144701175D01*
X207581813Y-144693895D01*
X207574209Y-143354209D01*
X206710000Y-142490000D01*
X206709999Y-142490000D01*
X205081991Y-142490000D01*
X205065021Y-142482971D01*
X204990721Y-142408672D01*
X204876557Y-142350502D01*
X204750000Y-142330458D01*
X204623442Y-142350502D01*
X204509280Y-142408671D01*
X204418671Y-142499280D01*
X204360501Y-142613444D01*
X204360501Y-142613445D01*
X204345187Y-142710133D01*
X204338454Y-142723348D01*
X204270033Y-142791770D01*
X204253062Y-142798800D01*
X203692542Y-142798800D01*
X203675571Y-142791771D01*
X203664229Y-142780429D01*
X203657200Y-142763458D01*
X203657200Y-141614942D01*
X203664229Y-141597971D01*
X204124163Y-141138036D01*
X204141072Y-141131008D01*
X207297618Y-141123300D01*
X207314605Y-141130288D01*
G37*
%TD.AperFunction*%
%TD*%
%TA.AperFunction,Conductor*%
%TO.N,GND*%
G36*
X222487026Y-134475023D02*
G01*
X222564256Y-134497700D01*
X222564257Y-134497700D01*
X222615125Y-134497700D01*
X222624853Y-134498081D01*
X222804942Y-134512255D01*
X222824158Y-134515299D01*
X222847092Y-134520805D01*
X222995056Y-134556328D01*
X223013559Y-134562340D01*
X223175941Y-134629602D01*
X223193272Y-134638433D01*
X223315114Y-134713100D01*
X223343131Y-134730269D01*
X223358873Y-134741707D01*
X223496317Y-134859098D01*
X223503452Y-134865693D01*
X223539357Y-134901599D01*
X223539358Y-134901599D01*
X223556797Y-134919039D01*
X223556800Y-134919041D01*
X223739082Y-135101324D01*
X223739103Y-135101347D01*
X223741338Y-135103582D01*
X223741342Y-135103590D01*
X223782836Y-135145082D01*
X223782836Y-135145083D01*
X223847936Y-135210181D01*
X223996900Y-135318408D01*
X224158839Y-135400919D01*
X224160959Y-135401999D01*
X224160963Y-135402001D01*
X224336072Y-135458895D01*
X224336075Y-135458896D01*
X224517936Y-135487700D01*
X224517937Y-135487700D01*
X225366898Y-135487700D01*
X225366900Y-135487700D01*
X225454506Y-135464224D01*
X225486600Y-135460000D01*
X225788461Y-135460000D01*
X225835914Y-135469439D01*
X225840349Y-135471276D01*
X225840351Y-135471276D01*
X225840354Y-135471278D01*
X225938958Y-135497700D01*
X226552267Y-135497700D01*
X226568454Y-135498761D01*
X226593388Y-135502044D01*
X226593388Y-135502043D01*
X226593389Y-135502044D01*
X226596452Y-135502044D01*
X226617530Y-135501416D01*
X226621343Y-135501689D01*
X226631028Y-135499582D01*
X226641201Y-135497809D01*
X226642021Y-135497701D01*
X226642025Y-135497700D01*
X226642028Y-135497700D01*
X226649261Y-135495760D01*
X226665168Y-135492596D01*
X226688254Y-135489558D01*
X226704422Y-135488500D01*
X227355211Y-135488500D01*
X227422250Y-135508185D01*
X227468005Y-135560989D01*
X227477949Y-135630147D01*
X227473141Y-135650820D01*
X227463400Y-135680795D01*
X227463400Y-136350805D01*
X227468537Y-136383242D01*
X227468539Y-136383247D01*
X227506681Y-136435745D01*
X227506682Y-136435746D01*
X227568398Y-136455799D01*
X227568401Y-136455800D01*
X228318405Y-136455800D01*
X228350842Y-136450662D01*
X228350847Y-136450660D01*
X228403345Y-136412518D01*
X228403346Y-136412517D01*
X228423399Y-136350801D01*
X228423400Y-136350798D01*
X228423400Y-136329800D01*
X228443085Y-136262761D01*
X228495889Y-136217006D01*
X228547400Y-136205800D01*
X228989400Y-136205800D01*
X229056439Y-136225485D01*
X229102194Y-136278289D01*
X229113400Y-136329800D01*
X229113400Y-136350805D01*
X229118537Y-136383242D01*
X229118539Y-136383247D01*
X229156681Y-136435745D01*
X229156682Y-136435746D01*
X229218398Y-136455799D01*
X229218401Y-136455800D01*
X229968405Y-136455800D01*
X230000842Y-136450662D01*
X230000847Y-136450660D01*
X230053345Y-136412518D01*
X230053346Y-136412517D01*
X230073399Y-136350801D01*
X230073400Y-136350798D01*
X230073400Y-135880805D01*
X230073398Y-135880777D01*
X230072107Y-135864374D01*
X230042646Y-135806555D01*
X230042641Y-135806548D01*
X229936274Y-135700181D01*
X229902789Y-135638858D01*
X229907773Y-135569166D01*
X229949645Y-135513233D01*
X230015109Y-135488816D01*
X230023955Y-135488500D01*
X231101042Y-135488500D01*
X231115129Y-135484725D01*
X231147226Y-135480499D01*
X231177600Y-135480499D01*
X231244639Y-135500184D01*
X231290394Y-135552988D01*
X231301600Y-135604499D01*
X231301600Y-147149500D01*
X231281915Y-147216539D01*
X231229111Y-147262294D01*
X231177600Y-147273500D01*
X226813943Y-147273500D01*
X226746904Y-147253815D01*
X226701149Y-147201011D01*
X226689944Y-147149082D01*
X226692948Y-146257097D01*
X226702388Y-146210062D01*
X226706499Y-146200137D01*
X226706500Y-146200135D01*
X226706500Y-146139865D01*
X226706500Y-142233867D01*
X226706501Y-142233449D01*
X226718842Y-138569671D01*
X226718841Y-138569670D01*
X226718842Y-138569670D01*
X224380000Y-136250000D01*
X223817063Y-136250000D01*
X223750024Y-136230315D01*
X223704269Y-136177511D01*
X223694325Y-136108353D01*
X223699133Y-136087679D01*
X223699499Y-136086551D01*
X223719542Y-135960003D01*
X223719542Y-135959996D01*
X223699499Y-135833448D01*
X223699498Y-135833446D01*
X223699498Y-135833445D01*
X223641326Y-135719277D01*
X223641322Y-135719273D01*
X223641321Y-135719271D01*
X223550728Y-135628678D01*
X223550725Y-135628676D01*
X223550723Y-135628674D01*
X223436555Y-135570502D01*
X223436554Y-135570501D01*
X223436551Y-135570500D01*
X223310003Y-135550458D01*
X223309997Y-135550458D01*
X223183448Y-135570500D01*
X223157148Y-135583901D01*
X223069277Y-135628674D01*
X223069276Y-135628675D01*
X223069271Y-135628678D01*
X222978675Y-135719274D01*
X222967710Y-135740795D01*
X222919735Y-135791591D01*
X222857225Y-135808500D01*
X222394115Y-135808500D01*
X222327076Y-135788815D01*
X222306434Y-135772181D01*
X221935440Y-135401187D01*
X221901955Y-135339864D01*
X221906939Y-135270172D01*
X221948811Y-135214239D01*
X222003721Y-135191033D01*
X222076555Y-135179498D01*
X222190723Y-135121326D01*
X222281326Y-135030723D01*
X222339498Y-134916555D01*
X222341867Y-134901599D01*
X222359542Y-134790003D01*
X222359542Y-134789996D01*
X222339499Y-134663448D01*
X222339498Y-134663446D01*
X222339498Y-134663445D01*
X222332797Y-134650295D01*
X222319901Y-134581627D01*
X222346176Y-134516887D01*
X222403282Y-134476629D01*
X222443282Y-134470000D01*
X222452091Y-134470000D01*
X222487026Y-134475023D01*
G37*
%TD.AperFunction*%
%TA.AperFunction,Conductor*%
G36*
X228973058Y-128317561D02*
G01*
X229035388Y-128325767D01*
X229066654Y-128334144D01*
X229117171Y-128355069D01*
X229145197Y-128371250D01*
X229188577Y-128404536D01*
X229211463Y-128427422D01*
X229221498Y-128440500D01*
X229244747Y-128470798D01*
X229260933Y-128498833D01*
X229281855Y-128549345D01*
X229290232Y-128580609D01*
X229298439Y-128642940D01*
X229299500Y-128659127D01*
X229299500Y-131181405D01*
X229299500Y-131229000D01*
X229299500Y-131310846D01*
X229327925Y-131472050D01*
X229383911Y-131625869D01*
X229458205Y-131754552D01*
X229465758Y-131767633D01*
X229474877Y-131778500D01*
X229570975Y-131893025D01*
X229657285Y-131965448D01*
X229677554Y-131982456D01*
X229696370Y-131998244D01*
X229838131Y-132080089D01*
X229991950Y-132136075D01*
X230153154Y-132164500D01*
X230153156Y-132164500D01*
X231177600Y-132164500D01*
X231244639Y-132184185D01*
X231290394Y-132236989D01*
X231301600Y-132288500D01*
X231301600Y-134595500D01*
X231281915Y-134662539D01*
X231229111Y-134708294D01*
X231177600Y-134719500D01*
X231144238Y-134719500D01*
X231112145Y-134715275D01*
X231101042Y-134712300D01*
X230998958Y-134712300D01*
X230996967Y-134712300D01*
X230984754Y-134713100D01*
X230023955Y-134713100D01*
X229956916Y-134693415D01*
X229911161Y-134640611D01*
X229901217Y-134571453D01*
X229930242Y-134507897D01*
X229936274Y-134501419D01*
X230042631Y-134395061D01*
X230042652Y-134395038D01*
X230053346Y-134382518D01*
X230073399Y-134320803D01*
X230073400Y-134320798D01*
X230073400Y-133850794D01*
X230068262Y-133818357D01*
X230068260Y-133818352D01*
X230030118Y-133765854D01*
X230030117Y-133765853D01*
X229968401Y-133745800D01*
X229218395Y-133745800D01*
X229185957Y-133750937D01*
X229185952Y-133750939D01*
X229133454Y-133789081D01*
X229133453Y-133789082D01*
X229113400Y-133850798D01*
X229113400Y-133871800D01*
X229093715Y-133938839D01*
X229040911Y-133984594D01*
X228989400Y-133995800D01*
X228547400Y-133995800D01*
X228480361Y-133976115D01*
X228434606Y-133923311D01*
X228423400Y-133871800D01*
X228423400Y-133850794D01*
X228418262Y-133818357D01*
X228418260Y-133818352D01*
X228380118Y-133765854D01*
X228380117Y-133765853D01*
X228318401Y-133745800D01*
X227568395Y-133745800D01*
X227535957Y-133750937D01*
X227535952Y-133750939D01*
X227483454Y-133789081D01*
X227483453Y-133789082D01*
X227463400Y-133850798D01*
X227463400Y-134520805D01*
X227470834Y-134567742D01*
X227466610Y-134568410D01*
X227471204Y-134611109D01*
X227439933Y-134673590D01*
X227379846Y-134709246D01*
X227349173Y-134713100D01*
X226599966Y-134713100D01*
X226599896Y-134713099D01*
X226570841Y-134713082D01*
X226570474Y-134713100D01*
X226566980Y-134713100D01*
X226558864Y-134715275D01*
X226548413Y-134718075D01*
X226516323Y-134722300D01*
X225938957Y-134722300D01*
X225925989Y-134725775D01*
X225893896Y-134730000D01*
X225449278Y-134730000D01*
X225417184Y-134725774D01*
X225366900Y-134712300D01*
X224618124Y-134712300D01*
X224601940Y-134711239D01*
X224579569Y-134708294D01*
X224524109Y-134700992D01*
X224492843Y-134692616D01*
X224427881Y-134665707D01*
X224399850Y-134649523D01*
X224337590Y-134601750D01*
X224325395Y-134591055D01*
X224322892Y-134588552D01*
X224204340Y-134470000D01*
X224012144Y-134277803D01*
X224012143Y-134277802D01*
X224006689Y-134272348D01*
X224006597Y-134272267D01*
X223968024Y-134233693D01*
X223790657Y-134092244D01*
X223598570Y-133971546D01*
X223394174Y-133873112D01*
X223394167Y-133873109D01*
X223180044Y-133798183D01*
X223180035Y-133798181D01*
X223038401Y-133765854D01*
X222958868Y-133747701D01*
X222958864Y-133747700D01*
X222958855Y-133747699D01*
X222733435Y-133722300D01*
X222733431Y-133722300D01*
X222620000Y-133722300D01*
X222564257Y-133722300D01*
X222564254Y-133722300D01*
X222452966Y-133754977D01*
X222418032Y-133760000D01*
X221855975Y-133760000D01*
X221788936Y-133740315D01*
X221743181Y-133687511D01*
X221731978Y-133636856D01*
X221731030Y-133499381D01*
X221750250Y-133432212D01*
X221767340Y-133410854D01*
X221791880Y-133386315D01*
X221853205Y-133352833D01*
X221879558Y-133350000D01*
X223356903Y-133350000D01*
X223423942Y-133369685D01*
X223457968Y-133408953D01*
X223459603Y-133407784D01*
X223471190Y-133423979D01*
X223471191Y-133423981D01*
X223615542Y-133529513D01*
X223815434Y-133536268D01*
X223882064Y-133538520D01*
X223882064Y-133538519D01*
X223882065Y-133538520D01*
X224024236Y-133430364D01*
X224024236Y-133430363D01*
X224027169Y-133423748D01*
X224072333Y-133370438D01*
X224139149Y-133350008D01*
X224140530Y-133350000D01*
X225590000Y-133350000D01*
X225594887Y-131840000D01*
X228064353Y-131840000D01*
X228084834Y-131982456D01*
X228144622Y-132113371D01*
X228144623Y-132113373D01*
X228238872Y-132222143D01*
X228359947Y-132299953D01*
X228359950Y-132299954D01*
X228359949Y-132299954D01*
X228498036Y-132340499D01*
X228498038Y-132340500D01*
X228498039Y-132340500D01*
X228641962Y-132340500D01*
X228641962Y-132340499D01*
X228751564Y-132308318D01*
X228780050Y-132299954D01*
X228780050Y-132299953D01*
X228780053Y-132299953D01*
X228901128Y-132222143D01*
X228995377Y-132113373D01*
X229055165Y-131982457D01*
X229075647Y-131840000D01*
X229055165Y-131697543D01*
X228995377Y-131566627D01*
X228901128Y-131457857D01*
X228780053Y-131380047D01*
X228780051Y-131380046D01*
X228780049Y-131380045D01*
X228780050Y-131380045D01*
X228641963Y-131339500D01*
X228641961Y-131339500D01*
X228498039Y-131339500D01*
X228498036Y-131339500D01*
X228359949Y-131380045D01*
X228238873Y-131457856D01*
X228144623Y-131566626D01*
X228144622Y-131566628D01*
X228084834Y-131697543D01*
X228064353Y-131840000D01*
X225594887Y-131840000D01*
X225599600Y-130383598D01*
X225619501Y-130316623D01*
X225672453Y-130271040D01*
X225723599Y-130260000D01*
X226340000Y-130260000D01*
X226640000Y-129960000D01*
X226640000Y-129085910D01*
X226644225Y-129053816D01*
X226645040Y-129050769D01*
X226645044Y-129050762D01*
X226665682Y-128894000D01*
X226645044Y-128737238D01*
X226645043Y-128737235D01*
X226644223Y-128734173D01*
X226640000Y-128702088D01*
X226640000Y-128440500D01*
X226659685Y-128373461D01*
X226712489Y-128327706D01*
X226764000Y-128316500D01*
X228917405Y-128316500D01*
X228956873Y-128316500D01*
X228973058Y-128317561D01*
G37*
%TD.AperFunction*%
%TD*%
D69*
X192024000Y-147574000D02*
G75*
G02*
X191389000Y-146939000I0J635000D01*
G01*
X236866000Y-146812009D02*
G75*
G02*
X236103993Y-147574000I-762000J9D01*
G01*
X236866000Y-146812000D02*
X236866000Y-132500000D01*
X228965000Y-128016000D02*
G75*
G02*
X229600000Y-128651000I0J-635000D01*
G01*
X191389000Y-128651000D02*
G75*
G02*
X192024000Y-128016000I635000J0D01*
G01*
X191389000Y-128651000D02*
X191389000Y-146939000D01*
X229600000Y-131220000D02*
X229600000Y-128660000D01*
X236231000Y-131864000D02*
G75*
G02*
X236866000Y-132499000I0J-635000D01*
G01*
X230235000Y-131864000D02*
G75*
G02*
X229600000Y-131229000I0J635000D01*
G01*
X236231000Y-131864000D02*
X230240000Y-131864000D01*
X192024000Y-147574000D02*
X236103993Y-147574000D01*
X192024000Y-128016000D02*
X228965000Y-128016000D01*
M02*
