%TF.GenerationSoftware,KiCad,Pcbnew,8.0.1*%
%TF.CreationDate,2024-04-17T19:21:13-07:00*%
%TF.ProjectId,stm32_bluet_pill,73746d33-325f-4626-9c75-65745f70696c,Proto*%
%TF.SameCoordinates,Original*%
%TF.FileFunction,Legend,Bot*%
%TF.FilePolarity,Positive*%
%FSLAX46Y46*%
G04 Gerber Fmt 4.6, Leading zero omitted, Abs format (unit mm)*
G04 Created by KiCad (PCBNEW 8.0.1) date 2024-04-17 19:21:13*
%MOMM*%
%LPD*%
G01*
G04 APERTURE LIST*
%ADD10C,0.100000*%
%ADD11C,0.150000*%
%ADD12C,0.300000*%
%ADD13C,0.400000*%
%ADD14C,0.120000*%
%TA.AperFunction,Profile*%
%ADD15C,0.100000*%
%TD*%
G04 APERTURE END LIST*
D10*
X345821001Y-254402167D02*
X345821001Y-267313833D01*
X362331000Y-267313833D01*
X362331000Y-254402167D01*
X345821001Y-254402167D01*
D11*
X299989000Y-253002200D02*
X407989000Y-253002200D01*
X407989000Y-285002200D01*
X299989000Y-285002200D01*
X299989000Y-253002200D01*
D10*
D11*
X10000000Y-10000000D02*
X409989000Y-10000000D01*
X409989000Y-287002200D01*
X10000000Y-287002200D01*
X10000000Y-10000000D01*
D10*
D11*
X12000000Y-12000000D02*
X407989000Y-12000000D01*
X407989000Y-285002200D01*
X12000000Y-285002200D01*
X12000000Y-12000000D01*
D10*
D11*
X60000000Y-12000000D02*
X60000000Y-10000000D01*
D10*
D11*
X110000000Y-12000000D02*
X110000000Y-10000000D01*
D10*
D11*
X160000000Y-12000000D02*
X160000000Y-10000000D01*
D10*
D11*
X210000000Y-12000000D02*
X210000000Y-10000000D01*
D10*
D11*
X260000000Y-12000000D02*
X260000000Y-10000000D01*
D10*
D11*
X310000000Y-12000000D02*
X310000000Y-10000000D01*
D10*
D11*
X360000000Y-12000000D02*
X360000000Y-10000000D01*
D10*
D11*
X36089160Y-11593604D02*
X35346303Y-11593604D01*
X35717731Y-11593604D02*
X35717731Y-10293604D01*
X35717731Y-10293604D02*
X35593922Y-10479319D01*
X35593922Y-10479319D02*
X35470112Y-10603128D01*
X35470112Y-10603128D02*
X35346303Y-10665033D01*
D10*
D11*
X85346303Y-10417414D02*
X85408207Y-10355509D01*
X85408207Y-10355509D02*
X85532017Y-10293604D01*
X85532017Y-10293604D02*
X85841541Y-10293604D01*
X85841541Y-10293604D02*
X85965350Y-10355509D01*
X85965350Y-10355509D02*
X86027255Y-10417414D01*
X86027255Y-10417414D02*
X86089160Y-10541223D01*
X86089160Y-10541223D02*
X86089160Y-10665033D01*
X86089160Y-10665033D02*
X86027255Y-10850747D01*
X86027255Y-10850747D02*
X85284398Y-11593604D01*
X85284398Y-11593604D02*
X86089160Y-11593604D01*
D10*
D11*
X135284398Y-10293604D02*
X136089160Y-10293604D01*
X136089160Y-10293604D02*
X135655826Y-10788842D01*
X135655826Y-10788842D02*
X135841541Y-10788842D01*
X135841541Y-10788842D02*
X135965350Y-10850747D01*
X135965350Y-10850747D02*
X136027255Y-10912652D01*
X136027255Y-10912652D02*
X136089160Y-11036461D01*
X136089160Y-11036461D02*
X136089160Y-11345985D01*
X136089160Y-11345985D02*
X136027255Y-11469795D01*
X136027255Y-11469795D02*
X135965350Y-11531700D01*
X135965350Y-11531700D02*
X135841541Y-11593604D01*
X135841541Y-11593604D02*
X135470112Y-11593604D01*
X135470112Y-11593604D02*
X135346303Y-11531700D01*
X135346303Y-11531700D02*
X135284398Y-11469795D01*
D10*
D11*
X185965350Y-10726938D02*
X185965350Y-11593604D01*
X185655826Y-10231700D02*
X185346303Y-11160271D01*
X185346303Y-11160271D02*
X186151064Y-11160271D01*
D10*
D11*
X236027255Y-10293604D02*
X235408207Y-10293604D01*
X235408207Y-10293604D02*
X235346303Y-10912652D01*
X235346303Y-10912652D02*
X235408207Y-10850747D01*
X235408207Y-10850747D02*
X235532017Y-10788842D01*
X235532017Y-10788842D02*
X235841541Y-10788842D01*
X235841541Y-10788842D02*
X235965350Y-10850747D01*
X235965350Y-10850747D02*
X236027255Y-10912652D01*
X236027255Y-10912652D02*
X236089160Y-11036461D01*
X236089160Y-11036461D02*
X236089160Y-11345985D01*
X236089160Y-11345985D02*
X236027255Y-11469795D01*
X236027255Y-11469795D02*
X235965350Y-11531700D01*
X235965350Y-11531700D02*
X235841541Y-11593604D01*
X235841541Y-11593604D02*
X235532017Y-11593604D01*
X235532017Y-11593604D02*
X235408207Y-11531700D01*
X235408207Y-11531700D02*
X235346303Y-11469795D01*
D10*
D11*
X285965350Y-10293604D02*
X285717731Y-10293604D01*
X285717731Y-10293604D02*
X285593922Y-10355509D01*
X285593922Y-10355509D02*
X285532017Y-10417414D01*
X285532017Y-10417414D02*
X285408207Y-10603128D01*
X285408207Y-10603128D02*
X285346303Y-10850747D01*
X285346303Y-10850747D02*
X285346303Y-11345985D01*
X285346303Y-11345985D02*
X285408207Y-11469795D01*
X285408207Y-11469795D02*
X285470112Y-11531700D01*
X285470112Y-11531700D02*
X285593922Y-11593604D01*
X285593922Y-11593604D02*
X285841541Y-11593604D01*
X285841541Y-11593604D02*
X285965350Y-11531700D01*
X285965350Y-11531700D02*
X286027255Y-11469795D01*
X286027255Y-11469795D02*
X286089160Y-11345985D01*
X286089160Y-11345985D02*
X286089160Y-11036461D01*
X286089160Y-11036461D02*
X286027255Y-10912652D01*
X286027255Y-10912652D02*
X285965350Y-10850747D01*
X285965350Y-10850747D02*
X285841541Y-10788842D01*
X285841541Y-10788842D02*
X285593922Y-10788842D01*
X285593922Y-10788842D02*
X285470112Y-10850747D01*
X285470112Y-10850747D02*
X285408207Y-10912652D01*
X285408207Y-10912652D02*
X285346303Y-11036461D01*
D10*
D11*
X335284398Y-10293604D02*
X336151064Y-10293604D01*
X336151064Y-10293604D02*
X335593922Y-11593604D01*
D10*
D11*
X385593922Y-10850747D02*
X385470112Y-10788842D01*
X385470112Y-10788842D02*
X385408207Y-10726938D01*
X385408207Y-10726938D02*
X385346303Y-10603128D01*
X385346303Y-10603128D02*
X385346303Y-10541223D01*
X385346303Y-10541223D02*
X385408207Y-10417414D01*
X385408207Y-10417414D02*
X385470112Y-10355509D01*
X385470112Y-10355509D02*
X385593922Y-10293604D01*
X385593922Y-10293604D02*
X385841541Y-10293604D01*
X385841541Y-10293604D02*
X385965350Y-10355509D01*
X385965350Y-10355509D02*
X386027255Y-10417414D01*
X386027255Y-10417414D02*
X386089160Y-10541223D01*
X386089160Y-10541223D02*
X386089160Y-10603128D01*
X386089160Y-10603128D02*
X386027255Y-10726938D01*
X386027255Y-10726938D02*
X385965350Y-10788842D01*
X385965350Y-10788842D02*
X385841541Y-10850747D01*
X385841541Y-10850747D02*
X385593922Y-10850747D01*
X385593922Y-10850747D02*
X385470112Y-10912652D01*
X385470112Y-10912652D02*
X385408207Y-10974557D01*
X385408207Y-10974557D02*
X385346303Y-11098366D01*
X385346303Y-11098366D02*
X385346303Y-11345985D01*
X385346303Y-11345985D02*
X385408207Y-11469795D01*
X385408207Y-11469795D02*
X385470112Y-11531700D01*
X385470112Y-11531700D02*
X385593922Y-11593604D01*
X385593922Y-11593604D02*
X385841541Y-11593604D01*
X385841541Y-11593604D02*
X385965350Y-11531700D01*
X385965350Y-11531700D02*
X386027255Y-11469795D01*
X386027255Y-11469795D02*
X386089160Y-11345985D01*
X386089160Y-11345985D02*
X386089160Y-11098366D01*
X386089160Y-11098366D02*
X386027255Y-10974557D01*
X386027255Y-10974557D02*
X385965350Y-10912652D01*
X385965350Y-10912652D02*
X385841541Y-10850747D01*
D10*
D11*
X60000000Y-285002200D02*
X60000000Y-287002200D01*
D10*
D11*
X110000000Y-285002200D02*
X110000000Y-287002200D01*
D10*
D11*
X160000000Y-285002200D02*
X160000000Y-287002200D01*
D10*
D11*
X210000000Y-285002200D02*
X210000000Y-287002200D01*
D10*
D11*
X260000000Y-285002200D02*
X260000000Y-287002200D01*
D10*
D11*
X310000000Y-285002200D02*
X310000000Y-287002200D01*
D10*
D11*
X360000000Y-285002200D02*
X360000000Y-287002200D01*
D10*
D11*
X36089160Y-286595804D02*
X35346303Y-286595804D01*
X35717731Y-286595804D02*
X35717731Y-285295804D01*
X35717731Y-285295804D02*
X35593922Y-285481519D01*
X35593922Y-285481519D02*
X35470112Y-285605328D01*
X35470112Y-285605328D02*
X35346303Y-285667233D01*
D10*
D11*
X85346303Y-285419614D02*
X85408207Y-285357709D01*
X85408207Y-285357709D02*
X85532017Y-285295804D01*
X85532017Y-285295804D02*
X85841541Y-285295804D01*
X85841541Y-285295804D02*
X85965350Y-285357709D01*
X85965350Y-285357709D02*
X86027255Y-285419614D01*
X86027255Y-285419614D02*
X86089160Y-285543423D01*
X86089160Y-285543423D02*
X86089160Y-285667233D01*
X86089160Y-285667233D02*
X86027255Y-285852947D01*
X86027255Y-285852947D02*
X85284398Y-286595804D01*
X85284398Y-286595804D02*
X86089160Y-286595804D01*
D10*
D11*
X135284398Y-285295804D02*
X136089160Y-285295804D01*
X136089160Y-285295804D02*
X135655826Y-285791042D01*
X135655826Y-285791042D02*
X135841541Y-285791042D01*
X135841541Y-285791042D02*
X135965350Y-285852947D01*
X135965350Y-285852947D02*
X136027255Y-285914852D01*
X136027255Y-285914852D02*
X136089160Y-286038661D01*
X136089160Y-286038661D02*
X136089160Y-286348185D01*
X136089160Y-286348185D02*
X136027255Y-286471995D01*
X136027255Y-286471995D02*
X135965350Y-286533900D01*
X135965350Y-286533900D02*
X135841541Y-286595804D01*
X135841541Y-286595804D02*
X135470112Y-286595804D01*
X135470112Y-286595804D02*
X135346303Y-286533900D01*
X135346303Y-286533900D02*
X135284398Y-286471995D01*
D10*
D11*
X185965350Y-285729138D02*
X185965350Y-286595804D01*
X185655826Y-285233900D02*
X185346303Y-286162471D01*
X185346303Y-286162471D02*
X186151064Y-286162471D01*
D10*
D11*
X236027255Y-285295804D02*
X235408207Y-285295804D01*
X235408207Y-285295804D02*
X235346303Y-285914852D01*
X235346303Y-285914852D02*
X235408207Y-285852947D01*
X235408207Y-285852947D02*
X235532017Y-285791042D01*
X235532017Y-285791042D02*
X235841541Y-285791042D01*
X235841541Y-285791042D02*
X235965350Y-285852947D01*
X235965350Y-285852947D02*
X236027255Y-285914852D01*
X236027255Y-285914852D02*
X236089160Y-286038661D01*
X236089160Y-286038661D02*
X236089160Y-286348185D01*
X236089160Y-286348185D02*
X236027255Y-286471995D01*
X236027255Y-286471995D02*
X235965350Y-286533900D01*
X235965350Y-286533900D02*
X235841541Y-286595804D01*
X235841541Y-286595804D02*
X235532017Y-286595804D01*
X235532017Y-286595804D02*
X235408207Y-286533900D01*
X235408207Y-286533900D02*
X235346303Y-286471995D01*
D10*
D11*
X285965350Y-285295804D02*
X285717731Y-285295804D01*
X285717731Y-285295804D02*
X285593922Y-285357709D01*
X285593922Y-285357709D02*
X285532017Y-285419614D01*
X285532017Y-285419614D02*
X285408207Y-285605328D01*
X285408207Y-285605328D02*
X285346303Y-285852947D01*
X285346303Y-285852947D02*
X285346303Y-286348185D01*
X285346303Y-286348185D02*
X285408207Y-286471995D01*
X285408207Y-286471995D02*
X285470112Y-286533900D01*
X285470112Y-286533900D02*
X285593922Y-286595804D01*
X285593922Y-286595804D02*
X285841541Y-286595804D01*
X285841541Y-286595804D02*
X285965350Y-286533900D01*
X285965350Y-286533900D02*
X286027255Y-286471995D01*
X286027255Y-286471995D02*
X286089160Y-286348185D01*
X286089160Y-286348185D02*
X286089160Y-286038661D01*
X286089160Y-286038661D02*
X286027255Y-285914852D01*
X286027255Y-285914852D02*
X285965350Y-285852947D01*
X285965350Y-285852947D02*
X285841541Y-285791042D01*
X285841541Y-285791042D02*
X285593922Y-285791042D01*
X285593922Y-285791042D02*
X285470112Y-285852947D01*
X285470112Y-285852947D02*
X285408207Y-285914852D01*
X285408207Y-285914852D02*
X285346303Y-286038661D01*
D10*
D11*
X335284398Y-285295804D02*
X336151064Y-285295804D01*
X336151064Y-285295804D02*
X335593922Y-286595804D01*
D10*
D11*
X385593922Y-285852947D02*
X385470112Y-285791042D01*
X385470112Y-285791042D02*
X385408207Y-285729138D01*
X385408207Y-285729138D02*
X385346303Y-285605328D01*
X385346303Y-285605328D02*
X385346303Y-285543423D01*
X385346303Y-285543423D02*
X385408207Y-285419614D01*
X385408207Y-285419614D02*
X385470112Y-285357709D01*
X385470112Y-285357709D02*
X385593922Y-285295804D01*
X385593922Y-285295804D02*
X385841541Y-285295804D01*
X385841541Y-285295804D02*
X385965350Y-285357709D01*
X385965350Y-285357709D02*
X386027255Y-285419614D01*
X386027255Y-285419614D02*
X386089160Y-285543423D01*
X386089160Y-285543423D02*
X386089160Y-285605328D01*
X386089160Y-285605328D02*
X386027255Y-285729138D01*
X386027255Y-285729138D02*
X385965350Y-285791042D01*
X385965350Y-285791042D02*
X385841541Y-285852947D01*
X385841541Y-285852947D02*
X385593922Y-285852947D01*
X385593922Y-285852947D02*
X385470112Y-285914852D01*
X385470112Y-285914852D02*
X385408207Y-285976757D01*
X385408207Y-285976757D02*
X385346303Y-286100566D01*
X385346303Y-286100566D02*
X385346303Y-286348185D01*
X385346303Y-286348185D02*
X385408207Y-286471995D01*
X385408207Y-286471995D02*
X385470112Y-286533900D01*
X385470112Y-286533900D02*
X385593922Y-286595804D01*
X385593922Y-286595804D02*
X385841541Y-286595804D01*
X385841541Y-286595804D02*
X385965350Y-286533900D01*
X385965350Y-286533900D02*
X386027255Y-286471995D01*
X386027255Y-286471995D02*
X386089160Y-286348185D01*
X386089160Y-286348185D02*
X386089160Y-286100566D01*
X386089160Y-286100566D02*
X386027255Y-285976757D01*
X386027255Y-285976757D02*
X385965350Y-285914852D01*
X385965350Y-285914852D02*
X385841541Y-285852947D01*
D10*
D11*
X10000000Y-60000000D02*
X12000000Y-60000000D01*
D10*
D11*
X10000000Y-110000000D02*
X12000000Y-110000000D01*
D10*
D11*
X10000000Y-160000000D02*
X12000000Y-160000000D01*
D10*
D11*
X10000000Y-210000000D02*
X12000000Y-210000000D01*
D10*
D11*
X10000000Y-260000000D02*
X12000000Y-260000000D01*
D10*
D11*
X10690476Y-35222176D02*
X11309523Y-35222176D01*
X10566666Y-35593604D02*
X10999999Y-34293604D01*
X10999999Y-34293604D02*
X11433333Y-35593604D01*
D10*
D11*
X11092857Y-84912652D02*
X11278571Y-84974557D01*
X11278571Y-84974557D02*
X11340476Y-85036461D01*
X11340476Y-85036461D02*
X11402380Y-85160271D01*
X11402380Y-85160271D02*
X11402380Y-85345985D01*
X11402380Y-85345985D02*
X11340476Y-85469795D01*
X11340476Y-85469795D02*
X11278571Y-85531700D01*
X11278571Y-85531700D02*
X11154761Y-85593604D01*
X11154761Y-85593604D02*
X10659523Y-85593604D01*
X10659523Y-85593604D02*
X10659523Y-84293604D01*
X10659523Y-84293604D02*
X11092857Y-84293604D01*
X11092857Y-84293604D02*
X11216666Y-84355509D01*
X11216666Y-84355509D02*
X11278571Y-84417414D01*
X11278571Y-84417414D02*
X11340476Y-84541223D01*
X11340476Y-84541223D02*
X11340476Y-84665033D01*
X11340476Y-84665033D02*
X11278571Y-84788842D01*
X11278571Y-84788842D02*
X11216666Y-84850747D01*
X11216666Y-84850747D02*
X11092857Y-84912652D01*
X11092857Y-84912652D02*
X10659523Y-84912652D01*
D10*
D11*
X11402380Y-135469795D02*
X11340476Y-135531700D01*
X11340476Y-135531700D02*
X11154761Y-135593604D01*
X11154761Y-135593604D02*
X11030952Y-135593604D01*
X11030952Y-135593604D02*
X10845238Y-135531700D01*
X10845238Y-135531700D02*
X10721428Y-135407890D01*
X10721428Y-135407890D02*
X10659523Y-135284080D01*
X10659523Y-135284080D02*
X10597619Y-135036461D01*
X10597619Y-135036461D02*
X10597619Y-134850747D01*
X10597619Y-134850747D02*
X10659523Y-134603128D01*
X10659523Y-134603128D02*
X10721428Y-134479319D01*
X10721428Y-134479319D02*
X10845238Y-134355509D01*
X10845238Y-134355509D02*
X11030952Y-134293604D01*
X11030952Y-134293604D02*
X11154761Y-134293604D01*
X11154761Y-134293604D02*
X11340476Y-134355509D01*
X11340476Y-134355509D02*
X11402380Y-134417414D01*
D10*
D11*
X10659523Y-185593604D02*
X10659523Y-184293604D01*
X10659523Y-184293604D02*
X10969047Y-184293604D01*
X10969047Y-184293604D02*
X11154761Y-184355509D01*
X11154761Y-184355509D02*
X11278571Y-184479319D01*
X11278571Y-184479319D02*
X11340476Y-184603128D01*
X11340476Y-184603128D02*
X11402380Y-184850747D01*
X11402380Y-184850747D02*
X11402380Y-185036461D01*
X11402380Y-185036461D02*
X11340476Y-185284080D01*
X11340476Y-185284080D02*
X11278571Y-185407890D01*
X11278571Y-185407890D02*
X11154761Y-185531700D01*
X11154761Y-185531700D02*
X10969047Y-185593604D01*
X10969047Y-185593604D02*
X10659523Y-185593604D01*
D10*
D11*
X10721428Y-234912652D02*
X11154762Y-234912652D01*
X11340476Y-235593604D02*
X10721428Y-235593604D01*
X10721428Y-235593604D02*
X10721428Y-234293604D01*
X10721428Y-234293604D02*
X11340476Y-234293604D01*
D10*
D11*
X11185714Y-284912652D02*
X10752380Y-284912652D01*
X10752380Y-285593604D02*
X10752380Y-284293604D01*
X10752380Y-284293604D02*
X11371428Y-284293604D01*
D10*
D11*
X409989000Y-60000000D02*
X407989000Y-60000000D01*
D10*
D11*
X409989000Y-110000000D02*
X407989000Y-110000000D01*
D10*
D11*
X409989000Y-160000000D02*
X407989000Y-160000000D01*
D10*
D11*
X409989000Y-210000000D02*
X407989000Y-210000000D01*
D10*
D11*
X409989000Y-260000000D02*
X407989000Y-260000000D01*
D10*
D11*
X408679476Y-35222176D02*
X409298523Y-35222176D01*
X408555666Y-35593604D02*
X408988999Y-34293604D01*
X408988999Y-34293604D02*
X409422333Y-35593604D01*
D10*
D11*
X409081857Y-84912652D02*
X409267571Y-84974557D01*
X409267571Y-84974557D02*
X409329476Y-85036461D01*
X409329476Y-85036461D02*
X409391380Y-85160271D01*
X409391380Y-85160271D02*
X409391380Y-85345985D01*
X409391380Y-85345985D02*
X409329476Y-85469795D01*
X409329476Y-85469795D02*
X409267571Y-85531700D01*
X409267571Y-85531700D02*
X409143761Y-85593604D01*
X409143761Y-85593604D02*
X408648523Y-85593604D01*
X408648523Y-85593604D02*
X408648523Y-84293604D01*
X408648523Y-84293604D02*
X409081857Y-84293604D01*
X409081857Y-84293604D02*
X409205666Y-84355509D01*
X409205666Y-84355509D02*
X409267571Y-84417414D01*
X409267571Y-84417414D02*
X409329476Y-84541223D01*
X409329476Y-84541223D02*
X409329476Y-84665033D01*
X409329476Y-84665033D02*
X409267571Y-84788842D01*
X409267571Y-84788842D02*
X409205666Y-84850747D01*
X409205666Y-84850747D02*
X409081857Y-84912652D01*
X409081857Y-84912652D02*
X408648523Y-84912652D01*
D10*
D11*
X409391380Y-135469795D02*
X409329476Y-135531700D01*
X409329476Y-135531700D02*
X409143761Y-135593604D01*
X409143761Y-135593604D02*
X409019952Y-135593604D01*
X409019952Y-135593604D02*
X408834238Y-135531700D01*
X408834238Y-135531700D02*
X408710428Y-135407890D01*
X408710428Y-135407890D02*
X408648523Y-135284080D01*
X408648523Y-135284080D02*
X408586619Y-135036461D01*
X408586619Y-135036461D02*
X408586619Y-134850747D01*
X408586619Y-134850747D02*
X408648523Y-134603128D01*
X408648523Y-134603128D02*
X408710428Y-134479319D01*
X408710428Y-134479319D02*
X408834238Y-134355509D01*
X408834238Y-134355509D02*
X409019952Y-134293604D01*
X409019952Y-134293604D02*
X409143761Y-134293604D01*
X409143761Y-134293604D02*
X409329476Y-134355509D01*
X409329476Y-134355509D02*
X409391380Y-134417414D01*
D10*
D11*
X408648523Y-185593604D02*
X408648523Y-184293604D01*
X408648523Y-184293604D02*
X408958047Y-184293604D01*
X408958047Y-184293604D02*
X409143761Y-184355509D01*
X409143761Y-184355509D02*
X409267571Y-184479319D01*
X409267571Y-184479319D02*
X409329476Y-184603128D01*
X409329476Y-184603128D02*
X409391380Y-184850747D01*
X409391380Y-184850747D02*
X409391380Y-185036461D01*
X409391380Y-185036461D02*
X409329476Y-185284080D01*
X409329476Y-185284080D02*
X409267571Y-185407890D01*
X409267571Y-185407890D02*
X409143761Y-185531700D01*
X409143761Y-185531700D02*
X408958047Y-185593604D01*
X408958047Y-185593604D02*
X408648523Y-185593604D01*
D10*
D11*
X408710428Y-234912652D02*
X409143762Y-234912652D01*
X409329476Y-235593604D02*
X408710428Y-235593604D01*
X408710428Y-235593604D02*
X408710428Y-234293604D01*
X408710428Y-234293604D02*
X409329476Y-234293604D01*
D10*
D11*
X409174714Y-284912652D02*
X408741380Y-284912652D01*
X408741380Y-285593604D02*
X408741380Y-284293604D01*
X408741380Y-284293604D02*
X409360428Y-284293604D01*
D10*
D11*
X323444826Y-280788328D02*
X323444826Y-279288328D01*
X323444826Y-279288328D02*
X323801969Y-279288328D01*
X323801969Y-279288328D02*
X324016255Y-279359757D01*
X324016255Y-279359757D02*
X324159112Y-279502614D01*
X324159112Y-279502614D02*
X324230541Y-279645471D01*
X324230541Y-279645471D02*
X324301969Y-279931185D01*
X324301969Y-279931185D02*
X324301969Y-280145471D01*
X324301969Y-280145471D02*
X324230541Y-280431185D01*
X324230541Y-280431185D02*
X324159112Y-280574042D01*
X324159112Y-280574042D02*
X324016255Y-280716900D01*
X324016255Y-280716900D02*
X323801969Y-280788328D01*
X323801969Y-280788328D02*
X323444826Y-280788328D01*
X325587684Y-280788328D02*
X325587684Y-280002614D01*
X325587684Y-280002614D02*
X325516255Y-279859757D01*
X325516255Y-279859757D02*
X325373398Y-279788328D01*
X325373398Y-279788328D02*
X325087684Y-279788328D01*
X325087684Y-279788328D02*
X324944826Y-279859757D01*
X325587684Y-280716900D02*
X325444826Y-280788328D01*
X325444826Y-280788328D02*
X325087684Y-280788328D01*
X325087684Y-280788328D02*
X324944826Y-280716900D01*
X324944826Y-280716900D02*
X324873398Y-280574042D01*
X324873398Y-280574042D02*
X324873398Y-280431185D01*
X324873398Y-280431185D02*
X324944826Y-280288328D01*
X324944826Y-280288328D02*
X325087684Y-280216900D01*
X325087684Y-280216900D02*
X325444826Y-280216900D01*
X325444826Y-280216900D02*
X325587684Y-280145471D01*
X326087684Y-279788328D02*
X326659112Y-279788328D01*
X326301969Y-279288328D02*
X326301969Y-280574042D01*
X326301969Y-280574042D02*
X326373398Y-280716900D01*
X326373398Y-280716900D02*
X326516255Y-280788328D01*
X326516255Y-280788328D02*
X326659112Y-280788328D01*
X327730541Y-280716900D02*
X327587684Y-280788328D01*
X327587684Y-280788328D02*
X327301970Y-280788328D01*
X327301970Y-280788328D02*
X327159112Y-280716900D01*
X327159112Y-280716900D02*
X327087684Y-280574042D01*
X327087684Y-280574042D02*
X327087684Y-280002614D01*
X327087684Y-280002614D02*
X327159112Y-279859757D01*
X327159112Y-279859757D02*
X327301970Y-279788328D01*
X327301970Y-279788328D02*
X327587684Y-279788328D01*
X327587684Y-279788328D02*
X327730541Y-279859757D01*
X327730541Y-279859757D02*
X327801970Y-280002614D01*
X327801970Y-280002614D02*
X327801970Y-280145471D01*
X327801970Y-280145471D02*
X327087684Y-280288328D01*
X328444826Y-280645471D02*
X328516255Y-280716900D01*
X328516255Y-280716900D02*
X328444826Y-280788328D01*
X328444826Y-280788328D02*
X328373398Y-280716900D01*
X328373398Y-280716900D02*
X328444826Y-280645471D01*
X328444826Y-280645471D02*
X328444826Y-280788328D01*
X328444826Y-279859757D02*
X328516255Y-279931185D01*
X328516255Y-279931185D02*
X328444826Y-280002614D01*
X328444826Y-280002614D02*
X328373398Y-279931185D01*
X328373398Y-279931185D02*
X328444826Y-279859757D01*
X328444826Y-279859757D02*
X328444826Y-280002614D01*
X330230541Y-279431185D02*
X330301969Y-279359757D01*
X330301969Y-279359757D02*
X330444827Y-279288328D01*
X330444827Y-279288328D02*
X330801969Y-279288328D01*
X330801969Y-279288328D02*
X330944827Y-279359757D01*
X330944827Y-279359757D02*
X331016255Y-279431185D01*
X331016255Y-279431185D02*
X331087684Y-279574042D01*
X331087684Y-279574042D02*
X331087684Y-279716900D01*
X331087684Y-279716900D02*
X331016255Y-279931185D01*
X331016255Y-279931185D02*
X330159112Y-280788328D01*
X330159112Y-280788328D02*
X331087684Y-280788328D01*
X332016255Y-279288328D02*
X332159112Y-279288328D01*
X332159112Y-279288328D02*
X332301969Y-279359757D01*
X332301969Y-279359757D02*
X332373398Y-279431185D01*
X332373398Y-279431185D02*
X332444826Y-279574042D01*
X332444826Y-279574042D02*
X332516255Y-279859757D01*
X332516255Y-279859757D02*
X332516255Y-280216900D01*
X332516255Y-280216900D02*
X332444826Y-280502614D01*
X332444826Y-280502614D02*
X332373398Y-280645471D01*
X332373398Y-280645471D02*
X332301969Y-280716900D01*
X332301969Y-280716900D02*
X332159112Y-280788328D01*
X332159112Y-280788328D02*
X332016255Y-280788328D01*
X332016255Y-280788328D02*
X331873398Y-280716900D01*
X331873398Y-280716900D02*
X331801969Y-280645471D01*
X331801969Y-280645471D02*
X331730540Y-280502614D01*
X331730540Y-280502614D02*
X331659112Y-280216900D01*
X331659112Y-280216900D02*
X331659112Y-279859757D01*
X331659112Y-279859757D02*
X331730540Y-279574042D01*
X331730540Y-279574042D02*
X331801969Y-279431185D01*
X331801969Y-279431185D02*
X331873398Y-279359757D01*
X331873398Y-279359757D02*
X332016255Y-279288328D01*
X333087683Y-279431185D02*
X333159111Y-279359757D01*
X333159111Y-279359757D02*
X333301969Y-279288328D01*
X333301969Y-279288328D02*
X333659111Y-279288328D01*
X333659111Y-279288328D02*
X333801969Y-279359757D01*
X333801969Y-279359757D02*
X333873397Y-279431185D01*
X333873397Y-279431185D02*
X333944826Y-279574042D01*
X333944826Y-279574042D02*
X333944826Y-279716900D01*
X333944826Y-279716900D02*
X333873397Y-279931185D01*
X333873397Y-279931185D02*
X333016254Y-280788328D01*
X333016254Y-280788328D02*
X333944826Y-280788328D01*
X335230540Y-279788328D02*
X335230540Y-280788328D01*
X334873397Y-279216900D02*
X334516254Y-280288328D01*
X334516254Y-280288328D02*
X335444825Y-280288328D01*
X336016253Y-280216900D02*
X337159111Y-280216900D01*
X338159111Y-279288328D02*
X338301968Y-279288328D01*
X338301968Y-279288328D02*
X338444825Y-279359757D01*
X338444825Y-279359757D02*
X338516254Y-279431185D01*
X338516254Y-279431185D02*
X338587682Y-279574042D01*
X338587682Y-279574042D02*
X338659111Y-279859757D01*
X338659111Y-279859757D02*
X338659111Y-280216900D01*
X338659111Y-280216900D02*
X338587682Y-280502614D01*
X338587682Y-280502614D02*
X338516254Y-280645471D01*
X338516254Y-280645471D02*
X338444825Y-280716900D01*
X338444825Y-280716900D02*
X338301968Y-280788328D01*
X338301968Y-280788328D02*
X338159111Y-280788328D01*
X338159111Y-280788328D02*
X338016254Y-280716900D01*
X338016254Y-280716900D02*
X337944825Y-280645471D01*
X337944825Y-280645471D02*
X337873396Y-280502614D01*
X337873396Y-280502614D02*
X337801968Y-280216900D01*
X337801968Y-280216900D02*
X337801968Y-279859757D01*
X337801968Y-279859757D02*
X337873396Y-279574042D01*
X337873396Y-279574042D02*
X337944825Y-279431185D01*
X337944825Y-279431185D02*
X338016254Y-279359757D01*
X338016254Y-279359757D02*
X338159111Y-279288328D01*
X339944825Y-279788328D02*
X339944825Y-280788328D01*
X339587682Y-279216900D02*
X339230539Y-280288328D01*
X339230539Y-280288328D02*
X340159110Y-280288328D01*
X340730538Y-280216900D02*
X341873396Y-280216900D01*
X342873396Y-279288328D02*
X343016253Y-279288328D01*
X343016253Y-279288328D02*
X343159110Y-279359757D01*
X343159110Y-279359757D02*
X343230539Y-279431185D01*
X343230539Y-279431185D02*
X343301967Y-279574042D01*
X343301967Y-279574042D02*
X343373396Y-279859757D01*
X343373396Y-279859757D02*
X343373396Y-280216900D01*
X343373396Y-280216900D02*
X343301967Y-280502614D01*
X343301967Y-280502614D02*
X343230539Y-280645471D01*
X343230539Y-280645471D02*
X343159110Y-280716900D01*
X343159110Y-280716900D02*
X343016253Y-280788328D01*
X343016253Y-280788328D02*
X342873396Y-280788328D01*
X342873396Y-280788328D02*
X342730539Y-280716900D01*
X342730539Y-280716900D02*
X342659110Y-280645471D01*
X342659110Y-280645471D02*
X342587681Y-280502614D01*
X342587681Y-280502614D02*
X342516253Y-280216900D01*
X342516253Y-280216900D02*
X342516253Y-279859757D01*
X342516253Y-279859757D02*
X342587681Y-279574042D01*
X342587681Y-279574042D02*
X342659110Y-279431185D01*
X342659110Y-279431185D02*
X342730539Y-279359757D01*
X342730539Y-279359757D02*
X342873396Y-279288328D01*
X343873395Y-279288328D02*
X344801967Y-279288328D01*
X344801967Y-279288328D02*
X344301967Y-279859757D01*
X344301967Y-279859757D02*
X344516252Y-279859757D01*
X344516252Y-279859757D02*
X344659110Y-279931185D01*
X344659110Y-279931185D02*
X344730538Y-280002614D01*
X344730538Y-280002614D02*
X344801967Y-280145471D01*
X344801967Y-280145471D02*
X344801967Y-280502614D01*
X344801967Y-280502614D02*
X344730538Y-280645471D01*
X344730538Y-280645471D02*
X344659110Y-280716900D01*
X344659110Y-280716900D02*
X344516252Y-280788328D01*
X344516252Y-280788328D02*
X344087681Y-280788328D01*
X344087681Y-280788328D02*
X343944824Y-280716900D01*
X343944824Y-280716900D02*
X343873395Y-280645471D01*
D10*
D11*
X299989000Y-281502200D02*
X407989000Y-281502200D01*
D10*
D11*
X301444826Y-283588328D02*
X301444826Y-282088328D01*
X302301969Y-283588328D02*
X301659112Y-282731185D01*
X302301969Y-282088328D02*
X301444826Y-282945471D01*
X302944826Y-283588328D02*
X302944826Y-282588328D01*
X302944826Y-282088328D02*
X302873398Y-282159757D01*
X302873398Y-282159757D02*
X302944826Y-282231185D01*
X302944826Y-282231185D02*
X303016255Y-282159757D01*
X303016255Y-282159757D02*
X302944826Y-282088328D01*
X302944826Y-282088328D02*
X302944826Y-282231185D01*
X304516255Y-283445471D02*
X304444827Y-283516900D01*
X304444827Y-283516900D02*
X304230541Y-283588328D01*
X304230541Y-283588328D02*
X304087684Y-283588328D01*
X304087684Y-283588328D02*
X303873398Y-283516900D01*
X303873398Y-283516900D02*
X303730541Y-283374042D01*
X303730541Y-283374042D02*
X303659112Y-283231185D01*
X303659112Y-283231185D02*
X303587684Y-282945471D01*
X303587684Y-282945471D02*
X303587684Y-282731185D01*
X303587684Y-282731185D02*
X303659112Y-282445471D01*
X303659112Y-282445471D02*
X303730541Y-282302614D01*
X303730541Y-282302614D02*
X303873398Y-282159757D01*
X303873398Y-282159757D02*
X304087684Y-282088328D01*
X304087684Y-282088328D02*
X304230541Y-282088328D01*
X304230541Y-282088328D02*
X304444827Y-282159757D01*
X304444827Y-282159757D02*
X304516255Y-282231185D01*
X305801970Y-283588328D02*
X305801970Y-282802614D01*
X305801970Y-282802614D02*
X305730541Y-282659757D01*
X305730541Y-282659757D02*
X305587684Y-282588328D01*
X305587684Y-282588328D02*
X305301970Y-282588328D01*
X305301970Y-282588328D02*
X305159112Y-282659757D01*
X305801970Y-283516900D02*
X305659112Y-283588328D01*
X305659112Y-283588328D02*
X305301970Y-283588328D01*
X305301970Y-283588328D02*
X305159112Y-283516900D01*
X305159112Y-283516900D02*
X305087684Y-283374042D01*
X305087684Y-283374042D02*
X305087684Y-283231185D01*
X305087684Y-283231185D02*
X305159112Y-283088328D01*
X305159112Y-283088328D02*
X305301970Y-283016900D01*
X305301970Y-283016900D02*
X305659112Y-283016900D01*
X305659112Y-283016900D02*
X305801970Y-282945471D01*
X307159113Y-283588328D02*
X307159113Y-282088328D01*
X307159113Y-283516900D02*
X307016255Y-283588328D01*
X307016255Y-283588328D02*
X306730541Y-283588328D01*
X306730541Y-283588328D02*
X306587684Y-283516900D01*
X306587684Y-283516900D02*
X306516255Y-283445471D01*
X306516255Y-283445471D02*
X306444827Y-283302614D01*
X306444827Y-283302614D02*
X306444827Y-282874042D01*
X306444827Y-282874042D02*
X306516255Y-282731185D01*
X306516255Y-282731185D02*
X306587684Y-282659757D01*
X306587684Y-282659757D02*
X306730541Y-282588328D01*
X306730541Y-282588328D02*
X307016255Y-282588328D01*
X307016255Y-282588328D02*
X307159113Y-282659757D01*
X309016255Y-282802614D02*
X309516255Y-282802614D01*
X309730541Y-283588328D02*
X309016255Y-283588328D01*
X309016255Y-283588328D02*
X309016255Y-282088328D01*
X309016255Y-282088328D02*
X309730541Y-282088328D01*
X310373398Y-283445471D02*
X310444827Y-283516900D01*
X310444827Y-283516900D02*
X310373398Y-283588328D01*
X310373398Y-283588328D02*
X310301970Y-283516900D01*
X310301970Y-283516900D02*
X310373398Y-283445471D01*
X310373398Y-283445471D02*
X310373398Y-283588328D01*
X311087684Y-283588328D02*
X311087684Y-282088328D01*
X311087684Y-282088328D02*
X311444827Y-282088328D01*
X311444827Y-282088328D02*
X311659113Y-282159757D01*
X311659113Y-282159757D02*
X311801970Y-282302614D01*
X311801970Y-282302614D02*
X311873399Y-282445471D01*
X311873399Y-282445471D02*
X311944827Y-282731185D01*
X311944827Y-282731185D02*
X311944827Y-282945471D01*
X311944827Y-282945471D02*
X311873399Y-283231185D01*
X311873399Y-283231185D02*
X311801970Y-283374042D01*
X311801970Y-283374042D02*
X311659113Y-283516900D01*
X311659113Y-283516900D02*
X311444827Y-283588328D01*
X311444827Y-283588328D02*
X311087684Y-283588328D01*
X312587684Y-283445471D02*
X312659113Y-283516900D01*
X312659113Y-283516900D02*
X312587684Y-283588328D01*
X312587684Y-283588328D02*
X312516256Y-283516900D01*
X312516256Y-283516900D02*
X312587684Y-283445471D01*
X312587684Y-283445471D02*
X312587684Y-283588328D01*
X313230542Y-283159757D02*
X313944828Y-283159757D01*
X313087685Y-283588328D02*
X313587685Y-282088328D01*
X313587685Y-282088328D02*
X314087685Y-283588328D01*
X314587684Y-283445471D02*
X314659113Y-283516900D01*
X314659113Y-283516900D02*
X314587684Y-283588328D01*
X314587684Y-283588328D02*
X314516256Y-283516900D01*
X314516256Y-283516900D02*
X314587684Y-283445471D01*
X314587684Y-283445471D02*
X314587684Y-283588328D01*
X316659113Y-282731185D02*
X316516256Y-282659757D01*
X316516256Y-282659757D02*
X316444827Y-282588328D01*
X316444827Y-282588328D02*
X316373399Y-282445471D01*
X316373399Y-282445471D02*
X316373399Y-282374042D01*
X316373399Y-282374042D02*
X316444827Y-282231185D01*
X316444827Y-282231185D02*
X316516256Y-282159757D01*
X316516256Y-282159757D02*
X316659113Y-282088328D01*
X316659113Y-282088328D02*
X316944827Y-282088328D01*
X316944827Y-282088328D02*
X317087685Y-282159757D01*
X317087685Y-282159757D02*
X317159113Y-282231185D01*
X317159113Y-282231185D02*
X317230542Y-282374042D01*
X317230542Y-282374042D02*
X317230542Y-282445471D01*
X317230542Y-282445471D02*
X317159113Y-282588328D01*
X317159113Y-282588328D02*
X317087685Y-282659757D01*
X317087685Y-282659757D02*
X316944827Y-282731185D01*
X316944827Y-282731185D02*
X316659113Y-282731185D01*
X316659113Y-282731185D02*
X316516256Y-282802614D01*
X316516256Y-282802614D02*
X316444827Y-282874042D01*
X316444827Y-282874042D02*
X316373399Y-283016900D01*
X316373399Y-283016900D02*
X316373399Y-283302614D01*
X316373399Y-283302614D02*
X316444827Y-283445471D01*
X316444827Y-283445471D02*
X316516256Y-283516900D01*
X316516256Y-283516900D02*
X316659113Y-283588328D01*
X316659113Y-283588328D02*
X316944827Y-283588328D01*
X316944827Y-283588328D02*
X317087685Y-283516900D01*
X317087685Y-283516900D02*
X317159113Y-283445471D01*
X317159113Y-283445471D02*
X317230542Y-283302614D01*
X317230542Y-283302614D02*
X317230542Y-283016900D01*
X317230542Y-283016900D02*
X317159113Y-282874042D01*
X317159113Y-282874042D02*
X317087685Y-282802614D01*
X317087685Y-282802614D02*
X316944827Y-282731185D01*
X317873398Y-283445471D02*
X317944827Y-283516900D01*
X317944827Y-283516900D02*
X317873398Y-283588328D01*
X317873398Y-283588328D02*
X317801970Y-283516900D01*
X317801970Y-283516900D02*
X317873398Y-283445471D01*
X317873398Y-283445471D02*
X317873398Y-283588328D01*
X318873399Y-282088328D02*
X319016256Y-282088328D01*
X319016256Y-282088328D02*
X319159113Y-282159757D01*
X319159113Y-282159757D02*
X319230542Y-282231185D01*
X319230542Y-282231185D02*
X319301970Y-282374042D01*
X319301970Y-282374042D02*
X319373399Y-282659757D01*
X319373399Y-282659757D02*
X319373399Y-283016900D01*
X319373399Y-283016900D02*
X319301970Y-283302614D01*
X319301970Y-283302614D02*
X319230542Y-283445471D01*
X319230542Y-283445471D02*
X319159113Y-283516900D01*
X319159113Y-283516900D02*
X319016256Y-283588328D01*
X319016256Y-283588328D02*
X318873399Y-283588328D01*
X318873399Y-283588328D02*
X318730542Y-283516900D01*
X318730542Y-283516900D02*
X318659113Y-283445471D01*
X318659113Y-283445471D02*
X318587684Y-283302614D01*
X318587684Y-283302614D02*
X318516256Y-283016900D01*
X318516256Y-283016900D02*
X318516256Y-282659757D01*
X318516256Y-282659757D02*
X318587684Y-282374042D01*
X318587684Y-282374042D02*
X318659113Y-282231185D01*
X318659113Y-282231185D02*
X318730542Y-282159757D01*
X318730542Y-282159757D02*
X318873399Y-282088328D01*
X320016255Y-283445471D02*
X320087684Y-283516900D01*
X320087684Y-283516900D02*
X320016255Y-283588328D01*
X320016255Y-283588328D02*
X319944827Y-283516900D01*
X319944827Y-283516900D02*
X320016255Y-283445471D01*
X320016255Y-283445471D02*
X320016255Y-283588328D01*
X321516256Y-283588328D02*
X320659113Y-283588328D01*
X321087684Y-283588328D02*
X321087684Y-282088328D01*
X321087684Y-282088328D02*
X320944827Y-282302614D01*
X320944827Y-282302614D02*
X320801970Y-282445471D01*
X320801970Y-282445471D02*
X320659113Y-282516900D01*
D10*
D11*
X299989000Y-278502200D02*
X407989000Y-278502200D01*
D10*
D12*
X387400653Y-280780528D02*
X386900653Y-280066242D01*
X386543510Y-280780528D02*
X386543510Y-279280528D01*
X386543510Y-279280528D02*
X387114939Y-279280528D01*
X387114939Y-279280528D02*
X387257796Y-279351957D01*
X387257796Y-279351957D02*
X387329225Y-279423385D01*
X387329225Y-279423385D02*
X387400653Y-279566242D01*
X387400653Y-279566242D02*
X387400653Y-279780528D01*
X387400653Y-279780528D02*
X387329225Y-279923385D01*
X387329225Y-279923385D02*
X387257796Y-279994814D01*
X387257796Y-279994814D02*
X387114939Y-280066242D01*
X387114939Y-280066242D02*
X386543510Y-280066242D01*
X388614939Y-280709100D02*
X388472082Y-280780528D01*
X388472082Y-280780528D02*
X388186368Y-280780528D01*
X388186368Y-280780528D02*
X388043510Y-280709100D01*
X388043510Y-280709100D02*
X387972082Y-280566242D01*
X387972082Y-280566242D02*
X387972082Y-279994814D01*
X387972082Y-279994814D02*
X388043510Y-279851957D01*
X388043510Y-279851957D02*
X388186368Y-279780528D01*
X388186368Y-279780528D02*
X388472082Y-279780528D01*
X388472082Y-279780528D02*
X388614939Y-279851957D01*
X388614939Y-279851957D02*
X388686368Y-279994814D01*
X388686368Y-279994814D02*
X388686368Y-280137671D01*
X388686368Y-280137671D02*
X387972082Y-280280528D01*
X389186367Y-279780528D02*
X389543510Y-280780528D01*
X389543510Y-280780528D02*
X389900653Y-279780528D01*
X390472081Y-280637671D02*
X390543510Y-280709100D01*
X390543510Y-280709100D02*
X390472081Y-280780528D01*
X390472081Y-280780528D02*
X390400653Y-280709100D01*
X390400653Y-280709100D02*
X390472081Y-280637671D01*
X390472081Y-280637671D02*
X390472081Y-280780528D01*
X390472081Y-279851957D02*
X390543510Y-279923385D01*
X390543510Y-279923385D02*
X390472081Y-279994814D01*
X390472081Y-279994814D02*
X390400653Y-279923385D01*
X390400653Y-279923385D02*
X390472081Y-279851957D01*
X390472081Y-279851957D02*
X390472081Y-279994814D01*
X392329224Y-280780528D02*
X392329224Y-279280528D01*
X392329224Y-279280528D02*
X392900653Y-279280528D01*
X392900653Y-279280528D02*
X393043510Y-279351957D01*
X393043510Y-279351957D02*
X393114939Y-279423385D01*
X393114939Y-279423385D02*
X393186367Y-279566242D01*
X393186367Y-279566242D02*
X393186367Y-279780528D01*
X393186367Y-279780528D02*
X393114939Y-279923385D01*
X393114939Y-279923385D02*
X393043510Y-279994814D01*
X393043510Y-279994814D02*
X392900653Y-280066242D01*
X392900653Y-280066242D02*
X392329224Y-280066242D01*
X393829224Y-280780528D02*
X393829224Y-279780528D01*
X393829224Y-280066242D02*
X393900653Y-279923385D01*
X393900653Y-279923385D02*
X393972082Y-279851957D01*
X393972082Y-279851957D02*
X394114939Y-279780528D01*
X394114939Y-279780528D02*
X394257796Y-279780528D01*
X394972081Y-280780528D02*
X394829224Y-280709100D01*
X394829224Y-280709100D02*
X394757795Y-280637671D01*
X394757795Y-280637671D02*
X394686367Y-280494814D01*
X394686367Y-280494814D02*
X394686367Y-280066242D01*
X394686367Y-280066242D02*
X394757795Y-279923385D01*
X394757795Y-279923385D02*
X394829224Y-279851957D01*
X394829224Y-279851957D02*
X394972081Y-279780528D01*
X394972081Y-279780528D02*
X395186367Y-279780528D01*
X395186367Y-279780528D02*
X395329224Y-279851957D01*
X395329224Y-279851957D02*
X395400653Y-279923385D01*
X395400653Y-279923385D02*
X395472081Y-280066242D01*
X395472081Y-280066242D02*
X395472081Y-280494814D01*
X395472081Y-280494814D02*
X395400653Y-280637671D01*
X395400653Y-280637671D02*
X395329224Y-280709100D01*
X395329224Y-280709100D02*
X395186367Y-280780528D01*
X395186367Y-280780528D02*
X394972081Y-280780528D01*
X395900653Y-279780528D02*
X396472081Y-279780528D01*
X396114938Y-279280528D02*
X396114938Y-280566242D01*
X396114938Y-280566242D02*
X396186367Y-280709100D01*
X396186367Y-280709100D02*
X396329224Y-280780528D01*
X396329224Y-280780528D02*
X396472081Y-280780528D01*
X397186367Y-280780528D02*
X397043510Y-280709100D01*
X397043510Y-280709100D02*
X396972081Y-280637671D01*
X396972081Y-280637671D02*
X396900653Y-280494814D01*
X396900653Y-280494814D02*
X396900653Y-280066242D01*
X396900653Y-280066242D02*
X396972081Y-279923385D01*
X396972081Y-279923385D02*
X397043510Y-279851957D01*
X397043510Y-279851957D02*
X397186367Y-279780528D01*
X397186367Y-279780528D02*
X397400653Y-279780528D01*
X397400653Y-279780528D02*
X397543510Y-279851957D01*
X397543510Y-279851957D02*
X397614939Y-279923385D01*
X397614939Y-279923385D02*
X397686367Y-280066242D01*
X397686367Y-280066242D02*
X397686367Y-280494814D01*
X397686367Y-280494814D02*
X397614939Y-280637671D01*
X397614939Y-280637671D02*
X397543510Y-280709100D01*
X397543510Y-280709100D02*
X397400653Y-280780528D01*
X397400653Y-280780528D02*
X397186367Y-280780528D01*
D10*
D11*
X301373398Y-280716900D02*
X301587684Y-280788328D01*
X301587684Y-280788328D02*
X301944826Y-280788328D01*
X301944826Y-280788328D02*
X302087684Y-280716900D01*
X302087684Y-280716900D02*
X302159112Y-280645471D01*
X302159112Y-280645471D02*
X302230541Y-280502614D01*
X302230541Y-280502614D02*
X302230541Y-280359757D01*
X302230541Y-280359757D02*
X302159112Y-280216900D01*
X302159112Y-280216900D02*
X302087684Y-280145471D01*
X302087684Y-280145471D02*
X301944826Y-280074042D01*
X301944826Y-280074042D02*
X301659112Y-280002614D01*
X301659112Y-280002614D02*
X301516255Y-279931185D01*
X301516255Y-279931185D02*
X301444826Y-279859757D01*
X301444826Y-279859757D02*
X301373398Y-279716900D01*
X301373398Y-279716900D02*
X301373398Y-279574042D01*
X301373398Y-279574042D02*
X301444826Y-279431185D01*
X301444826Y-279431185D02*
X301516255Y-279359757D01*
X301516255Y-279359757D02*
X301659112Y-279288328D01*
X301659112Y-279288328D02*
X302016255Y-279288328D01*
X302016255Y-279288328D02*
X302230541Y-279359757D01*
X302873397Y-280788328D02*
X302873397Y-279788328D01*
X302873397Y-279288328D02*
X302801969Y-279359757D01*
X302801969Y-279359757D02*
X302873397Y-279431185D01*
X302873397Y-279431185D02*
X302944826Y-279359757D01*
X302944826Y-279359757D02*
X302873397Y-279288328D01*
X302873397Y-279288328D02*
X302873397Y-279431185D01*
X303444826Y-279788328D02*
X304230541Y-279788328D01*
X304230541Y-279788328D02*
X303444826Y-280788328D01*
X303444826Y-280788328D02*
X304230541Y-280788328D01*
X305373398Y-280716900D02*
X305230541Y-280788328D01*
X305230541Y-280788328D02*
X304944827Y-280788328D01*
X304944827Y-280788328D02*
X304801969Y-280716900D01*
X304801969Y-280716900D02*
X304730541Y-280574042D01*
X304730541Y-280574042D02*
X304730541Y-280002614D01*
X304730541Y-280002614D02*
X304801969Y-279859757D01*
X304801969Y-279859757D02*
X304944827Y-279788328D01*
X304944827Y-279788328D02*
X305230541Y-279788328D01*
X305230541Y-279788328D02*
X305373398Y-279859757D01*
X305373398Y-279859757D02*
X305444827Y-280002614D01*
X305444827Y-280002614D02*
X305444827Y-280145471D01*
X305444827Y-280145471D02*
X304730541Y-280288328D01*
X306087683Y-280645471D02*
X306159112Y-280716900D01*
X306159112Y-280716900D02*
X306087683Y-280788328D01*
X306087683Y-280788328D02*
X306016255Y-280716900D01*
X306016255Y-280716900D02*
X306087683Y-280645471D01*
X306087683Y-280645471D02*
X306087683Y-280788328D01*
X306087683Y-279859757D02*
X306159112Y-279931185D01*
X306159112Y-279931185D02*
X306087683Y-280002614D01*
X306087683Y-280002614D02*
X306016255Y-279931185D01*
X306016255Y-279931185D02*
X306087683Y-279859757D01*
X306087683Y-279859757D02*
X306087683Y-280002614D01*
X307873398Y-280359757D02*
X308587684Y-280359757D01*
X307730541Y-280788328D02*
X308230541Y-279288328D01*
X308230541Y-279288328D02*
X308730541Y-280788328D01*
X309087683Y-279288328D02*
X310016255Y-279288328D01*
X310016255Y-279288328D02*
X309516255Y-279859757D01*
X309516255Y-279859757D02*
X309730540Y-279859757D01*
X309730540Y-279859757D02*
X309873398Y-279931185D01*
X309873398Y-279931185D02*
X309944826Y-280002614D01*
X309944826Y-280002614D02*
X310016255Y-280145471D01*
X310016255Y-280145471D02*
X310016255Y-280502614D01*
X310016255Y-280502614D02*
X309944826Y-280645471D01*
X309944826Y-280645471D02*
X309873398Y-280716900D01*
X309873398Y-280716900D02*
X309730540Y-280788328D01*
X309730540Y-280788328D02*
X309301969Y-280788328D01*
X309301969Y-280788328D02*
X309159112Y-280716900D01*
X309159112Y-280716900D02*
X309087683Y-280645471D01*
D10*
D11*
X386444826Y-283588328D02*
X386444826Y-282088328D01*
X387801970Y-283588328D02*
X387801970Y-282088328D01*
X387801970Y-283516900D02*
X387659112Y-283588328D01*
X387659112Y-283588328D02*
X387373398Y-283588328D01*
X387373398Y-283588328D02*
X387230541Y-283516900D01*
X387230541Y-283516900D02*
X387159112Y-283445471D01*
X387159112Y-283445471D02*
X387087684Y-283302614D01*
X387087684Y-283302614D02*
X387087684Y-282874042D01*
X387087684Y-282874042D02*
X387159112Y-282731185D01*
X387159112Y-282731185D02*
X387230541Y-282659757D01*
X387230541Y-282659757D02*
X387373398Y-282588328D01*
X387373398Y-282588328D02*
X387659112Y-282588328D01*
X387659112Y-282588328D02*
X387801970Y-282659757D01*
X388516255Y-283445471D02*
X388587684Y-283516900D01*
X388587684Y-283516900D02*
X388516255Y-283588328D01*
X388516255Y-283588328D02*
X388444827Y-283516900D01*
X388444827Y-283516900D02*
X388516255Y-283445471D01*
X388516255Y-283445471D02*
X388516255Y-283588328D01*
X388516255Y-282659757D02*
X388587684Y-282731185D01*
X388587684Y-282731185D02*
X388516255Y-282802614D01*
X388516255Y-282802614D02*
X388444827Y-282731185D01*
X388444827Y-282731185D02*
X388516255Y-282659757D01*
X388516255Y-282659757D02*
X388516255Y-282802614D01*
X391159113Y-283588328D02*
X390301970Y-283588328D01*
X390730541Y-283588328D02*
X390730541Y-282088328D01*
X390730541Y-282088328D02*
X390587684Y-282302614D01*
X390587684Y-282302614D02*
X390444827Y-282445471D01*
X390444827Y-282445471D02*
X390301970Y-282516900D01*
X392873398Y-282016900D02*
X391587684Y-283945471D01*
X394159113Y-283588328D02*
X393301970Y-283588328D01*
X393730541Y-283588328D02*
X393730541Y-282088328D01*
X393730541Y-282088328D02*
X393587684Y-282302614D01*
X393587684Y-282302614D02*
X393444827Y-282445471D01*
X393444827Y-282445471D02*
X393301970Y-282516900D01*
D10*
D11*
X299989000Y-274502200D02*
X407989000Y-274502200D01*
D10*
D13*
X301680728Y-275206638D02*
X302823585Y-275206638D01*
X302002157Y-277206638D02*
X302252157Y-275206638D01*
X303240252Y-277206638D02*
X303406919Y-275873304D01*
X303490252Y-275206638D02*
X303383109Y-275301876D01*
X303383109Y-275301876D02*
X303466443Y-275397114D01*
X303466443Y-275397114D02*
X303573586Y-275301876D01*
X303573586Y-275301876D02*
X303490252Y-275206638D01*
X303490252Y-275206638D02*
X303466443Y-275397114D01*
X304073586Y-275873304D02*
X304835490Y-275873304D01*
X304442633Y-275206638D02*
X304228348Y-276920923D01*
X304228348Y-276920923D02*
X304299776Y-277111400D01*
X304299776Y-277111400D02*
X304478348Y-277206638D01*
X304478348Y-277206638D02*
X304668824Y-277206638D01*
X305621205Y-277206638D02*
X305442633Y-277111400D01*
X305442633Y-277111400D02*
X305371205Y-276920923D01*
X305371205Y-276920923D02*
X305585490Y-275206638D01*
X307156919Y-277111400D02*
X306954538Y-277206638D01*
X306954538Y-277206638D02*
X306573585Y-277206638D01*
X306573585Y-277206638D02*
X306395014Y-277111400D01*
X306395014Y-277111400D02*
X306323585Y-276920923D01*
X306323585Y-276920923D02*
X306418824Y-276159019D01*
X306418824Y-276159019D02*
X306537871Y-275968542D01*
X306537871Y-275968542D02*
X306740252Y-275873304D01*
X306740252Y-275873304D02*
X307121204Y-275873304D01*
X307121204Y-275873304D02*
X307299776Y-275968542D01*
X307299776Y-275968542D02*
X307371204Y-276159019D01*
X307371204Y-276159019D02*
X307347395Y-276349495D01*
X307347395Y-276349495D02*
X306371204Y-276539971D01*
X308121205Y-277016161D02*
X308204538Y-277111400D01*
X308204538Y-277111400D02*
X308097395Y-277206638D01*
X308097395Y-277206638D02*
X308014062Y-277111400D01*
X308014062Y-277111400D02*
X308121205Y-277016161D01*
X308121205Y-277016161D02*
X308097395Y-277206638D01*
X308252157Y-275968542D02*
X308335490Y-276063780D01*
X308335490Y-276063780D02*
X308228348Y-276159019D01*
X308228348Y-276159019D02*
X308145014Y-276063780D01*
X308145014Y-276063780D02*
X308252157Y-275968542D01*
X308252157Y-275968542D02*
X308228348Y-276159019D01*
X310490253Y-277111400D02*
X310668824Y-277206638D01*
X310668824Y-277206638D02*
X311049777Y-277206638D01*
X311049777Y-277206638D02*
X311252158Y-277111400D01*
X311252158Y-277111400D02*
X311371205Y-276920923D01*
X311371205Y-276920923D02*
X311383110Y-276825685D01*
X311383110Y-276825685D02*
X311311681Y-276635209D01*
X311311681Y-276635209D02*
X311133110Y-276539971D01*
X311133110Y-276539971D02*
X310847396Y-276539971D01*
X310847396Y-276539971D02*
X310668824Y-276444733D01*
X310668824Y-276444733D02*
X310597396Y-276254257D01*
X310597396Y-276254257D02*
X310609301Y-276159019D01*
X310609301Y-276159019D02*
X310728348Y-275968542D01*
X310728348Y-275968542D02*
X310930729Y-275873304D01*
X310930729Y-275873304D02*
X311216443Y-275873304D01*
X311216443Y-275873304D02*
X311395015Y-275968542D01*
X312073587Y-275873304D02*
X312835491Y-275873304D01*
X312442634Y-275206638D02*
X312228349Y-276920923D01*
X312228349Y-276920923D02*
X312299777Y-277111400D01*
X312299777Y-277111400D02*
X312478349Y-277206638D01*
X312478349Y-277206638D02*
X312668825Y-277206638D01*
X313335491Y-277206638D02*
X313502158Y-275873304D01*
X313478348Y-276063780D02*
X313585491Y-275968542D01*
X313585491Y-275968542D02*
X313787872Y-275873304D01*
X313787872Y-275873304D02*
X314073586Y-275873304D01*
X314073586Y-275873304D02*
X314252158Y-275968542D01*
X314252158Y-275968542D02*
X314323586Y-276159019D01*
X314323586Y-276159019D02*
X314192634Y-277206638D01*
X314323586Y-276159019D02*
X314442634Y-275968542D01*
X314442634Y-275968542D02*
X314645015Y-275873304D01*
X314645015Y-275873304D02*
X314930729Y-275873304D01*
X314930729Y-275873304D02*
X315109301Y-275968542D01*
X315109301Y-275968542D02*
X315180729Y-276159019D01*
X315180729Y-276159019D02*
X315049777Y-277206638D01*
X316061682Y-275206638D02*
X317299777Y-275206638D01*
X317299777Y-275206638D02*
X316537873Y-275968542D01*
X316537873Y-275968542D02*
X316823587Y-275968542D01*
X316823587Y-275968542D02*
X317002158Y-276063780D01*
X317002158Y-276063780D02*
X317085492Y-276159019D01*
X317085492Y-276159019D02*
X317156920Y-276349495D01*
X317156920Y-276349495D02*
X317097396Y-276825685D01*
X317097396Y-276825685D02*
X316978349Y-277016161D01*
X316978349Y-277016161D02*
X316871206Y-277111400D01*
X316871206Y-277111400D02*
X316668825Y-277206638D01*
X316668825Y-277206638D02*
X316097396Y-277206638D01*
X316097396Y-277206638D02*
X315918825Y-277111400D01*
X315918825Y-277111400D02*
X315835492Y-277016161D01*
X318037873Y-275397114D02*
X318145015Y-275301876D01*
X318145015Y-275301876D02*
X318347396Y-275206638D01*
X318347396Y-275206638D02*
X318823587Y-275206638D01*
X318823587Y-275206638D02*
X319002158Y-275301876D01*
X319002158Y-275301876D02*
X319085492Y-275397114D01*
X319085492Y-275397114D02*
X319156920Y-275587590D01*
X319156920Y-275587590D02*
X319133111Y-275778066D01*
X319133111Y-275778066D02*
X319002158Y-276063780D01*
X319002158Y-276063780D02*
X317716444Y-277206638D01*
X317716444Y-277206638D02*
X318954539Y-277206638D01*
X319311682Y-277397114D02*
X320835492Y-277397114D01*
X321335492Y-277206638D02*
X321585492Y-275206638D01*
X321490254Y-275968542D02*
X321692635Y-275873304D01*
X321692635Y-275873304D02*
X322073587Y-275873304D01*
X322073587Y-275873304D02*
X322252159Y-275968542D01*
X322252159Y-275968542D02*
X322335492Y-276063780D01*
X322335492Y-276063780D02*
X322406921Y-276254257D01*
X322406921Y-276254257D02*
X322335492Y-276825685D01*
X322335492Y-276825685D02*
X322216445Y-277016161D01*
X322216445Y-277016161D02*
X322109302Y-277111400D01*
X322109302Y-277111400D02*
X321906921Y-277206638D01*
X321906921Y-277206638D02*
X321525968Y-277206638D01*
X321525968Y-277206638D02*
X321347397Y-277111400D01*
X323430731Y-277206638D02*
X323252159Y-277111400D01*
X323252159Y-277111400D02*
X323180731Y-276920923D01*
X323180731Y-276920923D02*
X323395016Y-275206638D01*
X325216445Y-275873304D02*
X325049778Y-277206638D01*
X324359302Y-275873304D02*
X324228350Y-276920923D01*
X324228350Y-276920923D02*
X324299778Y-277111400D01*
X324299778Y-277111400D02*
X324478350Y-277206638D01*
X324478350Y-277206638D02*
X324764064Y-277206638D01*
X324764064Y-277206638D02*
X324966445Y-277111400D01*
X324966445Y-277111400D02*
X325073588Y-277016161D01*
X326775969Y-277111400D02*
X326573588Y-277206638D01*
X326573588Y-277206638D02*
X326192635Y-277206638D01*
X326192635Y-277206638D02*
X326014064Y-277111400D01*
X326014064Y-277111400D02*
X325942635Y-276920923D01*
X325942635Y-276920923D02*
X326037874Y-276159019D01*
X326037874Y-276159019D02*
X326156921Y-275968542D01*
X326156921Y-275968542D02*
X326359302Y-275873304D01*
X326359302Y-275873304D02*
X326740254Y-275873304D01*
X326740254Y-275873304D02*
X326918826Y-275968542D01*
X326918826Y-275968542D02*
X326990254Y-276159019D01*
X326990254Y-276159019D02*
X326966445Y-276349495D01*
X326966445Y-276349495D02*
X325990254Y-276539971D01*
X327597398Y-275873304D02*
X328359302Y-275873304D01*
X327966445Y-275206638D02*
X327752160Y-276920923D01*
X327752160Y-276920923D02*
X327823588Y-277111400D01*
X327823588Y-277111400D02*
X328002160Y-277206638D01*
X328002160Y-277206638D02*
X328192636Y-277206638D01*
X328359302Y-277397114D02*
X329883112Y-277397114D01*
X330549779Y-275873304D02*
X330299779Y-277873304D01*
X330537874Y-275968542D02*
X330740255Y-275873304D01*
X330740255Y-275873304D02*
X331121207Y-275873304D01*
X331121207Y-275873304D02*
X331299779Y-275968542D01*
X331299779Y-275968542D02*
X331383112Y-276063780D01*
X331383112Y-276063780D02*
X331454541Y-276254257D01*
X331454541Y-276254257D02*
X331383112Y-276825685D01*
X331383112Y-276825685D02*
X331264065Y-277016161D01*
X331264065Y-277016161D02*
X331156922Y-277111400D01*
X331156922Y-277111400D02*
X330954541Y-277206638D01*
X330954541Y-277206638D02*
X330573588Y-277206638D01*
X330573588Y-277206638D02*
X330395017Y-277111400D01*
X332192636Y-277206638D02*
X332359303Y-275873304D01*
X332442636Y-275206638D02*
X332335493Y-275301876D01*
X332335493Y-275301876D02*
X332418827Y-275397114D01*
X332418827Y-275397114D02*
X332525970Y-275301876D01*
X332525970Y-275301876D02*
X332442636Y-275206638D01*
X332442636Y-275206638D02*
X332418827Y-275397114D01*
X333430732Y-277206638D02*
X333252160Y-277111400D01*
X333252160Y-277111400D02*
X333180732Y-276920923D01*
X333180732Y-276920923D02*
X333395017Y-275206638D01*
X334478351Y-277206638D02*
X334299779Y-277111400D01*
X334299779Y-277111400D02*
X334228351Y-276920923D01*
X334228351Y-276920923D02*
X334442636Y-275206638D01*
D10*
D11*
X301944826Y-272602614D02*
X301444826Y-272602614D01*
X301444826Y-273388328D02*
X301444826Y-271888328D01*
X301444826Y-271888328D02*
X302159112Y-271888328D01*
X302730540Y-273388328D02*
X302730540Y-272388328D01*
X302730540Y-271888328D02*
X302659112Y-271959757D01*
X302659112Y-271959757D02*
X302730540Y-272031185D01*
X302730540Y-272031185D02*
X302801969Y-271959757D01*
X302801969Y-271959757D02*
X302730540Y-271888328D01*
X302730540Y-271888328D02*
X302730540Y-272031185D01*
X303659112Y-273388328D02*
X303516255Y-273316900D01*
X303516255Y-273316900D02*
X303444826Y-273174042D01*
X303444826Y-273174042D02*
X303444826Y-271888328D01*
X304801969Y-273316900D02*
X304659112Y-273388328D01*
X304659112Y-273388328D02*
X304373398Y-273388328D01*
X304373398Y-273388328D02*
X304230540Y-273316900D01*
X304230540Y-273316900D02*
X304159112Y-273174042D01*
X304159112Y-273174042D02*
X304159112Y-272602614D01*
X304159112Y-272602614D02*
X304230540Y-272459757D01*
X304230540Y-272459757D02*
X304373398Y-272388328D01*
X304373398Y-272388328D02*
X304659112Y-272388328D01*
X304659112Y-272388328D02*
X304801969Y-272459757D01*
X304801969Y-272459757D02*
X304873398Y-272602614D01*
X304873398Y-272602614D02*
X304873398Y-272745471D01*
X304873398Y-272745471D02*
X304159112Y-272888328D01*
X305516254Y-273245471D02*
X305587683Y-273316900D01*
X305587683Y-273316900D02*
X305516254Y-273388328D01*
X305516254Y-273388328D02*
X305444826Y-273316900D01*
X305444826Y-273316900D02*
X305516254Y-273245471D01*
X305516254Y-273245471D02*
X305516254Y-273388328D01*
X305516254Y-272459757D02*
X305587683Y-272531185D01*
X305587683Y-272531185D02*
X305516254Y-272602614D01*
X305516254Y-272602614D02*
X305444826Y-272531185D01*
X305444826Y-272531185D02*
X305516254Y-272459757D01*
X305516254Y-272459757D02*
X305516254Y-272602614D01*
X307301969Y-273316900D02*
X307444826Y-273388328D01*
X307444826Y-273388328D02*
X307730540Y-273388328D01*
X307730540Y-273388328D02*
X307873397Y-273316900D01*
X307873397Y-273316900D02*
X307944826Y-273174042D01*
X307944826Y-273174042D02*
X307944826Y-273102614D01*
X307944826Y-273102614D02*
X307873397Y-272959757D01*
X307873397Y-272959757D02*
X307730540Y-272888328D01*
X307730540Y-272888328D02*
X307516255Y-272888328D01*
X307516255Y-272888328D02*
X307373397Y-272816900D01*
X307373397Y-272816900D02*
X307301969Y-272674042D01*
X307301969Y-272674042D02*
X307301969Y-272602614D01*
X307301969Y-272602614D02*
X307373397Y-272459757D01*
X307373397Y-272459757D02*
X307516255Y-272388328D01*
X307516255Y-272388328D02*
X307730540Y-272388328D01*
X307730540Y-272388328D02*
X307873397Y-272459757D01*
X308373398Y-272388328D02*
X308944826Y-272388328D01*
X308587683Y-271888328D02*
X308587683Y-273174042D01*
X308587683Y-273174042D02*
X308659112Y-273316900D01*
X308659112Y-273316900D02*
X308801969Y-273388328D01*
X308801969Y-273388328D02*
X308944826Y-273388328D01*
X309444826Y-273388328D02*
X309444826Y-272388328D01*
X309444826Y-272531185D02*
X309516255Y-272459757D01*
X309516255Y-272459757D02*
X309659112Y-272388328D01*
X309659112Y-272388328D02*
X309873398Y-272388328D01*
X309873398Y-272388328D02*
X310016255Y-272459757D01*
X310016255Y-272459757D02*
X310087684Y-272602614D01*
X310087684Y-272602614D02*
X310087684Y-273388328D01*
X310087684Y-272602614D02*
X310159112Y-272459757D01*
X310159112Y-272459757D02*
X310301969Y-272388328D01*
X310301969Y-272388328D02*
X310516255Y-272388328D01*
X310516255Y-272388328D02*
X310659112Y-272459757D01*
X310659112Y-272459757D02*
X310730541Y-272602614D01*
X310730541Y-272602614D02*
X310730541Y-273388328D01*
X311301969Y-271888328D02*
X312230541Y-271888328D01*
X312230541Y-271888328D02*
X311730541Y-272459757D01*
X311730541Y-272459757D02*
X311944826Y-272459757D01*
X311944826Y-272459757D02*
X312087684Y-272531185D01*
X312087684Y-272531185D02*
X312159112Y-272602614D01*
X312159112Y-272602614D02*
X312230541Y-272745471D01*
X312230541Y-272745471D02*
X312230541Y-273102614D01*
X312230541Y-273102614D02*
X312159112Y-273245471D01*
X312159112Y-273245471D02*
X312087684Y-273316900D01*
X312087684Y-273316900D02*
X311944826Y-273388328D01*
X311944826Y-273388328D02*
X311516255Y-273388328D01*
X311516255Y-273388328D02*
X311373398Y-273316900D01*
X311373398Y-273316900D02*
X311301969Y-273245471D01*
X312801969Y-272031185D02*
X312873397Y-271959757D01*
X312873397Y-271959757D02*
X313016255Y-271888328D01*
X313016255Y-271888328D02*
X313373397Y-271888328D01*
X313373397Y-271888328D02*
X313516255Y-271959757D01*
X313516255Y-271959757D02*
X313587683Y-272031185D01*
X313587683Y-272031185D02*
X313659112Y-272174042D01*
X313659112Y-272174042D02*
X313659112Y-272316900D01*
X313659112Y-272316900D02*
X313587683Y-272531185D01*
X313587683Y-272531185D02*
X312730540Y-273388328D01*
X312730540Y-273388328D02*
X313659112Y-273388328D01*
X313944826Y-273531185D02*
X315087683Y-273531185D01*
X315444825Y-273388328D02*
X315444825Y-271888328D01*
X315444825Y-272459757D02*
X315587683Y-272388328D01*
X315587683Y-272388328D02*
X315873397Y-272388328D01*
X315873397Y-272388328D02*
X316016254Y-272459757D01*
X316016254Y-272459757D02*
X316087683Y-272531185D01*
X316087683Y-272531185D02*
X316159111Y-272674042D01*
X316159111Y-272674042D02*
X316159111Y-273102614D01*
X316159111Y-273102614D02*
X316087683Y-273245471D01*
X316087683Y-273245471D02*
X316016254Y-273316900D01*
X316016254Y-273316900D02*
X315873397Y-273388328D01*
X315873397Y-273388328D02*
X315587683Y-273388328D01*
X315587683Y-273388328D02*
X315444825Y-273316900D01*
X317016254Y-273388328D02*
X316873397Y-273316900D01*
X316873397Y-273316900D02*
X316801968Y-273174042D01*
X316801968Y-273174042D02*
X316801968Y-271888328D01*
X318230540Y-272388328D02*
X318230540Y-273388328D01*
X317587682Y-272388328D02*
X317587682Y-273174042D01*
X317587682Y-273174042D02*
X317659111Y-273316900D01*
X317659111Y-273316900D02*
X317801968Y-273388328D01*
X317801968Y-273388328D02*
X318016254Y-273388328D01*
X318016254Y-273388328D02*
X318159111Y-273316900D01*
X318159111Y-273316900D02*
X318230540Y-273245471D01*
X319516254Y-273316900D02*
X319373397Y-273388328D01*
X319373397Y-273388328D02*
X319087683Y-273388328D01*
X319087683Y-273388328D02*
X318944825Y-273316900D01*
X318944825Y-273316900D02*
X318873397Y-273174042D01*
X318873397Y-273174042D02*
X318873397Y-272602614D01*
X318873397Y-272602614D02*
X318944825Y-272459757D01*
X318944825Y-272459757D02*
X319087683Y-272388328D01*
X319087683Y-272388328D02*
X319373397Y-272388328D01*
X319373397Y-272388328D02*
X319516254Y-272459757D01*
X319516254Y-272459757D02*
X319587683Y-272602614D01*
X319587683Y-272602614D02*
X319587683Y-272745471D01*
X319587683Y-272745471D02*
X318873397Y-272888328D01*
X320016254Y-272388328D02*
X320587682Y-272388328D01*
X320230539Y-271888328D02*
X320230539Y-273174042D01*
X320230539Y-273174042D02*
X320301968Y-273316900D01*
X320301968Y-273316900D02*
X320444825Y-273388328D01*
X320444825Y-273388328D02*
X320587682Y-273388328D01*
X320730540Y-273531185D02*
X321873397Y-273531185D01*
X322230539Y-272388328D02*
X322230539Y-273888328D01*
X322230539Y-272459757D02*
X322373397Y-272388328D01*
X322373397Y-272388328D02*
X322659111Y-272388328D01*
X322659111Y-272388328D02*
X322801968Y-272459757D01*
X322801968Y-272459757D02*
X322873397Y-272531185D01*
X322873397Y-272531185D02*
X322944825Y-272674042D01*
X322944825Y-272674042D02*
X322944825Y-273102614D01*
X322944825Y-273102614D02*
X322873397Y-273245471D01*
X322873397Y-273245471D02*
X322801968Y-273316900D01*
X322801968Y-273316900D02*
X322659111Y-273388328D01*
X322659111Y-273388328D02*
X322373397Y-273388328D01*
X322373397Y-273388328D02*
X322230539Y-273316900D01*
X323587682Y-273388328D02*
X323587682Y-272388328D01*
X323587682Y-271888328D02*
X323516254Y-271959757D01*
X323516254Y-271959757D02*
X323587682Y-272031185D01*
X323587682Y-272031185D02*
X323659111Y-271959757D01*
X323659111Y-271959757D02*
X323587682Y-271888328D01*
X323587682Y-271888328D02*
X323587682Y-272031185D01*
X324516254Y-273388328D02*
X324373397Y-273316900D01*
X324373397Y-273316900D02*
X324301968Y-273174042D01*
X324301968Y-273174042D02*
X324301968Y-271888328D01*
X325301968Y-273388328D02*
X325159111Y-273316900D01*
X325159111Y-273316900D02*
X325087682Y-273174042D01*
X325087682Y-273174042D02*
X325087682Y-271888328D01*
X325873396Y-273245471D02*
X325944825Y-273316900D01*
X325944825Y-273316900D02*
X325873396Y-273388328D01*
X325873396Y-273388328D02*
X325801968Y-273316900D01*
X325801968Y-273316900D02*
X325873396Y-273245471D01*
X325873396Y-273245471D02*
X325873396Y-273388328D01*
X326587682Y-273388328D02*
X326587682Y-271888328D01*
X326730540Y-272816900D02*
X327159111Y-273388328D01*
X327159111Y-272388328D02*
X326587682Y-272959757D01*
X327801968Y-273388328D02*
X327801968Y-272388328D01*
X327801968Y-271888328D02*
X327730540Y-271959757D01*
X327730540Y-271959757D02*
X327801968Y-272031185D01*
X327801968Y-272031185D02*
X327873397Y-271959757D01*
X327873397Y-271959757D02*
X327801968Y-271888328D01*
X327801968Y-271888328D02*
X327801968Y-272031185D01*
X329159112Y-273316900D02*
X329016254Y-273388328D01*
X329016254Y-273388328D02*
X328730540Y-273388328D01*
X328730540Y-273388328D02*
X328587683Y-273316900D01*
X328587683Y-273316900D02*
X328516254Y-273245471D01*
X328516254Y-273245471D02*
X328444826Y-273102614D01*
X328444826Y-273102614D02*
X328444826Y-272674042D01*
X328444826Y-272674042D02*
X328516254Y-272531185D01*
X328516254Y-272531185D02*
X328587683Y-272459757D01*
X328587683Y-272459757D02*
X328730540Y-272388328D01*
X328730540Y-272388328D02*
X329016254Y-272388328D01*
X329016254Y-272388328D02*
X329159112Y-272459757D01*
X330444826Y-273388328D02*
X330444826Y-272602614D01*
X330444826Y-272602614D02*
X330373397Y-272459757D01*
X330373397Y-272459757D02*
X330230540Y-272388328D01*
X330230540Y-272388328D02*
X329944826Y-272388328D01*
X329944826Y-272388328D02*
X329801968Y-272459757D01*
X330444826Y-273316900D02*
X330301968Y-273388328D01*
X330301968Y-273388328D02*
X329944826Y-273388328D01*
X329944826Y-273388328D02*
X329801968Y-273316900D01*
X329801968Y-273316900D02*
X329730540Y-273174042D01*
X329730540Y-273174042D02*
X329730540Y-273031185D01*
X329730540Y-273031185D02*
X329801968Y-272888328D01*
X329801968Y-272888328D02*
X329944826Y-272816900D01*
X329944826Y-272816900D02*
X330301968Y-272816900D01*
X330301968Y-272816900D02*
X330444826Y-272745471D01*
X331801969Y-273388328D02*
X331801969Y-271888328D01*
X331801969Y-273316900D02*
X331659111Y-273388328D01*
X331659111Y-273388328D02*
X331373397Y-273388328D01*
X331373397Y-273388328D02*
X331230540Y-273316900D01*
X331230540Y-273316900D02*
X331159111Y-273245471D01*
X331159111Y-273245471D02*
X331087683Y-273102614D01*
X331087683Y-273102614D02*
X331087683Y-272674042D01*
X331087683Y-272674042D02*
X331159111Y-272531185D01*
X331159111Y-272531185D02*
X331230540Y-272459757D01*
X331230540Y-272459757D02*
X331373397Y-272388328D01*
X331373397Y-272388328D02*
X331659111Y-272388328D01*
X331659111Y-272388328D02*
X331801969Y-272459757D01*
X332159112Y-273531185D02*
X333301969Y-273531185D01*
X333659111Y-272388328D02*
X333659111Y-273888328D01*
X333659111Y-272459757D02*
X333801969Y-272388328D01*
X333801969Y-272388328D02*
X334087683Y-272388328D01*
X334087683Y-272388328D02*
X334230540Y-272459757D01*
X334230540Y-272459757D02*
X334301969Y-272531185D01*
X334301969Y-272531185D02*
X334373397Y-272674042D01*
X334373397Y-272674042D02*
X334373397Y-273102614D01*
X334373397Y-273102614D02*
X334301969Y-273245471D01*
X334301969Y-273245471D02*
X334230540Y-273316900D01*
X334230540Y-273316900D02*
X334087683Y-273388328D01*
X334087683Y-273388328D02*
X333801969Y-273388328D01*
X333801969Y-273388328D02*
X333659111Y-273316900D01*
X335659112Y-273316900D02*
X335516254Y-273388328D01*
X335516254Y-273388328D02*
X335230540Y-273388328D01*
X335230540Y-273388328D02*
X335087683Y-273316900D01*
X335087683Y-273316900D02*
X335016254Y-273245471D01*
X335016254Y-273245471D02*
X334944826Y-273102614D01*
X334944826Y-273102614D02*
X334944826Y-272674042D01*
X334944826Y-272674042D02*
X335016254Y-272531185D01*
X335016254Y-272531185D02*
X335087683Y-272459757D01*
X335087683Y-272459757D02*
X335230540Y-272388328D01*
X335230540Y-272388328D02*
X335516254Y-272388328D01*
X335516254Y-272388328D02*
X335659112Y-272459757D01*
X336301968Y-273388328D02*
X336301968Y-271888328D01*
X336301968Y-272459757D02*
X336444826Y-272388328D01*
X336444826Y-272388328D02*
X336730540Y-272388328D01*
X336730540Y-272388328D02*
X336873397Y-272459757D01*
X336873397Y-272459757D02*
X336944826Y-272531185D01*
X336944826Y-272531185D02*
X337016254Y-272674042D01*
X337016254Y-272674042D02*
X337016254Y-273102614D01*
X337016254Y-273102614D02*
X336944826Y-273245471D01*
X336944826Y-273245471D02*
X336873397Y-273316900D01*
X336873397Y-273316900D02*
X336730540Y-273388328D01*
X336730540Y-273388328D02*
X336444826Y-273388328D01*
X336444826Y-273388328D02*
X336301968Y-273316900D01*
D10*
D11*
X299989000Y-268502200D02*
X407989000Y-268502200D01*
D10*
D11*
X301373398Y-270616900D02*
X301587684Y-270688328D01*
X301587684Y-270688328D02*
X301944826Y-270688328D01*
X301944826Y-270688328D02*
X302087684Y-270616900D01*
X302087684Y-270616900D02*
X302159112Y-270545471D01*
X302159112Y-270545471D02*
X302230541Y-270402614D01*
X302230541Y-270402614D02*
X302230541Y-270259757D01*
X302230541Y-270259757D02*
X302159112Y-270116900D01*
X302159112Y-270116900D02*
X302087684Y-270045471D01*
X302087684Y-270045471D02*
X301944826Y-269974042D01*
X301944826Y-269974042D02*
X301659112Y-269902614D01*
X301659112Y-269902614D02*
X301516255Y-269831185D01*
X301516255Y-269831185D02*
X301444826Y-269759757D01*
X301444826Y-269759757D02*
X301373398Y-269616900D01*
X301373398Y-269616900D02*
X301373398Y-269474042D01*
X301373398Y-269474042D02*
X301444826Y-269331185D01*
X301444826Y-269331185D02*
X301516255Y-269259757D01*
X301516255Y-269259757D02*
X301659112Y-269188328D01*
X301659112Y-269188328D02*
X302016255Y-269188328D01*
X302016255Y-269188328D02*
X302230541Y-269259757D01*
X302873397Y-270688328D02*
X302873397Y-269188328D01*
X303516255Y-270688328D02*
X303516255Y-269902614D01*
X303516255Y-269902614D02*
X303444826Y-269759757D01*
X303444826Y-269759757D02*
X303301969Y-269688328D01*
X303301969Y-269688328D02*
X303087683Y-269688328D01*
X303087683Y-269688328D02*
X302944826Y-269759757D01*
X302944826Y-269759757D02*
X302873397Y-269831185D01*
X304801969Y-270616900D02*
X304659112Y-270688328D01*
X304659112Y-270688328D02*
X304373398Y-270688328D01*
X304373398Y-270688328D02*
X304230540Y-270616900D01*
X304230540Y-270616900D02*
X304159112Y-270474042D01*
X304159112Y-270474042D02*
X304159112Y-269902614D01*
X304159112Y-269902614D02*
X304230540Y-269759757D01*
X304230540Y-269759757D02*
X304373398Y-269688328D01*
X304373398Y-269688328D02*
X304659112Y-269688328D01*
X304659112Y-269688328D02*
X304801969Y-269759757D01*
X304801969Y-269759757D02*
X304873398Y-269902614D01*
X304873398Y-269902614D02*
X304873398Y-270045471D01*
X304873398Y-270045471D02*
X304159112Y-270188328D01*
X306087683Y-270616900D02*
X305944826Y-270688328D01*
X305944826Y-270688328D02*
X305659112Y-270688328D01*
X305659112Y-270688328D02*
X305516254Y-270616900D01*
X305516254Y-270616900D02*
X305444826Y-270474042D01*
X305444826Y-270474042D02*
X305444826Y-269902614D01*
X305444826Y-269902614D02*
X305516254Y-269759757D01*
X305516254Y-269759757D02*
X305659112Y-269688328D01*
X305659112Y-269688328D02*
X305944826Y-269688328D01*
X305944826Y-269688328D02*
X306087683Y-269759757D01*
X306087683Y-269759757D02*
X306159112Y-269902614D01*
X306159112Y-269902614D02*
X306159112Y-270045471D01*
X306159112Y-270045471D02*
X305444826Y-270188328D01*
X306587683Y-269688328D02*
X307159111Y-269688328D01*
X306801968Y-269188328D02*
X306801968Y-270474042D01*
X306801968Y-270474042D02*
X306873397Y-270616900D01*
X306873397Y-270616900D02*
X307016254Y-270688328D01*
X307016254Y-270688328D02*
X307159111Y-270688328D01*
X307659111Y-270545471D02*
X307730540Y-270616900D01*
X307730540Y-270616900D02*
X307659111Y-270688328D01*
X307659111Y-270688328D02*
X307587683Y-270616900D01*
X307587683Y-270616900D02*
X307659111Y-270545471D01*
X307659111Y-270545471D02*
X307659111Y-270688328D01*
X307659111Y-269759757D02*
X307730540Y-269831185D01*
X307730540Y-269831185D02*
X307659111Y-269902614D01*
X307659111Y-269902614D02*
X307587683Y-269831185D01*
X307587683Y-269831185D02*
X307659111Y-269759757D01*
X307659111Y-269759757D02*
X307659111Y-269902614D01*
D10*
D12*
X302043510Y-266894814D02*
X302257796Y-266966242D01*
X302257796Y-266966242D02*
X302329225Y-267037671D01*
X302329225Y-267037671D02*
X302400653Y-267180528D01*
X302400653Y-267180528D02*
X302400653Y-267394814D01*
X302400653Y-267394814D02*
X302329225Y-267537671D01*
X302329225Y-267537671D02*
X302257796Y-267609100D01*
X302257796Y-267609100D02*
X302114939Y-267680528D01*
X302114939Y-267680528D02*
X301543510Y-267680528D01*
X301543510Y-267680528D02*
X301543510Y-266180528D01*
X301543510Y-266180528D02*
X302043510Y-266180528D01*
X302043510Y-266180528D02*
X302186368Y-266251957D01*
X302186368Y-266251957D02*
X302257796Y-266323385D01*
X302257796Y-266323385D02*
X302329225Y-266466242D01*
X302329225Y-266466242D02*
X302329225Y-266609100D01*
X302329225Y-266609100D02*
X302257796Y-266751957D01*
X302257796Y-266751957D02*
X302186368Y-266823385D01*
X302186368Y-266823385D02*
X302043510Y-266894814D01*
X302043510Y-266894814D02*
X301543510Y-266894814D01*
X303043510Y-267680528D02*
X303043510Y-266680528D01*
X303043510Y-266966242D02*
X303114939Y-266823385D01*
X303114939Y-266823385D02*
X303186368Y-266751957D01*
X303186368Y-266751957D02*
X303329225Y-266680528D01*
X303329225Y-266680528D02*
X303472082Y-266680528D01*
X304543510Y-267609100D02*
X304400653Y-267680528D01*
X304400653Y-267680528D02*
X304114939Y-267680528D01*
X304114939Y-267680528D02*
X303972081Y-267609100D01*
X303972081Y-267609100D02*
X303900653Y-267466242D01*
X303900653Y-267466242D02*
X303900653Y-266894814D01*
X303900653Y-266894814D02*
X303972081Y-266751957D01*
X303972081Y-266751957D02*
X304114939Y-266680528D01*
X304114939Y-266680528D02*
X304400653Y-266680528D01*
X304400653Y-266680528D02*
X304543510Y-266751957D01*
X304543510Y-266751957D02*
X304614939Y-266894814D01*
X304614939Y-266894814D02*
X304614939Y-267037671D01*
X304614939Y-267037671D02*
X303900653Y-267180528D01*
X305257795Y-266680528D02*
X305257795Y-267680528D01*
X305257795Y-266823385D02*
X305329224Y-266751957D01*
X305329224Y-266751957D02*
X305472081Y-266680528D01*
X305472081Y-266680528D02*
X305686367Y-266680528D01*
X305686367Y-266680528D02*
X305829224Y-266751957D01*
X305829224Y-266751957D02*
X305900653Y-266894814D01*
X305900653Y-266894814D02*
X305900653Y-267680528D01*
X307257796Y-267680528D02*
X307257796Y-266180528D01*
X307257796Y-267609100D02*
X307114938Y-267680528D01*
X307114938Y-267680528D02*
X306829224Y-267680528D01*
X306829224Y-267680528D02*
X306686367Y-267609100D01*
X306686367Y-267609100D02*
X306614938Y-267537671D01*
X306614938Y-267537671D02*
X306543510Y-267394814D01*
X306543510Y-267394814D02*
X306543510Y-266966242D01*
X306543510Y-266966242D02*
X306614938Y-266823385D01*
X306614938Y-266823385D02*
X306686367Y-266751957D01*
X306686367Y-266751957D02*
X306829224Y-266680528D01*
X306829224Y-266680528D02*
X307114938Y-266680528D01*
X307114938Y-266680528D02*
X307257796Y-266751957D01*
X308614939Y-267680528D02*
X308614939Y-266894814D01*
X308614939Y-266894814D02*
X308543510Y-266751957D01*
X308543510Y-266751957D02*
X308400653Y-266680528D01*
X308400653Y-266680528D02*
X308114939Y-266680528D01*
X308114939Y-266680528D02*
X307972081Y-266751957D01*
X308614939Y-267609100D02*
X308472081Y-267680528D01*
X308472081Y-267680528D02*
X308114939Y-267680528D01*
X308114939Y-267680528D02*
X307972081Y-267609100D01*
X307972081Y-267609100D02*
X307900653Y-267466242D01*
X307900653Y-267466242D02*
X307900653Y-267323385D01*
X307900653Y-267323385D02*
X307972081Y-267180528D01*
X307972081Y-267180528D02*
X308114939Y-267109100D01*
X308114939Y-267109100D02*
X308472081Y-267109100D01*
X308472081Y-267109100D02*
X308614939Y-267037671D01*
X309329224Y-266680528D02*
X309329224Y-267680528D01*
X309329224Y-266823385D02*
X309400653Y-266751957D01*
X309400653Y-266751957D02*
X309543510Y-266680528D01*
X309543510Y-266680528D02*
X309757796Y-266680528D01*
X309757796Y-266680528D02*
X309900653Y-266751957D01*
X309900653Y-266751957D02*
X309972082Y-266894814D01*
X309972082Y-266894814D02*
X309972082Y-267680528D01*
X312329224Y-266894814D02*
X312543510Y-266966242D01*
X312543510Y-266966242D02*
X312614939Y-267037671D01*
X312614939Y-267037671D02*
X312686367Y-267180528D01*
X312686367Y-267180528D02*
X312686367Y-267394814D01*
X312686367Y-267394814D02*
X312614939Y-267537671D01*
X312614939Y-267537671D02*
X312543510Y-267609100D01*
X312543510Y-267609100D02*
X312400653Y-267680528D01*
X312400653Y-267680528D02*
X311829224Y-267680528D01*
X311829224Y-267680528D02*
X311829224Y-266180528D01*
X311829224Y-266180528D02*
X312329224Y-266180528D01*
X312329224Y-266180528D02*
X312472082Y-266251957D01*
X312472082Y-266251957D02*
X312543510Y-266323385D01*
X312543510Y-266323385D02*
X312614939Y-266466242D01*
X312614939Y-266466242D02*
X312614939Y-266609100D01*
X312614939Y-266609100D02*
X312543510Y-266751957D01*
X312543510Y-266751957D02*
X312472082Y-266823385D01*
X312472082Y-266823385D02*
X312329224Y-266894814D01*
X312329224Y-266894814D02*
X311829224Y-266894814D01*
X313543510Y-267680528D02*
X313400653Y-267609100D01*
X313400653Y-267609100D02*
X313329224Y-267466242D01*
X313329224Y-267466242D02*
X313329224Y-266180528D01*
X314686367Y-267609100D02*
X314543510Y-267680528D01*
X314543510Y-267680528D02*
X314257796Y-267680528D01*
X314257796Y-267680528D02*
X314114938Y-267609100D01*
X314114938Y-267609100D02*
X314043510Y-267466242D01*
X314043510Y-267466242D02*
X314043510Y-266894814D01*
X314043510Y-266894814D02*
X314114938Y-266751957D01*
X314114938Y-266751957D02*
X314257796Y-266680528D01*
X314257796Y-266680528D02*
X314543510Y-266680528D01*
X314543510Y-266680528D02*
X314686367Y-266751957D01*
X314686367Y-266751957D02*
X314757796Y-266894814D01*
X314757796Y-266894814D02*
X314757796Y-267037671D01*
X314757796Y-267037671D02*
X314043510Y-267180528D01*
X315400652Y-267680528D02*
X315400652Y-266180528D01*
X315543510Y-267109100D02*
X315972081Y-267680528D01*
X315972081Y-266680528D02*
X315400652Y-267251957D01*
X317186367Y-267609100D02*
X317043510Y-267680528D01*
X317043510Y-267680528D02*
X316757796Y-267680528D01*
X316757796Y-267680528D02*
X316614938Y-267609100D01*
X316614938Y-267609100D02*
X316543510Y-267466242D01*
X316543510Y-267466242D02*
X316543510Y-266894814D01*
X316543510Y-266894814D02*
X316614938Y-266751957D01*
X316614938Y-266751957D02*
X316757796Y-266680528D01*
X316757796Y-266680528D02*
X317043510Y-266680528D01*
X317043510Y-266680528D02*
X317186367Y-266751957D01*
X317186367Y-266751957D02*
X317257796Y-266894814D01*
X317257796Y-266894814D02*
X317257796Y-267037671D01*
X317257796Y-267037671D02*
X316543510Y-267180528D01*
X317900652Y-267680528D02*
X317900652Y-266680528D01*
X317900652Y-266966242D02*
X317972081Y-266823385D01*
X317972081Y-266823385D02*
X318043510Y-266751957D01*
X318043510Y-266751957D02*
X318186367Y-266680528D01*
X318186367Y-266680528D02*
X318329224Y-266680528D01*
D10*
D11*
X301444826Y-264688328D02*
X301444826Y-263188328D01*
X301444826Y-263188328D02*
X301801969Y-263188328D01*
X301801969Y-263188328D02*
X302016255Y-263259757D01*
X302016255Y-263259757D02*
X302159112Y-263402614D01*
X302159112Y-263402614D02*
X302230541Y-263545471D01*
X302230541Y-263545471D02*
X302301969Y-263831185D01*
X302301969Y-263831185D02*
X302301969Y-264045471D01*
X302301969Y-264045471D02*
X302230541Y-264331185D01*
X302230541Y-264331185D02*
X302159112Y-264474042D01*
X302159112Y-264474042D02*
X302016255Y-264616900D01*
X302016255Y-264616900D02*
X301801969Y-264688328D01*
X301801969Y-264688328D02*
X301444826Y-264688328D01*
X303516255Y-264616900D02*
X303373398Y-264688328D01*
X303373398Y-264688328D02*
X303087684Y-264688328D01*
X303087684Y-264688328D02*
X302944826Y-264616900D01*
X302944826Y-264616900D02*
X302873398Y-264474042D01*
X302873398Y-264474042D02*
X302873398Y-263902614D01*
X302873398Y-263902614D02*
X302944826Y-263759757D01*
X302944826Y-263759757D02*
X303087684Y-263688328D01*
X303087684Y-263688328D02*
X303373398Y-263688328D01*
X303373398Y-263688328D02*
X303516255Y-263759757D01*
X303516255Y-263759757D02*
X303587684Y-263902614D01*
X303587684Y-263902614D02*
X303587684Y-264045471D01*
X303587684Y-264045471D02*
X302873398Y-264188328D01*
X304159112Y-264616900D02*
X304301969Y-264688328D01*
X304301969Y-264688328D02*
X304587683Y-264688328D01*
X304587683Y-264688328D02*
X304730540Y-264616900D01*
X304730540Y-264616900D02*
X304801969Y-264474042D01*
X304801969Y-264474042D02*
X304801969Y-264402614D01*
X304801969Y-264402614D02*
X304730540Y-264259757D01*
X304730540Y-264259757D02*
X304587683Y-264188328D01*
X304587683Y-264188328D02*
X304373398Y-264188328D01*
X304373398Y-264188328D02*
X304230540Y-264116900D01*
X304230540Y-264116900D02*
X304159112Y-263974042D01*
X304159112Y-263974042D02*
X304159112Y-263902614D01*
X304159112Y-263902614D02*
X304230540Y-263759757D01*
X304230540Y-263759757D02*
X304373398Y-263688328D01*
X304373398Y-263688328D02*
X304587683Y-263688328D01*
X304587683Y-263688328D02*
X304730540Y-263759757D01*
X305444826Y-264688328D02*
X305444826Y-263688328D01*
X305444826Y-263188328D02*
X305373398Y-263259757D01*
X305373398Y-263259757D02*
X305444826Y-263331185D01*
X305444826Y-263331185D02*
X305516255Y-263259757D01*
X305516255Y-263259757D02*
X305444826Y-263188328D01*
X305444826Y-263188328D02*
X305444826Y-263331185D01*
X306801970Y-263688328D02*
X306801970Y-264902614D01*
X306801970Y-264902614D02*
X306730541Y-265045471D01*
X306730541Y-265045471D02*
X306659112Y-265116900D01*
X306659112Y-265116900D02*
X306516255Y-265188328D01*
X306516255Y-265188328D02*
X306301970Y-265188328D01*
X306301970Y-265188328D02*
X306159112Y-265116900D01*
X306801970Y-264616900D02*
X306659112Y-264688328D01*
X306659112Y-264688328D02*
X306373398Y-264688328D01*
X306373398Y-264688328D02*
X306230541Y-264616900D01*
X306230541Y-264616900D02*
X306159112Y-264545471D01*
X306159112Y-264545471D02*
X306087684Y-264402614D01*
X306087684Y-264402614D02*
X306087684Y-263974042D01*
X306087684Y-263974042D02*
X306159112Y-263831185D01*
X306159112Y-263831185D02*
X306230541Y-263759757D01*
X306230541Y-263759757D02*
X306373398Y-263688328D01*
X306373398Y-263688328D02*
X306659112Y-263688328D01*
X306659112Y-263688328D02*
X306801970Y-263759757D01*
X307516255Y-263688328D02*
X307516255Y-264688328D01*
X307516255Y-263831185D02*
X307587684Y-263759757D01*
X307587684Y-263759757D02*
X307730541Y-263688328D01*
X307730541Y-263688328D02*
X307944827Y-263688328D01*
X307944827Y-263688328D02*
X308087684Y-263759757D01*
X308087684Y-263759757D02*
X308159113Y-263902614D01*
X308159113Y-263902614D02*
X308159113Y-264688328D01*
X309444827Y-264616900D02*
X309301970Y-264688328D01*
X309301970Y-264688328D02*
X309016256Y-264688328D01*
X309016256Y-264688328D02*
X308873398Y-264616900D01*
X308873398Y-264616900D02*
X308801970Y-264474042D01*
X308801970Y-264474042D02*
X308801970Y-263902614D01*
X308801970Y-263902614D02*
X308873398Y-263759757D01*
X308873398Y-263759757D02*
X309016256Y-263688328D01*
X309016256Y-263688328D02*
X309301970Y-263688328D01*
X309301970Y-263688328D02*
X309444827Y-263759757D01*
X309444827Y-263759757D02*
X309516256Y-263902614D01*
X309516256Y-263902614D02*
X309516256Y-264045471D01*
X309516256Y-264045471D02*
X308801970Y-264188328D01*
X310801970Y-264688328D02*
X310801970Y-263188328D01*
X310801970Y-264616900D02*
X310659112Y-264688328D01*
X310659112Y-264688328D02*
X310373398Y-264688328D01*
X310373398Y-264688328D02*
X310230541Y-264616900D01*
X310230541Y-264616900D02*
X310159112Y-264545471D01*
X310159112Y-264545471D02*
X310087684Y-264402614D01*
X310087684Y-264402614D02*
X310087684Y-263974042D01*
X310087684Y-263974042D02*
X310159112Y-263831185D01*
X310159112Y-263831185D02*
X310230541Y-263759757D01*
X310230541Y-263759757D02*
X310373398Y-263688328D01*
X310373398Y-263688328D02*
X310659112Y-263688328D01*
X310659112Y-263688328D02*
X310801970Y-263759757D01*
X312659112Y-264688328D02*
X312659112Y-263188328D01*
X312659112Y-263759757D02*
X312801970Y-263688328D01*
X312801970Y-263688328D02*
X313087684Y-263688328D01*
X313087684Y-263688328D02*
X313230541Y-263759757D01*
X313230541Y-263759757D02*
X313301970Y-263831185D01*
X313301970Y-263831185D02*
X313373398Y-263974042D01*
X313373398Y-263974042D02*
X313373398Y-264402614D01*
X313373398Y-264402614D02*
X313301970Y-264545471D01*
X313301970Y-264545471D02*
X313230541Y-264616900D01*
X313230541Y-264616900D02*
X313087684Y-264688328D01*
X313087684Y-264688328D02*
X312801970Y-264688328D01*
X312801970Y-264688328D02*
X312659112Y-264616900D01*
X313873398Y-263688328D02*
X314230541Y-264688328D01*
X314587684Y-263688328D02*
X314230541Y-264688328D01*
X314230541Y-264688328D02*
X314087684Y-265045471D01*
X314087684Y-265045471D02*
X314016255Y-265116900D01*
X314016255Y-265116900D02*
X313873398Y-265188328D01*
X315159112Y-264545471D02*
X315230541Y-264616900D01*
X315230541Y-264616900D02*
X315159112Y-264688328D01*
X315159112Y-264688328D02*
X315087684Y-264616900D01*
X315087684Y-264616900D02*
X315159112Y-264545471D01*
X315159112Y-264545471D02*
X315159112Y-264688328D01*
X315159112Y-263759757D02*
X315230541Y-263831185D01*
X315230541Y-263831185D02*
X315159112Y-263902614D01*
X315159112Y-263902614D02*
X315087684Y-263831185D01*
X315087684Y-263831185D02*
X315159112Y-263759757D01*
X315159112Y-263759757D02*
X315159112Y-263902614D01*
D10*
D11*
X319989000Y-278502200D02*
X319989000Y-281502200D01*
D10*
D11*
X383989000Y-278502200D02*
X383989000Y-285002200D01*
D10*
X203795000Y-134061764D02*
X204045000Y-133704621D01*
X204223571Y-134061764D02*
X204223571Y-133311764D01*
X204223571Y-133311764D02*
X203937857Y-133311764D01*
X203937857Y-133311764D02*
X203866428Y-133347478D01*
X203866428Y-133347478D02*
X203830714Y-133383192D01*
X203830714Y-133383192D02*
X203795000Y-133454621D01*
X203795000Y-133454621D02*
X203795000Y-133561764D01*
X203795000Y-133561764D02*
X203830714Y-133633192D01*
X203830714Y-133633192D02*
X203866428Y-133668907D01*
X203866428Y-133668907D02*
X203937857Y-133704621D01*
X203937857Y-133704621D02*
X204223571Y-133704621D01*
X203080714Y-134061764D02*
X203509285Y-134061764D01*
X203295000Y-134061764D02*
X203295000Y-133311764D01*
X203295000Y-133311764D02*
X203366428Y-133418907D01*
X203366428Y-133418907D02*
X203437857Y-133490335D01*
X203437857Y-133490335D02*
X203509285Y-133526050D01*
X222472143Y-141580335D02*
X222507857Y-141616050D01*
X222507857Y-141616050D02*
X222615000Y-141651764D01*
X222615000Y-141651764D02*
X222686428Y-141651764D01*
X222686428Y-141651764D02*
X222793571Y-141616050D01*
X222793571Y-141616050D02*
X222865000Y-141544621D01*
X222865000Y-141544621D02*
X222900714Y-141473192D01*
X222900714Y-141473192D02*
X222936428Y-141330335D01*
X222936428Y-141330335D02*
X222936428Y-141223192D01*
X222936428Y-141223192D02*
X222900714Y-141080335D01*
X222900714Y-141080335D02*
X222865000Y-141008907D01*
X222865000Y-141008907D02*
X222793571Y-140937478D01*
X222793571Y-140937478D02*
X222686428Y-140901764D01*
X222686428Y-140901764D02*
X222615000Y-140901764D01*
X222615000Y-140901764D02*
X222507857Y-140937478D01*
X222507857Y-140937478D02*
X222472143Y-140973192D01*
X221757857Y-141651764D02*
X222186428Y-141651764D01*
X221972143Y-141651764D02*
X221972143Y-140901764D01*
X221972143Y-140901764D02*
X222043571Y-141008907D01*
X222043571Y-141008907D02*
X222115000Y-141080335D01*
X222115000Y-141080335D02*
X222186428Y-141116050D01*
X221115000Y-140901764D02*
X221257857Y-140901764D01*
X221257857Y-140901764D02*
X221329285Y-140937478D01*
X221329285Y-140937478D02*
X221365000Y-140973192D01*
X221365000Y-140973192D02*
X221436428Y-141080335D01*
X221436428Y-141080335D02*
X221472142Y-141223192D01*
X221472142Y-141223192D02*
X221472142Y-141508907D01*
X221472142Y-141508907D02*
X221436428Y-141580335D01*
X221436428Y-141580335D02*
X221400714Y-141616050D01*
X221400714Y-141616050D02*
X221329285Y-141651764D01*
X221329285Y-141651764D02*
X221186428Y-141651764D01*
X221186428Y-141651764D02*
X221115000Y-141616050D01*
X221115000Y-141616050D02*
X221079285Y-141580335D01*
X221079285Y-141580335D02*
X221043571Y-141508907D01*
X221043571Y-141508907D02*
X221043571Y-141330335D01*
X221043571Y-141330335D02*
X221079285Y-141258907D01*
X221079285Y-141258907D02*
X221115000Y-141223192D01*
X221115000Y-141223192D02*
X221186428Y-141187478D01*
X221186428Y-141187478D02*
X221329285Y-141187478D01*
X221329285Y-141187478D02*
X221400714Y-141223192D01*
X221400714Y-141223192D02*
X221436428Y-141258907D01*
X221436428Y-141258907D02*
X221472142Y-141330335D01*
X206012143Y-132260335D02*
X206047857Y-132296050D01*
X206047857Y-132296050D02*
X206155000Y-132331764D01*
X206155000Y-132331764D02*
X206226428Y-132331764D01*
X206226428Y-132331764D02*
X206333571Y-132296050D01*
X206333571Y-132296050D02*
X206405000Y-132224621D01*
X206405000Y-132224621D02*
X206440714Y-132153192D01*
X206440714Y-132153192D02*
X206476428Y-132010335D01*
X206476428Y-132010335D02*
X206476428Y-131903192D01*
X206476428Y-131903192D02*
X206440714Y-131760335D01*
X206440714Y-131760335D02*
X206405000Y-131688907D01*
X206405000Y-131688907D02*
X206333571Y-131617478D01*
X206333571Y-131617478D02*
X206226428Y-131581764D01*
X206226428Y-131581764D02*
X206155000Y-131581764D01*
X206155000Y-131581764D02*
X206047857Y-131617478D01*
X206047857Y-131617478D02*
X206012143Y-131653192D01*
X205762143Y-131581764D02*
X205297857Y-131581764D01*
X205297857Y-131581764D02*
X205547857Y-131867478D01*
X205547857Y-131867478D02*
X205440714Y-131867478D01*
X205440714Y-131867478D02*
X205369286Y-131903192D01*
X205369286Y-131903192D02*
X205333571Y-131938907D01*
X205333571Y-131938907D02*
X205297857Y-132010335D01*
X205297857Y-132010335D02*
X205297857Y-132188907D01*
X205297857Y-132188907D02*
X205333571Y-132260335D01*
X205333571Y-132260335D02*
X205369286Y-132296050D01*
X205369286Y-132296050D02*
X205440714Y-132331764D01*
X205440714Y-132331764D02*
X205655000Y-132331764D01*
X205655000Y-132331764D02*
X205726428Y-132296050D01*
X205726428Y-132296050D02*
X205762143Y-132260335D01*
X204833571Y-131581764D02*
X204762142Y-131581764D01*
X204762142Y-131581764D02*
X204690714Y-131617478D01*
X204690714Y-131617478D02*
X204655000Y-131653192D01*
X204655000Y-131653192D02*
X204619285Y-131724621D01*
X204619285Y-131724621D02*
X204583571Y-131867478D01*
X204583571Y-131867478D02*
X204583571Y-132046050D01*
X204583571Y-132046050D02*
X204619285Y-132188907D01*
X204619285Y-132188907D02*
X204655000Y-132260335D01*
X204655000Y-132260335D02*
X204690714Y-132296050D01*
X204690714Y-132296050D02*
X204762142Y-132331764D01*
X204762142Y-132331764D02*
X204833571Y-132331764D01*
X204833571Y-132331764D02*
X204905000Y-132296050D01*
X204905000Y-132296050D02*
X204940714Y-132260335D01*
X204940714Y-132260335D02*
X204976428Y-132188907D01*
X204976428Y-132188907D02*
X205012142Y-132046050D01*
X205012142Y-132046050D02*
X205012142Y-131867478D01*
X205012142Y-131867478D02*
X204976428Y-131724621D01*
X204976428Y-131724621D02*
X204940714Y-131653192D01*
X204940714Y-131653192D02*
X204905000Y-131617478D01*
X204905000Y-131617478D02*
X204833571Y-131581764D01*
X225252143Y-133190335D02*
X225287857Y-133226050D01*
X225287857Y-133226050D02*
X225395000Y-133261764D01*
X225395000Y-133261764D02*
X225466428Y-133261764D01*
X225466428Y-133261764D02*
X225573571Y-133226050D01*
X225573571Y-133226050D02*
X225645000Y-133154621D01*
X225645000Y-133154621D02*
X225680714Y-133083192D01*
X225680714Y-133083192D02*
X225716428Y-132940335D01*
X225716428Y-132940335D02*
X225716428Y-132833192D01*
X225716428Y-132833192D02*
X225680714Y-132690335D01*
X225680714Y-132690335D02*
X225645000Y-132618907D01*
X225645000Y-132618907D02*
X225573571Y-132547478D01*
X225573571Y-132547478D02*
X225466428Y-132511764D01*
X225466428Y-132511764D02*
X225395000Y-132511764D01*
X225395000Y-132511764D02*
X225287857Y-132547478D01*
X225287857Y-132547478D02*
X225252143Y-132583192D01*
X224537857Y-133261764D02*
X224966428Y-133261764D01*
X224752143Y-133261764D02*
X224752143Y-132511764D01*
X224752143Y-132511764D02*
X224823571Y-132618907D01*
X224823571Y-132618907D02*
X224895000Y-132690335D01*
X224895000Y-132690335D02*
X224966428Y-132726050D01*
X223895000Y-132761764D02*
X223895000Y-133261764D01*
X224073571Y-132476050D02*
X224252142Y-133011764D01*
X224252142Y-133011764D02*
X223787857Y-133011764D01*
X211295000Y-140260335D02*
X211330714Y-140296050D01*
X211330714Y-140296050D02*
X211437857Y-140331764D01*
X211437857Y-140331764D02*
X211509285Y-140331764D01*
X211509285Y-140331764D02*
X211616428Y-140296050D01*
X211616428Y-140296050D02*
X211687857Y-140224621D01*
X211687857Y-140224621D02*
X211723571Y-140153192D01*
X211723571Y-140153192D02*
X211759285Y-140010335D01*
X211759285Y-140010335D02*
X211759285Y-139903192D01*
X211759285Y-139903192D02*
X211723571Y-139760335D01*
X211723571Y-139760335D02*
X211687857Y-139688907D01*
X211687857Y-139688907D02*
X211616428Y-139617478D01*
X211616428Y-139617478D02*
X211509285Y-139581764D01*
X211509285Y-139581764D02*
X211437857Y-139581764D01*
X211437857Y-139581764D02*
X211330714Y-139617478D01*
X211330714Y-139617478D02*
X211295000Y-139653192D01*
X210866428Y-139903192D02*
X210937857Y-139867478D01*
X210937857Y-139867478D02*
X210973571Y-139831764D01*
X210973571Y-139831764D02*
X211009285Y-139760335D01*
X211009285Y-139760335D02*
X211009285Y-139724621D01*
X211009285Y-139724621D02*
X210973571Y-139653192D01*
X210973571Y-139653192D02*
X210937857Y-139617478D01*
X210937857Y-139617478D02*
X210866428Y-139581764D01*
X210866428Y-139581764D02*
X210723571Y-139581764D01*
X210723571Y-139581764D02*
X210652143Y-139617478D01*
X210652143Y-139617478D02*
X210616428Y-139653192D01*
X210616428Y-139653192D02*
X210580714Y-139724621D01*
X210580714Y-139724621D02*
X210580714Y-139760335D01*
X210580714Y-139760335D02*
X210616428Y-139831764D01*
X210616428Y-139831764D02*
X210652143Y-139867478D01*
X210652143Y-139867478D02*
X210723571Y-139903192D01*
X210723571Y-139903192D02*
X210866428Y-139903192D01*
X210866428Y-139903192D02*
X210937857Y-139938907D01*
X210937857Y-139938907D02*
X210973571Y-139974621D01*
X210973571Y-139974621D02*
X211009285Y-140046050D01*
X211009285Y-140046050D02*
X211009285Y-140188907D01*
X211009285Y-140188907D02*
X210973571Y-140260335D01*
X210973571Y-140260335D02*
X210937857Y-140296050D01*
X210937857Y-140296050D02*
X210866428Y-140331764D01*
X210866428Y-140331764D02*
X210723571Y-140331764D01*
X210723571Y-140331764D02*
X210652143Y-140296050D01*
X210652143Y-140296050D02*
X210616428Y-140260335D01*
X210616428Y-140260335D02*
X210580714Y-140188907D01*
X210580714Y-140188907D02*
X210580714Y-140046050D01*
X210580714Y-140046050D02*
X210616428Y-139974621D01*
X210616428Y-139974621D02*
X210652143Y-139938907D01*
X210652143Y-139938907D02*
X210723571Y-139903192D01*
X215565000Y-132480335D02*
X215600714Y-132516050D01*
X215600714Y-132516050D02*
X215707857Y-132551764D01*
X215707857Y-132551764D02*
X215779285Y-132551764D01*
X215779285Y-132551764D02*
X215886428Y-132516050D01*
X215886428Y-132516050D02*
X215957857Y-132444621D01*
X215957857Y-132444621D02*
X215993571Y-132373192D01*
X215993571Y-132373192D02*
X216029285Y-132230335D01*
X216029285Y-132230335D02*
X216029285Y-132123192D01*
X216029285Y-132123192D02*
X215993571Y-131980335D01*
X215993571Y-131980335D02*
X215957857Y-131908907D01*
X215957857Y-131908907D02*
X215886428Y-131837478D01*
X215886428Y-131837478D02*
X215779285Y-131801764D01*
X215779285Y-131801764D02*
X215707857Y-131801764D01*
X215707857Y-131801764D02*
X215600714Y-131837478D01*
X215600714Y-131837478D02*
X215565000Y-131873192D01*
X214922143Y-131801764D02*
X215065000Y-131801764D01*
X215065000Y-131801764D02*
X215136428Y-131837478D01*
X215136428Y-131837478D02*
X215172143Y-131873192D01*
X215172143Y-131873192D02*
X215243571Y-131980335D01*
X215243571Y-131980335D02*
X215279285Y-132123192D01*
X215279285Y-132123192D02*
X215279285Y-132408907D01*
X215279285Y-132408907D02*
X215243571Y-132480335D01*
X215243571Y-132480335D02*
X215207857Y-132516050D01*
X215207857Y-132516050D02*
X215136428Y-132551764D01*
X215136428Y-132551764D02*
X214993571Y-132551764D01*
X214993571Y-132551764D02*
X214922143Y-132516050D01*
X214922143Y-132516050D02*
X214886428Y-132480335D01*
X214886428Y-132480335D02*
X214850714Y-132408907D01*
X214850714Y-132408907D02*
X214850714Y-132230335D01*
X214850714Y-132230335D02*
X214886428Y-132158907D01*
X214886428Y-132158907D02*
X214922143Y-132123192D01*
X214922143Y-132123192D02*
X214993571Y-132087478D01*
X214993571Y-132087478D02*
X215136428Y-132087478D01*
X215136428Y-132087478D02*
X215207857Y-132123192D01*
X215207857Y-132123192D02*
X215243571Y-132158907D01*
X215243571Y-132158907D02*
X215279285Y-132230335D01*
X212575000Y-136560335D02*
X212610714Y-136596050D01*
X212610714Y-136596050D02*
X212717857Y-136631764D01*
X212717857Y-136631764D02*
X212789285Y-136631764D01*
X212789285Y-136631764D02*
X212896428Y-136596050D01*
X212896428Y-136596050D02*
X212967857Y-136524621D01*
X212967857Y-136524621D02*
X213003571Y-136453192D01*
X213003571Y-136453192D02*
X213039285Y-136310335D01*
X213039285Y-136310335D02*
X213039285Y-136203192D01*
X213039285Y-136203192D02*
X213003571Y-136060335D01*
X213003571Y-136060335D02*
X212967857Y-135988907D01*
X212967857Y-135988907D02*
X212896428Y-135917478D01*
X212896428Y-135917478D02*
X212789285Y-135881764D01*
X212789285Y-135881764D02*
X212717857Y-135881764D01*
X212717857Y-135881764D02*
X212610714Y-135917478D01*
X212610714Y-135917478D02*
X212575000Y-135953192D01*
X212217857Y-136631764D02*
X212075000Y-136631764D01*
X212075000Y-136631764D02*
X212003571Y-136596050D01*
X212003571Y-136596050D02*
X211967857Y-136560335D01*
X211967857Y-136560335D02*
X211896428Y-136453192D01*
X211896428Y-136453192D02*
X211860714Y-136310335D01*
X211860714Y-136310335D02*
X211860714Y-136024621D01*
X211860714Y-136024621D02*
X211896428Y-135953192D01*
X211896428Y-135953192D02*
X211932143Y-135917478D01*
X211932143Y-135917478D02*
X212003571Y-135881764D01*
X212003571Y-135881764D02*
X212146428Y-135881764D01*
X212146428Y-135881764D02*
X212217857Y-135917478D01*
X212217857Y-135917478D02*
X212253571Y-135953192D01*
X212253571Y-135953192D02*
X212289285Y-136024621D01*
X212289285Y-136024621D02*
X212289285Y-136203192D01*
X212289285Y-136203192D02*
X212253571Y-136274621D01*
X212253571Y-136274621D02*
X212217857Y-136310335D01*
X212217857Y-136310335D02*
X212146428Y-136346050D01*
X212146428Y-136346050D02*
X212003571Y-136346050D01*
X212003571Y-136346050D02*
X211932143Y-136310335D01*
X211932143Y-136310335D02*
X211896428Y-136274621D01*
X211896428Y-136274621D02*
X211860714Y-136203192D01*
X225272143Y-132060335D02*
X225307857Y-132096050D01*
X225307857Y-132096050D02*
X225415000Y-132131764D01*
X225415000Y-132131764D02*
X225486428Y-132131764D01*
X225486428Y-132131764D02*
X225593571Y-132096050D01*
X225593571Y-132096050D02*
X225665000Y-132024621D01*
X225665000Y-132024621D02*
X225700714Y-131953192D01*
X225700714Y-131953192D02*
X225736428Y-131810335D01*
X225736428Y-131810335D02*
X225736428Y-131703192D01*
X225736428Y-131703192D02*
X225700714Y-131560335D01*
X225700714Y-131560335D02*
X225665000Y-131488907D01*
X225665000Y-131488907D02*
X225593571Y-131417478D01*
X225593571Y-131417478D02*
X225486428Y-131381764D01*
X225486428Y-131381764D02*
X225415000Y-131381764D01*
X225415000Y-131381764D02*
X225307857Y-131417478D01*
X225307857Y-131417478D02*
X225272143Y-131453192D01*
X224557857Y-132131764D02*
X224986428Y-132131764D01*
X224772143Y-132131764D02*
X224772143Y-131381764D01*
X224772143Y-131381764D02*
X224843571Y-131488907D01*
X224843571Y-131488907D02*
X224915000Y-131560335D01*
X224915000Y-131560335D02*
X224986428Y-131596050D01*
X224307857Y-131381764D02*
X223843571Y-131381764D01*
X223843571Y-131381764D02*
X224093571Y-131667478D01*
X224093571Y-131667478D02*
X223986428Y-131667478D01*
X223986428Y-131667478D02*
X223915000Y-131703192D01*
X223915000Y-131703192D02*
X223879285Y-131738907D01*
X223879285Y-131738907D02*
X223843571Y-131810335D01*
X223843571Y-131810335D02*
X223843571Y-131988907D01*
X223843571Y-131988907D02*
X223879285Y-132060335D01*
X223879285Y-132060335D02*
X223915000Y-132096050D01*
X223915000Y-132096050D02*
X223986428Y-132131764D01*
X223986428Y-132131764D02*
X224200714Y-132131764D01*
X224200714Y-132131764D02*
X224272142Y-132096050D01*
X224272142Y-132096050D02*
X224307857Y-132060335D01*
X214915000Y-140390335D02*
X214950714Y-140426050D01*
X214950714Y-140426050D02*
X215057857Y-140461764D01*
X215057857Y-140461764D02*
X215129285Y-140461764D01*
X215129285Y-140461764D02*
X215236428Y-140426050D01*
X215236428Y-140426050D02*
X215307857Y-140354621D01*
X215307857Y-140354621D02*
X215343571Y-140283192D01*
X215343571Y-140283192D02*
X215379285Y-140140335D01*
X215379285Y-140140335D02*
X215379285Y-140033192D01*
X215379285Y-140033192D02*
X215343571Y-139890335D01*
X215343571Y-139890335D02*
X215307857Y-139818907D01*
X215307857Y-139818907D02*
X215236428Y-139747478D01*
X215236428Y-139747478D02*
X215129285Y-139711764D01*
X215129285Y-139711764D02*
X215057857Y-139711764D01*
X215057857Y-139711764D02*
X214950714Y-139747478D01*
X214950714Y-139747478D02*
X214915000Y-139783192D01*
X214272143Y-139961764D02*
X214272143Y-140461764D01*
X214450714Y-139676050D02*
X214629285Y-140211764D01*
X214629285Y-140211764D02*
X214165000Y-140211764D01*
X222472143Y-140490335D02*
X222507857Y-140526050D01*
X222507857Y-140526050D02*
X222615000Y-140561764D01*
X222615000Y-140561764D02*
X222686428Y-140561764D01*
X222686428Y-140561764D02*
X222793571Y-140526050D01*
X222793571Y-140526050D02*
X222865000Y-140454621D01*
X222865000Y-140454621D02*
X222900714Y-140383192D01*
X222900714Y-140383192D02*
X222936428Y-140240335D01*
X222936428Y-140240335D02*
X222936428Y-140133192D01*
X222936428Y-140133192D02*
X222900714Y-139990335D01*
X222900714Y-139990335D02*
X222865000Y-139918907D01*
X222865000Y-139918907D02*
X222793571Y-139847478D01*
X222793571Y-139847478D02*
X222686428Y-139811764D01*
X222686428Y-139811764D02*
X222615000Y-139811764D01*
X222615000Y-139811764D02*
X222507857Y-139847478D01*
X222507857Y-139847478D02*
X222472143Y-139883192D01*
X221757857Y-140561764D02*
X222186428Y-140561764D01*
X221972143Y-140561764D02*
X221972143Y-139811764D01*
X221972143Y-139811764D02*
X222043571Y-139918907D01*
X222043571Y-139918907D02*
X222115000Y-139990335D01*
X222115000Y-139990335D02*
X222186428Y-140026050D01*
X221507857Y-139811764D02*
X221007857Y-139811764D01*
X221007857Y-139811764D02*
X221329285Y-140561764D01*
X198692143Y-134761764D02*
X198942143Y-134404621D01*
X199120714Y-134761764D02*
X199120714Y-134011764D01*
X199120714Y-134011764D02*
X198835000Y-134011764D01*
X198835000Y-134011764D02*
X198763571Y-134047478D01*
X198763571Y-134047478D02*
X198727857Y-134083192D01*
X198727857Y-134083192D02*
X198692143Y-134154621D01*
X198692143Y-134154621D02*
X198692143Y-134261764D01*
X198692143Y-134261764D02*
X198727857Y-134333192D01*
X198727857Y-134333192D02*
X198763571Y-134368907D01*
X198763571Y-134368907D02*
X198835000Y-134404621D01*
X198835000Y-134404621D02*
X199120714Y-134404621D01*
X198406428Y-134083192D02*
X198370714Y-134047478D01*
X198370714Y-134047478D02*
X198299286Y-134011764D01*
X198299286Y-134011764D02*
X198120714Y-134011764D01*
X198120714Y-134011764D02*
X198049286Y-134047478D01*
X198049286Y-134047478D02*
X198013571Y-134083192D01*
X198013571Y-134083192D02*
X197977857Y-134154621D01*
X197977857Y-134154621D02*
X197977857Y-134226050D01*
X197977857Y-134226050D02*
X198013571Y-134333192D01*
X198013571Y-134333192D02*
X198442143Y-134761764D01*
X198442143Y-134761764D02*
X197977857Y-134761764D01*
X197513571Y-134011764D02*
X197442142Y-134011764D01*
X197442142Y-134011764D02*
X197370714Y-134047478D01*
X197370714Y-134047478D02*
X197335000Y-134083192D01*
X197335000Y-134083192D02*
X197299285Y-134154621D01*
X197299285Y-134154621D02*
X197263571Y-134297478D01*
X197263571Y-134297478D02*
X197263571Y-134476050D01*
X197263571Y-134476050D02*
X197299285Y-134618907D01*
X197299285Y-134618907D02*
X197335000Y-134690335D01*
X197335000Y-134690335D02*
X197370714Y-134726050D01*
X197370714Y-134726050D02*
X197442142Y-134761764D01*
X197442142Y-134761764D02*
X197513571Y-134761764D01*
X197513571Y-134761764D02*
X197585000Y-134726050D01*
X197585000Y-134726050D02*
X197620714Y-134690335D01*
X197620714Y-134690335D02*
X197656428Y-134618907D01*
X197656428Y-134618907D02*
X197692142Y-134476050D01*
X197692142Y-134476050D02*
X197692142Y-134297478D01*
X197692142Y-134297478D02*
X197656428Y-134154621D01*
X197656428Y-134154621D02*
X197620714Y-134083192D01*
X197620714Y-134083192D02*
X197585000Y-134047478D01*
X197585000Y-134047478D02*
X197513571Y-134011764D01*
D11*
X211026666Y-138724819D02*
X211359999Y-138248628D01*
X211598094Y-138724819D02*
X211598094Y-137724819D01*
X211598094Y-137724819D02*
X211217142Y-137724819D01*
X211217142Y-137724819D02*
X211121904Y-137772438D01*
X211121904Y-137772438D02*
X211074285Y-137820057D01*
X211074285Y-137820057D02*
X211026666Y-137915295D01*
X211026666Y-137915295D02*
X211026666Y-138058152D01*
X211026666Y-138058152D02*
X211074285Y-138153390D01*
X211074285Y-138153390D02*
X211121904Y-138201009D01*
X211121904Y-138201009D02*
X211217142Y-138248628D01*
X211217142Y-138248628D02*
X211598094Y-138248628D01*
X210169523Y-138058152D02*
X210169523Y-138724819D01*
X210407618Y-137677200D02*
X210645713Y-138391485D01*
X210645713Y-138391485D02*
X210026666Y-138391485D01*
D10*
X206013571Y-142131764D02*
X206013571Y-141381764D01*
X206013571Y-141381764D02*
X205835000Y-141381764D01*
X205835000Y-141381764D02*
X205727857Y-141417478D01*
X205727857Y-141417478D02*
X205656428Y-141488907D01*
X205656428Y-141488907D02*
X205620714Y-141560335D01*
X205620714Y-141560335D02*
X205585000Y-141703192D01*
X205585000Y-141703192D02*
X205585000Y-141810335D01*
X205585000Y-141810335D02*
X205620714Y-141953192D01*
X205620714Y-141953192D02*
X205656428Y-142024621D01*
X205656428Y-142024621D02*
X205727857Y-142096050D01*
X205727857Y-142096050D02*
X205835000Y-142131764D01*
X205835000Y-142131764D02*
X206013571Y-142131764D01*
X205335000Y-141381764D02*
X204870714Y-141381764D01*
X204870714Y-141381764D02*
X205120714Y-141667478D01*
X205120714Y-141667478D02*
X205013571Y-141667478D01*
X205013571Y-141667478D02*
X204942143Y-141703192D01*
X204942143Y-141703192D02*
X204906428Y-141738907D01*
X204906428Y-141738907D02*
X204870714Y-141810335D01*
X204870714Y-141810335D02*
X204870714Y-141988907D01*
X204870714Y-141988907D02*
X204906428Y-142060335D01*
X204906428Y-142060335D02*
X204942143Y-142096050D01*
X204942143Y-142096050D02*
X205013571Y-142131764D01*
X205013571Y-142131764D02*
X205227857Y-142131764D01*
X205227857Y-142131764D02*
X205299285Y-142096050D01*
X205299285Y-142096050D02*
X205335000Y-142060335D01*
X206481428Y-146773192D02*
X206552857Y-146737478D01*
X206552857Y-146737478D02*
X206624285Y-146666050D01*
X206624285Y-146666050D02*
X206731428Y-146558907D01*
X206731428Y-146558907D02*
X206802857Y-146523192D01*
X206802857Y-146523192D02*
X206874285Y-146523192D01*
X206838571Y-146701764D02*
X206910000Y-146666050D01*
X206910000Y-146666050D02*
X206981428Y-146594621D01*
X206981428Y-146594621D02*
X207017142Y-146451764D01*
X207017142Y-146451764D02*
X207017142Y-146201764D01*
X207017142Y-146201764D02*
X206981428Y-146058907D01*
X206981428Y-146058907D02*
X206910000Y-145987478D01*
X206910000Y-145987478D02*
X206838571Y-145951764D01*
X206838571Y-145951764D02*
X206695714Y-145951764D01*
X206695714Y-145951764D02*
X206624285Y-145987478D01*
X206624285Y-145987478D02*
X206552857Y-146058907D01*
X206552857Y-146058907D02*
X206517142Y-146201764D01*
X206517142Y-146201764D02*
X206517142Y-146451764D01*
X206517142Y-146451764D02*
X206552857Y-146594621D01*
X206552857Y-146594621D02*
X206624285Y-146666050D01*
X206624285Y-146666050D02*
X206695714Y-146701764D01*
X206695714Y-146701764D02*
X206838571Y-146701764D01*
X205802857Y-146701764D02*
X206231428Y-146701764D01*
X206017143Y-146701764D02*
X206017143Y-145951764D01*
X206017143Y-145951764D02*
X206088571Y-146058907D01*
X206088571Y-146058907D02*
X206160000Y-146130335D01*
X206160000Y-146130335D02*
X206231428Y-146166050D01*
X204942143Y-144451764D02*
X205192143Y-144094621D01*
X205370714Y-144451764D02*
X205370714Y-143701764D01*
X205370714Y-143701764D02*
X205085000Y-143701764D01*
X205085000Y-143701764D02*
X205013571Y-143737478D01*
X205013571Y-143737478D02*
X204977857Y-143773192D01*
X204977857Y-143773192D02*
X204942143Y-143844621D01*
X204942143Y-143844621D02*
X204942143Y-143951764D01*
X204942143Y-143951764D02*
X204977857Y-144023192D01*
X204977857Y-144023192D02*
X205013571Y-144058907D01*
X205013571Y-144058907D02*
X205085000Y-144094621D01*
X205085000Y-144094621D02*
X205370714Y-144094621D01*
X204656428Y-143773192D02*
X204620714Y-143737478D01*
X204620714Y-143737478D02*
X204549286Y-143701764D01*
X204549286Y-143701764D02*
X204370714Y-143701764D01*
X204370714Y-143701764D02*
X204299286Y-143737478D01*
X204299286Y-143737478D02*
X204263571Y-143773192D01*
X204263571Y-143773192D02*
X204227857Y-143844621D01*
X204227857Y-143844621D02*
X204227857Y-143916050D01*
X204227857Y-143916050D02*
X204263571Y-144023192D01*
X204263571Y-144023192D02*
X204692143Y-144451764D01*
X204692143Y-144451764D02*
X204227857Y-144451764D01*
X203585000Y-143951764D02*
X203585000Y-144451764D01*
X203763571Y-143666050D02*
X203942142Y-144201764D01*
X203942142Y-144201764D02*
X203477857Y-144201764D01*
X218212943Y-142380164D02*
X218462943Y-142023021D01*
X218641514Y-142380164D02*
X218641514Y-141630164D01*
X218641514Y-141630164D02*
X218355800Y-141630164D01*
X218355800Y-141630164D02*
X218284371Y-141665878D01*
X218284371Y-141665878D02*
X218248657Y-141701592D01*
X218248657Y-141701592D02*
X218212943Y-141773021D01*
X218212943Y-141773021D02*
X218212943Y-141880164D01*
X218212943Y-141880164D02*
X218248657Y-141951592D01*
X218248657Y-141951592D02*
X218284371Y-141987307D01*
X218284371Y-141987307D02*
X218355800Y-142023021D01*
X218355800Y-142023021D02*
X218641514Y-142023021D01*
X217927228Y-141701592D02*
X217891514Y-141665878D01*
X217891514Y-141665878D02*
X217820086Y-141630164D01*
X217820086Y-141630164D02*
X217641514Y-141630164D01*
X217641514Y-141630164D02*
X217570086Y-141665878D01*
X217570086Y-141665878D02*
X217534371Y-141701592D01*
X217534371Y-141701592D02*
X217498657Y-141773021D01*
X217498657Y-141773021D02*
X217498657Y-141844450D01*
X217498657Y-141844450D02*
X217534371Y-141951592D01*
X217534371Y-141951592D02*
X217962943Y-142380164D01*
X217962943Y-142380164D02*
X217498657Y-142380164D01*
X216855800Y-141630164D02*
X216998657Y-141630164D01*
X216998657Y-141630164D02*
X217070085Y-141665878D01*
X217070085Y-141665878D02*
X217105800Y-141701592D01*
X217105800Y-141701592D02*
X217177228Y-141808735D01*
X217177228Y-141808735D02*
X217212942Y-141951592D01*
X217212942Y-141951592D02*
X217212942Y-142237307D01*
X217212942Y-142237307D02*
X217177228Y-142308735D01*
X217177228Y-142308735D02*
X217141514Y-142344450D01*
X217141514Y-142344450D02*
X217070085Y-142380164D01*
X217070085Y-142380164D02*
X216927228Y-142380164D01*
X216927228Y-142380164D02*
X216855800Y-142344450D01*
X216855800Y-142344450D02*
X216820085Y-142308735D01*
X216820085Y-142308735D02*
X216784371Y-142237307D01*
X216784371Y-142237307D02*
X216784371Y-142058735D01*
X216784371Y-142058735D02*
X216820085Y-141987307D01*
X216820085Y-141987307D02*
X216855800Y-141951592D01*
X216855800Y-141951592D02*
X216927228Y-141915878D01*
X216927228Y-141915878D02*
X217070085Y-141915878D01*
X217070085Y-141915878D02*
X217141514Y-141951592D01*
X217141514Y-141951592D02*
X217177228Y-141987307D01*
X217177228Y-141987307D02*
X217212942Y-142058735D01*
X203162143Y-131131764D02*
X203412143Y-130774621D01*
X203590714Y-131131764D02*
X203590714Y-130381764D01*
X203590714Y-130381764D02*
X203305000Y-130381764D01*
X203305000Y-130381764D02*
X203233571Y-130417478D01*
X203233571Y-130417478D02*
X203197857Y-130453192D01*
X203197857Y-130453192D02*
X203162143Y-130524621D01*
X203162143Y-130524621D02*
X203162143Y-130631764D01*
X203162143Y-130631764D02*
X203197857Y-130703192D01*
X203197857Y-130703192D02*
X203233571Y-130738907D01*
X203233571Y-130738907D02*
X203305000Y-130774621D01*
X203305000Y-130774621D02*
X203590714Y-130774621D01*
X202447857Y-131131764D02*
X202876428Y-131131764D01*
X202662143Y-131131764D02*
X202662143Y-130381764D01*
X202662143Y-130381764D02*
X202733571Y-130488907D01*
X202733571Y-130488907D02*
X202805000Y-130560335D01*
X202805000Y-130560335D02*
X202876428Y-130596050D01*
X202019285Y-130703192D02*
X202090714Y-130667478D01*
X202090714Y-130667478D02*
X202126428Y-130631764D01*
X202126428Y-130631764D02*
X202162142Y-130560335D01*
X202162142Y-130560335D02*
X202162142Y-130524621D01*
X202162142Y-130524621D02*
X202126428Y-130453192D01*
X202126428Y-130453192D02*
X202090714Y-130417478D01*
X202090714Y-130417478D02*
X202019285Y-130381764D01*
X202019285Y-130381764D02*
X201876428Y-130381764D01*
X201876428Y-130381764D02*
X201805000Y-130417478D01*
X201805000Y-130417478D02*
X201769285Y-130453192D01*
X201769285Y-130453192D02*
X201733571Y-130524621D01*
X201733571Y-130524621D02*
X201733571Y-130560335D01*
X201733571Y-130560335D02*
X201769285Y-130631764D01*
X201769285Y-130631764D02*
X201805000Y-130667478D01*
X201805000Y-130667478D02*
X201876428Y-130703192D01*
X201876428Y-130703192D02*
X202019285Y-130703192D01*
X202019285Y-130703192D02*
X202090714Y-130738907D01*
X202090714Y-130738907D02*
X202126428Y-130774621D01*
X202126428Y-130774621D02*
X202162142Y-130846050D01*
X202162142Y-130846050D02*
X202162142Y-130988907D01*
X202162142Y-130988907D02*
X202126428Y-131060335D01*
X202126428Y-131060335D02*
X202090714Y-131096050D01*
X202090714Y-131096050D02*
X202019285Y-131131764D01*
X202019285Y-131131764D02*
X201876428Y-131131764D01*
X201876428Y-131131764D02*
X201805000Y-131096050D01*
X201805000Y-131096050D02*
X201769285Y-131060335D01*
X201769285Y-131060335D02*
X201733571Y-130988907D01*
X201733571Y-130988907D02*
X201733571Y-130846050D01*
X201733571Y-130846050D02*
X201769285Y-130774621D01*
X201769285Y-130774621D02*
X201805000Y-130738907D01*
X201805000Y-130738907D02*
X201876428Y-130703192D01*
X214457743Y-145355135D02*
X214493457Y-145390850D01*
X214493457Y-145390850D02*
X214600600Y-145426564D01*
X214600600Y-145426564D02*
X214672028Y-145426564D01*
X214672028Y-145426564D02*
X214779171Y-145390850D01*
X214779171Y-145390850D02*
X214850600Y-145319421D01*
X214850600Y-145319421D02*
X214886314Y-145247992D01*
X214886314Y-145247992D02*
X214922028Y-145105135D01*
X214922028Y-145105135D02*
X214922028Y-144997992D01*
X214922028Y-144997992D02*
X214886314Y-144855135D01*
X214886314Y-144855135D02*
X214850600Y-144783707D01*
X214850600Y-144783707D02*
X214779171Y-144712278D01*
X214779171Y-144712278D02*
X214672028Y-144676564D01*
X214672028Y-144676564D02*
X214600600Y-144676564D01*
X214600600Y-144676564D02*
X214493457Y-144712278D01*
X214493457Y-144712278D02*
X214457743Y-144747992D01*
X213743457Y-145426564D02*
X214172028Y-145426564D01*
X213957743Y-145426564D02*
X213957743Y-144676564D01*
X213957743Y-144676564D02*
X214029171Y-144783707D01*
X214029171Y-144783707D02*
X214100600Y-144855135D01*
X214100600Y-144855135D02*
X214172028Y-144890850D01*
X213279171Y-144676564D02*
X213207742Y-144676564D01*
X213207742Y-144676564D02*
X213136314Y-144712278D01*
X213136314Y-144712278D02*
X213100600Y-144747992D01*
X213100600Y-144747992D02*
X213064885Y-144819421D01*
X213064885Y-144819421D02*
X213029171Y-144962278D01*
X213029171Y-144962278D02*
X213029171Y-145140850D01*
X213029171Y-145140850D02*
X213064885Y-145283707D01*
X213064885Y-145283707D02*
X213100600Y-145355135D01*
X213100600Y-145355135D02*
X213136314Y-145390850D01*
X213136314Y-145390850D02*
X213207742Y-145426564D01*
X213207742Y-145426564D02*
X213279171Y-145426564D01*
X213279171Y-145426564D02*
X213350600Y-145390850D01*
X213350600Y-145390850D02*
X213386314Y-145355135D01*
X213386314Y-145355135D02*
X213422028Y-145283707D01*
X213422028Y-145283707D02*
X213457742Y-145140850D01*
X213457742Y-145140850D02*
X213457742Y-144962278D01*
X213457742Y-144962278D02*
X213422028Y-144819421D01*
X213422028Y-144819421D02*
X213386314Y-144747992D01*
X213386314Y-144747992D02*
X213350600Y-144712278D01*
X213350600Y-144712278D02*
X213279171Y-144676564D01*
X200762143Y-144901764D02*
X201012143Y-144544621D01*
X201190714Y-144901764D02*
X201190714Y-144151764D01*
X201190714Y-144151764D02*
X200905000Y-144151764D01*
X200905000Y-144151764D02*
X200833571Y-144187478D01*
X200833571Y-144187478D02*
X200797857Y-144223192D01*
X200797857Y-144223192D02*
X200762143Y-144294621D01*
X200762143Y-144294621D02*
X200762143Y-144401764D01*
X200762143Y-144401764D02*
X200797857Y-144473192D01*
X200797857Y-144473192D02*
X200833571Y-144508907D01*
X200833571Y-144508907D02*
X200905000Y-144544621D01*
X200905000Y-144544621D02*
X201190714Y-144544621D01*
X200047857Y-144901764D02*
X200476428Y-144901764D01*
X200262143Y-144901764D02*
X200262143Y-144151764D01*
X200262143Y-144151764D02*
X200333571Y-144258907D01*
X200333571Y-144258907D02*
X200405000Y-144330335D01*
X200405000Y-144330335D02*
X200476428Y-144366050D01*
X199583571Y-144151764D02*
X199512142Y-144151764D01*
X199512142Y-144151764D02*
X199440714Y-144187478D01*
X199440714Y-144187478D02*
X199405000Y-144223192D01*
X199405000Y-144223192D02*
X199369285Y-144294621D01*
X199369285Y-144294621D02*
X199333571Y-144437478D01*
X199333571Y-144437478D02*
X199333571Y-144616050D01*
X199333571Y-144616050D02*
X199369285Y-144758907D01*
X199369285Y-144758907D02*
X199405000Y-144830335D01*
X199405000Y-144830335D02*
X199440714Y-144866050D01*
X199440714Y-144866050D02*
X199512142Y-144901764D01*
X199512142Y-144901764D02*
X199583571Y-144901764D01*
X199583571Y-144901764D02*
X199655000Y-144866050D01*
X199655000Y-144866050D02*
X199690714Y-144830335D01*
X199690714Y-144830335D02*
X199726428Y-144758907D01*
X199726428Y-144758907D02*
X199762142Y-144616050D01*
X199762142Y-144616050D02*
X199762142Y-144437478D01*
X199762142Y-144437478D02*
X199726428Y-144294621D01*
X199726428Y-144294621D02*
X199690714Y-144223192D01*
X199690714Y-144223192D02*
X199655000Y-144187478D01*
X199655000Y-144187478D02*
X199583571Y-144151764D01*
X204452143Y-139261764D02*
X204702143Y-138904621D01*
X204880714Y-139261764D02*
X204880714Y-138511764D01*
X204880714Y-138511764D02*
X204595000Y-138511764D01*
X204595000Y-138511764D02*
X204523571Y-138547478D01*
X204523571Y-138547478D02*
X204487857Y-138583192D01*
X204487857Y-138583192D02*
X204452143Y-138654621D01*
X204452143Y-138654621D02*
X204452143Y-138761764D01*
X204452143Y-138761764D02*
X204487857Y-138833192D01*
X204487857Y-138833192D02*
X204523571Y-138868907D01*
X204523571Y-138868907D02*
X204595000Y-138904621D01*
X204595000Y-138904621D02*
X204880714Y-138904621D01*
X203737857Y-139261764D02*
X204166428Y-139261764D01*
X203952143Y-139261764D02*
X203952143Y-138511764D01*
X203952143Y-138511764D02*
X204023571Y-138618907D01*
X204023571Y-138618907D02*
X204095000Y-138690335D01*
X204095000Y-138690335D02*
X204166428Y-138726050D01*
X203487857Y-138511764D02*
X203023571Y-138511764D01*
X203023571Y-138511764D02*
X203273571Y-138797478D01*
X203273571Y-138797478D02*
X203166428Y-138797478D01*
X203166428Y-138797478D02*
X203095000Y-138833192D01*
X203095000Y-138833192D02*
X203059285Y-138868907D01*
X203059285Y-138868907D02*
X203023571Y-138940335D01*
X203023571Y-138940335D02*
X203023571Y-139118907D01*
X203023571Y-139118907D02*
X203059285Y-139190335D01*
X203059285Y-139190335D02*
X203095000Y-139226050D01*
X203095000Y-139226050D02*
X203166428Y-139261764D01*
X203166428Y-139261764D02*
X203380714Y-139261764D01*
X203380714Y-139261764D02*
X203452142Y-139226050D01*
X203452142Y-139226050D02*
X203487857Y-139190335D01*
X209301428Y-142743192D02*
X209372857Y-142707478D01*
X209372857Y-142707478D02*
X209444285Y-142636050D01*
X209444285Y-142636050D02*
X209551428Y-142528907D01*
X209551428Y-142528907D02*
X209622857Y-142493192D01*
X209622857Y-142493192D02*
X209694285Y-142493192D01*
X209658571Y-142671764D02*
X209730000Y-142636050D01*
X209730000Y-142636050D02*
X209801428Y-142564621D01*
X209801428Y-142564621D02*
X209837142Y-142421764D01*
X209837142Y-142421764D02*
X209837142Y-142171764D01*
X209837142Y-142171764D02*
X209801428Y-142028907D01*
X209801428Y-142028907D02*
X209730000Y-141957478D01*
X209730000Y-141957478D02*
X209658571Y-141921764D01*
X209658571Y-141921764D02*
X209515714Y-141921764D01*
X209515714Y-141921764D02*
X209444285Y-141957478D01*
X209444285Y-141957478D02*
X209372857Y-142028907D01*
X209372857Y-142028907D02*
X209337142Y-142171764D01*
X209337142Y-142171764D02*
X209337142Y-142421764D01*
X209337142Y-142421764D02*
X209372857Y-142564621D01*
X209372857Y-142564621D02*
X209444285Y-142636050D01*
X209444285Y-142636050D02*
X209515714Y-142671764D01*
X209515714Y-142671764D02*
X209658571Y-142671764D01*
X209051428Y-141993192D02*
X209015714Y-141957478D01*
X209015714Y-141957478D02*
X208944286Y-141921764D01*
X208944286Y-141921764D02*
X208765714Y-141921764D01*
X208765714Y-141921764D02*
X208694286Y-141957478D01*
X208694286Y-141957478D02*
X208658571Y-141993192D01*
X208658571Y-141993192D02*
X208622857Y-142064621D01*
X208622857Y-142064621D02*
X208622857Y-142136050D01*
X208622857Y-142136050D02*
X208658571Y-142243192D01*
X208658571Y-142243192D02*
X209087143Y-142671764D01*
X209087143Y-142671764D02*
X208622857Y-142671764D01*
X198562143Y-132401764D02*
X198812143Y-132044621D01*
X198990714Y-132401764D02*
X198990714Y-131651764D01*
X198990714Y-131651764D02*
X198705000Y-131651764D01*
X198705000Y-131651764D02*
X198633571Y-131687478D01*
X198633571Y-131687478D02*
X198597857Y-131723192D01*
X198597857Y-131723192D02*
X198562143Y-131794621D01*
X198562143Y-131794621D02*
X198562143Y-131901764D01*
X198562143Y-131901764D02*
X198597857Y-131973192D01*
X198597857Y-131973192D02*
X198633571Y-132008907D01*
X198633571Y-132008907D02*
X198705000Y-132044621D01*
X198705000Y-132044621D02*
X198990714Y-132044621D01*
X198276428Y-131723192D02*
X198240714Y-131687478D01*
X198240714Y-131687478D02*
X198169286Y-131651764D01*
X198169286Y-131651764D02*
X197990714Y-131651764D01*
X197990714Y-131651764D02*
X197919286Y-131687478D01*
X197919286Y-131687478D02*
X197883571Y-131723192D01*
X197883571Y-131723192D02*
X197847857Y-131794621D01*
X197847857Y-131794621D02*
X197847857Y-131866050D01*
X197847857Y-131866050D02*
X197883571Y-131973192D01*
X197883571Y-131973192D02*
X198312143Y-132401764D01*
X198312143Y-132401764D02*
X197847857Y-132401764D01*
X197133571Y-132401764D02*
X197562142Y-132401764D01*
X197347857Y-132401764D02*
X197347857Y-131651764D01*
X197347857Y-131651764D02*
X197419285Y-131758907D01*
X197419285Y-131758907D02*
X197490714Y-131830335D01*
X197490714Y-131830335D02*
X197562142Y-131866050D01*
X200085000Y-143801764D02*
X200335000Y-143444621D01*
X200513571Y-143801764D02*
X200513571Y-143051764D01*
X200513571Y-143051764D02*
X200227857Y-143051764D01*
X200227857Y-143051764D02*
X200156428Y-143087478D01*
X200156428Y-143087478D02*
X200120714Y-143123192D01*
X200120714Y-143123192D02*
X200085000Y-143194621D01*
X200085000Y-143194621D02*
X200085000Y-143301764D01*
X200085000Y-143301764D02*
X200120714Y-143373192D01*
X200120714Y-143373192D02*
X200156428Y-143408907D01*
X200156428Y-143408907D02*
X200227857Y-143444621D01*
X200227857Y-143444621D02*
X200513571Y-143444621D01*
X199727857Y-143801764D02*
X199585000Y-143801764D01*
X199585000Y-143801764D02*
X199513571Y-143766050D01*
X199513571Y-143766050D02*
X199477857Y-143730335D01*
X199477857Y-143730335D02*
X199406428Y-143623192D01*
X199406428Y-143623192D02*
X199370714Y-143480335D01*
X199370714Y-143480335D02*
X199370714Y-143194621D01*
X199370714Y-143194621D02*
X199406428Y-143123192D01*
X199406428Y-143123192D02*
X199442143Y-143087478D01*
X199442143Y-143087478D02*
X199513571Y-143051764D01*
X199513571Y-143051764D02*
X199656428Y-143051764D01*
X199656428Y-143051764D02*
X199727857Y-143087478D01*
X199727857Y-143087478D02*
X199763571Y-143123192D01*
X199763571Y-143123192D02*
X199799285Y-143194621D01*
X199799285Y-143194621D02*
X199799285Y-143373192D01*
X199799285Y-143373192D02*
X199763571Y-143444621D01*
X199763571Y-143444621D02*
X199727857Y-143480335D01*
X199727857Y-143480335D02*
X199656428Y-143516050D01*
X199656428Y-143516050D02*
X199513571Y-143516050D01*
X199513571Y-143516050D02*
X199442143Y-143480335D01*
X199442143Y-143480335D02*
X199406428Y-143444621D01*
X199406428Y-143444621D02*
X199370714Y-143373192D01*
X208342143Y-139430335D02*
X208377857Y-139466050D01*
X208377857Y-139466050D02*
X208485000Y-139501764D01*
X208485000Y-139501764D02*
X208556428Y-139501764D01*
X208556428Y-139501764D02*
X208663571Y-139466050D01*
X208663571Y-139466050D02*
X208735000Y-139394621D01*
X208735000Y-139394621D02*
X208770714Y-139323192D01*
X208770714Y-139323192D02*
X208806428Y-139180335D01*
X208806428Y-139180335D02*
X208806428Y-139073192D01*
X208806428Y-139073192D02*
X208770714Y-138930335D01*
X208770714Y-138930335D02*
X208735000Y-138858907D01*
X208735000Y-138858907D02*
X208663571Y-138787478D01*
X208663571Y-138787478D02*
X208556428Y-138751764D01*
X208556428Y-138751764D02*
X208485000Y-138751764D01*
X208485000Y-138751764D02*
X208377857Y-138787478D01*
X208377857Y-138787478D02*
X208342143Y-138823192D01*
X208056428Y-138823192D02*
X208020714Y-138787478D01*
X208020714Y-138787478D02*
X207949286Y-138751764D01*
X207949286Y-138751764D02*
X207770714Y-138751764D01*
X207770714Y-138751764D02*
X207699286Y-138787478D01*
X207699286Y-138787478D02*
X207663571Y-138823192D01*
X207663571Y-138823192D02*
X207627857Y-138894621D01*
X207627857Y-138894621D02*
X207627857Y-138966050D01*
X207627857Y-138966050D02*
X207663571Y-139073192D01*
X207663571Y-139073192D02*
X208092143Y-139501764D01*
X208092143Y-139501764D02*
X207627857Y-139501764D01*
X207377857Y-138751764D02*
X206877857Y-138751764D01*
X206877857Y-138751764D02*
X207199285Y-139501764D01*
X203392143Y-145691764D02*
X203642143Y-145334621D01*
X203820714Y-145691764D02*
X203820714Y-144941764D01*
X203820714Y-144941764D02*
X203535000Y-144941764D01*
X203535000Y-144941764D02*
X203463571Y-144977478D01*
X203463571Y-144977478D02*
X203427857Y-145013192D01*
X203427857Y-145013192D02*
X203392143Y-145084621D01*
X203392143Y-145084621D02*
X203392143Y-145191764D01*
X203392143Y-145191764D02*
X203427857Y-145263192D01*
X203427857Y-145263192D02*
X203463571Y-145298907D01*
X203463571Y-145298907D02*
X203535000Y-145334621D01*
X203535000Y-145334621D02*
X203820714Y-145334621D01*
X203106428Y-145013192D02*
X203070714Y-144977478D01*
X203070714Y-144977478D02*
X202999286Y-144941764D01*
X202999286Y-144941764D02*
X202820714Y-144941764D01*
X202820714Y-144941764D02*
X202749286Y-144977478D01*
X202749286Y-144977478D02*
X202713571Y-145013192D01*
X202713571Y-145013192D02*
X202677857Y-145084621D01*
X202677857Y-145084621D02*
X202677857Y-145156050D01*
X202677857Y-145156050D02*
X202713571Y-145263192D01*
X202713571Y-145263192D02*
X203142143Y-145691764D01*
X203142143Y-145691764D02*
X202677857Y-145691764D01*
X202392142Y-145013192D02*
X202356428Y-144977478D01*
X202356428Y-144977478D02*
X202285000Y-144941764D01*
X202285000Y-144941764D02*
X202106428Y-144941764D01*
X202106428Y-144941764D02*
X202035000Y-144977478D01*
X202035000Y-144977478D02*
X201999285Y-145013192D01*
X201999285Y-145013192D02*
X201963571Y-145084621D01*
X201963571Y-145084621D02*
X201963571Y-145156050D01*
X201963571Y-145156050D02*
X201999285Y-145263192D01*
X201999285Y-145263192D02*
X202427857Y-145691764D01*
X202427857Y-145691764D02*
X201963571Y-145691764D01*
X213872143Y-130740335D02*
X213907857Y-130776050D01*
X213907857Y-130776050D02*
X214015000Y-130811764D01*
X214015000Y-130811764D02*
X214086428Y-130811764D01*
X214086428Y-130811764D02*
X214193571Y-130776050D01*
X214193571Y-130776050D02*
X214265000Y-130704621D01*
X214265000Y-130704621D02*
X214300714Y-130633192D01*
X214300714Y-130633192D02*
X214336428Y-130490335D01*
X214336428Y-130490335D02*
X214336428Y-130383192D01*
X214336428Y-130383192D02*
X214300714Y-130240335D01*
X214300714Y-130240335D02*
X214265000Y-130168907D01*
X214265000Y-130168907D02*
X214193571Y-130097478D01*
X214193571Y-130097478D02*
X214086428Y-130061764D01*
X214086428Y-130061764D02*
X214015000Y-130061764D01*
X214015000Y-130061764D02*
X213907857Y-130097478D01*
X213907857Y-130097478D02*
X213872143Y-130133192D01*
X213157857Y-130811764D02*
X213586428Y-130811764D01*
X213372143Y-130811764D02*
X213372143Y-130061764D01*
X213372143Y-130061764D02*
X213443571Y-130168907D01*
X213443571Y-130168907D02*
X213515000Y-130240335D01*
X213515000Y-130240335D02*
X213586428Y-130276050D01*
X212872142Y-130133192D02*
X212836428Y-130097478D01*
X212836428Y-130097478D02*
X212765000Y-130061764D01*
X212765000Y-130061764D02*
X212586428Y-130061764D01*
X212586428Y-130061764D02*
X212515000Y-130097478D01*
X212515000Y-130097478D02*
X212479285Y-130133192D01*
X212479285Y-130133192D02*
X212443571Y-130204621D01*
X212443571Y-130204621D02*
X212443571Y-130276050D01*
X212443571Y-130276050D02*
X212479285Y-130383192D01*
X212479285Y-130383192D02*
X212907857Y-130811764D01*
X212907857Y-130811764D02*
X212443571Y-130811764D01*
X204642143Y-136981764D02*
X204892143Y-136624621D01*
X205070714Y-136981764D02*
X205070714Y-136231764D01*
X205070714Y-136231764D02*
X204785000Y-136231764D01*
X204785000Y-136231764D02*
X204713571Y-136267478D01*
X204713571Y-136267478D02*
X204677857Y-136303192D01*
X204677857Y-136303192D02*
X204642143Y-136374621D01*
X204642143Y-136374621D02*
X204642143Y-136481764D01*
X204642143Y-136481764D02*
X204677857Y-136553192D01*
X204677857Y-136553192D02*
X204713571Y-136588907D01*
X204713571Y-136588907D02*
X204785000Y-136624621D01*
X204785000Y-136624621D02*
X205070714Y-136624621D01*
X203927857Y-136981764D02*
X204356428Y-136981764D01*
X204142143Y-136981764D02*
X204142143Y-136231764D01*
X204142143Y-136231764D02*
X204213571Y-136338907D01*
X204213571Y-136338907D02*
X204285000Y-136410335D01*
X204285000Y-136410335D02*
X204356428Y-136446050D01*
X203285000Y-136231764D02*
X203427857Y-136231764D01*
X203427857Y-136231764D02*
X203499285Y-136267478D01*
X203499285Y-136267478D02*
X203535000Y-136303192D01*
X203535000Y-136303192D02*
X203606428Y-136410335D01*
X203606428Y-136410335D02*
X203642142Y-136553192D01*
X203642142Y-136553192D02*
X203642142Y-136838907D01*
X203642142Y-136838907D02*
X203606428Y-136910335D01*
X203606428Y-136910335D02*
X203570714Y-136946050D01*
X203570714Y-136946050D02*
X203499285Y-136981764D01*
X203499285Y-136981764D02*
X203356428Y-136981764D01*
X203356428Y-136981764D02*
X203285000Y-136946050D01*
X203285000Y-136946050D02*
X203249285Y-136910335D01*
X203249285Y-136910335D02*
X203213571Y-136838907D01*
X203213571Y-136838907D02*
X203213571Y-136660335D01*
X203213571Y-136660335D02*
X203249285Y-136588907D01*
X203249285Y-136588907D02*
X203285000Y-136553192D01*
X203285000Y-136553192D02*
X203356428Y-136517478D01*
X203356428Y-136517478D02*
X203499285Y-136517478D01*
X203499285Y-136517478D02*
X203570714Y-136553192D01*
X203570714Y-136553192D02*
X203606428Y-136588907D01*
X203606428Y-136588907D02*
X203642142Y-136660335D01*
X219215000Y-130920335D02*
X219250714Y-130956050D01*
X219250714Y-130956050D02*
X219357857Y-130991764D01*
X219357857Y-130991764D02*
X219429285Y-130991764D01*
X219429285Y-130991764D02*
X219536428Y-130956050D01*
X219536428Y-130956050D02*
X219607857Y-130884621D01*
X219607857Y-130884621D02*
X219643571Y-130813192D01*
X219643571Y-130813192D02*
X219679285Y-130670335D01*
X219679285Y-130670335D02*
X219679285Y-130563192D01*
X219679285Y-130563192D02*
X219643571Y-130420335D01*
X219643571Y-130420335D02*
X219607857Y-130348907D01*
X219607857Y-130348907D02*
X219536428Y-130277478D01*
X219536428Y-130277478D02*
X219429285Y-130241764D01*
X219429285Y-130241764D02*
X219357857Y-130241764D01*
X219357857Y-130241764D02*
X219250714Y-130277478D01*
X219250714Y-130277478D02*
X219215000Y-130313192D01*
X218965000Y-130241764D02*
X218465000Y-130241764D01*
X218465000Y-130241764D02*
X218786428Y-130991764D01*
D11*
X224036666Y-138899580D02*
X224084285Y-138947200D01*
X224084285Y-138947200D02*
X224227142Y-138994819D01*
X224227142Y-138994819D02*
X224322380Y-138994819D01*
X224322380Y-138994819D02*
X224465237Y-138947200D01*
X224465237Y-138947200D02*
X224560475Y-138851961D01*
X224560475Y-138851961D02*
X224608094Y-138756723D01*
X224608094Y-138756723D02*
X224655713Y-138566247D01*
X224655713Y-138566247D02*
X224655713Y-138423390D01*
X224655713Y-138423390D02*
X224608094Y-138232914D01*
X224608094Y-138232914D02*
X224560475Y-138137676D01*
X224560475Y-138137676D02*
X224465237Y-138042438D01*
X224465237Y-138042438D02*
X224322380Y-137994819D01*
X224322380Y-137994819D02*
X224227142Y-137994819D01*
X224227142Y-137994819D02*
X224084285Y-138042438D01*
X224084285Y-138042438D02*
X224036666Y-138090057D01*
X223084285Y-138994819D02*
X223655713Y-138994819D01*
X223369999Y-138994819D02*
X223369999Y-137994819D01*
X223369999Y-137994819D02*
X223465237Y-138137676D01*
X223465237Y-138137676D02*
X223560475Y-138232914D01*
X223560475Y-138232914D02*
X223655713Y-138280533D01*
D10*
X222385000Y-136700335D02*
X222420714Y-136736050D01*
X222420714Y-136736050D02*
X222527857Y-136771764D01*
X222527857Y-136771764D02*
X222599285Y-136771764D01*
X222599285Y-136771764D02*
X222706428Y-136736050D01*
X222706428Y-136736050D02*
X222777857Y-136664621D01*
X222777857Y-136664621D02*
X222813571Y-136593192D01*
X222813571Y-136593192D02*
X222849285Y-136450335D01*
X222849285Y-136450335D02*
X222849285Y-136343192D01*
X222849285Y-136343192D02*
X222813571Y-136200335D01*
X222813571Y-136200335D02*
X222777857Y-136128907D01*
X222777857Y-136128907D02*
X222706428Y-136057478D01*
X222706428Y-136057478D02*
X222599285Y-136021764D01*
X222599285Y-136021764D02*
X222527857Y-136021764D01*
X222527857Y-136021764D02*
X222420714Y-136057478D01*
X222420714Y-136057478D02*
X222385000Y-136093192D01*
X221706428Y-136021764D02*
X222063571Y-136021764D01*
X222063571Y-136021764D02*
X222099285Y-136378907D01*
X222099285Y-136378907D02*
X222063571Y-136343192D01*
X222063571Y-136343192D02*
X221992143Y-136307478D01*
X221992143Y-136307478D02*
X221813571Y-136307478D01*
X221813571Y-136307478D02*
X221742143Y-136343192D01*
X221742143Y-136343192D02*
X221706428Y-136378907D01*
X221706428Y-136378907D02*
X221670714Y-136450335D01*
X221670714Y-136450335D02*
X221670714Y-136628907D01*
X221670714Y-136628907D02*
X221706428Y-136700335D01*
X221706428Y-136700335D02*
X221742143Y-136736050D01*
X221742143Y-136736050D02*
X221813571Y-136771764D01*
X221813571Y-136771764D02*
X221992143Y-136771764D01*
X221992143Y-136771764D02*
X222063571Y-136736050D01*
X222063571Y-136736050D02*
X222099285Y-136700335D01*
X210912143Y-144801764D02*
X211162143Y-144444621D01*
X211340714Y-144801764D02*
X211340714Y-144051764D01*
X211340714Y-144051764D02*
X211055000Y-144051764D01*
X211055000Y-144051764D02*
X210983571Y-144087478D01*
X210983571Y-144087478D02*
X210947857Y-144123192D01*
X210947857Y-144123192D02*
X210912143Y-144194621D01*
X210912143Y-144194621D02*
X210912143Y-144301764D01*
X210912143Y-144301764D02*
X210947857Y-144373192D01*
X210947857Y-144373192D02*
X210983571Y-144408907D01*
X210983571Y-144408907D02*
X211055000Y-144444621D01*
X211055000Y-144444621D02*
X211340714Y-144444621D01*
X210626428Y-144123192D02*
X210590714Y-144087478D01*
X210590714Y-144087478D02*
X210519286Y-144051764D01*
X210519286Y-144051764D02*
X210340714Y-144051764D01*
X210340714Y-144051764D02*
X210269286Y-144087478D01*
X210269286Y-144087478D02*
X210233571Y-144123192D01*
X210233571Y-144123192D02*
X210197857Y-144194621D01*
X210197857Y-144194621D02*
X210197857Y-144266050D01*
X210197857Y-144266050D02*
X210233571Y-144373192D01*
X210233571Y-144373192D02*
X210662143Y-144801764D01*
X210662143Y-144801764D02*
X210197857Y-144801764D01*
X209519285Y-144051764D02*
X209876428Y-144051764D01*
X209876428Y-144051764D02*
X209912142Y-144408907D01*
X209912142Y-144408907D02*
X209876428Y-144373192D01*
X209876428Y-144373192D02*
X209805000Y-144337478D01*
X209805000Y-144337478D02*
X209626428Y-144337478D01*
X209626428Y-144337478D02*
X209555000Y-144373192D01*
X209555000Y-144373192D02*
X209519285Y-144408907D01*
X209519285Y-144408907D02*
X209483571Y-144480335D01*
X209483571Y-144480335D02*
X209483571Y-144658907D01*
X209483571Y-144658907D02*
X209519285Y-144730335D01*
X209519285Y-144730335D02*
X209555000Y-144766050D01*
X209555000Y-144766050D02*
X209626428Y-144801764D01*
X209626428Y-144801764D02*
X209805000Y-144801764D01*
X209805000Y-144801764D02*
X209876428Y-144766050D01*
X209876428Y-144766050D02*
X209912142Y-144730335D01*
X201783571Y-133871764D02*
X201783571Y-133121764D01*
X201783571Y-133121764D02*
X201605000Y-133121764D01*
X201605000Y-133121764D02*
X201497857Y-133157478D01*
X201497857Y-133157478D02*
X201426428Y-133228907D01*
X201426428Y-133228907D02*
X201390714Y-133300335D01*
X201390714Y-133300335D02*
X201355000Y-133443192D01*
X201355000Y-133443192D02*
X201355000Y-133550335D01*
X201355000Y-133550335D02*
X201390714Y-133693192D01*
X201390714Y-133693192D02*
X201426428Y-133764621D01*
X201426428Y-133764621D02*
X201497857Y-133836050D01*
X201497857Y-133836050D02*
X201605000Y-133871764D01*
X201605000Y-133871764D02*
X201783571Y-133871764D01*
X201069285Y-133193192D02*
X201033571Y-133157478D01*
X201033571Y-133157478D02*
X200962143Y-133121764D01*
X200962143Y-133121764D02*
X200783571Y-133121764D01*
X200783571Y-133121764D02*
X200712143Y-133157478D01*
X200712143Y-133157478D02*
X200676428Y-133193192D01*
X200676428Y-133193192D02*
X200640714Y-133264621D01*
X200640714Y-133264621D02*
X200640714Y-133336050D01*
X200640714Y-133336050D02*
X200676428Y-133443192D01*
X200676428Y-133443192D02*
X201105000Y-133871764D01*
X201105000Y-133871764D02*
X200640714Y-133871764D01*
X208072143Y-138100335D02*
X208107857Y-138136050D01*
X208107857Y-138136050D02*
X208215000Y-138171764D01*
X208215000Y-138171764D02*
X208286428Y-138171764D01*
X208286428Y-138171764D02*
X208393571Y-138136050D01*
X208393571Y-138136050D02*
X208465000Y-138064621D01*
X208465000Y-138064621D02*
X208500714Y-137993192D01*
X208500714Y-137993192D02*
X208536428Y-137850335D01*
X208536428Y-137850335D02*
X208536428Y-137743192D01*
X208536428Y-137743192D02*
X208500714Y-137600335D01*
X208500714Y-137600335D02*
X208465000Y-137528907D01*
X208465000Y-137528907D02*
X208393571Y-137457478D01*
X208393571Y-137457478D02*
X208286428Y-137421764D01*
X208286428Y-137421764D02*
X208215000Y-137421764D01*
X208215000Y-137421764D02*
X208107857Y-137457478D01*
X208107857Y-137457478D02*
X208072143Y-137493192D01*
X207786428Y-137493192D02*
X207750714Y-137457478D01*
X207750714Y-137457478D02*
X207679286Y-137421764D01*
X207679286Y-137421764D02*
X207500714Y-137421764D01*
X207500714Y-137421764D02*
X207429286Y-137457478D01*
X207429286Y-137457478D02*
X207393571Y-137493192D01*
X207393571Y-137493192D02*
X207357857Y-137564621D01*
X207357857Y-137564621D02*
X207357857Y-137636050D01*
X207357857Y-137636050D02*
X207393571Y-137743192D01*
X207393571Y-137743192D02*
X207822143Y-138171764D01*
X207822143Y-138171764D02*
X207357857Y-138171764D01*
X206679285Y-137421764D02*
X207036428Y-137421764D01*
X207036428Y-137421764D02*
X207072142Y-137778907D01*
X207072142Y-137778907D02*
X207036428Y-137743192D01*
X207036428Y-137743192D02*
X206965000Y-137707478D01*
X206965000Y-137707478D02*
X206786428Y-137707478D01*
X206786428Y-137707478D02*
X206715000Y-137743192D01*
X206715000Y-137743192D02*
X206679285Y-137778907D01*
X206679285Y-137778907D02*
X206643571Y-137850335D01*
X206643571Y-137850335D02*
X206643571Y-138028907D01*
X206643571Y-138028907D02*
X206679285Y-138100335D01*
X206679285Y-138100335D02*
X206715000Y-138136050D01*
X206715000Y-138136050D02*
X206786428Y-138171764D01*
X206786428Y-138171764D02*
X206965000Y-138171764D01*
X206965000Y-138171764D02*
X207036428Y-138136050D01*
X207036428Y-138136050D02*
X207072142Y-138100335D01*
X199835000Y-145961764D02*
X200085000Y-145604621D01*
X200263571Y-145961764D02*
X200263571Y-145211764D01*
X200263571Y-145211764D02*
X199977857Y-145211764D01*
X199977857Y-145211764D02*
X199906428Y-145247478D01*
X199906428Y-145247478D02*
X199870714Y-145283192D01*
X199870714Y-145283192D02*
X199835000Y-145354621D01*
X199835000Y-145354621D02*
X199835000Y-145461764D01*
X199835000Y-145461764D02*
X199870714Y-145533192D01*
X199870714Y-145533192D02*
X199906428Y-145568907D01*
X199906428Y-145568907D02*
X199977857Y-145604621D01*
X199977857Y-145604621D02*
X200263571Y-145604621D01*
X199585000Y-145211764D02*
X199120714Y-145211764D01*
X199120714Y-145211764D02*
X199370714Y-145497478D01*
X199370714Y-145497478D02*
X199263571Y-145497478D01*
X199263571Y-145497478D02*
X199192143Y-145533192D01*
X199192143Y-145533192D02*
X199156428Y-145568907D01*
X199156428Y-145568907D02*
X199120714Y-145640335D01*
X199120714Y-145640335D02*
X199120714Y-145818907D01*
X199120714Y-145818907D02*
X199156428Y-145890335D01*
X199156428Y-145890335D02*
X199192143Y-145926050D01*
X199192143Y-145926050D02*
X199263571Y-145961764D01*
X199263571Y-145961764D02*
X199477857Y-145961764D01*
X199477857Y-145961764D02*
X199549285Y-145926050D01*
X199549285Y-145926050D02*
X199585000Y-145890335D01*
D14*
%TO.C,C30*%
X203502164Y-131610000D02*
X203717836Y-131610000D01*
X203502164Y-132330000D02*
X203717836Y-132330000D01*
D10*
%TO.C,D3*%
X205500000Y-139180000D02*
G75*
G02*
X205400000Y-139180000I-50000J0D01*
G01*
X205400000Y-139180000D02*
G75*
G02*
X205500000Y-139180000I50000J0D01*
G01*
D14*
%TO.C,Q1*%
X208047500Y-143882500D02*
X206747500Y-143882500D01*
X208047500Y-145682500D02*
X206747500Y-145682500D01*
D11*
X208622500Y-143732500D02*
G75*
G02*
X208472500Y-143732500I-75000J0D01*
G01*
X208472500Y-143732500D02*
G75*
G02*
X208622500Y-143732500I75000J0D01*
G01*
D14*
%TO.C,R26*%
X217884441Y-140488400D02*
X217577159Y-140488400D01*
X217884441Y-141248400D02*
X217577159Y-141248400D01*
%TO.C,R13*%
X203427500Y-141197258D02*
X203427500Y-140722742D01*
X204472500Y-141197258D02*
X204472500Y-140722742D01*
%TO.C,Q2*%
X206390000Y-143207500D02*
X206390000Y-141907500D01*
X208190000Y-143207500D02*
X208190000Y-141907500D01*
D11*
X208565000Y-143257500D02*
G75*
G02*
X208415000Y-143257500I-75000J0D01*
G01*
X208415000Y-143257500D02*
G75*
G02*
X208565000Y-143257500I75000J0D01*
G01*
D14*
%TO.C,C27*%
X206040000Y-140182164D02*
X206040000Y-140397836D01*
X206760000Y-140182164D02*
X206760000Y-140397836D01*
%TO.C,C12*%
X215582164Y-130080000D02*
X215797836Y-130080000D01*
X215582164Y-130800000D02*
X215797836Y-130800000D01*
%TO.C,D2*%
X199880000Y-135140000D02*
X199880000Y-140200000D01*
X199880000Y-140200000D02*
X202600000Y-140200000D01*
X202600000Y-135140000D02*
X202600000Y-140200000D01*
%TD*%
D15*
X192024000Y-147574000D02*
G75*
G02*
X191389000Y-146939000I0J635000D01*
G01*
X236866000Y-146812009D02*
G75*
G02*
X236103993Y-147574000I-762000J9D01*
G01*
X236866000Y-146812000D02*
X236866000Y-132500000D01*
X228965000Y-128016000D02*
G75*
G02*
X229600000Y-128651000I0J-635000D01*
G01*
X191389000Y-128651000D02*
G75*
G02*
X192024000Y-128016000I635000J0D01*
G01*
X191389000Y-128651000D02*
X191389000Y-146939000D01*
X229600000Y-131220000D02*
X229600000Y-128660000D01*
X236231000Y-131864000D02*
G75*
G02*
X236866000Y-132499000I0J-635000D01*
G01*
X230235000Y-131864000D02*
G75*
G02*
X229600000Y-131229000I0J635000D01*
G01*
X236231000Y-131864000D02*
X230240000Y-131864000D01*
X192024000Y-147574000D02*
X236103993Y-147574000D01*
X192024000Y-128016000D02*
X228965000Y-128016000D01*
M02*
