%TF.GenerationSoftware,KiCad,Pcbnew,8.0.1*%
%TF.CreationDate,2024-04-03T20:43:08-07:00*%
%TF.ProjectId,Bluetooth_OSHW,426c7565-746f-46f7-9468-5f4f5348572e,rev?*%
%TF.SameCoordinates,Original*%
%TF.FileFunction,Drillmap*%
%TF.FilePolarity,Positive*%
%FSLAX45Y45*%
G04 Gerber Fmt 4.5, Leading zero omitted, Abs format (unit mm)*
G04 Created by KiCad (PCBNEW 8.0.1) date 2024-04-03 20:43:08*
%MOMM*%
%LPD*%
G01*
G04 APERTURE LIST*
%ADD10C,0.100000*%
%ADD11C,0.200000*%
G04 APERTURE END LIST*
D10*
X19202400Y-14757400D02*
G75*
G02*
X19138900Y-14693900I0J63500D01*
G01*
X23723600Y-14681201D02*
G75*
G02*
X23647399Y-14757400I-76200J1D01*
G01*
X23723600Y-14681200D02*
X23723600Y-13339900D01*
X22896500Y-12801600D02*
G75*
G02*
X22960000Y-12865100I0J-63500D01*
G01*
X19138900Y-12865100D02*
G75*
G02*
X19202400Y-12801600I63500J0D01*
G01*
X19138900Y-12865100D02*
X19138900Y-14693900D01*
X23660100Y-13276400D02*
G75*
G02*
X23723600Y-13339900I0J-63500D01*
G01*
X23023500Y-13276400D02*
G75*
G02*
X22960000Y-13212900I0J63500D01*
G01*
X22960000Y-13212900D02*
X22960000Y-12865100D01*
X23660100Y-13276400D02*
X23023500Y-13276400D01*
X19202400Y-14757400D02*
X23647399Y-14757400D01*
X19202400Y-12801600D02*
X22896500Y-12801600D01*
D11*
D10*
X20158980Y-14465420D02*
X20173980Y-14480420D01*
X20173980Y-14465420D02*
X20158980Y-14480420D01*
X20295500Y-13523500D02*
X20310500Y-13538500D01*
X20310500Y-13523500D02*
X20295500Y-13538500D01*
X20418500Y-13496500D02*
X20433500Y-13511500D01*
X20433500Y-13496500D02*
X20418500Y-13511500D01*
X20582500Y-13416500D02*
X20597500Y-13431500D01*
X20597500Y-13416500D02*
X20582500Y-13431500D01*
X20639500Y-13417500D02*
X20654500Y-13432500D01*
X20654500Y-13417500D02*
X20639500Y-13432500D01*
X19669000Y-13319000D02*
G75*
G02*
X19649000Y-13319000I-10000J0D01*
G01*
X19649000Y-13319000D02*
G75*
G02*
X19669000Y-13319000I10000J0D01*
G01*
X19743000Y-13472000D02*
G75*
G02*
X19723000Y-13472000I-10000J0D01*
G01*
X19723000Y-13472000D02*
G75*
G02*
X19743000Y-13472000I10000J0D01*
G01*
X19746000Y-13173000D02*
G75*
G02*
X19726000Y-13173000I-10000J0D01*
G01*
X19726000Y-13173000D02*
G75*
G02*
X19746000Y-13173000I10000J0D01*
G01*
X19951540Y-13037700D02*
G75*
G02*
X19931540Y-13037700I-10000J0D01*
G01*
X19931540Y-13037700D02*
G75*
G02*
X19951540Y-13037700I10000J0D01*
G01*
X19951540Y-13657580D02*
G75*
G02*
X19931540Y-13657580I-10000J0D01*
G01*
X19931540Y-13657580D02*
G75*
G02*
X19951540Y-13657580I10000J0D01*
G01*
X20045520Y-14351000D02*
G75*
G02*
X20025520Y-14351000I-10000J0D01*
G01*
X20025520Y-14351000D02*
G75*
G02*
X20045520Y-14351000I10000J0D01*
G01*
X20093780Y-14406880D02*
G75*
G02*
X20073780Y-14406880I-10000J0D01*
G01*
X20073780Y-14406880D02*
G75*
G02*
X20093780Y-14406880I10000J0D01*
G01*
X20112000Y-13411000D02*
G75*
G02*
X20092000Y-13411000I-10000J0D01*
G01*
X20092000Y-13411000D02*
G75*
G02*
X20112000Y-13411000I10000J0D01*
G01*
X20127000Y-13663000D02*
G75*
G02*
X20107000Y-13663000I-10000J0D01*
G01*
X20107000Y-13663000D02*
G75*
G02*
X20127000Y-13663000I10000J0D01*
G01*
X20164000Y-14687000D02*
G75*
G02*
X20144000Y-14687000I-10000J0D01*
G01*
X20144000Y-14687000D02*
G75*
G02*
X20164000Y-14687000I10000J0D01*
G01*
X20183000Y-13854000D02*
G75*
G02*
X20163000Y-13854000I-10000J0D01*
G01*
X20163000Y-13854000D02*
G75*
G02*
X20183000Y-13854000I10000J0D01*
G01*
X20192840Y-13794740D02*
G75*
G02*
X20172840Y-13794740I-10000J0D01*
G01*
X20172840Y-13794740D02*
G75*
G02*
X20192840Y-13794740I10000J0D01*
G01*
X20222000Y-13690000D02*
G75*
G02*
X20202000Y-13690000I-10000J0D01*
G01*
X20202000Y-13690000D02*
G75*
G02*
X20222000Y-13690000I10000J0D01*
G01*
X20238040Y-14098000D02*
G75*
G02*
X20218040Y-14098000I-10000J0D01*
G01*
X20218040Y-14098000D02*
G75*
G02*
X20238040Y-14098000I10000J0D01*
G01*
X20285000Y-13279000D02*
G75*
G02*
X20265000Y-13279000I-10000J0D01*
G01*
X20265000Y-13279000D02*
G75*
G02*
X20285000Y-13279000I10000J0D01*
G01*
X20291000Y-13411000D02*
G75*
G02*
X20271000Y-13411000I-10000J0D01*
G01*
X20271000Y-13411000D02*
G75*
G02*
X20291000Y-13411000I10000J0D01*
G01*
X20300930Y-13125310D02*
G75*
G02*
X20280930Y-13125310I-10000J0D01*
G01*
X20280930Y-13125310D02*
G75*
G02*
X20300930Y-13125310I10000J0D01*
G01*
X20306000Y-14095860D02*
G75*
G02*
X20286000Y-14095860I-10000J0D01*
G01*
X20286000Y-14095860D02*
G75*
G02*
X20306000Y-14095860I10000J0D01*
G01*
X20326000Y-13681980D02*
G75*
G02*
X20306000Y-13681980I-10000J0D01*
G01*
X20306000Y-13681980D02*
G75*
G02*
X20326000Y-13681980I10000J0D01*
G01*
X20348000Y-13815000D02*
G75*
G02*
X20328000Y-13815000I-10000J0D01*
G01*
X20328000Y-13815000D02*
G75*
G02*
X20348000Y-13815000I10000J0D01*
G01*
X20371056Y-14518056D02*
G75*
G02*
X20351056Y-14518056I-10000J0D01*
G01*
X20351056Y-14518056D02*
G75*
G02*
X20371056Y-14518056I10000J0D01*
G01*
X20408000Y-14610000D02*
G75*
G02*
X20388000Y-14610000I-10000J0D01*
G01*
X20388000Y-14610000D02*
G75*
G02*
X20408000Y-14610000I10000J0D01*
G01*
X20428000Y-12946000D02*
G75*
G02*
X20408000Y-12946000I-10000J0D01*
G01*
X20408000Y-12946000D02*
G75*
G02*
X20428000Y-12946000I10000J0D01*
G01*
X20475000Y-14688000D02*
G75*
G02*
X20455000Y-14688000I-10000J0D01*
G01*
X20455000Y-14688000D02*
G75*
G02*
X20475000Y-14688000I10000J0D01*
G01*
X20501000Y-13222000D02*
G75*
G02*
X20481000Y-13222000I-10000J0D01*
G01*
X20481000Y-13222000D02*
G75*
G02*
X20501000Y-13222000I10000J0D01*
G01*
X20518081Y-14265468D02*
G75*
G02*
X20498081Y-14265468I-10000J0D01*
G01*
X20498081Y-14265468D02*
G75*
G02*
X20518081Y-14265468I10000J0D01*
G01*
X20519000Y-13671000D02*
G75*
G02*
X20499000Y-13671000I-10000J0D01*
G01*
X20499000Y-13671000D02*
G75*
G02*
X20519000Y-13671000I10000J0D01*
G01*
X20543360Y-14551660D02*
G75*
G02*
X20523360Y-14551660I-10000J0D01*
G01*
X20523360Y-14551660D02*
G75*
G02*
X20543360Y-14551660I10000J0D01*
G01*
X20570001Y-14290000D02*
G75*
G02*
X20550001Y-14290000I-10000J0D01*
G01*
X20550001Y-14290000D02*
G75*
G02*
X20570001Y-14290000I10000J0D01*
G01*
X20638000Y-14289000D02*
G75*
G02*
X20618000Y-14289000I-10000J0D01*
G01*
X20618000Y-14289000D02*
G75*
G02*
X20638000Y-14289000I10000J0D01*
G01*
X20644000Y-14610000D02*
G75*
G02*
X20624000Y-14610000I-10000J0D01*
G01*
X20624000Y-14610000D02*
G75*
G02*
X20644000Y-14610000I10000J0D01*
G01*
X20663000Y-13937000D02*
G75*
G02*
X20643000Y-13937000I-10000J0D01*
G01*
X20643000Y-13937000D02*
G75*
G02*
X20663000Y-13937000I10000J0D01*
G01*
X20700840Y-14568000D02*
G75*
G02*
X20680840Y-14568000I-10000J0D01*
G01*
X20680840Y-14568000D02*
G75*
G02*
X20700840Y-14568000I10000J0D01*
G01*
X20706000Y-13667000D02*
G75*
G02*
X20686000Y-13667000I-10000J0D01*
G01*
X20686000Y-13667000D02*
G75*
G02*
X20706000Y-13667000I10000J0D01*
G01*
X20741480Y-14488160D02*
G75*
G02*
X20721480Y-14488160I-10000J0D01*
G01*
X20721480Y-14488160D02*
G75*
G02*
X20741480Y-14488160I10000J0D01*
G01*
X20845000Y-13189000D02*
G75*
G02*
X20825000Y-13189000I-10000J0D01*
G01*
X20825000Y-13189000D02*
G75*
G02*
X20845000Y-13189000I10000J0D01*
G01*
X20913000Y-13418000D02*
G75*
G02*
X20893000Y-13418000I-10000J0D01*
G01*
X20893000Y-13418000D02*
G75*
G02*
X20913000Y-13418000I10000J0D01*
G01*
X20944000Y-13229000D02*
G75*
G02*
X20924000Y-13229000I-10000J0D01*
G01*
X20924000Y-13229000D02*
G75*
G02*
X20944000Y-13229000I10000J0D01*
G01*
X20965000Y-14555000D02*
G75*
G02*
X20945000Y-14555000I-10000J0D01*
G01*
X20945000Y-14555000D02*
G75*
G02*
X20965000Y-14555000I10000J0D01*
G01*
X21000560Y-14229080D02*
G75*
G02*
X20980560Y-14229080I-10000J0D01*
G01*
X20980560Y-14229080D02*
G75*
G02*
X21000560Y-14229080I10000J0D01*
G01*
X21025000Y-13227000D02*
G75*
G02*
X21005000Y-13227000I-10000J0D01*
G01*
X21005000Y-13227000D02*
G75*
G02*
X21025000Y-13227000I10000J0D01*
G01*
X21031040Y-14427200D02*
G75*
G02*
X21011040Y-14427200I-10000J0D01*
G01*
X21011040Y-14427200D02*
G75*
G02*
X21031040Y-14427200I10000J0D01*
G01*
X21054000Y-13826000D02*
G75*
G02*
X21034000Y-13826000I-10000J0D01*
G01*
X21034000Y-13826000D02*
G75*
G02*
X21054000Y-13826000I10000J0D01*
G01*
X21071680Y-13924280D02*
G75*
G02*
X21051680Y-13924280I-10000J0D01*
G01*
X21051680Y-13924280D02*
G75*
G02*
X21071680Y-13924280I10000J0D01*
G01*
X21085000Y-13189000D02*
G75*
G02*
X21065000Y-13189000I-10000J0D01*
G01*
X21065000Y-13189000D02*
G75*
G02*
X21085000Y-13189000I10000J0D01*
G01*
X21106000Y-14542000D02*
G75*
G02*
X21086000Y-14542000I-10000J0D01*
G01*
X21086000Y-14542000D02*
G75*
G02*
X21106000Y-14542000I10000J0D01*
G01*
X21122000Y-13585000D02*
G75*
G02*
X21102000Y-13585000I-10000J0D01*
G01*
X21102000Y-13585000D02*
G75*
G02*
X21122000Y-13585000I10000J0D01*
G01*
X21132000Y-13228000D02*
G75*
G02*
X21112000Y-13228000I-10000J0D01*
G01*
X21112000Y-13228000D02*
G75*
G02*
X21132000Y-13228000I10000J0D01*
G01*
X21133000Y-13514000D02*
G75*
G02*
X21113000Y-13514000I-10000J0D01*
G01*
X21113000Y-13514000D02*
G75*
G02*
X21133000Y-13514000I10000J0D01*
G01*
X21157000Y-13654000D02*
G75*
G02*
X21137000Y-13654000I-10000J0D01*
G01*
X21137000Y-13654000D02*
G75*
G02*
X21157000Y-13654000I10000J0D01*
G01*
X21178000Y-13556000D02*
G75*
G02*
X21158000Y-13556000I-10000J0D01*
G01*
X21158000Y-13556000D02*
G75*
G02*
X21178000Y-13556000I10000J0D01*
G01*
X21184000Y-14057000D02*
G75*
G02*
X21164000Y-14057000I-10000J0D01*
G01*
X21164000Y-14057000D02*
G75*
G02*
X21184000Y-14057000I10000J0D01*
G01*
X21219000Y-13767000D02*
G75*
G02*
X21199000Y-13767000I-10000J0D01*
G01*
X21199000Y-13767000D02*
G75*
G02*
X21219000Y-13767000I10000J0D01*
G01*
X21235000Y-13418000D02*
G75*
G02*
X21215000Y-13418000I-10000J0D01*
G01*
X21215000Y-13418000D02*
G75*
G02*
X21235000Y-13418000I10000J0D01*
G01*
X21242000Y-13931000D02*
G75*
G02*
X21222000Y-13931000I-10000J0D01*
G01*
X21222000Y-13931000D02*
G75*
G02*
X21242000Y-13931000I10000J0D01*
G01*
X21299000Y-13234000D02*
G75*
G02*
X21279000Y-13234000I-10000J0D01*
G01*
X21279000Y-13234000D02*
G75*
G02*
X21299000Y-13234000I10000J0D01*
G01*
X21311000Y-14002000D02*
G75*
G02*
X21291000Y-14002000I-10000J0D01*
G01*
X21291000Y-14002000D02*
G75*
G02*
X21311000Y-14002000I10000J0D01*
G01*
X21355000Y-13241000D02*
G75*
G02*
X21335000Y-13241000I-10000J0D01*
G01*
X21335000Y-13241000D02*
G75*
G02*
X21355000Y-13241000I10000J0D01*
G01*
X21365000Y-14124000D02*
G75*
G02*
X21345000Y-14124000I-10000J0D01*
G01*
X21345000Y-14124000D02*
G75*
G02*
X21365000Y-14124000I10000J0D01*
G01*
X21365000Y-14457000D02*
G75*
G02*
X21345000Y-14457000I-10000J0D01*
G01*
X21345000Y-14457000D02*
G75*
G02*
X21365000Y-14457000I10000J0D01*
G01*
X21427280Y-14157960D02*
G75*
G02*
X21407280Y-14157960I-10000J0D01*
G01*
X21407280Y-14157960D02*
G75*
G02*
X21427280Y-14157960I10000J0D01*
G01*
X21461000Y-13050000D02*
G75*
G02*
X21441000Y-13050000I-10000J0D01*
G01*
X21441000Y-13050000D02*
G75*
G02*
X21461000Y-13050000I10000J0D01*
G01*
X21503480Y-14493240D02*
G75*
G02*
X21483480Y-14493240I-10000J0D01*
G01*
X21483480Y-14493240D02*
G75*
G02*
X21503480Y-14493240I10000J0D01*
G01*
X21511100Y-14272260D02*
G75*
G02*
X21491100Y-14272260I-10000J0D01*
G01*
X21491100Y-14272260D02*
G75*
G02*
X21511100Y-14272260I10000J0D01*
G01*
X21591000Y-14433000D02*
G75*
G02*
X21571000Y-14433000I-10000J0D01*
G01*
X21571000Y-14433000D02*
G75*
G02*
X21591000Y-14433000I10000J0D01*
G01*
X21641000Y-13146000D02*
G75*
G02*
X21621000Y-13146000I-10000J0D01*
G01*
X21621000Y-13146000D02*
G75*
G02*
X21641000Y-13146000I10000J0D01*
G01*
X21676000Y-14163000D02*
G75*
G02*
X21656000Y-14163000I-10000J0D01*
G01*
X21656000Y-14163000D02*
G75*
G02*
X21676000Y-14163000I10000J0D01*
G01*
X21681280Y-14305280D02*
G75*
G02*
X21661280Y-14305280I-10000J0D01*
G01*
X21661280Y-14305280D02*
G75*
G02*
X21681280Y-14305280I10000J0D01*
G01*
X21692000Y-14359000D02*
G75*
G02*
X21672000Y-14359000I-10000J0D01*
G01*
X21672000Y-14359000D02*
G75*
G02*
X21692000Y-14359000I10000J0D01*
G01*
X21699000Y-13146000D02*
G75*
G02*
X21679000Y-13146000I-10000J0D01*
G01*
X21679000Y-13146000D02*
G75*
G02*
X21699000Y-13146000I10000J0D01*
G01*
X21747320Y-14361000D02*
G75*
G02*
X21727320Y-14361000I-10000J0D01*
G01*
X21727320Y-14361000D02*
G75*
G02*
X21747320Y-14361000I10000J0D01*
G01*
X21824060Y-14198060D02*
G75*
G02*
X21804060Y-14198060I-10000J0D01*
G01*
X21804060Y-14198060D02*
G75*
G02*
X21824060Y-14198060I10000J0D01*
G01*
X21829000Y-13064000D02*
G75*
G02*
X21809000Y-13064000I-10000J0D01*
G01*
X21809000Y-13064000D02*
G75*
G02*
X21829000Y-13064000I10000J0D01*
G01*
X21902260Y-14429740D02*
G75*
G02*
X21882260Y-14429740I-10000J0D01*
G01*
X21882260Y-14429740D02*
G75*
G02*
X21902260Y-14429740I10000J0D01*
G01*
X21920000Y-14087000D02*
G75*
G02*
X21900000Y-14087000I-10000J0D01*
G01*
X21900000Y-14087000D02*
G75*
G02*
X21920000Y-14087000I10000J0D01*
G01*
X21991000Y-14153000D02*
G75*
G02*
X21971000Y-14153000I-10000J0D01*
G01*
X21971000Y-14153000D02*
G75*
G02*
X21991000Y-14153000I10000J0D01*
G01*
X22031000Y-13137000D02*
G75*
G02*
X22011000Y-13137000I-10000J0D01*
G01*
X22011000Y-13137000D02*
G75*
G02*
X22031000Y-13137000I10000J0D01*
G01*
X22092000Y-13141000D02*
G75*
G02*
X22072000Y-13141000I-10000J0D01*
G01*
X22072000Y-13141000D02*
G75*
G02*
X22092000Y-13141000I10000J0D01*
G01*
X22126000Y-13999000D02*
G75*
G02*
X22106000Y-13999000I-10000J0D01*
G01*
X22106000Y-13999000D02*
G75*
G02*
X22126000Y-13999000I10000J0D01*
G01*
X22170000Y-14201000D02*
G75*
G02*
X22150000Y-14201000I-10000J0D01*
G01*
X22150000Y-14201000D02*
G75*
G02*
X22170000Y-14201000I10000J0D01*
G01*
X22171000Y-14386000D02*
G75*
G02*
X22151000Y-14386000I-10000J0D01*
G01*
X22151000Y-14386000D02*
G75*
G02*
X22171000Y-14386000I10000J0D01*
G01*
X22197250Y-13332000D02*
G75*
G02*
X22177250Y-13332000I-10000J0D01*
G01*
X22177250Y-13332000D02*
G75*
G02*
X22197250Y-13332000I10000J0D01*
G01*
X22201000Y-13481000D02*
G75*
G02*
X22181000Y-13481000I-10000J0D01*
G01*
X22181000Y-13481000D02*
G75*
G02*
X22201000Y-13481000I10000J0D01*
G01*
X22220000Y-13909000D02*
G75*
G02*
X22200000Y-13909000I-10000J0D01*
G01*
X22200000Y-13909000D02*
G75*
G02*
X22220000Y-13909000I10000J0D01*
G01*
X22259000Y-13352000D02*
G75*
G02*
X22239000Y-13352000I-10000J0D01*
G01*
X22239000Y-13352000D02*
G75*
G02*
X22259000Y-13352000I10000J0D01*
G01*
X22265000Y-14027000D02*
G75*
G02*
X22245000Y-14027000I-10000J0D01*
G01*
X22245000Y-14027000D02*
G75*
G02*
X22265000Y-14027000I10000J0D01*
G01*
X22299000Y-13476000D02*
G75*
G02*
X22279000Y-13476000I-10000J0D01*
G01*
X22279000Y-13476000D02*
G75*
G02*
X22299000Y-13476000I10000J0D01*
G01*
X22309000Y-14357000D02*
G75*
G02*
X22289000Y-14357000I-10000J0D01*
G01*
X22289000Y-14357000D02*
G75*
G02*
X22309000Y-14357000I10000J0D01*
G01*
X22311000Y-13684000D02*
G75*
G02*
X22291000Y-13684000I-10000J0D01*
G01*
X22291000Y-13684000D02*
G75*
G02*
X22311000Y-13684000I10000J0D01*
G01*
X22316000Y-13054000D02*
G75*
G02*
X22296000Y-13054000I-10000J0D01*
G01*
X22296000Y-13054000D02*
G75*
G02*
X22316000Y-13054000I10000J0D01*
G01*
X22318032Y-13915250D02*
G75*
G02*
X22298032Y-13915250I-10000J0D01*
G01*
X22298032Y-13915250D02*
G75*
G02*
X22318032Y-13915250I10000J0D01*
G01*
X22319000Y-14009000D02*
G75*
G02*
X22299000Y-14009000I-10000J0D01*
G01*
X22299000Y-14009000D02*
G75*
G02*
X22319000Y-14009000I10000J0D01*
G01*
X22330000Y-13350000D02*
G75*
G02*
X22310000Y-13350000I-10000J0D01*
G01*
X22310000Y-13350000D02*
G75*
G02*
X22330000Y-13350000I10000J0D01*
G01*
X22337000Y-13602000D02*
G75*
G02*
X22317000Y-13602000I-10000J0D01*
G01*
X22317000Y-13602000D02*
G75*
G02*
X22337000Y-13602000I10000J0D01*
G01*
X22350000Y-14407000D02*
G75*
G02*
X22330000Y-14407000I-10000J0D01*
G01*
X22330000Y-14407000D02*
G75*
G02*
X22350000Y-14407000I10000J0D01*
G01*
X22364000Y-13872000D02*
G75*
G02*
X22344000Y-13872000I-10000J0D01*
G01*
X22344000Y-13872000D02*
G75*
G02*
X22364000Y-13872000I10000J0D01*
G01*
X22366177Y-13955728D02*
G75*
G02*
X22346177Y-13955728I-10000J0D01*
G01*
X22346177Y-13955728D02*
G75*
G02*
X22366177Y-13955728I10000J0D01*
G01*
X22369000Y-13509000D02*
G75*
G02*
X22349000Y-13509000I-10000J0D01*
G01*
X22349000Y-13509000D02*
G75*
G02*
X22369000Y-13509000I10000J0D01*
G01*
X22382000Y-13687000D02*
G75*
G02*
X22362000Y-13687000I-10000J0D01*
G01*
X22362000Y-13687000D02*
G75*
G02*
X22382000Y-13687000I10000J0D01*
G01*
X22384000Y-14088000D02*
G75*
G02*
X22364000Y-14088000I-10000J0D01*
G01*
X22364000Y-14088000D02*
G75*
G02*
X22384000Y-14088000I10000J0D01*
G01*
X22390000Y-13341000D02*
G75*
G02*
X22370000Y-13341000I-10000J0D01*
G01*
X22370000Y-13341000D02*
G75*
G02*
X22390000Y-13341000I10000J0D01*
G01*
X22390000Y-14369000D02*
G75*
G02*
X22370000Y-14369000I-10000J0D01*
G01*
X22370000Y-14369000D02*
G75*
G02*
X22390000Y-14369000I10000J0D01*
G01*
X22394000Y-13586000D02*
G75*
G02*
X22374000Y-13586000I-10000J0D01*
G01*
X22374000Y-13586000D02*
G75*
G02*
X22394000Y-13586000I10000J0D01*
G01*
X22398000Y-14144000D02*
G75*
G02*
X22378000Y-14144000I-10000J0D01*
G01*
X22378000Y-14144000D02*
G75*
G02*
X22398000Y-14144000I10000J0D01*
G01*
X22412000Y-13384000D02*
G75*
G02*
X22392000Y-13384000I-10000J0D01*
G01*
X22392000Y-13384000D02*
G75*
G02*
X22412000Y-13384000I10000J0D01*
G01*
X22457000Y-13417000D02*
G75*
G02*
X22437000Y-13417000I-10000J0D01*
G01*
X22437000Y-13417000D02*
G75*
G02*
X22457000Y-13417000I10000J0D01*
G01*
X22471000Y-13618000D02*
G75*
G02*
X22451000Y-13618000I-10000J0D01*
G01*
X22451000Y-13618000D02*
G75*
G02*
X22471000Y-13618000I10000J0D01*
G01*
X22472000Y-14360000D02*
G75*
G02*
X22452000Y-14360000I-10000J0D01*
G01*
X22452000Y-14360000D02*
G75*
G02*
X22472000Y-14360000I10000J0D01*
G01*
X22495000Y-13365000D02*
G75*
G02*
X22475000Y-13365000I-10000J0D01*
G01*
X22475000Y-13365000D02*
G75*
G02*
X22495000Y-13365000I10000J0D01*
G01*
X22498000Y-14141000D02*
G75*
G02*
X22478000Y-14141000I-10000J0D01*
G01*
X22478000Y-14141000D02*
G75*
G02*
X22498000Y-14141000I10000J0D01*
G01*
X22510000Y-14308000D02*
G75*
G02*
X22490000Y-14308000I-10000J0D01*
G01*
X22490000Y-14308000D02*
G75*
G02*
X22510000Y-14308000I10000J0D01*
G01*
X22519000Y-13443000D02*
G75*
G02*
X22499000Y-13443000I-10000J0D01*
G01*
X22499000Y-13443000D02*
G75*
G02*
X22519000Y-13443000I10000J0D01*
G01*
X22533000Y-13576000D02*
G75*
G02*
X22513000Y-13576000I-10000J0D01*
G01*
X22513000Y-13576000D02*
G75*
G02*
X22533000Y-13576000I10000J0D01*
G01*
X22554000Y-13056000D02*
G75*
G02*
X22534000Y-13056000I-10000J0D01*
G01*
X22534000Y-13056000D02*
G75*
G02*
X22554000Y-13056000I10000J0D01*
G01*
X22583000Y-13443000D02*
G75*
G02*
X22563000Y-13443000I-10000J0D01*
G01*
X22563000Y-13443000D02*
G75*
G02*
X22583000Y-13443000I10000J0D01*
G01*
X22598000Y-13577000D02*
G75*
G02*
X22578000Y-13577000I-10000J0D01*
G01*
X22578000Y-13577000D02*
G75*
G02*
X22598000Y-13577000I10000J0D01*
G01*
X22610000Y-13363000D02*
G75*
G02*
X22590000Y-13363000I-10000J0D01*
G01*
X22590000Y-13363000D02*
G75*
G02*
X22610000Y-13363000I10000J0D01*
G01*
X22616000Y-13144500D02*
G75*
G02*
X22596000Y-13144500I-10000J0D01*
G01*
X22596000Y-13144500D02*
G75*
G02*
X22616000Y-13144500I10000J0D01*
G01*
X22616000Y-13271500D02*
G75*
G02*
X22596000Y-13271500I-10000J0D01*
G01*
X22596000Y-13271500D02*
G75*
G02*
X22616000Y-13271500I10000J0D01*
G01*
X22647000Y-13442000D02*
G75*
G02*
X22627000Y-13442000I-10000J0D01*
G01*
X22627000Y-13442000D02*
G75*
G02*
X22647000Y-13442000I10000J0D01*
G01*
X22681000Y-13622000D02*
G75*
G02*
X22661000Y-13622000I-10000J0D01*
G01*
X22661000Y-13622000D02*
G75*
G02*
X22681000Y-13622000I10000J0D01*
G01*
X22707000Y-13405000D02*
G75*
G02*
X22687000Y-13405000I-10000J0D01*
G01*
X22687000Y-13405000D02*
G75*
G02*
X22707000Y-13405000I10000J0D01*
G01*
X22710000Y-13087000D02*
G75*
G02*
X22690000Y-13087000I-10000J0D01*
G01*
X22690000Y-13087000D02*
G75*
G02*
X22710000Y-13087000I10000J0D01*
G01*
X22710000Y-13214000D02*
G75*
G02*
X22690000Y-13214000I-10000J0D01*
G01*
X22690000Y-13214000D02*
G75*
G02*
X22710000Y-13214000I10000J0D01*
G01*
X22711000Y-13839500D02*
G75*
G02*
X22691000Y-13839500I-10000J0D01*
G01*
X22691000Y-13839500D02*
G75*
G02*
X22711000Y-13839500I10000J0D01*
G01*
X22711000Y-13965667D02*
G75*
G02*
X22691000Y-13965667I-10000J0D01*
G01*
X22691000Y-13965667D02*
G75*
G02*
X22711000Y-13965667I10000J0D01*
G01*
X22711000Y-14091833D02*
G75*
G02*
X22691000Y-14091833I-10000J0D01*
G01*
X22691000Y-14091833D02*
G75*
G02*
X22711000Y-14091833I10000J0D01*
G01*
X22711000Y-14218000D02*
G75*
G02*
X22691000Y-14218000I-10000J0D01*
G01*
X22691000Y-14218000D02*
G75*
G02*
X22711000Y-14218000I10000J0D01*
G01*
X22711000Y-14344167D02*
G75*
G02*
X22691000Y-14344167I-10000J0D01*
G01*
X22691000Y-14344167D02*
G75*
G02*
X22711000Y-14344167I10000J0D01*
G01*
X22711000Y-14470333D02*
G75*
G02*
X22691000Y-14470333I-10000J0D01*
G01*
X22691000Y-14470333D02*
G75*
G02*
X22711000Y-14470333I10000J0D01*
G01*
X22718000Y-13336000D02*
G75*
G02*
X22698000Y-13336000I-10000J0D01*
G01*
X22698000Y-13336000D02*
G75*
G02*
X22718000Y-13336000I10000J0D01*
G01*
X22722000Y-13682000D02*
G75*
G02*
X22702000Y-13682000I-10000J0D01*
G01*
X22702000Y-13682000D02*
G75*
G02*
X22722000Y-13682000I10000J0D01*
G01*
X22794000Y-13349000D02*
G75*
G02*
X22774000Y-13349000I-10000J0D01*
G01*
X22774000Y-13349000D02*
G75*
G02*
X22794000Y-13349000I10000J0D01*
G01*
X22798000Y-13672000D02*
G75*
G02*
X22778000Y-13672000I-10000J0D01*
G01*
X22778000Y-13672000D02*
G75*
G02*
X22798000Y-13672000I10000J0D01*
G01*
X22806500Y-12890500D02*
G75*
G02*
X22786500Y-12890500I-10000J0D01*
G01*
X22786500Y-12890500D02*
G75*
G02*
X22806500Y-12890500I10000J0D01*
G01*
X22806500Y-13017500D02*
G75*
G02*
X22786500Y-13017500I-10000J0D01*
G01*
X22786500Y-13017500D02*
G75*
G02*
X22806500Y-13017500I10000J0D01*
G01*
X22806500Y-13144500D02*
G75*
G02*
X22786500Y-13144500I-10000J0D01*
G01*
X22786500Y-13144500D02*
G75*
G02*
X22806500Y-13144500I10000J0D01*
G01*
X22806500Y-13271500D02*
G75*
G02*
X22786500Y-13271500I-10000J0D01*
G01*
X22786500Y-13271500D02*
G75*
G02*
X22806500Y-13271500I10000J0D01*
G01*
X22808000Y-13903500D02*
G75*
G02*
X22788000Y-13903500I-10000J0D01*
G01*
X22788000Y-13903500D02*
G75*
G02*
X22808000Y-13903500I10000J0D01*
G01*
X22808000Y-14029667D02*
G75*
G02*
X22788000Y-14029667I-10000J0D01*
G01*
X22788000Y-14029667D02*
G75*
G02*
X22808000Y-14029667I10000J0D01*
G01*
X22808000Y-14155833D02*
G75*
G02*
X22788000Y-14155833I-10000J0D01*
G01*
X22788000Y-14155833D02*
G75*
G02*
X22808000Y-14155833I10000J0D01*
G01*
X22808000Y-14282000D02*
G75*
G02*
X22788000Y-14282000I-10000J0D01*
G01*
X22788000Y-14282000D02*
G75*
G02*
X22808000Y-14282000I10000J0D01*
G01*
X22808000Y-14408167D02*
G75*
G02*
X22788000Y-14408167I-10000J0D01*
G01*
X22788000Y-14408167D02*
G75*
G02*
X22808000Y-14408167I10000J0D01*
G01*
X22808000Y-14534333D02*
G75*
G02*
X22788000Y-14534333I-10000J0D01*
G01*
X22788000Y-14534333D02*
G75*
G02*
X22808000Y-14534333I10000J0D01*
G01*
X22808000Y-14660500D02*
G75*
G02*
X22788000Y-14660500I-10000J0D01*
G01*
X22788000Y-14660500D02*
G75*
G02*
X22808000Y-14660500I10000J0D01*
G01*
X22809000Y-13783000D02*
G75*
G02*
X22789000Y-13783000I-10000J0D01*
G01*
X22789000Y-13783000D02*
G75*
G02*
X22809000Y-13783000I10000J0D01*
G01*
X22882000Y-13648000D02*
G75*
G02*
X22862000Y-13648000I-10000J0D01*
G01*
X22862000Y-13648000D02*
G75*
G02*
X22882000Y-13648000I10000J0D01*
G01*
X22883000Y-13372000D02*
G75*
G02*
X22863000Y-13372000I-10000J0D01*
G01*
X22863000Y-13372000D02*
G75*
G02*
X22883000Y-13372000I10000J0D01*
G01*
X22904000Y-12962000D02*
G75*
G02*
X22884000Y-12962000I-10000J0D01*
G01*
X22884000Y-12962000D02*
G75*
G02*
X22904000Y-12962000I10000J0D01*
G01*
X22904000Y-13089000D02*
G75*
G02*
X22884000Y-13089000I-10000J0D01*
G01*
X22884000Y-13089000D02*
G75*
G02*
X22904000Y-13089000I10000J0D01*
G01*
X22909000Y-13837333D02*
G75*
G02*
X22889000Y-13837333I-10000J0D01*
G01*
X22889000Y-13837333D02*
G75*
G02*
X22909000Y-13837333I10000J0D01*
G01*
X22909000Y-13963500D02*
G75*
G02*
X22889000Y-13963500I-10000J0D01*
G01*
X22889000Y-13963500D02*
G75*
G02*
X22909000Y-13963500I10000J0D01*
G01*
X22909000Y-14089666D02*
G75*
G02*
X22889000Y-14089666I-10000J0D01*
G01*
X22889000Y-14089666D02*
G75*
G02*
X22909000Y-14089666I10000J0D01*
G01*
X22909000Y-14215833D02*
G75*
G02*
X22889000Y-14215833I-10000J0D01*
G01*
X22889000Y-14215833D02*
G75*
G02*
X22909000Y-14215833I10000J0D01*
G01*
X22909000Y-14342000D02*
G75*
G02*
X22889000Y-14342000I-10000J0D01*
G01*
X22889000Y-14342000D02*
G75*
G02*
X22909000Y-14342000I10000J0D01*
G01*
X22909000Y-14468166D02*
G75*
G02*
X22889000Y-14468166I-10000J0D01*
G01*
X22889000Y-14468166D02*
G75*
G02*
X22909000Y-14468166I10000J0D01*
G01*
X22909000Y-14594333D02*
G75*
G02*
X22889000Y-14594333I-10000J0D01*
G01*
X22889000Y-14594333D02*
G75*
G02*
X22909000Y-14594333I10000J0D01*
G01*
X22917000Y-13213000D02*
G75*
G02*
X22897000Y-13213000I-10000J0D01*
G01*
X22897000Y-13213000D02*
G75*
G02*
X22917000Y-13213000I10000J0D01*
G01*
X22966000Y-13674000D02*
G75*
G02*
X22946000Y-13674000I-10000J0D01*
G01*
X22946000Y-13674000D02*
G75*
G02*
X22966000Y-13674000I10000J0D01*
G01*
X22968000Y-13349000D02*
G75*
G02*
X22948000Y-13349000I-10000J0D01*
G01*
X22948000Y-13349000D02*
G75*
G02*
X22968000Y-13349000I10000J0D01*
G01*
X23011000Y-13903000D02*
G75*
G02*
X22991000Y-13903000I-10000J0D01*
G01*
X22991000Y-13903000D02*
G75*
G02*
X23011000Y-13903000I10000J0D01*
G01*
X23011000Y-14029167D02*
G75*
G02*
X22991000Y-14029167I-10000J0D01*
G01*
X22991000Y-14029167D02*
G75*
G02*
X23011000Y-14029167I10000J0D01*
G01*
X23011000Y-14155333D02*
G75*
G02*
X22991000Y-14155333I-10000J0D01*
G01*
X22991000Y-14155333D02*
G75*
G02*
X23011000Y-14155333I10000J0D01*
G01*
X23011000Y-14281500D02*
G75*
G02*
X22991000Y-14281500I-10000J0D01*
G01*
X22991000Y-14281500D02*
G75*
G02*
X23011000Y-14281500I10000J0D01*
G01*
X23011000Y-14407666D02*
G75*
G02*
X22991000Y-14407666I-10000J0D01*
G01*
X22991000Y-14407666D02*
G75*
G02*
X23011000Y-14407666I10000J0D01*
G01*
X23011000Y-14533833D02*
G75*
G02*
X22991000Y-14533833I-10000J0D01*
G01*
X22991000Y-14533833D02*
G75*
G02*
X23011000Y-14533833I10000J0D01*
G01*
X23011000Y-14660000D02*
G75*
G02*
X22991000Y-14660000I-10000J0D01*
G01*
X22991000Y-14660000D02*
G75*
G02*
X23011000Y-14660000I10000J0D01*
G01*
X23014000Y-13786000D02*
G75*
G02*
X22994000Y-13786000I-10000J0D01*
G01*
X22994000Y-13786000D02*
G75*
G02*
X23014000Y-13786000I10000J0D01*
G01*
X23044000Y-13683000D02*
G75*
G02*
X23024000Y-13683000I-10000J0D01*
G01*
X23024000Y-13683000D02*
G75*
G02*
X23044000Y-13683000I10000J0D01*
G01*
X23052000Y-13335000D02*
G75*
G02*
X23032000Y-13335000I-10000J0D01*
G01*
X23032000Y-13335000D02*
G75*
G02*
X23052000Y-13335000I10000J0D01*
G01*
X23054000Y-13407000D02*
G75*
G02*
X23034000Y-13407000I-10000J0D01*
G01*
X23034000Y-13407000D02*
G75*
G02*
X23054000Y-13407000I10000J0D01*
G01*
X23087000Y-13637000D02*
G75*
G02*
X23067000Y-13637000I-10000J0D01*
G01*
X23067000Y-13637000D02*
G75*
G02*
X23087000Y-13637000I10000J0D01*
G01*
X23095000Y-13740000D02*
G75*
G02*
X23075000Y-13740000I-10000J0D01*
G01*
X23075000Y-13740000D02*
G75*
G02*
X23095000Y-13740000I10000J0D01*
G01*
X23098000Y-13850000D02*
G75*
G02*
X23078000Y-13850000I-10000J0D01*
G01*
X23078000Y-13850000D02*
G75*
G02*
X23098000Y-13850000I10000J0D01*
G01*
X23098000Y-13976167D02*
G75*
G02*
X23078000Y-13976167I-10000J0D01*
G01*
X23078000Y-13976167D02*
G75*
G02*
X23098000Y-13976167I10000J0D01*
G01*
X23098000Y-14102333D02*
G75*
G02*
X23078000Y-14102333I-10000J0D01*
G01*
X23078000Y-14102333D02*
G75*
G02*
X23098000Y-14102333I10000J0D01*
G01*
X23098000Y-14228500D02*
G75*
G02*
X23078000Y-14228500I-10000J0D01*
G01*
X23078000Y-14228500D02*
G75*
G02*
X23098000Y-14228500I10000J0D01*
G01*
X23098000Y-14354666D02*
G75*
G02*
X23078000Y-14354666I-10000J0D01*
G01*
X23078000Y-14354666D02*
G75*
G02*
X23098000Y-14354666I10000J0D01*
G01*
X23098000Y-14480833D02*
G75*
G02*
X23078000Y-14480833I-10000J0D01*
G01*
X23078000Y-14480833D02*
G75*
G02*
X23098000Y-14480833I10000J0D01*
G01*
X23098000Y-14607000D02*
G75*
G02*
X23078000Y-14607000I-10000J0D01*
G01*
X23078000Y-14607000D02*
G75*
G02*
X23098000Y-14607000I10000J0D01*
G01*
X23108000Y-13443000D02*
G75*
G02*
X23088000Y-13443000I-10000J0D01*
G01*
X23088000Y-13443000D02*
G75*
G02*
X23108000Y-13443000I10000J0D01*
G01*
X20271480Y-14291000D02*
X20271480Y-14311000D01*
X20261480Y-14301000D02*
X20281480Y-14301000D01*
X20271480Y-14391000D02*
X20271480Y-14411000D01*
X20261480Y-14401000D02*
X20281480Y-14401000D01*
X19979607Y-13564607D02*
X19979607Y-13543393D01*
X19958393Y-13543393D01*
X19958393Y-13564607D01*
X19979607Y-13564607D01*
X20011886Y-13123306D02*
X20011886Y-13102093D01*
X19990673Y-13102093D01*
X19990673Y-13123306D01*
X20011886Y-13123306D01*
X20013607Y-13204607D02*
X20013607Y-13183393D01*
X19992393Y-13183393D01*
X19992393Y-13204607D01*
X20013607Y-13204607D01*
X20039607Y-13835607D02*
X20039607Y-13814393D01*
X20018393Y-13814393D01*
X20018393Y-13835607D01*
X20039607Y-13835607D01*
X20072607Y-13576607D02*
X20072607Y-13555393D01*
X20051393Y-13555393D01*
X20051393Y-13576607D01*
X20072607Y-13576607D01*
X20119987Y-13782687D02*
X20119987Y-13761474D01*
X20098774Y-13761474D01*
X20098774Y-13782687D01*
X20119987Y-13782687D01*
X20218847Y-14023787D02*
X20218847Y-14002573D01*
X20197633Y-14002573D01*
X20197633Y-14023787D01*
X20218847Y-14023787D01*
X20496607Y-14021607D02*
X20496607Y-14000393D01*
X20475393Y-14000393D01*
X20475393Y-14021607D01*
X20496607Y-14021607D01*
X20500787Y-14115607D02*
X20500787Y-14094393D01*
X20479573Y-14094393D01*
X20479573Y-14115607D01*
X20500787Y-14115607D01*
X20500787Y-14191427D02*
X20500787Y-14170213D01*
X20479573Y-14170213D01*
X20479573Y-14191427D01*
X20500787Y-14191427D01*
X21004821Y-13666916D02*
X21004821Y-13645702D01*
X20983607Y-13645702D01*
X20983607Y-13666916D01*
X21004821Y-13666916D01*
X21561607Y-13461507D02*
X21561607Y-13440293D01*
X21540393Y-13440293D01*
X21540393Y-13461507D01*
X21561607Y-13461507D01*
X21561607Y-13621527D02*
X21561607Y-13600313D01*
X21540393Y-13600313D01*
X21540393Y-13621527D01*
X21561607Y-13621527D01*
X21561607Y-13784087D02*
X21561607Y-13762873D01*
X21540393Y-13762873D01*
X21540393Y-13784087D01*
X21561607Y-13784087D01*
X21721607Y-13461507D02*
X21721607Y-13440293D01*
X21700393Y-13440293D01*
X21700393Y-13461507D01*
X21721607Y-13461507D01*
X21721607Y-13621527D02*
X21721607Y-13600313D01*
X21700393Y-13600313D01*
X21700393Y-13621527D01*
X21721607Y-13621527D01*
X21721607Y-13784087D02*
X21721607Y-13762873D01*
X21700393Y-13762873D01*
X21700393Y-13784087D01*
X21721607Y-13784087D01*
X21881607Y-13461507D02*
X21881607Y-13440293D01*
X21860393Y-13440293D01*
X21860393Y-13461507D01*
X21881607Y-13461507D01*
X21881607Y-13621527D02*
X21881607Y-13600313D01*
X21860393Y-13600313D01*
X21860393Y-13621527D01*
X21881607Y-13621527D01*
X21881607Y-13784087D02*
X21881607Y-13762873D01*
X21860393Y-13762873D01*
X21860393Y-13784087D01*
X21881607Y-13784087D01*
X19430500Y-12946000D02*
X19460500Y-12916000D01*
X19430500Y-12886000D01*
X19400500Y-12916000D01*
X19430500Y-12946000D01*
X19495500Y-12886000D02*
X19365500Y-12886000D01*
X19365500Y-12946000D02*
G75*
G02*
X19365500Y-12886000I0J30000D01*
G01*
X19365500Y-12946000D02*
X19495500Y-12946000D01*
X19495500Y-12946000D02*
G75*
G03*
X19495500Y-12886000I0J30000D01*
G01*
X19430500Y-13810000D02*
X19460500Y-13780000D01*
X19430500Y-13750000D01*
X19400500Y-13780000D01*
X19430500Y-13810000D01*
X19495500Y-13750000D02*
X19365500Y-13750000D01*
X19365500Y-13810000D02*
G75*
G02*
X19365500Y-13750000I0J30000D01*
G01*
X19365500Y-13810000D02*
X19495500Y-13810000D01*
X19495500Y-13810000D02*
G75*
G03*
X19495500Y-13750000I0J30000D01*
G01*
X19813000Y-12946000D02*
X19843000Y-12916000D01*
X19813000Y-12886000D01*
X19783000Y-12916000D01*
X19813000Y-12946000D01*
X19863000Y-12886000D02*
X19763000Y-12886000D01*
X19763000Y-12946000D02*
G75*
G02*
X19763000Y-12886000I0J30000D01*
G01*
X19763000Y-12946000D02*
X19863000Y-12946000D01*
X19863000Y-12946000D02*
G75*
G03*
X19863000Y-12886000I0J30000D01*
G01*
X19813000Y-13810000D02*
X19843000Y-13780000D01*
X19813000Y-13750000D01*
X19783000Y-13780000D01*
X19813000Y-13810000D01*
X19863000Y-13750000D02*
X19763000Y-13750000D01*
X19763000Y-13810000D02*
G75*
G02*
X19763000Y-13750000I0J30000D01*
G01*
X19763000Y-13810000D02*
X19863000Y-13810000D01*
X19863000Y-13810000D02*
G75*
G03*
X19863000Y-13750000I0J30000D01*
G01*
X20795500Y-12856900D02*
X20860500Y-12921900D01*
X20860500Y-12856900D02*
X20795500Y-12921900D01*
X20860500Y-12889400D02*
G75*
G02*
X20795500Y-12889400I-32500J0D01*
G01*
X20795500Y-12889400D02*
G75*
G02*
X20860500Y-12889400I32500J0D01*
G01*
X20795500Y-14634000D02*
X20860500Y-14699000D01*
X20860500Y-14634000D02*
X20795500Y-14699000D01*
X20860500Y-14666500D02*
G75*
G02*
X20795500Y-14666500I-32500J0D01*
G01*
X20795500Y-14666500D02*
G75*
G02*
X20860500Y-14666500I32500J0D01*
G01*
X20922500Y-12856900D02*
X20987500Y-12921900D01*
X20987500Y-12856900D02*
X20922500Y-12921900D01*
X20987500Y-12889400D02*
G75*
G02*
X20922500Y-12889400I-32500J0D01*
G01*
X20922500Y-12889400D02*
G75*
G02*
X20987500Y-12889400I32500J0D01*
G01*
X20922500Y-14634000D02*
X20987500Y-14699000D01*
X20987500Y-14634000D02*
X20922500Y-14699000D01*
X20987500Y-14666500D02*
G75*
G02*
X20922500Y-14666500I-32500J0D01*
G01*
X20922500Y-14666500D02*
G75*
G02*
X20987500Y-14666500I32500J0D01*
G01*
X21049500Y-12856900D02*
X21114500Y-12921900D01*
X21114500Y-12856900D02*
X21049500Y-12921900D01*
X21114500Y-12889400D02*
G75*
G02*
X21049500Y-12889400I-32500J0D01*
G01*
X21049500Y-12889400D02*
G75*
G02*
X21114500Y-12889400I32500J0D01*
G01*
X21049500Y-14634000D02*
X21114500Y-14699000D01*
X21114500Y-14634000D02*
X21049500Y-14699000D01*
X21114500Y-14666500D02*
G75*
G02*
X21049500Y-14666500I-32500J0D01*
G01*
X21049500Y-14666500D02*
G75*
G02*
X21114500Y-14666500I32500J0D01*
G01*
X21176500Y-12856900D02*
X21241500Y-12921900D01*
X21241500Y-12856900D02*
X21176500Y-12921900D01*
X21241500Y-12889400D02*
G75*
G02*
X21176500Y-12889400I-32500J0D01*
G01*
X21176500Y-12889400D02*
G75*
G02*
X21241500Y-12889400I32500J0D01*
G01*
X21176500Y-14634000D02*
X21241500Y-14699000D01*
X21241500Y-14634000D02*
X21176500Y-14699000D01*
X21241500Y-14666500D02*
G75*
G02*
X21176500Y-14666500I-32500J0D01*
G01*
X21176500Y-14666500D02*
G75*
G02*
X21241500Y-14666500I32500J0D01*
G01*
X21303500Y-12856900D02*
X21368500Y-12921900D01*
X21368500Y-12856900D02*
X21303500Y-12921900D01*
X21368500Y-12889400D02*
G75*
G02*
X21303500Y-12889400I-32500J0D01*
G01*
X21303500Y-12889400D02*
G75*
G02*
X21368500Y-12889400I32500J0D01*
G01*
X21303500Y-14634000D02*
X21368500Y-14699000D01*
X21368500Y-14634000D02*
X21303500Y-14699000D01*
X21368500Y-14666500D02*
G75*
G02*
X21303500Y-14666500I-32500J0D01*
G01*
X21303500Y-14666500D02*
G75*
G02*
X21368500Y-14666500I32500J0D01*
G01*
X21430500Y-12856900D02*
X21495500Y-12921900D01*
X21495500Y-12856900D02*
X21430500Y-12921900D01*
X21495500Y-12889400D02*
G75*
G02*
X21430500Y-12889400I-32500J0D01*
G01*
X21430500Y-12889400D02*
G75*
G02*
X21495500Y-12889400I32500J0D01*
G01*
X21430500Y-14634000D02*
X21495500Y-14699000D01*
X21495500Y-14634000D02*
X21430500Y-14699000D01*
X21495500Y-14666500D02*
G75*
G02*
X21430500Y-14666500I-32500J0D01*
G01*
X21430500Y-14666500D02*
G75*
G02*
X21495500Y-14666500I32500J0D01*
G01*
X21557500Y-12856900D02*
X21622500Y-12921900D01*
X21622500Y-12856900D02*
X21557500Y-12921900D01*
X21622500Y-12889400D02*
G75*
G02*
X21557500Y-12889400I-32500J0D01*
G01*
X21557500Y-12889400D02*
G75*
G02*
X21622500Y-12889400I32500J0D01*
G01*
X21557500Y-14634000D02*
X21622500Y-14699000D01*
X21622500Y-14634000D02*
X21557500Y-14699000D01*
X21622500Y-14666500D02*
G75*
G02*
X21557500Y-14666500I-32500J0D01*
G01*
X21557500Y-14666500D02*
G75*
G02*
X21622500Y-14666500I32500J0D01*
G01*
X21684500Y-12856900D02*
X21749500Y-12921900D01*
X21749500Y-12856900D02*
X21684500Y-12921900D01*
X21749500Y-12889400D02*
G75*
G02*
X21684500Y-12889400I-32500J0D01*
G01*
X21684500Y-12889400D02*
G75*
G02*
X21749500Y-12889400I32500J0D01*
G01*
X21684500Y-14634000D02*
X21749500Y-14699000D01*
X21749500Y-14634000D02*
X21684500Y-14699000D01*
X21749500Y-14666500D02*
G75*
G02*
X21684500Y-14666500I-32500J0D01*
G01*
X21684500Y-14666500D02*
G75*
G02*
X21749500Y-14666500I32500J0D01*
G01*
X21811500Y-12856900D02*
X21876500Y-12921900D01*
X21876500Y-12856900D02*
X21811500Y-12921900D01*
X21876500Y-12889400D02*
G75*
G02*
X21811500Y-12889400I-32500J0D01*
G01*
X21811500Y-12889400D02*
G75*
G02*
X21876500Y-12889400I32500J0D01*
G01*
X21811500Y-14634000D02*
X21876500Y-14699000D01*
X21876500Y-14634000D02*
X21811500Y-14699000D01*
X21876500Y-14666500D02*
G75*
G02*
X21811500Y-14666500I-32500J0D01*
G01*
X21811500Y-14666500D02*
G75*
G02*
X21876500Y-14666500I32500J0D01*
G01*
X21938500Y-12856900D02*
X22003500Y-12921900D01*
X22003500Y-12856900D02*
X21938500Y-12921900D01*
X22003500Y-12889400D02*
G75*
G02*
X21938500Y-12889400I-32500J0D01*
G01*
X21938500Y-12889400D02*
G75*
G02*
X22003500Y-12889400I32500J0D01*
G01*
X21938500Y-14634000D02*
X22003500Y-14699000D01*
X22003500Y-14634000D02*
X21938500Y-14699000D01*
X22003500Y-14666500D02*
G75*
G02*
X21938500Y-14666500I-32500J0D01*
G01*
X21938500Y-14666500D02*
G75*
G02*
X22003500Y-14666500I32500J0D01*
G01*
X22065500Y-12856900D02*
X22130500Y-12921900D01*
X22130500Y-12856900D02*
X22065500Y-12921900D01*
X22130500Y-12889400D02*
G75*
G02*
X22065500Y-12889400I-32500J0D01*
G01*
X22065500Y-12889400D02*
G75*
G02*
X22130500Y-12889400I32500J0D01*
G01*
X22065500Y-14634000D02*
X22130500Y-14699000D01*
X22130500Y-14634000D02*
X22065500Y-14699000D01*
X22130500Y-14666500D02*
G75*
G02*
X22065500Y-14666500I-32500J0D01*
G01*
X22065500Y-14666500D02*
G75*
G02*
X22130500Y-14666500I32500J0D01*
G01*
X22192500Y-12856900D02*
X22257500Y-12921900D01*
X22257500Y-12856900D02*
X22192500Y-12921900D01*
X22257500Y-12889400D02*
G75*
G02*
X22192500Y-12889400I-32500J0D01*
G01*
X22192500Y-12889400D02*
G75*
G02*
X22257500Y-12889400I32500J0D01*
G01*
X22192500Y-14634000D02*
X22257500Y-14699000D01*
X22257500Y-14634000D02*
X22192500Y-14699000D01*
X22257500Y-14666500D02*
G75*
G02*
X22192500Y-14666500I-32500J0D01*
G01*
X22192500Y-14666500D02*
G75*
G02*
X22257500Y-14666500I32500J0D01*
G01*
X22319500Y-12856900D02*
X22384500Y-12921900D01*
X22384500Y-12856900D02*
X22319500Y-12921900D01*
X22384500Y-12889400D02*
G75*
G02*
X22319500Y-12889400I-32500J0D01*
G01*
X22319500Y-12889400D02*
G75*
G02*
X22384500Y-12889400I32500J0D01*
G01*
X22319500Y-14634000D02*
X22384500Y-14699000D01*
X22384500Y-14634000D02*
X22319500Y-14699000D01*
X22384500Y-14666500D02*
G75*
G02*
X22319500Y-14666500I-32500J0D01*
G01*
X22319500Y-14666500D02*
G75*
G02*
X22384500Y-14666500I32500J0D01*
G01*
X22446500Y-12856900D02*
X22511500Y-12921900D01*
X22511500Y-12856900D02*
X22446500Y-12921900D01*
X22511500Y-12889400D02*
G75*
G02*
X22446500Y-12889400I-32500J0D01*
G01*
X22446500Y-12889400D02*
G75*
G02*
X22511500Y-12889400I32500J0D01*
G01*
X22446500Y-14634000D02*
X22511500Y-14699000D01*
X22511500Y-14634000D02*
X22446500Y-14699000D01*
X22511500Y-14666500D02*
G75*
G02*
X22446500Y-14666500I-32500J0D01*
G01*
X22446500Y-14666500D02*
G75*
G02*
X22511500Y-14666500I32500J0D01*
G01*
X22573500Y-12856900D02*
X22638500Y-12921900D01*
X22638500Y-12856900D02*
X22573500Y-12921900D01*
X22638500Y-12889400D02*
G75*
G02*
X22573500Y-12889400I-32500J0D01*
G01*
X22573500Y-12889400D02*
G75*
G02*
X22638500Y-12889400I32500J0D01*
G01*
X22573500Y-14634000D02*
X22638500Y-14699000D01*
X22638500Y-14634000D02*
X22573500Y-14699000D01*
X22638500Y-14666500D02*
G75*
G02*
X22573500Y-14666500I-32500J0D01*
G01*
X22573500Y-14666500D02*
G75*
G02*
X22638500Y-14666500I32500J0D01*
G01*
X19690680Y-14113500D02*
X19765680Y-14188500D01*
X19765680Y-14113500D02*
X19690680Y-14188500D01*
X19728180Y-14113500D02*
X19728180Y-14188500D01*
X19690680Y-14151000D02*
X19765680Y-14151000D01*
X19690680Y-14313500D02*
X19765680Y-14388500D01*
X19765680Y-14313500D02*
X19690680Y-14388500D01*
X19728180Y-14313500D02*
X19728180Y-14388500D01*
X19690680Y-14351000D02*
X19765680Y-14351000D01*
X19690680Y-14513500D02*
X19765680Y-14588500D01*
X19765680Y-14513500D02*
X19690680Y-14588500D01*
X19728180Y-14513500D02*
X19728180Y-14588500D01*
X19690680Y-14551000D02*
X19765680Y-14551000D01*
D11*
X19394677Y-15073884D02*
X19394677Y-14873884D01*
X19394677Y-14873884D02*
X19442296Y-14873884D01*
X19442296Y-14873884D02*
X19470867Y-14883408D01*
X19470867Y-14883408D02*
X19489915Y-14902455D01*
X19489915Y-14902455D02*
X19499439Y-14921503D01*
X19499439Y-14921503D02*
X19508963Y-14959598D01*
X19508963Y-14959598D02*
X19508963Y-14988169D01*
X19508963Y-14988169D02*
X19499439Y-15026265D01*
X19499439Y-15026265D02*
X19489915Y-15045312D01*
X19489915Y-15045312D02*
X19470867Y-15064360D01*
X19470867Y-15064360D02*
X19442296Y-15073884D01*
X19442296Y-15073884D02*
X19394677Y-15073884D01*
X19594677Y-15073884D02*
X19594677Y-14940550D01*
X19594677Y-14978646D02*
X19604201Y-14959598D01*
X19604201Y-14959598D02*
X19613724Y-14950074D01*
X19613724Y-14950074D02*
X19632772Y-14940550D01*
X19632772Y-14940550D02*
X19651820Y-14940550D01*
X19718486Y-15073884D02*
X19718486Y-14940550D01*
X19718486Y-14873884D02*
X19708963Y-14883408D01*
X19708963Y-14883408D02*
X19718486Y-14892931D01*
X19718486Y-14892931D02*
X19728010Y-14883408D01*
X19728010Y-14883408D02*
X19718486Y-14873884D01*
X19718486Y-14873884D02*
X19718486Y-14892931D01*
X19842296Y-15073884D02*
X19823248Y-15064360D01*
X19823248Y-15064360D02*
X19813724Y-15045312D01*
X19813724Y-15045312D02*
X19813724Y-14873884D01*
X19947058Y-15073884D02*
X19928010Y-15064360D01*
X19928010Y-15064360D02*
X19918486Y-15045312D01*
X19918486Y-15045312D02*
X19918486Y-14873884D01*
X20175629Y-15073884D02*
X20175629Y-14873884D01*
X20175629Y-14873884D02*
X20242296Y-15016741D01*
X20242296Y-15016741D02*
X20308963Y-14873884D01*
X20308963Y-14873884D02*
X20308963Y-15073884D01*
X20489915Y-15073884D02*
X20489915Y-14969122D01*
X20489915Y-14969122D02*
X20480391Y-14950074D01*
X20480391Y-14950074D02*
X20461344Y-14940550D01*
X20461344Y-14940550D02*
X20423248Y-14940550D01*
X20423248Y-14940550D02*
X20404201Y-14950074D01*
X20489915Y-15064360D02*
X20470867Y-15073884D01*
X20470867Y-15073884D02*
X20423248Y-15073884D01*
X20423248Y-15073884D02*
X20404201Y-15064360D01*
X20404201Y-15064360D02*
X20394677Y-15045312D01*
X20394677Y-15045312D02*
X20394677Y-15026265D01*
X20394677Y-15026265D02*
X20404201Y-15007217D01*
X20404201Y-15007217D02*
X20423248Y-14997693D01*
X20423248Y-14997693D02*
X20470867Y-14997693D01*
X20470867Y-14997693D02*
X20489915Y-14988169D01*
X20585153Y-14940550D02*
X20585153Y-15140550D01*
X20585153Y-14950074D02*
X20604201Y-14940550D01*
X20604201Y-14940550D02*
X20642296Y-14940550D01*
X20642296Y-14940550D02*
X20661344Y-14950074D01*
X20661344Y-14950074D02*
X20670867Y-14959598D01*
X20670867Y-14959598D02*
X20680391Y-14978646D01*
X20680391Y-14978646D02*
X20680391Y-15035788D01*
X20680391Y-15035788D02*
X20670867Y-15054836D01*
X20670867Y-15054836D02*
X20661344Y-15064360D01*
X20661344Y-15064360D02*
X20642296Y-15073884D01*
X20642296Y-15073884D02*
X20604201Y-15073884D01*
X20604201Y-15073884D02*
X20585153Y-15064360D01*
X20766105Y-15054836D02*
X20775629Y-15064360D01*
X20775629Y-15064360D02*
X20766105Y-15073884D01*
X20766105Y-15073884D02*
X20756582Y-15064360D01*
X20756582Y-15064360D02*
X20766105Y-15054836D01*
X20766105Y-15054836D02*
X20766105Y-15073884D01*
X20766105Y-14950074D02*
X20775629Y-14959598D01*
X20775629Y-14959598D02*
X20766105Y-14969122D01*
X20766105Y-14969122D02*
X20756582Y-14959598D01*
X20756582Y-14959598D02*
X20766105Y-14950074D01*
X20766105Y-14950074D02*
X20766105Y-14969122D01*
D10*
X19118900Y-15394900D02*
X19133900Y-15409900D01*
X19133900Y-15394900D02*
X19118900Y-15409900D01*
D11*
X19432772Y-15293884D02*
X19451820Y-15293884D01*
X19451820Y-15293884D02*
X19470867Y-15303408D01*
X19470867Y-15303408D02*
X19480391Y-15312931D01*
X19480391Y-15312931D02*
X19489915Y-15331979D01*
X19489915Y-15331979D02*
X19499439Y-15370074D01*
X19499439Y-15370074D02*
X19499439Y-15417693D01*
X19499439Y-15417693D02*
X19489915Y-15455788D01*
X19489915Y-15455788D02*
X19480391Y-15474836D01*
X19480391Y-15474836D02*
X19470867Y-15484360D01*
X19470867Y-15484360D02*
X19451820Y-15493884D01*
X19451820Y-15493884D02*
X19432772Y-15493884D01*
X19432772Y-15493884D02*
X19413724Y-15484360D01*
X19413724Y-15484360D02*
X19404201Y-15474836D01*
X19404201Y-15474836D02*
X19394677Y-15455788D01*
X19394677Y-15455788D02*
X19385153Y-15417693D01*
X19385153Y-15417693D02*
X19385153Y-15370074D01*
X19385153Y-15370074D02*
X19394677Y-15331979D01*
X19394677Y-15331979D02*
X19404201Y-15312931D01*
X19404201Y-15312931D02*
X19413724Y-15303408D01*
X19413724Y-15303408D02*
X19432772Y-15293884D01*
X19585153Y-15474836D02*
X19594677Y-15484360D01*
X19594677Y-15484360D02*
X19585153Y-15493884D01*
X19585153Y-15493884D02*
X19575629Y-15484360D01*
X19575629Y-15484360D02*
X19585153Y-15474836D01*
X19585153Y-15474836D02*
X19585153Y-15493884D01*
X19785153Y-15493884D02*
X19670867Y-15493884D01*
X19728010Y-15493884D02*
X19728010Y-15293884D01*
X19728010Y-15293884D02*
X19708963Y-15322455D01*
X19708963Y-15322455D02*
X19689915Y-15341503D01*
X19689915Y-15341503D02*
X19670867Y-15351027D01*
X19966105Y-15293884D02*
X19870867Y-15293884D01*
X19870867Y-15293884D02*
X19861344Y-15389122D01*
X19861344Y-15389122D02*
X19870867Y-15379598D01*
X19870867Y-15379598D02*
X19889915Y-15370074D01*
X19889915Y-15370074D02*
X19937534Y-15370074D01*
X19937534Y-15370074D02*
X19956582Y-15379598D01*
X19956582Y-15379598D02*
X19966105Y-15389122D01*
X19966105Y-15389122D02*
X19975629Y-15408169D01*
X19975629Y-15408169D02*
X19975629Y-15455788D01*
X19975629Y-15455788D02*
X19966105Y-15474836D01*
X19966105Y-15474836D02*
X19956582Y-15484360D01*
X19956582Y-15484360D02*
X19937534Y-15493884D01*
X19937534Y-15493884D02*
X19889915Y-15493884D01*
X19889915Y-15493884D02*
X19870867Y-15484360D01*
X19870867Y-15484360D02*
X19861344Y-15474836D01*
X20099439Y-15293884D02*
X20118486Y-15293884D01*
X20118486Y-15293884D02*
X20137534Y-15303408D01*
X20137534Y-15303408D02*
X20147058Y-15312931D01*
X20147058Y-15312931D02*
X20156582Y-15331979D01*
X20156582Y-15331979D02*
X20166105Y-15370074D01*
X20166105Y-15370074D02*
X20166105Y-15417693D01*
X20166105Y-15417693D02*
X20156582Y-15455788D01*
X20156582Y-15455788D02*
X20147058Y-15474836D01*
X20147058Y-15474836D02*
X20137534Y-15484360D01*
X20137534Y-15484360D02*
X20118486Y-15493884D01*
X20118486Y-15493884D02*
X20099439Y-15493884D01*
X20099439Y-15493884D02*
X20080391Y-15484360D01*
X20080391Y-15484360D02*
X20070867Y-15474836D01*
X20070867Y-15474836D02*
X20061344Y-15455788D01*
X20061344Y-15455788D02*
X20051820Y-15417693D01*
X20051820Y-15417693D02*
X20051820Y-15370074D01*
X20051820Y-15370074D02*
X20061344Y-15331979D01*
X20061344Y-15331979D02*
X20070867Y-15312931D01*
X20070867Y-15312931D02*
X20080391Y-15303408D01*
X20080391Y-15303408D02*
X20099439Y-15293884D01*
X20251820Y-15493884D02*
X20251820Y-15360550D01*
X20251820Y-15379598D02*
X20261344Y-15370074D01*
X20261344Y-15370074D02*
X20280391Y-15360550D01*
X20280391Y-15360550D02*
X20308963Y-15360550D01*
X20308963Y-15360550D02*
X20328010Y-15370074D01*
X20328010Y-15370074D02*
X20337534Y-15389122D01*
X20337534Y-15389122D02*
X20337534Y-15493884D01*
X20337534Y-15389122D02*
X20347058Y-15370074D01*
X20347058Y-15370074D02*
X20366105Y-15360550D01*
X20366105Y-15360550D02*
X20394677Y-15360550D01*
X20394677Y-15360550D02*
X20413725Y-15370074D01*
X20413725Y-15370074D02*
X20423248Y-15389122D01*
X20423248Y-15389122D02*
X20423248Y-15493884D01*
X20518486Y-15493884D02*
X20518486Y-15360550D01*
X20518486Y-15379598D02*
X20528010Y-15370074D01*
X20528010Y-15370074D02*
X20547058Y-15360550D01*
X20547058Y-15360550D02*
X20575629Y-15360550D01*
X20575629Y-15360550D02*
X20594677Y-15370074D01*
X20594677Y-15370074D02*
X20604201Y-15389122D01*
X20604201Y-15389122D02*
X20604201Y-15493884D01*
X20604201Y-15389122D02*
X20613725Y-15370074D01*
X20613725Y-15370074D02*
X20632772Y-15360550D01*
X20632772Y-15360550D02*
X20661344Y-15360550D01*
X20661344Y-15360550D02*
X20680391Y-15370074D01*
X20680391Y-15370074D02*
X20689915Y-15389122D01*
X20689915Y-15389122D02*
X20689915Y-15493884D01*
X21080391Y-15284360D02*
X20908963Y-15541503D01*
X21337534Y-15293884D02*
X21356582Y-15293884D01*
X21356582Y-15293884D02*
X21375629Y-15303408D01*
X21375629Y-15303408D02*
X21385153Y-15312931D01*
X21385153Y-15312931D02*
X21394677Y-15331979D01*
X21394677Y-15331979D02*
X21404201Y-15370074D01*
X21404201Y-15370074D02*
X21404201Y-15417693D01*
X21404201Y-15417693D02*
X21394677Y-15455788D01*
X21394677Y-15455788D02*
X21385153Y-15474836D01*
X21385153Y-15474836D02*
X21375629Y-15484360D01*
X21375629Y-15484360D02*
X21356582Y-15493884D01*
X21356582Y-15493884D02*
X21337534Y-15493884D01*
X21337534Y-15493884D02*
X21318487Y-15484360D01*
X21318487Y-15484360D02*
X21308963Y-15474836D01*
X21308963Y-15474836D02*
X21299439Y-15455788D01*
X21299439Y-15455788D02*
X21289915Y-15417693D01*
X21289915Y-15417693D02*
X21289915Y-15370074D01*
X21289915Y-15370074D02*
X21299439Y-15331979D01*
X21299439Y-15331979D02*
X21308963Y-15312931D01*
X21308963Y-15312931D02*
X21318487Y-15303408D01*
X21318487Y-15303408D02*
X21337534Y-15293884D01*
X21489915Y-15474836D02*
X21499439Y-15484360D01*
X21499439Y-15484360D02*
X21489915Y-15493884D01*
X21489915Y-15493884D02*
X21480391Y-15484360D01*
X21480391Y-15484360D02*
X21489915Y-15474836D01*
X21489915Y-15474836D02*
X21489915Y-15493884D01*
X21623248Y-15293884D02*
X21642296Y-15293884D01*
X21642296Y-15293884D02*
X21661344Y-15303408D01*
X21661344Y-15303408D02*
X21670868Y-15312931D01*
X21670868Y-15312931D02*
X21680391Y-15331979D01*
X21680391Y-15331979D02*
X21689915Y-15370074D01*
X21689915Y-15370074D02*
X21689915Y-15417693D01*
X21689915Y-15417693D02*
X21680391Y-15455788D01*
X21680391Y-15455788D02*
X21670868Y-15474836D01*
X21670868Y-15474836D02*
X21661344Y-15484360D01*
X21661344Y-15484360D02*
X21642296Y-15493884D01*
X21642296Y-15493884D02*
X21623248Y-15493884D01*
X21623248Y-15493884D02*
X21604201Y-15484360D01*
X21604201Y-15484360D02*
X21594677Y-15474836D01*
X21594677Y-15474836D02*
X21585153Y-15455788D01*
X21585153Y-15455788D02*
X21575629Y-15417693D01*
X21575629Y-15417693D02*
X21575629Y-15370074D01*
X21575629Y-15370074D02*
X21585153Y-15331979D01*
X21585153Y-15331979D02*
X21594677Y-15312931D01*
X21594677Y-15312931D02*
X21604201Y-15303408D01*
X21604201Y-15303408D02*
X21623248Y-15293884D01*
X21813725Y-15293884D02*
X21832772Y-15293884D01*
X21832772Y-15293884D02*
X21851820Y-15303408D01*
X21851820Y-15303408D02*
X21861344Y-15312931D01*
X21861344Y-15312931D02*
X21870868Y-15331979D01*
X21870868Y-15331979D02*
X21880391Y-15370074D01*
X21880391Y-15370074D02*
X21880391Y-15417693D01*
X21880391Y-15417693D02*
X21870868Y-15455788D01*
X21870868Y-15455788D02*
X21861344Y-15474836D01*
X21861344Y-15474836D02*
X21851820Y-15484360D01*
X21851820Y-15484360D02*
X21832772Y-15493884D01*
X21832772Y-15493884D02*
X21813725Y-15493884D01*
X21813725Y-15493884D02*
X21794677Y-15484360D01*
X21794677Y-15484360D02*
X21785153Y-15474836D01*
X21785153Y-15474836D02*
X21775629Y-15455788D01*
X21775629Y-15455788D02*
X21766106Y-15417693D01*
X21766106Y-15417693D02*
X21766106Y-15370074D01*
X21766106Y-15370074D02*
X21775629Y-15331979D01*
X21775629Y-15331979D02*
X21785153Y-15312931D01*
X21785153Y-15312931D02*
X21794677Y-15303408D01*
X21794677Y-15303408D02*
X21813725Y-15293884D01*
X22061344Y-15293884D02*
X21966106Y-15293884D01*
X21966106Y-15293884D02*
X21956582Y-15389122D01*
X21956582Y-15389122D02*
X21966106Y-15379598D01*
X21966106Y-15379598D02*
X21985153Y-15370074D01*
X21985153Y-15370074D02*
X22032772Y-15370074D01*
X22032772Y-15370074D02*
X22051820Y-15379598D01*
X22051820Y-15379598D02*
X22061344Y-15389122D01*
X22061344Y-15389122D02*
X22070868Y-15408169D01*
X22070868Y-15408169D02*
X22070868Y-15455788D01*
X22070868Y-15455788D02*
X22061344Y-15474836D01*
X22061344Y-15474836D02*
X22051820Y-15484360D01*
X22051820Y-15484360D02*
X22032772Y-15493884D01*
X22032772Y-15493884D02*
X21985153Y-15493884D01*
X21985153Y-15493884D02*
X21966106Y-15484360D01*
X21966106Y-15484360D02*
X21956582Y-15474836D01*
X22166106Y-15493884D02*
X22204201Y-15493884D01*
X22204201Y-15493884D02*
X22223249Y-15484360D01*
X22223249Y-15484360D02*
X22232772Y-15474836D01*
X22232772Y-15474836D02*
X22251820Y-15446265D01*
X22251820Y-15446265D02*
X22261344Y-15408169D01*
X22261344Y-15408169D02*
X22261344Y-15331979D01*
X22261344Y-15331979D02*
X22251820Y-15312931D01*
X22251820Y-15312931D02*
X22242296Y-15303408D01*
X22242296Y-15303408D02*
X22223249Y-15293884D01*
X22223249Y-15293884D02*
X22185153Y-15293884D01*
X22185153Y-15293884D02*
X22166106Y-15303408D01*
X22166106Y-15303408D02*
X22156582Y-15312931D01*
X22156582Y-15312931D02*
X22147058Y-15331979D01*
X22147058Y-15331979D02*
X22147058Y-15379598D01*
X22147058Y-15379598D02*
X22156582Y-15398646D01*
X22156582Y-15398646D02*
X22166106Y-15408169D01*
X22166106Y-15408169D02*
X22185153Y-15417693D01*
X22185153Y-15417693D02*
X22223249Y-15417693D01*
X22223249Y-15417693D02*
X22242296Y-15408169D01*
X22242296Y-15408169D02*
X22251820Y-15398646D01*
X22251820Y-15398646D02*
X22261344Y-15379598D01*
X22337534Y-15293884D02*
X22337534Y-15331979D01*
X22413725Y-15293884D02*
X22413725Y-15331979D01*
X22708963Y-15570074D02*
X22699439Y-15560550D01*
X22699439Y-15560550D02*
X22680391Y-15531979D01*
X22680391Y-15531979D02*
X22670868Y-15512931D01*
X22670868Y-15512931D02*
X22661344Y-15484360D01*
X22661344Y-15484360D02*
X22651820Y-15436741D01*
X22651820Y-15436741D02*
X22651820Y-15398646D01*
X22651820Y-15398646D02*
X22661344Y-15351027D01*
X22661344Y-15351027D02*
X22670868Y-15322455D01*
X22670868Y-15322455D02*
X22680391Y-15303408D01*
X22680391Y-15303408D02*
X22699439Y-15274836D01*
X22699439Y-15274836D02*
X22708963Y-15265312D01*
X22880391Y-15293884D02*
X22785153Y-15293884D01*
X22785153Y-15293884D02*
X22775629Y-15389122D01*
X22775629Y-15389122D02*
X22785153Y-15379598D01*
X22785153Y-15379598D02*
X22804201Y-15370074D01*
X22804201Y-15370074D02*
X22851820Y-15370074D01*
X22851820Y-15370074D02*
X22870868Y-15379598D01*
X22870868Y-15379598D02*
X22880391Y-15389122D01*
X22880391Y-15389122D02*
X22889915Y-15408169D01*
X22889915Y-15408169D02*
X22889915Y-15455788D01*
X22889915Y-15455788D02*
X22880391Y-15474836D01*
X22880391Y-15474836D02*
X22870868Y-15484360D01*
X22870868Y-15484360D02*
X22851820Y-15493884D01*
X22851820Y-15493884D02*
X22804201Y-15493884D01*
X22804201Y-15493884D02*
X22785153Y-15484360D01*
X22785153Y-15484360D02*
X22775629Y-15474836D01*
X23128010Y-15493884D02*
X23128010Y-15293884D01*
X23213725Y-15493884D02*
X23213725Y-15389122D01*
X23213725Y-15389122D02*
X23204201Y-15370074D01*
X23204201Y-15370074D02*
X23185153Y-15360550D01*
X23185153Y-15360550D02*
X23156582Y-15360550D01*
X23156582Y-15360550D02*
X23137534Y-15370074D01*
X23137534Y-15370074D02*
X23128010Y-15379598D01*
X23337534Y-15493884D02*
X23318487Y-15484360D01*
X23318487Y-15484360D02*
X23308963Y-15474836D01*
X23308963Y-15474836D02*
X23299439Y-15455788D01*
X23299439Y-15455788D02*
X23299439Y-15398646D01*
X23299439Y-15398646D02*
X23308963Y-15379598D01*
X23308963Y-15379598D02*
X23318487Y-15370074D01*
X23318487Y-15370074D02*
X23337534Y-15360550D01*
X23337534Y-15360550D02*
X23366106Y-15360550D01*
X23366106Y-15360550D02*
X23385153Y-15370074D01*
X23385153Y-15370074D02*
X23394677Y-15379598D01*
X23394677Y-15379598D02*
X23404201Y-15398646D01*
X23404201Y-15398646D02*
X23404201Y-15455788D01*
X23404201Y-15455788D02*
X23394677Y-15474836D01*
X23394677Y-15474836D02*
X23385153Y-15484360D01*
X23385153Y-15484360D02*
X23366106Y-15493884D01*
X23366106Y-15493884D02*
X23337534Y-15493884D01*
X23518487Y-15493884D02*
X23499439Y-15484360D01*
X23499439Y-15484360D02*
X23489915Y-15465312D01*
X23489915Y-15465312D02*
X23489915Y-15293884D01*
X23670868Y-15484360D02*
X23651820Y-15493884D01*
X23651820Y-15493884D02*
X23613725Y-15493884D01*
X23613725Y-15493884D02*
X23594677Y-15484360D01*
X23594677Y-15484360D02*
X23585153Y-15465312D01*
X23585153Y-15465312D02*
X23585153Y-15389122D01*
X23585153Y-15389122D02*
X23594677Y-15370074D01*
X23594677Y-15370074D02*
X23613725Y-15360550D01*
X23613725Y-15360550D02*
X23651820Y-15360550D01*
X23651820Y-15360550D02*
X23670868Y-15370074D01*
X23670868Y-15370074D02*
X23680391Y-15389122D01*
X23680391Y-15389122D02*
X23680391Y-15408169D01*
X23680391Y-15408169D02*
X23585153Y-15427217D01*
X23756582Y-15484360D02*
X23775630Y-15493884D01*
X23775630Y-15493884D02*
X23813725Y-15493884D01*
X23813725Y-15493884D02*
X23832772Y-15484360D01*
X23832772Y-15484360D02*
X23842296Y-15465312D01*
X23842296Y-15465312D02*
X23842296Y-15455788D01*
X23842296Y-15455788D02*
X23832772Y-15436741D01*
X23832772Y-15436741D02*
X23813725Y-15427217D01*
X23813725Y-15427217D02*
X23785153Y-15427217D01*
X23785153Y-15427217D02*
X23766106Y-15417693D01*
X23766106Y-15417693D02*
X23756582Y-15398646D01*
X23756582Y-15398646D02*
X23756582Y-15389122D01*
X23756582Y-15389122D02*
X23766106Y-15370074D01*
X23766106Y-15370074D02*
X23785153Y-15360550D01*
X23785153Y-15360550D02*
X23813725Y-15360550D01*
X23813725Y-15360550D02*
X23832772Y-15370074D01*
X23908963Y-15570074D02*
X23918487Y-15560550D01*
X23918487Y-15560550D02*
X23937534Y-15531979D01*
X23937534Y-15531979D02*
X23947058Y-15512931D01*
X23947058Y-15512931D02*
X23956582Y-15484360D01*
X23956582Y-15484360D02*
X23966106Y-15436741D01*
X23966106Y-15436741D02*
X23966106Y-15398646D01*
X23966106Y-15398646D02*
X23956582Y-15351027D01*
X23956582Y-15351027D02*
X23947058Y-15322455D01*
X23947058Y-15322455D02*
X23937534Y-15303408D01*
X23937534Y-15303408D02*
X23918487Y-15274836D01*
X23918487Y-15274836D02*
X23908963Y-15265312D01*
D10*
X19133900Y-15666400D02*
G75*
G02*
X19113900Y-15666400I-10000J0D01*
G01*
X19113900Y-15666400D02*
G75*
G02*
X19133900Y-15666400I10000J0D01*
G01*
D11*
X19432772Y-15557884D02*
X19451820Y-15557884D01*
X19451820Y-15557884D02*
X19470867Y-15567408D01*
X19470867Y-15567408D02*
X19480391Y-15576931D01*
X19480391Y-15576931D02*
X19489915Y-15595979D01*
X19489915Y-15595979D02*
X19499439Y-15634074D01*
X19499439Y-15634074D02*
X19499439Y-15681693D01*
X19499439Y-15681693D02*
X19489915Y-15719788D01*
X19489915Y-15719788D02*
X19480391Y-15738836D01*
X19480391Y-15738836D02*
X19470867Y-15748360D01*
X19470867Y-15748360D02*
X19451820Y-15757884D01*
X19451820Y-15757884D02*
X19432772Y-15757884D01*
X19432772Y-15757884D02*
X19413724Y-15748360D01*
X19413724Y-15748360D02*
X19404201Y-15738836D01*
X19404201Y-15738836D02*
X19394677Y-15719788D01*
X19394677Y-15719788D02*
X19385153Y-15681693D01*
X19385153Y-15681693D02*
X19385153Y-15634074D01*
X19385153Y-15634074D02*
X19394677Y-15595979D01*
X19394677Y-15595979D02*
X19404201Y-15576931D01*
X19404201Y-15576931D02*
X19413724Y-15567408D01*
X19413724Y-15567408D02*
X19432772Y-15557884D01*
X19585153Y-15738836D02*
X19594677Y-15748360D01*
X19594677Y-15748360D02*
X19585153Y-15757884D01*
X19585153Y-15757884D02*
X19575629Y-15748360D01*
X19575629Y-15748360D02*
X19585153Y-15738836D01*
X19585153Y-15738836D02*
X19585153Y-15757884D01*
X19670867Y-15576931D02*
X19680391Y-15567408D01*
X19680391Y-15567408D02*
X19699439Y-15557884D01*
X19699439Y-15557884D02*
X19747058Y-15557884D01*
X19747058Y-15557884D02*
X19766105Y-15567408D01*
X19766105Y-15567408D02*
X19775629Y-15576931D01*
X19775629Y-15576931D02*
X19785153Y-15595979D01*
X19785153Y-15595979D02*
X19785153Y-15615027D01*
X19785153Y-15615027D02*
X19775629Y-15643598D01*
X19775629Y-15643598D02*
X19661344Y-15757884D01*
X19661344Y-15757884D02*
X19785153Y-15757884D01*
X19908963Y-15557884D02*
X19928010Y-15557884D01*
X19928010Y-15557884D02*
X19947058Y-15567408D01*
X19947058Y-15567408D02*
X19956582Y-15576931D01*
X19956582Y-15576931D02*
X19966105Y-15595979D01*
X19966105Y-15595979D02*
X19975629Y-15634074D01*
X19975629Y-15634074D02*
X19975629Y-15681693D01*
X19975629Y-15681693D02*
X19966105Y-15719788D01*
X19966105Y-15719788D02*
X19956582Y-15738836D01*
X19956582Y-15738836D02*
X19947058Y-15748360D01*
X19947058Y-15748360D02*
X19928010Y-15757884D01*
X19928010Y-15757884D02*
X19908963Y-15757884D01*
X19908963Y-15757884D02*
X19889915Y-15748360D01*
X19889915Y-15748360D02*
X19880391Y-15738836D01*
X19880391Y-15738836D02*
X19870867Y-15719788D01*
X19870867Y-15719788D02*
X19861344Y-15681693D01*
X19861344Y-15681693D02*
X19861344Y-15634074D01*
X19861344Y-15634074D02*
X19870867Y-15595979D01*
X19870867Y-15595979D02*
X19880391Y-15576931D01*
X19880391Y-15576931D02*
X19889915Y-15567408D01*
X19889915Y-15567408D02*
X19908963Y-15557884D01*
X20099439Y-15557884D02*
X20118486Y-15557884D01*
X20118486Y-15557884D02*
X20137534Y-15567408D01*
X20137534Y-15567408D02*
X20147058Y-15576931D01*
X20147058Y-15576931D02*
X20156582Y-15595979D01*
X20156582Y-15595979D02*
X20166105Y-15634074D01*
X20166105Y-15634074D02*
X20166105Y-15681693D01*
X20166105Y-15681693D02*
X20156582Y-15719788D01*
X20156582Y-15719788D02*
X20147058Y-15738836D01*
X20147058Y-15738836D02*
X20137534Y-15748360D01*
X20137534Y-15748360D02*
X20118486Y-15757884D01*
X20118486Y-15757884D02*
X20099439Y-15757884D01*
X20099439Y-15757884D02*
X20080391Y-15748360D01*
X20080391Y-15748360D02*
X20070867Y-15738836D01*
X20070867Y-15738836D02*
X20061344Y-15719788D01*
X20061344Y-15719788D02*
X20051820Y-15681693D01*
X20051820Y-15681693D02*
X20051820Y-15634074D01*
X20051820Y-15634074D02*
X20061344Y-15595979D01*
X20061344Y-15595979D02*
X20070867Y-15576931D01*
X20070867Y-15576931D02*
X20080391Y-15567408D01*
X20080391Y-15567408D02*
X20099439Y-15557884D01*
X20251820Y-15757884D02*
X20251820Y-15624550D01*
X20251820Y-15643598D02*
X20261344Y-15634074D01*
X20261344Y-15634074D02*
X20280391Y-15624550D01*
X20280391Y-15624550D02*
X20308963Y-15624550D01*
X20308963Y-15624550D02*
X20328010Y-15634074D01*
X20328010Y-15634074D02*
X20337534Y-15653122D01*
X20337534Y-15653122D02*
X20337534Y-15757884D01*
X20337534Y-15653122D02*
X20347058Y-15634074D01*
X20347058Y-15634074D02*
X20366105Y-15624550D01*
X20366105Y-15624550D02*
X20394677Y-15624550D01*
X20394677Y-15624550D02*
X20413725Y-15634074D01*
X20413725Y-15634074D02*
X20423248Y-15653122D01*
X20423248Y-15653122D02*
X20423248Y-15757884D01*
X20518486Y-15757884D02*
X20518486Y-15624550D01*
X20518486Y-15643598D02*
X20528010Y-15634074D01*
X20528010Y-15634074D02*
X20547058Y-15624550D01*
X20547058Y-15624550D02*
X20575629Y-15624550D01*
X20575629Y-15624550D02*
X20594677Y-15634074D01*
X20594677Y-15634074D02*
X20604201Y-15653122D01*
X20604201Y-15653122D02*
X20604201Y-15757884D01*
X20604201Y-15653122D02*
X20613725Y-15634074D01*
X20613725Y-15634074D02*
X20632772Y-15624550D01*
X20632772Y-15624550D02*
X20661344Y-15624550D01*
X20661344Y-15624550D02*
X20680391Y-15634074D01*
X20680391Y-15634074D02*
X20689915Y-15653122D01*
X20689915Y-15653122D02*
X20689915Y-15757884D01*
X21080391Y-15548360D02*
X20908963Y-15805503D01*
X21337534Y-15557884D02*
X21356582Y-15557884D01*
X21356582Y-15557884D02*
X21375629Y-15567408D01*
X21375629Y-15567408D02*
X21385153Y-15576931D01*
X21385153Y-15576931D02*
X21394677Y-15595979D01*
X21394677Y-15595979D02*
X21404201Y-15634074D01*
X21404201Y-15634074D02*
X21404201Y-15681693D01*
X21404201Y-15681693D02*
X21394677Y-15719788D01*
X21394677Y-15719788D02*
X21385153Y-15738836D01*
X21385153Y-15738836D02*
X21375629Y-15748360D01*
X21375629Y-15748360D02*
X21356582Y-15757884D01*
X21356582Y-15757884D02*
X21337534Y-15757884D01*
X21337534Y-15757884D02*
X21318487Y-15748360D01*
X21318487Y-15748360D02*
X21308963Y-15738836D01*
X21308963Y-15738836D02*
X21299439Y-15719788D01*
X21299439Y-15719788D02*
X21289915Y-15681693D01*
X21289915Y-15681693D02*
X21289915Y-15634074D01*
X21289915Y-15634074D02*
X21299439Y-15595979D01*
X21299439Y-15595979D02*
X21308963Y-15576931D01*
X21308963Y-15576931D02*
X21318487Y-15567408D01*
X21318487Y-15567408D02*
X21337534Y-15557884D01*
X21489915Y-15738836D02*
X21499439Y-15748360D01*
X21499439Y-15748360D02*
X21489915Y-15757884D01*
X21489915Y-15757884D02*
X21480391Y-15748360D01*
X21480391Y-15748360D02*
X21489915Y-15738836D01*
X21489915Y-15738836D02*
X21489915Y-15757884D01*
X21623248Y-15557884D02*
X21642296Y-15557884D01*
X21642296Y-15557884D02*
X21661344Y-15567408D01*
X21661344Y-15567408D02*
X21670868Y-15576931D01*
X21670868Y-15576931D02*
X21680391Y-15595979D01*
X21680391Y-15595979D02*
X21689915Y-15634074D01*
X21689915Y-15634074D02*
X21689915Y-15681693D01*
X21689915Y-15681693D02*
X21680391Y-15719788D01*
X21680391Y-15719788D02*
X21670868Y-15738836D01*
X21670868Y-15738836D02*
X21661344Y-15748360D01*
X21661344Y-15748360D02*
X21642296Y-15757884D01*
X21642296Y-15757884D02*
X21623248Y-15757884D01*
X21623248Y-15757884D02*
X21604201Y-15748360D01*
X21604201Y-15748360D02*
X21594677Y-15738836D01*
X21594677Y-15738836D02*
X21585153Y-15719788D01*
X21585153Y-15719788D02*
X21575629Y-15681693D01*
X21575629Y-15681693D02*
X21575629Y-15634074D01*
X21575629Y-15634074D02*
X21585153Y-15595979D01*
X21585153Y-15595979D02*
X21594677Y-15576931D01*
X21594677Y-15576931D02*
X21604201Y-15567408D01*
X21604201Y-15567408D02*
X21623248Y-15557884D01*
X21813725Y-15557884D02*
X21832772Y-15557884D01*
X21832772Y-15557884D02*
X21851820Y-15567408D01*
X21851820Y-15567408D02*
X21861344Y-15576931D01*
X21861344Y-15576931D02*
X21870868Y-15595979D01*
X21870868Y-15595979D02*
X21880391Y-15634074D01*
X21880391Y-15634074D02*
X21880391Y-15681693D01*
X21880391Y-15681693D02*
X21870868Y-15719788D01*
X21870868Y-15719788D02*
X21861344Y-15738836D01*
X21861344Y-15738836D02*
X21851820Y-15748360D01*
X21851820Y-15748360D02*
X21832772Y-15757884D01*
X21832772Y-15757884D02*
X21813725Y-15757884D01*
X21813725Y-15757884D02*
X21794677Y-15748360D01*
X21794677Y-15748360D02*
X21785153Y-15738836D01*
X21785153Y-15738836D02*
X21775629Y-15719788D01*
X21775629Y-15719788D02*
X21766106Y-15681693D01*
X21766106Y-15681693D02*
X21766106Y-15634074D01*
X21766106Y-15634074D02*
X21775629Y-15595979D01*
X21775629Y-15595979D02*
X21785153Y-15576931D01*
X21785153Y-15576931D02*
X21794677Y-15567408D01*
X21794677Y-15567408D02*
X21813725Y-15557884D01*
X21947058Y-15557884D02*
X22080391Y-15557884D01*
X22080391Y-15557884D02*
X21994677Y-15757884D01*
X22166106Y-15757884D02*
X22204201Y-15757884D01*
X22204201Y-15757884D02*
X22223249Y-15748360D01*
X22223249Y-15748360D02*
X22232772Y-15738836D01*
X22232772Y-15738836D02*
X22251820Y-15710265D01*
X22251820Y-15710265D02*
X22261344Y-15672169D01*
X22261344Y-15672169D02*
X22261344Y-15595979D01*
X22261344Y-15595979D02*
X22251820Y-15576931D01*
X22251820Y-15576931D02*
X22242296Y-15567408D01*
X22242296Y-15567408D02*
X22223249Y-15557884D01*
X22223249Y-15557884D02*
X22185153Y-15557884D01*
X22185153Y-15557884D02*
X22166106Y-15567408D01*
X22166106Y-15567408D02*
X22156582Y-15576931D01*
X22156582Y-15576931D02*
X22147058Y-15595979D01*
X22147058Y-15595979D02*
X22147058Y-15643598D01*
X22147058Y-15643598D02*
X22156582Y-15662646D01*
X22156582Y-15662646D02*
X22166106Y-15672169D01*
X22166106Y-15672169D02*
X22185153Y-15681693D01*
X22185153Y-15681693D02*
X22223249Y-15681693D01*
X22223249Y-15681693D02*
X22242296Y-15672169D01*
X22242296Y-15672169D02*
X22251820Y-15662646D01*
X22251820Y-15662646D02*
X22261344Y-15643598D01*
X22337534Y-15557884D02*
X22337534Y-15595979D01*
X22413725Y-15557884D02*
X22413725Y-15595979D01*
X22708963Y-15834074D02*
X22699439Y-15824550D01*
X22699439Y-15824550D02*
X22680391Y-15795979D01*
X22680391Y-15795979D02*
X22670868Y-15776931D01*
X22670868Y-15776931D02*
X22661344Y-15748360D01*
X22661344Y-15748360D02*
X22651820Y-15700741D01*
X22651820Y-15700741D02*
X22651820Y-15662646D01*
X22651820Y-15662646D02*
X22661344Y-15615027D01*
X22661344Y-15615027D02*
X22670868Y-15586455D01*
X22670868Y-15586455D02*
X22680391Y-15567408D01*
X22680391Y-15567408D02*
X22699439Y-15538836D01*
X22699439Y-15538836D02*
X22708963Y-15529312D01*
X22889915Y-15757884D02*
X22775629Y-15757884D01*
X22832772Y-15757884D02*
X22832772Y-15557884D01*
X22832772Y-15557884D02*
X22813725Y-15586455D01*
X22813725Y-15586455D02*
X22794677Y-15605503D01*
X22794677Y-15605503D02*
X22775629Y-15615027D01*
X23004201Y-15643598D02*
X22985153Y-15634074D01*
X22985153Y-15634074D02*
X22975629Y-15624550D01*
X22975629Y-15624550D02*
X22966106Y-15605503D01*
X22966106Y-15605503D02*
X22966106Y-15595979D01*
X22966106Y-15595979D02*
X22975629Y-15576931D01*
X22975629Y-15576931D02*
X22985153Y-15567408D01*
X22985153Y-15567408D02*
X23004201Y-15557884D01*
X23004201Y-15557884D02*
X23042296Y-15557884D01*
X23042296Y-15557884D02*
X23061344Y-15567408D01*
X23061344Y-15567408D02*
X23070868Y-15576931D01*
X23070868Y-15576931D02*
X23080391Y-15595979D01*
X23080391Y-15595979D02*
X23080391Y-15605503D01*
X23080391Y-15605503D02*
X23070868Y-15624550D01*
X23070868Y-15624550D02*
X23061344Y-15634074D01*
X23061344Y-15634074D02*
X23042296Y-15643598D01*
X23042296Y-15643598D02*
X23004201Y-15643598D01*
X23004201Y-15643598D02*
X22985153Y-15653122D01*
X22985153Y-15653122D02*
X22975629Y-15662646D01*
X22975629Y-15662646D02*
X22966106Y-15681693D01*
X22966106Y-15681693D02*
X22966106Y-15719788D01*
X22966106Y-15719788D02*
X22975629Y-15738836D01*
X22975629Y-15738836D02*
X22985153Y-15748360D01*
X22985153Y-15748360D02*
X23004201Y-15757884D01*
X23004201Y-15757884D02*
X23042296Y-15757884D01*
X23042296Y-15757884D02*
X23061344Y-15748360D01*
X23061344Y-15748360D02*
X23070868Y-15738836D01*
X23070868Y-15738836D02*
X23080391Y-15719788D01*
X23080391Y-15719788D02*
X23080391Y-15681693D01*
X23080391Y-15681693D02*
X23070868Y-15662646D01*
X23070868Y-15662646D02*
X23061344Y-15653122D01*
X23061344Y-15653122D02*
X23042296Y-15643598D01*
X23270868Y-15757884D02*
X23156582Y-15757884D01*
X23213725Y-15757884D02*
X23213725Y-15557884D01*
X23213725Y-15557884D02*
X23194677Y-15586455D01*
X23194677Y-15586455D02*
X23175629Y-15605503D01*
X23175629Y-15605503D02*
X23156582Y-15615027D01*
X23508963Y-15757884D02*
X23508963Y-15557884D01*
X23594677Y-15757884D02*
X23594677Y-15653122D01*
X23594677Y-15653122D02*
X23585153Y-15634074D01*
X23585153Y-15634074D02*
X23566106Y-15624550D01*
X23566106Y-15624550D02*
X23537534Y-15624550D01*
X23537534Y-15624550D02*
X23518487Y-15634074D01*
X23518487Y-15634074D02*
X23508963Y-15643598D01*
X23718487Y-15757884D02*
X23699439Y-15748360D01*
X23699439Y-15748360D02*
X23689915Y-15738836D01*
X23689915Y-15738836D02*
X23680391Y-15719788D01*
X23680391Y-15719788D02*
X23680391Y-15662646D01*
X23680391Y-15662646D02*
X23689915Y-15643598D01*
X23689915Y-15643598D02*
X23699439Y-15634074D01*
X23699439Y-15634074D02*
X23718487Y-15624550D01*
X23718487Y-15624550D02*
X23747058Y-15624550D01*
X23747058Y-15624550D02*
X23766106Y-15634074D01*
X23766106Y-15634074D02*
X23775630Y-15643598D01*
X23775630Y-15643598D02*
X23785153Y-15662646D01*
X23785153Y-15662646D02*
X23785153Y-15719788D01*
X23785153Y-15719788D02*
X23775630Y-15738836D01*
X23775630Y-15738836D02*
X23766106Y-15748360D01*
X23766106Y-15748360D02*
X23747058Y-15757884D01*
X23747058Y-15757884D02*
X23718487Y-15757884D01*
X23899439Y-15757884D02*
X23880391Y-15748360D01*
X23880391Y-15748360D02*
X23870868Y-15729312D01*
X23870868Y-15729312D02*
X23870868Y-15557884D01*
X24051820Y-15748360D02*
X24032772Y-15757884D01*
X24032772Y-15757884D02*
X23994677Y-15757884D01*
X23994677Y-15757884D02*
X23975630Y-15748360D01*
X23975630Y-15748360D02*
X23966106Y-15729312D01*
X23966106Y-15729312D02*
X23966106Y-15653122D01*
X23966106Y-15653122D02*
X23975630Y-15634074D01*
X23975630Y-15634074D02*
X23994677Y-15624550D01*
X23994677Y-15624550D02*
X24032772Y-15624550D01*
X24032772Y-15624550D02*
X24051820Y-15634074D01*
X24051820Y-15634074D02*
X24061344Y-15653122D01*
X24061344Y-15653122D02*
X24061344Y-15672169D01*
X24061344Y-15672169D02*
X23966106Y-15691217D01*
X24137534Y-15748360D02*
X24156582Y-15757884D01*
X24156582Y-15757884D02*
X24194677Y-15757884D01*
X24194677Y-15757884D02*
X24213725Y-15748360D01*
X24213725Y-15748360D02*
X24223249Y-15729312D01*
X24223249Y-15729312D02*
X24223249Y-15719788D01*
X24223249Y-15719788D02*
X24213725Y-15700741D01*
X24213725Y-15700741D02*
X24194677Y-15691217D01*
X24194677Y-15691217D02*
X24166106Y-15691217D01*
X24166106Y-15691217D02*
X24147058Y-15681693D01*
X24147058Y-15681693D02*
X24137534Y-15662646D01*
X24137534Y-15662646D02*
X24137534Y-15653122D01*
X24137534Y-15653122D02*
X24147058Y-15634074D01*
X24147058Y-15634074D02*
X24166106Y-15624550D01*
X24166106Y-15624550D02*
X24194677Y-15624550D01*
X24194677Y-15624550D02*
X24213725Y-15634074D01*
X24289915Y-15834074D02*
X24299439Y-15824550D01*
X24299439Y-15824550D02*
X24318487Y-15795979D01*
X24318487Y-15795979D02*
X24328011Y-15776931D01*
X24328011Y-15776931D02*
X24337534Y-15748360D01*
X24337534Y-15748360D02*
X24347058Y-15700741D01*
X24347058Y-15700741D02*
X24347058Y-15662646D01*
X24347058Y-15662646D02*
X24337534Y-15615027D01*
X24337534Y-15615027D02*
X24328011Y-15586455D01*
X24328011Y-15586455D02*
X24318487Y-15567408D01*
X24318487Y-15567408D02*
X24299439Y-15538836D01*
X24299439Y-15538836D02*
X24289915Y-15529312D01*
D10*
X19123900Y-15920400D02*
X19123900Y-15940400D01*
X19113900Y-15930400D02*
X19133900Y-15930400D01*
D11*
X19432772Y-15821884D02*
X19451820Y-15821884D01*
X19451820Y-15821884D02*
X19470867Y-15831408D01*
X19470867Y-15831408D02*
X19480391Y-15840931D01*
X19480391Y-15840931D02*
X19489915Y-15859979D01*
X19489915Y-15859979D02*
X19499439Y-15898074D01*
X19499439Y-15898074D02*
X19499439Y-15945693D01*
X19499439Y-15945693D02*
X19489915Y-15983788D01*
X19489915Y-15983788D02*
X19480391Y-16002836D01*
X19480391Y-16002836D02*
X19470867Y-16012360D01*
X19470867Y-16012360D02*
X19451820Y-16021884D01*
X19451820Y-16021884D02*
X19432772Y-16021884D01*
X19432772Y-16021884D02*
X19413724Y-16012360D01*
X19413724Y-16012360D02*
X19404201Y-16002836D01*
X19404201Y-16002836D02*
X19394677Y-15983788D01*
X19394677Y-15983788D02*
X19385153Y-15945693D01*
X19385153Y-15945693D02*
X19385153Y-15898074D01*
X19385153Y-15898074D02*
X19394677Y-15859979D01*
X19394677Y-15859979D02*
X19404201Y-15840931D01*
X19404201Y-15840931D02*
X19413724Y-15831408D01*
X19413724Y-15831408D02*
X19432772Y-15821884D01*
X19585153Y-16002836D02*
X19594677Y-16012360D01*
X19594677Y-16012360D02*
X19585153Y-16021884D01*
X19585153Y-16021884D02*
X19575629Y-16012360D01*
X19575629Y-16012360D02*
X19585153Y-16002836D01*
X19585153Y-16002836D02*
X19585153Y-16021884D01*
X19670867Y-15840931D02*
X19680391Y-15831408D01*
X19680391Y-15831408D02*
X19699439Y-15821884D01*
X19699439Y-15821884D02*
X19747058Y-15821884D01*
X19747058Y-15821884D02*
X19766105Y-15831408D01*
X19766105Y-15831408D02*
X19775629Y-15840931D01*
X19775629Y-15840931D02*
X19785153Y-15859979D01*
X19785153Y-15859979D02*
X19785153Y-15879027D01*
X19785153Y-15879027D02*
X19775629Y-15907598D01*
X19775629Y-15907598D02*
X19661344Y-16021884D01*
X19661344Y-16021884D02*
X19785153Y-16021884D01*
X19908963Y-15821884D02*
X19928010Y-15821884D01*
X19928010Y-15821884D02*
X19947058Y-15831408D01*
X19947058Y-15831408D02*
X19956582Y-15840931D01*
X19956582Y-15840931D02*
X19966105Y-15859979D01*
X19966105Y-15859979D02*
X19975629Y-15898074D01*
X19975629Y-15898074D02*
X19975629Y-15945693D01*
X19975629Y-15945693D02*
X19966105Y-15983788D01*
X19966105Y-15983788D02*
X19956582Y-16002836D01*
X19956582Y-16002836D02*
X19947058Y-16012360D01*
X19947058Y-16012360D02*
X19928010Y-16021884D01*
X19928010Y-16021884D02*
X19908963Y-16021884D01*
X19908963Y-16021884D02*
X19889915Y-16012360D01*
X19889915Y-16012360D02*
X19880391Y-16002836D01*
X19880391Y-16002836D02*
X19870867Y-15983788D01*
X19870867Y-15983788D02*
X19861344Y-15945693D01*
X19861344Y-15945693D02*
X19861344Y-15898074D01*
X19861344Y-15898074D02*
X19870867Y-15859979D01*
X19870867Y-15859979D02*
X19880391Y-15840931D01*
X19880391Y-15840931D02*
X19889915Y-15831408D01*
X19889915Y-15831408D02*
X19908963Y-15821884D01*
X20099439Y-15821884D02*
X20118486Y-15821884D01*
X20118486Y-15821884D02*
X20137534Y-15831408D01*
X20137534Y-15831408D02*
X20147058Y-15840931D01*
X20147058Y-15840931D02*
X20156582Y-15859979D01*
X20156582Y-15859979D02*
X20166105Y-15898074D01*
X20166105Y-15898074D02*
X20166105Y-15945693D01*
X20166105Y-15945693D02*
X20156582Y-15983788D01*
X20156582Y-15983788D02*
X20147058Y-16002836D01*
X20147058Y-16002836D02*
X20137534Y-16012360D01*
X20137534Y-16012360D02*
X20118486Y-16021884D01*
X20118486Y-16021884D02*
X20099439Y-16021884D01*
X20099439Y-16021884D02*
X20080391Y-16012360D01*
X20080391Y-16012360D02*
X20070867Y-16002836D01*
X20070867Y-16002836D02*
X20061344Y-15983788D01*
X20061344Y-15983788D02*
X20051820Y-15945693D01*
X20051820Y-15945693D02*
X20051820Y-15898074D01*
X20051820Y-15898074D02*
X20061344Y-15859979D01*
X20061344Y-15859979D02*
X20070867Y-15840931D01*
X20070867Y-15840931D02*
X20080391Y-15831408D01*
X20080391Y-15831408D02*
X20099439Y-15821884D01*
X20251820Y-16021884D02*
X20251820Y-15888550D01*
X20251820Y-15907598D02*
X20261344Y-15898074D01*
X20261344Y-15898074D02*
X20280391Y-15888550D01*
X20280391Y-15888550D02*
X20308963Y-15888550D01*
X20308963Y-15888550D02*
X20328010Y-15898074D01*
X20328010Y-15898074D02*
X20337534Y-15917122D01*
X20337534Y-15917122D02*
X20337534Y-16021884D01*
X20337534Y-15917122D02*
X20347058Y-15898074D01*
X20347058Y-15898074D02*
X20366105Y-15888550D01*
X20366105Y-15888550D02*
X20394677Y-15888550D01*
X20394677Y-15888550D02*
X20413725Y-15898074D01*
X20413725Y-15898074D02*
X20423248Y-15917122D01*
X20423248Y-15917122D02*
X20423248Y-16021884D01*
X20518486Y-16021884D02*
X20518486Y-15888550D01*
X20518486Y-15907598D02*
X20528010Y-15898074D01*
X20528010Y-15898074D02*
X20547058Y-15888550D01*
X20547058Y-15888550D02*
X20575629Y-15888550D01*
X20575629Y-15888550D02*
X20594677Y-15898074D01*
X20594677Y-15898074D02*
X20604201Y-15917122D01*
X20604201Y-15917122D02*
X20604201Y-16021884D01*
X20604201Y-15917122D02*
X20613725Y-15898074D01*
X20613725Y-15898074D02*
X20632772Y-15888550D01*
X20632772Y-15888550D02*
X20661344Y-15888550D01*
X20661344Y-15888550D02*
X20680391Y-15898074D01*
X20680391Y-15898074D02*
X20689915Y-15917122D01*
X20689915Y-15917122D02*
X20689915Y-16021884D01*
X21080391Y-15812360D02*
X20908963Y-16069503D01*
X21337534Y-15821884D02*
X21356582Y-15821884D01*
X21356582Y-15821884D02*
X21375629Y-15831408D01*
X21375629Y-15831408D02*
X21385153Y-15840931D01*
X21385153Y-15840931D02*
X21394677Y-15859979D01*
X21394677Y-15859979D02*
X21404201Y-15898074D01*
X21404201Y-15898074D02*
X21404201Y-15945693D01*
X21404201Y-15945693D02*
X21394677Y-15983788D01*
X21394677Y-15983788D02*
X21385153Y-16002836D01*
X21385153Y-16002836D02*
X21375629Y-16012360D01*
X21375629Y-16012360D02*
X21356582Y-16021884D01*
X21356582Y-16021884D02*
X21337534Y-16021884D01*
X21337534Y-16021884D02*
X21318487Y-16012360D01*
X21318487Y-16012360D02*
X21308963Y-16002836D01*
X21308963Y-16002836D02*
X21299439Y-15983788D01*
X21299439Y-15983788D02*
X21289915Y-15945693D01*
X21289915Y-15945693D02*
X21289915Y-15898074D01*
X21289915Y-15898074D02*
X21299439Y-15859979D01*
X21299439Y-15859979D02*
X21308963Y-15840931D01*
X21308963Y-15840931D02*
X21318487Y-15831408D01*
X21318487Y-15831408D02*
X21337534Y-15821884D01*
X21489915Y-16002836D02*
X21499439Y-16012360D01*
X21499439Y-16012360D02*
X21489915Y-16021884D01*
X21489915Y-16021884D02*
X21480391Y-16012360D01*
X21480391Y-16012360D02*
X21489915Y-16002836D01*
X21489915Y-16002836D02*
X21489915Y-16021884D01*
X21623248Y-15821884D02*
X21642296Y-15821884D01*
X21642296Y-15821884D02*
X21661344Y-15831408D01*
X21661344Y-15831408D02*
X21670868Y-15840931D01*
X21670868Y-15840931D02*
X21680391Y-15859979D01*
X21680391Y-15859979D02*
X21689915Y-15898074D01*
X21689915Y-15898074D02*
X21689915Y-15945693D01*
X21689915Y-15945693D02*
X21680391Y-15983788D01*
X21680391Y-15983788D02*
X21670868Y-16002836D01*
X21670868Y-16002836D02*
X21661344Y-16012360D01*
X21661344Y-16012360D02*
X21642296Y-16021884D01*
X21642296Y-16021884D02*
X21623248Y-16021884D01*
X21623248Y-16021884D02*
X21604201Y-16012360D01*
X21604201Y-16012360D02*
X21594677Y-16002836D01*
X21594677Y-16002836D02*
X21585153Y-15983788D01*
X21585153Y-15983788D02*
X21575629Y-15945693D01*
X21575629Y-15945693D02*
X21575629Y-15898074D01*
X21575629Y-15898074D02*
X21585153Y-15859979D01*
X21585153Y-15859979D02*
X21594677Y-15840931D01*
X21594677Y-15840931D02*
X21604201Y-15831408D01*
X21604201Y-15831408D02*
X21623248Y-15821884D01*
X21813725Y-15821884D02*
X21832772Y-15821884D01*
X21832772Y-15821884D02*
X21851820Y-15831408D01*
X21851820Y-15831408D02*
X21861344Y-15840931D01*
X21861344Y-15840931D02*
X21870868Y-15859979D01*
X21870868Y-15859979D02*
X21880391Y-15898074D01*
X21880391Y-15898074D02*
X21880391Y-15945693D01*
X21880391Y-15945693D02*
X21870868Y-15983788D01*
X21870868Y-15983788D02*
X21861344Y-16002836D01*
X21861344Y-16002836D02*
X21851820Y-16012360D01*
X21851820Y-16012360D02*
X21832772Y-16021884D01*
X21832772Y-16021884D02*
X21813725Y-16021884D01*
X21813725Y-16021884D02*
X21794677Y-16012360D01*
X21794677Y-16012360D02*
X21785153Y-16002836D01*
X21785153Y-16002836D02*
X21775629Y-15983788D01*
X21775629Y-15983788D02*
X21766106Y-15945693D01*
X21766106Y-15945693D02*
X21766106Y-15898074D01*
X21766106Y-15898074D02*
X21775629Y-15859979D01*
X21775629Y-15859979D02*
X21785153Y-15840931D01*
X21785153Y-15840931D02*
X21794677Y-15831408D01*
X21794677Y-15831408D02*
X21813725Y-15821884D01*
X21947058Y-15821884D02*
X22080391Y-15821884D01*
X22080391Y-15821884D02*
X21994677Y-16021884D01*
X22166106Y-16021884D02*
X22204201Y-16021884D01*
X22204201Y-16021884D02*
X22223249Y-16012360D01*
X22223249Y-16012360D02*
X22232772Y-16002836D01*
X22232772Y-16002836D02*
X22251820Y-15974265D01*
X22251820Y-15974265D02*
X22261344Y-15936169D01*
X22261344Y-15936169D02*
X22261344Y-15859979D01*
X22261344Y-15859979D02*
X22251820Y-15840931D01*
X22251820Y-15840931D02*
X22242296Y-15831408D01*
X22242296Y-15831408D02*
X22223249Y-15821884D01*
X22223249Y-15821884D02*
X22185153Y-15821884D01*
X22185153Y-15821884D02*
X22166106Y-15831408D01*
X22166106Y-15831408D02*
X22156582Y-15840931D01*
X22156582Y-15840931D02*
X22147058Y-15859979D01*
X22147058Y-15859979D02*
X22147058Y-15907598D01*
X22147058Y-15907598D02*
X22156582Y-15926646D01*
X22156582Y-15926646D02*
X22166106Y-15936169D01*
X22166106Y-15936169D02*
X22185153Y-15945693D01*
X22185153Y-15945693D02*
X22223249Y-15945693D01*
X22223249Y-15945693D02*
X22242296Y-15936169D01*
X22242296Y-15936169D02*
X22251820Y-15926646D01*
X22251820Y-15926646D02*
X22261344Y-15907598D01*
X22337534Y-15821884D02*
X22337534Y-15859979D01*
X22413725Y-15821884D02*
X22413725Y-15859979D01*
X22708963Y-16098074D02*
X22699439Y-16088550D01*
X22699439Y-16088550D02*
X22680391Y-16059979D01*
X22680391Y-16059979D02*
X22670868Y-16040931D01*
X22670868Y-16040931D02*
X22661344Y-16012360D01*
X22661344Y-16012360D02*
X22651820Y-15964741D01*
X22651820Y-15964741D02*
X22651820Y-15926646D01*
X22651820Y-15926646D02*
X22661344Y-15879027D01*
X22661344Y-15879027D02*
X22670868Y-15850455D01*
X22670868Y-15850455D02*
X22680391Y-15831408D01*
X22680391Y-15831408D02*
X22699439Y-15802836D01*
X22699439Y-15802836D02*
X22708963Y-15793312D01*
X22775629Y-15840931D02*
X22785153Y-15831408D01*
X22785153Y-15831408D02*
X22804201Y-15821884D01*
X22804201Y-15821884D02*
X22851820Y-15821884D01*
X22851820Y-15821884D02*
X22870868Y-15831408D01*
X22870868Y-15831408D02*
X22880391Y-15840931D01*
X22880391Y-15840931D02*
X22889915Y-15859979D01*
X22889915Y-15859979D02*
X22889915Y-15879027D01*
X22889915Y-15879027D02*
X22880391Y-15907598D01*
X22880391Y-15907598D02*
X22766106Y-16021884D01*
X22766106Y-16021884D02*
X22889915Y-16021884D01*
X23128010Y-16021884D02*
X23128010Y-15821884D01*
X23213725Y-16021884D02*
X23213725Y-15917122D01*
X23213725Y-15917122D02*
X23204201Y-15898074D01*
X23204201Y-15898074D02*
X23185153Y-15888550D01*
X23185153Y-15888550D02*
X23156582Y-15888550D01*
X23156582Y-15888550D02*
X23137534Y-15898074D01*
X23137534Y-15898074D02*
X23128010Y-15907598D01*
X23337534Y-16021884D02*
X23318487Y-16012360D01*
X23318487Y-16012360D02*
X23308963Y-16002836D01*
X23308963Y-16002836D02*
X23299439Y-15983788D01*
X23299439Y-15983788D02*
X23299439Y-15926646D01*
X23299439Y-15926646D02*
X23308963Y-15907598D01*
X23308963Y-15907598D02*
X23318487Y-15898074D01*
X23318487Y-15898074D02*
X23337534Y-15888550D01*
X23337534Y-15888550D02*
X23366106Y-15888550D01*
X23366106Y-15888550D02*
X23385153Y-15898074D01*
X23385153Y-15898074D02*
X23394677Y-15907598D01*
X23394677Y-15907598D02*
X23404201Y-15926646D01*
X23404201Y-15926646D02*
X23404201Y-15983788D01*
X23404201Y-15983788D02*
X23394677Y-16002836D01*
X23394677Y-16002836D02*
X23385153Y-16012360D01*
X23385153Y-16012360D02*
X23366106Y-16021884D01*
X23366106Y-16021884D02*
X23337534Y-16021884D01*
X23518487Y-16021884D02*
X23499439Y-16012360D01*
X23499439Y-16012360D02*
X23489915Y-15993312D01*
X23489915Y-15993312D02*
X23489915Y-15821884D01*
X23670868Y-16012360D02*
X23651820Y-16021884D01*
X23651820Y-16021884D02*
X23613725Y-16021884D01*
X23613725Y-16021884D02*
X23594677Y-16012360D01*
X23594677Y-16012360D02*
X23585153Y-15993312D01*
X23585153Y-15993312D02*
X23585153Y-15917122D01*
X23585153Y-15917122D02*
X23594677Y-15898074D01*
X23594677Y-15898074D02*
X23613725Y-15888550D01*
X23613725Y-15888550D02*
X23651820Y-15888550D01*
X23651820Y-15888550D02*
X23670868Y-15898074D01*
X23670868Y-15898074D02*
X23680391Y-15917122D01*
X23680391Y-15917122D02*
X23680391Y-15936169D01*
X23680391Y-15936169D02*
X23585153Y-15955217D01*
X23756582Y-16012360D02*
X23775630Y-16021884D01*
X23775630Y-16021884D02*
X23813725Y-16021884D01*
X23813725Y-16021884D02*
X23832772Y-16012360D01*
X23832772Y-16012360D02*
X23842296Y-15993312D01*
X23842296Y-15993312D02*
X23842296Y-15983788D01*
X23842296Y-15983788D02*
X23832772Y-15964741D01*
X23832772Y-15964741D02*
X23813725Y-15955217D01*
X23813725Y-15955217D02*
X23785153Y-15955217D01*
X23785153Y-15955217D02*
X23766106Y-15945693D01*
X23766106Y-15945693D02*
X23756582Y-15926646D01*
X23756582Y-15926646D02*
X23756582Y-15917122D01*
X23756582Y-15917122D02*
X23766106Y-15898074D01*
X23766106Y-15898074D02*
X23785153Y-15888550D01*
X23785153Y-15888550D02*
X23813725Y-15888550D01*
X23813725Y-15888550D02*
X23832772Y-15898074D01*
X23908963Y-16098074D02*
X23918487Y-16088550D01*
X23918487Y-16088550D02*
X23937534Y-16059979D01*
X23937534Y-16059979D02*
X23947058Y-16040931D01*
X23947058Y-16040931D02*
X23956582Y-16012360D01*
X23956582Y-16012360D02*
X23966106Y-15964741D01*
X23966106Y-15964741D02*
X23966106Y-15926646D01*
X23966106Y-15926646D02*
X23956582Y-15879027D01*
X23956582Y-15879027D02*
X23947058Y-15850455D01*
X23947058Y-15850455D02*
X23937534Y-15831408D01*
X23937534Y-15831408D02*
X23918487Y-15802836D01*
X23918487Y-15802836D02*
X23908963Y-15793312D01*
D10*
X19129507Y-16205007D02*
X19129507Y-16183793D01*
X19108293Y-16183793D01*
X19108293Y-16205007D01*
X19129507Y-16205007D01*
D11*
X19432772Y-16085884D02*
X19451820Y-16085884D01*
X19451820Y-16085884D02*
X19470867Y-16095408D01*
X19470867Y-16095408D02*
X19480391Y-16104931D01*
X19480391Y-16104931D02*
X19489915Y-16123979D01*
X19489915Y-16123979D02*
X19499439Y-16162074D01*
X19499439Y-16162074D02*
X19499439Y-16209693D01*
X19499439Y-16209693D02*
X19489915Y-16247788D01*
X19489915Y-16247788D02*
X19480391Y-16266836D01*
X19480391Y-16266836D02*
X19470867Y-16276360D01*
X19470867Y-16276360D02*
X19451820Y-16285884D01*
X19451820Y-16285884D02*
X19432772Y-16285884D01*
X19432772Y-16285884D02*
X19413724Y-16276360D01*
X19413724Y-16276360D02*
X19404201Y-16266836D01*
X19404201Y-16266836D02*
X19394677Y-16247788D01*
X19394677Y-16247788D02*
X19385153Y-16209693D01*
X19385153Y-16209693D02*
X19385153Y-16162074D01*
X19385153Y-16162074D02*
X19394677Y-16123979D01*
X19394677Y-16123979D02*
X19404201Y-16104931D01*
X19404201Y-16104931D02*
X19413724Y-16095408D01*
X19413724Y-16095408D02*
X19432772Y-16085884D01*
X19585153Y-16266836D02*
X19594677Y-16276360D01*
X19594677Y-16276360D02*
X19585153Y-16285884D01*
X19585153Y-16285884D02*
X19575629Y-16276360D01*
X19575629Y-16276360D02*
X19585153Y-16266836D01*
X19585153Y-16266836D02*
X19585153Y-16285884D01*
X19661344Y-16085884D02*
X19785153Y-16085884D01*
X19785153Y-16085884D02*
X19718486Y-16162074D01*
X19718486Y-16162074D02*
X19747058Y-16162074D01*
X19747058Y-16162074D02*
X19766105Y-16171598D01*
X19766105Y-16171598D02*
X19775629Y-16181122D01*
X19775629Y-16181122D02*
X19785153Y-16200169D01*
X19785153Y-16200169D02*
X19785153Y-16247788D01*
X19785153Y-16247788D02*
X19775629Y-16266836D01*
X19775629Y-16266836D02*
X19766105Y-16276360D01*
X19766105Y-16276360D02*
X19747058Y-16285884D01*
X19747058Y-16285884D02*
X19689915Y-16285884D01*
X19689915Y-16285884D02*
X19670867Y-16276360D01*
X19670867Y-16276360D02*
X19661344Y-16266836D01*
X19908963Y-16085884D02*
X19928010Y-16085884D01*
X19928010Y-16085884D02*
X19947058Y-16095408D01*
X19947058Y-16095408D02*
X19956582Y-16104931D01*
X19956582Y-16104931D02*
X19966105Y-16123979D01*
X19966105Y-16123979D02*
X19975629Y-16162074D01*
X19975629Y-16162074D02*
X19975629Y-16209693D01*
X19975629Y-16209693D02*
X19966105Y-16247788D01*
X19966105Y-16247788D02*
X19956582Y-16266836D01*
X19956582Y-16266836D02*
X19947058Y-16276360D01*
X19947058Y-16276360D02*
X19928010Y-16285884D01*
X19928010Y-16285884D02*
X19908963Y-16285884D01*
X19908963Y-16285884D02*
X19889915Y-16276360D01*
X19889915Y-16276360D02*
X19880391Y-16266836D01*
X19880391Y-16266836D02*
X19870867Y-16247788D01*
X19870867Y-16247788D02*
X19861344Y-16209693D01*
X19861344Y-16209693D02*
X19861344Y-16162074D01*
X19861344Y-16162074D02*
X19870867Y-16123979D01*
X19870867Y-16123979D02*
X19880391Y-16104931D01*
X19880391Y-16104931D02*
X19889915Y-16095408D01*
X19889915Y-16095408D02*
X19908963Y-16085884D01*
X20099439Y-16085884D02*
X20118486Y-16085884D01*
X20118486Y-16085884D02*
X20137534Y-16095408D01*
X20137534Y-16095408D02*
X20147058Y-16104931D01*
X20147058Y-16104931D02*
X20156582Y-16123979D01*
X20156582Y-16123979D02*
X20166105Y-16162074D01*
X20166105Y-16162074D02*
X20166105Y-16209693D01*
X20166105Y-16209693D02*
X20156582Y-16247788D01*
X20156582Y-16247788D02*
X20147058Y-16266836D01*
X20147058Y-16266836D02*
X20137534Y-16276360D01*
X20137534Y-16276360D02*
X20118486Y-16285884D01*
X20118486Y-16285884D02*
X20099439Y-16285884D01*
X20099439Y-16285884D02*
X20080391Y-16276360D01*
X20080391Y-16276360D02*
X20070867Y-16266836D01*
X20070867Y-16266836D02*
X20061344Y-16247788D01*
X20061344Y-16247788D02*
X20051820Y-16209693D01*
X20051820Y-16209693D02*
X20051820Y-16162074D01*
X20051820Y-16162074D02*
X20061344Y-16123979D01*
X20061344Y-16123979D02*
X20070867Y-16104931D01*
X20070867Y-16104931D02*
X20080391Y-16095408D01*
X20080391Y-16095408D02*
X20099439Y-16085884D01*
X20251820Y-16285884D02*
X20251820Y-16152550D01*
X20251820Y-16171598D02*
X20261344Y-16162074D01*
X20261344Y-16162074D02*
X20280391Y-16152550D01*
X20280391Y-16152550D02*
X20308963Y-16152550D01*
X20308963Y-16152550D02*
X20328010Y-16162074D01*
X20328010Y-16162074D02*
X20337534Y-16181122D01*
X20337534Y-16181122D02*
X20337534Y-16285884D01*
X20337534Y-16181122D02*
X20347058Y-16162074D01*
X20347058Y-16162074D02*
X20366105Y-16152550D01*
X20366105Y-16152550D02*
X20394677Y-16152550D01*
X20394677Y-16152550D02*
X20413725Y-16162074D01*
X20413725Y-16162074D02*
X20423248Y-16181122D01*
X20423248Y-16181122D02*
X20423248Y-16285884D01*
X20518486Y-16285884D02*
X20518486Y-16152550D01*
X20518486Y-16171598D02*
X20528010Y-16162074D01*
X20528010Y-16162074D02*
X20547058Y-16152550D01*
X20547058Y-16152550D02*
X20575629Y-16152550D01*
X20575629Y-16152550D02*
X20594677Y-16162074D01*
X20594677Y-16162074D02*
X20604201Y-16181122D01*
X20604201Y-16181122D02*
X20604201Y-16285884D01*
X20604201Y-16181122D02*
X20613725Y-16162074D01*
X20613725Y-16162074D02*
X20632772Y-16152550D01*
X20632772Y-16152550D02*
X20661344Y-16152550D01*
X20661344Y-16152550D02*
X20680391Y-16162074D01*
X20680391Y-16162074D02*
X20689915Y-16181122D01*
X20689915Y-16181122D02*
X20689915Y-16285884D01*
X21080391Y-16076360D02*
X20908963Y-16333503D01*
X21337534Y-16085884D02*
X21356582Y-16085884D01*
X21356582Y-16085884D02*
X21375629Y-16095408D01*
X21375629Y-16095408D02*
X21385153Y-16104931D01*
X21385153Y-16104931D02*
X21394677Y-16123979D01*
X21394677Y-16123979D02*
X21404201Y-16162074D01*
X21404201Y-16162074D02*
X21404201Y-16209693D01*
X21404201Y-16209693D02*
X21394677Y-16247788D01*
X21394677Y-16247788D02*
X21385153Y-16266836D01*
X21385153Y-16266836D02*
X21375629Y-16276360D01*
X21375629Y-16276360D02*
X21356582Y-16285884D01*
X21356582Y-16285884D02*
X21337534Y-16285884D01*
X21337534Y-16285884D02*
X21318487Y-16276360D01*
X21318487Y-16276360D02*
X21308963Y-16266836D01*
X21308963Y-16266836D02*
X21299439Y-16247788D01*
X21299439Y-16247788D02*
X21289915Y-16209693D01*
X21289915Y-16209693D02*
X21289915Y-16162074D01*
X21289915Y-16162074D02*
X21299439Y-16123979D01*
X21299439Y-16123979D02*
X21308963Y-16104931D01*
X21308963Y-16104931D02*
X21318487Y-16095408D01*
X21318487Y-16095408D02*
X21337534Y-16085884D01*
X21489915Y-16266836D02*
X21499439Y-16276360D01*
X21499439Y-16276360D02*
X21489915Y-16285884D01*
X21489915Y-16285884D02*
X21480391Y-16276360D01*
X21480391Y-16276360D02*
X21489915Y-16266836D01*
X21489915Y-16266836D02*
X21489915Y-16285884D01*
X21623248Y-16085884D02*
X21642296Y-16085884D01*
X21642296Y-16085884D02*
X21661344Y-16095408D01*
X21661344Y-16095408D02*
X21670868Y-16104931D01*
X21670868Y-16104931D02*
X21680391Y-16123979D01*
X21680391Y-16123979D02*
X21689915Y-16162074D01*
X21689915Y-16162074D02*
X21689915Y-16209693D01*
X21689915Y-16209693D02*
X21680391Y-16247788D01*
X21680391Y-16247788D02*
X21670868Y-16266836D01*
X21670868Y-16266836D02*
X21661344Y-16276360D01*
X21661344Y-16276360D02*
X21642296Y-16285884D01*
X21642296Y-16285884D02*
X21623248Y-16285884D01*
X21623248Y-16285884D02*
X21604201Y-16276360D01*
X21604201Y-16276360D02*
X21594677Y-16266836D01*
X21594677Y-16266836D02*
X21585153Y-16247788D01*
X21585153Y-16247788D02*
X21575629Y-16209693D01*
X21575629Y-16209693D02*
X21575629Y-16162074D01*
X21575629Y-16162074D02*
X21585153Y-16123979D01*
X21585153Y-16123979D02*
X21594677Y-16104931D01*
X21594677Y-16104931D02*
X21604201Y-16095408D01*
X21604201Y-16095408D02*
X21623248Y-16085884D01*
X21880391Y-16285884D02*
X21766106Y-16285884D01*
X21823248Y-16285884D02*
X21823248Y-16085884D01*
X21823248Y-16085884D02*
X21804201Y-16114455D01*
X21804201Y-16114455D02*
X21785153Y-16133503D01*
X21785153Y-16133503D02*
X21766106Y-16143027D01*
X22070868Y-16285884D02*
X21956582Y-16285884D01*
X22013725Y-16285884D02*
X22013725Y-16085884D01*
X22013725Y-16085884D02*
X21994677Y-16114455D01*
X21994677Y-16114455D02*
X21975629Y-16133503D01*
X21975629Y-16133503D02*
X21956582Y-16143027D01*
X22185153Y-16171598D02*
X22166106Y-16162074D01*
X22166106Y-16162074D02*
X22156582Y-16152550D01*
X22156582Y-16152550D02*
X22147058Y-16133503D01*
X22147058Y-16133503D02*
X22147058Y-16123979D01*
X22147058Y-16123979D02*
X22156582Y-16104931D01*
X22156582Y-16104931D02*
X22166106Y-16095408D01*
X22166106Y-16095408D02*
X22185153Y-16085884D01*
X22185153Y-16085884D02*
X22223249Y-16085884D01*
X22223249Y-16085884D02*
X22242296Y-16095408D01*
X22242296Y-16095408D02*
X22251820Y-16104931D01*
X22251820Y-16104931D02*
X22261344Y-16123979D01*
X22261344Y-16123979D02*
X22261344Y-16133503D01*
X22261344Y-16133503D02*
X22251820Y-16152550D01*
X22251820Y-16152550D02*
X22242296Y-16162074D01*
X22242296Y-16162074D02*
X22223249Y-16171598D01*
X22223249Y-16171598D02*
X22185153Y-16171598D01*
X22185153Y-16171598D02*
X22166106Y-16181122D01*
X22166106Y-16181122D02*
X22156582Y-16190646D01*
X22156582Y-16190646D02*
X22147058Y-16209693D01*
X22147058Y-16209693D02*
X22147058Y-16247788D01*
X22147058Y-16247788D02*
X22156582Y-16266836D01*
X22156582Y-16266836D02*
X22166106Y-16276360D01*
X22166106Y-16276360D02*
X22185153Y-16285884D01*
X22185153Y-16285884D02*
X22223249Y-16285884D01*
X22223249Y-16285884D02*
X22242296Y-16276360D01*
X22242296Y-16276360D02*
X22251820Y-16266836D01*
X22251820Y-16266836D02*
X22261344Y-16247788D01*
X22261344Y-16247788D02*
X22261344Y-16209693D01*
X22261344Y-16209693D02*
X22251820Y-16190646D01*
X22251820Y-16190646D02*
X22242296Y-16181122D01*
X22242296Y-16181122D02*
X22223249Y-16171598D01*
X22337534Y-16085884D02*
X22337534Y-16123979D01*
X22413725Y-16085884D02*
X22413725Y-16123979D01*
X22708963Y-16362074D02*
X22699439Y-16352550D01*
X22699439Y-16352550D02*
X22680391Y-16323979D01*
X22680391Y-16323979D02*
X22670868Y-16304931D01*
X22670868Y-16304931D02*
X22661344Y-16276360D01*
X22661344Y-16276360D02*
X22651820Y-16228741D01*
X22651820Y-16228741D02*
X22651820Y-16190646D01*
X22651820Y-16190646D02*
X22661344Y-16143027D01*
X22661344Y-16143027D02*
X22670868Y-16114455D01*
X22670868Y-16114455D02*
X22680391Y-16095408D01*
X22680391Y-16095408D02*
X22699439Y-16066836D01*
X22699439Y-16066836D02*
X22708963Y-16057312D01*
X22775629Y-16104931D02*
X22785153Y-16095408D01*
X22785153Y-16095408D02*
X22804201Y-16085884D01*
X22804201Y-16085884D02*
X22851820Y-16085884D01*
X22851820Y-16085884D02*
X22870868Y-16095408D01*
X22870868Y-16095408D02*
X22880391Y-16104931D01*
X22880391Y-16104931D02*
X22889915Y-16123979D01*
X22889915Y-16123979D02*
X22889915Y-16143027D01*
X22889915Y-16143027D02*
X22880391Y-16171598D01*
X22880391Y-16171598D02*
X22766106Y-16285884D01*
X22766106Y-16285884D02*
X22889915Y-16285884D01*
X23013725Y-16085884D02*
X23032772Y-16085884D01*
X23032772Y-16085884D02*
X23051820Y-16095408D01*
X23051820Y-16095408D02*
X23061344Y-16104931D01*
X23061344Y-16104931D02*
X23070868Y-16123979D01*
X23070868Y-16123979D02*
X23080391Y-16162074D01*
X23080391Y-16162074D02*
X23080391Y-16209693D01*
X23080391Y-16209693D02*
X23070868Y-16247788D01*
X23070868Y-16247788D02*
X23061344Y-16266836D01*
X23061344Y-16266836D02*
X23051820Y-16276360D01*
X23051820Y-16276360D02*
X23032772Y-16285884D01*
X23032772Y-16285884D02*
X23013725Y-16285884D01*
X23013725Y-16285884D02*
X22994677Y-16276360D01*
X22994677Y-16276360D02*
X22985153Y-16266836D01*
X22985153Y-16266836D02*
X22975629Y-16247788D01*
X22975629Y-16247788D02*
X22966106Y-16209693D01*
X22966106Y-16209693D02*
X22966106Y-16162074D01*
X22966106Y-16162074D02*
X22975629Y-16123979D01*
X22975629Y-16123979D02*
X22985153Y-16104931D01*
X22985153Y-16104931D02*
X22994677Y-16095408D01*
X22994677Y-16095408D02*
X23013725Y-16085884D01*
X23318487Y-16285884D02*
X23318487Y-16085884D01*
X23404201Y-16285884D02*
X23404201Y-16181122D01*
X23404201Y-16181122D02*
X23394677Y-16162074D01*
X23394677Y-16162074D02*
X23375630Y-16152550D01*
X23375630Y-16152550D02*
X23347058Y-16152550D01*
X23347058Y-16152550D02*
X23328010Y-16162074D01*
X23328010Y-16162074D02*
X23318487Y-16171598D01*
X23528010Y-16285884D02*
X23508963Y-16276360D01*
X23508963Y-16276360D02*
X23499439Y-16266836D01*
X23499439Y-16266836D02*
X23489915Y-16247788D01*
X23489915Y-16247788D02*
X23489915Y-16190646D01*
X23489915Y-16190646D02*
X23499439Y-16171598D01*
X23499439Y-16171598D02*
X23508963Y-16162074D01*
X23508963Y-16162074D02*
X23528010Y-16152550D01*
X23528010Y-16152550D02*
X23556582Y-16152550D01*
X23556582Y-16152550D02*
X23575630Y-16162074D01*
X23575630Y-16162074D02*
X23585153Y-16171598D01*
X23585153Y-16171598D02*
X23594677Y-16190646D01*
X23594677Y-16190646D02*
X23594677Y-16247788D01*
X23594677Y-16247788D02*
X23585153Y-16266836D01*
X23585153Y-16266836D02*
X23575630Y-16276360D01*
X23575630Y-16276360D02*
X23556582Y-16285884D01*
X23556582Y-16285884D02*
X23528010Y-16285884D01*
X23708963Y-16285884D02*
X23689915Y-16276360D01*
X23689915Y-16276360D02*
X23680391Y-16257312D01*
X23680391Y-16257312D02*
X23680391Y-16085884D01*
X23861344Y-16276360D02*
X23842296Y-16285884D01*
X23842296Y-16285884D02*
X23804201Y-16285884D01*
X23804201Y-16285884D02*
X23785153Y-16276360D01*
X23785153Y-16276360D02*
X23775630Y-16257312D01*
X23775630Y-16257312D02*
X23775630Y-16181122D01*
X23775630Y-16181122D02*
X23785153Y-16162074D01*
X23785153Y-16162074D02*
X23804201Y-16152550D01*
X23804201Y-16152550D02*
X23842296Y-16152550D01*
X23842296Y-16152550D02*
X23861344Y-16162074D01*
X23861344Y-16162074D02*
X23870868Y-16181122D01*
X23870868Y-16181122D02*
X23870868Y-16200169D01*
X23870868Y-16200169D02*
X23775630Y-16219217D01*
X23947058Y-16276360D02*
X23966106Y-16285884D01*
X23966106Y-16285884D02*
X24004201Y-16285884D01*
X24004201Y-16285884D02*
X24023249Y-16276360D01*
X24023249Y-16276360D02*
X24032772Y-16257312D01*
X24032772Y-16257312D02*
X24032772Y-16247788D01*
X24032772Y-16247788D02*
X24023249Y-16228741D01*
X24023249Y-16228741D02*
X24004201Y-16219217D01*
X24004201Y-16219217D02*
X23975630Y-16219217D01*
X23975630Y-16219217D02*
X23956582Y-16209693D01*
X23956582Y-16209693D02*
X23947058Y-16190646D01*
X23947058Y-16190646D02*
X23947058Y-16181122D01*
X23947058Y-16181122D02*
X23956582Y-16162074D01*
X23956582Y-16162074D02*
X23975630Y-16152550D01*
X23975630Y-16152550D02*
X24004201Y-16152550D01*
X24004201Y-16152550D02*
X24023249Y-16162074D01*
X24099439Y-16362074D02*
X24108963Y-16352550D01*
X24108963Y-16352550D02*
X24128011Y-16323979D01*
X24128011Y-16323979D02*
X24137534Y-16304931D01*
X24137534Y-16304931D02*
X24147058Y-16276360D01*
X24147058Y-16276360D02*
X24156582Y-16228741D01*
X24156582Y-16228741D02*
X24156582Y-16190646D01*
X24156582Y-16190646D02*
X24147058Y-16143027D01*
X24147058Y-16143027D02*
X24137534Y-16114455D01*
X24137534Y-16114455D02*
X24128011Y-16095408D01*
X24128011Y-16095408D02*
X24108963Y-16066836D01*
X24108963Y-16066836D02*
X24099439Y-16057312D01*
D10*
X19103900Y-16488400D02*
X19133900Y-16458400D01*
X19103900Y-16428400D01*
X19073900Y-16458400D01*
X19103900Y-16488400D01*
D11*
X19432772Y-16349884D02*
X19451820Y-16349884D01*
X19451820Y-16349884D02*
X19470867Y-16359408D01*
X19470867Y-16359408D02*
X19480391Y-16368931D01*
X19480391Y-16368931D02*
X19489915Y-16387979D01*
X19489915Y-16387979D02*
X19499439Y-16426074D01*
X19499439Y-16426074D02*
X19499439Y-16473693D01*
X19499439Y-16473693D02*
X19489915Y-16511788D01*
X19489915Y-16511788D02*
X19480391Y-16530836D01*
X19480391Y-16530836D02*
X19470867Y-16540360D01*
X19470867Y-16540360D02*
X19451820Y-16549884D01*
X19451820Y-16549884D02*
X19432772Y-16549884D01*
X19432772Y-16549884D02*
X19413724Y-16540360D01*
X19413724Y-16540360D02*
X19404201Y-16530836D01*
X19404201Y-16530836D02*
X19394677Y-16511788D01*
X19394677Y-16511788D02*
X19385153Y-16473693D01*
X19385153Y-16473693D02*
X19385153Y-16426074D01*
X19385153Y-16426074D02*
X19394677Y-16387979D01*
X19394677Y-16387979D02*
X19404201Y-16368931D01*
X19404201Y-16368931D02*
X19413724Y-16359408D01*
X19413724Y-16359408D02*
X19432772Y-16349884D01*
X19585153Y-16530836D02*
X19594677Y-16540360D01*
X19594677Y-16540360D02*
X19585153Y-16549884D01*
X19585153Y-16549884D02*
X19575629Y-16540360D01*
X19575629Y-16540360D02*
X19585153Y-16530836D01*
X19585153Y-16530836D02*
X19585153Y-16549884D01*
X19766105Y-16349884D02*
X19728010Y-16349884D01*
X19728010Y-16349884D02*
X19708963Y-16359408D01*
X19708963Y-16359408D02*
X19699439Y-16368931D01*
X19699439Y-16368931D02*
X19680391Y-16397503D01*
X19680391Y-16397503D02*
X19670867Y-16435598D01*
X19670867Y-16435598D02*
X19670867Y-16511788D01*
X19670867Y-16511788D02*
X19680391Y-16530836D01*
X19680391Y-16530836D02*
X19689915Y-16540360D01*
X19689915Y-16540360D02*
X19708963Y-16549884D01*
X19708963Y-16549884D02*
X19747058Y-16549884D01*
X19747058Y-16549884D02*
X19766105Y-16540360D01*
X19766105Y-16540360D02*
X19775629Y-16530836D01*
X19775629Y-16530836D02*
X19785153Y-16511788D01*
X19785153Y-16511788D02*
X19785153Y-16464169D01*
X19785153Y-16464169D02*
X19775629Y-16445122D01*
X19775629Y-16445122D02*
X19766105Y-16435598D01*
X19766105Y-16435598D02*
X19747058Y-16426074D01*
X19747058Y-16426074D02*
X19708963Y-16426074D01*
X19708963Y-16426074D02*
X19689915Y-16435598D01*
X19689915Y-16435598D02*
X19680391Y-16445122D01*
X19680391Y-16445122D02*
X19670867Y-16464169D01*
X19908963Y-16349884D02*
X19928010Y-16349884D01*
X19928010Y-16349884D02*
X19947058Y-16359408D01*
X19947058Y-16359408D02*
X19956582Y-16368931D01*
X19956582Y-16368931D02*
X19966105Y-16387979D01*
X19966105Y-16387979D02*
X19975629Y-16426074D01*
X19975629Y-16426074D02*
X19975629Y-16473693D01*
X19975629Y-16473693D02*
X19966105Y-16511788D01*
X19966105Y-16511788D02*
X19956582Y-16530836D01*
X19956582Y-16530836D02*
X19947058Y-16540360D01*
X19947058Y-16540360D02*
X19928010Y-16549884D01*
X19928010Y-16549884D02*
X19908963Y-16549884D01*
X19908963Y-16549884D02*
X19889915Y-16540360D01*
X19889915Y-16540360D02*
X19880391Y-16530836D01*
X19880391Y-16530836D02*
X19870867Y-16511788D01*
X19870867Y-16511788D02*
X19861344Y-16473693D01*
X19861344Y-16473693D02*
X19861344Y-16426074D01*
X19861344Y-16426074D02*
X19870867Y-16387979D01*
X19870867Y-16387979D02*
X19880391Y-16368931D01*
X19880391Y-16368931D02*
X19889915Y-16359408D01*
X19889915Y-16359408D02*
X19908963Y-16349884D01*
X20099439Y-16349884D02*
X20118486Y-16349884D01*
X20118486Y-16349884D02*
X20137534Y-16359408D01*
X20137534Y-16359408D02*
X20147058Y-16368931D01*
X20147058Y-16368931D02*
X20156582Y-16387979D01*
X20156582Y-16387979D02*
X20166105Y-16426074D01*
X20166105Y-16426074D02*
X20166105Y-16473693D01*
X20166105Y-16473693D02*
X20156582Y-16511788D01*
X20156582Y-16511788D02*
X20147058Y-16530836D01*
X20147058Y-16530836D02*
X20137534Y-16540360D01*
X20137534Y-16540360D02*
X20118486Y-16549884D01*
X20118486Y-16549884D02*
X20099439Y-16549884D01*
X20099439Y-16549884D02*
X20080391Y-16540360D01*
X20080391Y-16540360D02*
X20070867Y-16530836D01*
X20070867Y-16530836D02*
X20061344Y-16511788D01*
X20061344Y-16511788D02*
X20051820Y-16473693D01*
X20051820Y-16473693D02*
X20051820Y-16426074D01*
X20051820Y-16426074D02*
X20061344Y-16387979D01*
X20061344Y-16387979D02*
X20070867Y-16368931D01*
X20070867Y-16368931D02*
X20080391Y-16359408D01*
X20080391Y-16359408D02*
X20099439Y-16349884D01*
X20251820Y-16549884D02*
X20251820Y-16416550D01*
X20251820Y-16435598D02*
X20261344Y-16426074D01*
X20261344Y-16426074D02*
X20280391Y-16416550D01*
X20280391Y-16416550D02*
X20308963Y-16416550D01*
X20308963Y-16416550D02*
X20328010Y-16426074D01*
X20328010Y-16426074D02*
X20337534Y-16445122D01*
X20337534Y-16445122D02*
X20337534Y-16549884D01*
X20337534Y-16445122D02*
X20347058Y-16426074D01*
X20347058Y-16426074D02*
X20366105Y-16416550D01*
X20366105Y-16416550D02*
X20394677Y-16416550D01*
X20394677Y-16416550D02*
X20413725Y-16426074D01*
X20413725Y-16426074D02*
X20423248Y-16445122D01*
X20423248Y-16445122D02*
X20423248Y-16549884D01*
X20518486Y-16549884D02*
X20518486Y-16416550D01*
X20518486Y-16435598D02*
X20528010Y-16426074D01*
X20528010Y-16426074D02*
X20547058Y-16416550D01*
X20547058Y-16416550D02*
X20575629Y-16416550D01*
X20575629Y-16416550D02*
X20594677Y-16426074D01*
X20594677Y-16426074D02*
X20604201Y-16445122D01*
X20604201Y-16445122D02*
X20604201Y-16549884D01*
X20604201Y-16445122D02*
X20613725Y-16426074D01*
X20613725Y-16426074D02*
X20632772Y-16416550D01*
X20632772Y-16416550D02*
X20661344Y-16416550D01*
X20661344Y-16416550D02*
X20680391Y-16426074D01*
X20680391Y-16426074D02*
X20689915Y-16445122D01*
X20689915Y-16445122D02*
X20689915Y-16549884D01*
X21080391Y-16340360D02*
X20908963Y-16597503D01*
X21337534Y-16349884D02*
X21356582Y-16349884D01*
X21356582Y-16349884D02*
X21375629Y-16359408D01*
X21375629Y-16359408D02*
X21385153Y-16368931D01*
X21385153Y-16368931D02*
X21394677Y-16387979D01*
X21394677Y-16387979D02*
X21404201Y-16426074D01*
X21404201Y-16426074D02*
X21404201Y-16473693D01*
X21404201Y-16473693D02*
X21394677Y-16511788D01*
X21394677Y-16511788D02*
X21385153Y-16530836D01*
X21385153Y-16530836D02*
X21375629Y-16540360D01*
X21375629Y-16540360D02*
X21356582Y-16549884D01*
X21356582Y-16549884D02*
X21337534Y-16549884D01*
X21337534Y-16549884D02*
X21318487Y-16540360D01*
X21318487Y-16540360D02*
X21308963Y-16530836D01*
X21308963Y-16530836D02*
X21299439Y-16511788D01*
X21299439Y-16511788D02*
X21289915Y-16473693D01*
X21289915Y-16473693D02*
X21289915Y-16426074D01*
X21289915Y-16426074D02*
X21299439Y-16387979D01*
X21299439Y-16387979D02*
X21308963Y-16368931D01*
X21308963Y-16368931D02*
X21318487Y-16359408D01*
X21318487Y-16359408D02*
X21337534Y-16349884D01*
X21489915Y-16530836D02*
X21499439Y-16540360D01*
X21499439Y-16540360D02*
X21489915Y-16549884D01*
X21489915Y-16549884D02*
X21480391Y-16540360D01*
X21480391Y-16540360D02*
X21489915Y-16530836D01*
X21489915Y-16530836D02*
X21489915Y-16549884D01*
X21623248Y-16349884D02*
X21642296Y-16349884D01*
X21642296Y-16349884D02*
X21661344Y-16359408D01*
X21661344Y-16359408D02*
X21670868Y-16368931D01*
X21670868Y-16368931D02*
X21680391Y-16387979D01*
X21680391Y-16387979D02*
X21689915Y-16426074D01*
X21689915Y-16426074D02*
X21689915Y-16473693D01*
X21689915Y-16473693D02*
X21680391Y-16511788D01*
X21680391Y-16511788D02*
X21670868Y-16530836D01*
X21670868Y-16530836D02*
X21661344Y-16540360D01*
X21661344Y-16540360D02*
X21642296Y-16549884D01*
X21642296Y-16549884D02*
X21623248Y-16549884D01*
X21623248Y-16549884D02*
X21604201Y-16540360D01*
X21604201Y-16540360D02*
X21594677Y-16530836D01*
X21594677Y-16530836D02*
X21585153Y-16511788D01*
X21585153Y-16511788D02*
X21575629Y-16473693D01*
X21575629Y-16473693D02*
X21575629Y-16426074D01*
X21575629Y-16426074D02*
X21585153Y-16387979D01*
X21585153Y-16387979D02*
X21594677Y-16368931D01*
X21594677Y-16368931D02*
X21604201Y-16359408D01*
X21604201Y-16359408D02*
X21623248Y-16349884D01*
X21766106Y-16368931D02*
X21775629Y-16359408D01*
X21775629Y-16359408D02*
X21794677Y-16349884D01*
X21794677Y-16349884D02*
X21842296Y-16349884D01*
X21842296Y-16349884D02*
X21861344Y-16359408D01*
X21861344Y-16359408D02*
X21870868Y-16368931D01*
X21870868Y-16368931D02*
X21880391Y-16387979D01*
X21880391Y-16387979D02*
X21880391Y-16407027D01*
X21880391Y-16407027D02*
X21870868Y-16435598D01*
X21870868Y-16435598D02*
X21756582Y-16549884D01*
X21756582Y-16549884D02*
X21880391Y-16549884D01*
X21947058Y-16349884D02*
X22070868Y-16349884D01*
X22070868Y-16349884D02*
X22004201Y-16426074D01*
X22004201Y-16426074D02*
X22032772Y-16426074D01*
X22032772Y-16426074D02*
X22051820Y-16435598D01*
X22051820Y-16435598D02*
X22061344Y-16445122D01*
X22061344Y-16445122D02*
X22070868Y-16464169D01*
X22070868Y-16464169D02*
X22070868Y-16511788D01*
X22070868Y-16511788D02*
X22061344Y-16530836D01*
X22061344Y-16530836D02*
X22051820Y-16540360D01*
X22051820Y-16540360D02*
X22032772Y-16549884D01*
X22032772Y-16549884D02*
X21975629Y-16549884D01*
X21975629Y-16549884D02*
X21956582Y-16540360D01*
X21956582Y-16540360D02*
X21947058Y-16530836D01*
X22242296Y-16349884D02*
X22204201Y-16349884D01*
X22204201Y-16349884D02*
X22185153Y-16359408D01*
X22185153Y-16359408D02*
X22175629Y-16368931D01*
X22175629Y-16368931D02*
X22156582Y-16397503D01*
X22156582Y-16397503D02*
X22147058Y-16435598D01*
X22147058Y-16435598D02*
X22147058Y-16511788D01*
X22147058Y-16511788D02*
X22156582Y-16530836D01*
X22156582Y-16530836D02*
X22166106Y-16540360D01*
X22166106Y-16540360D02*
X22185153Y-16549884D01*
X22185153Y-16549884D02*
X22223249Y-16549884D01*
X22223249Y-16549884D02*
X22242296Y-16540360D01*
X22242296Y-16540360D02*
X22251820Y-16530836D01*
X22251820Y-16530836D02*
X22261344Y-16511788D01*
X22261344Y-16511788D02*
X22261344Y-16464169D01*
X22261344Y-16464169D02*
X22251820Y-16445122D01*
X22251820Y-16445122D02*
X22242296Y-16435598D01*
X22242296Y-16435598D02*
X22223249Y-16426074D01*
X22223249Y-16426074D02*
X22185153Y-16426074D01*
X22185153Y-16426074D02*
X22166106Y-16435598D01*
X22166106Y-16435598D02*
X22156582Y-16445122D01*
X22156582Y-16445122D02*
X22147058Y-16464169D01*
X22337534Y-16349884D02*
X22337534Y-16387979D01*
X22413725Y-16349884D02*
X22413725Y-16387979D01*
X22708963Y-16626074D02*
X22699439Y-16616550D01*
X22699439Y-16616550D02*
X22680391Y-16587979D01*
X22680391Y-16587979D02*
X22670868Y-16568931D01*
X22670868Y-16568931D02*
X22661344Y-16540360D01*
X22661344Y-16540360D02*
X22651820Y-16492741D01*
X22651820Y-16492741D02*
X22651820Y-16454646D01*
X22651820Y-16454646D02*
X22661344Y-16407027D01*
X22661344Y-16407027D02*
X22670868Y-16378455D01*
X22670868Y-16378455D02*
X22680391Y-16359408D01*
X22680391Y-16359408D02*
X22699439Y-16330836D01*
X22699439Y-16330836D02*
X22708963Y-16321312D01*
X22823248Y-16349884D02*
X22842296Y-16349884D01*
X22842296Y-16349884D02*
X22861344Y-16359408D01*
X22861344Y-16359408D02*
X22870868Y-16368931D01*
X22870868Y-16368931D02*
X22880391Y-16387979D01*
X22880391Y-16387979D02*
X22889915Y-16426074D01*
X22889915Y-16426074D02*
X22889915Y-16473693D01*
X22889915Y-16473693D02*
X22880391Y-16511788D01*
X22880391Y-16511788D02*
X22870868Y-16530836D01*
X22870868Y-16530836D02*
X22861344Y-16540360D01*
X22861344Y-16540360D02*
X22842296Y-16549884D01*
X22842296Y-16549884D02*
X22823248Y-16549884D01*
X22823248Y-16549884D02*
X22804201Y-16540360D01*
X22804201Y-16540360D02*
X22794677Y-16530836D01*
X22794677Y-16530836D02*
X22785153Y-16511788D01*
X22785153Y-16511788D02*
X22775629Y-16473693D01*
X22775629Y-16473693D02*
X22775629Y-16426074D01*
X22775629Y-16426074D02*
X22785153Y-16387979D01*
X22785153Y-16387979D02*
X22794677Y-16368931D01*
X22794677Y-16368931D02*
X22804201Y-16359408D01*
X22804201Y-16359408D02*
X22823248Y-16349884D01*
X23128010Y-16549884D02*
X23128010Y-16349884D01*
X23213725Y-16549884D02*
X23213725Y-16445122D01*
X23213725Y-16445122D02*
X23204201Y-16426074D01*
X23204201Y-16426074D02*
X23185153Y-16416550D01*
X23185153Y-16416550D02*
X23156582Y-16416550D01*
X23156582Y-16416550D02*
X23137534Y-16426074D01*
X23137534Y-16426074D02*
X23128010Y-16435598D01*
X23337534Y-16549884D02*
X23318487Y-16540360D01*
X23318487Y-16540360D02*
X23308963Y-16530836D01*
X23308963Y-16530836D02*
X23299439Y-16511788D01*
X23299439Y-16511788D02*
X23299439Y-16454646D01*
X23299439Y-16454646D02*
X23308963Y-16435598D01*
X23308963Y-16435598D02*
X23318487Y-16426074D01*
X23318487Y-16426074D02*
X23337534Y-16416550D01*
X23337534Y-16416550D02*
X23366106Y-16416550D01*
X23366106Y-16416550D02*
X23385153Y-16426074D01*
X23385153Y-16426074D02*
X23394677Y-16435598D01*
X23394677Y-16435598D02*
X23404201Y-16454646D01*
X23404201Y-16454646D02*
X23404201Y-16511788D01*
X23404201Y-16511788D02*
X23394677Y-16530836D01*
X23394677Y-16530836D02*
X23385153Y-16540360D01*
X23385153Y-16540360D02*
X23366106Y-16549884D01*
X23366106Y-16549884D02*
X23337534Y-16549884D01*
X23518487Y-16549884D02*
X23499439Y-16540360D01*
X23499439Y-16540360D02*
X23489915Y-16521312D01*
X23489915Y-16521312D02*
X23489915Y-16349884D01*
X23670868Y-16540360D02*
X23651820Y-16549884D01*
X23651820Y-16549884D02*
X23613725Y-16549884D01*
X23613725Y-16549884D02*
X23594677Y-16540360D01*
X23594677Y-16540360D02*
X23585153Y-16521312D01*
X23585153Y-16521312D02*
X23585153Y-16445122D01*
X23585153Y-16445122D02*
X23594677Y-16426074D01*
X23594677Y-16426074D02*
X23613725Y-16416550D01*
X23613725Y-16416550D02*
X23651820Y-16416550D01*
X23651820Y-16416550D02*
X23670868Y-16426074D01*
X23670868Y-16426074D02*
X23680391Y-16445122D01*
X23680391Y-16445122D02*
X23680391Y-16464169D01*
X23680391Y-16464169D02*
X23585153Y-16483217D01*
X23756582Y-16540360D02*
X23775630Y-16549884D01*
X23775630Y-16549884D02*
X23813725Y-16549884D01*
X23813725Y-16549884D02*
X23832772Y-16540360D01*
X23832772Y-16540360D02*
X23842296Y-16521312D01*
X23842296Y-16521312D02*
X23842296Y-16511788D01*
X23842296Y-16511788D02*
X23832772Y-16492741D01*
X23832772Y-16492741D02*
X23813725Y-16483217D01*
X23813725Y-16483217D02*
X23785153Y-16483217D01*
X23785153Y-16483217D02*
X23766106Y-16473693D01*
X23766106Y-16473693D02*
X23756582Y-16454646D01*
X23756582Y-16454646D02*
X23756582Y-16445122D01*
X23756582Y-16445122D02*
X23766106Y-16426074D01*
X23766106Y-16426074D02*
X23785153Y-16416550D01*
X23785153Y-16416550D02*
X23813725Y-16416550D01*
X23813725Y-16416550D02*
X23832772Y-16426074D01*
X24080392Y-16473693D02*
X24232773Y-16473693D01*
X24156582Y-16549884D02*
X24156582Y-16397503D01*
X24566106Y-16416550D02*
X24566106Y-16549884D01*
X24518487Y-16340360D02*
X24470868Y-16483217D01*
X24470868Y-16483217D02*
X24594677Y-16483217D01*
X24813725Y-16540360D02*
X24832773Y-16549884D01*
X24832773Y-16549884D02*
X24870868Y-16549884D01*
X24870868Y-16549884D02*
X24889915Y-16540360D01*
X24889915Y-16540360D02*
X24899439Y-16521312D01*
X24899439Y-16521312D02*
X24899439Y-16511788D01*
X24899439Y-16511788D02*
X24889915Y-16492741D01*
X24889915Y-16492741D02*
X24870868Y-16483217D01*
X24870868Y-16483217D02*
X24842296Y-16483217D01*
X24842296Y-16483217D02*
X24823249Y-16473693D01*
X24823249Y-16473693D02*
X24813725Y-16454646D01*
X24813725Y-16454646D02*
X24813725Y-16445122D01*
X24813725Y-16445122D02*
X24823249Y-16426074D01*
X24823249Y-16426074D02*
X24842296Y-16416550D01*
X24842296Y-16416550D02*
X24870868Y-16416550D01*
X24870868Y-16416550D02*
X24889915Y-16426074D01*
X25013725Y-16549884D02*
X24994677Y-16540360D01*
X24994677Y-16540360D02*
X24985154Y-16521312D01*
X24985154Y-16521312D02*
X24985154Y-16349884D01*
X25118487Y-16549884D02*
X25099439Y-16540360D01*
X25099439Y-16540360D02*
X25089915Y-16530836D01*
X25089915Y-16530836D02*
X25080392Y-16511788D01*
X25080392Y-16511788D02*
X25080392Y-16454646D01*
X25080392Y-16454646D02*
X25089915Y-16435598D01*
X25089915Y-16435598D02*
X25099439Y-16426074D01*
X25099439Y-16426074D02*
X25118487Y-16416550D01*
X25118487Y-16416550D02*
X25147058Y-16416550D01*
X25147058Y-16416550D02*
X25166106Y-16426074D01*
X25166106Y-16426074D02*
X25175630Y-16435598D01*
X25175630Y-16435598D02*
X25185154Y-16454646D01*
X25185154Y-16454646D02*
X25185154Y-16511788D01*
X25185154Y-16511788D02*
X25175630Y-16530836D01*
X25175630Y-16530836D02*
X25166106Y-16540360D01*
X25166106Y-16540360D02*
X25147058Y-16549884D01*
X25147058Y-16549884D02*
X25118487Y-16549884D01*
X25242296Y-16416550D02*
X25318487Y-16416550D01*
X25270868Y-16349884D02*
X25270868Y-16521312D01*
X25270868Y-16521312D02*
X25280392Y-16540360D01*
X25280392Y-16540360D02*
X25299439Y-16549884D01*
X25299439Y-16549884D02*
X25318487Y-16549884D01*
X25375630Y-16540360D02*
X25394677Y-16549884D01*
X25394677Y-16549884D02*
X25432773Y-16549884D01*
X25432773Y-16549884D02*
X25451820Y-16540360D01*
X25451820Y-16540360D02*
X25461344Y-16521312D01*
X25461344Y-16521312D02*
X25461344Y-16511788D01*
X25461344Y-16511788D02*
X25451820Y-16492741D01*
X25451820Y-16492741D02*
X25432773Y-16483217D01*
X25432773Y-16483217D02*
X25404201Y-16483217D01*
X25404201Y-16483217D02*
X25385154Y-16473693D01*
X25385154Y-16473693D02*
X25375630Y-16454646D01*
X25375630Y-16454646D02*
X25375630Y-16445122D01*
X25375630Y-16445122D02*
X25385154Y-16426074D01*
X25385154Y-16426074D02*
X25404201Y-16416550D01*
X25404201Y-16416550D02*
X25432773Y-16416550D01*
X25432773Y-16416550D02*
X25451820Y-16426074D01*
X25528011Y-16626074D02*
X25537535Y-16616550D01*
X25537535Y-16616550D02*
X25556582Y-16587979D01*
X25556582Y-16587979D02*
X25566106Y-16568931D01*
X25566106Y-16568931D02*
X25575630Y-16540360D01*
X25575630Y-16540360D02*
X25585154Y-16492741D01*
X25585154Y-16492741D02*
X25585154Y-16454646D01*
X25585154Y-16454646D02*
X25575630Y-16407027D01*
X25575630Y-16407027D02*
X25566106Y-16378455D01*
X25566106Y-16378455D02*
X25556582Y-16359408D01*
X25556582Y-16359408D02*
X25537535Y-16330836D01*
X25537535Y-16330836D02*
X25528011Y-16321312D01*
D10*
X19068900Y-16689900D02*
X19133900Y-16754900D01*
X19133900Y-16689900D02*
X19068900Y-16754900D01*
X19133900Y-16722400D02*
G75*
G02*
X19068900Y-16722400I-32500J0D01*
G01*
X19068900Y-16722400D02*
G75*
G02*
X19133900Y-16722400I32500J0D01*
G01*
D11*
X19432772Y-16613884D02*
X19451820Y-16613884D01*
X19451820Y-16613884D02*
X19470867Y-16623408D01*
X19470867Y-16623408D02*
X19480391Y-16632931D01*
X19480391Y-16632931D02*
X19489915Y-16651979D01*
X19489915Y-16651979D02*
X19499439Y-16690074D01*
X19499439Y-16690074D02*
X19499439Y-16737693D01*
X19499439Y-16737693D02*
X19489915Y-16775788D01*
X19489915Y-16775788D02*
X19480391Y-16794836D01*
X19480391Y-16794836D02*
X19470867Y-16804360D01*
X19470867Y-16804360D02*
X19451820Y-16813884D01*
X19451820Y-16813884D02*
X19432772Y-16813884D01*
X19432772Y-16813884D02*
X19413724Y-16804360D01*
X19413724Y-16804360D02*
X19404201Y-16794836D01*
X19404201Y-16794836D02*
X19394677Y-16775788D01*
X19394677Y-16775788D02*
X19385153Y-16737693D01*
X19385153Y-16737693D02*
X19385153Y-16690074D01*
X19385153Y-16690074D02*
X19394677Y-16651979D01*
X19394677Y-16651979D02*
X19404201Y-16632931D01*
X19404201Y-16632931D02*
X19413724Y-16623408D01*
X19413724Y-16623408D02*
X19432772Y-16613884D01*
X19585153Y-16794836D02*
X19594677Y-16804360D01*
X19594677Y-16804360D02*
X19585153Y-16813884D01*
X19585153Y-16813884D02*
X19575629Y-16804360D01*
X19575629Y-16804360D02*
X19585153Y-16794836D01*
X19585153Y-16794836D02*
X19585153Y-16813884D01*
X19766105Y-16613884D02*
X19728010Y-16613884D01*
X19728010Y-16613884D02*
X19708963Y-16623408D01*
X19708963Y-16623408D02*
X19699439Y-16632931D01*
X19699439Y-16632931D02*
X19680391Y-16661503D01*
X19680391Y-16661503D02*
X19670867Y-16699598D01*
X19670867Y-16699598D02*
X19670867Y-16775788D01*
X19670867Y-16775788D02*
X19680391Y-16794836D01*
X19680391Y-16794836D02*
X19689915Y-16804360D01*
X19689915Y-16804360D02*
X19708963Y-16813884D01*
X19708963Y-16813884D02*
X19747058Y-16813884D01*
X19747058Y-16813884D02*
X19766105Y-16804360D01*
X19766105Y-16804360D02*
X19775629Y-16794836D01*
X19775629Y-16794836D02*
X19785153Y-16775788D01*
X19785153Y-16775788D02*
X19785153Y-16728169D01*
X19785153Y-16728169D02*
X19775629Y-16709122D01*
X19775629Y-16709122D02*
X19766105Y-16699598D01*
X19766105Y-16699598D02*
X19747058Y-16690074D01*
X19747058Y-16690074D02*
X19708963Y-16690074D01*
X19708963Y-16690074D02*
X19689915Y-16699598D01*
X19689915Y-16699598D02*
X19680391Y-16709122D01*
X19680391Y-16709122D02*
X19670867Y-16728169D01*
X19966105Y-16613884D02*
X19870867Y-16613884D01*
X19870867Y-16613884D02*
X19861344Y-16709122D01*
X19861344Y-16709122D02*
X19870867Y-16699598D01*
X19870867Y-16699598D02*
X19889915Y-16690074D01*
X19889915Y-16690074D02*
X19937534Y-16690074D01*
X19937534Y-16690074D02*
X19956582Y-16699598D01*
X19956582Y-16699598D02*
X19966105Y-16709122D01*
X19966105Y-16709122D02*
X19975629Y-16728169D01*
X19975629Y-16728169D02*
X19975629Y-16775788D01*
X19975629Y-16775788D02*
X19966105Y-16794836D01*
X19966105Y-16794836D02*
X19956582Y-16804360D01*
X19956582Y-16804360D02*
X19937534Y-16813884D01*
X19937534Y-16813884D02*
X19889915Y-16813884D01*
X19889915Y-16813884D02*
X19870867Y-16804360D01*
X19870867Y-16804360D02*
X19861344Y-16794836D01*
X20099439Y-16613884D02*
X20118486Y-16613884D01*
X20118486Y-16613884D02*
X20137534Y-16623408D01*
X20137534Y-16623408D02*
X20147058Y-16632931D01*
X20147058Y-16632931D02*
X20156582Y-16651979D01*
X20156582Y-16651979D02*
X20166105Y-16690074D01*
X20166105Y-16690074D02*
X20166105Y-16737693D01*
X20166105Y-16737693D02*
X20156582Y-16775788D01*
X20156582Y-16775788D02*
X20147058Y-16794836D01*
X20147058Y-16794836D02*
X20137534Y-16804360D01*
X20137534Y-16804360D02*
X20118486Y-16813884D01*
X20118486Y-16813884D02*
X20099439Y-16813884D01*
X20099439Y-16813884D02*
X20080391Y-16804360D01*
X20080391Y-16804360D02*
X20070867Y-16794836D01*
X20070867Y-16794836D02*
X20061344Y-16775788D01*
X20061344Y-16775788D02*
X20051820Y-16737693D01*
X20051820Y-16737693D02*
X20051820Y-16690074D01*
X20051820Y-16690074D02*
X20061344Y-16651979D01*
X20061344Y-16651979D02*
X20070867Y-16632931D01*
X20070867Y-16632931D02*
X20080391Y-16623408D01*
X20080391Y-16623408D02*
X20099439Y-16613884D01*
X20251820Y-16813884D02*
X20251820Y-16680550D01*
X20251820Y-16699598D02*
X20261344Y-16690074D01*
X20261344Y-16690074D02*
X20280391Y-16680550D01*
X20280391Y-16680550D02*
X20308963Y-16680550D01*
X20308963Y-16680550D02*
X20328010Y-16690074D01*
X20328010Y-16690074D02*
X20337534Y-16709122D01*
X20337534Y-16709122D02*
X20337534Y-16813884D01*
X20337534Y-16709122D02*
X20347058Y-16690074D01*
X20347058Y-16690074D02*
X20366105Y-16680550D01*
X20366105Y-16680550D02*
X20394677Y-16680550D01*
X20394677Y-16680550D02*
X20413725Y-16690074D01*
X20413725Y-16690074D02*
X20423248Y-16709122D01*
X20423248Y-16709122D02*
X20423248Y-16813884D01*
X20518486Y-16813884D02*
X20518486Y-16680550D01*
X20518486Y-16699598D02*
X20528010Y-16690074D01*
X20528010Y-16690074D02*
X20547058Y-16680550D01*
X20547058Y-16680550D02*
X20575629Y-16680550D01*
X20575629Y-16680550D02*
X20594677Y-16690074D01*
X20594677Y-16690074D02*
X20604201Y-16709122D01*
X20604201Y-16709122D02*
X20604201Y-16813884D01*
X20604201Y-16709122D02*
X20613725Y-16690074D01*
X20613725Y-16690074D02*
X20632772Y-16680550D01*
X20632772Y-16680550D02*
X20661344Y-16680550D01*
X20661344Y-16680550D02*
X20680391Y-16690074D01*
X20680391Y-16690074D02*
X20689915Y-16709122D01*
X20689915Y-16709122D02*
X20689915Y-16813884D01*
X21080391Y-16604360D02*
X20908963Y-16861503D01*
X21337534Y-16613884D02*
X21356582Y-16613884D01*
X21356582Y-16613884D02*
X21375629Y-16623408D01*
X21375629Y-16623408D02*
X21385153Y-16632931D01*
X21385153Y-16632931D02*
X21394677Y-16651979D01*
X21394677Y-16651979D02*
X21404201Y-16690074D01*
X21404201Y-16690074D02*
X21404201Y-16737693D01*
X21404201Y-16737693D02*
X21394677Y-16775788D01*
X21394677Y-16775788D02*
X21385153Y-16794836D01*
X21385153Y-16794836D02*
X21375629Y-16804360D01*
X21375629Y-16804360D02*
X21356582Y-16813884D01*
X21356582Y-16813884D02*
X21337534Y-16813884D01*
X21337534Y-16813884D02*
X21318487Y-16804360D01*
X21318487Y-16804360D02*
X21308963Y-16794836D01*
X21308963Y-16794836D02*
X21299439Y-16775788D01*
X21299439Y-16775788D02*
X21289915Y-16737693D01*
X21289915Y-16737693D02*
X21289915Y-16690074D01*
X21289915Y-16690074D02*
X21299439Y-16651979D01*
X21299439Y-16651979D02*
X21308963Y-16632931D01*
X21308963Y-16632931D02*
X21318487Y-16623408D01*
X21318487Y-16623408D02*
X21337534Y-16613884D01*
X21489915Y-16794836D02*
X21499439Y-16804360D01*
X21499439Y-16804360D02*
X21489915Y-16813884D01*
X21489915Y-16813884D02*
X21480391Y-16804360D01*
X21480391Y-16804360D02*
X21489915Y-16794836D01*
X21489915Y-16794836D02*
X21489915Y-16813884D01*
X21623248Y-16613884D02*
X21642296Y-16613884D01*
X21642296Y-16613884D02*
X21661344Y-16623408D01*
X21661344Y-16623408D02*
X21670868Y-16632931D01*
X21670868Y-16632931D02*
X21680391Y-16651979D01*
X21680391Y-16651979D02*
X21689915Y-16690074D01*
X21689915Y-16690074D02*
X21689915Y-16737693D01*
X21689915Y-16737693D02*
X21680391Y-16775788D01*
X21680391Y-16775788D02*
X21670868Y-16794836D01*
X21670868Y-16794836D02*
X21661344Y-16804360D01*
X21661344Y-16804360D02*
X21642296Y-16813884D01*
X21642296Y-16813884D02*
X21623248Y-16813884D01*
X21623248Y-16813884D02*
X21604201Y-16804360D01*
X21604201Y-16804360D02*
X21594677Y-16794836D01*
X21594677Y-16794836D02*
X21585153Y-16775788D01*
X21585153Y-16775788D02*
X21575629Y-16737693D01*
X21575629Y-16737693D02*
X21575629Y-16690074D01*
X21575629Y-16690074D02*
X21585153Y-16651979D01*
X21585153Y-16651979D02*
X21594677Y-16632931D01*
X21594677Y-16632931D02*
X21604201Y-16623408D01*
X21604201Y-16623408D02*
X21623248Y-16613884D01*
X21766106Y-16632931D02*
X21775629Y-16623408D01*
X21775629Y-16623408D02*
X21794677Y-16613884D01*
X21794677Y-16613884D02*
X21842296Y-16613884D01*
X21842296Y-16613884D02*
X21861344Y-16623408D01*
X21861344Y-16623408D02*
X21870868Y-16632931D01*
X21870868Y-16632931D02*
X21880391Y-16651979D01*
X21880391Y-16651979D02*
X21880391Y-16671027D01*
X21880391Y-16671027D02*
X21870868Y-16699598D01*
X21870868Y-16699598D02*
X21756582Y-16813884D01*
X21756582Y-16813884D02*
X21880391Y-16813884D01*
X22061344Y-16613884D02*
X21966106Y-16613884D01*
X21966106Y-16613884D02*
X21956582Y-16709122D01*
X21956582Y-16709122D02*
X21966106Y-16699598D01*
X21966106Y-16699598D02*
X21985153Y-16690074D01*
X21985153Y-16690074D02*
X22032772Y-16690074D01*
X22032772Y-16690074D02*
X22051820Y-16699598D01*
X22051820Y-16699598D02*
X22061344Y-16709122D01*
X22061344Y-16709122D02*
X22070868Y-16728169D01*
X22070868Y-16728169D02*
X22070868Y-16775788D01*
X22070868Y-16775788D02*
X22061344Y-16794836D01*
X22061344Y-16794836D02*
X22051820Y-16804360D01*
X22051820Y-16804360D02*
X22032772Y-16813884D01*
X22032772Y-16813884D02*
X21985153Y-16813884D01*
X21985153Y-16813884D02*
X21966106Y-16804360D01*
X21966106Y-16804360D02*
X21956582Y-16794836D01*
X22242296Y-16613884D02*
X22204201Y-16613884D01*
X22204201Y-16613884D02*
X22185153Y-16623408D01*
X22185153Y-16623408D02*
X22175629Y-16632931D01*
X22175629Y-16632931D02*
X22156582Y-16661503D01*
X22156582Y-16661503D02*
X22147058Y-16699598D01*
X22147058Y-16699598D02*
X22147058Y-16775788D01*
X22147058Y-16775788D02*
X22156582Y-16794836D01*
X22156582Y-16794836D02*
X22166106Y-16804360D01*
X22166106Y-16804360D02*
X22185153Y-16813884D01*
X22185153Y-16813884D02*
X22223249Y-16813884D01*
X22223249Y-16813884D02*
X22242296Y-16804360D01*
X22242296Y-16804360D02*
X22251820Y-16794836D01*
X22251820Y-16794836D02*
X22261344Y-16775788D01*
X22261344Y-16775788D02*
X22261344Y-16728169D01*
X22261344Y-16728169D02*
X22251820Y-16709122D01*
X22251820Y-16709122D02*
X22242296Y-16699598D01*
X22242296Y-16699598D02*
X22223249Y-16690074D01*
X22223249Y-16690074D02*
X22185153Y-16690074D01*
X22185153Y-16690074D02*
X22166106Y-16699598D01*
X22166106Y-16699598D02*
X22156582Y-16709122D01*
X22156582Y-16709122D02*
X22147058Y-16728169D01*
X22337534Y-16613884D02*
X22337534Y-16651979D01*
X22413725Y-16613884D02*
X22413725Y-16651979D01*
X22708963Y-16890074D02*
X22699439Y-16880550D01*
X22699439Y-16880550D02*
X22680391Y-16851979D01*
X22680391Y-16851979D02*
X22670868Y-16832931D01*
X22670868Y-16832931D02*
X22661344Y-16804360D01*
X22661344Y-16804360D02*
X22651820Y-16756741D01*
X22651820Y-16756741D02*
X22651820Y-16718646D01*
X22651820Y-16718646D02*
X22661344Y-16671027D01*
X22661344Y-16671027D02*
X22670868Y-16642455D01*
X22670868Y-16642455D02*
X22680391Y-16623408D01*
X22680391Y-16623408D02*
X22699439Y-16594836D01*
X22699439Y-16594836D02*
X22708963Y-16585312D01*
X22766106Y-16613884D02*
X22889915Y-16613884D01*
X22889915Y-16613884D02*
X22823248Y-16690074D01*
X22823248Y-16690074D02*
X22851820Y-16690074D01*
X22851820Y-16690074D02*
X22870868Y-16699598D01*
X22870868Y-16699598D02*
X22880391Y-16709122D01*
X22880391Y-16709122D02*
X22889915Y-16728169D01*
X22889915Y-16728169D02*
X22889915Y-16775788D01*
X22889915Y-16775788D02*
X22880391Y-16794836D01*
X22880391Y-16794836D02*
X22870868Y-16804360D01*
X22870868Y-16804360D02*
X22851820Y-16813884D01*
X22851820Y-16813884D02*
X22794677Y-16813884D01*
X22794677Y-16813884D02*
X22775629Y-16804360D01*
X22775629Y-16804360D02*
X22766106Y-16794836D01*
X23013725Y-16613884D02*
X23032772Y-16613884D01*
X23032772Y-16613884D02*
X23051820Y-16623408D01*
X23051820Y-16623408D02*
X23061344Y-16632931D01*
X23061344Y-16632931D02*
X23070868Y-16651979D01*
X23070868Y-16651979D02*
X23080391Y-16690074D01*
X23080391Y-16690074D02*
X23080391Y-16737693D01*
X23080391Y-16737693D02*
X23070868Y-16775788D01*
X23070868Y-16775788D02*
X23061344Y-16794836D01*
X23061344Y-16794836D02*
X23051820Y-16804360D01*
X23051820Y-16804360D02*
X23032772Y-16813884D01*
X23032772Y-16813884D02*
X23013725Y-16813884D01*
X23013725Y-16813884D02*
X22994677Y-16804360D01*
X22994677Y-16804360D02*
X22985153Y-16794836D01*
X22985153Y-16794836D02*
X22975629Y-16775788D01*
X22975629Y-16775788D02*
X22966106Y-16737693D01*
X22966106Y-16737693D02*
X22966106Y-16690074D01*
X22966106Y-16690074D02*
X22975629Y-16651979D01*
X22975629Y-16651979D02*
X22985153Y-16632931D01*
X22985153Y-16632931D02*
X22994677Y-16623408D01*
X22994677Y-16623408D02*
X23013725Y-16613884D01*
X23318487Y-16813884D02*
X23318487Y-16613884D01*
X23404201Y-16813884D02*
X23404201Y-16709122D01*
X23404201Y-16709122D02*
X23394677Y-16690074D01*
X23394677Y-16690074D02*
X23375630Y-16680550D01*
X23375630Y-16680550D02*
X23347058Y-16680550D01*
X23347058Y-16680550D02*
X23328010Y-16690074D01*
X23328010Y-16690074D02*
X23318487Y-16699598D01*
X23528010Y-16813884D02*
X23508963Y-16804360D01*
X23508963Y-16804360D02*
X23499439Y-16794836D01*
X23499439Y-16794836D02*
X23489915Y-16775788D01*
X23489915Y-16775788D02*
X23489915Y-16718646D01*
X23489915Y-16718646D02*
X23499439Y-16699598D01*
X23499439Y-16699598D02*
X23508963Y-16690074D01*
X23508963Y-16690074D02*
X23528010Y-16680550D01*
X23528010Y-16680550D02*
X23556582Y-16680550D01*
X23556582Y-16680550D02*
X23575630Y-16690074D01*
X23575630Y-16690074D02*
X23585153Y-16699598D01*
X23585153Y-16699598D02*
X23594677Y-16718646D01*
X23594677Y-16718646D02*
X23594677Y-16775788D01*
X23594677Y-16775788D02*
X23585153Y-16794836D01*
X23585153Y-16794836D02*
X23575630Y-16804360D01*
X23575630Y-16804360D02*
X23556582Y-16813884D01*
X23556582Y-16813884D02*
X23528010Y-16813884D01*
X23708963Y-16813884D02*
X23689915Y-16804360D01*
X23689915Y-16804360D02*
X23680391Y-16785312D01*
X23680391Y-16785312D02*
X23680391Y-16613884D01*
X23861344Y-16804360D02*
X23842296Y-16813884D01*
X23842296Y-16813884D02*
X23804201Y-16813884D01*
X23804201Y-16813884D02*
X23785153Y-16804360D01*
X23785153Y-16804360D02*
X23775630Y-16785312D01*
X23775630Y-16785312D02*
X23775630Y-16709122D01*
X23775630Y-16709122D02*
X23785153Y-16690074D01*
X23785153Y-16690074D02*
X23804201Y-16680550D01*
X23804201Y-16680550D02*
X23842296Y-16680550D01*
X23842296Y-16680550D02*
X23861344Y-16690074D01*
X23861344Y-16690074D02*
X23870868Y-16709122D01*
X23870868Y-16709122D02*
X23870868Y-16728169D01*
X23870868Y-16728169D02*
X23775630Y-16747217D01*
X23947058Y-16804360D02*
X23966106Y-16813884D01*
X23966106Y-16813884D02*
X24004201Y-16813884D01*
X24004201Y-16813884D02*
X24023249Y-16804360D01*
X24023249Y-16804360D02*
X24032772Y-16785312D01*
X24032772Y-16785312D02*
X24032772Y-16775788D01*
X24032772Y-16775788D02*
X24023249Y-16756741D01*
X24023249Y-16756741D02*
X24004201Y-16747217D01*
X24004201Y-16747217D02*
X23975630Y-16747217D01*
X23975630Y-16747217D02*
X23956582Y-16737693D01*
X23956582Y-16737693D02*
X23947058Y-16718646D01*
X23947058Y-16718646D02*
X23947058Y-16709122D01*
X23947058Y-16709122D02*
X23956582Y-16690074D01*
X23956582Y-16690074D02*
X23975630Y-16680550D01*
X23975630Y-16680550D02*
X24004201Y-16680550D01*
X24004201Y-16680550D02*
X24023249Y-16690074D01*
X24099439Y-16890074D02*
X24108963Y-16880550D01*
X24108963Y-16880550D02*
X24128011Y-16851979D01*
X24128011Y-16851979D02*
X24137534Y-16832931D01*
X24137534Y-16832931D02*
X24147058Y-16804360D01*
X24147058Y-16804360D02*
X24156582Y-16756741D01*
X24156582Y-16756741D02*
X24156582Y-16718646D01*
X24156582Y-16718646D02*
X24147058Y-16671027D01*
X24147058Y-16671027D02*
X24137534Y-16642455D01*
X24137534Y-16642455D02*
X24128011Y-16623408D01*
X24128011Y-16623408D02*
X24108963Y-16594836D01*
X24108963Y-16594836D02*
X24099439Y-16585312D01*
D10*
X19058900Y-16948900D02*
X19133900Y-17023900D01*
X19133900Y-16948900D02*
X19058900Y-17023900D01*
X19096400Y-16948900D02*
X19096400Y-17023900D01*
X19058900Y-16986400D02*
X19133900Y-16986400D01*
D11*
X19432772Y-16877884D02*
X19451820Y-16877884D01*
X19451820Y-16877884D02*
X19470867Y-16887408D01*
X19470867Y-16887408D02*
X19480391Y-16896931D01*
X19480391Y-16896931D02*
X19489915Y-16915979D01*
X19489915Y-16915979D02*
X19499439Y-16954074D01*
X19499439Y-16954074D02*
X19499439Y-17001693D01*
X19499439Y-17001693D02*
X19489915Y-17039789D01*
X19489915Y-17039789D02*
X19480391Y-17058836D01*
X19480391Y-17058836D02*
X19470867Y-17068360D01*
X19470867Y-17068360D02*
X19451820Y-17077884D01*
X19451820Y-17077884D02*
X19432772Y-17077884D01*
X19432772Y-17077884D02*
X19413724Y-17068360D01*
X19413724Y-17068360D02*
X19404201Y-17058836D01*
X19404201Y-17058836D02*
X19394677Y-17039789D01*
X19394677Y-17039789D02*
X19385153Y-17001693D01*
X19385153Y-17001693D02*
X19385153Y-16954074D01*
X19385153Y-16954074D02*
X19394677Y-16915979D01*
X19394677Y-16915979D02*
X19404201Y-16896931D01*
X19404201Y-16896931D02*
X19413724Y-16887408D01*
X19413724Y-16887408D02*
X19432772Y-16877884D01*
X19585153Y-17058836D02*
X19594677Y-17068360D01*
X19594677Y-17068360D02*
X19585153Y-17077884D01*
X19585153Y-17077884D02*
X19575629Y-17068360D01*
X19575629Y-17068360D02*
X19585153Y-17058836D01*
X19585153Y-17058836D02*
X19585153Y-17077884D01*
X19661344Y-16877884D02*
X19794677Y-16877884D01*
X19794677Y-16877884D02*
X19708963Y-17077884D01*
X19966105Y-16877884D02*
X19870867Y-16877884D01*
X19870867Y-16877884D02*
X19861344Y-16973122D01*
X19861344Y-16973122D02*
X19870867Y-16963598D01*
X19870867Y-16963598D02*
X19889915Y-16954074D01*
X19889915Y-16954074D02*
X19937534Y-16954074D01*
X19937534Y-16954074D02*
X19956582Y-16963598D01*
X19956582Y-16963598D02*
X19966105Y-16973122D01*
X19966105Y-16973122D02*
X19975629Y-16992170D01*
X19975629Y-16992170D02*
X19975629Y-17039789D01*
X19975629Y-17039789D02*
X19966105Y-17058836D01*
X19966105Y-17058836D02*
X19956582Y-17068360D01*
X19956582Y-17068360D02*
X19937534Y-17077884D01*
X19937534Y-17077884D02*
X19889915Y-17077884D01*
X19889915Y-17077884D02*
X19870867Y-17068360D01*
X19870867Y-17068360D02*
X19861344Y-17058836D01*
X20099439Y-16877884D02*
X20118486Y-16877884D01*
X20118486Y-16877884D02*
X20137534Y-16887408D01*
X20137534Y-16887408D02*
X20147058Y-16896931D01*
X20147058Y-16896931D02*
X20156582Y-16915979D01*
X20156582Y-16915979D02*
X20166105Y-16954074D01*
X20166105Y-16954074D02*
X20166105Y-17001693D01*
X20166105Y-17001693D02*
X20156582Y-17039789D01*
X20156582Y-17039789D02*
X20147058Y-17058836D01*
X20147058Y-17058836D02*
X20137534Y-17068360D01*
X20137534Y-17068360D02*
X20118486Y-17077884D01*
X20118486Y-17077884D02*
X20099439Y-17077884D01*
X20099439Y-17077884D02*
X20080391Y-17068360D01*
X20080391Y-17068360D02*
X20070867Y-17058836D01*
X20070867Y-17058836D02*
X20061344Y-17039789D01*
X20061344Y-17039789D02*
X20051820Y-17001693D01*
X20051820Y-17001693D02*
X20051820Y-16954074D01*
X20051820Y-16954074D02*
X20061344Y-16915979D01*
X20061344Y-16915979D02*
X20070867Y-16896931D01*
X20070867Y-16896931D02*
X20080391Y-16887408D01*
X20080391Y-16887408D02*
X20099439Y-16877884D01*
X20251820Y-17077884D02*
X20251820Y-16944550D01*
X20251820Y-16963598D02*
X20261344Y-16954074D01*
X20261344Y-16954074D02*
X20280391Y-16944550D01*
X20280391Y-16944550D02*
X20308963Y-16944550D01*
X20308963Y-16944550D02*
X20328010Y-16954074D01*
X20328010Y-16954074D02*
X20337534Y-16973122D01*
X20337534Y-16973122D02*
X20337534Y-17077884D01*
X20337534Y-16973122D02*
X20347058Y-16954074D01*
X20347058Y-16954074D02*
X20366105Y-16944550D01*
X20366105Y-16944550D02*
X20394677Y-16944550D01*
X20394677Y-16944550D02*
X20413725Y-16954074D01*
X20413725Y-16954074D02*
X20423248Y-16973122D01*
X20423248Y-16973122D02*
X20423248Y-17077884D01*
X20518486Y-17077884D02*
X20518486Y-16944550D01*
X20518486Y-16963598D02*
X20528010Y-16954074D01*
X20528010Y-16954074D02*
X20547058Y-16944550D01*
X20547058Y-16944550D02*
X20575629Y-16944550D01*
X20575629Y-16944550D02*
X20594677Y-16954074D01*
X20594677Y-16954074D02*
X20604201Y-16973122D01*
X20604201Y-16973122D02*
X20604201Y-17077884D01*
X20604201Y-16973122D02*
X20613725Y-16954074D01*
X20613725Y-16954074D02*
X20632772Y-16944550D01*
X20632772Y-16944550D02*
X20661344Y-16944550D01*
X20661344Y-16944550D02*
X20680391Y-16954074D01*
X20680391Y-16954074D02*
X20689915Y-16973122D01*
X20689915Y-16973122D02*
X20689915Y-17077884D01*
X21080391Y-16868360D02*
X20908963Y-17125503D01*
X21337534Y-16877884D02*
X21356582Y-16877884D01*
X21356582Y-16877884D02*
X21375629Y-16887408D01*
X21375629Y-16887408D02*
X21385153Y-16896931D01*
X21385153Y-16896931D02*
X21394677Y-16915979D01*
X21394677Y-16915979D02*
X21404201Y-16954074D01*
X21404201Y-16954074D02*
X21404201Y-17001693D01*
X21404201Y-17001693D02*
X21394677Y-17039789D01*
X21394677Y-17039789D02*
X21385153Y-17058836D01*
X21385153Y-17058836D02*
X21375629Y-17068360D01*
X21375629Y-17068360D02*
X21356582Y-17077884D01*
X21356582Y-17077884D02*
X21337534Y-17077884D01*
X21337534Y-17077884D02*
X21318487Y-17068360D01*
X21318487Y-17068360D02*
X21308963Y-17058836D01*
X21308963Y-17058836D02*
X21299439Y-17039789D01*
X21299439Y-17039789D02*
X21289915Y-17001693D01*
X21289915Y-17001693D02*
X21289915Y-16954074D01*
X21289915Y-16954074D02*
X21299439Y-16915979D01*
X21299439Y-16915979D02*
X21308963Y-16896931D01*
X21308963Y-16896931D02*
X21318487Y-16887408D01*
X21318487Y-16887408D02*
X21337534Y-16877884D01*
X21489915Y-17058836D02*
X21499439Y-17068360D01*
X21499439Y-17068360D02*
X21489915Y-17077884D01*
X21489915Y-17077884D02*
X21480391Y-17068360D01*
X21480391Y-17068360D02*
X21489915Y-17058836D01*
X21489915Y-17058836D02*
X21489915Y-17077884D01*
X21623248Y-16877884D02*
X21642296Y-16877884D01*
X21642296Y-16877884D02*
X21661344Y-16887408D01*
X21661344Y-16887408D02*
X21670868Y-16896931D01*
X21670868Y-16896931D02*
X21680391Y-16915979D01*
X21680391Y-16915979D02*
X21689915Y-16954074D01*
X21689915Y-16954074D02*
X21689915Y-17001693D01*
X21689915Y-17001693D02*
X21680391Y-17039789D01*
X21680391Y-17039789D02*
X21670868Y-17058836D01*
X21670868Y-17058836D02*
X21661344Y-17068360D01*
X21661344Y-17068360D02*
X21642296Y-17077884D01*
X21642296Y-17077884D02*
X21623248Y-17077884D01*
X21623248Y-17077884D02*
X21604201Y-17068360D01*
X21604201Y-17068360D02*
X21594677Y-17058836D01*
X21594677Y-17058836D02*
X21585153Y-17039789D01*
X21585153Y-17039789D02*
X21575629Y-17001693D01*
X21575629Y-17001693D02*
X21575629Y-16954074D01*
X21575629Y-16954074D02*
X21585153Y-16915979D01*
X21585153Y-16915979D02*
X21594677Y-16896931D01*
X21594677Y-16896931D02*
X21604201Y-16887408D01*
X21604201Y-16887408D02*
X21623248Y-16877884D01*
X21766106Y-16896931D02*
X21775629Y-16887408D01*
X21775629Y-16887408D02*
X21794677Y-16877884D01*
X21794677Y-16877884D02*
X21842296Y-16877884D01*
X21842296Y-16877884D02*
X21861344Y-16887408D01*
X21861344Y-16887408D02*
X21870868Y-16896931D01*
X21870868Y-16896931D02*
X21880391Y-16915979D01*
X21880391Y-16915979D02*
X21880391Y-16935027D01*
X21880391Y-16935027D02*
X21870868Y-16963598D01*
X21870868Y-16963598D02*
X21756582Y-17077884D01*
X21756582Y-17077884D02*
X21880391Y-17077884D01*
X21975629Y-17077884D02*
X22013725Y-17077884D01*
X22013725Y-17077884D02*
X22032772Y-17068360D01*
X22032772Y-17068360D02*
X22042296Y-17058836D01*
X22042296Y-17058836D02*
X22061344Y-17030265D01*
X22061344Y-17030265D02*
X22070868Y-16992170D01*
X22070868Y-16992170D02*
X22070868Y-16915979D01*
X22070868Y-16915979D02*
X22061344Y-16896931D01*
X22061344Y-16896931D02*
X22051820Y-16887408D01*
X22051820Y-16887408D02*
X22032772Y-16877884D01*
X22032772Y-16877884D02*
X21994677Y-16877884D01*
X21994677Y-16877884D02*
X21975629Y-16887408D01*
X21975629Y-16887408D02*
X21966106Y-16896931D01*
X21966106Y-16896931D02*
X21956582Y-16915979D01*
X21956582Y-16915979D02*
X21956582Y-16963598D01*
X21956582Y-16963598D02*
X21966106Y-16982646D01*
X21966106Y-16982646D02*
X21975629Y-16992170D01*
X21975629Y-16992170D02*
X21994677Y-17001693D01*
X21994677Y-17001693D02*
X22032772Y-17001693D01*
X22032772Y-17001693D02*
X22051820Y-16992170D01*
X22051820Y-16992170D02*
X22061344Y-16982646D01*
X22061344Y-16982646D02*
X22070868Y-16963598D01*
X22251820Y-16877884D02*
X22156582Y-16877884D01*
X22156582Y-16877884D02*
X22147058Y-16973122D01*
X22147058Y-16973122D02*
X22156582Y-16963598D01*
X22156582Y-16963598D02*
X22175629Y-16954074D01*
X22175629Y-16954074D02*
X22223249Y-16954074D01*
X22223249Y-16954074D02*
X22242296Y-16963598D01*
X22242296Y-16963598D02*
X22251820Y-16973122D01*
X22251820Y-16973122D02*
X22261344Y-16992170D01*
X22261344Y-16992170D02*
X22261344Y-17039789D01*
X22261344Y-17039789D02*
X22251820Y-17058836D01*
X22251820Y-17058836D02*
X22242296Y-17068360D01*
X22242296Y-17068360D02*
X22223249Y-17077884D01*
X22223249Y-17077884D02*
X22175629Y-17077884D01*
X22175629Y-17077884D02*
X22156582Y-17068360D01*
X22156582Y-17068360D02*
X22147058Y-17058836D01*
X22337534Y-16877884D02*
X22337534Y-16915979D01*
X22413725Y-16877884D02*
X22413725Y-16915979D01*
X22708963Y-17154074D02*
X22699439Y-17144550D01*
X22699439Y-17144550D02*
X22680391Y-17115979D01*
X22680391Y-17115979D02*
X22670868Y-17096931D01*
X22670868Y-17096931D02*
X22661344Y-17068360D01*
X22661344Y-17068360D02*
X22651820Y-17020741D01*
X22651820Y-17020741D02*
X22651820Y-16982646D01*
X22651820Y-16982646D02*
X22661344Y-16935027D01*
X22661344Y-16935027D02*
X22670868Y-16906455D01*
X22670868Y-16906455D02*
X22680391Y-16887408D01*
X22680391Y-16887408D02*
X22699439Y-16858836D01*
X22699439Y-16858836D02*
X22708963Y-16849312D01*
X22766106Y-16877884D02*
X22889915Y-16877884D01*
X22889915Y-16877884D02*
X22823248Y-16954074D01*
X22823248Y-16954074D02*
X22851820Y-16954074D01*
X22851820Y-16954074D02*
X22870868Y-16963598D01*
X22870868Y-16963598D02*
X22880391Y-16973122D01*
X22880391Y-16973122D02*
X22889915Y-16992170D01*
X22889915Y-16992170D02*
X22889915Y-17039789D01*
X22889915Y-17039789D02*
X22880391Y-17058836D01*
X22880391Y-17058836D02*
X22870868Y-17068360D01*
X22870868Y-17068360D02*
X22851820Y-17077884D01*
X22851820Y-17077884D02*
X22794677Y-17077884D01*
X22794677Y-17077884D02*
X22775629Y-17068360D01*
X22775629Y-17068360D02*
X22766106Y-17058836D01*
X23128010Y-17077884D02*
X23128010Y-16877884D01*
X23213725Y-17077884D02*
X23213725Y-16973122D01*
X23213725Y-16973122D02*
X23204201Y-16954074D01*
X23204201Y-16954074D02*
X23185153Y-16944550D01*
X23185153Y-16944550D02*
X23156582Y-16944550D01*
X23156582Y-16944550D02*
X23137534Y-16954074D01*
X23137534Y-16954074D02*
X23128010Y-16963598D01*
X23337534Y-17077884D02*
X23318487Y-17068360D01*
X23318487Y-17068360D02*
X23308963Y-17058836D01*
X23308963Y-17058836D02*
X23299439Y-17039789D01*
X23299439Y-17039789D02*
X23299439Y-16982646D01*
X23299439Y-16982646D02*
X23308963Y-16963598D01*
X23308963Y-16963598D02*
X23318487Y-16954074D01*
X23318487Y-16954074D02*
X23337534Y-16944550D01*
X23337534Y-16944550D02*
X23366106Y-16944550D01*
X23366106Y-16944550D02*
X23385153Y-16954074D01*
X23385153Y-16954074D02*
X23394677Y-16963598D01*
X23394677Y-16963598D02*
X23404201Y-16982646D01*
X23404201Y-16982646D02*
X23404201Y-17039789D01*
X23404201Y-17039789D02*
X23394677Y-17058836D01*
X23394677Y-17058836D02*
X23385153Y-17068360D01*
X23385153Y-17068360D02*
X23366106Y-17077884D01*
X23366106Y-17077884D02*
X23337534Y-17077884D01*
X23518487Y-17077884D02*
X23499439Y-17068360D01*
X23499439Y-17068360D02*
X23489915Y-17049312D01*
X23489915Y-17049312D02*
X23489915Y-16877884D01*
X23670868Y-17068360D02*
X23651820Y-17077884D01*
X23651820Y-17077884D02*
X23613725Y-17077884D01*
X23613725Y-17077884D02*
X23594677Y-17068360D01*
X23594677Y-17068360D02*
X23585153Y-17049312D01*
X23585153Y-17049312D02*
X23585153Y-16973122D01*
X23585153Y-16973122D02*
X23594677Y-16954074D01*
X23594677Y-16954074D02*
X23613725Y-16944550D01*
X23613725Y-16944550D02*
X23651820Y-16944550D01*
X23651820Y-16944550D02*
X23670868Y-16954074D01*
X23670868Y-16954074D02*
X23680391Y-16973122D01*
X23680391Y-16973122D02*
X23680391Y-16992170D01*
X23680391Y-16992170D02*
X23585153Y-17011217D01*
X23756582Y-17068360D02*
X23775630Y-17077884D01*
X23775630Y-17077884D02*
X23813725Y-17077884D01*
X23813725Y-17077884D02*
X23832772Y-17068360D01*
X23832772Y-17068360D02*
X23842296Y-17049312D01*
X23842296Y-17049312D02*
X23842296Y-17039789D01*
X23842296Y-17039789D02*
X23832772Y-17020741D01*
X23832772Y-17020741D02*
X23813725Y-17011217D01*
X23813725Y-17011217D02*
X23785153Y-17011217D01*
X23785153Y-17011217D02*
X23766106Y-17001693D01*
X23766106Y-17001693D02*
X23756582Y-16982646D01*
X23756582Y-16982646D02*
X23756582Y-16973122D01*
X23756582Y-16973122D02*
X23766106Y-16954074D01*
X23766106Y-16954074D02*
X23785153Y-16944550D01*
X23785153Y-16944550D02*
X23813725Y-16944550D01*
X23813725Y-16944550D02*
X23832772Y-16954074D01*
X23908963Y-17154074D02*
X23918487Y-17144550D01*
X23918487Y-17144550D02*
X23937534Y-17115979D01*
X23937534Y-17115979D02*
X23947058Y-17096931D01*
X23947058Y-17096931D02*
X23956582Y-17068360D01*
X23956582Y-17068360D02*
X23966106Y-17020741D01*
X23966106Y-17020741D02*
X23966106Y-16982646D01*
X23966106Y-16982646D02*
X23956582Y-16935027D01*
X23956582Y-16935027D02*
X23947058Y-16906455D01*
X23947058Y-16906455D02*
X23937534Y-16887408D01*
X23937534Y-16887408D02*
X23918487Y-16858836D01*
X23918487Y-16858836D02*
X23908963Y-16849312D01*
M02*
