M48
; DRILL file {KiCad 8.0.6-8.0.6-0~ubuntu24.04.1} date 2024-12-01T17:34:50-0800
; FORMAT={-:-/ absolute / inch / decimal}
; #@! TF.CreationDate,2024-12-01T17:34:50-08:00
; #@! TF.GenerationSoftware,Kicad,Pcbnew,8.0.6-8.0.6-0~ubuntu24.04.1
; #@! TF.FileFunction,Plated,1,4,PTH
FMAT,2
INCH
; #@! TA.AperFunction,Plated,PTH,ComponentDrill
T1C0.0079
; #@! TA.AperFunction,Plated,PTH,ViaDrill
T2C0.0098
; #@! TA.AperFunction,Plated,PTH,ComponentDrill
T3C0.0118
; #@! TA.AperFunction,Plated,PTH,ComponentDrill
T4C0.0236
; #@! TA.AperFunction,Plated,PTH,ComponentDrill
T5C0.0256
; #@! TA.AperFunction,Plated,PTH,ComponentDrill
T6C0.0295
%
G90
G05
T1
X7.9809Y-5.6303
X7.9809Y-5.6697
T2
X7.7398Y-5.2437
X7.7634Y-5.1862
X7.7634Y-5.3035
X7.8224Y-5.4996
X7.835Y-5.7476
X7.8402Y-5.478
X7.849Y-5.133
X7.8504Y-5.6984
X7.8504Y-5.7823
X7.851Y-5.377
X7.8524Y-5.1654
X7.8567Y-5.4992
X7.8626Y-5.3484
X7.8724Y-5.748
X7.8791Y-5.1646
X7.887Y-5.4209
X7.8881Y-5.6536
X7.8894Y-5.348
X7.9075Y-5.6807
X7.913Y-5.2374
X7.9138Y-5.3764
X7.9171Y-5.4221
X7.9354Y-5.3949
X7.9366Y-5.7677
X7.939Y-5.7
X7.9437Y-5.4382
X7.9601Y-5.7848
X7.961Y-5.2114
X7.9638Y-5.5533
X7.9671Y-5.3943
X7.9701Y-5.7283
X7.975Y-5.2799
X7.9833Y-5.5222
X7.9839Y-5.4945
X7.9886Y-5.1674
X7.9933Y-5.3272
X7.998Y-5.5533
X7.9988Y-5.7016
X8.0071Y-5.439
X8.013Y-5.1004
X8.0268Y-5.3819
X8.0368Y-5.2797
X8.0429Y-5.3213
X8.0445Y-5.7606
X8.0614Y-5.6228
X8.0654Y-5.5846
X8.0713Y-5.3024
X8.072Y-5.2051
X8.075Y-5.7616
X8.0898Y-5.5843
X8.1063Y-5.285
X8.1079Y-5.652
X8.1087Y-5.6787
X8.1173Y-5.7488
X8.1287Y-5.2854
X8.1339Y-5.4484
X8.1374Y-5.4776
X8.1425Y-5.3555
X8.148Y-5.3854
X8.1512Y-5.526
X8.1528Y-5.7374
X8.1661Y-5.7118
X8.1732Y-5.2039
X8.2417Y-5.2083
X8.25Y-5.1177
X8.25Y-5.7303
X8.2567Y-5.6307
X8.2583Y-5.2299
X8.2654Y-5.3765
X8.272Y-5.5909
X8.2795Y-5.6705
X8.289Y-5.4524
X8.2894Y-5.2205
X8.2933Y-5.7028
X8.3008Y-5.4039
X8.3087Y-5.3163
X8.3094Y-5.3598
X8.3165Y-5.2289
X8.3248Y-5.448
X8.3327Y-5.3339
X8.3337Y-5.5323
X8.3362Y-5.3854
X8.3591Y-5.4846
X8.3626Y-5.2823
X8.3862Y-5.5126
X8.4012Y-5.71
X8.4252Y-5.5591
X8.4467Y-5.6675
X8.4846Y-5.2372
X8.4846Y-5.2956
X8.4846Y-5.3586
X8.4846Y-5.4219
X8.4902Y-5.6394
X8.4937Y-5.6673
X8.5057Y-5.1526
X8.5189Y-5.661
X8.5252Y-5.6051
X8.5333Y-5.1567
X8.5476Y-5.2372
X8.5476Y-5.2956
X8.5476Y-5.3586
X8.5476Y-5.4219
X8.5604Y-5.1583
X8.5685Y-5.5803
X8.5967Y-5.1604
X8.5996Y-5.7402
X8.6106Y-5.2372
X8.6106Y-5.2956
X8.6106Y-5.3586
X8.6106Y-5.4219
X8.6193Y-5.5811
X8.626Y-5.5461
X8.6634Y-5.172
X8.6935Y-5.1799
X8.7018Y-5.5083
X8.7242Y-5.5933
X8.7246Y-5.6758
X8.728Y-5.5169
X8.7382Y-5.3067
X8.7386Y-5.2248
X8.7406Y-5.1604
X8.7451Y-5.2563
X8.7535Y-5.4835
X8.7591Y-5.3886
X8.765Y-5.3071
X8.7755Y-5.656
X8.7793Y-5.2569
X8.7798Y-5.4795
X8.7823Y-5.5047
X8.789Y-5.3913
X8.7917Y-5.3528
X8.7925Y-5.3189
X8.7933Y-5.5311
X8.7957Y-5.6732
X8.8Y-5.7409
X8.8008Y-5.4614
X8.8081Y-5.2652
X8.8083Y-5.2406
X8.811Y-5.6528
X8.8126Y-5.5555
X8.8177Y-5.3858
X8.8189Y-5.3409
X8.8319Y-5.7242
X8.8331Y-5.2831
X8.8386Y-5.6524
X8.8429Y-5.3638
X8.8539Y-5.5618
X8.8583Y-5.6331
X8.86Y-5.2921
X8.8606Y-5.2618
X8.8671Y-5.7339
X8.8709Y-5.3453
X8.8732Y-5.3827
X8.8772Y-5.128
X8.8917Y-5.2933
X8.8976Y-5.261
X8.9008Y-5.3461
X8.9008Y-5.74
X8.9016Y-5.4157
X8.9041Y-5.2258
X8.9079Y-5.1819
X8.9138Y-5.1382
X8.9205Y-5.2917
X8.9252Y-5.365
X8.9343Y-5.2472
X8.9343Y-5.4551
X8.938Y-5.103
X8.9445Y-5.2831
X8.9465Y-5.3811
X8.9543Y-5.1659
X8.9543Y-5.2041
X8.9616Y-5.0677
X8.9701Y-5.2555
X8.9717Y-5.3827
X8.9756Y-5.4738
X8.9756Y-5.5235
X8.9756Y-5.5732
X8.9756Y-5.6228
X8.9756Y-5.6725
X8.9756Y-5.7222
X8.9756Y-5.7719
X8.976Y-5.4264
X8.9935Y-5.1823
X8.9939Y-5.2278
X9.0047Y-5.3732
X9.0051Y-5.2646
X9.0106Y-5.0687
X9.0114Y-5.1118
X9.0114Y-5.1526
X9.0199Y-5.4496
X9.0199Y-5.4993
X9.0199Y-5.549
X9.0199Y-5.5986
X9.0199Y-5.6483
X9.0199Y-5.698
X9.0199Y-5.7476
X9.0268Y-5.2047
X9.0378Y-5.3835
X9.0386Y-5.2555
X9.0622Y-5.4778
X9.0622Y-5.5274
X9.0622Y-5.5771
X9.0622Y-5.6268
X9.0622Y-5.6764
X9.0622Y-5.7261
X9.0622Y-5.7758
X9.0634Y-5.4317
X9.0689Y-5.287
X9.0695Y-5.351
X9.072Y-5.2242
X9.0998Y-5.2884
X9.0998Y-5.3492
X9.1018Y-5.4069
X9.103Y-5.4502
X9.103Y-5.4999
X9.103Y-5.5495
X9.103Y-5.5992
X9.103Y-5.6489
X9.103Y-5.6986
X9.103Y-5.7482
T3
X9.1106Y-5.2362
T5
X8.2Y-5.0746
X8.2Y-5.7742
X8.25Y-5.0746
X8.25Y-5.7742
X8.3Y-5.0746
X8.3Y-5.7742
X8.35Y-5.0746
X8.35Y-5.7742
X8.4Y-5.0746
X8.4Y-5.7742
X8.45Y-5.0746
X8.45Y-5.7742
X8.5Y-5.0746
X8.5Y-5.7742
X8.55Y-5.0746
X8.55Y-5.7742
X8.6Y-5.0746
X8.6Y-5.7742
X8.65Y-5.0746
X8.65Y-5.7742
X8.7Y-5.0746
X8.7Y-5.7742
X8.75Y-5.0746
X8.75Y-5.7742
X8.8Y-5.0746
X8.8Y-5.7742
X8.85Y-5.0746
X8.85Y-5.7742
X8.9Y-5.0746
X8.9Y-5.7742
T6
X7.767Y-5.5713
X7.767Y-5.65
X7.767Y-5.7287
T4
G00X7.6573Y-5.085
M15
G01X7.6061Y-5.085
M16
G05
G00X7.6573Y-5.4252
M15
G01X7.6061Y-5.4252
M16
G05
G00X7.802Y-5.085
M15
G01X7.7626Y-5.085
M16
G05
G00X7.802Y-5.4252
M15
G01X7.7626Y-5.4252
M16
G05
M30
