%TF.GenerationSoftware,KiCad,Pcbnew,8.0.6-8.0.6-0~ubuntu24.04.1*%
%TF.CreationDate,2024-12-02T20:40:39-08:00*%
%TF.ProjectId,stm32_bluet_pill,73746d33-325f-4626-9c75-65745f70696c,V2*%
%TF.SameCoordinates,Original*%
%TF.FileFunction,Legend,Bot*%
%TF.FilePolarity,Positive*%
%FSLAX46Y46*%
G04 Gerber Fmt 4.6, Leading zero omitted, Abs format (unit mm)*
G04 Created by KiCad (PCBNEW 8.0.6-8.0.6-0~ubuntu24.04.1) date 2024-12-02 20:40:39*
%MOMM*%
%LPD*%
G01*
G04 APERTURE LIST*
%ADD10C,0.100000*%
%ADD11C,0.150000*%
%ADD12C,0.300000*%
%ADD13C,0.400000*%
%ADD14C,0.200000*%
%ADD15C,0.120000*%
%TA.AperFunction,Profile*%
%ADD16C,0.100000*%
%TD*%
G04 APERTURE END LIST*
D10*
X345821001Y-254402167D02*
X345821001Y-267313833D01*
X362331000Y-267313833D01*
X362331000Y-254402167D01*
X345821001Y-254402167D01*
D11*
X299989000Y-253002200D02*
X407989000Y-253002200D01*
X407989000Y-285002200D01*
X299989000Y-285002200D01*
X299989000Y-253002200D01*
D10*
D11*
X10000000Y-10000000D02*
X409989000Y-10000000D01*
X409989000Y-287002200D01*
X10000000Y-287002200D01*
X10000000Y-10000000D01*
D10*
D11*
X12000000Y-12000000D02*
X407989000Y-12000000D01*
X407989000Y-285002200D01*
X12000000Y-285002200D01*
X12000000Y-12000000D01*
D10*
D11*
X60000000Y-12000000D02*
X60000000Y-10000000D01*
D10*
D11*
X110000000Y-12000000D02*
X110000000Y-10000000D01*
D10*
D11*
X160000000Y-12000000D02*
X160000000Y-10000000D01*
D10*
D11*
X210000000Y-12000000D02*
X210000000Y-10000000D01*
D10*
D11*
X260000000Y-12000000D02*
X260000000Y-10000000D01*
D10*
D11*
X310000000Y-12000000D02*
X310000000Y-10000000D01*
D10*
D11*
X360000000Y-12000000D02*
X360000000Y-10000000D01*
D10*
D11*
X36089160Y-11593604D02*
X35346303Y-11593604D01*
X35717731Y-11593604D02*
X35717731Y-10293604D01*
X35717731Y-10293604D02*
X35593922Y-10479319D01*
X35593922Y-10479319D02*
X35470112Y-10603128D01*
X35470112Y-10603128D02*
X35346303Y-10665033D01*
D10*
D11*
X85346303Y-10417414D02*
X85408207Y-10355509D01*
X85408207Y-10355509D02*
X85532017Y-10293604D01*
X85532017Y-10293604D02*
X85841541Y-10293604D01*
X85841541Y-10293604D02*
X85965350Y-10355509D01*
X85965350Y-10355509D02*
X86027255Y-10417414D01*
X86027255Y-10417414D02*
X86089160Y-10541223D01*
X86089160Y-10541223D02*
X86089160Y-10665033D01*
X86089160Y-10665033D02*
X86027255Y-10850747D01*
X86027255Y-10850747D02*
X85284398Y-11593604D01*
X85284398Y-11593604D02*
X86089160Y-11593604D01*
D10*
D11*
X135284398Y-10293604D02*
X136089160Y-10293604D01*
X136089160Y-10293604D02*
X135655826Y-10788842D01*
X135655826Y-10788842D02*
X135841541Y-10788842D01*
X135841541Y-10788842D02*
X135965350Y-10850747D01*
X135965350Y-10850747D02*
X136027255Y-10912652D01*
X136027255Y-10912652D02*
X136089160Y-11036461D01*
X136089160Y-11036461D02*
X136089160Y-11345985D01*
X136089160Y-11345985D02*
X136027255Y-11469795D01*
X136027255Y-11469795D02*
X135965350Y-11531700D01*
X135965350Y-11531700D02*
X135841541Y-11593604D01*
X135841541Y-11593604D02*
X135470112Y-11593604D01*
X135470112Y-11593604D02*
X135346303Y-11531700D01*
X135346303Y-11531700D02*
X135284398Y-11469795D01*
D10*
D11*
X185965350Y-10726938D02*
X185965350Y-11593604D01*
X185655826Y-10231700D02*
X185346303Y-11160271D01*
X185346303Y-11160271D02*
X186151064Y-11160271D01*
D10*
D11*
X236027255Y-10293604D02*
X235408207Y-10293604D01*
X235408207Y-10293604D02*
X235346303Y-10912652D01*
X235346303Y-10912652D02*
X235408207Y-10850747D01*
X235408207Y-10850747D02*
X235532017Y-10788842D01*
X235532017Y-10788842D02*
X235841541Y-10788842D01*
X235841541Y-10788842D02*
X235965350Y-10850747D01*
X235965350Y-10850747D02*
X236027255Y-10912652D01*
X236027255Y-10912652D02*
X236089160Y-11036461D01*
X236089160Y-11036461D02*
X236089160Y-11345985D01*
X236089160Y-11345985D02*
X236027255Y-11469795D01*
X236027255Y-11469795D02*
X235965350Y-11531700D01*
X235965350Y-11531700D02*
X235841541Y-11593604D01*
X235841541Y-11593604D02*
X235532017Y-11593604D01*
X235532017Y-11593604D02*
X235408207Y-11531700D01*
X235408207Y-11531700D02*
X235346303Y-11469795D01*
D10*
D11*
X285965350Y-10293604D02*
X285717731Y-10293604D01*
X285717731Y-10293604D02*
X285593922Y-10355509D01*
X285593922Y-10355509D02*
X285532017Y-10417414D01*
X285532017Y-10417414D02*
X285408207Y-10603128D01*
X285408207Y-10603128D02*
X285346303Y-10850747D01*
X285346303Y-10850747D02*
X285346303Y-11345985D01*
X285346303Y-11345985D02*
X285408207Y-11469795D01*
X285408207Y-11469795D02*
X285470112Y-11531700D01*
X285470112Y-11531700D02*
X285593922Y-11593604D01*
X285593922Y-11593604D02*
X285841541Y-11593604D01*
X285841541Y-11593604D02*
X285965350Y-11531700D01*
X285965350Y-11531700D02*
X286027255Y-11469795D01*
X286027255Y-11469795D02*
X286089160Y-11345985D01*
X286089160Y-11345985D02*
X286089160Y-11036461D01*
X286089160Y-11036461D02*
X286027255Y-10912652D01*
X286027255Y-10912652D02*
X285965350Y-10850747D01*
X285965350Y-10850747D02*
X285841541Y-10788842D01*
X285841541Y-10788842D02*
X285593922Y-10788842D01*
X285593922Y-10788842D02*
X285470112Y-10850747D01*
X285470112Y-10850747D02*
X285408207Y-10912652D01*
X285408207Y-10912652D02*
X285346303Y-11036461D01*
D10*
D11*
X335284398Y-10293604D02*
X336151064Y-10293604D01*
X336151064Y-10293604D02*
X335593922Y-11593604D01*
D10*
D11*
X385593922Y-10850747D02*
X385470112Y-10788842D01*
X385470112Y-10788842D02*
X385408207Y-10726938D01*
X385408207Y-10726938D02*
X385346303Y-10603128D01*
X385346303Y-10603128D02*
X385346303Y-10541223D01*
X385346303Y-10541223D02*
X385408207Y-10417414D01*
X385408207Y-10417414D02*
X385470112Y-10355509D01*
X385470112Y-10355509D02*
X385593922Y-10293604D01*
X385593922Y-10293604D02*
X385841541Y-10293604D01*
X385841541Y-10293604D02*
X385965350Y-10355509D01*
X385965350Y-10355509D02*
X386027255Y-10417414D01*
X386027255Y-10417414D02*
X386089160Y-10541223D01*
X386089160Y-10541223D02*
X386089160Y-10603128D01*
X386089160Y-10603128D02*
X386027255Y-10726938D01*
X386027255Y-10726938D02*
X385965350Y-10788842D01*
X385965350Y-10788842D02*
X385841541Y-10850747D01*
X385841541Y-10850747D02*
X385593922Y-10850747D01*
X385593922Y-10850747D02*
X385470112Y-10912652D01*
X385470112Y-10912652D02*
X385408207Y-10974557D01*
X385408207Y-10974557D02*
X385346303Y-11098366D01*
X385346303Y-11098366D02*
X385346303Y-11345985D01*
X385346303Y-11345985D02*
X385408207Y-11469795D01*
X385408207Y-11469795D02*
X385470112Y-11531700D01*
X385470112Y-11531700D02*
X385593922Y-11593604D01*
X385593922Y-11593604D02*
X385841541Y-11593604D01*
X385841541Y-11593604D02*
X385965350Y-11531700D01*
X385965350Y-11531700D02*
X386027255Y-11469795D01*
X386027255Y-11469795D02*
X386089160Y-11345985D01*
X386089160Y-11345985D02*
X386089160Y-11098366D01*
X386089160Y-11098366D02*
X386027255Y-10974557D01*
X386027255Y-10974557D02*
X385965350Y-10912652D01*
X385965350Y-10912652D02*
X385841541Y-10850747D01*
D10*
D11*
X60000000Y-285002200D02*
X60000000Y-287002200D01*
D10*
D11*
X110000000Y-285002200D02*
X110000000Y-287002200D01*
D10*
D11*
X160000000Y-285002200D02*
X160000000Y-287002200D01*
D10*
D11*
X210000000Y-285002200D02*
X210000000Y-287002200D01*
D10*
D11*
X260000000Y-285002200D02*
X260000000Y-287002200D01*
D10*
D11*
X310000000Y-285002200D02*
X310000000Y-287002200D01*
D10*
D11*
X360000000Y-285002200D02*
X360000000Y-287002200D01*
D10*
D11*
X36089160Y-286595804D02*
X35346303Y-286595804D01*
X35717731Y-286595804D02*
X35717731Y-285295804D01*
X35717731Y-285295804D02*
X35593922Y-285481519D01*
X35593922Y-285481519D02*
X35470112Y-285605328D01*
X35470112Y-285605328D02*
X35346303Y-285667233D01*
D10*
D11*
X85346303Y-285419614D02*
X85408207Y-285357709D01*
X85408207Y-285357709D02*
X85532017Y-285295804D01*
X85532017Y-285295804D02*
X85841541Y-285295804D01*
X85841541Y-285295804D02*
X85965350Y-285357709D01*
X85965350Y-285357709D02*
X86027255Y-285419614D01*
X86027255Y-285419614D02*
X86089160Y-285543423D01*
X86089160Y-285543423D02*
X86089160Y-285667233D01*
X86089160Y-285667233D02*
X86027255Y-285852947D01*
X86027255Y-285852947D02*
X85284398Y-286595804D01*
X85284398Y-286595804D02*
X86089160Y-286595804D01*
D10*
D11*
X135284398Y-285295804D02*
X136089160Y-285295804D01*
X136089160Y-285295804D02*
X135655826Y-285791042D01*
X135655826Y-285791042D02*
X135841541Y-285791042D01*
X135841541Y-285791042D02*
X135965350Y-285852947D01*
X135965350Y-285852947D02*
X136027255Y-285914852D01*
X136027255Y-285914852D02*
X136089160Y-286038661D01*
X136089160Y-286038661D02*
X136089160Y-286348185D01*
X136089160Y-286348185D02*
X136027255Y-286471995D01*
X136027255Y-286471995D02*
X135965350Y-286533900D01*
X135965350Y-286533900D02*
X135841541Y-286595804D01*
X135841541Y-286595804D02*
X135470112Y-286595804D01*
X135470112Y-286595804D02*
X135346303Y-286533900D01*
X135346303Y-286533900D02*
X135284398Y-286471995D01*
D10*
D11*
X185965350Y-285729138D02*
X185965350Y-286595804D01*
X185655826Y-285233900D02*
X185346303Y-286162471D01*
X185346303Y-286162471D02*
X186151064Y-286162471D01*
D10*
D11*
X236027255Y-285295804D02*
X235408207Y-285295804D01*
X235408207Y-285295804D02*
X235346303Y-285914852D01*
X235346303Y-285914852D02*
X235408207Y-285852947D01*
X235408207Y-285852947D02*
X235532017Y-285791042D01*
X235532017Y-285791042D02*
X235841541Y-285791042D01*
X235841541Y-285791042D02*
X235965350Y-285852947D01*
X235965350Y-285852947D02*
X236027255Y-285914852D01*
X236027255Y-285914852D02*
X236089160Y-286038661D01*
X236089160Y-286038661D02*
X236089160Y-286348185D01*
X236089160Y-286348185D02*
X236027255Y-286471995D01*
X236027255Y-286471995D02*
X235965350Y-286533900D01*
X235965350Y-286533900D02*
X235841541Y-286595804D01*
X235841541Y-286595804D02*
X235532017Y-286595804D01*
X235532017Y-286595804D02*
X235408207Y-286533900D01*
X235408207Y-286533900D02*
X235346303Y-286471995D01*
D10*
D11*
X285965350Y-285295804D02*
X285717731Y-285295804D01*
X285717731Y-285295804D02*
X285593922Y-285357709D01*
X285593922Y-285357709D02*
X285532017Y-285419614D01*
X285532017Y-285419614D02*
X285408207Y-285605328D01*
X285408207Y-285605328D02*
X285346303Y-285852947D01*
X285346303Y-285852947D02*
X285346303Y-286348185D01*
X285346303Y-286348185D02*
X285408207Y-286471995D01*
X285408207Y-286471995D02*
X285470112Y-286533900D01*
X285470112Y-286533900D02*
X285593922Y-286595804D01*
X285593922Y-286595804D02*
X285841541Y-286595804D01*
X285841541Y-286595804D02*
X285965350Y-286533900D01*
X285965350Y-286533900D02*
X286027255Y-286471995D01*
X286027255Y-286471995D02*
X286089160Y-286348185D01*
X286089160Y-286348185D02*
X286089160Y-286038661D01*
X286089160Y-286038661D02*
X286027255Y-285914852D01*
X286027255Y-285914852D02*
X285965350Y-285852947D01*
X285965350Y-285852947D02*
X285841541Y-285791042D01*
X285841541Y-285791042D02*
X285593922Y-285791042D01*
X285593922Y-285791042D02*
X285470112Y-285852947D01*
X285470112Y-285852947D02*
X285408207Y-285914852D01*
X285408207Y-285914852D02*
X285346303Y-286038661D01*
D10*
D11*
X335284398Y-285295804D02*
X336151064Y-285295804D01*
X336151064Y-285295804D02*
X335593922Y-286595804D01*
D10*
D11*
X385593922Y-285852947D02*
X385470112Y-285791042D01*
X385470112Y-285791042D02*
X385408207Y-285729138D01*
X385408207Y-285729138D02*
X385346303Y-285605328D01*
X385346303Y-285605328D02*
X385346303Y-285543423D01*
X385346303Y-285543423D02*
X385408207Y-285419614D01*
X385408207Y-285419614D02*
X385470112Y-285357709D01*
X385470112Y-285357709D02*
X385593922Y-285295804D01*
X385593922Y-285295804D02*
X385841541Y-285295804D01*
X385841541Y-285295804D02*
X385965350Y-285357709D01*
X385965350Y-285357709D02*
X386027255Y-285419614D01*
X386027255Y-285419614D02*
X386089160Y-285543423D01*
X386089160Y-285543423D02*
X386089160Y-285605328D01*
X386089160Y-285605328D02*
X386027255Y-285729138D01*
X386027255Y-285729138D02*
X385965350Y-285791042D01*
X385965350Y-285791042D02*
X385841541Y-285852947D01*
X385841541Y-285852947D02*
X385593922Y-285852947D01*
X385593922Y-285852947D02*
X385470112Y-285914852D01*
X385470112Y-285914852D02*
X385408207Y-285976757D01*
X385408207Y-285976757D02*
X385346303Y-286100566D01*
X385346303Y-286100566D02*
X385346303Y-286348185D01*
X385346303Y-286348185D02*
X385408207Y-286471995D01*
X385408207Y-286471995D02*
X385470112Y-286533900D01*
X385470112Y-286533900D02*
X385593922Y-286595804D01*
X385593922Y-286595804D02*
X385841541Y-286595804D01*
X385841541Y-286595804D02*
X385965350Y-286533900D01*
X385965350Y-286533900D02*
X386027255Y-286471995D01*
X386027255Y-286471995D02*
X386089160Y-286348185D01*
X386089160Y-286348185D02*
X386089160Y-286100566D01*
X386089160Y-286100566D02*
X386027255Y-285976757D01*
X386027255Y-285976757D02*
X385965350Y-285914852D01*
X385965350Y-285914852D02*
X385841541Y-285852947D01*
D10*
D11*
X10000000Y-60000000D02*
X12000000Y-60000000D01*
D10*
D11*
X10000000Y-110000000D02*
X12000000Y-110000000D01*
D10*
D11*
X10000000Y-160000000D02*
X12000000Y-160000000D01*
D10*
D11*
X10000000Y-210000000D02*
X12000000Y-210000000D01*
D10*
D11*
X10000000Y-260000000D02*
X12000000Y-260000000D01*
D10*
D11*
X10690476Y-35222176D02*
X11309523Y-35222176D01*
X10566666Y-35593604D02*
X10999999Y-34293604D01*
X10999999Y-34293604D02*
X11433333Y-35593604D01*
D10*
D11*
X11092857Y-84912652D02*
X11278571Y-84974557D01*
X11278571Y-84974557D02*
X11340476Y-85036461D01*
X11340476Y-85036461D02*
X11402380Y-85160271D01*
X11402380Y-85160271D02*
X11402380Y-85345985D01*
X11402380Y-85345985D02*
X11340476Y-85469795D01*
X11340476Y-85469795D02*
X11278571Y-85531700D01*
X11278571Y-85531700D02*
X11154761Y-85593604D01*
X11154761Y-85593604D02*
X10659523Y-85593604D01*
X10659523Y-85593604D02*
X10659523Y-84293604D01*
X10659523Y-84293604D02*
X11092857Y-84293604D01*
X11092857Y-84293604D02*
X11216666Y-84355509D01*
X11216666Y-84355509D02*
X11278571Y-84417414D01*
X11278571Y-84417414D02*
X11340476Y-84541223D01*
X11340476Y-84541223D02*
X11340476Y-84665033D01*
X11340476Y-84665033D02*
X11278571Y-84788842D01*
X11278571Y-84788842D02*
X11216666Y-84850747D01*
X11216666Y-84850747D02*
X11092857Y-84912652D01*
X11092857Y-84912652D02*
X10659523Y-84912652D01*
D10*
D11*
X11402380Y-135469795D02*
X11340476Y-135531700D01*
X11340476Y-135531700D02*
X11154761Y-135593604D01*
X11154761Y-135593604D02*
X11030952Y-135593604D01*
X11030952Y-135593604D02*
X10845238Y-135531700D01*
X10845238Y-135531700D02*
X10721428Y-135407890D01*
X10721428Y-135407890D02*
X10659523Y-135284080D01*
X10659523Y-135284080D02*
X10597619Y-135036461D01*
X10597619Y-135036461D02*
X10597619Y-134850747D01*
X10597619Y-134850747D02*
X10659523Y-134603128D01*
X10659523Y-134603128D02*
X10721428Y-134479319D01*
X10721428Y-134479319D02*
X10845238Y-134355509D01*
X10845238Y-134355509D02*
X11030952Y-134293604D01*
X11030952Y-134293604D02*
X11154761Y-134293604D01*
X11154761Y-134293604D02*
X11340476Y-134355509D01*
X11340476Y-134355509D02*
X11402380Y-134417414D01*
D10*
D11*
X10659523Y-185593604D02*
X10659523Y-184293604D01*
X10659523Y-184293604D02*
X10969047Y-184293604D01*
X10969047Y-184293604D02*
X11154761Y-184355509D01*
X11154761Y-184355509D02*
X11278571Y-184479319D01*
X11278571Y-184479319D02*
X11340476Y-184603128D01*
X11340476Y-184603128D02*
X11402380Y-184850747D01*
X11402380Y-184850747D02*
X11402380Y-185036461D01*
X11402380Y-185036461D02*
X11340476Y-185284080D01*
X11340476Y-185284080D02*
X11278571Y-185407890D01*
X11278571Y-185407890D02*
X11154761Y-185531700D01*
X11154761Y-185531700D02*
X10969047Y-185593604D01*
X10969047Y-185593604D02*
X10659523Y-185593604D01*
D10*
D11*
X10721428Y-234912652D02*
X11154762Y-234912652D01*
X11340476Y-235593604D02*
X10721428Y-235593604D01*
X10721428Y-235593604D02*
X10721428Y-234293604D01*
X10721428Y-234293604D02*
X11340476Y-234293604D01*
D10*
D11*
X11185714Y-284912652D02*
X10752380Y-284912652D01*
X10752380Y-285593604D02*
X10752380Y-284293604D01*
X10752380Y-284293604D02*
X11371428Y-284293604D01*
D10*
D11*
X409989000Y-60000000D02*
X407989000Y-60000000D01*
D10*
D11*
X409989000Y-110000000D02*
X407989000Y-110000000D01*
D10*
D11*
X409989000Y-160000000D02*
X407989000Y-160000000D01*
D10*
D11*
X409989000Y-210000000D02*
X407989000Y-210000000D01*
D10*
D11*
X409989000Y-260000000D02*
X407989000Y-260000000D01*
D10*
D11*
X408679476Y-35222176D02*
X409298523Y-35222176D01*
X408555666Y-35593604D02*
X408988999Y-34293604D01*
X408988999Y-34293604D02*
X409422333Y-35593604D01*
D10*
D11*
X409081857Y-84912652D02*
X409267571Y-84974557D01*
X409267571Y-84974557D02*
X409329476Y-85036461D01*
X409329476Y-85036461D02*
X409391380Y-85160271D01*
X409391380Y-85160271D02*
X409391380Y-85345985D01*
X409391380Y-85345985D02*
X409329476Y-85469795D01*
X409329476Y-85469795D02*
X409267571Y-85531700D01*
X409267571Y-85531700D02*
X409143761Y-85593604D01*
X409143761Y-85593604D02*
X408648523Y-85593604D01*
X408648523Y-85593604D02*
X408648523Y-84293604D01*
X408648523Y-84293604D02*
X409081857Y-84293604D01*
X409081857Y-84293604D02*
X409205666Y-84355509D01*
X409205666Y-84355509D02*
X409267571Y-84417414D01*
X409267571Y-84417414D02*
X409329476Y-84541223D01*
X409329476Y-84541223D02*
X409329476Y-84665033D01*
X409329476Y-84665033D02*
X409267571Y-84788842D01*
X409267571Y-84788842D02*
X409205666Y-84850747D01*
X409205666Y-84850747D02*
X409081857Y-84912652D01*
X409081857Y-84912652D02*
X408648523Y-84912652D01*
D10*
D11*
X409391380Y-135469795D02*
X409329476Y-135531700D01*
X409329476Y-135531700D02*
X409143761Y-135593604D01*
X409143761Y-135593604D02*
X409019952Y-135593604D01*
X409019952Y-135593604D02*
X408834238Y-135531700D01*
X408834238Y-135531700D02*
X408710428Y-135407890D01*
X408710428Y-135407890D02*
X408648523Y-135284080D01*
X408648523Y-135284080D02*
X408586619Y-135036461D01*
X408586619Y-135036461D02*
X408586619Y-134850747D01*
X408586619Y-134850747D02*
X408648523Y-134603128D01*
X408648523Y-134603128D02*
X408710428Y-134479319D01*
X408710428Y-134479319D02*
X408834238Y-134355509D01*
X408834238Y-134355509D02*
X409019952Y-134293604D01*
X409019952Y-134293604D02*
X409143761Y-134293604D01*
X409143761Y-134293604D02*
X409329476Y-134355509D01*
X409329476Y-134355509D02*
X409391380Y-134417414D01*
D10*
D11*
X408648523Y-185593604D02*
X408648523Y-184293604D01*
X408648523Y-184293604D02*
X408958047Y-184293604D01*
X408958047Y-184293604D02*
X409143761Y-184355509D01*
X409143761Y-184355509D02*
X409267571Y-184479319D01*
X409267571Y-184479319D02*
X409329476Y-184603128D01*
X409329476Y-184603128D02*
X409391380Y-184850747D01*
X409391380Y-184850747D02*
X409391380Y-185036461D01*
X409391380Y-185036461D02*
X409329476Y-185284080D01*
X409329476Y-185284080D02*
X409267571Y-185407890D01*
X409267571Y-185407890D02*
X409143761Y-185531700D01*
X409143761Y-185531700D02*
X408958047Y-185593604D01*
X408958047Y-185593604D02*
X408648523Y-185593604D01*
D10*
D11*
X408710428Y-234912652D02*
X409143762Y-234912652D01*
X409329476Y-235593604D02*
X408710428Y-235593604D01*
X408710428Y-235593604D02*
X408710428Y-234293604D01*
X408710428Y-234293604D02*
X409329476Y-234293604D01*
D10*
D11*
X409174714Y-284912652D02*
X408741380Y-284912652D01*
X408741380Y-285593604D02*
X408741380Y-284293604D01*
X408741380Y-284293604D02*
X409360428Y-284293604D01*
D10*
D11*
X323444826Y-280788328D02*
X323444826Y-279288328D01*
X323444826Y-279288328D02*
X323801969Y-279288328D01*
X323801969Y-279288328D02*
X324016255Y-279359757D01*
X324016255Y-279359757D02*
X324159112Y-279502614D01*
X324159112Y-279502614D02*
X324230541Y-279645471D01*
X324230541Y-279645471D02*
X324301969Y-279931185D01*
X324301969Y-279931185D02*
X324301969Y-280145471D01*
X324301969Y-280145471D02*
X324230541Y-280431185D01*
X324230541Y-280431185D02*
X324159112Y-280574042D01*
X324159112Y-280574042D02*
X324016255Y-280716900D01*
X324016255Y-280716900D02*
X323801969Y-280788328D01*
X323801969Y-280788328D02*
X323444826Y-280788328D01*
X325587684Y-280788328D02*
X325587684Y-280002614D01*
X325587684Y-280002614D02*
X325516255Y-279859757D01*
X325516255Y-279859757D02*
X325373398Y-279788328D01*
X325373398Y-279788328D02*
X325087684Y-279788328D01*
X325087684Y-279788328D02*
X324944826Y-279859757D01*
X325587684Y-280716900D02*
X325444826Y-280788328D01*
X325444826Y-280788328D02*
X325087684Y-280788328D01*
X325087684Y-280788328D02*
X324944826Y-280716900D01*
X324944826Y-280716900D02*
X324873398Y-280574042D01*
X324873398Y-280574042D02*
X324873398Y-280431185D01*
X324873398Y-280431185D02*
X324944826Y-280288328D01*
X324944826Y-280288328D02*
X325087684Y-280216900D01*
X325087684Y-280216900D02*
X325444826Y-280216900D01*
X325444826Y-280216900D02*
X325587684Y-280145471D01*
X326087684Y-279788328D02*
X326659112Y-279788328D01*
X326301969Y-279288328D02*
X326301969Y-280574042D01*
X326301969Y-280574042D02*
X326373398Y-280716900D01*
X326373398Y-280716900D02*
X326516255Y-280788328D01*
X326516255Y-280788328D02*
X326659112Y-280788328D01*
X327730541Y-280716900D02*
X327587684Y-280788328D01*
X327587684Y-280788328D02*
X327301970Y-280788328D01*
X327301970Y-280788328D02*
X327159112Y-280716900D01*
X327159112Y-280716900D02*
X327087684Y-280574042D01*
X327087684Y-280574042D02*
X327087684Y-280002614D01*
X327087684Y-280002614D02*
X327159112Y-279859757D01*
X327159112Y-279859757D02*
X327301970Y-279788328D01*
X327301970Y-279788328D02*
X327587684Y-279788328D01*
X327587684Y-279788328D02*
X327730541Y-279859757D01*
X327730541Y-279859757D02*
X327801970Y-280002614D01*
X327801970Y-280002614D02*
X327801970Y-280145471D01*
X327801970Y-280145471D02*
X327087684Y-280288328D01*
X328444826Y-280645471D02*
X328516255Y-280716900D01*
X328516255Y-280716900D02*
X328444826Y-280788328D01*
X328444826Y-280788328D02*
X328373398Y-280716900D01*
X328373398Y-280716900D02*
X328444826Y-280645471D01*
X328444826Y-280645471D02*
X328444826Y-280788328D01*
X328444826Y-279859757D02*
X328516255Y-279931185D01*
X328516255Y-279931185D02*
X328444826Y-280002614D01*
X328444826Y-280002614D02*
X328373398Y-279931185D01*
X328373398Y-279931185D02*
X328444826Y-279859757D01*
X328444826Y-279859757D02*
X328444826Y-280002614D01*
X330230541Y-279431185D02*
X330301969Y-279359757D01*
X330301969Y-279359757D02*
X330444827Y-279288328D01*
X330444827Y-279288328D02*
X330801969Y-279288328D01*
X330801969Y-279288328D02*
X330944827Y-279359757D01*
X330944827Y-279359757D02*
X331016255Y-279431185D01*
X331016255Y-279431185D02*
X331087684Y-279574042D01*
X331087684Y-279574042D02*
X331087684Y-279716900D01*
X331087684Y-279716900D02*
X331016255Y-279931185D01*
X331016255Y-279931185D02*
X330159112Y-280788328D01*
X330159112Y-280788328D02*
X331087684Y-280788328D01*
X332016255Y-279288328D02*
X332159112Y-279288328D01*
X332159112Y-279288328D02*
X332301969Y-279359757D01*
X332301969Y-279359757D02*
X332373398Y-279431185D01*
X332373398Y-279431185D02*
X332444826Y-279574042D01*
X332444826Y-279574042D02*
X332516255Y-279859757D01*
X332516255Y-279859757D02*
X332516255Y-280216900D01*
X332516255Y-280216900D02*
X332444826Y-280502614D01*
X332444826Y-280502614D02*
X332373398Y-280645471D01*
X332373398Y-280645471D02*
X332301969Y-280716900D01*
X332301969Y-280716900D02*
X332159112Y-280788328D01*
X332159112Y-280788328D02*
X332016255Y-280788328D01*
X332016255Y-280788328D02*
X331873398Y-280716900D01*
X331873398Y-280716900D02*
X331801969Y-280645471D01*
X331801969Y-280645471D02*
X331730540Y-280502614D01*
X331730540Y-280502614D02*
X331659112Y-280216900D01*
X331659112Y-280216900D02*
X331659112Y-279859757D01*
X331659112Y-279859757D02*
X331730540Y-279574042D01*
X331730540Y-279574042D02*
X331801969Y-279431185D01*
X331801969Y-279431185D02*
X331873398Y-279359757D01*
X331873398Y-279359757D02*
X332016255Y-279288328D01*
X333087683Y-279431185D02*
X333159111Y-279359757D01*
X333159111Y-279359757D02*
X333301969Y-279288328D01*
X333301969Y-279288328D02*
X333659111Y-279288328D01*
X333659111Y-279288328D02*
X333801969Y-279359757D01*
X333801969Y-279359757D02*
X333873397Y-279431185D01*
X333873397Y-279431185D02*
X333944826Y-279574042D01*
X333944826Y-279574042D02*
X333944826Y-279716900D01*
X333944826Y-279716900D02*
X333873397Y-279931185D01*
X333873397Y-279931185D02*
X333016254Y-280788328D01*
X333016254Y-280788328D02*
X333944826Y-280788328D01*
X335230540Y-279788328D02*
X335230540Y-280788328D01*
X334873397Y-279216900D02*
X334516254Y-280288328D01*
X334516254Y-280288328D02*
X335444825Y-280288328D01*
X336016253Y-280216900D02*
X337159111Y-280216900D01*
X338159111Y-279288328D02*
X338301968Y-279288328D01*
X338301968Y-279288328D02*
X338444825Y-279359757D01*
X338444825Y-279359757D02*
X338516254Y-279431185D01*
X338516254Y-279431185D02*
X338587682Y-279574042D01*
X338587682Y-279574042D02*
X338659111Y-279859757D01*
X338659111Y-279859757D02*
X338659111Y-280216900D01*
X338659111Y-280216900D02*
X338587682Y-280502614D01*
X338587682Y-280502614D02*
X338516254Y-280645471D01*
X338516254Y-280645471D02*
X338444825Y-280716900D01*
X338444825Y-280716900D02*
X338301968Y-280788328D01*
X338301968Y-280788328D02*
X338159111Y-280788328D01*
X338159111Y-280788328D02*
X338016254Y-280716900D01*
X338016254Y-280716900D02*
X337944825Y-280645471D01*
X337944825Y-280645471D02*
X337873396Y-280502614D01*
X337873396Y-280502614D02*
X337801968Y-280216900D01*
X337801968Y-280216900D02*
X337801968Y-279859757D01*
X337801968Y-279859757D02*
X337873396Y-279574042D01*
X337873396Y-279574042D02*
X337944825Y-279431185D01*
X337944825Y-279431185D02*
X338016254Y-279359757D01*
X338016254Y-279359757D02*
X338159111Y-279288328D01*
X339944825Y-279788328D02*
X339944825Y-280788328D01*
X339587682Y-279216900D02*
X339230539Y-280288328D01*
X339230539Y-280288328D02*
X340159110Y-280288328D01*
X340730538Y-280216900D02*
X341873396Y-280216900D01*
X342873396Y-279288328D02*
X343016253Y-279288328D01*
X343016253Y-279288328D02*
X343159110Y-279359757D01*
X343159110Y-279359757D02*
X343230539Y-279431185D01*
X343230539Y-279431185D02*
X343301967Y-279574042D01*
X343301967Y-279574042D02*
X343373396Y-279859757D01*
X343373396Y-279859757D02*
X343373396Y-280216900D01*
X343373396Y-280216900D02*
X343301967Y-280502614D01*
X343301967Y-280502614D02*
X343230539Y-280645471D01*
X343230539Y-280645471D02*
X343159110Y-280716900D01*
X343159110Y-280716900D02*
X343016253Y-280788328D01*
X343016253Y-280788328D02*
X342873396Y-280788328D01*
X342873396Y-280788328D02*
X342730539Y-280716900D01*
X342730539Y-280716900D02*
X342659110Y-280645471D01*
X342659110Y-280645471D02*
X342587681Y-280502614D01*
X342587681Y-280502614D02*
X342516253Y-280216900D01*
X342516253Y-280216900D02*
X342516253Y-279859757D01*
X342516253Y-279859757D02*
X342587681Y-279574042D01*
X342587681Y-279574042D02*
X342659110Y-279431185D01*
X342659110Y-279431185D02*
X342730539Y-279359757D01*
X342730539Y-279359757D02*
X342873396Y-279288328D01*
X343873395Y-279288328D02*
X344801967Y-279288328D01*
X344801967Y-279288328D02*
X344301967Y-279859757D01*
X344301967Y-279859757D02*
X344516252Y-279859757D01*
X344516252Y-279859757D02*
X344659110Y-279931185D01*
X344659110Y-279931185D02*
X344730538Y-280002614D01*
X344730538Y-280002614D02*
X344801967Y-280145471D01*
X344801967Y-280145471D02*
X344801967Y-280502614D01*
X344801967Y-280502614D02*
X344730538Y-280645471D01*
X344730538Y-280645471D02*
X344659110Y-280716900D01*
X344659110Y-280716900D02*
X344516252Y-280788328D01*
X344516252Y-280788328D02*
X344087681Y-280788328D01*
X344087681Y-280788328D02*
X343944824Y-280716900D01*
X343944824Y-280716900D02*
X343873395Y-280645471D01*
D10*
D11*
X299989000Y-281502200D02*
X407989000Y-281502200D01*
D10*
D11*
X301444826Y-283588328D02*
X301444826Y-282088328D01*
X302301969Y-283588328D02*
X301659112Y-282731185D01*
X302301969Y-282088328D02*
X301444826Y-282945471D01*
X302944826Y-283588328D02*
X302944826Y-282588328D01*
X302944826Y-282088328D02*
X302873398Y-282159757D01*
X302873398Y-282159757D02*
X302944826Y-282231185D01*
X302944826Y-282231185D02*
X303016255Y-282159757D01*
X303016255Y-282159757D02*
X302944826Y-282088328D01*
X302944826Y-282088328D02*
X302944826Y-282231185D01*
X304516255Y-283445471D02*
X304444827Y-283516900D01*
X304444827Y-283516900D02*
X304230541Y-283588328D01*
X304230541Y-283588328D02*
X304087684Y-283588328D01*
X304087684Y-283588328D02*
X303873398Y-283516900D01*
X303873398Y-283516900D02*
X303730541Y-283374042D01*
X303730541Y-283374042D02*
X303659112Y-283231185D01*
X303659112Y-283231185D02*
X303587684Y-282945471D01*
X303587684Y-282945471D02*
X303587684Y-282731185D01*
X303587684Y-282731185D02*
X303659112Y-282445471D01*
X303659112Y-282445471D02*
X303730541Y-282302614D01*
X303730541Y-282302614D02*
X303873398Y-282159757D01*
X303873398Y-282159757D02*
X304087684Y-282088328D01*
X304087684Y-282088328D02*
X304230541Y-282088328D01*
X304230541Y-282088328D02*
X304444827Y-282159757D01*
X304444827Y-282159757D02*
X304516255Y-282231185D01*
X305801970Y-283588328D02*
X305801970Y-282802614D01*
X305801970Y-282802614D02*
X305730541Y-282659757D01*
X305730541Y-282659757D02*
X305587684Y-282588328D01*
X305587684Y-282588328D02*
X305301970Y-282588328D01*
X305301970Y-282588328D02*
X305159112Y-282659757D01*
X305801970Y-283516900D02*
X305659112Y-283588328D01*
X305659112Y-283588328D02*
X305301970Y-283588328D01*
X305301970Y-283588328D02*
X305159112Y-283516900D01*
X305159112Y-283516900D02*
X305087684Y-283374042D01*
X305087684Y-283374042D02*
X305087684Y-283231185D01*
X305087684Y-283231185D02*
X305159112Y-283088328D01*
X305159112Y-283088328D02*
X305301970Y-283016900D01*
X305301970Y-283016900D02*
X305659112Y-283016900D01*
X305659112Y-283016900D02*
X305801970Y-282945471D01*
X307159113Y-283588328D02*
X307159113Y-282088328D01*
X307159113Y-283516900D02*
X307016255Y-283588328D01*
X307016255Y-283588328D02*
X306730541Y-283588328D01*
X306730541Y-283588328D02*
X306587684Y-283516900D01*
X306587684Y-283516900D02*
X306516255Y-283445471D01*
X306516255Y-283445471D02*
X306444827Y-283302614D01*
X306444827Y-283302614D02*
X306444827Y-282874042D01*
X306444827Y-282874042D02*
X306516255Y-282731185D01*
X306516255Y-282731185D02*
X306587684Y-282659757D01*
X306587684Y-282659757D02*
X306730541Y-282588328D01*
X306730541Y-282588328D02*
X307016255Y-282588328D01*
X307016255Y-282588328D02*
X307159113Y-282659757D01*
X309016255Y-282802614D02*
X309516255Y-282802614D01*
X309730541Y-283588328D02*
X309016255Y-283588328D01*
X309016255Y-283588328D02*
X309016255Y-282088328D01*
X309016255Y-282088328D02*
X309730541Y-282088328D01*
X310373398Y-283445471D02*
X310444827Y-283516900D01*
X310444827Y-283516900D02*
X310373398Y-283588328D01*
X310373398Y-283588328D02*
X310301970Y-283516900D01*
X310301970Y-283516900D02*
X310373398Y-283445471D01*
X310373398Y-283445471D02*
X310373398Y-283588328D01*
X311087684Y-283588328D02*
X311087684Y-282088328D01*
X311087684Y-282088328D02*
X311444827Y-282088328D01*
X311444827Y-282088328D02*
X311659113Y-282159757D01*
X311659113Y-282159757D02*
X311801970Y-282302614D01*
X311801970Y-282302614D02*
X311873399Y-282445471D01*
X311873399Y-282445471D02*
X311944827Y-282731185D01*
X311944827Y-282731185D02*
X311944827Y-282945471D01*
X311944827Y-282945471D02*
X311873399Y-283231185D01*
X311873399Y-283231185D02*
X311801970Y-283374042D01*
X311801970Y-283374042D02*
X311659113Y-283516900D01*
X311659113Y-283516900D02*
X311444827Y-283588328D01*
X311444827Y-283588328D02*
X311087684Y-283588328D01*
X312587684Y-283445471D02*
X312659113Y-283516900D01*
X312659113Y-283516900D02*
X312587684Y-283588328D01*
X312587684Y-283588328D02*
X312516256Y-283516900D01*
X312516256Y-283516900D02*
X312587684Y-283445471D01*
X312587684Y-283445471D02*
X312587684Y-283588328D01*
X313230542Y-283159757D02*
X313944828Y-283159757D01*
X313087685Y-283588328D02*
X313587685Y-282088328D01*
X313587685Y-282088328D02*
X314087685Y-283588328D01*
X314587684Y-283445471D02*
X314659113Y-283516900D01*
X314659113Y-283516900D02*
X314587684Y-283588328D01*
X314587684Y-283588328D02*
X314516256Y-283516900D01*
X314516256Y-283516900D02*
X314587684Y-283445471D01*
X314587684Y-283445471D02*
X314587684Y-283588328D01*
X316659113Y-282731185D02*
X316516256Y-282659757D01*
X316516256Y-282659757D02*
X316444827Y-282588328D01*
X316444827Y-282588328D02*
X316373399Y-282445471D01*
X316373399Y-282445471D02*
X316373399Y-282374042D01*
X316373399Y-282374042D02*
X316444827Y-282231185D01*
X316444827Y-282231185D02*
X316516256Y-282159757D01*
X316516256Y-282159757D02*
X316659113Y-282088328D01*
X316659113Y-282088328D02*
X316944827Y-282088328D01*
X316944827Y-282088328D02*
X317087685Y-282159757D01*
X317087685Y-282159757D02*
X317159113Y-282231185D01*
X317159113Y-282231185D02*
X317230542Y-282374042D01*
X317230542Y-282374042D02*
X317230542Y-282445471D01*
X317230542Y-282445471D02*
X317159113Y-282588328D01*
X317159113Y-282588328D02*
X317087685Y-282659757D01*
X317087685Y-282659757D02*
X316944827Y-282731185D01*
X316944827Y-282731185D02*
X316659113Y-282731185D01*
X316659113Y-282731185D02*
X316516256Y-282802614D01*
X316516256Y-282802614D02*
X316444827Y-282874042D01*
X316444827Y-282874042D02*
X316373399Y-283016900D01*
X316373399Y-283016900D02*
X316373399Y-283302614D01*
X316373399Y-283302614D02*
X316444827Y-283445471D01*
X316444827Y-283445471D02*
X316516256Y-283516900D01*
X316516256Y-283516900D02*
X316659113Y-283588328D01*
X316659113Y-283588328D02*
X316944827Y-283588328D01*
X316944827Y-283588328D02*
X317087685Y-283516900D01*
X317087685Y-283516900D02*
X317159113Y-283445471D01*
X317159113Y-283445471D02*
X317230542Y-283302614D01*
X317230542Y-283302614D02*
X317230542Y-283016900D01*
X317230542Y-283016900D02*
X317159113Y-282874042D01*
X317159113Y-282874042D02*
X317087685Y-282802614D01*
X317087685Y-282802614D02*
X316944827Y-282731185D01*
X317873398Y-283445471D02*
X317944827Y-283516900D01*
X317944827Y-283516900D02*
X317873398Y-283588328D01*
X317873398Y-283588328D02*
X317801970Y-283516900D01*
X317801970Y-283516900D02*
X317873398Y-283445471D01*
X317873398Y-283445471D02*
X317873398Y-283588328D01*
X318873399Y-282088328D02*
X319016256Y-282088328D01*
X319016256Y-282088328D02*
X319159113Y-282159757D01*
X319159113Y-282159757D02*
X319230542Y-282231185D01*
X319230542Y-282231185D02*
X319301970Y-282374042D01*
X319301970Y-282374042D02*
X319373399Y-282659757D01*
X319373399Y-282659757D02*
X319373399Y-283016900D01*
X319373399Y-283016900D02*
X319301970Y-283302614D01*
X319301970Y-283302614D02*
X319230542Y-283445471D01*
X319230542Y-283445471D02*
X319159113Y-283516900D01*
X319159113Y-283516900D02*
X319016256Y-283588328D01*
X319016256Y-283588328D02*
X318873399Y-283588328D01*
X318873399Y-283588328D02*
X318730542Y-283516900D01*
X318730542Y-283516900D02*
X318659113Y-283445471D01*
X318659113Y-283445471D02*
X318587684Y-283302614D01*
X318587684Y-283302614D02*
X318516256Y-283016900D01*
X318516256Y-283016900D02*
X318516256Y-282659757D01*
X318516256Y-282659757D02*
X318587684Y-282374042D01*
X318587684Y-282374042D02*
X318659113Y-282231185D01*
X318659113Y-282231185D02*
X318730542Y-282159757D01*
X318730542Y-282159757D02*
X318873399Y-282088328D01*
X320016255Y-283445471D02*
X320087684Y-283516900D01*
X320087684Y-283516900D02*
X320016255Y-283588328D01*
X320016255Y-283588328D02*
X319944827Y-283516900D01*
X319944827Y-283516900D02*
X320016255Y-283445471D01*
X320016255Y-283445471D02*
X320016255Y-283588328D01*
X321373399Y-282088328D02*
X321087684Y-282088328D01*
X321087684Y-282088328D02*
X320944827Y-282159757D01*
X320944827Y-282159757D02*
X320873399Y-282231185D01*
X320873399Y-282231185D02*
X320730541Y-282445471D01*
X320730541Y-282445471D02*
X320659113Y-282731185D01*
X320659113Y-282731185D02*
X320659113Y-283302614D01*
X320659113Y-283302614D02*
X320730541Y-283445471D01*
X320730541Y-283445471D02*
X320801970Y-283516900D01*
X320801970Y-283516900D02*
X320944827Y-283588328D01*
X320944827Y-283588328D02*
X321230541Y-283588328D01*
X321230541Y-283588328D02*
X321373399Y-283516900D01*
X321373399Y-283516900D02*
X321444827Y-283445471D01*
X321444827Y-283445471D02*
X321516256Y-283302614D01*
X321516256Y-283302614D02*
X321516256Y-282945471D01*
X321516256Y-282945471D02*
X321444827Y-282802614D01*
X321444827Y-282802614D02*
X321373399Y-282731185D01*
X321373399Y-282731185D02*
X321230541Y-282659757D01*
X321230541Y-282659757D02*
X320944827Y-282659757D01*
X320944827Y-282659757D02*
X320801970Y-282731185D01*
X320801970Y-282731185D02*
X320730541Y-282802614D01*
X320730541Y-282802614D02*
X320659113Y-282945471D01*
D10*
D11*
X299989000Y-278502200D02*
X407989000Y-278502200D01*
D10*
D12*
X387400653Y-280780528D02*
X386900653Y-280066242D01*
X386543510Y-280780528D02*
X386543510Y-279280528D01*
X386543510Y-279280528D02*
X387114939Y-279280528D01*
X387114939Y-279280528D02*
X387257796Y-279351957D01*
X387257796Y-279351957D02*
X387329225Y-279423385D01*
X387329225Y-279423385D02*
X387400653Y-279566242D01*
X387400653Y-279566242D02*
X387400653Y-279780528D01*
X387400653Y-279780528D02*
X387329225Y-279923385D01*
X387329225Y-279923385D02*
X387257796Y-279994814D01*
X387257796Y-279994814D02*
X387114939Y-280066242D01*
X387114939Y-280066242D02*
X386543510Y-280066242D01*
X388614939Y-280709100D02*
X388472082Y-280780528D01*
X388472082Y-280780528D02*
X388186368Y-280780528D01*
X388186368Y-280780528D02*
X388043510Y-280709100D01*
X388043510Y-280709100D02*
X387972082Y-280566242D01*
X387972082Y-280566242D02*
X387972082Y-279994814D01*
X387972082Y-279994814D02*
X388043510Y-279851957D01*
X388043510Y-279851957D02*
X388186368Y-279780528D01*
X388186368Y-279780528D02*
X388472082Y-279780528D01*
X388472082Y-279780528D02*
X388614939Y-279851957D01*
X388614939Y-279851957D02*
X388686368Y-279994814D01*
X388686368Y-279994814D02*
X388686368Y-280137671D01*
X388686368Y-280137671D02*
X387972082Y-280280528D01*
X389186367Y-279780528D02*
X389543510Y-280780528D01*
X389543510Y-280780528D02*
X389900653Y-279780528D01*
X390472081Y-280637671D02*
X390543510Y-280709100D01*
X390543510Y-280709100D02*
X390472081Y-280780528D01*
X390472081Y-280780528D02*
X390400653Y-280709100D01*
X390400653Y-280709100D02*
X390472081Y-280637671D01*
X390472081Y-280637671D02*
X390472081Y-280780528D01*
X390472081Y-279851957D02*
X390543510Y-279923385D01*
X390543510Y-279923385D02*
X390472081Y-279994814D01*
X390472081Y-279994814D02*
X390400653Y-279923385D01*
X390400653Y-279923385D02*
X390472081Y-279851957D01*
X390472081Y-279851957D02*
X390472081Y-279994814D01*
X392114939Y-279280528D02*
X392614939Y-280780528D01*
X392614939Y-280780528D02*
X393114939Y-279280528D01*
X393543510Y-279423385D02*
X393614938Y-279351957D01*
X393614938Y-279351957D02*
X393757796Y-279280528D01*
X393757796Y-279280528D02*
X394114938Y-279280528D01*
X394114938Y-279280528D02*
X394257796Y-279351957D01*
X394257796Y-279351957D02*
X394329224Y-279423385D01*
X394329224Y-279423385D02*
X394400653Y-279566242D01*
X394400653Y-279566242D02*
X394400653Y-279709100D01*
X394400653Y-279709100D02*
X394329224Y-279923385D01*
X394329224Y-279923385D02*
X393472081Y-280780528D01*
X393472081Y-280780528D02*
X394400653Y-280780528D01*
D10*
D11*
X301373398Y-280716900D02*
X301587684Y-280788328D01*
X301587684Y-280788328D02*
X301944826Y-280788328D01*
X301944826Y-280788328D02*
X302087684Y-280716900D01*
X302087684Y-280716900D02*
X302159112Y-280645471D01*
X302159112Y-280645471D02*
X302230541Y-280502614D01*
X302230541Y-280502614D02*
X302230541Y-280359757D01*
X302230541Y-280359757D02*
X302159112Y-280216900D01*
X302159112Y-280216900D02*
X302087684Y-280145471D01*
X302087684Y-280145471D02*
X301944826Y-280074042D01*
X301944826Y-280074042D02*
X301659112Y-280002614D01*
X301659112Y-280002614D02*
X301516255Y-279931185D01*
X301516255Y-279931185D02*
X301444826Y-279859757D01*
X301444826Y-279859757D02*
X301373398Y-279716900D01*
X301373398Y-279716900D02*
X301373398Y-279574042D01*
X301373398Y-279574042D02*
X301444826Y-279431185D01*
X301444826Y-279431185D02*
X301516255Y-279359757D01*
X301516255Y-279359757D02*
X301659112Y-279288328D01*
X301659112Y-279288328D02*
X302016255Y-279288328D01*
X302016255Y-279288328D02*
X302230541Y-279359757D01*
X302873397Y-280788328D02*
X302873397Y-279788328D01*
X302873397Y-279288328D02*
X302801969Y-279359757D01*
X302801969Y-279359757D02*
X302873397Y-279431185D01*
X302873397Y-279431185D02*
X302944826Y-279359757D01*
X302944826Y-279359757D02*
X302873397Y-279288328D01*
X302873397Y-279288328D02*
X302873397Y-279431185D01*
X303444826Y-279788328D02*
X304230541Y-279788328D01*
X304230541Y-279788328D02*
X303444826Y-280788328D01*
X303444826Y-280788328D02*
X304230541Y-280788328D01*
X305373398Y-280716900D02*
X305230541Y-280788328D01*
X305230541Y-280788328D02*
X304944827Y-280788328D01*
X304944827Y-280788328D02*
X304801969Y-280716900D01*
X304801969Y-280716900D02*
X304730541Y-280574042D01*
X304730541Y-280574042D02*
X304730541Y-280002614D01*
X304730541Y-280002614D02*
X304801969Y-279859757D01*
X304801969Y-279859757D02*
X304944827Y-279788328D01*
X304944827Y-279788328D02*
X305230541Y-279788328D01*
X305230541Y-279788328D02*
X305373398Y-279859757D01*
X305373398Y-279859757D02*
X305444827Y-280002614D01*
X305444827Y-280002614D02*
X305444827Y-280145471D01*
X305444827Y-280145471D02*
X304730541Y-280288328D01*
X306087683Y-280645471D02*
X306159112Y-280716900D01*
X306159112Y-280716900D02*
X306087683Y-280788328D01*
X306087683Y-280788328D02*
X306016255Y-280716900D01*
X306016255Y-280716900D02*
X306087683Y-280645471D01*
X306087683Y-280645471D02*
X306087683Y-280788328D01*
X306087683Y-279859757D02*
X306159112Y-279931185D01*
X306159112Y-279931185D02*
X306087683Y-280002614D01*
X306087683Y-280002614D02*
X306016255Y-279931185D01*
X306016255Y-279931185D02*
X306087683Y-279859757D01*
X306087683Y-279859757D02*
X306087683Y-280002614D01*
X307873398Y-280359757D02*
X308587684Y-280359757D01*
X307730541Y-280788328D02*
X308230541Y-279288328D01*
X308230541Y-279288328D02*
X308730541Y-280788328D01*
X309087683Y-279288328D02*
X310016255Y-279288328D01*
X310016255Y-279288328D02*
X309516255Y-279859757D01*
X309516255Y-279859757D02*
X309730540Y-279859757D01*
X309730540Y-279859757D02*
X309873398Y-279931185D01*
X309873398Y-279931185D02*
X309944826Y-280002614D01*
X309944826Y-280002614D02*
X310016255Y-280145471D01*
X310016255Y-280145471D02*
X310016255Y-280502614D01*
X310016255Y-280502614D02*
X309944826Y-280645471D01*
X309944826Y-280645471D02*
X309873398Y-280716900D01*
X309873398Y-280716900D02*
X309730540Y-280788328D01*
X309730540Y-280788328D02*
X309301969Y-280788328D01*
X309301969Y-280788328D02*
X309159112Y-280716900D01*
X309159112Y-280716900D02*
X309087683Y-280645471D01*
D10*
D11*
X386444826Y-283588328D02*
X386444826Y-282088328D01*
X387801970Y-283588328D02*
X387801970Y-282088328D01*
X387801970Y-283516900D02*
X387659112Y-283588328D01*
X387659112Y-283588328D02*
X387373398Y-283588328D01*
X387373398Y-283588328D02*
X387230541Y-283516900D01*
X387230541Y-283516900D02*
X387159112Y-283445471D01*
X387159112Y-283445471D02*
X387087684Y-283302614D01*
X387087684Y-283302614D02*
X387087684Y-282874042D01*
X387087684Y-282874042D02*
X387159112Y-282731185D01*
X387159112Y-282731185D02*
X387230541Y-282659757D01*
X387230541Y-282659757D02*
X387373398Y-282588328D01*
X387373398Y-282588328D02*
X387659112Y-282588328D01*
X387659112Y-282588328D02*
X387801970Y-282659757D01*
X388516255Y-283445471D02*
X388587684Y-283516900D01*
X388587684Y-283516900D02*
X388516255Y-283588328D01*
X388516255Y-283588328D02*
X388444827Y-283516900D01*
X388444827Y-283516900D02*
X388516255Y-283445471D01*
X388516255Y-283445471D02*
X388516255Y-283588328D01*
X388516255Y-282659757D02*
X388587684Y-282731185D01*
X388587684Y-282731185D02*
X388516255Y-282802614D01*
X388516255Y-282802614D02*
X388444827Y-282731185D01*
X388444827Y-282731185D02*
X388516255Y-282659757D01*
X388516255Y-282659757D02*
X388516255Y-282802614D01*
X391159113Y-283588328D02*
X390301970Y-283588328D01*
X390730541Y-283588328D02*
X390730541Y-282088328D01*
X390730541Y-282088328D02*
X390587684Y-282302614D01*
X390587684Y-282302614D02*
X390444827Y-282445471D01*
X390444827Y-282445471D02*
X390301970Y-282516900D01*
X392873398Y-282016900D02*
X391587684Y-283945471D01*
X394159113Y-283588328D02*
X393301970Y-283588328D01*
X393730541Y-283588328D02*
X393730541Y-282088328D01*
X393730541Y-282088328D02*
X393587684Y-282302614D01*
X393587684Y-282302614D02*
X393444827Y-282445471D01*
X393444827Y-282445471D02*
X393301970Y-282516900D01*
D10*
D11*
X299989000Y-274502200D02*
X407989000Y-274502200D01*
D10*
D13*
X301680728Y-275206638D02*
X302823585Y-275206638D01*
X302002157Y-277206638D02*
X302252157Y-275206638D01*
X303240252Y-277206638D02*
X303406919Y-275873304D01*
X303490252Y-275206638D02*
X303383109Y-275301876D01*
X303383109Y-275301876D02*
X303466443Y-275397114D01*
X303466443Y-275397114D02*
X303573586Y-275301876D01*
X303573586Y-275301876D02*
X303490252Y-275206638D01*
X303490252Y-275206638D02*
X303466443Y-275397114D01*
X304073586Y-275873304D02*
X304835490Y-275873304D01*
X304442633Y-275206638D02*
X304228348Y-276920923D01*
X304228348Y-276920923D02*
X304299776Y-277111400D01*
X304299776Y-277111400D02*
X304478348Y-277206638D01*
X304478348Y-277206638D02*
X304668824Y-277206638D01*
X305621205Y-277206638D02*
X305442633Y-277111400D01*
X305442633Y-277111400D02*
X305371205Y-276920923D01*
X305371205Y-276920923D02*
X305585490Y-275206638D01*
X307156919Y-277111400D02*
X306954538Y-277206638D01*
X306954538Y-277206638D02*
X306573585Y-277206638D01*
X306573585Y-277206638D02*
X306395014Y-277111400D01*
X306395014Y-277111400D02*
X306323585Y-276920923D01*
X306323585Y-276920923D02*
X306418824Y-276159019D01*
X306418824Y-276159019D02*
X306537871Y-275968542D01*
X306537871Y-275968542D02*
X306740252Y-275873304D01*
X306740252Y-275873304D02*
X307121204Y-275873304D01*
X307121204Y-275873304D02*
X307299776Y-275968542D01*
X307299776Y-275968542D02*
X307371204Y-276159019D01*
X307371204Y-276159019D02*
X307347395Y-276349495D01*
X307347395Y-276349495D02*
X306371204Y-276539971D01*
X308121205Y-277016161D02*
X308204538Y-277111400D01*
X308204538Y-277111400D02*
X308097395Y-277206638D01*
X308097395Y-277206638D02*
X308014062Y-277111400D01*
X308014062Y-277111400D02*
X308121205Y-277016161D01*
X308121205Y-277016161D02*
X308097395Y-277206638D01*
X308252157Y-275968542D02*
X308335490Y-276063780D01*
X308335490Y-276063780D02*
X308228348Y-276159019D01*
X308228348Y-276159019D02*
X308145014Y-276063780D01*
X308145014Y-276063780D02*
X308252157Y-275968542D01*
X308252157Y-275968542D02*
X308228348Y-276159019D01*
X310490253Y-277111400D02*
X310668824Y-277206638D01*
X310668824Y-277206638D02*
X311049777Y-277206638D01*
X311049777Y-277206638D02*
X311252158Y-277111400D01*
X311252158Y-277111400D02*
X311371205Y-276920923D01*
X311371205Y-276920923D02*
X311383110Y-276825685D01*
X311383110Y-276825685D02*
X311311681Y-276635209D01*
X311311681Y-276635209D02*
X311133110Y-276539971D01*
X311133110Y-276539971D02*
X310847396Y-276539971D01*
X310847396Y-276539971D02*
X310668824Y-276444733D01*
X310668824Y-276444733D02*
X310597396Y-276254257D01*
X310597396Y-276254257D02*
X310609301Y-276159019D01*
X310609301Y-276159019D02*
X310728348Y-275968542D01*
X310728348Y-275968542D02*
X310930729Y-275873304D01*
X310930729Y-275873304D02*
X311216443Y-275873304D01*
X311216443Y-275873304D02*
X311395015Y-275968542D01*
X312073587Y-275873304D02*
X312835491Y-275873304D01*
X312442634Y-275206638D02*
X312228349Y-276920923D01*
X312228349Y-276920923D02*
X312299777Y-277111400D01*
X312299777Y-277111400D02*
X312478349Y-277206638D01*
X312478349Y-277206638D02*
X312668825Y-277206638D01*
X313335491Y-277206638D02*
X313502158Y-275873304D01*
X313478348Y-276063780D02*
X313585491Y-275968542D01*
X313585491Y-275968542D02*
X313787872Y-275873304D01*
X313787872Y-275873304D02*
X314073586Y-275873304D01*
X314073586Y-275873304D02*
X314252158Y-275968542D01*
X314252158Y-275968542D02*
X314323586Y-276159019D01*
X314323586Y-276159019D02*
X314192634Y-277206638D01*
X314323586Y-276159019D02*
X314442634Y-275968542D01*
X314442634Y-275968542D02*
X314645015Y-275873304D01*
X314645015Y-275873304D02*
X314930729Y-275873304D01*
X314930729Y-275873304D02*
X315109301Y-275968542D01*
X315109301Y-275968542D02*
X315180729Y-276159019D01*
X315180729Y-276159019D02*
X315049777Y-277206638D01*
X316061682Y-275206638D02*
X317299777Y-275206638D01*
X317299777Y-275206638D02*
X316537873Y-275968542D01*
X316537873Y-275968542D02*
X316823587Y-275968542D01*
X316823587Y-275968542D02*
X317002158Y-276063780D01*
X317002158Y-276063780D02*
X317085492Y-276159019D01*
X317085492Y-276159019D02*
X317156920Y-276349495D01*
X317156920Y-276349495D02*
X317097396Y-276825685D01*
X317097396Y-276825685D02*
X316978349Y-277016161D01*
X316978349Y-277016161D02*
X316871206Y-277111400D01*
X316871206Y-277111400D02*
X316668825Y-277206638D01*
X316668825Y-277206638D02*
X316097396Y-277206638D01*
X316097396Y-277206638D02*
X315918825Y-277111400D01*
X315918825Y-277111400D02*
X315835492Y-277016161D01*
X318037873Y-275397114D02*
X318145015Y-275301876D01*
X318145015Y-275301876D02*
X318347396Y-275206638D01*
X318347396Y-275206638D02*
X318823587Y-275206638D01*
X318823587Y-275206638D02*
X319002158Y-275301876D01*
X319002158Y-275301876D02*
X319085492Y-275397114D01*
X319085492Y-275397114D02*
X319156920Y-275587590D01*
X319156920Y-275587590D02*
X319133111Y-275778066D01*
X319133111Y-275778066D02*
X319002158Y-276063780D01*
X319002158Y-276063780D02*
X317716444Y-277206638D01*
X317716444Y-277206638D02*
X318954539Y-277206638D01*
X319311682Y-277397114D02*
X320835492Y-277397114D01*
X321335492Y-277206638D02*
X321585492Y-275206638D01*
X321490254Y-275968542D02*
X321692635Y-275873304D01*
X321692635Y-275873304D02*
X322073587Y-275873304D01*
X322073587Y-275873304D02*
X322252159Y-275968542D01*
X322252159Y-275968542D02*
X322335492Y-276063780D01*
X322335492Y-276063780D02*
X322406921Y-276254257D01*
X322406921Y-276254257D02*
X322335492Y-276825685D01*
X322335492Y-276825685D02*
X322216445Y-277016161D01*
X322216445Y-277016161D02*
X322109302Y-277111400D01*
X322109302Y-277111400D02*
X321906921Y-277206638D01*
X321906921Y-277206638D02*
X321525968Y-277206638D01*
X321525968Y-277206638D02*
X321347397Y-277111400D01*
X323430731Y-277206638D02*
X323252159Y-277111400D01*
X323252159Y-277111400D02*
X323180731Y-276920923D01*
X323180731Y-276920923D02*
X323395016Y-275206638D01*
X325216445Y-275873304D02*
X325049778Y-277206638D01*
X324359302Y-275873304D02*
X324228350Y-276920923D01*
X324228350Y-276920923D02*
X324299778Y-277111400D01*
X324299778Y-277111400D02*
X324478350Y-277206638D01*
X324478350Y-277206638D02*
X324764064Y-277206638D01*
X324764064Y-277206638D02*
X324966445Y-277111400D01*
X324966445Y-277111400D02*
X325073588Y-277016161D01*
X326775969Y-277111400D02*
X326573588Y-277206638D01*
X326573588Y-277206638D02*
X326192635Y-277206638D01*
X326192635Y-277206638D02*
X326014064Y-277111400D01*
X326014064Y-277111400D02*
X325942635Y-276920923D01*
X325942635Y-276920923D02*
X326037874Y-276159019D01*
X326037874Y-276159019D02*
X326156921Y-275968542D01*
X326156921Y-275968542D02*
X326359302Y-275873304D01*
X326359302Y-275873304D02*
X326740254Y-275873304D01*
X326740254Y-275873304D02*
X326918826Y-275968542D01*
X326918826Y-275968542D02*
X326990254Y-276159019D01*
X326990254Y-276159019D02*
X326966445Y-276349495D01*
X326966445Y-276349495D02*
X325990254Y-276539971D01*
X327597398Y-275873304D02*
X328359302Y-275873304D01*
X327966445Y-275206638D02*
X327752160Y-276920923D01*
X327752160Y-276920923D02*
X327823588Y-277111400D01*
X327823588Y-277111400D02*
X328002160Y-277206638D01*
X328002160Y-277206638D02*
X328192636Y-277206638D01*
X328359302Y-277397114D02*
X329883112Y-277397114D01*
X330549779Y-275873304D02*
X330299779Y-277873304D01*
X330537874Y-275968542D02*
X330740255Y-275873304D01*
X330740255Y-275873304D02*
X331121207Y-275873304D01*
X331121207Y-275873304D02*
X331299779Y-275968542D01*
X331299779Y-275968542D02*
X331383112Y-276063780D01*
X331383112Y-276063780D02*
X331454541Y-276254257D01*
X331454541Y-276254257D02*
X331383112Y-276825685D01*
X331383112Y-276825685D02*
X331264065Y-277016161D01*
X331264065Y-277016161D02*
X331156922Y-277111400D01*
X331156922Y-277111400D02*
X330954541Y-277206638D01*
X330954541Y-277206638D02*
X330573588Y-277206638D01*
X330573588Y-277206638D02*
X330395017Y-277111400D01*
X332192636Y-277206638D02*
X332359303Y-275873304D01*
X332442636Y-275206638D02*
X332335493Y-275301876D01*
X332335493Y-275301876D02*
X332418827Y-275397114D01*
X332418827Y-275397114D02*
X332525970Y-275301876D01*
X332525970Y-275301876D02*
X332442636Y-275206638D01*
X332442636Y-275206638D02*
X332418827Y-275397114D01*
X333430732Y-277206638D02*
X333252160Y-277111400D01*
X333252160Y-277111400D02*
X333180732Y-276920923D01*
X333180732Y-276920923D02*
X333395017Y-275206638D01*
X334478351Y-277206638D02*
X334299779Y-277111400D01*
X334299779Y-277111400D02*
X334228351Y-276920923D01*
X334228351Y-276920923D02*
X334442636Y-275206638D01*
D10*
D11*
X301944826Y-272602614D02*
X301444826Y-272602614D01*
X301444826Y-273388328D02*
X301444826Y-271888328D01*
X301444826Y-271888328D02*
X302159112Y-271888328D01*
X302730540Y-273388328D02*
X302730540Y-272388328D01*
X302730540Y-271888328D02*
X302659112Y-271959757D01*
X302659112Y-271959757D02*
X302730540Y-272031185D01*
X302730540Y-272031185D02*
X302801969Y-271959757D01*
X302801969Y-271959757D02*
X302730540Y-271888328D01*
X302730540Y-271888328D02*
X302730540Y-272031185D01*
X303659112Y-273388328D02*
X303516255Y-273316900D01*
X303516255Y-273316900D02*
X303444826Y-273174042D01*
X303444826Y-273174042D02*
X303444826Y-271888328D01*
X304801969Y-273316900D02*
X304659112Y-273388328D01*
X304659112Y-273388328D02*
X304373398Y-273388328D01*
X304373398Y-273388328D02*
X304230540Y-273316900D01*
X304230540Y-273316900D02*
X304159112Y-273174042D01*
X304159112Y-273174042D02*
X304159112Y-272602614D01*
X304159112Y-272602614D02*
X304230540Y-272459757D01*
X304230540Y-272459757D02*
X304373398Y-272388328D01*
X304373398Y-272388328D02*
X304659112Y-272388328D01*
X304659112Y-272388328D02*
X304801969Y-272459757D01*
X304801969Y-272459757D02*
X304873398Y-272602614D01*
X304873398Y-272602614D02*
X304873398Y-272745471D01*
X304873398Y-272745471D02*
X304159112Y-272888328D01*
X305516254Y-273245471D02*
X305587683Y-273316900D01*
X305587683Y-273316900D02*
X305516254Y-273388328D01*
X305516254Y-273388328D02*
X305444826Y-273316900D01*
X305444826Y-273316900D02*
X305516254Y-273245471D01*
X305516254Y-273245471D02*
X305516254Y-273388328D01*
X305516254Y-272459757D02*
X305587683Y-272531185D01*
X305587683Y-272531185D02*
X305516254Y-272602614D01*
X305516254Y-272602614D02*
X305444826Y-272531185D01*
X305444826Y-272531185D02*
X305516254Y-272459757D01*
X305516254Y-272459757D02*
X305516254Y-272602614D01*
X307301969Y-273316900D02*
X307444826Y-273388328D01*
X307444826Y-273388328D02*
X307730540Y-273388328D01*
X307730540Y-273388328D02*
X307873397Y-273316900D01*
X307873397Y-273316900D02*
X307944826Y-273174042D01*
X307944826Y-273174042D02*
X307944826Y-273102614D01*
X307944826Y-273102614D02*
X307873397Y-272959757D01*
X307873397Y-272959757D02*
X307730540Y-272888328D01*
X307730540Y-272888328D02*
X307516255Y-272888328D01*
X307516255Y-272888328D02*
X307373397Y-272816900D01*
X307373397Y-272816900D02*
X307301969Y-272674042D01*
X307301969Y-272674042D02*
X307301969Y-272602614D01*
X307301969Y-272602614D02*
X307373397Y-272459757D01*
X307373397Y-272459757D02*
X307516255Y-272388328D01*
X307516255Y-272388328D02*
X307730540Y-272388328D01*
X307730540Y-272388328D02*
X307873397Y-272459757D01*
X308373398Y-272388328D02*
X308944826Y-272388328D01*
X308587683Y-271888328D02*
X308587683Y-273174042D01*
X308587683Y-273174042D02*
X308659112Y-273316900D01*
X308659112Y-273316900D02*
X308801969Y-273388328D01*
X308801969Y-273388328D02*
X308944826Y-273388328D01*
X309444826Y-273388328D02*
X309444826Y-272388328D01*
X309444826Y-272531185D02*
X309516255Y-272459757D01*
X309516255Y-272459757D02*
X309659112Y-272388328D01*
X309659112Y-272388328D02*
X309873398Y-272388328D01*
X309873398Y-272388328D02*
X310016255Y-272459757D01*
X310016255Y-272459757D02*
X310087684Y-272602614D01*
X310087684Y-272602614D02*
X310087684Y-273388328D01*
X310087684Y-272602614D02*
X310159112Y-272459757D01*
X310159112Y-272459757D02*
X310301969Y-272388328D01*
X310301969Y-272388328D02*
X310516255Y-272388328D01*
X310516255Y-272388328D02*
X310659112Y-272459757D01*
X310659112Y-272459757D02*
X310730541Y-272602614D01*
X310730541Y-272602614D02*
X310730541Y-273388328D01*
X311301969Y-271888328D02*
X312230541Y-271888328D01*
X312230541Y-271888328D02*
X311730541Y-272459757D01*
X311730541Y-272459757D02*
X311944826Y-272459757D01*
X311944826Y-272459757D02*
X312087684Y-272531185D01*
X312087684Y-272531185D02*
X312159112Y-272602614D01*
X312159112Y-272602614D02*
X312230541Y-272745471D01*
X312230541Y-272745471D02*
X312230541Y-273102614D01*
X312230541Y-273102614D02*
X312159112Y-273245471D01*
X312159112Y-273245471D02*
X312087684Y-273316900D01*
X312087684Y-273316900D02*
X311944826Y-273388328D01*
X311944826Y-273388328D02*
X311516255Y-273388328D01*
X311516255Y-273388328D02*
X311373398Y-273316900D01*
X311373398Y-273316900D02*
X311301969Y-273245471D01*
X312801969Y-272031185D02*
X312873397Y-271959757D01*
X312873397Y-271959757D02*
X313016255Y-271888328D01*
X313016255Y-271888328D02*
X313373397Y-271888328D01*
X313373397Y-271888328D02*
X313516255Y-271959757D01*
X313516255Y-271959757D02*
X313587683Y-272031185D01*
X313587683Y-272031185D02*
X313659112Y-272174042D01*
X313659112Y-272174042D02*
X313659112Y-272316900D01*
X313659112Y-272316900D02*
X313587683Y-272531185D01*
X313587683Y-272531185D02*
X312730540Y-273388328D01*
X312730540Y-273388328D02*
X313659112Y-273388328D01*
X313944826Y-273531185D02*
X315087683Y-273531185D01*
X315444825Y-273388328D02*
X315444825Y-271888328D01*
X315444825Y-272459757D02*
X315587683Y-272388328D01*
X315587683Y-272388328D02*
X315873397Y-272388328D01*
X315873397Y-272388328D02*
X316016254Y-272459757D01*
X316016254Y-272459757D02*
X316087683Y-272531185D01*
X316087683Y-272531185D02*
X316159111Y-272674042D01*
X316159111Y-272674042D02*
X316159111Y-273102614D01*
X316159111Y-273102614D02*
X316087683Y-273245471D01*
X316087683Y-273245471D02*
X316016254Y-273316900D01*
X316016254Y-273316900D02*
X315873397Y-273388328D01*
X315873397Y-273388328D02*
X315587683Y-273388328D01*
X315587683Y-273388328D02*
X315444825Y-273316900D01*
X317016254Y-273388328D02*
X316873397Y-273316900D01*
X316873397Y-273316900D02*
X316801968Y-273174042D01*
X316801968Y-273174042D02*
X316801968Y-271888328D01*
X318230540Y-272388328D02*
X318230540Y-273388328D01*
X317587682Y-272388328D02*
X317587682Y-273174042D01*
X317587682Y-273174042D02*
X317659111Y-273316900D01*
X317659111Y-273316900D02*
X317801968Y-273388328D01*
X317801968Y-273388328D02*
X318016254Y-273388328D01*
X318016254Y-273388328D02*
X318159111Y-273316900D01*
X318159111Y-273316900D02*
X318230540Y-273245471D01*
X319516254Y-273316900D02*
X319373397Y-273388328D01*
X319373397Y-273388328D02*
X319087683Y-273388328D01*
X319087683Y-273388328D02*
X318944825Y-273316900D01*
X318944825Y-273316900D02*
X318873397Y-273174042D01*
X318873397Y-273174042D02*
X318873397Y-272602614D01*
X318873397Y-272602614D02*
X318944825Y-272459757D01*
X318944825Y-272459757D02*
X319087683Y-272388328D01*
X319087683Y-272388328D02*
X319373397Y-272388328D01*
X319373397Y-272388328D02*
X319516254Y-272459757D01*
X319516254Y-272459757D02*
X319587683Y-272602614D01*
X319587683Y-272602614D02*
X319587683Y-272745471D01*
X319587683Y-272745471D02*
X318873397Y-272888328D01*
X320016254Y-272388328D02*
X320587682Y-272388328D01*
X320230539Y-271888328D02*
X320230539Y-273174042D01*
X320230539Y-273174042D02*
X320301968Y-273316900D01*
X320301968Y-273316900D02*
X320444825Y-273388328D01*
X320444825Y-273388328D02*
X320587682Y-273388328D01*
X320730540Y-273531185D02*
X321873397Y-273531185D01*
X322230539Y-272388328D02*
X322230539Y-273888328D01*
X322230539Y-272459757D02*
X322373397Y-272388328D01*
X322373397Y-272388328D02*
X322659111Y-272388328D01*
X322659111Y-272388328D02*
X322801968Y-272459757D01*
X322801968Y-272459757D02*
X322873397Y-272531185D01*
X322873397Y-272531185D02*
X322944825Y-272674042D01*
X322944825Y-272674042D02*
X322944825Y-273102614D01*
X322944825Y-273102614D02*
X322873397Y-273245471D01*
X322873397Y-273245471D02*
X322801968Y-273316900D01*
X322801968Y-273316900D02*
X322659111Y-273388328D01*
X322659111Y-273388328D02*
X322373397Y-273388328D01*
X322373397Y-273388328D02*
X322230539Y-273316900D01*
X323587682Y-273388328D02*
X323587682Y-272388328D01*
X323587682Y-271888328D02*
X323516254Y-271959757D01*
X323516254Y-271959757D02*
X323587682Y-272031185D01*
X323587682Y-272031185D02*
X323659111Y-271959757D01*
X323659111Y-271959757D02*
X323587682Y-271888328D01*
X323587682Y-271888328D02*
X323587682Y-272031185D01*
X324516254Y-273388328D02*
X324373397Y-273316900D01*
X324373397Y-273316900D02*
X324301968Y-273174042D01*
X324301968Y-273174042D02*
X324301968Y-271888328D01*
X325301968Y-273388328D02*
X325159111Y-273316900D01*
X325159111Y-273316900D02*
X325087682Y-273174042D01*
X325087682Y-273174042D02*
X325087682Y-271888328D01*
X325873396Y-273245471D02*
X325944825Y-273316900D01*
X325944825Y-273316900D02*
X325873396Y-273388328D01*
X325873396Y-273388328D02*
X325801968Y-273316900D01*
X325801968Y-273316900D02*
X325873396Y-273245471D01*
X325873396Y-273245471D02*
X325873396Y-273388328D01*
X326587682Y-273388328D02*
X326587682Y-271888328D01*
X326730540Y-272816900D02*
X327159111Y-273388328D01*
X327159111Y-272388328D02*
X326587682Y-272959757D01*
X327801968Y-273388328D02*
X327801968Y-272388328D01*
X327801968Y-271888328D02*
X327730540Y-271959757D01*
X327730540Y-271959757D02*
X327801968Y-272031185D01*
X327801968Y-272031185D02*
X327873397Y-271959757D01*
X327873397Y-271959757D02*
X327801968Y-271888328D01*
X327801968Y-271888328D02*
X327801968Y-272031185D01*
X329159112Y-273316900D02*
X329016254Y-273388328D01*
X329016254Y-273388328D02*
X328730540Y-273388328D01*
X328730540Y-273388328D02*
X328587683Y-273316900D01*
X328587683Y-273316900D02*
X328516254Y-273245471D01*
X328516254Y-273245471D02*
X328444826Y-273102614D01*
X328444826Y-273102614D02*
X328444826Y-272674042D01*
X328444826Y-272674042D02*
X328516254Y-272531185D01*
X328516254Y-272531185D02*
X328587683Y-272459757D01*
X328587683Y-272459757D02*
X328730540Y-272388328D01*
X328730540Y-272388328D02*
X329016254Y-272388328D01*
X329016254Y-272388328D02*
X329159112Y-272459757D01*
X330444826Y-273388328D02*
X330444826Y-272602614D01*
X330444826Y-272602614D02*
X330373397Y-272459757D01*
X330373397Y-272459757D02*
X330230540Y-272388328D01*
X330230540Y-272388328D02*
X329944826Y-272388328D01*
X329944826Y-272388328D02*
X329801968Y-272459757D01*
X330444826Y-273316900D02*
X330301968Y-273388328D01*
X330301968Y-273388328D02*
X329944826Y-273388328D01*
X329944826Y-273388328D02*
X329801968Y-273316900D01*
X329801968Y-273316900D02*
X329730540Y-273174042D01*
X329730540Y-273174042D02*
X329730540Y-273031185D01*
X329730540Y-273031185D02*
X329801968Y-272888328D01*
X329801968Y-272888328D02*
X329944826Y-272816900D01*
X329944826Y-272816900D02*
X330301968Y-272816900D01*
X330301968Y-272816900D02*
X330444826Y-272745471D01*
X331801969Y-273388328D02*
X331801969Y-271888328D01*
X331801969Y-273316900D02*
X331659111Y-273388328D01*
X331659111Y-273388328D02*
X331373397Y-273388328D01*
X331373397Y-273388328D02*
X331230540Y-273316900D01*
X331230540Y-273316900D02*
X331159111Y-273245471D01*
X331159111Y-273245471D02*
X331087683Y-273102614D01*
X331087683Y-273102614D02*
X331087683Y-272674042D01*
X331087683Y-272674042D02*
X331159111Y-272531185D01*
X331159111Y-272531185D02*
X331230540Y-272459757D01*
X331230540Y-272459757D02*
X331373397Y-272388328D01*
X331373397Y-272388328D02*
X331659111Y-272388328D01*
X331659111Y-272388328D02*
X331801969Y-272459757D01*
X332159112Y-273531185D02*
X333301969Y-273531185D01*
X333659111Y-272388328D02*
X333659111Y-273888328D01*
X333659111Y-272459757D02*
X333801969Y-272388328D01*
X333801969Y-272388328D02*
X334087683Y-272388328D01*
X334087683Y-272388328D02*
X334230540Y-272459757D01*
X334230540Y-272459757D02*
X334301969Y-272531185D01*
X334301969Y-272531185D02*
X334373397Y-272674042D01*
X334373397Y-272674042D02*
X334373397Y-273102614D01*
X334373397Y-273102614D02*
X334301969Y-273245471D01*
X334301969Y-273245471D02*
X334230540Y-273316900D01*
X334230540Y-273316900D02*
X334087683Y-273388328D01*
X334087683Y-273388328D02*
X333801969Y-273388328D01*
X333801969Y-273388328D02*
X333659111Y-273316900D01*
X335659112Y-273316900D02*
X335516254Y-273388328D01*
X335516254Y-273388328D02*
X335230540Y-273388328D01*
X335230540Y-273388328D02*
X335087683Y-273316900D01*
X335087683Y-273316900D02*
X335016254Y-273245471D01*
X335016254Y-273245471D02*
X334944826Y-273102614D01*
X334944826Y-273102614D02*
X334944826Y-272674042D01*
X334944826Y-272674042D02*
X335016254Y-272531185D01*
X335016254Y-272531185D02*
X335087683Y-272459757D01*
X335087683Y-272459757D02*
X335230540Y-272388328D01*
X335230540Y-272388328D02*
X335516254Y-272388328D01*
X335516254Y-272388328D02*
X335659112Y-272459757D01*
X336301968Y-273388328D02*
X336301968Y-271888328D01*
X336301968Y-272459757D02*
X336444826Y-272388328D01*
X336444826Y-272388328D02*
X336730540Y-272388328D01*
X336730540Y-272388328D02*
X336873397Y-272459757D01*
X336873397Y-272459757D02*
X336944826Y-272531185D01*
X336944826Y-272531185D02*
X337016254Y-272674042D01*
X337016254Y-272674042D02*
X337016254Y-273102614D01*
X337016254Y-273102614D02*
X336944826Y-273245471D01*
X336944826Y-273245471D02*
X336873397Y-273316900D01*
X336873397Y-273316900D02*
X336730540Y-273388328D01*
X336730540Y-273388328D02*
X336444826Y-273388328D01*
X336444826Y-273388328D02*
X336301968Y-273316900D01*
D10*
D11*
X299989000Y-268502200D02*
X407989000Y-268502200D01*
D10*
D11*
X301373398Y-270616900D02*
X301587684Y-270688328D01*
X301587684Y-270688328D02*
X301944826Y-270688328D01*
X301944826Y-270688328D02*
X302087684Y-270616900D01*
X302087684Y-270616900D02*
X302159112Y-270545471D01*
X302159112Y-270545471D02*
X302230541Y-270402614D01*
X302230541Y-270402614D02*
X302230541Y-270259757D01*
X302230541Y-270259757D02*
X302159112Y-270116900D01*
X302159112Y-270116900D02*
X302087684Y-270045471D01*
X302087684Y-270045471D02*
X301944826Y-269974042D01*
X301944826Y-269974042D02*
X301659112Y-269902614D01*
X301659112Y-269902614D02*
X301516255Y-269831185D01*
X301516255Y-269831185D02*
X301444826Y-269759757D01*
X301444826Y-269759757D02*
X301373398Y-269616900D01*
X301373398Y-269616900D02*
X301373398Y-269474042D01*
X301373398Y-269474042D02*
X301444826Y-269331185D01*
X301444826Y-269331185D02*
X301516255Y-269259757D01*
X301516255Y-269259757D02*
X301659112Y-269188328D01*
X301659112Y-269188328D02*
X302016255Y-269188328D01*
X302016255Y-269188328D02*
X302230541Y-269259757D01*
X302873397Y-270688328D02*
X302873397Y-269188328D01*
X303516255Y-270688328D02*
X303516255Y-269902614D01*
X303516255Y-269902614D02*
X303444826Y-269759757D01*
X303444826Y-269759757D02*
X303301969Y-269688328D01*
X303301969Y-269688328D02*
X303087683Y-269688328D01*
X303087683Y-269688328D02*
X302944826Y-269759757D01*
X302944826Y-269759757D02*
X302873397Y-269831185D01*
X304801969Y-270616900D02*
X304659112Y-270688328D01*
X304659112Y-270688328D02*
X304373398Y-270688328D01*
X304373398Y-270688328D02*
X304230540Y-270616900D01*
X304230540Y-270616900D02*
X304159112Y-270474042D01*
X304159112Y-270474042D02*
X304159112Y-269902614D01*
X304159112Y-269902614D02*
X304230540Y-269759757D01*
X304230540Y-269759757D02*
X304373398Y-269688328D01*
X304373398Y-269688328D02*
X304659112Y-269688328D01*
X304659112Y-269688328D02*
X304801969Y-269759757D01*
X304801969Y-269759757D02*
X304873398Y-269902614D01*
X304873398Y-269902614D02*
X304873398Y-270045471D01*
X304873398Y-270045471D02*
X304159112Y-270188328D01*
X306087683Y-270616900D02*
X305944826Y-270688328D01*
X305944826Y-270688328D02*
X305659112Y-270688328D01*
X305659112Y-270688328D02*
X305516254Y-270616900D01*
X305516254Y-270616900D02*
X305444826Y-270474042D01*
X305444826Y-270474042D02*
X305444826Y-269902614D01*
X305444826Y-269902614D02*
X305516254Y-269759757D01*
X305516254Y-269759757D02*
X305659112Y-269688328D01*
X305659112Y-269688328D02*
X305944826Y-269688328D01*
X305944826Y-269688328D02*
X306087683Y-269759757D01*
X306087683Y-269759757D02*
X306159112Y-269902614D01*
X306159112Y-269902614D02*
X306159112Y-270045471D01*
X306159112Y-270045471D02*
X305444826Y-270188328D01*
X306587683Y-269688328D02*
X307159111Y-269688328D01*
X306801968Y-269188328D02*
X306801968Y-270474042D01*
X306801968Y-270474042D02*
X306873397Y-270616900D01*
X306873397Y-270616900D02*
X307016254Y-270688328D01*
X307016254Y-270688328D02*
X307159111Y-270688328D01*
X307659111Y-270545471D02*
X307730540Y-270616900D01*
X307730540Y-270616900D02*
X307659111Y-270688328D01*
X307659111Y-270688328D02*
X307587683Y-270616900D01*
X307587683Y-270616900D02*
X307659111Y-270545471D01*
X307659111Y-270545471D02*
X307659111Y-270688328D01*
X307659111Y-269759757D02*
X307730540Y-269831185D01*
X307730540Y-269831185D02*
X307659111Y-269902614D01*
X307659111Y-269902614D02*
X307587683Y-269831185D01*
X307587683Y-269831185D02*
X307659111Y-269759757D01*
X307659111Y-269759757D02*
X307659111Y-269902614D01*
D10*
D12*
X302043510Y-266894814D02*
X302257796Y-266966242D01*
X302257796Y-266966242D02*
X302329225Y-267037671D01*
X302329225Y-267037671D02*
X302400653Y-267180528D01*
X302400653Y-267180528D02*
X302400653Y-267394814D01*
X302400653Y-267394814D02*
X302329225Y-267537671D01*
X302329225Y-267537671D02*
X302257796Y-267609100D01*
X302257796Y-267609100D02*
X302114939Y-267680528D01*
X302114939Y-267680528D02*
X301543510Y-267680528D01*
X301543510Y-267680528D02*
X301543510Y-266180528D01*
X301543510Y-266180528D02*
X302043510Y-266180528D01*
X302043510Y-266180528D02*
X302186368Y-266251957D01*
X302186368Y-266251957D02*
X302257796Y-266323385D01*
X302257796Y-266323385D02*
X302329225Y-266466242D01*
X302329225Y-266466242D02*
X302329225Y-266609100D01*
X302329225Y-266609100D02*
X302257796Y-266751957D01*
X302257796Y-266751957D02*
X302186368Y-266823385D01*
X302186368Y-266823385D02*
X302043510Y-266894814D01*
X302043510Y-266894814D02*
X301543510Y-266894814D01*
X303043510Y-267680528D02*
X303043510Y-266680528D01*
X303043510Y-266966242D02*
X303114939Y-266823385D01*
X303114939Y-266823385D02*
X303186368Y-266751957D01*
X303186368Y-266751957D02*
X303329225Y-266680528D01*
X303329225Y-266680528D02*
X303472082Y-266680528D01*
X304543510Y-267609100D02*
X304400653Y-267680528D01*
X304400653Y-267680528D02*
X304114939Y-267680528D01*
X304114939Y-267680528D02*
X303972081Y-267609100D01*
X303972081Y-267609100D02*
X303900653Y-267466242D01*
X303900653Y-267466242D02*
X303900653Y-266894814D01*
X303900653Y-266894814D02*
X303972081Y-266751957D01*
X303972081Y-266751957D02*
X304114939Y-266680528D01*
X304114939Y-266680528D02*
X304400653Y-266680528D01*
X304400653Y-266680528D02*
X304543510Y-266751957D01*
X304543510Y-266751957D02*
X304614939Y-266894814D01*
X304614939Y-266894814D02*
X304614939Y-267037671D01*
X304614939Y-267037671D02*
X303900653Y-267180528D01*
X305257795Y-266680528D02*
X305257795Y-267680528D01*
X305257795Y-266823385D02*
X305329224Y-266751957D01*
X305329224Y-266751957D02*
X305472081Y-266680528D01*
X305472081Y-266680528D02*
X305686367Y-266680528D01*
X305686367Y-266680528D02*
X305829224Y-266751957D01*
X305829224Y-266751957D02*
X305900653Y-266894814D01*
X305900653Y-266894814D02*
X305900653Y-267680528D01*
X307257796Y-267680528D02*
X307257796Y-266180528D01*
X307257796Y-267609100D02*
X307114938Y-267680528D01*
X307114938Y-267680528D02*
X306829224Y-267680528D01*
X306829224Y-267680528D02*
X306686367Y-267609100D01*
X306686367Y-267609100D02*
X306614938Y-267537671D01*
X306614938Y-267537671D02*
X306543510Y-267394814D01*
X306543510Y-267394814D02*
X306543510Y-266966242D01*
X306543510Y-266966242D02*
X306614938Y-266823385D01*
X306614938Y-266823385D02*
X306686367Y-266751957D01*
X306686367Y-266751957D02*
X306829224Y-266680528D01*
X306829224Y-266680528D02*
X307114938Y-266680528D01*
X307114938Y-266680528D02*
X307257796Y-266751957D01*
X308614939Y-267680528D02*
X308614939Y-266894814D01*
X308614939Y-266894814D02*
X308543510Y-266751957D01*
X308543510Y-266751957D02*
X308400653Y-266680528D01*
X308400653Y-266680528D02*
X308114939Y-266680528D01*
X308114939Y-266680528D02*
X307972081Y-266751957D01*
X308614939Y-267609100D02*
X308472081Y-267680528D01*
X308472081Y-267680528D02*
X308114939Y-267680528D01*
X308114939Y-267680528D02*
X307972081Y-267609100D01*
X307972081Y-267609100D02*
X307900653Y-267466242D01*
X307900653Y-267466242D02*
X307900653Y-267323385D01*
X307900653Y-267323385D02*
X307972081Y-267180528D01*
X307972081Y-267180528D02*
X308114939Y-267109100D01*
X308114939Y-267109100D02*
X308472081Y-267109100D01*
X308472081Y-267109100D02*
X308614939Y-267037671D01*
X309329224Y-266680528D02*
X309329224Y-267680528D01*
X309329224Y-266823385D02*
X309400653Y-266751957D01*
X309400653Y-266751957D02*
X309543510Y-266680528D01*
X309543510Y-266680528D02*
X309757796Y-266680528D01*
X309757796Y-266680528D02*
X309900653Y-266751957D01*
X309900653Y-266751957D02*
X309972082Y-266894814D01*
X309972082Y-266894814D02*
X309972082Y-267680528D01*
X312329224Y-266894814D02*
X312543510Y-266966242D01*
X312543510Y-266966242D02*
X312614939Y-267037671D01*
X312614939Y-267037671D02*
X312686367Y-267180528D01*
X312686367Y-267180528D02*
X312686367Y-267394814D01*
X312686367Y-267394814D02*
X312614939Y-267537671D01*
X312614939Y-267537671D02*
X312543510Y-267609100D01*
X312543510Y-267609100D02*
X312400653Y-267680528D01*
X312400653Y-267680528D02*
X311829224Y-267680528D01*
X311829224Y-267680528D02*
X311829224Y-266180528D01*
X311829224Y-266180528D02*
X312329224Y-266180528D01*
X312329224Y-266180528D02*
X312472082Y-266251957D01*
X312472082Y-266251957D02*
X312543510Y-266323385D01*
X312543510Y-266323385D02*
X312614939Y-266466242D01*
X312614939Y-266466242D02*
X312614939Y-266609100D01*
X312614939Y-266609100D02*
X312543510Y-266751957D01*
X312543510Y-266751957D02*
X312472082Y-266823385D01*
X312472082Y-266823385D02*
X312329224Y-266894814D01*
X312329224Y-266894814D02*
X311829224Y-266894814D01*
X313543510Y-267680528D02*
X313400653Y-267609100D01*
X313400653Y-267609100D02*
X313329224Y-267466242D01*
X313329224Y-267466242D02*
X313329224Y-266180528D01*
X314686367Y-267609100D02*
X314543510Y-267680528D01*
X314543510Y-267680528D02*
X314257796Y-267680528D01*
X314257796Y-267680528D02*
X314114938Y-267609100D01*
X314114938Y-267609100D02*
X314043510Y-267466242D01*
X314043510Y-267466242D02*
X314043510Y-266894814D01*
X314043510Y-266894814D02*
X314114938Y-266751957D01*
X314114938Y-266751957D02*
X314257796Y-266680528D01*
X314257796Y-266680528D02*
X314543510Y-266680528D01*
X314543510Y-266680528D02*
X314686367Y-266751957D01*
X314686367Y-266751957D02*
X314757796Y-266894814D01*
X314757796Y-266894814D02*
X314757796Y-267037671D01*
X314757796Y-267037671D02*
X314043510Y-267180528D01*
X315400652Y-267680528D02*
X315400652Y-266180528D01*
X315543510Y-267109100D02*
X315972081Y-267680528D01*
X315972081Y-266680528D02*
X315400652Y-267251957D01*
X317186367Y-267609100D02*
X317043510Y-267680528D01*
X317043510Y-267680528D02*
X316757796Y-267680528D01*
X316757796Y-267680528D02*
X316614938Y-267609100D01*
X316614938Y-267609100D02*
X316543510Y-267466242D01*
X316543510Y-267466242D02*
X316543510Y-266894814D01*
X316543510Y-266894814D02*
X316614938Y-266751957D01*
X316614938Y-266751957D02*
X316757796Y-266680528D01*
X316757796Y-266680528D02*
X317043510Y-266680528D01*
X317043510Y-266680528D02*
X317186367Y-266751957D01*
X317186367Y-266751957D02*
X317257796Y-266894814D01*
X317257796Y-266894814D02*
X317257796Y-267037671D01*
X317257796Y-267037671D02*
X316543510Y-267180528D01*
X317900652Y-267680528D02*
X317900652Y-266680528D01*
X317900652Y-266966242D02*
X317972081Y-266823385D01*
X317972081Y-266823385D02*
X318043510Y-266751957D01*
X318043510Y-266751957D02*
X318186367Y-266680528D01*
X318186367Y-266680528D02*
X318329224Y-266680528D01*
D10*
D11*
X301444826Y-264688328D02*
X301444826Y-263188328D01*
X301444826Y-263188328D02*
X301801969Y-263188328D01*
X301801969Y-263188328D02*
X302016255Y-263259757D01*
X302016255Y-263259757D02*
X302159112Y-263402614D01*
X302159112Y-263402614D02*
X302230541Y-263545471D01*
X302230541Y-263545471D02*
X302301969Y-263831185D01*
X302301969Y-263831185D02*
X302301969Y-264045471D01*
X302301969Y-264045471D02*
X302230541Y-264331185D01*
X302230541Y-264331185D02*
X302159112Y-264474042D01*
X302159112Y-264474042D02*
X302016255Y-264616900D01*
X302016255Y-264616900D02*
X301801969Y-264688328D01*
X301801969Y-264688328D02*
X301444826Y-264688328D01*
X303516255Y-264616900D02*
X303373398Y-264688328D01*
X303373398Y-264688328D02*
X303087684Y-264688328D01*
X303087684Y-264688328D02*
X302944826Y-264616900D01*
X302944826Y-264616900D02*
X302873398Y-264474042D01*
X302873398Y-264474042D02*
X302873398Y-263902614D01*
X302873398Y-263902614D02*
X302944826Y-263759757D01*
X302944826Y-263759757D02*
X303087684Y-263688328D01*
X303087684Y-263688328D02*
X303373398Y-263688328D01*
X303373398Y-263688328D02*
X303516255Y-263759757D01*
X303516255Y-263759757D02*
X303587684Y-263902614D01*
X303587684Y-263902614D02*
X303587684Y-264045471D01*
X303587684Y-264045471D02*
X302873398Y-264188328D01*
X304159112Y-264616900D02*
X304301969Y-264688328D01*
X304301969Y-264688328D02*
X304587683Y-264688328D01*
X304587683Y-264688328D02*
X304730540Y-264616900D01*
X304730540Y-264616900D02*
X304801969Y-264474042D01*
X304801969Y-264474042D02*
X304801969Y-264402614D01*
X304801969Y-264402614D02*
X304730540Y-264259757D01*
X304730540Y-264259757D02*
X304587683Y-264188328D01*
X304587683Y-264188328D02*
X304373398Y-264188328D01*
X304373398Y-264188328D02*
X304230540Y-264116900D01*
X304230540Y-264116900D02*
X304159112Y-263974042D01*
X304159112Y-263974042D02*
X304159112Y-263902614D01*
X304159112Y-263902614D02*
X304230540Y-263759757D01*
X304230540Y-263759757D02*
X304373398Y-263688328D01*
X304373398Y-263688328D02*
X304587683Y-263688328D01*
X304587683Y-263688328D02*
X304730540Y-263759757D01*
X305444826Y-264688328D02*
X305444826Y-263688328D01*
X305444826Y-263188328D02*
X305373398Y-263259757D01*
X305373398Y-263259757D02*
X305444826Y-263331185D01*
X305444826Y-263331185D02*
X305516255Y-263259757D01*
X305516255Y-263259757D02*
X305444826Y-263188328D01*
X305444826Y-263188328D02*
X305444826Y-263331185D01*
X306801970Y-263688328D02*
X306801970Y-264902614D01*
X306801970Y-264902614D02*
X306730541Y-265045471D01*
X306730541Y-265045471D02*
X306659112Y-265116900D01*
X306659112Y-265116900D02*
X306516255Y-265188328D01*
X306516255Y-265188328D02*
X306301970Y-265188328D01*
X306301970Y-265188328D02*
X306159112Y-265116900D01*
X306801970Y-264616900D02*
X306659112Y-264688328D01*
X306659112Y-264688328D02*
X306373398Y-264688328D01*
X306373398Y-264688328D02*
X306230541Y-264616900D01*
X306230541Y-264616900D02*
X306159112Y-264545471D01*
X306159112Y-264545471D02*
X306087684Y-264402614D01*
X306087684Y-264402614D02*
X306087684Y-263974042D01*
X306087684Y-263974042D02*
X306159112Y-263831185D01*
X306159112Y-263831185D02*
X306230541Y-263759757D01*
X306230541Y-263759757D02*
X306373398Y-263688328D01*
X306373398Y-263688328D02*
X306659112Y-263688328D01*
X306659112Y-263688328D02*
X306801970Y-263759757D01*
X307516255Y-263688328D02*
X307516255Y-264688328D01*
X307516255Y-263831185D02*
X307587684Y-263759757D01*
X307587684Y-263759757D02*
X307730541Y-263688328D01*
X307730541Y-263688328D02*
X307944827Y-263688328D01*
X307944827Y-263688328D02*
X308087684Y-263759757D01*
X308087684Y-263759757D02*
X308159113Y-263902614D01*
X308159113Y-263902614D02*
X308159113Y-264688328D01*
X309444827Y-264616900D02*
X309301970Y-264688328D01*
X309301970Y-264688328D02*
X309016256Y-264688328D01*
X309016256Y-264688328D02*
X308873398Y-264616900D01*
X308873398Y-264616900D02*
X308801970Y-264474042D01*
X308801970Y-264474042D02*
X308801970Y-263902614D01*
X308801970Y-263902614D02*
X308873398Y-263759757D01*
X308873398Y-263759757D02*
X309016256Y-263688328D01*
X309016256Y-263688328D02*
X309301970Y-263688328D01*
X309301970Y-263688328D02*
X309444827Y-263759757D01*
X309444827Y-263759757D02*
X309516256Y-263902614D01*
X309516256Y-263902614D02*
X309516256Y-264045471D01*
X309516256Y-264045471D02*
X308801970Y-264188328D01*
X310801970Y-264688328D02*
X310801970Y-263188328D01*
X310801970Y-264616900D02*
X310659112Y-264688328D01*
X310659112Y-264688328D02*
X310373398Y-264688328D01*
X310373398Y-264688328D02*
X310230541Y-264616900D01*
X310230541Y-264616900D02*
X310159112Y-264545471D01*
X310159112Y-264545471D02*
X310087684Y-264402614D01*
X310087684Y-264402614D02*
X310087684Y-263974042D01*
X310087684Y-263974042D02*
X310159112Y-263831185D01*
X310159112Y-263831185D02*
X310230541Y-263759757D01*
X310230541Y-263759757D02*
X310373398Y-263688328D01*
X310373398Y-263688328D02*
X310659112Y-263688328D01*
X310659112Y-263688328D02*
X310801970Y-263759757D01*
X312659112Y-264688328D02*
X312659112Y-263188328D01*
X312659112Y-263759757D02*
X312801970Y-263688328D01*
X312801970Y-263688328D02*
X313087684Y-263688328D01*
X313087684Y-263688328D02*
X313230541Y-263759757D01*
X313230541Y-263759757D02*
X313301970Y-263831185D01*
X313301970Y-263831185D02*
X313373398Y-263974042D01*
X313373398Y-263974042D02*
X313373398Y-264402614D01*
X313373398Y-264402614D02*
X313301970Y-264545471D01*
X313301970Y-264545471D02*
X313230541Y-264616900D01*
X313230541Y-264616900D02*
X313087684Y-264688328D01*
X313087684Y-264688328D02*
X312801970Y-264688328D01*
X312801970Y-264688328D02*
X312659112Y-264616900D01*
X313873398Y-263688328D02*
X314230541Y-264688328D01*
X314587684Y-263688328D02*
X314230541Y-264688328D01*
X314230541Y-264688328D02*
X314087684Y-265045471D01*
X314087684Y-265045471D02*
X314016255Y-265116900D01*
X314016255Y-265116900D02*
X313873398Y-265188328D01*
X315159112Y-264545471D02*
X315230541Y-264616900D01*
X315230541Y-264616900D02*
X315159112Y-264688328D01*
X315159112Y-264688328D02*
X315087684Y-264616900D01*
X315087684Y-264616900D02*
X315159112Y-264545471D01*
X315159112Y-264545471D02*
X315159112Y-264688328D01*
X315159112Y-263759757D02*
X315230541Y-263831185D01*
X315230541Y-263831185D02*
X315159112Y-263902614D01*
X315159112Y-263902614D02*
X315087684Y-263831185D01*
X315087684Y-263831185D02*
X315159112Y-263759757D01*
X315159112Y-263759757D02*
X315159112Y-263902614D01*
D10*
D11*
X319989000Y-278502200D02*
X319989000Y-281502200D01*
D10*
D11*
X383989000Y-278502200D02*
X383989000Y-285002200D01*
D14*
X227670000Y-141385000D02*
X227375459Y-141090459D01*
X228884656Y-132773095D02*
X228932275Y-132915952D01*
X228932275Y-132915952D02*
X228932275Y-133154047D01*
X228932275Y-133154047D02*
X228884656Y-133249285D01*
X228884656Y-133249285D02*
X228837036Y-133296904D01*
X228837036Y-133296904D02*
X228741798Y-133344523D01*
X228741798Y-133344523D02*
X228646560Y-133344523D01*
X228646560Y-133344523D02*
X228551322Y-133296904D01*
X228551322Y-133296904D02*
X228503703Y-133249285D01*
X228503703Y-133249285D02*
X228456084Y-133154047D01*
X228456084Y-133154047D02*
X228408465Y-132963571D01*
X228408465Y-132963571D02*
X228360846Y-132868333D01*
X228360846Y-132868333D02*
X228313227Y-132820714D01*
X228313227Y-132820714D02*
X228217989Y-132773095D01*
X228217989Y-132773095D02*
X228122751Y-132773095D01*
X228122751Y-132773095D02*
X228027513Y-132820714D01*
X228027513Y-132820714D02*
X227979894Y-132868333D01*
X227979894Y-132868333D02*
X227932275Y-132963571D01*
X227932275Y-132963571D02*
X227932275Y-133201666D01*
X227932275Y-133201666D02*
X227979894Y-133344523D01*
X227932275Y-133630238D02*
X227932275Y-134201666D01*
X228932275Y-133915952D02*
X227932275Y-133915952D01*
X228932275Y-134535000D02*
X227932275Y-134535000D01*
X227932275Y-134535000D02*
X228646560Y-134868333D01*
X228646560Y-134868333D02*
X227932275Y-135201666D01*
X227932275Y-135201666D02*
X228932275Y-135201666D01*
X227932275Y-135582619D02*
X227932275Y-136201666D01*
X227932275Y-136201666D02*
X228313227Y-135868333D01*
X228313227Y-135868333D02*
X228313227Y-136011190D01*
X228313227Y-136011190D02*
X228360846Y-136106428D01*
X228360846Y-136106428D02*
X228408465Y-136154047D01*
X228408465Y-136154047D02*
X228503703Y-136201666D01*
X228503703Y-136201666D02*
X228741798Y-136201666D01*
X228741798Y-136201666D02*
X228837036Y-136154047D01*
X228837036Y-136154047D02*
X228884656Y-136106428D01*
X228884656Y-136106428D02*
X228932275Y-136011190D01*
X228932275Y-136011190D02*
X228932275Y-135725476D01*
X228932275Y-135725476D02*
X228884656Y-135630238D01*
X228884656Y-135630238D02*
X228837036Y-135582619D01*
X228027513Y-136582619D02*
X227979894Y-136630238D01*
X227979894Y-136630238D02*
X227932275Y-136725476D01*
X227932275Y-136725476D02*
X227932275Y-136963571D01*
X227932275Y-136963571D02*
X227979894Y-137058809D01*
X227979894Y-137058809D02*
X228027513Y-137106428D01*
X228027513Y-137106428D02*
X228122751Y-137154047D01*
X228122751Y-137154047D02*
X228217989Y-137154047D01*
X228217989Y-137154047D02*
X228360846Y-137106428D01*
X228360846Y-137106428D02*
X228932275Y-136535000D01*
X228932275Y-136535000D02*
X228932275Y-137154047D01*
X228408465Y-138677857D02*
X228456084Y-138820714D01*
X228456084Y-138820714D02*
X228503703Y-138868333D01*
X228503703Y-138868333D02*
X228598941Y-138915952D01*
X228598941Y-138915952D02*
X228741798Y-138915952D01*
X228741798Y-138915952D02*
X228837036Y-138868333D01*
X228837036Y-138868333D02*
X228884656Y-138820714D01*
X228884656Y-138820714D02*
X228932275Y-138725476D01*
X228932275Y-138725476D02*
X228932275Y-138344524D01*
X228932275Y-138344524D02*
X227932275Y-138344524D01*
X227932275Y-138344524D02*
X227932275Y-138677857D01*
X227932275Y-138677857D02*
X227979894Y-138773095D01*
X227979894Y-138773095D02*
X228027513Y-138820714D01*
X228027513Y-138820714D02*
X228122751Y-138868333D01*
X228122751Y-138868333D02*
X228217989Y-138868333D01*
X228217989Y-138868333D02*
X228313227Y-138820714D01*
X228313227Y-138820714D02*
X228360846Y-138773095D01*
X228360846Y-138773095D02*
X228408465Y-138677857D01*
X228408465Y-138677857D02*
X228408465Y-138344524D01*
X228932275Y-139820714D02*
X228932275Y-139344524D01*
X228932275Y-139344524D02*
X227932275Y-139344524D01*
X227932275Y-140154048D02*
X228741798Y-140154048D01*
X228741798Y-140154048D02*
X228837036Y-140201667D01*
X228837036Y-140201667D02*
X228884656Y-140249286D01*
X228884656Y-140249286D02*
X228932275Y-140344524D01*
X228932275Y-140344524D02*
X228932275Y-140535000D01*
X228932275Y-140535000D02*
X228884656Y-140630238D01*
X228884656Y-140630238D02*
X228837036Y-140677857D01*
X228837036Y-140677857D02*
X228741798Y-140725476D01*
X228741798Y-140725476D02*
X227932275Y-140725476D01*
X228408465Y-141201667D02*
X228408465Y-141535000D01*
X228932275Y-141677857D02*
X228932275Y-141201667D01*
X228932275Y-141201667D02*
X227932275Y-141201667D01*
X227932275Y-141201667D02*
X227932275Y-141677857D01*
X227932275Y-141963572D02*
X227932275Y-142535000D01*
X228932275Y-142249286D02*
X227932275Y-142249286D01*
X228932275Y-143630239D02*
X227932275Y-143630239D01*
X227932275Y-143630239D02*
X227932275Y-144011191D01*
X227932275Y-144011191D02*
X227979894Y-144106429D01*
X227979894Y-144106429D02*
X228027513Y-144154048D01*
X228027513Y-144154048D02*
X228122751Y-144201667D01*
X228122751Y-144201667D02*
X228265608Y-144201667D01*
X228265608Y-144201667D02*
X228360846Y-144154048D01*
X228360846Y-144154048D02*
X228408465Y-144106429D01*
X228408465Y-144106429D02*
X228456084Y-144011191D01*
X228456084Y-144011191D02*
X228456084Y-143630239D01*
X228932275Y-144630239D02*
X227932275Y-144630239D01*
X228932275Y-145582619D02*
X228932275Y-145106429D01*
X228932275Y-145106429D02*
X227932275Y-145106429D01*
X228932275Y-146392143D02*
X228932275Y-145915953D01*
X228932275Y-145915953D02*
X227932275Y-145915953D01*
X229542219Y-137368333D02*
X230542219Y-137701666D01*
X230542219Y-137701666D02*
X229542219Y-138034999D01*
X230494600Y-138749285D02*
X230542219Y-138654047D01*
X230542219Y-138654047D02*
X230542219Y-138463571D01*
X230542219Y-138463571D02*
X230494600Y-138368333D01*
X230494600Y-138368333D02*
X230399361Y-138320714D01*
X230399361Y-138320714D02*
X230018409Y-138320714D01*
X230018409Y-138320714D02*
X229923171Y-138368333D01*
X229923171Y-138368333D02*
X229875552Y-138463571D01*
X229875552Y-138463571D02*
X229875552Y-138654047D01*
X229875552Y-138654047D02*
X229923171Y-138749285D01*
X229923171Y-138749285D02*
X230018409Y-138796904D01*
X230018409Y-138796904D02*
X230113647Y-138796904D01*
X230113647Y-138796904D02*
X230208885Y-138320714D01*
X230542219Y-139225476D02*
X229875552Y-139225476D01*
X230066028Y-139225476D02*
X229970790Y-139273095D01*
X229970790Y-139273095D02*
X229923171Y-139320714D01*
X229923171Y-139320714D02*
X229875552Y-139415952D01*
X229875552Y-139415952D02*
X229875552Y-139511190D01*
X230446980Y-139844524D02*
X230494600Y-139892143D01*
X230494600Y-139892143D02*
X230542219Y-139844524D01*
X230542219Y-139844524D02*
X230494600Y-139796905D01*
X230494600Y-139796905D02*
X230446980Y-139844524D01*
X230446980Y-139844524D02*
X230542219Y-139844524D01*
X229637457Y-141035000D02*
X229589838Y-141082619D01*
X229589838Y-141082619D02*
X229542219Y-141177857D01*
X229542219Y-141177857D02*
X229542219Y-141415952D01*
X229542219Y-141415952D02*
X229589838Y-141511190D01*
X229589838Y-141511190D02*
X229637457Y-141558809D01*
X229637457Y-141558809D02*
X229732695Y-141606428D01*
X229732695Y-141606428D02*
X229827933Y-141606428D01*
X229827933Y-141606428D02*
X229970790Y-141558809D01*
X229970790Y-141558809D02*
X230542219Y-140987381D01*
X230542219Y-140987381D02*
X230542219Y-141606428D01*
D10*
X203745000Y-134026764D02*
X203995000Y-133669621D01*
X204173571Y-134026764D02*
X204173571Y-133276764D01*
X204173571Y-133276764D02*
X203887857Y-133276764D01*
X203887857Y-133276764D02*
X203816428Y-133312478D01*
X203816428Y-133312478D02*
X203780714Y-133348192D01*
X203780714Y-133348192D02*
X203745000Y-133419621D01*
X203745000Y-133419621D02*
X203745000Y-133526764D01*
X203745000Y-133526764D02*
X203780714Y-133598192D01*
X203780714Y-133598192D02*
X203816428Y-133633907D01*
X203816428Y-133633907D02*
X203887857Y-133669621D01*
X203887857Y-133669621D02*
X204173571Y-133669621D01*
X203030714Y-134026764D02*
X203459285Y-134026764D01*
X203245000Y-134026764D02*
X203245000Y-133276764D01*
X203245000Y-133276764D02*
X203316428Y-133383907D01*
X203316428Y-133383907D02*
X203387857Y-133455335D01*
X203387857Y-133455335D02*
X203459285Y-133491050D01*
X222472143Y-142200335D02*
X222507857Y-142236050D01*
X222507857Y-142236050D02*
X222615000Y-142271764D01*
X222615000Y-142271764D02*
X222686428Y-142271764D01*
X222686428Y-142271764D02*
X222793571Y-142236050D01*
X222793571Y-142236050D02*
X222865000Y-142164621D01*
X222865000Y-142164621D02*
X222900714Y-142093192D01*
X222900714Y-142093192D02*
X222936428Y-141950335D01*
X222936428Y-141950335D02*
X222936428Y-141843192D01*
X222936428Y-141843192D02*
X222900714Y-141700335D01*
X222900714Y-141700335D02*
X222865000Y-141628907D01*
X222865000Y-141628907D02*
X222793571Y-141557478D01*
X222793571Y-141557478D02*
X222686428Y-141521764D01*
X222686428Y-141521764D02*
X222615000Y-141521764D01*
X222615000Y-141521764D02*
X222507857Y-141557478D01*
X222507857Y-141557478D02*
X222472143Y-141593192D01*
X221757857Y-142271764D02*
X222186428Y-142271764D01*
X221972143Y-142271764D02*
X221972143Y-141521764D01*
X221972143Y-141521764D02*
X222043571Y-141628907D01*
X222043571Y-141628907D02*
X222115000Y-141700335D01*
X222115000Y-141700335D02*
X222186428Y-141736050D01*
X221115000Y-141521764D02*
X221257857Y-141521764D01*
X221257857Y-141521764D02*
X221329285Y-141557478D01*
X221329285Y-141557478D02*
X221365000Y-141593192D01*
X221365000Y-141593192D02*
X221436428Y-141700335D01*
X221436428Y-141700335D02*
X221472142Y-141843192D01*
X221472142Y-141843192D02*
X221472142Y-142128907D01*
X221472142Y-142128907D02*
X221436428Y-142200335D01*
X221436428Y-142200335D02*
X221400714Y-142236050D01*
X221400714Y-142236050D02*
X221329285Y-142271764D01*
X221329285Y-142271764D02*
X221186428Y-142271764D01*
X221186428Y-142271764D02*
X221115000Y-142236050D01*
X221115000Y-142236050D02*
X221079285Y-142200335D01*
X221079285Y-142200335D02*
X221043571Y-142128907D01*
X221043571Y-142128907D02*
X221043571Y-141950335D01*
X221043571Y-141950335D02*
X221079285Y-141878907D01*
X221079285Y-141878907D02*
X221115000Y-141843192D01*
X221115000Y-141843192D02*
X221186428Y-141807478D01*
X221186428Y-141807478D02*
X221329285Y-141807478D01*
X221329285Y-141807478D02*
X221400714Y-141843192D01*
X221400714Y-141843192D02*
X221436428Y-141878907D01*
X221436428Y-141878907D02*
X221472142Y-141950335D01*
X202367143Y-132255335D02*
X202402857Y-132291050D01*
X202402857Y-132291050D02*
X202510000Y-132326764D01*
X202510000Y-132326764D02*
X202581428Y-132326764D01*
X202581428Y-132326764D02*
X202688571Y-132291050D01*
X202688571Y-132291050D02*
X202760000Y-132219621D01*
X202760000Y-132219621D02*
X202795714Y-132148192D01*
X202795714Y-132148192D02*
X202831428Y-132005335D01*
X202831428Y-132005335D02*
X202831428Y-131898192D01*
X202831428Y-131898192D02*
X202795714Y-131755335D01*
X202795714Y-131755335D02*
X202760000Y-131683907D01*
X202760000Y-131683907D02*
X202688571Y-131612478D01*
X202688571Y-131612478D02*
X202581428Y-131576764D01*
X202581428Y-131576764D02*
X202510000Y-131576764D01*
X202510000Y-131576764D02*
X202402857Y-131612478D01*
X202402857Y-131612478D02*
X202367143Y-131648192D01*
X202117143Y-131576764D02*
X201652857Y-131576764D01*
X201652857Y-131576764D02*
X201902857Y-131862478D01*
X201902857Y-131862478D02*
X201795714Y-131862478D01*
X201795714Y-131862478D02*
X201724286Y-131898192D01*
X201724286Y-131898192D02*
X201688571Y-131933907D01*
X201688571Y-131933907D02*
X201652857Y-132005335D01*
X201652857Y-132005335D02*
X201652857Y-132183907D01*
X201652857Y-132183907D02*
X201688571Y-132255335D01*
X201688571Y-132255335D02*
X201724286Y-132291050D01*
X201724286Y-132291050D02*
X201795714Y-132326764D01*
X201795714Y-132326764D02*
X202010000Y-132326764D01*
X202010000Y-132326764D02*
X202081428Y-132291050D01*
X202081428Y-132291050D02*
X202117143Y-132255335D01*
X201188571Y-131576764D02*
X201117142Y-131576764D01*
X201117142Y-131576764D02*
X201045714Y-131612478D01*
X201045714Y-131612478D02*
X201010000Y-131648192D01*
X201010000Y-131648192D02*
X200974285Y-131719621D01*
X200974285Y-131719621D02*
X200938571Y-131862478D01*
X200938571Y-131862478D02*
X200938571Y-132041050D01*
X200938571Y-132041050D02*
X200974285Y-132183907D01*
X200974285Y-132183907D02*
X201010000Y-132255335D01*
X201010000Y-132255335D02*
X201045714Y-132291050D01*
X201045714Y-132291050D02*
X201117142Y-132326764D01*
X201117142Y-132326764D02*
X201188571Y-132326764D01*
X201188571Y-132326764D02*
X201260000Y-132291050D01*
X201260000Y-132291050D02*
X201295714Y-132255335D01*
X201295714Y-132255335D02*
X201331428Y-132183907D01*
X201331428Y-132183907D02*
X201367142Y-132041050D01*
X201367142Y-132041050D02*
X201367142Y-131862478D01*
X201367142Y-131862478D02*
X201331428Y-131719621D01*
X201331428Y-131719621D02*
X201295714Y-131648192D01*
X201295714Y-131648192D02*
X201260000Y-131612478D01*
X201260000Y-131612478D02*
X201188571Y-131576764D01*
X225197143Y-132950335D02*
X225232857Y-132986050D01*
X225232857Y-132986050D02*
X225340000Y-133021764D01*
X225340000Y-133021764D02*
X225411428Y-133021764D01*
X225411428Y-133021764D02*
X225518571Y-132986050D01*
X225518571Y-132986050D02*
X225590000Y-132914621D01*
X225590000Y-132914621D02*
X225625714Y-132843192D01*
X225625714Y-132843192D02*
X225661428Y-132700335D01*
X225661428Y-132700335D02*
X225661428Y-132593192D01*
X225661428Y-132593192D02*
X225625714Y-132450335D01*
X225625714Y-132450335D02*
X225590000Y-132378907D01*
X225590000Y-132378907D02*
X225518571Y-132307478D01*
X225518571Y-132307478D02*
X225411428Y-132271764D01*
X225411428Y-132271764D02*
X225340000Y-132271764D01*
X225340000Y-132271764D02*
X225232857Y-132307478D01*
X225232857Y-132307478D02*
X225197143Y-132343192D01*
X224482857Y-133021764D02*
X224911428Y-133021764D01*
X224697143Y-133021764D02*
X224697143Y-132271764D01*
X224697143Y-132271764D02*
X224768571Y-132378907D01*
X224768571Y-132378907D02*
X224840000Y-132450335D01*
X224840000Y-132450335D02*
X224911428Y-132486050D01*
X223840000Y-132521764D02*
X223840000Y-133021764D01*
X224018571Y-132236050D02*
X224197142Y-132771764D01*
X224197142Y-132771764D02*
X223732857Y-132771764D01*
X211280000Y-140530335D02*
X211315714Y-140566050D01*
X211315714Y-140566050D02*
X211422857Y-140601764D01*
X211422857Y-140601764D02*
X211494285Y-140601764D01*
X211494285Y-140601764D02*
X211601428Y-140566050D01*
X211601428Y-140566050D02*
X211672857Y-140494621D01*
X211672857Y-140494621D02*
X211708571Y-140423192D01*
X211708571Y-140423192D02*
X211744285Y-140280335D01*
X211744285Y-140280335D02*
X211744285Y-140173192D01*
X211744285Y-140173192D02*
X211708571Y-140030335D01*
X211708571Y-140030335D02*
X211672857Y-139958907D01*
X211672857Y-139958907D02*
X211601428Y-139887478D01*
X211601428Y-139887478D02*
X211494285Y-139851764D01*
X211494285Y-139851764D02*
X211422857Y-139851764D01*
X211422857Y-139851764D02*
X211315714Y-139887478D01*
X211315714Y-139887478D02*
X211280000Y-139923192D01*
X210851428Y-140173192D02*
X210922857Y-140137478D01*
X210922857Y-140137478D02*
X210958571Y-140101764D01*
X210958571Y-140101764D02*
X210994285Y-140030335D01*
X210994285Y-140030335D02*
X210994285Y-139994621D01*
X210994285Y-139994621D02*
X210958571Y-139923192D01*
X210958571Y-139923192D02*
X210922857Y-139887478D01*
X210922857Y-139887478D02*
X210851428Y-139851764D01*
X210851428Y-139851764D02*
X210708571Y-139851764D01*
X210708571Y-139851764D02*
X210637143Y-139887478D01*
X210637143Y-139887478D02*
X210601428Y-139923192D01*
X210601428Y-139923192D02*
X210565714Y-139994621D01*
X210565714Y-139994621D02*
X210565714Y-140030335D01*
X210565714Y-140030335D02*
X210601428Y-140101764D01*
X210601428Y-140101764D02*
X210637143Y-140137478D01*
X210637143Y-140137478D02*
X210708571Y-140173192D01*
X210708571Y-140173192D02*
X210851428Y-140173192D01*
X210851428Y-140173192D02*
X210922857Y-140208907D01*
X210922857Y-140208907D02*
X210958571Y-140244621D01*
X210958571Y-140244621D02*
X210994285Y-140316050D01*
X210994285Y-140316050D02*
X210994285Y-140458907D01*
X210994285Y-140458907D02*
X210958571Y-140530335D01*
X210958571Y-140530335D02*
X210922857Y-140566050D01*
X210922857Y-140566050D02*
X210851428Y-140601764D01*
X210851428Y-140601764D02*
X210708571Y-140601764D01*
X210708571Y-140601764D02*
X210637143Y-140566050D01*
X210637143Y-140566050D02*
X210601428Y-140530335D01*
X210601428Y-140530335D02*
X210565714Y-140458907D01*
X210565714Y-140458907D02*
X210565714Y-140316050D01*
X210565714Y-140316050D02*
X210601428Y-140244621D01*
X210601428Y-140244621D02*
X210637143Y-140208907D01*
X210637143Y-140208907D02*
X210708571Y-140173192D01*
X220140000Y-132470335D02*
X220175714Y-132506050D01*
X220175714Y-132506050D02*
X220282857Y-132541764D01*
X220282857Y-132541764D02*
X220354285Y-132541764D01*
X220354285Y-132541764D02*
X220461428Y-132506050D01*
X220461428Y-132506050D02*
X220532857Y-132434621D01*
X220532857Y-132434621D02*
X220568571Y-132363192D01*
X220568571Y-132363192D02*
X220604285Y-132220335D01*
X220604285Y-132220335D02*
X220604285Y-132113192D01*
X220604285Y-132113192D02*
X220568571Y-131970335D01*
X220568571Y-131970335D02*
X220532857Y-131898907D01*
X220532857Y-131898907D02*
X220461428Y-131827478D01*
X220461428Y-131827478D02*
X220354285Y-131791764D01*
X220354285Y-131791764D02*
X220282857Y-131791764D01*
X220282857Y-131791764D02*
X220175714Y-131827478D01*
X220175714Y-131827478D02*
X220140000Y-131863192D01*
X219497143Y-131791764D02*
X219640000Y-131791764D01*
X219640000Y-131791764D02*
X219711428Y-131827478D01*
X219711428Y-131827478D02*
X219747143Y-131863192D01*
X219747143Y-131863192D02*
X219818571Y-131970335D01*
X219818571Y-131970335D02*
X219854285Y-132113192D01*
X219854285Y-132113192D02*
X219854285Y-132398907D01*
X219854285Y-132398907D02*
X219818571Y-132470335D01*
X219818571Y-132470335D02*
X219782857Y-132506050D01*
X219782857Y-132506050D02*
X219711428Y-132541764D01*
X219711428Y-132541764D02*
X219568571Y-132541764D01*
X219568571Y-132541764D02*
X219497143Y-132506050D01*
X219497143Y-132506050D02*
X219461428Y-132470335D01*
X219461428Y-132470335D02*
X219425714Y-132398907D01*
X219425714Y-132398907D02*
X219425714Y-132220335D01*
X219425714Y-132220335D02*
X219461428Y-132148907D01*
X219461428Y-132148907D02*
X219497143Y-132113192D01*
X219497143Y-132113192D02*
X219568571Y-132077478D01*
X219568571Y-132077478D02*
X219711428Y-132077478D01*
X219711428Y-132077478D02*
X219782857Y-132113192D01*
X219782857Y-132113192D02*
X219818571Y-132148907D01*
X219818571Y-132148907D02*
X219854285Y-132220335D01*
X212135000Y-136000335D02*
X212170714Y-136036050D01*
X212170714Y-136036050D02*
X212277857Y-136071764D01*
X212277857Y-136071764D02*
X212349285Y-136071764D01*
X212349285Y-136071764D02*
X212456428Y-136036050D01*
X212456428Y-136036050D02*
X212527857Y-135964621D01*
X212527857Y-135964621D02*
X212563571Y-135893192D01*
X212563571Y-135893192D02*
X212599285Y-135750335D01*
X212599285Y-135750335D02*
X212599285Y-135643192D01*
X212599285Y-135643192D02*
X212563571Y-135500335D01*
X212563571Y-135500335D02*
X212527857Y-135428907D01*
X212527857Y-135428907D02*
X212456428Y-135357478D01*
X212456428Y-135357478D02*
X212349285Y-135321764D01*
X212349285Y-135321764D02*
X212277857Y-135321764D01*
X212277857Y-135321764D02*
X212170714Y-135357478D01*
X212170714Y-135357478D02*
X212135000Y-135393192D01*
X211777857Y-136071764D02*
X211635000Y-136071764D01*
X211635000Y-136071764D02*
X211563571Y-136036050D01*
X211563571Y-136036050D02*
X211527857Y-136000335D01*
X211527857Y-136000335D02*
X211456428Y-135893192D01*
X211456428Y-135893192D02*
X211420714Y-135750335D01*
X211420714Y-135750335D02*
X211420714Y-135464621D01*
X211420714Y-135464621D02*
X211456428Y-135393192D01*
X211456428Y-135393192D02*
X211492143Y-135357478D01*
X211492143Y-135357478D02*
X211563571Y-135321764D01*
X211563571Y-135321764D02*
X211706428Y-135321764D01*
X211706428Y-135321764D02*
X211777857Y-135357478D01*
X211777857Y-135357478D02*
X211813571Y-135393192D01*
X211813571Y-135393192D02*
X211849285Y-135464621D01*
X211849285Y-135464621D02*
X211849285Y-135643192D01*
X211849285Y-135643192D02*
X211813571Y-135714621D01*
X211813571Y-135714621D02*
X211777857Y-135750335D01*
X211777857Y-135750335D02*
X211706428Y-135786050D01*
X211706428Y-135786050D02*
X211563571Y-135786050D01*
X211563571Y-135786050D02*
X211492143Y-135750335D01*
X211492143Y-135750335D02*
X211456428Y-135714621D01*
X211456428Y-135714621D02*
X211420714Y-135643192D01*
X225207143Y-131750335D02*
X225242857Y-131786050D01*
X225242857Y-131786050D02*
X225350000Y-131821764D01*
X225350000Y-131821764D02*
X225421428Y-131821764D01*
X225421428Y-131821764D02*
X225528571Y-131786050D01*
X225528571Y-131786050D02*
X225600000Y-131714621D01*
X225600000Y-131714621D02*
X225635714Y-131643192D01*
X225635714Y-131643192D02*
X225671428Y-131500335D01*
X225671428Y-131500335D02*
X225671428Y-131393192D01*
X225671428Y-131393192D02*
X225635714Y-131250335D01*
X225635714Y-131250335D02*
X225600000Y-131178907D01*
X225600000Y-131178907D02*
X225528571Y-131107478D01*
X225528571Y-131107478D02*
X225421428Y-131071764D01*
X225421428Y-131071764D02*
X225350000Y-131071764D01*
X225350000Y-131071764D02*
X225242857Y-131107478D01*
X225242857Y-131107478D02*
X225207143Y-131143192D01*
X224492857Y-131821764D02*
X224921428Y-131821764D01*
X224707143Y-131821764D02*
X224707143Y-131071764D01*
X224707143Y-131071764D02*
X224778571Y-131178907D01*
X224778571Y-131178907D02*
X224850000Y-131250335D01*
X224850000Y-131250335D02*
X224921428Y-131286050D01*
X224242857Y-131071764D02*
X223778571Y-131071764D01*
X223778571Y-131071764D02*
X224028571Y-131357478D01*
X224028571Y-131357478D02*
X223921428Y-131357478D01*
X223921428Y-131357478D02*
X223850000Y-131393192D01*
X223850000Y-131393192D02*
X223814285Y-131428907D01*
X223814285Y-131428907D02*
X223778571Y-131500335D01*
X223778571Y-131500335D02*
X223778571Y-131678907D01*
X223778571Y-131678907D02*
X223814285Y-131750335D01*
X223814285Y-131750335D02*
X223850000Y-131786050D01*
X223850000Y-131786050D02*
X223921428Y-131821764D01*
X223921428Y-131821764D02*
X224135714Y-131821764D01*
X224135714Y-131821764D02*
X224207142Y-131786050D01*
X224207142Y-131786050D02*
X224242857Y-131750335D01*
X214785000Y-140835335D02*
X214820714Y-140871050D01*
X214820714Y-140871050D02*
X214927857Y-140906764D01*
X214927857Y-140906764D02*
X214999285Y-140906764D01*
X214999285Y-140906764D02*
X215106428Y-140871050D01*
X215106428Y-140871050D02*
X215177857Y-140799621D01*
X215177857Y-140799621D02*
X215213571Y-140728192D01*
X215213571Y-140728192D02*
X215249285Y-140585335D01*
X215249285Y-140585335D02*
X215249285Y-140478192D01*
X215249285Y-140478192D02*
X215213571Y-140335335D01*
X215213571Y-140335335D02*
X215177857Y-140263907D01*
X215177857Y-140263907D02*
X215106428Y-140192478D01*
X215106428Y-140192478D02*
X214999285Y-140156764D01*
X214999285Y-140156764D02*
X214927857Y-140156764D01*
X214927857Y-140156764D02*
X214820714Y-140192478D01*
X214820714Y-140192478D02*
X214785000Y-140228192D01*
X214142143Y-140406764D02*
X214142143Y-140906764D01*
X214320714Y-140121050D02*
X214499285Y-140656764D01*
X214499285Y-140656764D02*
X214035000Y-140656764D01*
X222472143Y-141110335D02*
X222507857Y-141146050D01*
X222507857Y-141146050D02*
X222615000Y-141181764D01*
X222615000Y-141181764D02*
X222686428Y-141181764D01*
X222686428Y-141181764D02*
X222793571Y-141146050D01*
X222793571Y-141146050D02*
X222865000Y-141074621D01*
X222865000Y-141074621D02*
X222900714Y-141003192D01*
X222900714Y-141003192D02*
X222936428Y-140860335D01*
X222936428Y-140860335D02*
X222936428Y-140753192D01*
X222936428Y-140753192D02*
X222900714Y-140610335D01*
X222900714Y-140610335D02*
X222865000Y-140538907D01*
X222865000Y-140538907D02*
X222793571Y-140467478D01*
X222793571Y-140467478D02*
X222686428Y-140431764D01*
X222686428Y-140431764D02*
X222615000Y-140431764D01*
X222615000Y-140431764D02*
X222507857Y-140467478D01*
X222507857Y-140467478D02*
X222472143Y-140503192D01*
X221757857Y-141181764D02*
X222186428Y-141181764D01*
X221972143Y-141181764D02*
X221972143Y-140431764D01*
X221972143Y-140431764D02*
X222043571Y-140538907D01*
X222043571Y-140538907D02*
X222115000Y-140610335D01*
X222115000Y-140610335D02*
X222186428Y-140646050D01*
X221507857Y-140431764D02*
X221007857Y-140431764D01*
X221007857Y-140431764D02*
X221329285Y-141181764D01*
X198692143Y-134761764D02*
X198942143Y-134404621D01*
X199120714Y-134761764D02*
X199120714Y-134011764D01*
X199120714Y-134011764D02*
X198835000Y-134011764D01*
X198835000Y-134011764D02*
X198763571Y-134047478D01*
X198763571Y-134047478D02*
X198727857Y-134083192D01*
X198727857Y-134083192D02*
X198692143Y-134154621D01*
X198692143Y-134154621D02*
X198692143Y-134261764D01*
X198692143Y-134261764D02*
X198727857Y-134333192D01*
X198727857Y-134333192D02*
X198763571Y-134368907D01*
X198763571Y-134368907D02*
X198835000Y-134404621D01*
X198835000Y-134404621D02*
X199120714Y-134404621D01*
X198406428Y-134083192D02*
X198370714Y-134047478D01*
X198370714Y-134047478D02*
X198299286Y-134011764D01*
X198299286Y-134011764D02*
X198120714Y-134011764D01*
X198120714Y-134011764D02*
X198049286Y-134047478D01*
X198049286Y-134047478D02*
X198013571Y-134083192D01*
X198013571Y-134083192D02*
X197977857Y-134154621D01*
X197977857Y-134154621D02*
X197977857Y-134226050D01*
X197977857Y-134226050D02*
X198013571Y-134333192D01*
X198013571Y-134333192D02*
X198442143Y-134761764D01*
X198442143Y-134761764D02*
X197977857Y-134761764D01*
X197513571Y-134011764D02*
X197442142Y-134011764D01*
X197442142Y-134011764D02*
X197370714Y-134047478D01*
X197370714Y-134047478D02*
X197335000Y-134083192D01*
X197335000Y-134083192D02*
X197299285Y-134154621D01*
X197299285Y-134154621D02*
X197263571Y-134297478D01*
X197263571Y-134297478D02*
X197263571Y-134476050D01*
X197263571Y-134476050D02*
X197299285Y-134618907D01*
X197299285Y-134618907D02*
X197335000Y-134690335D01*
X197335000Y-134690335D02*
X197370714Y-134726050D01*
X197370714Y-134726050D02*
X197442142Y-134761764D01*
X197442142Y-134761764D02*
X197513571Y-134761764D01*
X197513571Y-134761764D02*
X197585000Y-134726050D01*
X197585000Y-134726050D02*
X197620714Y-134690335D01*
X197620714Y-134690335D02*
X197656428Y-134618907D01*
X197656428Y-134618907D02*
X197692142Y-134476050D01*
X197692142Y-134476050D02*
X197692142Y-134297478D01*
X197692142Y-134297478D02*
X197656428Y-134154621D01*
X197656428Y-134154621D02*
X197620714Y-134083192D01*
X197620714Y-134083192D02*
X197585000Y-134047478D01*
X197585000Y-134047478D02*
X197513571Y-134011764D01*
X210985000Y-138611764D02*
X211235000Y-138254621D01*
X211413571Y-138611764D02*
X211413571Y-137861764D01*
X211413571Y-137861764D02*
X211127857Y-137861764D01*
X211127857Y-137861764D02*
X211056428Y-137897478D01*
X211056428Y-137897478D02*
X211020714Y-137933192D01*
X211020714Y-137933192D02*
X210985000Y-138004621D01*
X210985000Y-138004621D02*
X210985000Y-138111764D01*
X210985000Y-138111764D02*
X211020714Y-138183192D01*
X211020714Y-138183192D02*
X211056428Y-138218907D01*
X211056428Y-138218907D02*
X211127857Y-138254621D01*
X211127857Y-138254621D02*
X211413571Y-138254621D01*
X210342143Y-138111764D02*
X210342143Y-138611764D01*
X210520714Y-137826050D02*
X210699285Y-138361764D01*
X210699285Y-138361764D02*
X210235000Y-138361764D01*
X206013571Y-142131764D02*
X206013571Y-141381764D01*
X206013571Y-141381764D02*
X205835000Y-141381764D01*
X205835000Y-141381764D02*
X205727857Y-141417478D01*
X205727857Y-141417478D02*
X205656428Y-141488907D01*
X205656428Y-141488907D02*
X205620714Y-141560335D01*
X205620714Y-141560335D02*
X205585000Y-141703192D01*
X205585000Y-141703192D02*
X205585000Y-141810335D01*
X205585000Y-141810335D02*
X205620714Y-141953192D01*
X205620714Y-141953192D02*
X205656428Y-142024621D01*
X205656428Y-142024621D02*
X205727857Y-142096050D01*
X205727857Y-142096050D02*
X205835000Y-142131764D01*
X205835000Y-142131764D02*
X206013571Y-142131764D01*
X205335000Y-141381764D02*
X204870714Y-141381764D01*
X204870714Y-141381764D02*
X205120714Y-141667478D01*
X205120714Y-141667478D02*
X205013571Y-141667478D01*
X205013571Y-141667478D02*
X204942143Y-141703192D01*
X204942143Y-141703192D02*
X204906428Y-141738907D01*
X204906428Y-141738907D02*
X204870714Y-141810335D01*
X204870714Y-141810335D02*
X204870714Y-141988907D01*
X204870714Y-141988907D02*
X204906428Y-142060335D01*
X204906428Y-142060335D02*
X204942143Y-142096050D01*
X204942143Y-142096050D02*
X205013571Y-142131764D01*
X205013571Y-142131764D02*
X205227857Y-142131764D01*
X205227857Y-142131764D02*
X205299285Y-142096050D01*
X205299285Y-142096050D02*
X205335000Y-142060335D01*
X206481428Y-146773192D02*
X206552857Y-146737478D01*
X206552857Y-146737478D02*
X206624285Y-146666050D01*
X206624285Y-146666050D02*
X206731428Y-146558907D01*
X206731428Y-146558907D02*
X206802857Y-146523192D01*
X206802857Y-146523192D02*
X206874285Y-146523192D01*
X206838571Y-146701764D02*
X206910000Y-146666050D01*
X206910000Y-146666050D02*
X206981428Y-146594621D01*
X206981428Y-146594621D02*
X207017142Y-146451764D01*
X207017142Y-146451764D02*
X207017142Y-146201764D01*
X207017142Y-146201764D02*
X206981428Y-146058907D01*
X206981428Y-146058907D02*
X206910000Y-145987478D01*
X206910000Y-145987478D02*
X206838571Y-145951764D01*
X206838571Y-145951764D02*
X206695714Y-145951764D01*
X206695714Y-145951764D02*
X206624285Y-145987478D01*
X206624285Y-145987478D02*
X206552857Y-146058907D01*
X206552857Y-146058907D02*
X206517142Y-146201764D01*
X206517142Y-146201764D02*
X206517142Y-146451764D01*
X206517142Y-146451764D02*
X206552857Y-146594621D01*
X206552857Y-146594621D02*
X206624285Y-146666050D01*
X206624285Y-146666050D02*
X206695714Y-146701764D01*
X206695714Y-146701764D02*
X206838571Y-146701764D01*
X205802857Y-146701764D02*
X206231428Y-146701764D01*
X206017143Y-146701764D02*
X206017143Y-145951764D01*
X206017143Y-145951764D02*
X206088571Y-146058907D01*
X206088571Y-146058907D02*
X206160000Y-146130335D01*
X206160000Y-146130335D02*
X206231428Y-146166050D01*
X205592143Y-144411764D02*
X205842143Y-144054621D01*
X206020714Y-144411764D02*
X206020714Y-143661764D01*
X206020714Y-143661764D02*
X205735000Y-143661764D01*
X205735000Y-143661764D02*
X205663571Y-143697478D01*
X205663571Y-143697478D02*
X205627857Y-143733192D01*
X205627857Y-143733192D02*
X205592143Y-143804621D01*
X205592143Y-143804621D02*
X205592143Y-143911764D01*
X205592143Y-143911764D02*
X205627857Y-143983192D01*
X205627857Y-143983192D02*
X205663571Y-144018907D01*
X205663571Y-144018907D02*
X205735000Y-144054621D01*
X205735000Y-144054621D02*
X206020714Y-144054621D01*
X205306428Y-143733192D02*
X205270714Y-143697478D01*
X205270714Y-143697478D02*
X205199286Y-143661764D01*
X205199286Y-143661764D02*
X205020714Y-143661764D01*
X205020714Y-143661764D02*
X204949286Y-143697478D01*
X204949286Y-143697478D02*
X204913571Y-143733192D01*
X204913571Y-143733192D02*
X204877857Y-143804621D01*
X204877857Y-143804621D02*
X204877857Y-143876050D01*
X204877857Y-143876050D02*
X204913571Y-143983192D01*
X204913571Y-143983192D02*
X205342143Y-144411764D01*
X205342143Y-144411764D02*
X204877857Y-144411764D01*
X204235000Y-143911764D02*
X204235000Y-144411764D01*
X204413571Y-143626050D02*
X204592142Y-144161764D01*
X204592142Y-144161764D02*
X204127857Y-144161764D01*
X218212943Y-142380164D02*
X218462943Y-142023021D01*
X218641514Y-142380164D02*
X218641514Y-141630164D01*
X218641514Y-141630164D02*
X218355800Y-141630164D01*
X218355800Y-141630164D02*
X218284371Y-141665878D01*
X218284371Y-141665878D02*
X218248657Y-141701592D01*
X218248657Y-141701592D02*
X218212943Y-141773021D01*
X218212943Y-141773021D02*
X218212943Y-141880164D01*
X218212943Y-141880164D02*
X218248657Y-141951592D01*
X218248657Y-141951592D02*
X218284371Y-141987307D01*
X218284371Y-141987307D02*
X218355800Y-142023021D01*
X218355800Y-142023021D02*
X218641514Y-142023021D01*
X217927228Y-141701592D02*
X217891514Y-141665878D01*
X217891514Y-141665878D02*
X217820086Y-141630164D01*
X217820086Y-141630164D02*
X217641514Y-141630164D01*
X217641514Y-141630164D02*
X217570086Y-141665878D01*
X217570086Y-141665878D02*
X217534371Y-141701592D01*
X217534371Y-141701592D02*
X217498657Y-141773021D01*
X217498657Y-141773021D02*
X217498657Y-141844450D01*
X217498657Y-141844450D02*
X217534371Y-141951592D01*
X217534371Y-141951592D02*
X217962943Y-142380164D01*
X217962943Y-142380164D02*
X217498657Y-142380164D01*
X216855800Y-141630164D02*
X216998657Y-141630164D01*
X216998657Y-141630164D02*
X217070085Y-141665878D01*
X217070085Y-141665878D02*
X217105800Y-141701592D01*
X217105800Y-141701592D02*
X217177228Y-141808735D01*
X217177228Y-141808735D02*
X217212942Y-141951592D01*
X217212942Y-141951592D02*
X217212942Y-142237307D01*
X217212942Y-142237307D02*
X217177228Y-142308735D01*
X217177228Y-142308735D02*
X217141514Y-142344450D01*
X217141514Y-142344450D02*
X217070085Y-142380164D01*
X217070085Y-142380164D02*
X216927228Y-142380164D01*
X216927228Y-142380164D02*
X216855800Y-142344450D01*
X216855800Y-142344450D02*
X216820085Y-142308735D01*
X216820085Y-142308735D02*
X216784371Y-142237307D01*
X216784371Y-142237307D02*
X216784371Y-142058735D01*
X216784371Y-142058735D02*
X216820085Y-141987307D01*
X216820085Y-141987307D02*
X216855800Y-141951592D01*
X216855800Y-141951592D02*
X216927228Y-141915878D01*
X216927228Y-141915878D02*
X217070085Y-141915878D01*
X217070085Y-141915878D02*
X217141514Y-141951592D01*
X217141514Y-141951592D02*
X217177228Y-141987307D01*
X217177228Y-141987307D02*
X217212942Y-142058735D01*
X203161943Y-131106764D02*
X203411943Y-130749621D01*
X203590514Y-131106764D02*
X203590514Y-130356764D01*
X203590514Y-130356764D02*
X203304800Y-130356764D01*
X203304800Y-130356764D02*
X203233371Y-130392478D01*
X203233371Y-130392478D02*
X203197657Y-130428192D01*
X203197657Y-130428192D02*
X203161943Y-130499621D01*
X203161943Y-130499621D02*
X203161943Y-130606764D01*
X203161943Y-130606764D02*
X203197657Y-130678192D01*
X203197657Y-130678192D02*
X203233371Y-130713907D01*
X203233371Y-130713907D02*
X203304800Y-130749621D01*
X203304800Y-130749621D02*
X203590514Y-130749621D01*
X202447657Y-131106764D02*
X202876228Y-131106764D01*
X202661943Y-131106764D02*
X202661943Y-130356764D01*
X202661943Y-130356764D02*
X202733371Y-130463907D01*
X202733371Y-130463907D02*
X202804800Y-130535335D01*
X202804800Y-130535335D02*
X202876228Y-130571050D01*
X202019085Y-130678192D02*
X202090514Y-130642478D01*
X202090514Y-130642478D02*
X202126228Y-130606764D01*
X202126228Y-130606764D02*
X202161942Y-130535335D01*
X202161942Y-130535335D02*
X202161942Y-130499621D01*
X202161942Y-130499621D02*
X202126228Y-130428192D01*
X202126228Y-130428192D02*
X202090514Y-130392478D01*
X202090514Y-130392478D02*
X202019085Y-130356764D01*
X202019085Y-130356764D02*
X201876228Y-130356764D01*
X201876228Y-130356764D02*
X201804800Y-130392478D01*
X201804800Y-130392478D02*
X201769085Y-130428192D01*
X201769085Y-130428192D02*
X201733371Y-130499621D01*
X201733371Y-130499621D02*
X201733371Y-130535335D01*
X201733371Y-130535335D02*
X201769085Y-130606764D01*
X201769085Y-130606764D02*
X201804800Y-130642478D01*
X201804800Y-130642478D02*
X201876228Y-130678192D01*
X201876228Y-130678192D02*
X202019085Y-130678192D01*
X202019085Y-130678192D02*
X202090514Y-130713907D01*
X202090514Y-130713907D02*
X202126228Y-130749621D01*
X202126228Y-130749621D02*
X202161942Y-130821050D01*
X202161942Y-130821050D02*
X202161942Y-130963907D01*
X202161942Y-130963907D02*
X202126228Y-131035335D01*
X202126228Y-131035335D02*
X202090514Y-131071050D01*
X202090514Y-131071050D02*
X202019085Y-131106764D01*
X202019085Y-131106764D02*
X201876228Y-131106764D01*
X201876228Y-131106764D02*
X201804800Y-131071050D01*
X201804800Y-131071050D02*
X201769085Y-131035335D01*
X201769085Y-131035335D02*
X201733371Y-130963907D01*
X201733371Y-130963907D02*
X201733371Y-130821050D01*
X201733371Y-130821050D02*
X201769085Y-130749621D01*
X201769085Y-130749621D02*
X201804800Y-130713907D01*
X201804800Y-130713907D02*
X201876228Y-130678192D01*
X214472143Y-145300335D02*
X214507857Y-145336050D01*
X214507857Y-145336050D02*
X214615000Y-145371764D01*
X214615000Y-145371764D02*
X214686428Y-145371764D01*
X214686428Y-145371764D02*
X214793571Y-145336050D01*
X214793571Y-145336050D02*
X214865000Y-145264621D01*
X214865000Y-145264621D02*
X214900714Y-145193192D01*
X214900714Y-145193192D02*
X214936428Y-145050335D01*
X214936428Y-145050335D02*
X214936428Y-144943192D01*
X214936428Y-144943192D02*
X214900714Y-144800335D01*
X214900714Y-144800335D02*
X214865000Y-144728907D01*
X214865000Y-144728907D02*
X214793571Y-144657478D01*
X214793571Y-144657478D02*
X214686428Y-144621764D01*
X214686428Y-144621764D02*
X214615000Y-144621764D01*
X214615000Y-144621764D02*
X214507857Y-144657478D01*
X214507857Y-144657478D02*
X214472143Y-144693192D01*
X213757857Y-145371764D02*
X214186428Y-145371764D01*
X213972143Y-145371764D02*
X213972143Y-144621764D01*
X213972143Y-144621764D02*
X214043571Y-144728907D01*
X214043571Y-144728907D02*
X214115000Y-144800335D01*
X214115000Y-144800335D02*
X214186428Y-144836050D01*
X213293571Y-144621764D02*
X213222142Y-144621764D01*
X213222142Y-144621764D02*
X213150714Y-144657478D01*
X213150714Y-144657478D02*
X213115000Y-144693192D01*
X213115000Y-144693192D02*
X213079285Y-144764621D01*
X213079285Y-144764621D02*
X213043571Y-144907478D01*
X213043571Y-144907478D02*
X213043571Y-145086050D01*
X213043571Y-145086050D02*
X213079285Y-145228907D01*
X213079285Y-145228907D02*
X213115000Y-145300335D01*
X213115000Y-145300335D02*
X213150714Y-145336050D01*
X213150714Y-145336050D02*
X213222142Y-145371764D01*
X213222142Y-145371764D02*
X213293571Y-145371764D01*
X213293571Y-145371764D02*
X213365000Y-145336050D01*
X213365000Y-145336050D02*
X213400714Y-145300335D01*
X213400714Y-145300335D02*
X213436428Y-145228907D01*
X213436428Y-145228907D02*
X213472142Y-145086050D01*
X213472142Y-145086050D02*
X213472142Y-144907478D01*
X213472142Y-144907478D02*
X213436428Y-144764621D01*
X213436428Y-144764621D02*
X213400714Y-144693192D01*
X213400714Y-144693192D02*
X213365000Y-144657478D01*
X213365000Y-144657478D02*
X213293571Y-144621764D01*
X200787143Y-144836764D02*
X201037143Y-144479621D01*
X201215714Y-144836764D02*
X201215714Y-144086764D01*
X201215714Y-144086764D02*
X200930000Y-144086764D01*
X200930000Y-144086764D02*
X200858571Y-144122478D01*
X200858571Y-144122478D02*
X200822857Y-144158192D01*
X200822857Y-144158192D02*
X200787143Y-144229621D01*
X200787143Y-144229621D02*
X200787143Y-144336764D01*
X200787143Y-144336764D02*
X200822857Y-144408192D01*
X200822857Y-144408192D02*
X200858571Y-144443907D01*
X200858571Y-144443907D02*
X200930000Y-144479621D01*
X200930000Y-144479621D02*
X201215714Y-144479621D01*
X200072857Y-144836764D02*
X200501428Y-144836764D01*
X200287143Y-144836764D02*
X200287143Y-144086764D01*
X200287143Y-144086764D02*
X200358571Y-144193907D01*
X200358571Y-144193907D02*
X200430000Y-144265335D01*
X200430000Y-144265335D02*
X200501428Y-144301050D01*
X199608571Y-144086764D02*
X199537142Y-144086764D01*
X199537142Y-144086764D02*
X199465714Y-144122478D01*
X199465714Y-144122478D02*
X199430000Y-144158192D01*
X199430000Y-144158192D02*
X199394285Y-144229621D01*
X199394285Y-144229621D02*
X199358571Y-144372478D01*
X199358571Y-144372478D02*
X199358571Y-144551050D01*
X199358571Y-144551050D02*
X199394285Y-144693907D01*
X199394285Y-144693907D02*
X199430000Y-144765335D01*
X199430000Y-144765335D02*
X199465714Y-144801050D01*
X199465714Y-144801050D02*
X199537142Y-144836764D01*
X199537142Y-144836764D02*
X199608571Y-144836764D01*
X199608571Y-144836764D02*
X199680000Y-144801050D01*
X199680000Y-144801050D02*
X199715714Y-144765335D01*
X199715714Y-144765335D02*
X199751428Y-144693907D01*
X199751428Y-144693907D02*
X199787142Y-144551050D01*
X199787142Y-144551050D02*
X199787142Y-144372478D01*
X199787142Y-144372478D02*
X199751428Y-144229621D01*
X199751428Y-144229621D02*
X199715714Y-144158192D01*
X199715714Y-144158192D02*
X199680000Y-144122478D01*
X199680000Y-144122478D02*
X199608571Y-144086764D01*
X204452143Y-139261764D02*
X204702143Y-138904621D01*
X204880714Y-139261764D02*
X204880714Y-138511764D01*
X204880714Y-138511764D02*
X204595000Y-138511764D01*
X204595000Y-138511764D02*
X204523571Y-138547478D01*
X204523571Y-138547478D02*
X204487857Y-138583192D01*
X204487857Y-138583192D02*
X204452143Y-138654621D01*
X204452143Y-138654621D02*
X204452143Y-138761764D01*
X204452143Y-138761764D02*
X204487857Y-138833192D01*
X204487857Y-138833192D02*
X204523571Y-138868907D01*
X204523571Y-138868907D02*
X204595000Y-138904621D01*
X204595000Y-138904621D02*
X204880714Y-138904621D01*
X203737857Y-139261764D02*
X204166428Y-139261764D01*
X203952143Y-139261764D02*
X203952143Y-138511764D01*
X203952143Y-138511764D02*
X204023571Y-138618907D01*
X204023571Y-138618907D02*
X204095000Y-138690335D01*
X204095000Y-138690335D02*
X204166428Y-138726050D01*
X203487857Y-138511764D02*
X203023571Y-138511764D01*
X203023571Y-138511764D02*
X203273571Y-138797478D01*
X203273571Y-138797478D02*
X203166428Y-138797478D01*
X203166428Y-138797478D02*
X203095000Y-138833192D01*
X203095000Y-138833192D02*
X203059285Y-138868907D01*
X203059285Y-138868907D02*
X203023571Y-138940335D01*
X203023571Y-138940335D02*
X203023571Y-139118907D01*
X203023571Y-139118907D02*
X203059285Y-139190335D01*
X203059285Y-139190335D02*
X203095000Y-139226050D01*
X203095000Y-139226050D02*
X203166428Y-139261764D01*
X203166428Y-139261764D02*
X203380714Y-139261764D01*
X203380714Y-139261764D02*
X203452142Y-139226050D01*
X203452142Y-139226050D02*
X203487857Y-139190335D01*
X209301428Y-142743192D02*
X209372857Y-142707478D01*
X209372857Y-142707478D02*
X209444285Y-142636050D01*
X209444285Y-142636050D02*
X209551428Y-142528907D01*
X209551428Y-142528907D02*
X209622857Y-142493192D01*
X209622857Y-142493192D02*
X209694285Y-142493192D01*
X209658571Y-142671764D02*
X209730000Y-142636050D01*
X209730000Y-142636050D02*
X209801428Y-142564621D01*
X209801428Y-142564621D02*
X209837142Y-142421764D01*
X209837142Y-142421764D02*
X209837142Y-142171764D01*
X209837142Y-142171764D02*
X209801428Y-142028907D01*
X209801428Y-142028907D02*
X209730000Y-141957478D01*
X209730000Y-141957478D02*
X209658571Y-141921764D01*
X209658571Y-141921764D02*
X209515714Y-141921764D01*
X209515714Y-141921764D02*
X209444285Y-141957478D01*
X209444285Y-141957478D02*
X209372857Y-142028907D01*
X209372857Y-142028907D02*
X209337142Y-142171764D01*
X209337142Y-142171764D02*
X209337142Y-142421764D01*
X209337142Y-142421764D02*
X209372857Y-142564621D01*
X209372857Y-142564621D02*
X209444285Y-142636050D01*
X209444285Y-142636050D02*
X209515714Y-142671764D01*
X209515714Y-142671764D02*
X209658571Y-142671764D01*
X209051428Y-141993192D02*
X209015714Y-141957478D01*
X209015714Y-141957478D02*
X208944286Y-141921764D01*
X208944286Y-141921764D02*
X208765714Y-141921764D01*
X208765714Y-141921764D02*
X208694286Y-141957478D01*
X208694286Y-141957478D02*
X208658571Y-141993192D01*
X208658571Y-141993192D02*
X208622857Y-142064621D01*
X208622857Y-142064621D02*
X208622857Y-142136050D01*
X208622857Y-142136050D02*
X208658571Y-142243192D01*
X208658571Y-142243192D02*
X209087143Y-142671764D01*
X209087143Y-142671764D02*
X208622857Y-142671764D01*
X198562143Y-132401764D02*
X198812143Y-132044621D01*
X198990714Y-132401764D02*
X198990714Y-131651764D01*
X198990714Y-131651764D02*
X198705000Y-131651764D01*
X198705000Y-131651764D02*
X198633571Y-131687478D01*
X198633571Y-131687478D02*
X198597857Y-131723192D01*
X198597857Y-131723192D02*
X198562143Y-131794621D01*
X198562143Y-131794621D02*
X198562143Y-131901764D01*
X198562143Y-131901764D02*
X198597857Y-131973192D01*
X198597857Y-131973192D02*
X198633571Y-132008907D01*
X198633571Y-132008907D02*
X198705000Y-132044621D01*
X198705000Y-132044621D02*
X198990714Y-132044621D01*
X198276428Y-131723192D02*
X198240714Y-131687478D01*
X198240714Y-131687478D02*
X198169286Y-131651764D01*
X198169286Y-131651764D02*
X197990714Y-131651764D01*
X197990714Y-131651764D02*
X197919286Y-131687478D01*
X197919286Y-131687478D02*
X197883571Y-131723192D01*
X197883571Y-131723192D02*
X197847857Y-131794621D01*
X197847857Y-131794621D02*
X197847857Y-131866050D01*
X197847857Y-131866050D02*
X197883571Y-131973192D01*
X197883571Y-131973192D02*
X198312143Y-132401764D01*
X198312143Y-132401764D02*
X197847857Y-132401764D01*
X197133571Y-132401764D02*
X197562142Y-132401764D01*
X197347857Y-132401764D02*
X197347857Y-131651764D01*
X197347857Y-131651764D02*
X197419285Y-131758907D01*
X197419285Y-131758907D02*
X197490714Y-131830335D01*
X197490714Y-131830335D02*
X197562142Y-131866050D01*
X214727143Y-132375335D02*
X214762857Y-132411050D01*
X214762857Y-132411050D02*
X214870000Y-132446764D01*
X214870000Y-132446764D02*
X214941428Y-132446764D01*
X214941428Y-132446764D02*
X215048571Y-132411050D01*
X215048571Y-132411050D02*
X215120000Y-132339621D01*
X215120000Y-132339621D02*
X215155714Y-132268192D01*
X215155714Y-132268192D02*
X215191428Y-132125335D01*
X215191428Y-132125335D02*
X215191428Y-132018192D01*
X215191428Y-132018192D02*
X215155714Y-131875335D01*
X215155714Y-131875335D02*
X215120000Y-131803907D01*
X215120000Y-131803907D02*
X215048571Y-131732478D01*
X215048571Y-131732478D02*
X214941428Y-131696764D01*
X214941428Y-131696764D02*
X214870000Y-131696764D01*
X214870000Y-131696764D02*
X214762857Y-131732478D01*
X214762857Y-131732478D02*
X214727143Y-131768192D01*
X214441428Y-131768192D02*
X214405714Y-131732478D01*
X214405714Y-131732478D02*
X214334286Y-131696764D01*
X214334286Y-131696764D02*
X214155714Y-131696764D01*
X214155714Y-131696764D02*
X214084286Y-131732478D01*
X214084286Y-131732478D02*
X214048571Y-131768192D01*
X214048571Y-131768192D02*
X214012857Y-131839621D01*
X214012857Y-131839621D02*
X214012857Y-131911050D01*
X214012857Y-131911050D02*
X214048571Y-132018192D01*
X214048571Y-132018192D02*
X214477143Y-132446764D01*
X214477143Y-132446764D02*
X214012857Y-132446764D01*
X213584285Y-132018192D02*
X213655714Y-131982478D01*
X213655714Y-131982478D02*
X213691428Y-131946764D01*
X213691428Y-131946764D02*
X213727142Y-131875335D01*
X213727142Y-131875335D02*
X213727142Y-131839621D01*
X213727142Y-131839621D02*
X213691428Y-131768192D01*
X213691428Y-131768192D02*
X213655714Y-131732478D01*
X213655714Y-131732478D02*
X213584285Y-131696764D01*
X213584285Y-131696764D02*
X213441428Y-131696764D01*
X213441428Y-131696764D02*
X213370000Y-131732478D01*
X213370000Y-131732478D02*
X213334285Y-131768192D01*
X213334285Y-131768192D02*
X213298571Y-131839621D01*
X213298571Y-131839621D02*
X213298571Y-131875335D01*
X213298571Y-131875335D02*
X213334285Y-131946764D01*
X213334285Y-131946764D02*
X213370000Y-131982478D01*
X213370000Y-131982478D02*
X213441428Y-132018192D01*
X213441428Y-132018192D02*
X213584285Y-132018192D01*
X213584285Y-132018192D02*
X213655714Y-132053907D01*
X213655714Y-132053907D02*
X213691428Y-132089621D01*
X213691428Y-132089621D02*
X213727142Y-132161050D01*
X213727142Y-132161050D02*
X213727142Y-132303907D01*
X213727142Y-132303907D02*
X213691428Y-132375335D01*
X213691428Y-132375335D02*
X213655714Y-132411050D01*
X213655714Y-132411050D02*
X213584285Y-132446764D01*
X213584285Y-132446764D02*
X213441428Y-132446764D01*
X213441428Y-132446764D02*
X213370000Y-132411050D01*
X213370000Y-132411050D02*
X213334285Y-132375335D01*
X213334285Y-132375335D02*
X213298571Y-132303907D01*
X213298571Y-132303907D02*
X213298571Y-132161050D01*
X213298571Y-132161050D02*
X213334285Y-132089621D01*
X213334285Y-132089621D02*
X213370000Y-132053907D01*
X213370000Y-132053907D02*
X213441428Y-132018192D01*
X200085000Y-143801764D02*
X200335000Y-143444621D01*
X200513571Y-143801764D02*
X200513571Y-143051764D01*
X200513571Y-143051764D02*
X200227857Y-143051764D01*
X200227857Y-143051764D02*
X200156428Y-143087478D01*
X200156428Y-143087478D02*
X200120714Y-143123192D01*
X200120714Y-143123192D02*
X200085000Y-143194621D01*
X200085000Y-143194621D02*
X200085000Y-143301764D01*
X200085000Y-143301764D02*
X200120714Y-143373192D01*
X200120714Y-143373192D02*
X200156428Y-143408907D01*
X200156428Y-143408907D02*
X200227857Y-143444621D01*
X200227857Y-143444621D02*
X200513571Y-143444621D01*
X199727857Y-143801764D02*
X199585000Y-143801764D01*
X199585000Y-143801764D02*
X199513571Y-143766050D01*
X199513571Y-143766050D02*
X199477857Y-143730335D01*
X199477857Y-143730335D02*
X199406428Y-143623192D01*
X199406428Y-143623192D02*
X199370714Y-143480335D01*
X199370714Y-143480335D02*
X199370714Y-143194621D01*
X199370714Y-143194621D02*
X199406428Y-143123192D01*
X199406428Y-143123192D02*
X199442143Y-143087478D01*
X199442143Y-143087478D02*
X199513571Y-143051764D01*
X199513571Y-143051764D02*
X199656428Y-143051764D01*
X199656428Y-143051764D02*
X199727857Y-143087478D01*
X199727857Y-143087478D02*
X199763571Y-143123192D01*
X199763571Y-143123192D02*
X199799285Y-143194621D01*
X199799285Y-143194621D02*
X199799285Y-143373192D01*
X199799285Y-143373192D02*
X199763571Y-143444621D01*
X199763571Y-143444621D02*
X199727857Y-143480335D01*
X199727857Y-143480335D02*
X199656428Y-143516050D01*
X199656428Y-143516050D02*
X199513571Y-143516050D01*
X199513571Y-143516050D02*
X199442143Y-143480335D01*
X199442143Y-143480335D02*
X199406428Y-143444621D01*
X199406428Y-143444621D02*
X199370714Y-143373192D01*
X208342143Y-139430335D02*
X208377857Y-139466050D01*
X208377857Y-139466050D02*
X208485000Y-139501764D01*
X208485000Y-139501764D02*
X208556428Y-139501764D01*
X208556428Y-139501764D02*
X208663571Y-139466050D01*
X208663571Y-139466050D02*
X208735000Y-139394621D01*
X208735000Y-139394621D02*
X208770714Y-139323192D01*
X208770714Y-139323192D02*
X208806428Y-139180335D01*
X208806428Y-139180335D02*
X208806428Y-139073192D01*
X208806428Y-139073192D02*
X208770714Y-138930335D01*
X208770714Y-138930335D02*
X208735000Y-138858907D01*
X208735000Y-138858907D02*
X208663571Y-138787478D01*
X208663571Y-138787478D02*
X208556428Y-138751764D01*
X208556428Y-138751764D02*
X208485000Y-138751764D01*
X208485000Y-138751764D02*
X208377857Y-138787478D01*
X208377857Y-138787478D02*
X208342143Y-138823192D01*
X208056428Y-138823192D02*
X208020714Y-138787478D01*
X208020714Y-138787478D02*
X207949286Y-138751764D01*
X207949286Y-138751764D02*
X207770714Y-138751764D01*
X207770714Y-138751764D02*
X207699286Y-138787478D01*
X207699286Y-138787478D02*
X207663571Y-138823192D01*
X207663571Y-138823192D02*
X207627857Y-138894621D01*
X207627857Y-138894621D02*
X207627857Y-138966050D01*
X207627857Y-138966050D02*
X207663571Y-139073192D01*
X207663571Y-139073192D02*
X208092143Y-139501764D01*
X208092143Y-139501764D02*
X207627857Y-139501764D01*
X207377857Y-138751764D02*
X206877857Y-138751764D01*
X206877857Y-138751764D02*
X207199285Y-139501764D01*
X203392143Y-145691764D02*
X203642143Y-145334621D01*
X203820714Y-145691764D02*
X203820714Y-144941764D01*
X203820714Y-144941764D02*
X203535000Y-144941764D01*
X203535000Y-144941764D02*
X203463571Y-144977478D01*
X203463571Y-144977478D02*
X203427857Y-145013192D01*
X203427857Y-145013192D02*
X203392143Y-145084621D01*
X203392143Y-145084621D02*
X203392143Y-145191764D01*
X203392143Y-145191764D02*
X203427857Y-145263192D01*
X203427857Y-145263192D02*
X203463571Y-145298907D01*
X203463571Y-145298907D02*
X203535000Y-145334621D01*
X203535000Y-145334621D02*
X203820714Y-145334621D01*
X203106428Y-145013192D02*
X203070714Y-144977478D01*
X203070714Y-144977478D02*
X202999286Y-144941764D01*
X202999286Y-144941764D02*
X202820714Y-144941764D01*
X202820714Y-144941764D02*
X202749286Y-144977478D01*
X202749286Y-144977478D02*
X202713571Y-145013192D01*
X202713571Y-145013192D02*
X202677857Y-145084621D01*
X202677857Y-145084621D02*
X202677857Y-145156050D01*
X202677857Y-145156050D02*
X202713571Y-145263192D01*
X202713571Y-145263192D02*
X203142143Y-145691764D01*
X203142143Y-145691764D02*
X202677857Y-145691764D01*
X202392142Y-145013192D02*
X202356428Y-144977478D01*
X202356428Y-144977478D02*
X202285000Y-144941764D01*
X202285000Y-144941764D02*
X202106428Y-144941764D01*
X202106428Y-144941764D02*
X202035000Y-144977478D01*
X202035000Y-144977478D02*
X201999285Y-145013192D01*
X201999285Y-145013192D02*
X201963571Y-145084621D01*
X201963571Y-145084621D02*
X201963571Y-145156050D01*
X201963571Y-145156050D02*
X201999285Y-145263192D01*
X201999285Y-145263192D02*
X202427857Y-145691764D01*
X202427857Y-145691764D02*
X201963571Y-145691764D01*
X219497143Y-130820335D02*
X219532857Y-130856050D01*
X219532857Y-130856050D02*
X219640000Y-130891764D01*
X219640000Y-130891764D02*
X219711428Y-130891764D01*
X219711428Y-130891764D02*
X219818571Y-130856050D01*
X219818571Y-130856050D02*
X219890000Y-130784621D01*
X219890000Y-130784621D02*
X219925714Y-130713192D01*
X219925714Y-130713192D02*
X219961428Y-130570335D01*
X219961428Y-130570335D02*
X219961428Y-130463192D01*
X219961428Y-130463192D02*
X219925714Y-130320335D01*
X219925714Y-130320335D02*
X219890000Y-130248907D01*
X219890000Y-130248907D02*
X219818571Y-130177478D01*
X219818571Y-130177478D02*
X219711428Y-130141764D01*
X219711428Y-130141764D02*
X219640000Y-130141764D01*
X219640000Y-130141764D02*
X219532857Y-130177478D01*
X219532857Y-130177478D02*
X219497143Y-130213192D01*
X218782857Y-130891764D02*
X219211428Y-130891764D01*
X218997143Y-130891764D02*
X218997143Y-130141764D01*
X218997143Y-130141764D02*
X219068571Y-130248907D01*
X219068571Y-130248907D02*
X219140000Y-130320335D01*
X219140000Y-130320335D02*
X219211428Y-130356050D01*
X218497142Y-130213192D02*
X218461428Y-130177478D01*
X218461428Y-130177478D02*
X218390000Y-130141764D01*
X218390000Y-130141764D02*
X218211428Y-130141764D01*
X218211428Y-130141764D02*
X218140000Y-130177478D01*
X218140000Y-130177478D02*
X218104285Y-130213192D01*
X218104285Y-130213192D02*
X218068571Y-130284621D01*
X218068571Y-130284621D02*
X218068571Y-130356050D01*
X218068571Y-130356050D02*
X218104285Y-130463192D01*
X218104285Y-130463192D02*
X218532857Y-130891764D01*
X218532857Y-130891764D02*
X218068571Y-130891764D01*
X204642143Y-136981764D02*
X204892143Y-136624621D01*
X205070714Y-136981764D02*
X205070714Y-136231764D01*
X205070714Y-136231764D02*
X204785000Y-136231764D01*
X204785000Y-136231764D02*
X204713571Y-136267478D01*
X204713571Y-136267478D02*
X204677857Y-136303192D01*
X204677857Y-136303192D02*
X204642143Y-136374621D01*
X204642143Y-136374621D02*
X204642143Y-136481764D01*
X204642143Y-136481764D02*
X204677857Y-136553192D01*
X204677857Y-136553192D02*
X204713571Y-136588907D01*
X204713571Y-136588907D02*
X204785000Y-136624621D01*
X204785000Y-136624621D02*
X205070714Y-136624621D01*
X203927857Y-136981764D02*
X204356428Y-136981764D01*
X204142143Y-136981764D02*
X204142143Y-136231764D01*
X204142143Y-136231764D02*
X204213571Y-136338907D01*
X204213571Y-136338907D02*
X204285000Y-136410335D01*
X204285000Y-136410335D02*
X204356428Y-136446050D01*
X203285000Y-136231764D02*
X203427857Y-136231764D01*
X203427857Y-136231764D02*
X203499285Y-136267478D01*
X203499285Y-136267478D02*
X203535000Y-136303192D01*
X203535000Y-136303192D02*
X203606428Y-136410335D01*
X203606428Y-136410335D02*
X203642142Y-136553192D01*
X203642142Y-136553192D02*
X203642142Y-136838907D01*
X203642142Y-136838907D02*
X203606428Y-136910335D01*
X203606428Y-136910335D02*
X203570714Y-136946050D01*
X203570714Y-136946050D02*
X203499285Y-136981764D01*
X203499285Y-136981764D02*
X203356428Y-136981764D01*
X203356428Y-136981764D02*
X203285000Y-136946050D01*
X203285000Y-136946050D02*
X203249285Y-136910335D01*
X203249285Y-136910335D02*
X203213571Y-136838907D01*
X203213571Y-136838907D02*
X203213571Y-136660335D01*
X203213571Y-136660335D02*
X203249285Y-136588907D01*
X203249285Y-136588907D02*
X203285000Y-136553192D01*
X203285000Y-136553192D02*
X203356428Y-136517478D01*
X203356428Y-136517478D02*
X203499285Y-136517478D01*
X203499285Y-136517478D02*
X203570714Y-136553192D01*
X203570714Y-136553192D02*
X203606428Y-136588907D01*
X203606428Y-136588907D02*
X203642142Y-136660335D01*
X217280000Y-130860335D02*
X217315714Y-130896050D01*
X217315714Y-130896050D02*
X217422857Y-130931764D01*
X217422857Y-130931764D02*
X217494285Y-130931764D01*
X217494285Y-130931764D02*
X217601428Y-130896050D01*
X217601428Y-130896050D02*
X217672857Y-130824621D01*
X217672857Y-130824621D02*
X217708571Y-130753192D01*
X217708571Y-130753192D02*
X217744285Y-130610335D01*
X217744285Y-130610335D02*
X217744285Y-130503192D01*
X217744285Y-130503192D02*
X217708571Y-130360335D01*
X217708571Y-130360335D02*
X217672857Y-130288907D01*
X217672857Y-130288907D02*
X217601428Y-130217478D01*
X217601428Y-130217478D02*
X217494285Y-130181764D01*
X217494285Y-130181764D02*
X217422857Y-130181764D01*
X217422857Y-130181764D02*
X217315714Y-130217478D01*
X217315714Y-130217478D02*
X217280000Y-130253192D01*
X217030000Y-130181764D02*
X216530000Y-130181764D01*
X216530000Y-130181764D02*
X216851428Y-130931764D01*
X223995000Y-138810335D02*
X224030714Y-138846050D01*
X224030714Y-138846050D02*
X224137857Y-138881764D01*
X224137857Y-138881764D02*
X224209285Y-138881764D01*
X224209285Y-138881764D02*
X224316428Y-138846050D01*
X224316428Y-138846050D02*
X224387857Y-138774621D01*
X224387857Y-138774621D02*
X224423571Y-138703192D01*
X224423571Y-138703192D02*
X224459285Y-138560335D01*
X224459285Y-138560335D02*
X224459285Y-138453192D01*
X224459285Y-138453192D02*
X224423571Y-138310335D01*
X224423571Y-138310335D02*
X224387857Y-138238907D01*
X224387857Y-138238907D02*
X224316428Y-138167478D01*
X224316428Y-138167478D02*
X224209285Y-138131764D01*
X224209285Y-138131764D02*
X224137857Y-138131764D01*
X224137857Y-138131764D02*
X224030714Y-138167478D01*
X224030714Y-138167478D02*
X223995000Y-138203192D01*
X223280714Y-138881764D02*
X223709285Y-138881764D01*
X223495000Y-138881764D02*
X223495000Y-138131764D01*
X223495000Y-138131764D02*
X223566428Y-138238907D01*
X223566428Y-138238907D02*
X223637857Y-138310335D01*
X223637857Y-138310335D02*
X223709285Y-138346050D01*
X222385000Y-136700335D02*
X222420714Y-136736050D01*
X222420714Y-136736050D02*
X222527857Y-136771764D01*
X222527857Y-136771764D02*
X222599285Y-136771764D01*
X222599285Y-136771764D02*
X222706428Y-136736050D01*
X222706428Y-136736050D02*
X222777857Y-136664621D01*
X222777857Y-136664621D02*
X222813571Y-136593192D01*
X222813571Y-136593192D02*
X222849285Y-136450335D01*
X222849285Y-136450335D02*
X222849285Y-136343192D01*
X222849285Y-136343192D02*
X222813571Y-136200335D01*
X222813571Y-136200335D02*
X222777857Y-136128907D01*
X222777857Y-136128907D02*
X222706428Y-136057478D01*
X222706428Y-136057478D02*
X222599285Y-136021764D01*
X222599285Y-136021764D02*
X222527857Y-136021764D01*
X222527857Y-136021764D02*
X222420714Y-136057478D01*
X222420714Y-136057478D02*
X222385000Y-136093192D01*
X221706428Y-136021764D02*
X222063571Y-136021764D01*
X222063571Y-136021764D02*
X222099285Y-136378907D01*
X222099285Y-136378907D02*
X222063571Y-136343192D01*
X222063571Y-136343192D02*
X221992143Y-136307478D01*
X221992143Y-136307478D02*
X221813571Y-136307478D01*
X221813571Y-136307478D02*
X221742143Y-136343192D01*
X221742143Y-136343192D02*
X221706428Y-136378907D01*
X221706428Y-136378907D02*
X221670714Y-136450335D01*
X221670714Y-136450335D02*
X221670714Y-136628907D01*
X221670714Y-136628907D02*
X221706428Y-136700335D01*
X221706428Y-136700335D02*
X221742143Y-136736050D01*
X221742143Y-136736050D02*
X221813571Y-136771764D01*
X221813571Y-136771764D02*
X221992143Y-136771764D01*
X221992143Y-136771764D02*
X222063571Y-136736050D01*
X222063571Y-136736050D02*
X222099285Y-136700335D01*
X215742143Y-130850335D02*
X215777857Y-130886050D01*
X215777857Y-130886050D02*
X215885000Y-130921764D01*
X215885000Y-130921764D02*
X215956428Y-130921764D01*
X215956428Y-130921764D02*
X216063571Y-130886050D01*
X216063571Y-130886050D02*
X216135000Y-130814621D01*
X216135000Y-130814621D02*
X216170714Y-130743192D01*
X216170714Y-130743192D02*
X216206428Y-130600335D01*
X216206428Y-130600335D02*
X216206428Y-130493192D01*
X216206428Y-130493192D02*
X216170714Y-130350335D01*
X216170714Y-130350335D02*
X216135000Y-130278907D01*
X216135000Y-130278907D02*
X216063571Y-130207478D01*
X216063571Y-130207478D02*
X215956428Y-130171764D01*
X215956428Y-130171764D02*
X215885000Y-130171764D01*
X215885000Y-130171764D02*
X215777857Y-130207478D01*
X215777857Y-130207478D02*
X215742143Y-130243192D01*
X215027857Y-130921764D02*
X215456428Y-130921764D01*
X215242143Y-130921764D02*
X215242143Y-130171764D01*
X215242143Y-130171764D02*
X215313571Y-130278907D01*
X215313571Y-130278907D02*
X215385000Y-130350335D01*
X215385000Y-130350335D02*
X215456428Y-130386050D01*
X214670714Y-130921764D02*
X214527857Y-130921764D01*
X214527857Y-130921764D02*
X214456428Y-130886050D01*
X214456428Y-130886050D02*
X214420714Y-130850335D01*
X214420714Y-130850335D02*
X214349285Y-130743192D01*
X214349285Y-130743192D02*
X214313571Y-130600335D01*
X214313571Y-130600335D02*
X214313571Y-130314621D01*
X214313571Y-130314621D02*
X214349285Y-130243192D01*
X214349285Y-130243192D02*
X214385000Y-130207478D01*
X214385000Y-130207478D02*
X214456428Y-130171764D01*
X214456428Y-130171764D02*
X214599285Y-130171764D01*
X214599285Y-130171764D02*
X214670714Y-130207478D01*
X214670714Y-130207478D02*
X214706428Y-130243192D01*
X214706428Y-130243192D02*
X214742142Y-130314621D01*
X214742142Y-130314621D02*
X214742142Y-130493192D01*
X214742142Y-130493192D02*
X214706428Y-130564621D01*
X214706428Y-130564621D02*
X214670714Y-130600335D01*
X214670714Y-130600335D02*
X214599285Y-130636050D01*
X214599285Y-130636050D02*
X214456428Y-130636050D01*
X214456428Y-130636050D02*
X214385000Y-130600335D01*
X214385000Y-130600335D02*
X214349285Y-130564621D01*
X214349285Y-130564621D02*
X214313571Y-130493192D01*
X210892143Y-144686764D02*
X211142143Y-144329621D01*
X211320714Y-144686764D02*
X211320714Y-143936764D01*
X211320714Y-143936764D02*
X211035000Y-143936764D01*
X211035000Y-143936764D02*
X210963571Y-143972478D01*
X210963571Y-143972478D02*
X210927857Y-144008192D01*
X210927857Y-144008192D02*
X210892143Y-144079621D01*
X210892143Y-144079621D02*
X210892143Y-144186764D01*
X210892143Y-144186764D02*
X210927857Y-144258192D01*
X210927857Y-144258192D02*
X210963571Y-144293907D01*
X210963571Y-144293907D02*
X211035000Y-144329621D01*
X211035000Y-144329621D02*
X211320714Y-144329621D01*
X210606428Y-144008192D02*
X210570714Y-143972478D01*
X210570714Y-143972478D02*
X210499286Y-143936764D01*
X210499286Y-143936764D02*
X210320714Y-143936764D01*
X210320714Y-143936764D02*
X210249286Y-143972478D01*
X210249286Y-143972478D02*
X210213571Y-144008192D01*
X210213571Y-144008192D02*
X210177857Y-144079621D01*
X210177857Y-144079621D02*
X210177857Y-144151050D01*
X210177857Y-144151050D02*
X210213571Y-144258192D01*
X210213571Y-144258192D02*
X210642143Y-144686764D01*
X210642143Y-144686764D02*
X210177857Y-144686764D01*
X209499285Y-143936764D02*
X209856428Y-143936764D01*
X209856428Y-143936764D02*
X209892142Y-144293907D01*
X209892142Y-144293907D02*
X209856428Y-144258192D01*
X209856428Y-144258192D02*
X209785000Y-144222478D01*
X209785000Y-144222478D02*
X209606428Y-144222478D01*
X209606428Y-144222478D02*
X209535000Y-144258192D01*
X209535000Y-144258192D02*
X209499285Y-144293907D01*
X209499285Y-144293907D02*
X209463571Y-144365335D01*
X209463571Y-144365335D02*
X209463571Y-144543907D01*
X209463571Y-144543907D02*
X209499285Y-144615335D01*
X209499285Y-144615335D02*
X209535000Y-144651050D01*
X209535000Y-144651050D02*
X209606428Y-144686764D01*
X209606428Y-144686764D02*
X209785000Y-144686764D01*
X209785000Y-144686764D02*
X209856428Y-144651050D01*
X209856428Y-144651050D02*
X209892142Y-144615335D01*
X201728571Y-133821764D02*
X201728571Y-133071764D01*
X201728571Y-133071764D02*
X201550000Y-133071764D01*
X201550000Y-133071764D02*
X201442857Y-133107478D01*
X201442857Y-133107478D02*
X201371428Y-133178907D01*
X201371428Y-133178907D02*
X201335714Y-133250335D01*
X201335714Y-133250335D02*
X201300000Y-133393192D01*
X201300000Y-133393192D02*
X201300000Y-133500335D01*
X201300000Y-133500335D02*
X201335714Y-133643192D01*
X201335714Y-133643192D02*
X201371428Y-133714621D01*
X201371428Y-133714621D02*
X201442857Y-133786050D01*
X201442857Y-133786050D02*
X201550000Y-133821764D01*
X201550000Y-133821764D02*
X201728571Y-133821764D01*
X201014285Y-133143192D02*
X200978571Y-133107478D01*
X200978571Y-133107478D02*
X200907143Y-133071764D01*
X200907143Y-133071764D02*
X200728571Y-133071764D01*
X200728571Y-133071764D02*
X200657143Y-133107478D01*
X200657143Y-133107478D02*
X200621428Y-133143192D01*
X200621428Y-133143192D02*
X200585714Y-133214621D01*
X200585714Y-133214621D02*
X200585714Y-133286050D01*
X200585714Y-133286050D02*
X200621428Y-133393192D01*
X200621428Y-133393192D02*
X201050000Y-133821764D01*
X201050000Y-133821764D02*
X200585714Y-133821764D01*
X208072143Y-138100335D02*
X208107857Y-138136050D01*
X208107857Y-138136050D02*
X208215000Y-138171764D01*
X208215000Y-138171764D02*
X208286428Y-138171764D01*
X208286428Y-138171764D02*
X208393571Y-138136050D01*
X208393571Y-138136050D02*
X208465000Y-138064621D01*
X208465000Y-138064621D02*
X208500714Y-137993192D01*
X208500714Y-137993192D02*
X208536428Y-137850335D01*
X208536428Y-137850335D02*
X208536428Y-137743192D01*
X208536428Y-137743192D02*
X208500714Y-137600335D01*
X208500714Y-137600335D02*
X208465000Y-137528907D01*
X208465000Y-137528907D02*
X208393571Y-137457478D01*
X208393571Y-137457478D02*
X208286428Y-137421764D01*
X208286428Y-137421764D02*
X208215000Y-137421764D01*
X208215000Y-137421764D02*
X208107857Y-137457478D01*
X208107857Y-137457478D02*
X208072143Y-137493192D01*
X207786428Y-137493192D02*
X207750714Y-137457478D01*
X207750714Y-137457478D02*
X207679286Y-137421764D01*
X207679286Y-137421764D02*
X207500714Y-137421764D01*
X207500714Y-137421764D02*
X207429286Y-137457478D01*
X207429286Y-137457478D02*
X207393571Y-137493192D01*
X207393571Y-137493192D02*
X207357857Y-137564621D01*
X207357857Y-137564621D02*
X207357857Y-137636050D01*
X207357857Y-137636050D02*
X207393571Y-137743192D01*
X207393571Y-137743192D02*
X207822143Y-138171764D01*
X207822143Y-138171764D02*
X207357857Y-138171764D01*
X206679285Y-137421764D02*
X207036428Y-137421764D01*
X207036428Y-137421764D02*
X207072142Y-137778907D01*
X207072142Y-137778907D02*
X207036428Y-137743192D01*
X207036428Y-137743192D02*
X206965000Y-137707478D01*
X206965000Y-137707478D02*
X206786428Y-137707478D01*
X206786428Y-137707478D02*
X206715000Y-137743192D01*
X206715000Y-137743192D02*
X206679285Y-137778907D01*
X206679285Y-137778907D02*
X206643571Y-137850335D01*
X206643571Y-137850335D02*
X206643571Y-138028907D01*
X206643571Y-138028907D02*
X206679285Y-138100335D01*
X206679285Y-138100335D02*
X206715000Y-138136050D01*
X206715000Y-138136050D02*
X206786428Y-138171764D01*
X206786428Y-138171764D02*
X206965000Y-138171764D01*
X206965000Y-138171764D02*
X207036428Y-138136050D01*
X207036428Y-138136050D02*
X207072142Y-138100335D01*
X199835000Y-145961764D02*
X200085000Y-145604621D01*
X200263571Y-145961764D02*
X200263571Y-145211764D01*
X200263571Y-145211764D02*
X199977857Y-145211764D01*
X199977857Y-145211764D02*
X199906428Y-145247478D01*
X199906428Y-145247478D02*
X199870714Y-145283192D01*
X199870714Y-145283192D02*
X199835000Y-145354621D01*
X199835000Y-145354621D02*
X199835000Y-145461764D01*
X199835000Y-145461764D02*
X199870714Y-145533192D01*
X199870714Y-145533192D02*
X199906428Y-145568907D01*
X199906428Y-145568907D02*
X199977857Y-145604621D01*
X199977857Y-145604621D02*
X200263571Y-145604621D01*
X199585000Y-145211764D02*
X199120714Y-145211764D01*
X199120714Y-145211764D02*
X199370714Y-145497478D01*
X199370714Y-145497478D02*
X199263571Y-145497478D01*
X199263571Y-145497478D02*
X199192143Y-145533192D01*
X199192143Y-145533192D02*
X199156428Y-145568907D01*
X199156428Y-145568907D02*
X199120714Y-145640335D01*
X199120714Y-145640335D02*
X199120714Y-145818907D01*
X199120714Y-145818907D02*
X199156428Y-145890335D01*
X199156428Y-145890335D02*
X199192143Y-145926050D01*
X199192143Y-145926050D02*
X199263571Y-145961764D01*
X199263571Y-145961764D02*
X199477857Y-145961764D01*
X199477857Y-145961764D02*
X199549285Y-145926050D01*
X199549285Y-145926050D02*
X199585000Y-145890335D01*
%TO.C,D3*%
X205500000Y-139180000D02*
G75*
G02*
X205400000Y-139180000I-50000J0D01*
G01*
X205400000Y-139180000D02*
G75*
G02*
X205500000Y-139180000I50000J0D01*
G01*
D15*
%TO.C,Q1*%
X208047500Y-143882500D02*
X206747500Y-143882500D01*
X208047500Y-145682500D02*
X206747500Y-145682500D01*
D11*
X208622500Y-143732500D02*
G75*
G02*
X208472500Y-143732500I-75000J0D01*
G01*
X208472500Y-143732500D02*
G75*
G02*
X208622500Y-143732500I75000J0D01*
G01*
D15*
%TO.C,R26*%
X217884441Y-140488400D02*
X217577159Y-140488400D01*
X217884441Y-141248400D02*
X217577159Y-141248400D01*
%TO.C,R13*%
X203427500Y-141197258D02*
X203427500Y-140722742D01*
X204472500Y-141197258D02*
X204472500Y-140722742D01*
%TO.C,Q2*%
X206390000Y-143207500D02*
X206390000Y-141907500D01*
X208190000Y-143207500D02*
X208190000Y-141907500D01*
D11*
X208565000Y-143257500D02*
G75*
G02*
X208415000Y-143257500I-75000J0D01*
G01*
X208415000Y-143257500D02*
G75*
G02*
X208565000Y-143257500I75000J0D01*
G01*
D15*
%TO.C,C27*%
X206040000Y-140182164D02*
X206040000Y-140397836D01*
X206760000Y-140182164D02*
X206760000Y-140397836D01*
%TO.C,C12*%
X217600000Y-132422836D02*
X217600000Y-132207164D01*
X218320000Y-132422836D02*
X218320000Y-132207164D01*
%TO.C,D2*%
X199825000Y-135090000D02*
X199825000Y-140150000D01*
X199825000Y-140150000D02*
X202545000Y-140150000D01*
X202545000Y-135090000D02*
X202545000Y-140150000D01*
%TD*%
D16*
X192024000Y-147574000D02*
G75*
G02*
X191389000Y-146939000I0J635000D01*
G01*
X236866000Y-146812009D02*
G75*
G02*
X236103993Y-147574000I-762000J9D01*
G01*
X236866000Y-146812000D02*
X236866000Y-132500000D01*
X228965000Y-128016000D02*
G75*
G02*
X229600000Y-128651000I0J-635000D01*
G01*
X191389000Y-128651000D02*
G75*
G02*
X192024000Y-128016000I635000J0D01*
G01*
X191389000Y-128651000D02*
X191389000Y-146939000D01*
X229600000Y-131220000D02*
X229600000Y-128660000D01*
X236231000Y-131864000D02*
G75*
G02*
X236866000Y-132499000I0J-635000D01*
G01*
X230235000Y-131864000D02*
G75*
G02*
X229600000Y-131229000I0J635000D01*
G01*
X236231000Y-131864000D02*
X230240000Y-131864000D01*
X192024000Y-147574000D02*
X236103993Y-147574000D01*
X192024000Y-128016000D02*
X228965000Y-128016000D01*
M02*
