%TF.GenerationSoftware,KiCad,Pcbnew,8.0.1*%
%TF.CreationDate,2024-04-17T19:21:24-07:00*%
%TF.ProjectId,stm32_bluet_pill,73746d33-325f-4626-9c75-65745f70696c,Proto*%
%TF.SameCoordinates,Original*%
%TF.FileFunction,Drillmap*%
%TF.FilePolarity,Positive*%
%FSLAX45Y45*%
G04 Gerber Fmt 4.5, Leading zero omitted, Abs format (unit mm)*
G04 Created by KiCad (PCBNEW 8.0.1) date 2024-04-17 19:21:24*
%MOMM*%
%LPD*%
G01*
G04 APERTURE LIST*
%ADD10C,0.100000*%
%ADD11C,0.200000*%
G04 APERTURE END LIST*
D10*
X19202400Y-14757400D02*
G75*
G02*
X19138900Y-14693900I0J63500D01*
G01*
X23686600Y-14681201D02*
G75*
G02*
X23610399Y-14757400I-76200J1D01*
G01*
X23686600Y-14681200D02*
X23686600Y-13250000D01*
X22896500Y-12801600D02*
G75*
G02*
X22960000Y-12865100I0J-63500D01*
G01*
X19138900Y-12865100D02*
G75*
G02*
X19202400Y-12801600I63500J0D01*
G01*
X19138900Y-12865100D02*
X19138900Y-14693900D01*
X22960000Y-13122000D02*
X22960000Y-12866000D01*
X23623100Y-13186400D02*
G75*
G02*
X23686600Y-13249900I0J-63500D01*
G01*
X23023500Y-13186400D02*
G75*
G02*
X22960000Y-13122900I0J63500D01*
G01*
X23623100Y-13186400D02*
X23024000Y-13186400D01*
X19202400Y-14757400D02*
X23610399Y-14757400D01*
X19202400Y-12801600D02*
X22896500Y-12801600D01*
D11*
D10*
X20261480Y-14291000D02*
X20281480Y-14311000D01*
X20281480Y-14291000D02*
X20261480Y-14311000D01*
X20261480Y-14391000D02*
X20281480Y-14411000D01*
X20281480Y-14391000D02*
X20261480Y-14411000D01*
X19674000Y-13319000D02*
G75*
G02*
X19644000Y-13319000I-15000J0D01*
G01*
X19644000Y-13319000D02*
G75*
G02*
X19674000Y-13319000I15000J0D01*
G01*
X19734000Y-13173000D02*
G75*
G02*
X19704000Y-13173000I-15000J0D01*
G01*
X19704000Y-13173000D02*
G75*
G02*
X19734000Y-13173000I15000J0D01*
G01*
X19734000Y-13471000D02*
G75*
G02*
X19704000Y-13471000I-15000J0D01*
G01*
X19704000Y-13471000D02*
G75*
G02*
X19734000Y-13471000I15000J0D01*
G01*
X19884000Y-13969000D02*
G75*
G02*
X19854000Y-13969000I-15000J0D01*
G01*
X19854000Y-13969000D02*
G75*
G02*
X19884000Y-13969000I15000J0D01*
G01*
X19929000Y-13914000D02*
G75*
G02*
X19899000Y-13914000I-15000J0D01*
G01*
X19899000Y-13914000D02*
G75*
G02*
X19929000Y-13914000I15000J0D01*
G01*
X19951580Y-13037700D02*
G75*
G02*
X19921580Y-13037700I-15000J0D01*
G01*
X19921580Y-13037700D02*
G75*
G02*
X19951580Y-13037700I15000J0D01*
G01*
X19955000Y-14474000D02*
G75*
G02*
X19925000Y-14474000I-15000J0D01*
G01*
X19925000Y-14474000D02*
G75*
G02*
X19955000Y-14474000I15000J0D01*
G01*
X19955000Y-14687000D02*
G75*
G02*
X19925000Y-14687000I-15000J0D01*
G01*
X19925000Y-14687000D02*
G75*
G02*
X19955000Y-14687000I15000J0D01*
G01*
X19956540Y-13657580D02*
G75*
G02*
X19926540Y-13657580I-15000J0D01*
G01*
X19926540Y-13657580D02*
G75*
G02*
X19956540Y-13657580I15000J0D01*
G01*
X19960000Y-13120000D02*
G75*
G02*
X19930000Y-13120000I-15000J0D01*
G01*
X19930000Y-13120000D02*
G75*
G02*
X19960000Y-13120000I15000J0D01*
G01*
X19971000Y-13968000D02*
G75*
G02*
X19941000Y-13968000I-15000J0D01*
G01*
X19941000Y-13968000D02*
G75*
G02*
X19971000Y-13968000I15000J0D01*
G01*
X19986000Y-13585000D02*
G75*
G02*
X19956000Y-13585000I-15000J0D01*
G01*
X19956000Y-13585000D02*
G75*
G02*
X19986000Y-13585000I15000J0D01*
G01*
X20011000Y-14613000D02*
G75*
G02*
X19981000Y-14613000I-15000J0D01*
G01*
X19981000Y-14613000D02*
G75*
G02*
X20011000Y-14613000I15000J0D01*
G01*
X20028000Y-13118000D02*
G75*
G02*
X19998000Y-13118000I-15000J0D01*
G01*
X19998000Y-13118000D02*
G75*
G02*
X20028000Y-13118000I15000J0D01*
G01*
X20048000Y-13769000D02*
G75*
G02*
X20018000Y-13769000I-15000J0D01*
G01*
X20018000Y-13769000D02*
G75*
G02*
X20048000Y-13769000I15000J0D01*
G01*
X20054000Y-13584000D02*
G75*
G02*
X20024000Y-13584000I-15000J0D01*
G01*
X20024000Y-13584000D02*
G75*
G02*
X20054000Y-13584000I15000J0D01*
G01*
X20058000Y-14349000D02*
G75*
G02*
X20028000Y-14349000I-15000J0D01*
G01*
X20028000Y-14349000D02*
G75*
G02*
X20058000Y-14349000I15000J0D01*
G01*
X20100000Y-14429000D02*
G75*
G02*
X20070000Y-14429000I-15000J0D01*
G01*
X20070000Y-14429000D02*
G75*
G02*
X20100000Y-14429000I15000J0D01*
G01*
X20114000Y-13303000D02*
G75*
G02*
X20084000Y-13303000I-15000J0D01*
G01*
X20084000Y-13303000D02*
G75*
G02*
X20114000Y-13303000I15000J0D01*
G01*
X20116000Y-13656000D02*
G75*
G02*
X20086000Y-13656000I-15000J0D01*
G01*
X20086000Y-13656000D02*
G75*
G02*
X20116000Y-13656000I15000J0D01*
G01*
X20124381Y-13772081D02*
G75*
G02*
X20094381Y-13772081I-15000J0D01*
G01*
X20094381Y-13772081D02*
G75*
G02*
X20124381Y-13772081I15000J0D01*
G01*
X20171000Y-13703000D02*
G75*
G02*
X20141000Y-13703000I-15000J0D01*
G01*
X20141000Y-13703000D02*
G75*
G02*
X20171000Y-13703000I15000J0D01*
G01*
X20178000Y-14664000D02*
G75*
G02*
X20148000Y-14664000I-15000J0D01*
G01*
X20148000Y-14664000D02*
G75*
G02*
X20178000Y-14664000I15000J0D01*
G01*
X20180000Y-14478000D02*
G75*
G02*
X20150000Y-14478000I-15000J0D01*
G01*
X20150000Y-14478000D02*
G75*
G02*
X20180000Y-14478000I15000J0D01*
G01*
X20192000Y-13813000D02*
G75*
G02*
X20162000Y-13813000I-15000J0D01*
G01*
X20162000Y-13813000D02*
G75*
G02*
X20192000Y-13813000I15000J0D01*
G01*
X20194000Y-14559000D02*
G75*
G02*
X20164000Y-14559000I-15000J0D01*
G01*
X20164000Y-14559000D02*
G75*
G02*
X20194000Y-14559000I15000J0D01*
G01*
X20233591Y-14693430D02*
G75*
G02*
X20203591Y-14693430I-15000J0D01*
G01*
X20203591Y-14693430D02*
G75*
G02*
X20233591Y-14693430I15000J0D01*
G01*
X20236000Y-13237000D02*
G75*
G02*
X20206000Y-13237000I-15000J0D01*
G01*
X20206000Y-13237000D02*
G75*
G02*
X20236000Y-13237000I15000J0D01*
G01*
X20243040Y-14105000D02*
G75*
G02*
X20213040Y-14105000I-15000J0D01*
G01*
X20213040Y-14105000D02*
G75*
G02*
X20243040Y-14105000I15000J0D01*
G01*
X20251500Y-13701500D02*
G75*
G02*
X20221500Y-13701500I-15000J0D01*
G01*
X20221500Y-13701500D02*
G75*
G02*
X20251500Y-13701500I15000J0D01*
G01*
X20271500Y-13411000D02*
G75*
G02*
X20241500Y-13411000I-15000J0D01*
G01*
X20241500Y-13411000D02*
G75*
G02*
X20271500Y-13411000I15000J0D01*
G01*
X20289000Y-14027000D02*
G75*
G02*
X20259000Y-14027000I-15000J0D01*
G01*
X20259000Y-14027000D02*
G75*
G02*
X20289000Y-14027000I15000J0D01*
G01*
X20292000Y-13969000D02*
G75*
G02*
X20262000Y-13969000I-15000J0D01*
G01*
X20262000Y-13969000D02*
G75*
G02*
X20292000Y-13969000I15000J0D01*
G01*
X20305930Y-13125310D02*
G75*
G02*
X20275930Y-13125310I-15000J0D01*
G01*
X20275930Y-13125310D02*
G75*
G02*
X20305930Y-13125310I15000J0D01*
G01*
X20318000Y-13531000D02*
G75*
G02*
X20288000Y-13531000I-15000J0D01*
G01*
X20288000Y-13531000D02*
G75*
G02*
X20318000Y-13531000I15000J0D01*
G01*
X20319000Y-14553000D02*
G75*
G02*
X20289000Y-14553000I-15000J0D01*
G01*
X20289000Y-14553000D02*
G75*
G02*
X20319000Y-14553000I15000J0D01*
G01*
X20323570Y-14108430D02*
G75*
G02*
X20293570Y-14108430I-15000J0D01*
G01*
X20293570Y-14108430D02*
G75*
G02*
X20323570Y-14108430I15000J0D01*
G01*
X20353000Y-13815000D02*
G75*
G02*
X20323000Y-13815000I-15000J0D01*
G01*
X20323000Y-13815000D02*
G75*
G02*
X20353000Y-13815000I15000J0D01*
G01*
X20368000Y-12955000D02*
G75*
G02*
X20338000Y-12955000I-15000J0D01*
G01*
X20338000Y-12955000D02*
G75*
G02*
X20368000Y-12955000I15000J0D01*
G01*
X20403000Y-13670000D02*
G75*
G02*
X20373000Y-13670000I-15000J0D01*
G01*
X20373000Y-13670000D02*
G75*
G02*
X20403000Y-13670000I15000J0D01*
G01*
X20426000Y-13411000D02*
G75*
G02*
X20396000Y-13411000I-15000J0D01*
G01*
X20396000Y-13411000D02*
G75*
G02*
X20426000Y-13411000I15000J0D01*
G01*
X20444000Y-13516000D02*
G75*
G02*
X20414000Y-13516000I-15000J0D01*
G01*
X20414000Y-13516000D02*
G75*
G02*
X20444000Y-13516000I15000J0D01*
G01*
X20448000Y-14632000D02*
G75*
G02*
X20418000Y-14632000I-15000J0D01*
G01*
X20418000Y-14632000D02*
G75*
G02*
X20448000Y-14632000I15000J0D01*
G01*
X20490000Y-14274000D02*
G75*
G02*
X20460000Y-14274000I-15000J0D01*
G01*
X20460000Y-14274000D02*
G75*
G02*
X20490000Y-14274000I15000J0D01*
G01*
X20501000Y-14185000D02*
G75*
G02*
X20471000Y-14185000I-15000J0D01*
G01*
X20471000Y-14185000D02*
G75*
G02*
X20501000Y-14185000I15000J0D01*
G01*
X20516000Y-13468000D02*
G75*
G02*
X20486000Y-13468000I-15000J0D01*
G01*
X20486000Y-13468000D02*
G75*
G02*
X20516000Y-13468000I15000J0D01*
G01*
X20518000Y-13221000D02*
G75*
G02*
X20488000Y-13221000I-15000J0D01*
G01*
X20488000Y-13221000D02*
G75*
G02*
X20518000Y-13221000I15000J0D01*
G01*
X20520500Y-14631500D02*
G75*
G02*
X20490500Y-14631500I-15000J0D01*
G01*
X20490500Y-14631500D02*
G75*
G02*
X20520500Y-14631500I15000J0D01*
G01*
X20563000Y-14184000D02*
G75*
G02*
X20533000Y-14184000I-15000J0D01*
G01*
X20533000Y-14184000D02*
G75*
G02*
X20563000Y-14184000I15000J0D01*
G01*
X20605000Y-13424000D02*
G75*
G02*
X20575000Y-13424000I-15000J0D01*
G01*
X20575000Y-13424000D02*
G75*
G02*
X20605000Y-13424000I15000J0D01*
G01*
X20609000Y-14356000D02*
G75*
G02*
X20579000Y-14356000I-15000J0D01*
G01*
X20579000Y-14356000D02*
G75*
G02*
X20609000Y-14356000I15000J0D01*
G01*
X20611000Y-14424000D02*
G75*
G02*
X20581000Y-14424000I-15000J0D01*
G01*
X20581000Y-14424000D02*
G75*
G02*
X20611000Y-14424000I15000J0D01*
G01*
X20662000Y-13425000D02*
G75*
G02*
X20632000Y-13425000I-15000J0D01*
G01*
X20632000Y-13425000D02*
G75*
G02*
X20662000Y-13425000I15000J0D01*
G01*
X20675000Y-13839000D02*
G75*
G02*
X20645000Y-13839000I-15000J0D01*
G01*
X20645000Y-13839000D02*
G75*
G02*
X20675000Y-13839000I15000J0D01*
G01*
X20684000Y-13913000D02*
G75*
G02*
X20654000Y-13913000I-15000J0D01*
G01*
X20654000Y-13913000D02*
G75*
G02*
X20684000Y-13913000I15000J0D01*
G01*
X20697000Y-13603000D02*
G75*
G02*
X20667000Y-13603000I-15000J0D01*
G01*
X20667000Y-13603000D02*
G75*
G02*
X20697000Y-13603000I15000J0D01*
G01*
X20711000Y-13679000D02*
G75*
G02*
X20681000Y-13679000I-15000J0D01*
G01*
X20681000Y-13679000D02*
G75*
G02*
X20711000Y-13679000I15000J0D01*
G01*
X20719000Y-14036000D02*
G75*
G02*
X20689000Y-14036000I-15000J0D01*
G01*
X20689000Y-14036000D02*
G75*
G02*
X20719000Y-14036000I15000J0D01*
G01*
X20723000Y-14573000D02*
G75*
G02*
X20693000Y-14573000I-15000J0D01*
G01*
X20693000Y-14573000D02*
G75*
G02*
X20723000Y-14573000I15000J0D01*
G01*
X20757000Y-14508000D02*
G75*
G02*
X20727000Y-14508000I-15000J0D01*
G01*
X20727000Y-14508000D02*
G75*
G02*
X20757000Y-14508000I15000J0D01*
G01*
X20775000Y-13218000D02*
G75*
G02*
X20745000Y-13218000I-15000J0D01*
G01*
X20745000Y-13218000D02*
G75*
G02*
X20775000Y-13218000I15000J0D01*
G01*
X20949000Y-13229000D02*
G75*
G02*
X20919000Y-13229000I-15000J0D01*
G01*
X20919000Y-13229000D02*
G75*
G02*
X20949000Y-13229000I15000J0D01*
G01*
X20970000Y-12999000D02*
G75*
G02*
X20940000Y-12999000I-15000J0D01*
G01*
X20940000Y-12999000D02*
G75*
G02*
X20970000Y-12999000I15000J0D01*
G01*
X20970000Y-14555000D02*
G75*
G02*
X20940000Y-14555000I-15000J0D01*
G01*
X20940000Y-14555000D02*
G75*
G02*
X20970000Y-14555000I15000J0D01*
G01*
X20987000Y-13418000D02*
G75*
G02*
X20957000Y-13418000I-15000J0D01*
G01*
X20957000Y-13418000D02*
G75*
G02*
X20987000Y-13418000I15000J0D01*
G01*
X20987000Y-14302000D02*
G75*
G02*
X20957000Y-14302000I-15000J0D01*
G01*
X20957000Y-14302000D02*
G75*
G02*
X20987000Y-14302000I15000J0D01*
G01*
X21009214Y-13656309D02*
G75*
G02*
X20979214Y-13656309I-15000J0D01*
G01*
X20979214Y-13656309D02*
G75*
G02*
X21009214Y-13656309I15000J0D01*
G01*
X21026000Y-14201000D02*
G75*
G02*
X20996000Y-14201000I-15000J0D01*
G01*
X20996000Y-14201000D02*
G75*
G02*
X21026000Y-14201000I15000J0D01*
G01*
X21031000Y-13246000D02*
G75*
G02*
X21001000Y-13246000I-15000J0D01*
G01*
X21001000Y-13246000D02*
G75*
G02*
X21031000Y-13246000I15000J0D01*
G01*
X21045000Y-14403000D02*
G75*
G02*
X21015000Y-14403000I-15000J0D01*
G01*
X21015000Y-14403000D02*
G75*
G02*
X21045000Y-14403000I15000J0D01*
G01*
X21069000Y-13849000D02*
G75*
G02*
X21039000Y-13849000I-15000J0D01*
G01*
X21039000Y-13849000D02*
G75*
G02*
X21069000Y-13849000I15000J0D01*
G01*
X21080000Y-14485000D02*
G75*
G02*
X21050000Y-14485000I-15000J0D01*
G01*
X21050000Y-14485000D02*
G75*
G02*
X21080000Y-14485000I15000J0D01*
G01*
X21089000Y-13198000D02*
G75*
G02*
X21059000Y-13198000I-15000J0D01*
G01*
X21059000Y-13198000D02*
G75*
G02*
X21089000Y-13198000I15000J0D01*
G01*
X21099000Y-13726000D02*
G75*
G02*
X21069000Y-13726000I-15000J0D01*
G01*
X21069000Y-13726000D02*
G75*
G02*
X21099000Y-13726000I15000J0D01*
G01*
X21105000Y-13622000D02*
G75*
G02*
X21075000Y-13622000I-15000J0D01*
G01*
X21075000Y-13622000D02*
G75*
G02*
X21105000Y-13622000I15000J0D01*
G01*
X21139000Y-13503000D02*
G75*
G02*
X21109000Y-13503000I-15000J0D01*
G01*
X21109000Y-13503000D02*
G75*
G02*
X21139000Y-13503000I15000J0D01*
G01*
X21143985Y-13228547D02*
G75*
G02*
X21113985Y-13228547I-15000J0D01*
G01*
X21113985Y-13228547D02*
G75*
G02*
X21143985Y-13228547I15000J0D01*
G01*
X21160000Y-13838000D02*
G75*
G02*
X21130000Y-13838000I-15000J0D01*
G01*
X21130000Y-13838000D02*
G75*
G02*
X21160000Y-13838000I15000J0D01*
G01*
X21182500Y-13551500D02*
G75*
G02*
X21152500Y-13551500I-15000J0D01*
G01*
X21152500Y-13551500D02*
G75*
G02*
X21182500Y-13551500I15000J0D01*
G01*
X21189000Y-13679000D02*
G75*
G02*
X21159000Y-13679000I-15000J0D01*
G01*
X21159000Y-13679000D02*
G75*
G02*
X21189000Y-13679000I15000J0D01*
G01*
X21190000Y-14046000D02*
G75*
G02*
X21160000Y-14046000I-15000J0D01*
G01*
X21160000Y-14046000D02*
G75*
G02*
X21190000Y-14046000I15000J0D01*
G01*
X21240000Y-13418000D02*
G75*
G02*
X21210000Y-13418000I-15000J0D01*
G01*
X21210000Y-13418000D02*
G75*
G02*
X21240000Y-13418000I15000J0D01*
G01*
X21247000Y-13931000D02*
G75*
G02*
X21217000Y-13931000I-15000J0D01*
G01*
X21217000Y-13931000D02*
G75*
G02*
X21247000Y-13931000I15000J0D01*
G01*
X21316000Y-14002000D02*
G75*
G02*
X21286000Y-14002000I-15000J0D01*
G01*
X21286000Y-14002000D02*
G75*
G02*
X21316000Y-14002000I15000J0D01*
G01*
X21329000Y-13178000D02*
G75*
G02*
X21299000Y-13178000I-15000J0D01*
G01*
X21299000Y-13178000D02*
G75*
G02*
X21329000Y-13178000I15000J0D01*
G01*
X21358000Y-13235000D02*
G75*
G02*
X21328000Y-13235000I-15000J0D01*
G01*
X21328000Y-13235000D02*
G75*
G02*
X21358000Y-13235000I15000J0D01*
G01*
X21415000Y-14120000D02*
G75*
G02*
X21385000Y-14120000I-15000J0D01*
G01*
X21385000Y-14120000D02*
G75*
G02*
X21415000Y-14120000I15000J0D01*
G01*
X21466000Y-13050000D02*
G75*
G02*
X21436000Y-13050000I-15000J0D01*
G01*
X21436000Y-13050000D02*
G75*
G02*
X21466000Y-13050000I15000J0D01*
G01*
X21474000Y-14400000D02*
G75*
G02*
X21444000Y-14400000I-15000J0D01*
G01*
X21444000Y-14400000D02*
G75*
G02*
X21474000Y-14400000I15000J0D01*
G01*
X21566000Y-13450900D02*
G75*
G02*
X21536000Y-13450900I-15000J0D01*
G01*
X21536000Y-13450900D02*
G75*
G02*
X21566000Y-13450900I15000J0D01*
G01*
X21566000Y-13610920D02*
G75*
G02*
X21536000Y-13610920I-15000J0D01*
G01*
X21536000Y-13610920D02*
G75*
G02*
X21566000Y-13610920I15000J0D01*
G01*
X21566000Y-13773480D02*
G75*
G02*
X21536000Y-13773480I-15000J0D01*
G01*
X21536000Y-13773480D02*
G75*
G02*
X21566000Y-13773480I15000J0D01*
G01*
X21580000Y-14324000D02*
G75*
G02*
X21550000Y-14324000I-15000J0D01*
G01*
X21550000Y-14324000D02*
G75*
G02*
X21580000Y-14324000I15000J0D01*
G01*
X21601000Y-14396000D02*
G75*
G02*
X21571000Y-14396000I-15000J0D01*
G01*
X21571000Y-14396000D02*
G75*
G02*
X21601000Y-14396000I15000J0D01*
G01*
X21646000Y-13146000D02*
G75*
G02*
X21616000Y-13146000I-15000J0D01*
G01*
X21616000Y-13146000D02*
G75*
G02*
X21646000Y-13146000I15000J0D01*
G01*
X21667000Y-14370000D02*
G75*
G02*
X21637000Y-14370000I-15000J0D01*
G01*
X21637000Y-14370000D02*
G75*
G02*
X21667000Y-14370000I15000J0D01*
G01*
X21680000Y-14238000D02*
G75*
G02*
X21650000Y-14238000I-15000J0D01*
G01*
X21650000Y-14238000D02*
G75*
G02*
X21680000Y-14238000I15000J0D01*
G01*
X21704000Y-13146000D02*
G75*
G02*
X21674000Y-13146000I-15000J0D01*
G01*
X21674000Y-13146000D02*
G75*
G02*
X21704000Y-13146000I15000J0D01*
G01*
X21726000Y-13450900D02*
G75*
G02*
X21696000Y-13450900I-15000J0D01*
G01*
X21696000Y-13450900D02*
G75*
G02*
X21726000Y-13450900I15000J0D01*
G01*
X21726000Y-13610920D02*
G75*
G02*
X21696000Y-13610920I-15000J0D01*
G01*
X21696000Y-13610920D02*
G75*
G02*
X21726000Y-13610920I15000J0D01*
G01*
X21726000Y-13773480D02*
G75*
G02*
X21696000Y-13773480I-15000J0D01*
G01*
X21696000Y-13773480D02*
G75*
G02*
X21726000Y-13773480I15000J0D01*
G01*
X21792000Y-14200000D02*
G75*
G02*
X21762000Y-14200000I-15000J0D01*
G01*
X21762000Y-14200000D02*
G75*
G02*
X21792000Y-14200000I15000J0D01*
G01*
X21834000Y-13064000D02*
G75*
G02*
X21804000Y-13064000I-15000J0D01*
G01*
X21804000Y-13064000D02*
G75*
G02*
X21834000Y-13064000I15000J0D01*
G01*
X21886000Y-13450900D02*
G75*
G02*
X21856000Y-13450900I-15000J0D01*
G01*
X21856000Y-13450900D02*
G75*
G02*
X21886000Y-13450900I15000J0D01*
G01*
X21886000Y-13610920D02*
G75*
G02*
X21856000Y-13610920I-15000J0D01*
G01*
X21856000Y-13610920D02*
G75*
G02*
X21886000Y-13610920I15000J0D01*
G01*
X21886000Y-13773480D02*
G75*
G02*
X21856000Y-13773480I-15000J0D01*
G01*
X21856000Y-13773480D02*
G75*
G02*
X21886000Y-13773480I15000J0D01*
G01*
X21925000Y-14087000D02*
G75*
G02*
X21895000Y-14087000I-15000J0D01*
G01*
X21895000Y-14087000D02*
G75*
G02*
X21925000Y-14087000I15000J0D01*
G01*
X21996000Y-14153000D02*
G75*
G02*
X21966000Y-14153000I-15000J0D01*
G01*
X21966000Y-14153000D02*
G75*
G02*
X21996000Y-14153000I15000J0D01*
G01*
X22037000Y-13131000D02*
G75*
G02*
X22007000Y-13131000I-15000J0D01*
G01*
X22007000Y-13131000D02*
G75*
G02*
X22037000Y-13131000I15000J0D01*
G01*
X22097245Y-13151334D02*
G75*
G02*
X22067245Y-13151334I-15000J0D01*
G01*
X22067245Y-13151334D02*
G75*
G02*
X22097245Y-13151334I15000J0D01*
G01*
X22146000Y-13991000D02*
G75*
G02*
X22116000Y-13991000I-15000J0D01*
G01*
X22116000Y-13991000D02*
G75*
G02*
X22146000Y-13991000I15000J0D01*
G01*
X22174000Y-14191000D02*
G75*
G02*
X22144000Y-14191000I-15000J0D01*
G01*
X22144000Y-14191000D02*
G75*
G02*
X22174000Y-14191000I15000J0D01*
G01*
X22177000Y-14392000D02*
G75*
G02*
X22147000Y-14392000I-15000J0D01*
G01*
X22147000Y-14392000D02*
G75*
G02*
X22177000Y-14392000I15000J0D01*
G01*
X22204000Y-14032000D02*
G75*
G02*
X22174000Y-14032000I-15000J0D01*
G01*
X22174000Y-14032000D02*
G75*
G02*
X22204000Y-14032000I15000J0D01*
G01*
X22210000Y-13479000D02*
G75*
G02*
X22180000Y-13479000I-15000J0D01*
G01*
X22180000Y-13479000D02*
G75*
G02*
X22210000Y-13479000I15000J0D01*
G01*
X22211000Y-13271000D02*
G75*
G02*
X22181000Y-13271000I-15000J0D01*
G01*
X22181000Y-13271000D02*
G75*
G02*
X22211000Y-13271000I15000J0D01*
G01*
X22219000Y-13913000D02*
G75*
G02*
X22189000Y-13913000I-15000J0D01*
G01*
X22189000Y-13913000D02*
G75*
G02*
X22219000Y-13913000I15000J0D01*
G01*
X22240000Y-14556000D02*
G75*
G02*
X22210000Y-14556000I-15000J0D01*
G01*
X22210000Y-14556000D02*
G75*
G02*
X22240000Y-14556000I15000J0D01*
G01*
X22273000Y-13480000D02*
G75*
G02*
X22243000Y-13480000I-15000J0D01*
G01*
X22243000Y-13480000D02*
G75*
G02*
X22273000Y-13480000I15000J0D01*
G01*
X22307992Y-13690074D02*
G75*
G02*
X22277992Y-13690074I-15000J0D01*
G01*
X22277992Y-13690074D02*
G75*
G02*
X22307992Y-13690074I15000J0D01*
G01*
X22309500Y-14361500D02*
G75*
G02*
X22279500Y-14361500I-15000J0D01*
G01*
X22279500Y-14361500D02*
G75*
G02*
X22309500Y-14361500I15000J0D01*
G01*
X22315702Y-13917993D02*
G75*
G02*
X22285702Y-13917993I-15000J0D01*
G01*
X22285702Y-13917993D02*
G75*
G02*
X22315702Y-13917993I15000J0D01*
G01*
X22322000Y-13982000D02*
G75*
G02*
X22292000Y-13982000I-15000J0D01*
G01*
X22292000Y-13982000D02*
G75*
G02*
X22322000Y-13982000I15000J0D01*
G01*
X22346000Y-13596000D02*
G75*
G02*
X22316000Y-13596000I-15000J0D01*
G01*
X22316000Y-13596000D02*
G75*
G02*
X22346000Y-13596000I15000J0D01*
G01*
X22348000Y-13510000D02*
G75*
G02*
X22318000Y-13510000I-15000J0D01*
G01*
X22318000Y-13510000D02*
G75*
G02*
X22348000Y-13510000I15000J0D01*
G01*
X22356000Y-14410000D02*
G75*
G02*
X22326000Y-14410000I-15000J0D01*
G01*
X22326000Y-14410000D02*
G75*
G02*
X22356000Y-14410000I15000J0D01*
G01*
X22369000Y-13872000D02*
G75*
G02*
X22339000Y-13872000I-15000J0D01*
G01*
X22339000Y-13872000D02*
G75*
G02*
X22369000Y-13872000I15000J0D01*
G01*
X22384000Y-13694000D02*
G75*
G02*
X22354000Y-13694000I-15000J0D01*
G01*
X22354000Y-13694000D02*
G75*
G02*
X22384000Y-13694000I15000J0D01*
G01*
X22385000Y-14083000D02*
G75*
G02*
X22355000Y-14083000I-15000J0D01*
G01*
X22355000Y-14083000D02*
G75*
G02*
X22385000Y-14083000I15000J0D01*
G01*
X22388000Y-13320000D02*
G75*
G02*
X22358000Y-13320000I-15000J0D01*
G01*
X22358000Y-13320000D02*
G75*
G02*
X22388000Y-13320000I15000J0D01*
G01*
X22395000Y-14358000D02*
G75*
G02*
X22365000Y-14358000I-15000J0D01*
G01*
X22365000Y-14358000D02*
G75*
G02*
X22395000Y-14358000I15000J0D01*
G01*
X22403000Y-13380000D02*
G75*
G02*
X22373000Y-13380000I-15000J0D01*
G01*
X22373000Y-13380000D02*
G75*
G02*
X22403000Y-13380000I15000J0D01*
G01*
X22403000Y-14144000D02*
G75*
G02*
X22373000Y-14144000I-15000J0D01*
G01*
X22373000Y-14144000D02*
G75*
G02*
X22403000Y-14144000I15000J0D01*
G01*
X22415000Y-13566000D02*
G75*
G02*
X22385000Y-13566000I-15000J0D01*
G01*
X22385000Y-13566000D02*
G75*
G02*
X22415000Y-13566000I15000J0D01*
G01*
X22454000Y-13422000D02*
G75*
G02*
X22424000Y-13422000I-15000J0D01*
G01*
X22424000Y-13422000D02*
G75*
G02*
X22454000Y-13422000I15000J0D01*
G01*
X22465000Y-14357000D02*
G75*
G02*
X22435000Y-14357000I-15000J0D01*
G01*
X22435000Y-14357000D02*
G75*
G02*
X22465000Y-14357000I15000J0D01*
G01*
X22489000Y-13627000D02*
G75*
G02*
X22459000Y-13627000I-15000J0D01*
G01*
X22459000Y-13627000D02*
G75*
G02*
X22489000Y-13627000I15000J0D01*
G01*
X22504000Y-14142000D02*
G75*
G02*
X22474000Y-14142000I-15000J0D01*
G01*
X22474000Y-14142000D02*
G75*
G02*
X22504000Y-14142000I15000J0D01*
G01*
X22515000Y-14308000D02*
G75*
G02*
X22485000Y-14308000I-15000J0D01*
G01*
X22485000Y-14308000D02*
G75*
G02*
X22515000Y-14308000I15000J0D01*
G01*
X22521000Y-13365000D02*
G75*
G02*
X22491000Y-13365000I-15000J0D01*
G01*
X22491000Y-13365000D02*
G75*
G02*
X22521000Y-13365000I15000J0D01*
G01*
X22529000Y-13050000D02*
G75*
G02*
X22499000Y-13050000I-15000J0D01*
G01*
X22499000Y-13050000D02*
G75*
G02*
X22529000Y-13050000I15000J0D01*
G01*
X22529000Y-13443000D02*
G75*
G02*
X22499000Y-13443000I-15000J0D01*
G01*
X22499000Y-13443000D02*
G75*
G02*
X22529000Y-13443000I15000J0D01*
G01*
X22547000Y-13577000D02*
G75*
G02*
X22517000Y-13577000I-15000J0D01*
G01*
X22517000Y-13577000D02*
G75*
G02*
X22547000Y-13577000I15000J0D01*
G01*
X22601000Y-13444000D02*
G75*
G02*
X22571000Y-13444000I-15000J0D01*
G01*
X22571000Y-13444000D02*
G75*
G02*
X22601000Y-13444000I15000J0D01*
G01*
X22615000Y-13363000D02*
G75*
G02*
X22585000Y-13363000I-15000J0D01*
G01*
X22585000Y-13363000D02*
G75*
G02*
X22615000Y-13363000I15000J0D01*
G01*
X22621000Y-13144500D02*
G75*
G02*
X22591000Y-13144500I-15000J0D01*
G01*
X22591000Y-13144500D02*
G75*
G02*
X22621000Y-13144500I15000J0D01*
G01*
X22621000Y-13271500D02*
G75*
G02*
X22591000Y-13271500I-15000J0D01*
G01*
X22591000Y-13271500D02*
G75*
G02*
X22621000Y-13271500I15000J0D01*
G01*
X22623000Y-13579000D02*
G75*
G02*
X22593000Y-13579000I-15000J0D01*
G01*
X22593000Y-13579000D02*
G75*
G02*
X22623000Y-13579000I15000J0D01*
G01*
X22677000Y-13443000D02*
G75*
G02*
X22647000Y-13443000I-15000J0D01*
G01*
X22647000Y-13443000D02*
G75*
G02*
X22677000Y-13443000I15000J0D01*
G01*
X22685000Y-13627000D02*
G75*
G02*
X22655000Y-13627000I-15000J0D01*
G01*
X22655000Y-13627000D02*
G75*
G02*
X22685000Y-13627000I15000J0D01*
G01*
X22715000Y-13087000D02*
G75*
G02*
X22685000Y-13087000I-15000J0D01*
G01*
X22685000Y-13087000D02*
G75*
G02*
X22715000Y-13087000I15000J0D01*
G01*
X22715000Y-13214000D02*
G75*
G02*
X22685000Y-13214000I-15000J0D01*
G01*
X22685000Y-13214000D02*
G75*
G02*
X22715000Y-13214000I15000J0D01*
G01*
X22716000Y-13839500D02*
G75*
G02*
X22686000Y-13839500I-15000J0D01*
G01*
X22686000Y-13839500D02*
G75*
G02*
X22716000Y-13839500I15000J0D01*
G01*
X22716000Y-13965667D02*
G75*
G02*
X22686000Y-13965667I-15000J0D01*
G01*
X22686000Y-13965667D02*
G75*
G02*
X22716000Y-13965667I15000J0D01*
G01*
X22716000Y-14091833D02*
G75*
G02*
X22686000Y-14091833I-15000J0D01*
G01*
X22686000Y-14091833D02*
G75*
G02*
X22716000Y-14091833I15000J0D01*
G01*
X22716000Y-14218000D02*
G75*
G02*
X22686000Y-14218000I-15000J0D01*
G01*
X22686000Y-14218000D02*
G75*
G02*
X22716000Y-14218000I15000J0D01*
G01*
X22716000Y-14344167D02*
G75*
G02*
X22686000Y-14344167I-15000J0D01*
G01*
X22686000Y-14344167D02*
G75*
G02*
X22716000Y-14344167I15000J0D01*
G01*
X22716000Y-14470333D02*
G75*
G02*
X22686000Y-14470333I-15000J0D01*
G01*
X22686000Y-14470333D02*
G75*
G02*
X22716000Y-14470333I15000J0D01*
G01*
X22723000Y-13336000D02*
G75*
G02*
X22693000Y-13336000I-15000J0D01*
G01*
X22693000Y-13336000D02*
G75*
G02*
X22723000Y-13336000I15000J0D01*
G01*
X22734000Y-13419000D02*
G75*
G02*
X22704000Y-13419000I-15000J0D01*
G01*
X22704000Y-13419000D02*
G75*
G02*
X22734000Y-13419000I15000J0D01*
G01*
X22739000Y-13668000D02*
G75*
G02*
X22709000Y-13668000I-15000J0D01*
G01*
X22709000Y-13668000D02*
G75*
G02*
X22739000Y-13668000I15000J0D01*
G01*
X22770000Y-13148000D02*
G75*
G02*
X22740000Y-13148000I-15000J0D01*
G01*
X22740000Y-13148000D02*
G75*
G02*
X22770000Y-13148000I15000J0D01*
G01*
X22799000Y-13349000D02*
G75*
G02*
X22769000Y-13349000I-15000J0D01*
G01*
X22769000Y-13349000D02*
G75*
G02*
X22799000Y-13349000I15000J0D01*
G01*
X22803000Y-13672000D02*
G75*
G02*
X22773000Y-13672000I-15000J0D01*
G01*
X22773000Y-13672000D02*
G75*
G02*
X22803000Y-13672000I15000J0D01*
G01*
X22811500Y-12890500D02*
G75*
G02*
X22781500Y-12890500I-15000J0D01*
G01*
X22781500Y-12890500D02*
G75*
G02*
X22811500Y-12890500I15000J0D01*
G01*
X22811500Y-13017500D02*
G75*
G02*
X22781500Y-13017500I-15000J0D01*
G01*
X22781500Y-13017500D02*
G75*
G02*
X22811500Y-13017500I15000J0D01*
G01*
X22811500Y-13271500D02*
G75*
G02*
X22781500Y-13271500I-15000J0D01*
G01*
X22781500Y-13271500D02*
G75*
G02*
X22811500Y-13271500I15000J0D01*
G01*
X22813000Y-13903500D02*
G75*
G02*
X22783000Y-13903500I-15000J0D01*
G01*
X22783000Y-13903500D02*
G75*
G02*
X22813000Y-13903500I15000J0D01*
G01*
X22813000Y-14029667D02*
G75*
G02*
X22783000Y-14029667I-15000J0D01*
G01*
X22783000Y-14029667D02*
G75*
G02*
X22813000Y-14029667I15000J0D01*
G01*
X22813000Y-14155833D02*
G75*
G02*
X22783000Y-14155833I-15000J0D01*
G01*
X22783000Y-14155833D02*
G75*
G02*
X22813000Y-14155833I15000J0D01*
G01*
X22813000Y-14282000D02*
G75*
G02*
X22783000Y-14282000I-15000J0D01*
G01*
X22783000Y-14282000D02*
G75*
G02*
X22813000Y-14282000I15000J0D01*
G01*
X22813000Y-14408167D02*
G75*
G02*
X22783000Y-14408167I-15000J0D01*
G01*
X22783000Y-14408167D02*
G75*
G02*
X22813000Y-14408167I15000J0D01*
G01*
X22813000Y-14534333D02*
G75*
G02*
X22783000Y-14534333I-15000J0D01*
G01*
X22783000Y-14534333D02*
G75*
G02*
X22813000Y-14534333I15000J0D01*
G01*
X22813000Y-14660500D02*
G75*
G02*
X22783000Y-14660500I-15000J0D01*
G01*
X22783000Y-14660500D02*
G75*
G02*
X22813000Y-14660500I15000J0D01*
G01*
X22814000Y-13783000D02*
G75*
G02*
X22784000Y-13783000I-15000J0D01*
G01*
X22784000Y-13783000D02*
G75*
G02*
X22814000Y-13783000I15000J0D01*
G01*
X22887000Y-13648000D02*
G75*
G02*
X22857000Y-13648000I-15000J0D01*
G01*
X22857000Y-13648000D02*
G75*
G02*
X22887000Y-13648000I15000J0D01*
G01*
X22888000Y-13372000D02*
G75*
G02*
X22858000Y-13372000I-15000J0D01*
G01*
X22858000Y-13372000D02*
G75*
G02*
X22888000Y-13372000I15000J0D01*
G01*
X22909000Y-12962000D02*
G75*
G02*
X22879000Y-12962000I-15000J0D01*
G01*
X22879000Y-12962000D02*
G75*
G02*
X22909000Y-12962000I15000J0D01*
G01*
X22914000Y-13837333D02*
G75*
G02*
X22884000Y-13837333I-15000J0D01*
G01*
X22884000Y-13837333D02*
G75*
G02*
X22914000Y-13837333I15000J0D01*
G01*
X22914000Y-13963500D02*
G75*
G02*
X22884000Y-13963500I-15000J0D01*
G01*
X22884000Y-13963500D02*
G75*
G02*
X22914000Y-13963500I15000J0D01*
G01*
X22914000Y-14089666D02*
G75*
G02*
X22884000Y-14089666I-15000J0D01*
G01*
X22884000Y-14089666D02*
G75*
G02*
X22914000Y-14089666I15000J0D01*
G01*
X22914000Y-14215833D02*
G75*
G02*
X22884000Y-14215833I-15000J0D01*
G01*
X22884000Y-14215833D02*
G75*
G02*
X22914000Y-14215833I15000J0D01*
G01*
X22914000Y-14342000D02*
G75*
G02*
X22884000Y-14342000I-15000J0D01*
G01*
X22884000Y-14342000D02*
G75*
G02*
X22914000Y-14342000I15000J0D01*
G01*
X22914000Y-14468166D02*
G75*
G02*
X22884000Y-14468166I-15000J0D01*
G01*
X22884000Y-14468166D02*
G75*
G02*
X22914000Y-14468166I15000J0D01*
G01*
X22914000Y-14594333D02*
G75*
G02*
X22884000Y-14594333I-15000J0D01*
G01*
X22884000Y-14594333D02*
G75*
G02*
X22914000Y-14594333I15000J0D01*
G01*
X22915000Y-13071000D02*
G75*
G02*
X22885000Y-13071000I-15000J0D01*
G01*
X22885000Y-13071000D02*
G75*
G02*
X22915000Y-13071000I15000J0D01*
G01*
X22923000Y-13300000D02*
G75*
G02*
X22893000Y-13300000I-15000J0D01*
G01*
X22893000Y-13300000D02*
G75*
G02*
X22923000Y-13300000I15000J0D01*
G01*
X22971000Y-13674000D02*
G75*
G02*
X22941000Y-13674000I-15000J0D01*
G01*
X22941000Y-13674000D02*
G75*
G02*
X22971000Y-13674000I15000J0D01*
G01*
X22973000Y-13228000D02*
G75*
G02*
X22943000Y-13228000I-15000J0D01*
G01*
X22943000Y-13228000D02*
G75*
G02*
X22973000Y-13228000I15000J0D01*
G01*
X22973000Y-13349000D02*
G75*
G02*
X22943000Y-13349000I-15000J0D01*
G01*
X22943000Y-13349000D02*
G75*
G02*
X22973000Y-13349000I15000J0D01*
G01*
X23016000Y-13903000D02*
G75*
G02*
X22986000Y-13903000I-15000J0D01*
G01*
X22986000Y-13903000D02*
G75*
G02*
X23016000Y-13903000I15000J0D01*
G01*
X23016000Y-14029167D02*
G75*
G02*
X22986000Y-14029167I-15000J0D01*
G01*
X22986000Y-14029167D02*
G75*
G02*
X23016000Y-14029167I15000J0D01*
G01*
X23016000Y-14155333D02*
G75*
G02*
X22986000Y-14155333I-15000J0D01*
G01*
X22986000Y-14155333D02*
G75*
G02*
X23016000Y-14155333I15000J0D01*
G01*
X23016000Y-14281500D02*
G75*
G02*
X22986000Y-14281500I-15000J0D01*
G01*
X22986000Y-14281500D02*
G75*
G02*
X23016000Y-14281500I15000J0D01*
G01*
X23016000Y-14407666D02*
G75*
G02*
X22986000Y-14407666I-15000J0D01*
G01*
X22986000Y-14407666D02*
G75*
G02*
X23016000Y-14407666I15000J0D01*
G01*
X23016000Y-14533833D02*
G75*
G02*
X22986000Y-14533833I-15000J0D01*
G01*
X22986000Y-14533833D02*
G75*
G02*
X23016000Y-14533833I15000J0D01*
G01*
X23016000Y-14660000D02*
G75*
G02*
X22986000Y-14660000I-15000J0D01*
G01*
X22986000Y-14660000D02*
G75*
G02*
X23016000Y-14660000I15000J0D01*
G01*
X23019000Y-13786000D02*
G75*
G02*
X22989000Y-13786000I-15000J0D01*
G01*
X22989000Y-13786000D02*
G75*
G02*
X23019000Y-13786000I15000J0D01*
G01*
X23020000Y-13296000D02*
G75*
G02*
X22990000Y-13296000I-15000J0D01*
G01*
X22990000Y-13296000D02*
G75*
G02*
X23020000Y-13296000I15000J0D01*
G01*
X23046000Y-13367000D02*
G75*
G02*
X23016000Y-13367000I-15000J0D01*
G01*
X23016000Y-13367000D02*
G75*
G02*
X23046000Y-13367000I15000J0D01*
G01*
X23050000Y-13646000D02*
G75*
G02*
X23020000Y-13646000I-15000J0D01*
G01*
X23020000Y-13646000D02*
G75*
G02*
X23050000Y-13646000I15000J0D01*
G01*
X23052000Y-13444000D02*
G75*
G02*
X23022000Y-13444000I-15000J0D01*
G01*
X23022000Y-13444000D02*
G75*
G02*
X23052000Y-13444000I15000J0D01*
G01*
X23060000Y-13240000D02*
G75*
G02*
X23030000Y-13240000I-15000J0D01*
G01*
X23030000Y-13240000D02*
G75*
G02*
X23060000Y-13240000I15000J0D01*
G01*
X23093000Y-13586000D02*
G75*
G02*
X23063000Y-13586000I-15000J0D01*
G01*
X23063000Y-13586000D02*
G75*
G02*
X23093000Y-13586000I15000J0D01*
G01*
X23100000Y-13740000D02*
G75*
G02*
X23070000Y-13740000I-15000J0D01*
G01*
X23070000Y-13740000D02*
G75*
G02*
X23100000Y-13740000I15000J0D01*
G01*
X23103000Y-13850000D02*
G75*
G02*
X23073000Y-13850000I-15000J0D01*
G01*
X23073000Y-13850000D02*
G75*
G02*
X23103000Y-13850000I15000J0D01*
G01*
X23103000Y-13976167D02*
G75*
G02*
X23073000Y-13976167I-15000J0D01*
G01*
X23073000Y-13976167D02*
G75*
G02*
X23103000Y-13976167I15000J0D01*
G01*
X23103000Y-14102333D02*
G75*
G02*
X23073000Y-14102333I-15000J0D01*
G01*
X23073000Y-14102333D02*
G75*
G02*
X23103000Y-14102333I15000J0D01*
G01*
X23103000Y-14228500D02*
G75*
G02*
X23073000Y-14228500I-15000J0D01*
G01*
X23073000Y-14228500D02*
G75*
G02*
X23103000Y-14228500I15000J0D01*
G01*
X23103000Y-14354666D02*
G75*
G02*
X23073000Y-14354666I-15000J0D01*
G01*
X23073000Y-14354666D02*
G75*
G02*
X23103000Y-14354666I15000J0D01*
G01*
X23103000Y-14480833D02*
G75*
G02*
X23073000Y-14480833I-15000J0D01*
G01*
X23073000Y-14480833D02*
G75*
G02*
X23103000Y-14480833I15000J0D01*
G01*
X23103000Y-14607000D02*
G75*
G02*
X23073000Y-14607000I-15000J0D01*
G01*
X23073000Y-14607000D02*
G75*
G02*
X23103000Y-14607000I15000J0D01*
G01*
X23114000Y-13408000D02*
G75*
G02*
X23084000Y-13408000I-15000J0D01*
G01*
X23084000Y-13408000D02*
G75*
G02*
X23114000Y-13408000I15000J0D01*
G01*
X23105000Y-13285000D02*
X23105000Y-13315000D01*
X23090000Y-13300000D02*
X23120000Y-13300000D01*
X19405713Y-12937213D02*
X19405713Y-12894787D01*
X19363287Y-12894787D01*
X19363287Y-12937213D01*
X19405713Y-12937213D01*
X19449500Y-12886000D02*
X19319500Y-12886000D01*
X19319500Y-12946000D02*
G75*
G02*
X19319500Y-12886000I0J30000D01*
G01*
X19319500Y-12946000D02*
X19449500Y-12946000D01*
X19449500Y-12946000D02*
G75*
G03*
X19449500Y-12886000I0J30000D01*
G01*
X19405713Y-13801213D02*
X19405713Y-13758787D01*
X19363287Y-13758787D01*
X19363287Y-13801213D01*
X19405713Y-13801213D01*
X19449500Y-13750000D02*
X19319500Y-13750000D01*
X19319500Y-13810000D02*
G75*
G02*
X19319500Y-13750000I0J30000D01*
G01*
X19319500Y-13810000D02*
X19449500Y-13810000D01*
X19449500Y-13810000D02*
G75*
G03*
X19449500Y-13750000I0J30000D01*
G01*
X19788213Y-12937213D02*
X19788213Y-12894787D01*
X19745787Y-12894787D01*
X19745787Y-12937213D01*
X19788213Y-12937213D01*
X19817000Y-12886000D02*
X19717000Y-12886000D01*
X19717000Y-12946000D02*
G75*
G02*
X19717000Y-12886000I0J30000D01*
G01*
X19717000Y-12946000D02*
X19817000Y-12946000D01*
X19817000Y-12946000D02*
G75*
G03*
X19817000Y-12886000I0J30000D01*
G01*
X19788213Y-13801213D02*
X19788213Y-13758787D01*
X19745787Y-13758787D01*
X19745787Y-13801213D01*
X19788213Y-13801213D01*
X19817000Y-13750000D02*
X19717000Y-13750000D01*
X19717000Y-13810000D02*
G75*
G02*
X19717000Y-13750000I0J30000D01*
G01*
X19717000Y-13810000D02*
X19817000Y-13810000D01*
X19817000Y-13810000D02*
G75*
G03*
X19817000Y-13750000I0J30000D01*
G01*
X20828000Y-12921900D02*
X20860500Y-12889400D01*
X20828000Y-12856900D01*
X20795500Y-12889400D01*
X20828000Y-12921900D01*
X20828000Y-14699000D02*
X20860500Y-14666500D01*
X20828000Y-14634000D01*
X20795500Y-14666500D01*
X20828000Y-14699000D01*
X20955000Y-12921900D02*
X20987500Y-12889400D01*
X20955000Y-12856900D01*
X20922500Y-12889400D01*
X20955000Y-12921900D01*
X20955000Y-14699000D02*
X20987500Y-14666500D01*
X20955000Y-14634000D01*
X20922500Y-14666500D01*
X20955000Y-14699000D01*
X21082000Y-12921900D02*
X21114500Y-12889400D01*
X21082000Y-12856900D01*
X21049500Y-12889400D01*
X21082000Y-12921900D01*
X21082000Y-14699000D02*
X21114500Y-14666500D01*
X21082000Y-14634000D01*
X21049500Y-14666500D01*
X21082000Y-14699000D01*
X21209000Y-12921900D02*
X21241500Y-12889400D01*
X21209000Y-12856900D01*
X21176500Y-12889400D01*
X21209000Y-12921900D01*
X21209000Y-14699000D02*
X21241500Y-14666500D01*
X21209000Y-14634000D01*
X21176500Y-14666500D01*
X21209000Y-14699000D01*
X21336000Y-12921900D02*
X21368500Y-12889400D01*
X21336000Y-12856900D01*
X21303500Y-12889400D01*
X21336000Y-12921900D01*
X21336000Y-14699000D02*
X21368500Y-14666500D01*
X21336000Y-14634000D01*
X21303500Y-14666500D01*
X21336000Y-14699000D01*
X21463000Y-12921900D02*
X21495500Y-12889400D01*
X21463000Y-12856900D01*
X21430500Y-12889400D01*
X21463000Y-12921900D01*
X21463000Y-14699000D02*
X21495500Y-14666500D01*
X21463000Y-14634000D01*
X21430500Y-14666500D01*
X21463000Y-14699000D01*
X21590000Y-12921900D02*
X21622500Y-12889400D01*
X21590000Y-12856900D01*
X21557500Y-12889400D01*
X21590000Y-12921900D01*
X21590000Y-14699000D02*
X21622500Y-14666500D01*
X21590000Y-14634000D01*
X21557500Y-14666500D01*
X21590000Y-14699000D01*
X21717000Y-12921900D02*
X21749500Y-12889400D01*
X21717000Y-12856900D01*
X21684500Y-12889400D01*
X21717000Y-12921900D01*
X21717000Y-14699000D02*
X21749500Y-14666500D01*
X21717000Y-14634000D01*
X21684500Y-14666500D01*
X21717000Y-14699000D01*
X21844000Y-12921900D02*
X21876500Y-12889400D01*
X21844000Y-12856900D01*
X21811500Y-12889400D01*
X21844000Y-12921900D01*
X21844000Y-14699000D02*
X21876500Y-14666500D01*
X21844000Y-14634000D01*
X21811500Y-14666500D01*
X21844000Y-14699000D01*
X21971000Y-12921900D02*
X22003500Y-12889400D01*
X21971000Y-12856900D01*
X21938500Y-12889400D01*
X21971000Y-12921900D01*
X21971000Y-14699000D02*
X22003500Y-14666500D01*
X21971000Y-14634000D01*
X21938500Y-14666500D01*
X21971000Y-14699000D01*
X22098000Y-12921900D02*
X22130500Y-12889400D01*
X22098000Y-12856900D01*
X22065500Y-12889400D01*
X22098000Y-12921900D01*
X22098000Y-14699000D02*
X22130500Y-14666500D01*
X22098000Y-14634000D01*
X22065500Y-14666500D01*
X22098000Y-14699000D01*
X22225000Y-12921900D02*
X22257500Y-12889400D01*
X22225000Y-12856900D01*
X22192500Y-12889400D01*
X22225000Y-12921900D01*
X22225000Y-14699000D02*
X22257500Y-14666500D01*
X22225000Y-14634000D01*
X22192500Y-14666500D01*
X22225000Y-14699000D01*
X22352000Y-12921900D02*
X22384500Y-12889400D01*
X22352000Y-12856900D01*
X22319500Y-12889400D01*
X22352000Y-12921900D01*
X22352000Y-14699000D02*
X22384500Y-14666500D01*
X22352000Y-14634000D01*
X22319500Y-14666500D01*
X22352000Y-14699000D01*
X22479000Y-12921900D02*
X22511500Y-12889400D01*
X22479000Y-12856900D01*
X22446500Y-12889400D01*
X22479000Y-12921900D01*
X22479000Y-14699000D02*
X22511500Y-14666500D01*
X22479000Y-14634000D01*
X22446500Y-14666500D01*
X22479000Y-14699000D01*
X22606000Y-12921900D02*
X22638500Y-12889400D01*
X22606000Y-12856900D01*
X22573500Y-12889400D01*
X22606000Y-12921900D01*
X22606000Y-14699000D02*
X22638500Y-14666500D01*
X22606000Y-14634000D01*
X22573500Y-14666500D01*
X22606000Y-14699000D01*
X19690680Y-14113500D02*
X19765680Y-14188500D01*
X19765680Y-14113500D02*
X19690680Y-14188500D01*
X19765680Y-14151000D02*
G75*
G02*
X19690680Y-14151000I-37500J0D01*
G01*
X19690680Y-14151000D02*
G75*
G02*
X19765680Y-14151000I37500J0D01*
G01*
X19690680Y-14313500D02*
X19765680Y-14388500D01*
X19765680Y-14313500D02*
X19690680Y-14388500D01*
X19765680Y-14351000D02*
G75*
G02*
X19690680Y-14351000I-37500J0D01*
G01*
X19690680Y-14351000D02*
G75*
G02*
X19765680Y-14351000I37500J0D01*
G01*
X19690680Y-14513500D02*
X19765680Y-14588500D01*
X19765680Y-14513500D02*
X19690680Y-14588500D01*
X19765680Y-14551000D02*
G75*
G02*
X19690680Y-14551000I-37500J0D01*
G01*
X19690680Y-14551000D02*
G75*
G02*
X19765680Y-14551000I37500J0D01*
G01*
X19664500Y-13018000D02*
X19724500Y-13078000D01*
X19724500Y-13018000D02*
X19664500Y-13078000D01*
X19694500Y-13018000D02*
X19694500Y-13078000D01*
X19664500Y-13048000D02*
X19724500Y-13048000D01*
X19664500Y-13618000D02*
X19724500Y-13678000D01*
X19724500Y-13618000D02*
X19664500Y-13678000D01*
X19694500Y-13618000D02*
X19694500Y-13678000D01*
X19664500Y-13648000D02*
X19724500Y-13648000D01*
X19664500Y-13635500D02*
X19664500Y-13660500D01*
X19724500Y-13660500D02*
G75*
G02*
X19664500Y-13660500I-30000J0D01*
G01*
X19724500Y-13660500D02*
X19724500Y-13635500D01*
X19724500Y-13635500D02*
G75*
G03*
X19664500Y-13635500I-30000J0D01*
G01*
X20699370Y-13481470D02*
X20798430Y-13580530D01*
X20798430Y-13481470D02*
X20699370Y-13580530D01*
X20783923Y-13566023D02*
X20783923Y-13495977D01*
X20713877Y-13495977D01*
X20713877Y-13566023D01*
X20783923Y-13566023D01*
X20800970Y-13989470D02*
X20900030Y-14088530D01*
X20900030Y-13989470D02*
X20800970Y-14088530D01*
X20885523Y-14074023D02*
X20885523Y-14003977D01*
X20815477Y-14003977D01*
X20815477Y-14074023D01*
X20885523Y-14074023D01*
X20902570Y-13481470D02*
X21001630Y-13580530D01*
X21001630Y-13481470D02*
X20902570Y-13580530D01*
X20987123Y-13566023D02*
X20987123Y-13495977D01*
X20917077Y-13495977D01*
X20917077Y-13566023D01*
X20987123Y-13566023D01*
D11*
X19394677Y-15073884D02*
X19394677Y-14873884D01*
X19394677Y-14873884D02*
X19442296Y-14873884D01*
X19442296Y-14873884D02*
X19470867Y-14883408D01*
X19470867Y-14883408D02*
X19489915Y-14902455D01*
X19489915Y-14902455D02*
X19499439Y-14921503D01*
X19499439Y-14921503D02*
X19508963Y-14959598D01*
X19508963Y-14959598D02*
X19508963Y-14988169D01*
X19508963Y-14988169D02*
X19499439Y-15026265D01*
X19499439Y-15026265D02*
X19489915Y-15045312D01*
X19489915Y-15045312D02*
X19470867Y-15064360D01*
X19470867Y-15064360D02*
X19442296Y-15073884D01*
X19442296Y-15073884D02*
X19394677Y-15073884D01*
X19594677Y-15073884D02*
X19594677Y-14940550D01*
X19594677Y-14978646D02*
X19604201Y-14959598D01*
X19604201Y-14959598D02*
X19613724Y-14950074D01*
X19613724Y-14950074D02*
X19632772Y-14940550D01*
X19632772Y-14940550D02*
X19651820Y-14940550D01*
X19718486Y-15073884D02*
X19718486Y-14940550D01*
X19718486Y-14873884D02*
X19708963Y-14883408D01*
X19708963Y-14883408D02*
X19718486Y-14892931D01*
X19718486Y-14892931D02*
X19728010Y-14883408D01*
X19728010Y-14883408D02*
X19718486Y-14873884D01*
X19718486Y-14873884D02*
X19718486Y-14892931D01*
X19842296Y-15073884D02*
X19823248Y-15064360D01*
X19823248Y-15064360D02*
X19813724Y-15045312D01*
X19813724Y-15045312D02*
X19813724Y-14873884D01*
X19947058Y-15073884D02*
X19928010Y-15064360D01*
X19928010Y-15064360D02*
X19918486Y-15045312D01*
X19918486Y-15045312D02*
X19918486Y-14873884D01*
X20175629Y-15073884D02*
X20175629Y-14873884D01*
X20175629Y-14873884D02*
X20242296Y-15016741D01*
X20242296Y-15016741D02*
X20308963Y-14873884D01*
X20308963Y-14873884D02*
X20308963Y-15073884D01*
X20489915Y-15073884D02*
X20489915Y-14969122D01*
X20489915Y-14969122D02*
X20480391Y-14950074D01*
X20480391Y-14950074D02*
X20461344Y-14940550D01*
X20461344Y-14940550D02*
X20423248Y-14940550D01*
X20423248Y-14940550D02*
X20404201Y-14950074D01*
X20489915Y-15064360D02*
X20470867Y-15073884D01*
X20470867Y-15073884D02*
X20423248Y-15073884D01*
X20423248Y-15073884D02*
X20404201Y-15064360D01*
X20404201Y-15064360D02*
X20394677Y-15045312D01*
X20394677Y-15045312D02*
X20394677Y-15026265D01*
X20394677Y-15026265D02*
X20404201Y-15007217D01*
X20404201Y-15007217D02*
X20423248Y-14997693D01*
X20423248Y-14997693D02*
X20470867Y-14997693D01*
X20470867Y-14997693D02*
X20489915Y-14988169D01*
X20585153Y-14940550D02*
X20585153Y-15140550D01*
X20585153Y-14950074D02*
X20604201Y-14940550D01*
X20604201Y-14940550D02*
X20642296Y-14940550D01*
X20642296Y-14940550D02*
X20661344Y-14950074D01*
X20661344Y-14950074D02*
X20670867Y-14959598D01*
X20670867Y-14959598D02*
X20680391Y-14978646D01*
X20680391Y-14978646D02*
X20680391Y-15035788D01*
X20680391Y-15035788D02*
X20670867Y-15054836D01*
X20670867Y-15054836D02*
X20661344Y-15064360D01*
X20661344Y-15064360D02*
X20642296Y-15073884D01*
X20642296Y-15073884D02*
X20604201Y-15073884D01*
X20604201Y-15073884D02*
X20585153Y-15064360D01*
X20766105Y-15054836D02*
X20775629Y-15064360D01*
X20775629Y-15064360D02*
X20766105Y-15073884D01*
X20766105Y-15073884D02*
X20756582Y-15064360D01*
X20756582Y-15064360D02*
X20766105Y-15054836D01*
X20766105Y-15054836D02*
X20766105Y-15073884D01*
X20766105Y-14950074D02*
X20775629Y-14959598D01*
X20775629Y-14959598D02*
X20766105Y-14969122D01*
X20766105Y-14969122D02*
X20756582Y-14959598D01*
X20756582Y-14959598D02*
X20766105Y-14950074D01*
X20766105Y-14950074D02*
X20766105Y-14969122D01*
D10*
X19113900Y-15392400D02*
X19133900Y-15412400D01*
X19133900Y-15392400D02*
X19113900Y-15412400D01*
D11*
X19432772Y-15293884D02*
X19451820Y-15293884D01*
X19451820Y-15293884D02*
X19470867Y-15303408D01*
X19470867Y-15303408D02*
X19480391Y-15312931D01*
X19480391Y-15312931D02*
X19489915Y-15331979D01*
X19489915Y-15331979D02*
X19499439Y-15370074D01*
X19499439Y-15370074D02*
X19499439Y-15417693D01*
X19499439Y-15417693D02*
X19489915Y-15455788D01*
X19489915Y-15455788D02*
X19480391Y-15474836D01*
X19480391Y-15474836D02*
X19470867Y-15484360D01*
X19470867Y-15484360D02*
X19451820Y-15493884D01*
X19451820Y-15493884D02*
X19432772Y-15493884D01*
X19432772Y-15493884D02*
X19413724Y-15484360D01*
X19413724Y-15484360D02*
X19404201Y-15474836D01*
X19404201Y-15474836D02*
X19394677Y-15455788D01*
X19394677Y-15455788D02*
X19385153Y-15417693D01*
X19385153Y-15417693D02*
X19385153Y-15370074D01*
X19385153Y-15370074D02*
X19394677Y-15331979D01*
X19394677Y-15331979D02*
X19404201Y-15312931D01*
X19404201Y-15312931D02*
X19413724Y-15303408D01*
X19413724Y-15303408D02*
X19432772Y-15293884D01*
X19585153Y-15474836D02*
X19594677Y-15484360D01*
X19594677Y-15484360D02*
X19585153Y-15493884D01*
X19585153Y-15493884D02*
X19575629Y-15484360D01*
X19575629Y-15484360D02*
X19585153Y-15474836D01*
X19585153Y-15474836D02*
X19585153Y-15493884D01*
X19670867Y-15312931D02*
X19680391Y-15303408D01*
X19680391Y-15303408D02*
X19699439Y-15293884D01*
X19699439Y-15293884D02*
X19747058Y-15293884D01*
X19747058Y-15293884D02*
X19766105Y-15303408D01*
X19766105Y-15303408D02*
X19775629Y-15312931D01*
X19775629Y-15312931D02*
X19785153Y-15331979D01*
X19785153Y-15331979D02*
X19785153Y-15351027D01*
X19785153Y-15351027D02*
X19775629Y-15379598D01*
X19775629Y-15379598D02*
X19661344Y-15493884D01*
X19661344Y-15493884D02*
X19785153Y-15493884D01*
X19908963Y-15293884D02*
X19928010Y-15293884D01*
X19928010Y-15293884D02*
X19947058Y-15303408D01*
X19947058Y-15303408D02*
X19956582Y-15312931D01*
X19956582Y-15312931D02*
X19966105Y-15331979D01*
X19966105Y-15331979D02*
X19975629Y-15370074D01*
X19975629Y-15370074D02*
X19975629Y-15417693D01*
X19975629Y-15417693D02*
X19966105Y-15455788D01*
X19966105Y-15455788D02*
X19956582Y-15474836D01*
X19956582Y-15474836D02*
X19947058Y-15484360D01*
X19947058Y-15484360D02*
X19928010Y-15493884D01*
X19928010Y-15493884D02*
X19908963Y-15493884D01*
X19908963Y-15493884D02*
X19889915Y-15484360D01*
X19889915Y-15484360D02*
X19880391Y-15474836D01*
X19880391Y-15474836D02*
X19870867Y-15455788D01*
X19870867Y-15455788D02*
X19861344Y-15417693D01*
X19861344Y-15417693D02*
X19861344Y-15370074D01*
X19861344Y-15370074D02*
X19870867Y-15331979D01*
X19870867Y-15331979D02*
X19880391Y-15312931D01*
X19880391Y-15312931D02*
X19889915Y-15303408D01*
X19889915Y-15303408D02*
X19908963Y-15293884D01*
X20099439Y-15293884D02*
X20118486Y-15293884D01*
X20118486Y-15293884D02*
X20137534Y-15303408D01*
X20137534Y-15303408D02*
X20147058Y-15312931D01*
X20147058Y-15312931D02*
X20156582Y-15331979D01*
X20156582Y-15331979D02*
X20166105Y-15370074D01*
X20166105Y-15370074D02*
X20166105Y-15417693D01*
X20166105Y-15417693D02*
X20156582Y-15455788D01*
X20156582Y-15455788D02*
X20147058Y-15474836D01*
X20147058Y-15474836D02*
X20137534Y-15484360D01*
X20137534Y-15484360D02*
X20118486Y-15493884D01*
X20118486Y-15493884D02*
X20099439Y-15493884D01*
X20099439Y-15493884D02*
X20080391Y-15484360D01*
X20080391Y-15484360D02*
X20070867Y-15474836D01*
X20070867Y-15474836D02*
X20061344Y-15455788D01*
X20061344Y-15455788D02*
X20051820Y-15417693D01*
X20051820Y-15417693D02*
X20051820Y-15370074D01*
X20051820Y-15370074D02*
X20061344Y-15331979D01*
X20061344Y-15331979D02*
X20070867Y-15312931D01*
X20070867Y-15312931D02*
X20080391Y-15303408D01*
X20080391Y-15303408D02*
X20099439Y-15293884D01*
X20251820Y-15493884D02*
X20251820Y-15360550D01*
X20251820Y-15379598D02*
X20261344Y-15370074D01*
X20261344Y-15370074D02*
X20280391Y-15360550D01*
X20280391Y-15360550D02*
X20308963Y-15360550D01*
X20308963Y-15360550D02*
X20328010Y-15370074D01*
X20328010Y-15370074D02*
X20337534Y-15389122D01*
X20337534Y-15389122D02*
X20337534Y-15493884D01*
X20337534Y-15389122D02*
X20347058Y-15370074D01*
X20347058Y-15370074D02*
X20366105Y-15360550D01*
X20366105Y-15360550D02*
X20394677Y-15360550D01*
X20394677Y-15360550D02*
X20413725Y-15370074D01*
X20413725Y-15370074D02*
X20423248Y-15389122D01*
X20423248Y-15389122D02*
X20423248Y-15493884D01*
X20518486Y-15493884D02*
X20518486Y-15360550D01*
X20518486Y-15379598D02*
X20528010Y-15370074D01*
X20528010Y-15370074D02*
X20547058Y-15360550D01*
X20547058Y-15360550D02*
X20575629Y-15360550D01*
X20575629Y-15360550D02*
X20594677Y-15370074D01*
X20594677Y-15370074D02*
X20604201Y-15389122D01*
X20604201Y-15389122D02*
X20604201Y-15493884D01*
X20604201Y-15389122D02*
X20613725Y-15370074D01*
X20613725Y-15370074D02*
X20632772Y-15360550D01*
X20632772Y-15360550D02*
X20661344Y-15360550D01*
X20661344Y-15360550D02*
X20680391Y-15370074D01*
X20680391Y-15370074D02*
X20689915Y-15389122D01*
X20689915Y-15389122D02*
X20689915Y-15493884D01*
X21080391Y-15284360D02*
X20908963Y-15541503D01*
X21337534Y-15293884D02*
X21356582Y-15293884D01*
X21356582Y-15293884D02*
X21375629Y-15303408D01*
X21375629Y-15303408D02*
X21385153Y-15312931D01*
X21385153Y-15312931D02*
X21394677Y-15331979D01*
X21394677Y-15331979D02*
X21404201Y-15370074D01*
X21404201Y-15370074D02*
X21404201Y-15417693D01*
X21404201Y-15417693D02*
X21394677Y-15455788D01*
X21394677Y-15455788D02*
X21385153Y-15474836D01*
X21385153Y-15474836D02*
X21375629Y-15484360D01*
X21375629Y-15484360D02*
X21356582Y-15493884D01*
X21356582Y-15493884D02*
X21337534Y-15493884D01*
X21337534Y-15493884D02*
X21318487Y-15484360D01*
X21318487Y-15484360D02*
X21308963Y-15474836D01*
X21308963Y-15474836D02*
X21299439Y-15455788D01*
X21299439Y-15455788D02*
X21289915Y-15417693D01*
X21289915Y-15417693D02*
X21289915Y-15370074D01*
X21289915Y-15370074D02*
X21299439Y-15331979D01*
X21299439Y-15331979D02*
X21308963Y-15312931D01*
X21308963Y-15312931D02*
X21318487Y-15303408D01*
X21318487Y-15303408D02*
X21337534Y-15293884D01*
X21489915Y-15474836D02*
X21499439Y-15484360D01*
X21499439Y-15484360D02*
X21489915Y-15493884D01*
X21489915Y-15493884D02*
X21480391Y-15484360D01*
X21480391Y-15484360D02*
X21489915Y-15474836D01*
X21489915Y-15474836D02*
X21489915Y-15493884D01*
X21623248Y-15293884D02*
X21642296Y-15293884D01*
X21642296Y-15293884D02*
X21661344Y-15303408D01*
X21661344Y-15303408D02*
X21670868Y-15312931D01*
X21670868Y-15312931D02*
X21680391Y-15331979D01*
X21680391Y-15331979D02*
X21689915Y-15370074D01*
X21689915Y-15370074D02*
X21689915Y-15417693D01*
X21689915Y-15417693D02*
X21680391Y-15455788D01*
X21680391Y-15455788D02*
X21670868Y-15474836D01*
X21670868Y-15474836D02*
X21661344Y-15484360D01*
X21661344Y-15484360D02*
X21642296Y-15493884D01*
X21642296Y-15493884D02*
X21623248Y-15493884D01*
X21623248Y-15493884D02*
X21604201Y-15484360D01*
X21604201Y-15484360D02*
X21594677Y-15474836D01*
X21594677Y-15474836D02*
X21585153Y-15455788D01*
X21585153Y-15455788D02*
X21575629Y-15417693D01*
X21575629Y-15417693D02*
X21575629Y-15370074D01*
X21575629Y-15370074D02*
X21585153Y-15331979D01*
X21585153Y-15331979D02*
X21594677Y-15312931D01*
X21594677Y-15312931D02*
X21604201Y-15303408D01*
X21604201Y-15303408D02*
X21623248Y-15293884D01*
X21813725Y-15293884D02*
X21832772Y-15293884D01*
X21832772Y-15293884D02*
X21851820Y-15303408D01*
X21851820Y-15303408D02*
X21861344Y-15312931D01*
X21861344Y-15312931D02*
X21870868Y-15331979D01*
X21870868Y-15331979D02*
X21880391Y-15370074D01*
X21880391Y-15370074D02*
X21880391Y-15417693D01*
X21880391Y-15417693D02*
X21870868Y-15455788D01*
X21870868Y-15455788D02*
X21861344Y-15474836D01*
X21861344Y-15474836D02*
X21851820Y-15484360D01*
X21851820Y-15484360D02*
X21832772Y-15493884D01*
X21832772Y-15493884D02*
X21813725Y-15493884D01*
X21813725Y-15493884D02*
X21794677Y-15484360D01*
X21794677Y-15484360D02*
X21785153Y-15474836D01*
X21785153Y-15474836D02*
X21775629Y-15455788D01*
X21775629Y-15455788D02*
X21766106Y-15417693D01*
X21766106Y-15417693D02*
X21766106Y-15370074D01*
X21766106Y-15370074D02*
X21775629Y-15331979D01*
X21775629Y-15331979D02*
X21785153Y-15312931D01*
X21785153Y-15312931D02*
X21794677Y-15303408D01*
X21794677Y-15303408D02*
X21813725Y-15293884D01*
X21947058Y-15293884D02*
X22080391Y-15293884D01*
X22080391Y-15293884D02*
X21994677Y-15493884D01*
X22166106Y-15493884D02*
X22204201Y-15493884D01*
X22204201Y-15493884D02*
X22223249Y-15484360D01*
X22223249Y-15484360D02*
X22232772Y-15474836D01*
X22232772Y-15474836D02*
X22251820Y-15446265D01*
X22251820Y-15446265D02*
X22261344Y-15408169D01*
X22261344Y-15408169D02*
X22261344Y-15331979D01*
X22261344Y-15331979D02*
X22251820Y-15312931D01*
X22251820Y-15312931D02*
X22242296Y-15303408D01*
X22242296Y-15303408D02*
X22223249Y-15293884D01*
X22223249Y-15293884D02*
X22185153Y-15293884D01*
X22185153Y-15293884D02*
X22166106Y-15303408D01*
X22166106Y-15303408D02*
X22156582Y-15312931D01*
X22156582Y-15312931D02*
X22147058Y-15331979D01*
X22147058Y-15331979D02*
X22147058Y-15379598D01*
X22147058Y-15379598D02*
X22156582Y-15398646D01*
X22156582Y-15398646D02*
X22166106Y-15408169D01*
X22166106Y-15408169D02*
X22185153Y-15417693D01*
X22185153Y-15417693D02*
X22223249Y-15417693D01*
X22223249Y-15417693D02*
X22242296Y-15408169D01*
X22242296Y-15408169D02*
X22251820Y-15398646D01*
X22251820Y-15398646D02*
X22261344Y-15379598D01*
X22337534Y-15293884D02*
X22337534Y-15331979D01*
X22413725Y-15293884D02*
X22413725Y-15331979D01*
X22708963Y-15570074D02*
X22699439Y-15560550D01*
X22699439Y-15560550D02*
X22680391Y-15531979D01*
X22680391Y-15531979D02*
X22670868Y-15512931D01*
X22670868Y-15512931D02*
X22661344Y-15484360D01*
X22661344Y-15484360D02*
X22651820Y-15436741D01*
X22651820Y-15436741D02*
X22651820Y-15398646D01*
X22651820Y-15398646D02*
X22661344Y-15351027D01*
X22661344Y-15351027D02*
X22670868Y-15322455D01*
X22670868Y-15322455D02*
X22680391Y-15303408D01*
X22680391Y-15303408D02*
X22699439Y-15274836D01*
X22699439Y-15274836D02*
X22708963Y-15265312D01*
X22775629Y-15312931D02*
X22785153Y-15303408D01*
X22785153Y-15303408D02*
X22804201Y-15293884D01*
X22804201Y-15293884D02*
X22851820Y-15293884D01*
X22851820Y-15293884D02*
X22870868Y-15303408D01*
X22870868Y-15303408D02*
X22880391Y-15312931D01*
X22880391Y-15312931D02*
X22889915Y-15331979D01*
X22889915Y-15331979D02*
X22889915Y-15351027D01*
X22889915Y-15351027D02*
X22880391Y-15379598D01*
X22880391Y-15379598D02*
X22766106Y-15493884D01*
X22766106Y-15493884D02*
X22889915Y-15493884D01*
X23128010Y-15493884D02*
X23128010Y-15293884D01*
X23213725Y-15493884D02*
X23213725Y-15389122D01*
X23213725Y-15389122D02*
X23204201Y-15370074D01*
X23204201Y-15370074D02*
X23185153Y-15360550D01*
X23185153Y-15360550D02*
X23156582Y-15360550D01*
X23156582Y-15360550D02*
X23137534Y-15370074D01*
X23137534Y-15370074D02*
X23128010Y-15379598D01*
X23337534Y-15493884D02*
X23318487Y-15484360D01*
X23318487Y-15484360D02*
X23308963Y-15474836D01*
X23308963Y-15474836D02*
X23299439Y-15455788D01*
X23299439Y-15455788D02*
X23299439Y-15398646D01*
X23299439Y-15398646D02*
X23308963Y-15379598D01*
X23308963Y-15379598D02*
X23318487Y-15370074D01*
X23318487Y-15370074D02*
X23337534Y-15360550D01*
X23337534Y-15360550D02*
X23366106Y-15360550D01*
X23366106Y-15360550D02*
X23385153Y-15370074D01*
X23385153Y-15370074D02*
X23394677Y-15379598D01*
X23394677Y-15379598D02*
X23404201Y-15398646D01*
X23404201Y-15398646D02*
X23404201Y-15455788D01*
X23404201Y-15455788D02*
X23394677Y-15474836D01*
X23394677Y-15474836D02*
X23385153Y-15484360D01*
X23385153Y-15484360D02*
X23366106Y-15493884D01*
X23366106Y-15493884D02*
X23337534Y-15493884D01*
X23518487Y-15493884D02*
X23499439Y-15484360D01*
X23499439Y-15484360D02*
X23489915Y-15465312D01*
X23489915Y-15465312D02*
X23489915Y-15293884D01*
X23670868Y-15484360D02*
X23651820Y-15493884D01*
X23651820Y-15493884D02*
X23613725Y-15493884D01*
X23613725Y-15493884D02*
X23594677Y-15484360D01*
X23594677Y-15484360D02*
X23585153Y-15465312D01*
X23585153Y-15465312D02*
X23585153Y-15389122D01*
X23585153Y-15389122D02*
X23594677Y-15370074D01*
X23594677Y-15370074D02*
X23613725Y-15360550D01*
X23613725Y-15360550D02*
X23651820Y-15360550D01*
X23651820Y-15360550D02*
X23670868Y-15370074D01*
X23670868Y-15370074D02*
X23680391Y-15389122D01*
X23680391Y-15389122D02*
X23680391Y-15408169D01*
X23680391Y-15408169D02*
X23585153Y-15427217D01*
X23756582Y-15484360D02*
X23775630Y-15493884D01*
X23775630Y-15493884D02*
X23813725Y-15493884D01*
X23813725Y-15493884D02*
X23832772Y-15484360D01*
X23832772Y-15484360D02*
X23842296Y-15465312D01*
X23842296Y-15465312D02*
X23842296Y-15455788D01*
X23842296Y-15455788D02*
X23832772Y-15436741D01*
X23832772Y-15436741D02*
X23813725Y-15427217D01*
X23813725Y-15427217D02*
X23785153Y-15427217D01*
X23785153Y-15427217D02*
X23766106Y-15417693D01*
X23766106Y-15417693D02*
X23756582Y-15398646D01*
X23756582Y-15398646D02*
X23756582Y-15389122D01*
X23756582Y-15389122D02*
X23766106Y-15370074D01*
X23766106Y-15370074D02*
X23785153Y-15360550D01*
X23785153Y-15360550D02*
X23813725Y-15360550D01*
X23813725Y-15360550D02*
X23832772Y-15370074D01*
X23908963Y-15570074D02*
X23918487Y-15560550D01*
X23918487Y-15560550D02*
X23937534Y-15531979D01*
X23937534Y-15531979D02*
X23947058Y-15512931D01*
X23947058Y-15512931D02*
X23956582Y-15484360D01*
X23956582Y-15484360D02*
X23966106Y-15436741D01*
X23966106Y-15436741D02*
X23966106Y-15398646D01*
X23966106Y-15398646D02*
X23956582Y-15351027D01*
X23956582Y-15351027D02*
X23947058Y-15322455D01*
X23947058Y-15322455D02*
X23937534Y-15303408D01*
X23937534Y-15303408D02*
X23918487Y-15274836D01*
X23918487Y-15274836D02*
X23908963Y-15265312D01*
D10*
X19133900Y-15666400D02*
G75*
G02*
X19103900Y-15666400I-15000J0D01*
G01*
X19103900Y-15666400D02*
G75*
G02*
X19133900Y-15666400I15000J0D01*
G01*
D11*
X19432772Y-15557884D02*
X19451820Y-15557884D01*
X19451820Y-15557884D02*
X19470867Y-15567408D01*
X19470867Y-15567408D02*
X19480391Y-15576931D01*
X19480391Y-15576931D02*
X19489915Y-15595979D01*
X19489915Y-15595979D02*
X19499439Y-15634074D01*
X19499439Y-15634074D02*
X19499439Y-15681693D01*
X19499439Y-15681693D02*
X19489915Y-15719788D01*
X19489915Y-15719788D02*
X19480391Y-15738836D01*
X19480391Y-15738836D02*
X19470867Y-15748360D01*
X19470867Y-15748360D02*
X19451820Y-15757884D01*
X19451820Y-15757884D02*
X19432772Y-15757884D01*
X19432772Y-15757884D02*
X19413724Y-15748360D01*
X19413724Y-15748360D02*
X19404201Y-15738836D01*
X19404201Y-15738836D02*
X19394677Y-15719788D01*
X19394677Y-15719788D02*
X19385153Y-15681693D01*
X19385153Y-15681693D02*
X19385153Y-15634074D01*
X19385153Y-15634074D02*
X19394677Y-15595979D01*
X19394677Y-15595979D02*
X19404201Y-15576931D01*
X19404201Y-15576931D02*
X19413724Y-15567408D01*
X19413724Y-15567408D02*
X19432772Y-15557884D01*
X19585153Y-15738836D02*
X19594677Y-15748360D01*
X19594677Y-15748360D02*
X19585153Y-15757884D01*
X19585153Y-15757884D02*
X19575629Y-15748360D01*
X19575629Y-15748360D02*
X19585153Y-15738836D01*
X19585153Y-15738836D02*
X19585153Y-15757884D01*
X19661344Y-15557884D02*
X19785153Y-15557884D01*
X19785153Y-15557884D02*
X19718486Y-15634074D01*
X19718486Y-15634074D02*
X19747058Y-15634074D01*
X19747058Y-15634074D02*
X19766105Y-15643598D01*
X19766105Y-15643598D02*
X19775629Y-15653122D01*
X19775629Y-15653122D02*
X19785153Y-15672169D01*
X19785153Y-15672169D02*
X19785153Y-15719788D01*
X19785153Y-15719788D02*
X19775629Y-15738836D01*
X19775629Y-15738836D02*
X19766105Y-15748360D01*
X19766105Y-15748360D02*
X19747058Y-15757884D01*
X19747058Y-15757884D02*
X19689915Y-15757884D01*
X19689915Y-15757884D02*
X19670867Y-15748360D01*
X19670867Y-15748360D02*
X19661344Y-15738836D01*
X19908963Y-15557884D02*
X19928010Y-15557884D01*
X19928010Y-15557884D02*
X19947058Y-15567408D01*
X19947058Y-15567408D02*
X19956582Y-15576931D01*
X19956582Y-15576931D02*
X19966105Y-15595979D01*
X19966105Y-15595979D02*
X19975629Y-15634074D01*
X19975629Y-15634074D02*
X19975629Y-15681693D01*
X19975629Y-15681693D02*
X19966105Y-15719788D01*
X19966105Y-15719788D02*
X19956582Y-15738836D01*
X19956582Y-15738836D02*
X19947058Y-15748360D01*
X19947058Y-15748360D02*
X19928010Y-15757884D01*
X19928010Y-15757884D02*
X19908963Y-15757884D01*
X19908963Y-15757884D02*
X19889915Y-15748360D01*
X19889915Y-15748360D02*
X19880391Y-15738836D01*
X19880391Y-15738836D02*
X19870867Y-15719788D01*
X19870867Y-15719788D02*
X19861344Y-15681693D01*
X19861344Y-15681693D02*
X19861344Y-15634074D01*
X19861344Y-15634074D02*
X19870867Y-15595979D01*
X19870867Y-15595979D02*
X19880391Y-15576931D01*
X19880391Y-15576931D02*
X19889915Y-15567408D01*
X19889915Y-15567408D02*
X19908963Y-15557884D01*
X20099439Y-15557884D02*
X20118486Y-15557884D01*
X20118486Y-15557884D02*
X20137534Y-15567408D01*
X20137534Y-15567408D02*
X20147058Y-15576931D01*
X20147058Y-15576931D02*
X20156582Y-15595979D01*
X20156582Y-15595979D02*
X20166105Y-15634074D01*
X20166105Y-15634074D02*
X20166105Y-15681693D01*
X20166105Y-15681693D02*
X20156582Y-15719788D01*
X20156582Y-15719788D02*
X20147058Y-15738836D01*
X20147058Y-15738836D02*
X20137534Y-15748360D01*
X20137534Y-15748360D02*
X20118486Y-15757884D01*
X20118486Y-15757884D02*
X20099439Y-15757884D01*
X20099439Y-15757884D02*
X20080391Y-15748360D01*
X20080391Y-15748360D02*
X20070867Y-15738836D01*
X20070867Y-15738836D02*
X20061344Y-15719788D01*
X20061344Y-15719788D02*
X20051820Y-15681693D01*
X20051820Y-15681693D02*
X20051820Y-15634074D01*
X20051820Y-15634074D02*
X20061344Y-15595979D01*
X20061344Y-15595979D02*
X20070867Y-15576931D01*
X20070867Y-15576931D02*
X20080391Y-15567408D01*
X20080391Y-15567408D02*
X20099439Y-15557884D01*
X20251820Y-15757884D02*
X20251820Y-15624550D01*
X20251820Y-15643598D02*
X20261344Y-15634074D01*
X20261344Y-15634074D02*
X20280391Y-15624550D01*
X20280391Y-15624550D02*
X20308963Y-15624550D01*
X20308963Y-15624550D02*
X20328010Y-15634074D01*
X20328010Y-15634074D02*
X20337534Y-15653122D01*
X20337534Y-15653122D02*
X20337534Y-15757884D01*
X20337534Y-15653122D02*
X20347058Y-15634074D01*
X20347058Y-15634074D02*
X20366105Y-15624550D01*
X20366105Y-15624550D02*
X20394677Y-15624550D01*
X20394677Y-15624550D02*
X20413725Y-15634074D01*
X20413725Y-15634074D02*
X20423248Y-15653122D01*
X20423248Y-15653122D02*
X20423248Y-15757884D01*
X20518486Y-15757884D02*
X20518486Y-15624550D01*
X20518486Y-15643598D02*
X20528010Y-15634074D01*
X20528010Y-15634074D02*
X20547058Y-15624550D01*
X20547058Y-15624550D02*
X20575629Y-15624550D01*
X20575629Y-15624550D02*
X20594677Y-15634074D01*
X20594677Y-15634074D02*
X20604201Y-15653122D01*
X20604201Y-15653122D02*
X20604201Y-15757884D01*
X20604201Y-15653122D02*
X20613725Y-15634074D01*
X20613725Y-15634074D02*
X20632772Y-15624550D01*
X20632772Y-15624550D02*
X20661344Y-15624550D01*
X20661344Y-15624550D02*
X20680391Y-15634074D01*
X20680391Y-15634074D02*
X20689915Y-15653122D01*
X20689915Y-15653122D02*
X20689915Y-15757884D01*
X21080391Y-15548360D02*
X20908963Y-15805503D01*
X21337534Y-15557884D02*
X21356582Y-15557884D01*
X21356582Y-15557884D02*
X21375629Y-15567408D01*
X21375629Y-15567408D02*
X21385153Y-15576931D01*
X21385153Y-15576931D02*
X21394677Y-15595979D01*
X21394677Y-15595979D02*
X21404201Y-15634074D01*
X21404201Y-15634074D02*
X21404201Y-15681693D01*
X21404201Y-15681693D02*
X21394677Y-15719788D01*
X21394677Y-15719788D02*
X21385153Y-15738836D01*
X21385153Y-15738836D02*
X21375629Y-15748360D01*
X21375629Y-15748360D02*
X21356582Y-15757884D01*
X21356582Y-15757884D02*
X21337534Y-15757884D01*
X21337534Y-15757884D02*
X21318487Y-15748360D01*
X21318487Y-15748360D02*
X21308963Y-15738836D01*
X21308963Y-15738836D02*
X21299439Y-15719788D01*
X21299439Y-15719788D02*
X21289915Y-15681693D01*
X21289915Y-15681693D02*
X21289915Y-15634074D01*
X21289915Y-15634074D02*
X21299439Y-15595979D01*
X21299439Y-15595979D02*
X21308963Y-15576931D01*
X21308963Y-15576931D02*
X21318487Y-15567408D01*
X21318487Y-15567408D02*
X21337534Y-15557884D01*
X21489915Y-15738836D02*
X21499439Y-15748360D01*
X21499439Y-15748360D02*
X21489915Y-15757884D01*
X21489915Y-15757884D02*
X21480391Y-15748360D01*
X21480391Y-15748360D02*
X21489915Y-15738836D01*
X21489915Y-15738836D02*
X21489915Y-15757884D01*
X21623248Y-15557884D02*
X21642296Y-15557884D01*
X21642296Y-15557884D02*
X21661344Y-15567408D01*
X21661344Y-15567408D02*
X21670868Y-15576931D01*
X21670868Y-15576931D02*
X21680391Y-15595979D01*
X21680391Y-15595979D02*
X21689915Y-15634074D01*
X21689915Y-15634074D02*
X21689915Y-15681693D01*
X21689915Y-15681693D02*
X21680391Y-15719788D01*
X21680391Y-15719788D02*
X21670868Y-15738836D01*
X21670868Y-15738836D02*
X21661344Y-15748360D01*
X21661344Y-15748360D02*
X21642296Y-15757884D01*
X21642296Y-15757884D02*
X21623248Y-15757884D01*
X21623248Y-15757884D02*
X21604201Y-15748360D01*
X21604201Y-15748360D02*
X21594677Y-15738836D01*
X21594677Y-15738836D02*
X21585153Y-15719788D01*
X21585153Y-15719788D02*
X21575629Y-15681693D01*
X21575629Y-15681693D02*
X21575629Y-15634074D01*
X21575629Y-15634074D02*
X21585153Y-15595979D01*
X21585153Y-15595979D02*
X21594677Y-15576931D01*
X21594677Y-15576931D02*
X21604201Y-15567408D01*
X21604201Y-15567408D02*
X21623248Y-15557884D01*
X21880391Y-15757884D02*
X21766106Y-15757884D01*
X21823248Y-15757884D02*
X21823248Y-15557884D01*
X21823248Y-15557884D02*
X21804201Y-15586455D01*
X21804201Y-15586455D02*
X21785153Y-15605503D01*
X21785153Y-15605503D02*
X21766106Y-15615027D01*
X22070868Y-15757884D02*
X21956582Y-15757884D01*
X22013725Y-15757884D02*
X22013725Y-15557884D01*
X22013725Y-15557884D02*
X21994677Y-15586455D01*
X21994677Y-15586455D02*
X21975629Y-15605503D01*
X21975629Y-15605503D02*
X21956582Y-15615027D01*
X22185153Y-15643598D02*
X22166106Y-15634074D01*
X22166106Y-15634074D02*
X22156582Y-15624550D01*
X22156582Y-15624550D02*
X22147058Y-15605503D01*
X22147058Y-15605503D02*
X22147058Y-15595979D01*
X22147058Y-15595979D02*
X22156582Y-15576931D01*
X22156582Y-15576931D02*
X22166106Y-15567408D01*
X22166106Y-15567408D02*
X22185153Y-15557884D01*
X22185153Y-15557884D02*
X22223249Y-15557884D01*
X22223249Y-15557884D02*
X22242296Y-15567408D01*
X22242296Y-15567408D02*
X22251820Y-15576931D01*
X22251820Y-15576931D02*
X22261344Y-15595979D01*
X22261344Y-15595979D02*
X22261344Y-15605503D01*
X22261344Y-15605503D02*
X22251820Y-15624550D01*
X22251820Y-15624550D02*
X22242296Y-15634074D01*
X22242296Y-15634074D02*
X22223249Y-15643598D01*
X22223249Y-15643598D02*
X22185153Y-15643598D01*
X22185153Y-15643598D02*
X22166106Y-15653122D01*
X22166106Y-15653122D02*
X22156582Y-15662646D01*
X22156582Y-15662646D02*
X22147058Y-15681693D01*
X22147058Y-15681693D02*
X22147058Y-15719788D01*
X22147058Y-15719788D02*
X22156582Y-15738836D01*
X22156582Y-15738836D02*
X22166106Y-15748360D01*
X22166106Y-15748360D02*
X22185153Y-15757884D01*
X22185153Y-15757884D02*
X22223249Y-15757884D01*
X22223249Y-15757884D02*
X22242296Y-15748360D01*
X22242296Y-15748360D02*
X22251820Y-15738836D01*
X22251820Y-15738836D02*
X22261344Y-15719788D01*
X22261344Y-15719788D02*
X22261344Y-15681693D01*
X22261344Y-15681693D02*
X22251820Y-15662646D01*
X22251820Y-15662646D02*
X22242296Y-15653122D01*
X22242296Y-15653122D02*
X22223249Y-15643598D01*
X22337534Y-15557884D02*
X22337534Y-15595979D01*
X22413725Y-15557884D02*
X22413725Y-15595979D01*
X22708963Y-15834074D02*
X22699439Y-15824550D01*
X22699439Y-15824550D02*
X22680391Y-15795979D01*
X22680391Y-15795979D02*
X22670868Y-15776931D01*
X22670868Y-15776931D02*
X22661344Y-15748360D01*
X22661344Y-15748360D02*
X22651820Y-15700741D01*
X22651820Y-15700741D02*
X22651820Y-15662646D01*
X22651820Y-15662646D02*
X22661344Y-15615027D01*
X22661344Y-15615027D02*
X22670868Y-15586455D01*
X22670868Y-15586455D02*
X22680391Y-15567408D01*
X22680391Y-15567408D02*
X22699439Y-15538836D01*
X22699439Y-15538836D02*
X22708963Y-15529312D01*
X22775629Y-15576931D02*
X22785153Y-15567408D01*
X22785153Y-15567408D02*
X22804201Y-15557884D01*
X22804201Y-15557884D02*
X22851820Y-15557884D01*
X22851820Y-15557884D02*
X22870868Y-15567408D01*
X22870868Y-15567408D02*
X22880391Y-15576931D01*
X22880391Y-15576931D02*
X22889915Y-15595979D01*
X22889915Y-15595979D02*
X22889915Y-15615027D01*
X22889915Y-15615027D02*
X22880391Y-15643598D01*
X22880391Y-15643598D02*
X22766106Y-15757884D01*
X22766106Y-15757884D02*
X22889915Y-15757884D01*
X23080391Y-15757884D02*
X22966106Y-15757884D01*
X23023248Y-15757884D02*
X23023248Y-15557884D01*
X23023248Y-15557884D02*
X23004201Y-15586455D01*
X23004201Y-15586455D02*
X22985153Y-15605503D01*
X22985153Y-15605503D02*
X22966106Y-15615027D01*
X23147058Y-15557884D02*
X23270868Y-15557884D01*
X23270868Y-15557884D02*
X23204201Y-15634074D01*
X23204201Y-15634074D02*
X23232772Y-15634074D01*
X23232772Y-15634074D02*
X23251820Y-15643598D01*
X23251820Y-15643598D02*
X23261344Y-15653122D01*
X23261344Y-15653122D02*
X23270868Y-15672169D01*
X23270868Y-15672169D02*
X23270868Y-15719788D01*
X23270868Y-15719788D02*
X23261344Y-15738836D01*
X23261344Y-15738836D02*
X23251820Y-15748360D01*
X23251820Y-15748360D02*
X23232772Y-15757884D01*
X23232772Y-15757884D02*
X23175629Y-15757884D01*
X23175629Y-15757884D02*
X23156582Y-15748360D01*
X23156582Y-15748360D02*
X23147058Y-15738836D01*
X23508963Y-15757884D02*
X23508963Y-15557884D01*
X23594677Y-15757884D02*
X23594677Y-15653122D01*
X23594677Y-15653122D02*
X23585153Y-15634074D01*
X23585153Y-15634074D02*
X23566106Y-15624550D01*
X23566106Y-15624550D02*
X23537534Y-15624550D01*
X23537534Y-15624550D02*
X23518487Y-15634074D01*
X23518487Y-15634074D02*
X23508963Y-15643598D01*
X23718487Y-15757884D02*
X23699439Y-15748360D01*
X23699439Y-15748360D02*
X23689915Y-15738836D01*
X23689915Y-15738836D02*
X23680391Y-15719788D01*
X23680391Y-15719788D02*
X23680391Y-15662646D01*
X23680391Y-15662646D02*
X23689915Y-15643598D01*
X23689915Y-15643598D02*
X23699439Y-15634074D01*
X23699439Y-15634074D02*
X23718487Y-15624550D01*
X23718487Y-15624550D02*
X23747058Y-15624550D01*
X23747058Y-15624550D02*
X23766106Y-15634074D01*
X23766106Y-15634074D02*
X23775630Y-15643598D01*
X23775630Y-15643598D02*
X23785153Y-15662646D01*
X23785153Y-15662646D02*
X23785153Y-15719788D01*
X23785153Y-15719788D02*
X23775630Y-15738836D01*
X23775630Y-15738836D02*
X23766106Y-15748360D01*
X23766106Y-15748360D02*
X23747058Y-15757884D01*
X23747058Y-15757884D02*
X23718487Y-15757884D01*
X23899439Y-15757884D02*
X23880391Y-15748360D01*
X23880391Y-15748360D02*
X23870868Y-15729312D01*
X23870868Y-15729312D02*
X23870868Y-15557884D01*
X24051820Y-15748360D02*
X24032772Y-15757884D01*
X24032772Y-15757884D02*
X23994677Y-15757884D01*
X23994677Y-15757884D02*
X23975630Y-15748360D01*
X23975630Y-15748360D02*
X23966106Y-15729312D01*
X23966106Y-15729312D02*
X23966106Y-15653122D01*
X23966106Y-15653122D02*
X23975630Y-15634074D01*
X23975630Y-15634074D02*
X23994677Y-15624550D01*
X23994677Y-15624550D02*
X24032772Y-15624550D01*
X24032772Y-15624550D02*
X24051820Y-15634074D01*
X24051820Y-15634074D02*
X24061344Y-15653122D01*
X24061344Y-15653122D02*
X24061344Y-15672169D01*
X24061344Y-15672169D02*
X23966106Y-15691217D01*
X24137534Y-15748360D02*
X24156582Y-15757884D01*
X24156582Y-15757884D02*
X24194677Y-15757884D01*
X24194677Y-15757884D02*
X24213725Y-15748360D01*
X24213725Y-15748360D02*
X24223249Y-15729312D01*
X24223249Y-15729312D02*
X24223249Y-15719788D01*
X24223249Y-15719788D02*
X24213725Y-15700741D01*
X24213725Y-15700741D02*
X24194677Y-15691217D01*
X24194677Y-15691217D02*
X24166106Y-15691217D01*
X24166106Y-15691217D02*
X24147058Y-15681693D01*
X24147058Y-15681693D02*
X24137534Y-15662646D01*
X24137534Y-15662646D02*
X24137534Y-15653122D01*
X24137534Y-15653122D02*
X24147058Y-15634074D01*
X24147058Y-15634074D02*
X24166106Y-15624550D01*
X24166106Y-15624550D02*
X24194677Y-15624550D01*
X24194677Y-15624550D02*
X24213725Y-15634074D01*
X24289915Y-15834074D02*
X24299439Y-15824550D01*
X24299439Y-15824550D02*
X24318487Y-15795979D01*
X24318487Y-15795979D02*
X24328011Y-15776931D01*
X24328011Y-15776931D02*
X24337534Y-15748360D01*
X24337534Y-15748360D02*
X24347058Y-15700741D01*
X24347058Y-15700741D02*
X24347058Y-15662646D01*
X24347058Y-15662646D02*
X24337534Y-15615027D01*
X24337534Y-15615027D02*
X24328011Y-15586455D01*
X24328011Y-15586455D02*
X24318487Y-15567408D01*
X24318487Y-15567408D02*
X24299439Y-15538836D01*
X24299439Y-15538836D02*
X24289915Y-15529312D01*
D10*
X19118900Y-15915400D02*
X19118900Y-15945400D01*
X19103900Y-15930400D02*
X19133900Y-15930400D01*
D11*
X19432772Y-15821884D02*
X19451820Y-15821884D01*
X19451820Y-15821884D02*
X19470867Y-15831408D01*
X19470867Y-15831408D02*
X19480391Y-15840931D01*
X19480391Y-15840931D02*
X19489915Y-15859979D01*
X19489915Y-15859979D02*
X19499439Y-15898074D01*
X19499439Y-15898074D02*
X19499439Y-15945693D01*
X19499439Y-15945693D02*
X19489915Y-15983788D01*
X19489915Y-15983788D02*
X19480391Y-16002836D01*
X19480391Y-16002836D02*
X19470867Y-16012360D01*
X19470867Y-16012360D02*
X19451820Y-16021884D01*
X19451820Y-16021884D02*
X19432772Y-16021884D01*
X19432772Y-16021884D02*
X19413724Y-16012360D01*
X19413724Y-16012360D02*
X19404201Y-16002836D01*
X19404201Y-16002836D02*
X19394677Y-15983788D01*
X19394677Y-15983788D02*
X19385153Y-15945693D01*
X19385153Y-15945693D02*
X19385153Y-15898074D01*
X19385153Y-15898074D02*
X19394677Y-15859979D01*
X19394677Y-15859979D02*
X19404201Y-15840931D01*
X19404201Y-15840931D02*
X19413724Y-15831408D01*
X19413724Y-15831408D02*
X19432772Y-15821884D01*
X19585153Y-16002836D02*
X19594677Y-16012360D01*
X19594677Y-16012360D02*
X19585153Y-16021884D01*
X19585153Y-16021884D02*
X19575629Y-16012360D01*
X19575629Y-16012360D02*
X19585153Y-16002836D01*
X19585153Y-16002836D02*
X19585153Y-16021884D01*
X19661344Y-15821884D02*
X19785153Y-15821884D01*
X19785153Y-15821884D02*
X19718486Y-15898074D01*
X19718486Y-15898074D02*
X19747058Y-15898074D01*
X19747058Y-15898074D02*
X19766105Y-15907598D01*
X19766105Y-15907598D02*
X19775629Y-15917122D01*
X19775629Y-15917122D02*
X19785153Y-15936169D01*
X19785153Y-15936169D02*
X19785153Y-15983788D01*
X19785153Y-15983788D02*
X19775629Y-16002836D01*
X19775629Y-16002836D02*
X19766105Y-16012360D01*
X19766105Y-16012360D02*
X19747058Y-16021884D01*
X19747058Y-16021884D02*
X19689915Y-16021884D01*
X19689915Y-16021884D02*
X19670867Y-16012360D01*
X19670867Y-16012360D02*
X19661344Y-16002836D01*
X19908963Y-15821884D02*
X19928010Y-15821884D01*
X19928010Y-15821884D02*
X19947058Y-15831408D01*
X19947058Y-15831408D02*
X19956582Y-15840931D01*
X19956582Y-15840931D02*
X19966105Y-15859979D01*
X19966105Y-15859979D02*
X19975629Y-15898074D01*
X19975629Y-15898074D02*
X19975629Y-15945693D01*
X19975629Y-15945693D02*
X19966105Y-15983788D01*
X19966105Y-15983788D02*
X19956582Y-16002836D01*
X19956582Y-16002836D02*
X19947058Y-16012360D01*
X19947058Y-16012360D02*
X19928010Y-16021884D01*
X19928010Y-16021884D02*
X19908963Y-16021884D01*
X19908963Y-16021884D02*
X19889915Y-16012360D01*
X19889915Y-16012360D02*
X19880391Y-16002836D01*
X19880391Y-16002836D02*
X19870867Y-15983788D01*
X19870867Y-15983788D02*
X19861344Y-15945693D01*
X19861344Y-15945693D02*
X19861344Y-15898074D01*
X19861344Y-15898074D02*
X19870867Y-15859979D01*
X19870867Y-15859979D02*
X19880391Y-15840931D01*
X19880391Y-15840931D02*
X19889915Y-15831408D01*
X19889915Y-15831408D02*
X19908963Y-15821884D01*
X20099439Y-15821884D02*
X20118486Y-15821884D01*
X20118486Y-15821884D02*
X20137534Y-15831408D01*
X20137534Y-15831408D02*
X20147058Y-15840931D01*
X20147058Y-15840931D02*
X20156582Y-15859979D01*
X20156582Y-15859979D02*
X20166105Y-15898074D01*
X20166105Y-15898074D02*
X20166105Y-15945693D01*
X20166105Y-15945693D02*
X20156582Y-15983788D01*
X20156582Y-15983788D02*
X20147058Y-16002836D01*
X20147058Y-16002836D02*
X20137534Y-16012360D01*
X20137534Y-16012360D02*
X20118486Y-16021884D01*
X20118486Y-16021884D02*
X20099439Y-16021884D01*
X20099439Y-16021884D02*
X20080391Y-16012360D01*
X20080391Y-16012360D02*
X20070867Y-16002836D01*
X20070867Y-16002836D02*
X20061344Y-15983788D01*
X20061344Y-15983788D02*
X20051820Y-15945693D01*
X20051820Y-15945693D02*
X20051820Y-15898074D01*
X20051820Y-15898074D02*
X20061344Y-15859979D01*
X20061344Y-15859979D02*
X20070867Y-15840931D01*
X20070867Y-15840931D02*
X20080391Y-15831408D01*
X20080391Y-15831408D02*
X20099439Y-15821884D01*
X20251820Y-16021884D02*
X20251820Y-15888550D01*
X20251820Y-15907598D02*
X20261344Y-15898074D01*
X20261344Y-15898074D02*
X20280391Y-15888550D01*
X20280391Y-15888550D02*
X20308963Y-15888550D01*
X20308963Y-15888550D02*
X20328010Y-15898074D01*
X20328010Y-15898074D02*
X20337534Y-15917122D01*
X20337534Y-15917122D02*
X20337534Y-16021884D01*
X20337534Y-15917122D02*
X20347058Y-15898074D01*
X20347058Y-15898074D02*
X20366105Y-15888550D01*
X20366105Y-15888550D02*
X20394677Y-15888550D01*
X20394677Y-15888550D02*
X20413725Y-15898074D01*
X20413725Y-15898074D02*
X20423248Y-15917122D01*
X20423248Y-15917122D02*
X20423248Y-16021884D01*
X20518486Y-16021884D02*
X20518486Y-15888550D01*
X20518486Y-15907598D02*
X20528010Y-15898074D01*
X20528010Y-15898074D02*
X20547058Y-15888550D01*
X20547058Y-15888550D02*
X20575629Y-15888550D01*
X20575629Y-15888550D02*
X20594677Y-15898074D01*
X20594677Y-15898074D02*
X20604201Y-15917122D01*
X20604201Y-15917122D02*
X20604201Y-16021884D01*
X20604201Y-15917122D02*
X20613725Y-15898074D01*
X20613725Y-15898074D02*
X20632772Y-15888550D01*
X20632772Y-15888550D02*
X20661344Y-15888550D01*
X20661344Y-15888550D02*
X20680391Y-15898074D01*
X20680391Y-15898074D02*
X20689915Y-15917122D01*
X20689915Y-15917122D02*
X20689915Y-16021884D01*
X21080391Y-15812360D02*
X20908963Y-16069503D01*
X21337534Y-15821884D02*
X21356582Y-15821884D01*
X21356582Y-15821884D02*
X21375629Y-15831408D01*
X21375629Y-15831408D02*
X21385153Y-15840931D01*
X21385153Y-15840931D02*
X21394677Y-15859979D01*
X21394677Y-15859979D02*
X21404201Y-15898074D01*
X21404201Y-15898074D02*
X21404201Y-15945693D01*
X21404201Y-15945693D02*
X21394677Y-15983788D01*
X21394677Y-15983788D02*
X21385153Y-16002836D01*
X21385153Y-16002836D02*
X21375629Y-16012360D01*
X21375629Y-16012360D02*
X21356582Y-16021884D01*
X21356582Y-16021884D02*
X21337534Y-16021884D01*
X21337534Y-16021884D02*
X21318487Y-16012360D01*
X21318487Y-16012360D02*
X21308963Y-16002836D01*
X21308963Y-16002836D02*
X21299439Y-15983788D01*
X21299439Y-15983788D02*
X21289915Y-15945693D01*
X21289915Y-15945693D02*
X21289915Y-15898074D01*
X21289915Y-15898074D02*
X21299439Y-15859979D01*
X21299439Y-15859979D02*
X21308963Y-15840931D01*
X21308963Y-15840931D02*
X21318487Y-15831408D01*
X21318487Y-15831408D02*
X21337534Y-15821884D01*
X21489915Y-16002836D02*
X21499439Y-16012360D01*
X21499439Y-16012360D02*
X21489915Y-16021884D01*
X21489915Y-16021884D02*
X21480391Y-16012360D01*
X21480391Y-16012360D02*
X21489915Y-16002836D01*
X21489915Y-16002836D02*
X21489915Y-16021884D01*
X21623248Y-15821884D02*
X21642296Y-15821884D01*
X21642296Y-15821884D02*
X21661344Y-15831408D01*
X21661344Y-15831408D02*
X21670868Y-15840931D01*
X21670868Y-15840931D02*
X21680391Y-15859979D01*
X21680391Y-15859979D02*
X21689915Y-15898074D01*
X21689915Y-15898074D02*
X21689915Y-15945693D01*
X21689915Y-15945693D02*
X21680391Y-15983788D01*
X21680391Y-15983788D02*
X21670868Y-16002836D01*
X21670868Y-16002836D02*
X21661344Y-16012360D01*
X21661344Y-16012360D02*
X21642296Y-16021884D01*
X21642296Y-16021884D02*
X21623248Y-16021884D01*
X21623248Y-16021884D02*
X21604201Y-16012360D01*
X21604201Y-16012360D02*
X21594677Y-16002836D01*
X21594677Y-16002836D02*
X21585153Y-15983788D01*
X21585153Y-15983788D02*
X21575629Y-15945693D01*
X21575629Y-15945693D02*
X21575629Y-15898074D01*
X21575629Y-15898074D02*
X21585153Y-15859979D01*
X21585153Y-15859979D02*
X21594677Y-15840931D01*
X21594677Y-15840931D02*
X21604201Y-15831408D01*
X21604201Y-15831408D02*
X21623248Y-15821884D01*
X21880391Y-16021884D02*
X21766106Y-16021884D01*
X21823248Y-16021884D02*
X21823248Y-15821884D01*
X21823248Y-15821884D02*
X21804201Y-15850455D01*
X21804201Y-15850455D02*
X21785153Y-15869503D01*
X21785153Y-15869503D02*
X21766106Y-15879027D01*
X22070868Y-16021884D02*
X21956582Y-16021884D01*
X22013725Y-16021884D02*
X22013725Y-15821884D01*
X22013725Y-15821884D02*
X21994677Y-15850455D01*
X21994677Y-15850455D02*
X21975629Y-15869503D01*
X21975629Y-15869503D02*
X21956582Y-15879027D01*
X22185153Y-15907598D02*
X22166106Y-15898074D01*
X22166106Y-15898074D02*
X22156582Y-15888550D01*
X22156582Y-15888550D02*
X22147058Y-15869503D01*
X22147058Y-15869503D02*
X22147058Y-15859979D01*
X22147058Y-15859979D02*
X22156582Y-15840931D01*
X22156582Y-15840931D02*
X22166106Y-15831408D01*
X22166106Y-15831408D02*
X22185153Y-15821884D01*
X22185153Y-15821884D02*
X22223249Y-15821884D01*
X22223249Y-15821884D02*
X22242296Y-15831408D01*
X22242296Y-15831408D02*
X22251820Y-15840931D01*
X22251820Y-15840931D02*
X22261344Y-15859979D01*
X22261344Y-15859979D02*
X22261344Y-15869503D01*
X22261344Y-15869503D02*
X22251820Y-15888550D01*
X22251820Y-15888550D02*
X22242296Y-15898074D01*
X22242296Y-15898074D02*
X22223249Y-15907598D01*
X22223249Y-15907598D02*
X22185153Y-15907598D01*
X22185153Y-15907598D02*
X22166106Y-15917122D01*
X22166106Y-15917122D02*
X22156582Y-15926646D01*
X22156582Y-15926646D02*
X22147058Y-15945693D01*
X22147058Y-15945693D02*
X22147058Y-15983788D01*
X22147058Y-15983788D02*
X22156582Y-16002836D01*
X22156582Y-16002836D02*
X22166106Y-16012360D01*
X22166106Y-16012360D02*
X22185153Y-16021884D01*
X22185153Y-16021884D02*
X22223249Y-16021884D01*
X22223249Y-16021884D02*
X22242296Y-16012360D01*
X22242296Y-16012360D02*
X22251820Y-16002836D01*
X22251820Y-16002836D02*
X22261344Y-15983788D01*
X22261344Y-15983788D02*
X22261344Y-15945693D01*
X22261344Y-15945693D02*
X22251820Y-15926646D01*
X22251820Y-15926646D02*
X22242296Y-15917122D01*
X22242296Y-15917122D02*
X22223249Y-15907598D01*
X22337534Y-15821884D02*
X22337534Y-15859979D01*
X22413725Y-15821884D02*
X22413725Y-15859979D01*
X22708963Y-16098074D02*
X22699439Y-16088550D01*
X22699439Y-16088550D02*
X22680391Y-16059979D01*
X22680391Y-16059979D02*
X22670868Y-16040931D01*
X22670868Y-16040931D02*
X22661344Y-16012360D01*
X22661344Y-16012360D02*
X22651820Y-15964741D01*
X22651820Y-15964741D02*
X22651820Y-15926646D01*
X22651820Y-15926646D02*
X22661344Y-15879027D01*
X22661344Y-15879027D02*
X22670868Y-15850455D01*
X22670868Y-15850455D02*
X22680391Y-15831408D01*
X22680391Y-15831408D02*
X22699439Y-15802836D01*
X22699439Y-15802836D02*
X22708963Y-15793312D01*
X22889915Y-16021884D02*
X22775629Y-16021884D01*
X22832772Y-16021884D02*
X22832772Y-15821884D01*
X22832772Y-15821884D02*
X22813725Y-15850455D01*
X22813725Y-15850455D02*
X22794677Y-15869503D01*
X22794677Y-15869503D02*
X22775629Y-15879027D01*
X23128010Y-16021884D02*
X23128010Y-15821884D01*
X23213725Y-16021884D02*
X23213725Y-15917122D01*
X23213725Y-15917122D02*
X23204201Y-15898074D01*
X23204201Y-15898074D02*
X23185153Y-15888550D01*
X23185153Y-15888550D02*
X23156582Y-15888550D01*
X23156582Y-15888550D02*
X23137534Y-15898074D01*
X23137534Y-15898074D02*
X23128010Y-15907598D01*
X23337534Y-16021884D02*
X23318487Y-16012360D01*
X23318487Y-16012360D02*
X23308963Y-16002836D01*
X23308963Y-16002836D02*
X23299439Y-15983788D01*
X23299439Y-15983788D02*
X23299439Y-15926646D01*
X23299439Y-15926646D02*
X23308963Y-15907598D01*
X23308963Y-15907598D02*
X23318487Y-15898074D01*
X23318487Y-15898074D02*
X23337534Y-15888550D01*
X23337534Y-15888550D02*
X23366106Y-15888550D01*
X23366106Y-15888550D02*
X23385153Y-15898074D01*
X23385153Y-15898074D02*
X23394677Y-15907598D01*
X23394677Y-15907598D02*
X23404201Y-15926646D01*
X23404201Y-15926646D02*
X23404201Y-15983788D01*
X23404201Y-15983788D02*
X23394677Y-16002836D01*
X23394677Y-16002836D02*
X23385153Y-16012360D01*
X23385153Y-16012360D02*
X23366106Y-16021884D01*
X23366106Y-16021884D02*
X23337534Y-16021884D01*
X23518487Y-16021884D02*
X23499439Y-16012360D01*
X23499439Y-16012360D02*
X23489915Y-15993312D01*
X23489915Y-15993312D02*
X23489915Y-15821884D01*
X23670868Y-16012360D02*
X23651820Y-16021884D01*
X23651820Y-16021884D02*
X23613725Y-16021884D01*
X23613725Y-16021884D02*
X23594677Y-16012360D01*
X23594677Y-16012360D02*
X23585153Y-15993312D01*
X23585153Y-15993312D02*
X23585153Y-15917122D01*
X23585153Y-15917122D02*
X23594677Y-15898074D01*
X23594677Y-15898074D02*
X23613725Y-15888550D01*
X23613725Y-15888550D02*
X23651820Y-15888550D01*
X23651820Y-15888550D02*
X23670868Y-15898074D01*
X23670868Y-15898074D02*
X23680391Y-15917122D01*
X23680391Y-15917122D02*
X23680391Y-15936169D01*
X23680391Y-15936169D02*
X23585153Y-15955217D01*
X23747058Y-16098074D02*
X23756582Y-16088550D01*
X23756582Y-16088550D02*
X23775630Y-16059979D01*
X23775630Y-16059979D02*
X23785153Y-16040931D01*
X23785153Y-16040931D02*
X23794677Y-16012360D01*
X23794677Y-16012360D02*
X23804201Y-15964741D01*
X23804201Y-15964741D02*
X23804201Y-15926646D01*
X23804201Y-15926646D02*
X23794677Y-15879027D01*
X23794677Y-15879027D02*
X23785153Y-15850455D01*
X23785153Y-15850455D02*
X23775630Y-15831408D01*
X23775630Y-15831408D02*
X23756582Y-15802836D01*
X23756582Y-15802836D02*
X23747058Y-15793312D01*
D10*
X19125113Y-16215613D02*
X19125113Y-16173187D01*
X19082687Y-16173187D01*
X19082687Y-16215613D01*
X19125113Y-16215613D01*
D11*
X19432772Y-16085884D02*
X19451820Y-16085884D01*
X19451820Y-16085884D02*
X19470867Y-16095408D01*
X19470867Y-16095408D02*
X19480391Y-16104931D01*
X19480391Y-16104931D02*
X19489915Y-16123979D01*
X19489915Y-16123979D02*
X19499439Y-16162074D01*
X19499439Y-16162074D02*
X19499439Y-16209693D01*
X19499439Y-16209693D02*
X19489915Y-16247788D01*
X19489915Y-16247788D02*
X19480391Y-16266836D01*
X19480391Y-16266836D02*
X19470867Y-16276360D01*
X19470867Y-16276360D02*
X19451820Y-16285884D01*
X19451820Y-16285884D02*
X19432772Y-16285884D01*
X19432772Y-16285884D02*
X19413724Y-16276360D01*
X19413724Y-16276360D02*
X19404201Y-16266836D01*
X19404201Y-16266836D02*
X19394677Y-16247788D01*
X19394677Y-16247788D02*
X19385153Y-16209693D01*
X19385153Y-16209693D02*
X19385153Y-16162074D01*
X19385153Y-16162074D02*
X19394677Y-16123979D01*
X19394677Y-16123979D02*
X19404201Y-16104931D01*
X19404201Y-16104931D02*
X19413724Y-16095408D01*
X19413724Y-16095408D02*
X19432772Y-16085884D01*
X19585153Y-16266836D02*
X19594677Y-16276360D01*
X19594677Y-16276360D02*
X19585153Y-16285884D01*
X19585153Y-16285884D02*
X19575629Y-16276360D01*
X19575629Y-16276360D02*
X19585153Y-16266836D01*
X19585153Y-16266836D02*
X19585153Y-16285884D01*
X19766105Y-16085884D02*
X19728010Y-16085884D01*
X19728010Y-16085884D02*
X19708963Y-16095408D01*
X19708963Y-16095408D02*
X19699439Y-16104931D01*
X19699439Y-16104931D02*
X19680391Y-16133503D01*
X19680391Y-16133503D02*
X19670867Y-16171598D01*
X19670867Y-16171598D02*
X19670867Y-16247788D01*
X19670867Y-16247788D02*
X19680391Y-16266836D01*
X19680391Y-16266836D02*
X19689915Y-16276360D01*
X19689915Y-16276360D02*
X19708963Y-16285884D01*
X19708963Y-16285884D02*
X19747058Y-16285884D01*
X19747058Y-16285884D02*
X19766105Y-16276360D01*
X19766105Y-16276360D02*
X19775629Y-16266836D01*
X19775629Y-16266836D02*
X19785153Y-16247788D01*
X19785153Y-16247788D02*
X19785153Y-16200169D01*
X19785153Y-16200169D02*
X19775629Y-16181122D01*
X19775629Y-16181122D02*
X19766105Y-16171598D01*
X19766105Y-16171598D02*
X19747058Y-16162074D01*
X19747058Y-16162074D02*
X19708963Y-16162074D01*
X19708963Y-16162074D02*
X19689915Y-16171598D01*
X19689915Y-16171598D02*
X19680391Y-16181122D01*
X19680391Y-16181122D02*
X19670867Y-16200169D01*
X19908963Y-16085884D02*
X19928010Y-16085884D01*
X19928010Y-16085884D02*
X19947058Y-16095408D01*
X19947058Y-16095408D02*
X19956582Y-16104931D01*
X19956582Y-16104931D02*
X19966105Y-16123979D01*
X19966105Y-16123979D02*
X19975629Y-16162074D01*
X19975629Y-16162074D02*
X19975629Y-16209693D01*
X19975629Y-16209693D02*
X19966105Y-16247788D01*
X19966105Y-16247788D02*
X19956582Y-16266836D01*
X19956582Y-16266836D02*
X19947058Y-16276360D01*
X19947058Y-16276360D02*
X19928010Y-16285884D01*
X19928010Y-16285884D02*
X19908963Y-16285884D01*
X19908963Y-16285884D02*
X19889915Y-16276360D01*
X19889915Y-16276360D02*
X19880391Y-16266836D01*
X19880391Y-16266836D02*
X19870867Y-16247788D01*
X19870867Y-16247788D02*
X19861344Y-16209693D01*
X19861344Y-16209693D02*
X19861344Y-16162074D01*
X19861344Y-16162074D02*
X19870867Y-16123979D01*
X19870867Y-16123979D02*
X19880391Y-16104931D01*
X19880391Y-16104931D02*
X19889915Y-16095408D01*
X19889915Y-16095408D02*
X19908963Y-16085884D01*
X20099439Y-16085884D02*
X20118486Y-16085884D01*
X20118486Y-16085884D02*
X20137534Y-16095408D01*
X20137534Y-16095408D02*
X20147058Y-16104931D01*
X20147058Y-16104931D02*
X20156582Y-16123979D01*
X20156582Y-16123979D02*
X20166105Y-16162074D01*
X20166105Y-16162074D02*
X20166105Y-16209693D01*
X20166105Y-16209693D02*
X20156582Y-16247788D01*
X20156582Y-16247788D02*
X20147058Y-16266836D01*
X20147058Y-16266836D02*
X20137534Y-16276360D01*
X20137534Y-16276360D02*
X20118486Y-16285884D01*
X20118486Y-16285884D02*
X20099439Y-16285884D01*
X20099439Y-16285884D02*
X20080391Y-16276360D01*
X20080391Y-16276360D02*
X20070867Y-16266836D01*
X20070867Y-16266836D02*
X20061344Y-16247788D01*
X20061344Y-16247788D02*
X20051820Y-16209693D01*
X20051820Y-16209693D02*
X20051820Y-16162074D01*
X20051820Y-16162074D02*
X20061344Y-16123979D01*
X20061344Y-16123979D02*
X20070867Y-16104931D01*
X20070867Y-16104931D02*
X20080391Y-16095408D01*
X20080391Y-16095408D02*
X20099439Y-16085884D01*
X20251820Y-16285884D02*
X20251820Y-16152550D01*
X20251820Y-16171598D02*
X20261344Y-16162074D01*
X20261344Y-16162074D02*
X20280391Y-16152550D01*
X20280391Y-16152550D02*
X20308963Y-16152550D01*
X20308963Y-16152550D02*
X20328010Y-16162074D01*
X20328010Y-16162074D02*
X20337534Y-16181122D01*
X20337534Y-16181122D02*
X20337534Y-16285884D01*
X20337534Y-16181122D02*
X20347058Y-16162074D01*
X20347058Y-16162074D02*
X20366105Y-16152550D01*
X20366105Y-16152550D02*
X20394677Y-16152550D01*
X20394677Y-16152550D02*
X20413725Y-16162074D01*
X20413725Y-16162074D02*
X20423248Y-16181122D01*
X20423248Y-16181122D02*
X20423248Y-16285884D01*
X20518486Y-16285884D02*
X20518486Y-16152550D01*
X20518486Y-16171598D02*
X20528010Y-16162074D01*
X20528010Y-16162074D02*
X20547058Y-16152550D01*
X20547058Y-16152550D02*
X20575629Y-16152550D01*
X20575629Y-16152550D02*
X20594677Y-16162074D01*
X20594677Y-16162074D02*
X20604201Y-16181122D01*
X20604201Y-16181122D02*
X20604201Y-16285884D01*
X20604201Y-16181122D02*
X20613725Y-16162074D01*
X20613725Y-16162074D02*
X20632772Y-16152550D01*
X20632772Y-16152550D02*
X20661344Y-16152550D01*
X20661344Y-16152550D02*
X20680391Y-16162074D01*
X20680391Y-16162074D02*
X20689915Y-16181122D01*
X20689915Y-16181122D02*
X20689915Y-16285884D01*
X21080391Y-16076360D02*
X20908963Y-16333503D01*
X21337534Y-16085884D02*
X21356582Y-16085884D01*
X21356582Y-16085884D02*
X21375629Y-16095408D01*
X21375629Y-16095408D02*
X21385153Y-16104931D01*
X21385153Y-16104931D02*
X21394677Y-16123979D01*
X21394677Y-16123979D02*
X21404201Y-16162074D01*
X21404201Y-16162074D02*
X21404201Y-16209693D01*
X21404201Y-16209693D02*
X21394677Y-16247788D01*
X21394677Y-16247788D02*
X21385153Y-16266836D01*
X21385153Y-16266836D02*
X21375629Y-16276360D01*
X21375629Y-16276360D02*
X21356582Y-16285884D01*
X21356582Y-16285884D02*
X21337534Y-16285884D01*
X21337534Y-16285884D02*
X21318487Y-16276360D01*
X21318487Y-16276360D02*
X21308963Y-16266836D01*
X21308963Y-16266836D02*
X21299439Y-16247788D01*
X21299439Y-16247788D02*
X21289915Y-16209693D01*
X21289915Y-16209693D02*
X21289915Y-16162074D01*
X21289915Y-16162074D02*
X21299439Y-16123979D01*
X21299439Y-16123979D02*
X21308963Y-16104931D01*
X21308963Y-16104931D02*
X21318487Y-16095408D01*
X21318487Y-16095408D02*
X21337534Y-16085884D01*
X21489915Y-16266836D02*
X21499439Y-16276360D01*
X21499439Y-16276360D02*
X21489915Y-16285884D01*
X21489915Y-16285884D02*
X21480391Y-16276360D01*
X21480391Y-16276360D02*
X21489915Y-16266836D01*
X21489915Y-16266836D02*
X21489915Y-16285884D01*
X21623248Y-16085884D02*
X21642296Y-16085884D01*
X21642296Y-16085884D02*
X21661344Y-16095408D01*
X21661344Y-16095408D02*
X21670868Y-16104931D01*
X21670868Y-16104931D02*
X21680391Y-16123979D01*
X21680391Y-16123979D02*
X21689915Y-16162074D01*
X21689915Y-16162074D02*
X21689915Y-16209693D01*
X21689915Y-16209693D02*
X21680391Y-16247788D01*
X21680391Y-16247788D02*
X21670868Y-16266836D01*
X21670868Y-16266836D02*
X21661344Y-16276360D01*
X21661344Y-16276360D02*
X21642296Y-16285884D01*
X21642296Y-16285884D02*
X21623248Y-16285884D01*
X21623248Y-16285884D02*
X21604201Y-16276360D01*
X21604201Y-16276360D02*
X21594677Y-16266836D01*
X21594677Y-16266836D02*
X21585153Y-16247788D01*
X21585153Y-16247788D02*
X21575629Y-16209693D01*
X21575629Y-16209693D02*
X21575629Y-16162074D01*
X21575629Y-16162074D02*
X21585153Y-16123979D01*
X21585153Y-16123979D02*
X21594677Y-16104931D01*
X21594677Y-16104931D02*
X21604201Y-16095408D01*
X21604201Y-16095408D02*
X21623248Y-16085884D01*
X21766106Y-16104931D02*
X21775629Y-16095408D01*
X21775629Y-16095408D02*
X21794677Y-16085884D01*
X21794677Y-16085884D02*
X21842296Y-16085884D01*
X21842296Y-16085884D02*
X21861344Y-16095408D01*
X21861344Y-16095408D02*
X21870868Y-16104931D01*
X21870868Y-16104931D02*
X21880391Y-16123979D01*
X21880391Y-16123979D02*
X21880391Y-16143027D01*
X21880391Y-16143027D02*
X21870868Y-16171598D01*
X21870868Y-16171598D02*
X21756582Y-16285884D01*
X21756582Y-16285884D02*
X21880391Y-16285884D01*
X21947058Y-16085884D02*
X22070868Y-16085884D01*
X22070868Y-16085884D02*
X22004201Y-16162074D01*
X22004201Y-16162074D02*
X22032772Y-16162074D01*
X22032772Y-16162074D02*
X22051820Y-16171598D01*
X22051820Y-16171598D02*
X22061344Y-16181122D01*
X22061344Y-16181122D02*
X22070868Y-16200169D01*
X22070868Y-16200169D02*
X22070868Y-16247788D01*
X22070868Y-16247788D02*
X22061344Y-16266836D01*
X22061344Y-16266836D02*
X22051820Y-16276360D01*
X22051820Y-16276360D02*
X22032772Y-16285884D01*
X22032772Y-16285884D02*
X21975629Y-16285884D01*
X21975629Y-16285884D02*
X21956582Y-16276360D01*
X21956582Y-16276360D02*
X21947058Y-16266836D01*
X22242296Y-16085884D02*
X22204201Y-16085884D01*
X22204201Y-16085884D02*
X22185153Y-16095408D01*
X22185153Y-16095408D02*
X22175629Y-16104931D01*
X22175629Y-16104931D02*
X22156582Y-16133503D01*
X22156582Y-16133503D02*
X22147058Y-16171598D01*
X22147058Y-16171598D02*
X22147058Y-16247788D01*
X22147058Y-16247788D02*
X22156582Y-16266836D01*
X22156582Y-16266836D02*
X22166106Y-16276360D01*
X22166106Y-16276360D02*
X22185153Y-16285884D01*
X22185153Y-16285884D02*
X22223249Y-16285884D01*
X22223249Y-16285884D02*
X22242296Y-16276360D01*
X22242296Y-16276360D02*
X22251820Y-16266836D01*
X22251820Y-16266836D02*
X22261344Y-16247788D01*
X22261344Y-16247788D02*
X22261344Y-16200169D01*
X22261344Y-16200169D02*
X22251820Y-16181122D01*
X22251820Y-16181122D02*
X22242296Y-16171598D01*
X22242296Y-16171598D02*
X22223249Y-16162074D01*
X22223249Y-16162074D02*
X22185153Y-16162074D01*
X22185153Y-16162074D02*
X22166106Y-16171598D01*
X22166106Y-16171598D02*
X22156582Y-16181122D01*
X22156582Y-16181122D02*
X22147058Y-16200169D01*
X22337534Y-16085884D02*
X22337534Y-16123979D01*
X22413725Y-16085884D02*
X22413725Y-16123979D01*
X22708963Y-16362074D02*
X22699439Y-16352550D01*
X22699439Y-16352550D02*
X22680391Y-16323979D01*
X22680391Y-16323979D02*
X22670868Y-16304931D01*
X22670868Y-16304931D02*
X22661344Y-16276360D01*
X22661344Y-16276360D02*
X22651820Y-16228741D01*
X22651820Y-16228741D02*
X22651820Y-16190646D01*
X22651820Y-16190646D02*
X22661344Y-16143027D01*
X22661344Y-16143027D02*
X22670868Y-16114455D01*
X22670868Y-16114455D02*
X22680391Y-16095408D01*
X22680391Y-16095408D02*
X22699439Y-16066836D01*
X22699439Y-16066836D02*
X22708963Y-16057312D01*
X22823248Y-16085884D02*
X22842296Y-16085884D01*
X22842296Y-16085884D02*
X22861344Y-16095408D01*
X22861344Y-16095408D02*
X22870868Y-16104931D01*
X22870868Y-16104931D02*
X22880391Y-16123979D01*
X22880391Y-16123979D02*
X22889915Y-16162074D01*
X22889915Y-16162074D02*
X22889915Y-16209693D01*
X22889915Y-16209693D02*
X22880391Y-16247788D01*
X22880391Y-16247788D02*
X22870868Y-16266836D01*
X22870868Y-16266836D02*
X22861344Y-16276360D01*
X22861344Y-16276360D02*
X22842296Y-16285884D01*
X22842296Y-16285884D02*
X22823248Y-16285884D01*
X22823248Y-16285884D02*
X22804201Y-16276360D01*
X22804201Y-16276360D02*
X22794677Y-16266836D01*
X22794677Y-16266836D02*
X22785153Y-16247788D01*
X22785153Y-16247788D02*
X22775629Y-16209693D01*
X22775629Y-16209693D02*
X22775629Y-16162074D01*
X22775629Y-16162074D02*
X22785153Y-16123979D01*
X22785153Y-16123979D02*
X22794677Y-16104931D01*
X22794677Y-16104931D02*
X22804201Y-16095408D01*
X22804201Y-16095408D02*
X22823248Y-16085884D01*
X23128010Y-16285884D02*
X23128010Y-16085884D01*
X23213725Y-16285884D02*
X23213725Y-16181122D01*
X23213725Y-16181122D02*
X23204201Y-16162074D01*
X23204201Y-16162074D02*
X23185153Y-16152550D01*
X23185153Y-16152550D02*
X23156582Y-16152550D01*
X23156582Y-16152550D02*
X23137534Y-16162074D01*
X23137534Y-16162074D02*
X23128010Y-16171598D01*
X23337534Y-16285884D02*
X23318487Y-16276360D01*
X23318487Y-16276360D02*
X23308963Y-16266836D01*
X23308963Y-16266836D02*
X23299439Y-16247788D01*
X23299439Y-16247788D02*
X23299439Y-16190646D01*
X23299439Y-16190646D02*
X23308963Y-16171598D01*
X23308963Y-16171598D02*
X23318487Y-16162074D01*
X23318487Y-16162074D02*
X23337534Y-16152550D01*
X23337534Y-16152550D02*
X23366106Y-16152550D01*
X23366106Y-16152550D02*
X23385153Y-16162074D01*
X23385153Y-16162074D02*
X23394677Y-16171598D01*
X23394677Y-16171598D02*
X23404201Y-16190646D01*
X23404201Y-16190646D02*
X23404201Y-16247788D01*
X23404201Y-16247788D02*
X23394677Y-16266836D01*
X23394677Y-16266836D02*
X23385153Y-16276360D01*
X23385153Y-16276360D02*
X23366106Y-16285884D01*
X23366106Y-16285884D02*
X23337534Y-16285884D01*
X23518487Y-16285884D02*
X23499439Y-16276360D01*
X23499439Y-16276360D02*
X23489915Y-16257312D01*
X23489915Y-16257312D02*
X23489915Y-16085884D01*
X23670868Y-16276360D02*
X23651820Y-16285884D01*
X23651820Y-16285884D02*
X23613725Y-16285884D01*
X23613725Y-16285884D02*
X23594677Y-16276360D01*
X23594677Y-16276360D02*
X23585153Y-16257312D01*
X23585153Y-16257312D02*
X23585153Y-16181122D01*
X23585153Y-16181122D02*
X23594677Y-16162074D01*
X23594677Y-16162074D02*
X23613725Y-16152550D01*
X23613725Y-16152550D02*
X23651820Y-16152550D01*
X23651820Y-16152550D02*
X23670868Y-16162074D01*
X23670868Y-16162074D02*
X23680391Y-16181122D01*
X23680391Y-16181122D02*
X23680391Y-16200169D01*
X23680391Y-16200169D02*
X23585153Y-16219217D01*
X23756582Y-16276360D02*
X23775630Y-16285884D01*
X23775630Y-16285884D02*
X23813725Y-16285884D01*
X23813725Y-16285884D02*
X23832772Y-16276360D01*
X23832772Y-16276360D02*
X23842296Y-16257312D01*
X23842296Y-16257312D02*
X23842296Y-16247788D01*
X23842296Y-16247788D02*
X23832772Y-16228741D01*
X23832772Y-16228741D02*
X23813725Y-16219217D01*
X23813725Y-16219217D02*
X23785153Y-16219217D01*
X23785153Y-16219217D02*
X23766106Y-16209693D01*
X23766106Y-16209693D02*
X23756582Y-16190646D01*
X23756582Y-16190646D02*
X23756582Y-16181122D01*
X23756582Y-16181122D02*
X23766106Y-16162074D01*
X23766106Y-16162074D02*
X23785153Y-16152550D01*
X23785153Y-16152550D02*
X23813725Y-16152550D01*
X23813725Y-16152550D02*
X23832772Y-16162074D01*
X24080392Y-16209693D02*
X24232773Y-16209693D01*
X24156582Y-16285884D02*
X24156582Y-16133503D01*
X24566106Y-16152550D02*
X24566106Y-16285884D01*
X24518487Y-16076360D02*
X24470868Y-16219217D01*
X24470868Y-16219217D02*
X24594677Y-16219217D01*
X24813725Y-16276360D02*
X24832773Y-16285884D01*
X24832773Y-16285884D02*
X24870868Y-16285884D01*
X24870868Y-16285884D02*
X24889915Y-16276360D01*
X24889915Y-16276360D02*
X24899439Y-16257312D01*
X24899439Y-16257312D02*
X24899439Y-16247788D01*
X24899439Y-16247788D02*
X24889915Y-16228741D01*
X24889915Y-16228741D02*
X24870868Y-16219217D01*
X24870868Y-16219217D02*
X24842296Y-16219217D01*
X24842296Y-16219217D02*
X24823249Y-16209693D01*
X24823249Y-16209693D02*
X24813725Y-16190646D01*
X24813725Y-16190646D02*
X24813725Y-16181122D01*
X24813725Y-16181122D02*
X24823249Y-16162074D01*
X24823249Y-16162074D02*
X24842296Y-16152550D01*
X24842296Y-16152550D02*
X24870868Y-16152550D01*
X24870868Y-16152550D02*
X24889915Y-16162074D01*
X25013725Y-16285884D02*
X24994677Y-16276360D01*
X24994677Y-16276360D02*
X24985154Y-16257312D01*
X24985154Y-16257312D02*
X24985154Y-16085884D01*
X25118487Y-16285884D02*
X25099439Y-16276360D01*
X25099439Y-16276360D02*
X25089915Y-16266836D01*
X25089915Y-16266836D02*
X25080392Y-16247788D01*
X25080392Y-16247788D02*
X25080392Y-16190646D01*
X25080392Y-16190646D02*
X25089915Y-16171598D01*
X25089915Y-16171598D02*
X25099439Y-16162074D01*
X25099439Y-16162074D02*
X25118487Y-16152550D01*
X25118487Y-16152550D02*
X25147058Y-16152550D01*
X25147058Y-16152550D02*
X25166106Y-16162074D01*
X25166106Y-16162074D02*
X25175630Y-16171598D01*
X25175630Y-16171598D02*
X25185154Y-16190646D01*
X25185154Y-16190646D02*
X25185154Y-16247788D01*
X25185154Y-16247788D02*
X25175630Y-16266836D01*
X25175630Y-16266836D02*
X25166106Y-16276360D01*
X25166106Y-16276360D02*
X25147058Y-16285884D01*
X25147058Y-16285884D02*
X25118487Y-16285884D01*
X25242296Y-16152550D02*
X25318487Y-16152550D01*
X25270868Y-16085884D02*
X25270868Y-16257312D01*
X25270868Y-16257312D02*
X25280392Y-16276360D01*
X25280392Y-16276360D02*
X25299439Y-16285884D01*
X25299439Y-16285884D02*
X25318487Y-16285884D01*
X25375630Y-16276360D02*
X25394677Y-16285884D01*
X25394677Y-16285884D02*
X25432773Y-16285884D01*
X25432773Y-16285884D02*
X25451820Y-16276360D01*
X25451820Y-16276360D02*
X25461344Y-16257312D01*
X25461344Y-16257312D02*
X25461344Y-16247788D01*
X25461344Y-16247788D02*
X25451820Y-16228741D01*
X25451820Y-16228741D02*
X25432773Y-16219217D01*
X25432773Y-16219217D02*
X25404201Y-16219217D01*
X25404201Y-16219217D02*
X25385154Y-16209693D01*
X25385154Y-16209693D02*
X25375630Y-16190646D01*
X25375630Y-16190646D02*
X25375630Y-16181122D01*
X25375630Y-16181122D02*
X25385154Y-16162074D01*
X25385154Y-16162074D02*
X25404201Y-16152550D01*
X25404201Y-16152550D02*
X25432773Y-16152550D01*
X25432773Y-16152550D02*
X25451820Y-16162074D01*
X25528011Y-16362074D02*
X25537535Y-16352550D01*
X25537535Y-16352550D02*
X25556582Y-16323979D01*
X25556582Y-16323979D02*
X25566106Y-16304931D01*
X25566106Y-16304931D02*
X25575630Y-16276360D01*
X25575630Y-16276360D02*
X25585154Y-16228741D01*
X25585154Y-16228741D02*
X25585154Y-16190646D01*
X25585154Y-16190646D02*
X25575630Y-16143027D01*
X25575630Y-16143027D02*
X25566106Y-16114455D01*
X25566106Y-16114455D02*
X25556582Y-16095408D01*
X25556582Y-16095408D02*
X25537535Y-16066836D01*
X25537535Y-16066836D02*
X25528011Y-16057312D01*
D10*
X19101400Y-16490900D02*
X19133900Y-16458400D01*
X19101400Y-16425900D01*
X19068900Y-16458400D01*
X19101400Y-16490900D01*
D11*
X19432772Y-16349884D02*
X19451820Y-16349884D01*
X19451820Y-16349884D02*
X19470867Y-16359408D01*
X19470867Y-16359408D02*
X19480391Y-16368931D01*
X19480391Y-16368931D02*
X19489915Y-16387979D01*
X19489915Y-16387979D02*
X19499439Y-16426074D01*
X19499439Y-16426074D02*
X19499439Y-16473693D01*
X19499439Y-16473693D02*
X19489915Y-16511788D01*
X19489915Y-16511788D02*
X19480391Y-16530836D01*
X19480391Y-16530836D02*
X19470867Y-16540360D01*
X19470867Y-16540360D02*
X19451820Y-16549884D01*
X19451820Y-16549884D02*
X19432772Y-16549884D01*
X19432772Y-16549884D02*
X19413724Y-16540360D01*
X19413724Y-16540360D02*
X19404201Y-16530836D01*
X19404201Y-16530836D02*
X19394677Y-16511788D01*
X19394677Y-16511788D02*
X19385153Y-16473693D01*
X19385153Y-16473693D02*
X19385153Y-16426074D01*
X19385153Y-16426074D02*
X19394677Y-16387979D01*
X19394677Y-16387979D02*
X19404201Y-16368931D01*
X19404201Y-16368931D02*
X19413724Y-16359408D01*
X19413724Y-16359408D02*
X19432772Y-16349884D01*
X19585153Y-16530836D02*
X19594677Y-16540360D01*
X19594677Y-16540360D02*
X19585153Y-16549884D01*
X19585153Y-16549884D02*
X19575629Y-16540360D01*
X19575629Y-16540360D02*
X19585153Y-16530836D01*
X19585153Y-16530836D02*
X19585153Y-16549884D01*
X19766105Y-16349884D02*
X19728010Y-16349884D01*
X19728010Y-16349884D02*
X19708963Y-16359408D01*
X19708963Y-16359408D02*
X19699439Y-16368931D01*
X19699439Y-16368931D02*
X19680391Y-16397503D01*
X19680391Y-16397503D02*
X19670867Y-16435598D01*
X19670867Y-16435598D02*
X19670867Y-16511788D01*
X19670867Y-16511788D02*
X19680391Y-16530836D01*
X19680391Y-16530836D02*
X19689915Y-16540360D01*
X19689915Y-16540360D02*
X19708963Y-16549884D01*
X19708963Y-16549884D02*
X19747058Y-16549884D01*
X19747058Y-16549884D02*
X19766105Y-16540360D01*
X19766105Y-16540360D02*
X19775629Y-16530836D01*
X19775629Y-16530836D02*
X19785153Y-16511788D01*
X19785153Y-16511788D02*
X19785153Y-16464169D01*
X19785153Y-16464169D02*
X19775629Y-16445122D01*
X19775629Y-16445122D02*
X19766105Y-16435598D01*
X19766105Y-16435598D02*
X19747058Y-16426074D01*
X19747058Y-16426074D02*
X19708963Y-16426074D01*
X19708963Y-16426074D02*
X19689915Y-16435598D01*
X19689915Y-16435598D02*
X19680391Y-16445122D01*
X19680391Y-16445122D02*
X19670867Y-16464169D01*
X19966105Y-16349884D02*
X19870867Y-16349884D01*
X19870867Y-16349884D02*
X19861344Y-16445122D01*
X19861344Y-16445122D02*
X19870867Y-16435598D01*
X19870867Y-16435598D02*
X19889915Y-16426074D01*
X19889915Y-16426074D02*
X19937534Y-16426074D01*
X19937534Y-16426074D02*
X19956582Y-16435598D01*
X19956582Y-16435598D02*
X19966105Y-16445122D01*
X19966105Y-16445122D02*
X19975629Y-16464169D01*
X19975629Y-16464169D02*
X19975629Y-16511788D01*
X19975629Y-16511788D02*
X19966105Y-16530836D01*
X19966105Y-16530836D02*
X19956582Y-16540360D01*
X19956582Y-16540360D02*
X19937534Y-16549884D01*
X19937534Y-16549884D02*
X19889915Y-16549884D01*
X19889915Y-16549884D02*
X19870867Y-16540360D01*
X19870867Y-16540360D02*
X19861344Y-16530836D01*
X20099439Y-16349884D02*
X20118486Y-16349884D01*
X20118486Y-16349884D02*
X20137534Y-16359408D01*
X20137534Y-16359408D02*
X20147058Y-16368931D01*
X20147058Y-16368931D02*
X20156582Y-16387979D01*
X20156582Y-16387979D02*
X20166105Y-16426074D01*
X20166105Y-16426074D02*
X20166105Y-16473693D01*
X20166105Y-16473693D02*
X20156582Y-16511788D01*
X20156582Y-16511788D02*
X20147058Y-16530836D01*
X20147058Y-16530836D02*
X20137534Y-16540360D01*
X20137534Y-16540360D02*
X20118486Y-16549884D01*
X20118486Y-16549884D02*
X20099439Y-16549884D01*
X20099439Y-16549884D02*
X20080391Y-16540360D01*
X20080391Y-16540360D02*
X20070867Y-16530836D01*
X20070867Y-16530836D02*
X20061344Y-16511788D01*
X20061344Y-16511788D02*
X20051820Y-16473693D01*
X20051820Y-16473693D02*
X20051820Y-16426074D01*
X20051820Y-16426074D02*
X20061344Y-16387979D01*
X20061344Y-16387979D02*
X20070867Y-16368931D01*
X20070867Y-16368931D02*
X20080391Y-16359408D01*
X20080391Y-16359408D02*
X20099439Y-16349884D01*
X20251820Y-16549884D02*
X20251820Y-16416550D01*
X20251820Y-16435598D02*
X20261344Y-16426074D01*
X20261344Y-16426074D02*
X20280391Y-16416550D01*
X20280391Y-16416550D02*
X20308963Y-16416550D01*
X20308963Y-16416550D02*
X20328010Y-16426074D01*
X20328010Y-16426074D02*
X20337534Y-16445122D01*
X20337534Y-16445122D02*
X20337534Y-16549884D01*
X20337534Y-16445122D02*
X20347058Y-16426074D01*
X20347058Y-16426074D02*
X20366105Y-16416550D01*
X20366105Y-16416550D02*
X20394677Y-16416550D01*
X20394677Y-16416550D02*
X20413725Y-16426074D01*
X20413725Y-16426074D02*
X20423248Y-16445122D01*
X20423248Y-16445122D02*
X20423248Y-16549884D01*
X20518486Y-16549884D02*
X20518486Y-16416550D01*
X20518486Y-16435598D02*
X20528010Y-16426074D01*
X20528010Y-16426074D02*
X20547058Y-16416550D01*
X20547058Y-16416550D02*
X20575629Y-16416550D01*
X20575629Y-16416550D02*
X20594677Y-16426074D01*
X20594677Y-16426074D02*
X20604201Y-16445122D01*
X20604201Y-16445122D02*
X20604201Y-16549884D01*
X20604201Y-16445122D02*
X20613725Y-16426074D01*
X20613725Y-16426074D02*
X20632772Y-16416550D01*
X20632772Y-16416550D02*
X20661344Y-16416550D01*
X20661344Y-16416550D02*
X20680391Y-16426074D01*
X20680391Y-16426074D02*
X20689915Y-16445122D01*
X20689915Y-16445122D02*
X20689915Y-16549884D01*
X21080391Y-16340360D02*
X20908963Y-16597503D01*
X21337534Y-16349884D02*
X21356582Y-16349884D01*
X21356582Y-16349884D02*
X21375629Y-16359408D01*
X21375629Y-16359408D02*
X21385153Y-16368931D01*
X21385153Y-16368931D02*
X21394677Y-16387979D01*
X21394677Y-16387979D02*
X21404201Y-16426074D01*
X21404201Y-16426074D02*
X21404201Y-16473693D01*
X21404201Y-16473693D02*
X21394677Y-16511788D01*
X21394677Y-16511788D02*
X21385153Y-16530836D01*
X21385153Y-16530836D02*
X21375629Y-16540360D01*
X21375629Y-16540360D02*
X21356582Y-16549884D01*
X21356582Y-16549884D02*
X21337534Y-16549884D01*
X21337534Y-16549884D02*
X21318487Y-16540360D01*
X21318487Y-16540360D02*
X21308963Y-16530836D01*
X21308963Y-16530836D02*
X21299439Y-16511788D01*
X21299439Y-16511788D02*
X21289915Y-16473693D01*
X21289915Y-16473693D02*
X21289915Y-16426074D01*
X21289915Y-16426074D02*
X21299439Y-16387979D01*
X21299439Y-16387979D02*
X21308963Y-16368931D01*
X21308963Y-16368931D02*
X21318487Y-16359408D01*
X21318487Y-16359408D02*
X21337534Y-16349884D01*
X21489915Y-16530836D02*
X21499439Y-16540360D01*
X21499439Y-16540360D02*
X21489915Y-16549884D01*
X21489915Y-16549884D02*
X21480391Y-16540360D01*
X21480391Y-16540360D02*
X21489915Y-16530836D01*
X21489915Y-16530836D02*
X21489915Y-16549884D01*
X21623248Y-16349884D02*
X21642296Y-16349884D01*
X21642296Y-16349884D02*
X21661344Y-16359408D01*
X21661344Y-16359408D02*
X21670868Y-16368931D01*
X21670868Y-16368931D02*
X21680391Y-16387979D01*
X21680391Y-16387979D02*
X21689915Y-16426074D01*
X21689915Y-16426074D02*
X21689915Y-16473693D01*
X21689915Y-16473693D02*
X21680391Y-16511788D01*
X21680391Y-16511788D02*
X21670868Y-16530836D01*
X21670868Y-16530836D02*
X21661344Y-16540360D01*
X21661344Y-16540360D02*
X21642296Y-16549884D01*
X21642296Y-16549884D02*
X21623248Y-16549884D01*
X21623248Y-16549884D02*
X21604201Y-16540360D01*
X21604201Y-16540360D02*
X21594677Y-16530836D01*
X21594677Y-16530836D02*
X21585153Y-16511788D01*
X21585153Y-16511788D02*
X21575629Y-16473693D01*
X21575629Y-16473693D02*
X21575629Y-16426074D01*
X21575629Y-16426074D02*
X21585153Y-16387979D01*
X21585153Y-16387979D02*
X21594677Y-16368931D01*
X21594677Y-16368931D02*
X21604201Y-16359408D01*
X21604201Y-16359408D02*
X21623248Y-16349884D01*
X21766106Y-16368931D02*
X21775629Y-16359408D01*
X21775629Y-16359408D02*
X21794677Y-16349884D01*
X21794677Y-16349884D02*
X21842296Y-16349884D01*
X21842296Y-16349884D02*
X21861344Y-16359408D01*
X21861344Y-16359408D02*
X21870868Y-16368931D01*
X21870868Y-16368931D02*
X21880391Y-16387979D01*
X21880391Y-16387979D02*
X21880391Y-16407027D01*
X21880391Y-16407027D02*
X21870868Y-16435598D01*
X21870868Y-16435598D02*
X21756582Y-16549884D01*
X21756582Y-16549884D02*
X21880391Y-16549884D01*
X22061344Y-16349884D02*
X21966106Y-16349884D01*
X21966106Y-16349884D02*
X21956582Y-16445122D01*
X21956582Y-16445122D02*
X21966106Y-16435598D01*
X21966106Y-16435598D02*
X21985153Y-16426074D01*
X21985153Y-16426074D02*
X22032772Y-16426074D01*
X22032772Y-16426074D02*
X22051820Y-16435598D01*
X22051820Y-16435598D02*
X22061344Y-16445122D01*
X22061344Y-16445122D02*
X22070868Y-16464169D01*
X22070868Y-16464169D02*
X22070868Y-16511788D01*
X22070868Y-16511788D02*
X22061344Y-16530836D01*
X22061344Y-16530836D02*
X22051820Y-16540360D01*
X22051820Y-16540360D02*
X22032772Y-16549884D01*
X22032772Y-16549884D02*
X21985153Y-16549884D01*
X21985153Y-16549884D02*
X21966106Y-16540360D01*
X21966106Y-16540360D02*
X21956582Y-16530836D01*
X22242296Y-16349884D02*
X22204201Y-16349884D01*
X22204201Y-16349884D02*
X22185153Y-16359408D01*
X22185153Y-16359408D02*
X22175629Y-16368931D01*
X22175629Y-16368931D02*
X22156582Y-16397503D01*
X22156582Y-16397503D02*
X22147058Y-16435598D01*
X22147058Y-16435598D02*
X22147058Y-16511788D01*
X22147058Y-16511788D02*
X22156582Y-16530836D01*
X22156582Y-16530836D02*
X22166106Y-16540360D01*
X22166106Y-16540360D02*
X22185153Y-16549884D01*
X22185153Y-16549884D02*
X22223249Y-16549884D01*
X22223249Y-16549884D02*
X22242296Y-16540360D01*
X22242296Y-16540360D02*
X22251820Y-16530836D01*
X22251820Y-16530836D02*
X22261344Y-16511788D01*
X22261344Y-16511788D02*
X22261344Y-16464169D01*
X22261344Y-16464169D02*
X22251820Y-16445122D01*
X22251820Y-16445122D02*
X22242296Y-16435598D01*
X22242296Y-16435598D02*
X22223249Y-16426074D01*
X22223249Y-16426074D02*
X22185153Y-16426074D01*
X22185153Y-16426074D02*
X22166106Y-16435598D01*
X22166106Y-16435598D02*
X22156582Y-16445122D01*
X22156582Y-16445122D02*
X22147058Y-16464169D01*
X22337534Y-16349884D02*
X22337534Y-16387979D01*
X22413725Y-16349884D02*
X22413725Y-16387979D01*
X22708963Y-16626074D02*
X22699439Y-16616550D01*
X22699439Y-16616550D02*
X22680391Y-16587979D01*
X22680391Y-16587979D02*
X22670868Y-16568931D01*
X22670868Y-16568931D02*
X22661344Y-16540360D01*
X22661344Y-16540360D02*
X22651820Y-16492741D01*
X22651820Y-16492741D02*
X22651820Y-16454646D01*
X22651820Y-16454646D02*
X22661344Y-16407027D01*
X22661344Y-16407027D02*
X22670868Y-16378455D01*
X22670868Y-16378455D02*
X22680391Y-16359408D01*
X22680391Y-16359408D02*
X22699439Y-16330836D01*
X22699439Y-16330836D02*
X22708963Y-16321312D01*
X22766106Y-16349884D02*
X22889915Y-16349884D01*
X22889915Y-16349884D02*
X22823248Y-16426074D01*
X22823248Y-16426074D02*
X22851820Y-16426074D01*
X22851820Y-16426074D02*
X22870868Y-16435598D01*
X22870868Y-16435598D02*
X22880391Y-16445122D01*
X22880391Y-16445122D02*
X22889915Y-16464169D01*
X22889915Y-16464169D02*
X22889915Y-16511788D01*
X22889915Y-16511788D02*
X22880391Y-16530836D01*
X22880391Y-16530836D02*
X22870868Y-16540360D01*
X22870868Y-16540360D02*
X22851820Y-16549884D01*
X22851820Y-16549884D02*
X22794677Y-16549884D01*
X22794677Y-16549884D02*
X22775629Y-16540360D01*
X22775629Y-16540360D02*
X22766106Y-16530836D01*
X23013725Y-16349884D02*
X23032772Y-16349884D01*
X23032772Y-16349884D02*
X23051820Y-16359408D01*
X23051820Y-16359408D02*
X23061344Y-16368931D01*
X23061344Y-16368931D02*
X23070868Y-16387979D01*
X23070868Y-16387979D02*
X23080391Y-16426074D01*
X23080391Y-16426074D02*
X23080391Y-16473693D01*
X23080391Y-16473693D02*
X23070868Y-16511788D01*
X23070868Y-16511788D02*
X23061344Y-16530836D01*
X23061344Y-16530836D02*
X23051820Y-16540360D01*
X23051820Y-16540360D02*
X23032772Y-16549884D01*
X23032772Y-16549884D02*
X23013725Y-16549884D01*
X23013725Y-16549884D02*
X22994677Y-16540360D01*
X22994677Y-16540360D02*
X22985153Y-16530836D01*
X22985153Y-16530836D02*
X22975629Y-16511788D01*
X22975629Y-16511788D02*
X22966106Y-16473693D01*
X22966106Y-16473693D02*
X22966106Y-16426074D01*
X22966106Y-16426074D02*
X22975629Y-16387979D01*
X22975629Y-16387979D02*
X22985153Y-16368931D01*
X22985153Y-16368931D02*
X22994677Y-16359408D01*
X22994677Y-16359408D02*
X23013725Y-16349884D01*
X23318487Y-16549884D02*
X23318487Y-16349884D01*
X23404201Y-16549884D02*
X23404201Y-16445122D01*
X23404201Y-16445122D02*
X23394677Y-16426074D01*
X23394677Y-16426074D02*
X23375630Y-16416550D01*
X23375630Y-16416550D02*
X23347058Y-16416550D01*
X23347058Y-16416550D02*
X23328010Y-16426074D01*
X23328010Y-16426074D02*
X23318487Y-16435598D01*
X23528010Y-16549884D02*
X23508963Y-16540360D01*
X23508963Y-16540360D02*
X23499439Y-16530836D01*
X23499439Y-16530836D02*
X23489915Y-16511788D01*
X23489915Y-16511788D02*
X23489915Y-16454646D01*
X23489915Y-16454646D02*
X23499439Y-16435598D01*
X23499439Y-16435598D02*
X23508963Y-16426074D01*
X23508963Y-16426074D02*
X23528010Y-16416550D01*
X23528010Y-16416550D02*
X23556582Y-16416550D01*
X23556582Y-16416550D02*
X23575630Y-16426074D01*
X23575630Y-16426074D02*
X23585153Y-16435598D01*
X23585153Y-16435598D02*
X23594677Y-16454646D01*
X23594677Y-16454646D02*
X23594677Y-16511788D01*
X23594677Y-16511788D02*
X23585153Y-16530836D01*
X23585153Y-16530836D02*
X23575630Y-16540360D01*
X23575630Y-16540360D02*
X23556582Y-16549884D01*
X23556582Y-16549884D02*
X23528010Y-16549884D01*
X23708963Y-16549884D02*
X23689915Y-16540360D01*
X23689915Y-16540360D02*
X23680391Y-16521312D01*
X23680391Y-16521312D02*
X23680391Y-16349884D01*
X23861344Y-16540360D02*
X23842296Y-16549884D01*
X23842296Y-16549884D02*
X23804201Y-16549884D01*
X23804201Y-16549884D02*
X23785153Y-16540360D01*
X23785153Y-16540360D02*
X23775630Y-16521312D01*
X23775630Y-16521312D02*
X23775630Y-16445122D01*
X23775630Y-16445122D02*
X23785153Y-16426074D01*
X23785153Y-16426074D02*
X23804201Y-16416550D01*
X23804201Y-16416550D02*
X23842296Y-16416550D01*
X23842296Y-16416550D02*
X23861344Y-16426074D01*
X23861344Y-16426074D02*
X23870868Y-16445122D01*
X23870868Y-16445122D02*
X23870868Y-16464169D01*
X23870868Y-16464169D02*
X23775630Y-16483217D01*
X23947058Y-16540360D02*
X23966106Y-16549884D01*
X23966106Y-16549884D02*
X24004201Y-16549884D01*
X24004201Y-16549884D02*
X24023249Y-16540360D01*
X24023249Y-16540360D02*
X24032772Y-16521312D01*
X24032772Y-16521312D02*
X24032772Y-16511788D01*
X24032772Y-16511788D02*
X24023249Y-16492741D01*
X24023249Y-16492741D02*
X24004201Y-16483217D01*
X24004201Y-16483217D02*
X23975630Y-16483217D01*
X23975630Y-16483217D02*
X23956582Y-16473693D01*
X23956582Y-16473693D02*
X23947058Y-16454646D01*
X23947058Y-16454646D02*
X23947058Y-16445122D01*
X23947058Y-16445122D02*
X23956582Y-16426074D01*
X23956582Y-16426074D02*
X23975630Y-16416550D01*
X23975630Y-16416550D02*
X24004201Y-16416550D01*
X24004201Y-16416550D02*
X24023249Y-16426074D01*
X24099439Y-16626074D02*
X24108963Y-16616550D01*
X24108963Y-16616550D02*
X24128011Y-16587979D01*
X24128011Y-16587979D02*
X24137534Y-16568931D01*
X24137534Y-16568931D02*
X24147058Y-16540360D01*
X24147058Y-16540360D02*
X24156582Y-16492741D01*
X24156582Y-16492741D02*
X24156582Y-16454646D01*
X24156582Y-16454646D02*
X24147058Y-16407027D01*
X24147058Y-16407027D02*
X24137534Y-16378455D01*
X24137534Y-16378455D02*
X24128011Y-16359408D01*
X24128011Y-16359408D02*
X24108963Y-16330836D01*
X24108963Y-16330836D02*
X24099439Y-16321312D01*
D10*
X19058900Y-16684900D02*
X19133900Y-16759900D01*
X19133900Y-16684900D02*
X19058900Y-16759900D01*
X19133900Y-16722400D02*
G75*
G02*
X19058900Y-16722400I-37500J0D01*
G01*
X19058900Y-16722400D02*
G75*
G02*
X19133900Y-16722400I37500J0D01*
G01*
D11*
X19432772Y-16613884D02*
X19451820Y-16613884D01*
X19451820Y-16613884D02*
X19470867Y-16623408D01*
X19470867Y-16623408D02*
X19480391Y-16632931D01*
X19480391Y-16632931D02*
X19489915Y-16651979D01*
X19489915Y-16651979D02*
X19499439Y-16690074D01*
X19499439Y-16690074D02*
X19499439Y-16737693D01*
X19499439Y-16737693D02*
X19489915Y-16775788D01*
X19489915Y-16775788D02*
X19480391Y-16794836D01*
X19480391Y-16794836D02*
X19470867Y-16804360D01*
X19470867Y-16804360D02*
X19451820Y-16813884D01*
X19451820Y-16813884D02*
X19432772Y-16813884D01*
X19432772Y-16813884D02*
X19413724Y-16804360D01*
X19413724Y-16804360D02*
X19404201Y-16794836D01*
X19404201Y-16794836D02*
X19394677Y-16775788D01*
X19394677Y-16775788D02*
X19385153Y-16737693D01*
X19385153Y-16737693D02*
X19385153Y-16690074D01*
X19385153Y-16690074D02*
X19394677Y-16651979D01*
X19394677Y-16651979D02*
X19404201Y-16632931D01*
X19404201Y-16632931D02*
X19413724Y-16623408D01*
X19413724Y-16623408D02*
X19432772Y-16613884D01*
X19585153Y-16794836D02*
X19594677Y-16804360D01*
X19594677Y-16804360D02*
X19585153Y-16813884D01*
X19585153Y-16813884D02*
X19575629Y-16804360D01*
X19575629Y-16804360D02*
X19585153Y-16794836D01*
X19585153Y-16794836D02*
X19585153Y-16813884D01*
X19661344Y-16613884D02*
X19794677Y-16613884D01*
X19794677Y-16613884D02*
X19708963Y-16813884D01*
X19966105Y-16613884D02*
X19870867Y-16613884D01*
X19870867Y-16613884D02*
X19861344Y-16709122D01*
X19861344Y-16709122D02*
X19870867Y-16699598D01*
X19870867Y-16699598D02*
X19889915Y-16690074D01*
X19889915Y-16690074D02*
X19937534Y-16690074D01*
X19937534Y-16690074D02*
X19956582Y-16699598D01*
X19956582Y-16699598D02*
X19966105Y-16709122D01*
X19966105Y-16709122D02*
X19975629Y-16728169D01*
X19975629Y-16728169D02*
X19975629Y-16775788D01*
X19975629Y-16775788D02*
X19966105Y-16794836D01*
X19966105Y-16794836D02*
X19956582Y-16804360D01*
X19956582Y-16804360D02*
X19937534Y-16813884D01*
X19937534Y-16813884D02*
X19889915Y-16813884D01*
X19889915Y-16813884D02*
X19870867Y-16804360D01*
X19870867Y-16804360D02*
X19861344Y-16794836D01*
X20099439Y-16613884D02*
X20118486Y-16613884D01*
X20118486Y-16613884D02*
X20137534Y-16623408D01*
X20137534Y-16623408D02*
X20147058Y-16632931D01*
X20147058Y-16632931D02*
X20156582Y-16651979D01*
X20156582Y-16651979D02*
X20166105Y-16690074D01*
X20166105Y-16690074D02*
X20166105Y-16737693D01*
X20166105Y-16737693D02*
X20156582Y-16775788D01*
X20156582Y-16775788D02*
X20147058Y-16794836D01*
X20147058Y-16794836D02*
X20137534Y-16804360D01*
X20137534Y-16804360D02*
X20118486Y-16813884D01*
X20118486Y-16813884D02*
X20099439Y-16813884D01*
X20099439Y-16813884D02*
X20080391Y-16804360D01*
X20080391Y-16804360D02*
X20070867Y-16794836D01*
X20070867Y-16794836D02*
X20061344Y-16775788D01*
X20061344Y-16775788D02*
X20051820Y-16737693D01*
X20051820Y-16737693D02*
X20051820Y-16690074D01*
X20051820Y-16690074D02*
X20061344Y-16651979D01*
X20061344Y-16651979D02*
X20070867Y-16632931D01*
X20070867Y-16632931D02*
X20080391Y-16623408D01*
X20080391Y-16623408D02*
X20099439Y-16613884D01*
X20251820Y-16813884D02*
X20251820Y-16680550D01*
X20251820Y-16699598D02*
X20261344Y-16690074D01*
X20261344Y-16690074D02*
X20280391Y-16680550D01*
X20280391Y-16680550D02*
X20308963Y-16680550D01*
X20308963Y-16680550D02*
X20328010Y-16690074D01*
X20328010Y-16690074D02*
X20337534Y-16709122D01*
X20337534Y-16709122D02*
X20337534Y-16813884D01*
X20337534Y-16709122D02*
X20347058Y-16690074D01*
X20347058Y-16690074D02*
X20366105Y-16680550D01*
X20366105Y-16680550D02*
X20394677Y-16680550D01*
X20394677Y-16680550D02*
X20413725Y-16690074D01*
X20413725Y-16690074D02*
X20423248Y-16709122D01*
X20423248Y-16709122D02*
X20423248Y-16813884D01*
X20518486Y-16813884D02*
X20518486Y-16680550D01*
X20518486Y-16699598D02*
X20528010Y-16690074D01*
X20528010Y-16690074D02*
X20547058Y-16680550D01*
X20547058Y-16680550D02*
X20575629Y-16680550D01*
X20575629Y-16680550D02*
X20594677Y-16690074D01*
X20594677Y-16690074D02*
X20604201Y-16709122D01*
X20604201Y-16709122D02*
X20604201Y-16813884D01*
X20604201Y-16709122D02*
X20613725Y-16690074D01*
X20613725Y-16690074D02*
X20632772Y-16680550D01*
X20632772Y-16680550D02*
X20661344Y-16680550D01*
X20661344Y-16680550D02*
X20680391Y-16690074D01*
X20680391Y-16690074D02*
X20689915Y-16709122D01*
X20689915Y-16709122D02*
X20689915Y-16813884D01*
X21080391Y-16604360D02*
X20908963Y-16861503D01*
X21337534Y-16613884D02*
X21356582Y-16613884D01*
X21356582Y-16613884D02*
X21375629Y-16623408D01*
X21375629Y-16623408D02*
X21385153Y-16632931D01*
X21385153Y-16632931D02*
X21394677Y-16651979D01*
X21394677Y-16651979D02*
X21404201Y-16690074D01*
X21404201Y-16690074D02*
X21404201Y-16737693D01*
X21404201Y-16737693D02*
X21394677Y-16775788D01*
X21394677Y-16775788D02*
X21385153Y-16794836D01*
X21385153Y-16794836D02*
X21375629Y-16804360D01*
X21375629Y-16804360D02*
X21356582Y-16813884D01*
X21356582Y-16813884D02*
X21337534Y-16813884D01*
X21337534Y-16813884D02*
X21318487Y-16804360D01*
X21318487Y-16804360D02*
X21308963Y-16794836D01*
X21308963Y-16794836D02*
X21299439Y-16775788D01*
X21299439Y-16775788D02*
X21289915Y-16737693D01*
X21289915Y-16737693D02*
X21289915Y-16690074D01*
X21289915Y-16690074D02*
X21299439Y-16651979D01*
X21299439Y-16651979D02*
X21308963Y-16632931D01*
X21308963Y-16632931D02*
X21318487Y-16623408D01*
X21318487Y-16623408D02*
X21337534Y-16613884D01*
X21489915Y-16794836D02*
X21499439Y-16804360D01*
X21499439Y-16804360D02*
X21489915Y-16813884D01*
X21489915Y-16813884D02*
X21480391Y-16804360D01*
X21480391Y-16804360D02*
X21489915Y-16794836D01*
X21489915Y-16794836D02*
X21489915Y-16813884D01*
X21623248Y-16613884D02*
X21642296Y-16613884D01*
X21642296Y-16613884D02*
X21661344Y-16623408D01*
X21661344Y-16623408D02*
X21670868Y-16632931D01*
X21670868Y-16632931D02*
X21680391Y-16651979D01*
X21680391Y-16651979D02*
X21689915Y-16690074D01*
X21689915Y-16690074D02*
X21689915Y-16737693D01*
X21689915Y-16737693D02*
X21680391Y-16775788D01*
X21680391Y-16775788D02*
X21670868Y-16794836D01*
X21670868Y-16794836D02*
X21661344Y-16804360D01*
X21661344Y-16804360D02*
X21642296Y-16813884D01*
X21642296Y-16813884D02*
X21623248Y-16813884D01*
X21623248Y-16813884D02*
X21604201Y-16804360D01*
X21604201Y-16804360D02*
X21594677Y-16794836D01*
X21594677Y-16794836D02*
X21585153Y-16775788D01*
X21585153Y-16775788D02*
X21575629Y-16737693D01*
X21575629Y-16737693D02*
X21575629Y-16690074D01*
X21575629Y-16690074D02*
X21585153Y-16651979D01*
X21585153Y-16651979D02*
X21594677Y-16632931D01*
X21594677Y-16632931D02*
X21604201Y-16623408D01*
X21604201Y-16623408D02*
X21623248Y-16613884D01*
X21766106Y-16632931D02*
X21775629Y-16623408D01*
X21775629Y-16623408D02*
X21794677Y-16613884D01*
X21794677Y-16613884D02*
X21842296Y-16613884D01*
X21842296Y-16613884D02*
X21861344Y-16623408D01*
X21861344Y-16623408D02*
X21870868Y-16632931D01*
X21870868Y-16632931D02*
X21880391Y-16651979D01*
X21880391Y-16651979D02*
X21880391Y-16671027D01*
X21880391Y-16671027D02*
X21870868Y-16699598D01*
X21870868Y-16699598D02*
X21756582Y-16813884D01*
X21756582Y-16813884D02*
X21880391Y-16813884D01*
X21975629Y-16813884D02*
X22013725Y-16813884D01*
X22013725Y-16813884D02*
X22032772Y-16804360D01*
X22032772Y-16804360D02*
X22042296Y-16794836D01*
X22042296Y-16794836D02*
X22061344Y-16766265D01*
X22061344Y-16766265D02*
X22070868Y-16728169D01*
X22070868Y-16728169D02*
X22070868Y-16651979D01*
X22070868Y-16651979D02*
X22061344Y-16632931D01*
X22061344Y-16632931D02*
X22051820Y-16623408D01*
X22051820Y-16623408D02*
X22032772Y-16613884D01*
X22032772Y-16613884D02*
X21994677Y-16613884D01*
X21994677Y-16613884D02*
X21975629Y-16623408D01*
X21975629Y-16623408D02*
X21966106Y-16632931D01*
X21966106Y-16632931D02*
X21956582Y-16651979D01*
X21956582Y-16651979D02*
X21956582Y-16699598D01*
X21956582Y-16699598D02*
X21966106Y-16718646D01*
X21966106Y-16718646D02*
X21975629Y-16728169D01*
X21975629Y-16728169D02*
X21994677Y-16737693D01*
X21994677Y-16737693D02*
X22032772Y-16737693D01*
X22032772Y-16737693D02*
X22051820Y-16728169D01*
X22051820Y-16728169D02*
X22061344Y-16718646D01*
X22061344Y-16718646D02*
X22070868Y-16699598D01*
X22251820Y-16613884D02*
X22156582Y-16613884D01*
X22156582Y-16613884D02*
X22147058Y-16709122D01*
X22147058Y-16709122D02*
X22156582Y-16699598D01*
X22156582Y-16699598D02*
X22175629Y-16690074D01*
X22175629Y-16690074D02*
X22223249Y-16690074D01*
X22223249Y-16690074D02*
X22242296Y-16699598D01*
X22242296Y-16699598D02*
X22251820Y-16709122D01*
X22251820Y-16709122D02*
X22261344Y-16728169D01*
X22261344Y-16728169D02*
X22261344Y-16775788D01*
X22261344Y-16775788D02*
X22251820Y-16794836D01*
X22251820Y-16794836D02*
X22242296Y-16804360D01*
X22242296Y-16804360D02*
X22223249Y-16813884D01*
X22223249Y-16813884D02*
X22175629Y-16813884D01*
X22175629Y-16813884D02*
X22156582Y-16804360D01*
X22156582Y-16804360D02*
X22147058Y-16794836D01*
X22337534Y-16613884D02*
X22337534Y-16651979D01*
X22413725Y-16613884D02*
X22413725Y-16651979D01*
X22708963Y-16890074D02*
X22699439Y-16880550D01*
X22699439Y-16880550D02*
X22680391Y-16851979D01*
X22680391Y-16851979D02*
X22670868Y-16832931D01*
X22670868Y-16832931D02*
X22661344Y-16804360D01*
X22661344Y-16804360D02*
X22651820Y-16756741D01*
X22651820Y-16756741D02*
X22651820Y-16718646D01*
X22651820Y-16718646D02*
X22661344Y-16671027D01*
X22661344Y-16671027D02*
X22670868Y-16642455D01*
X22670868Y-16642455D02*
X22680391Y-16623408D01*
X22680391Y-16623408D02*
X22699439Y-16594836D01*
X22699439Y-16594836D02*
X22708963Y-16585312D01*
X22766106Y-16613884D02*
X22889915Y-16613884D01*
X22889915Y-16613884D02*
X22823248Y-16690074D01*
X22823248Y-16690074D02*
X22851820Y-16690074D01*
X22851820Y-16690074D02*
X22870868Y-16699598D01*
X22870868Y-16699598D02*
X22880391Y-16709122D01*
X22880391Y-16709122D02*
X22889915Y-16728169D01*
X22889915Y-16728169D02*
X22889915Y-16775788D01*
X22889915Y-16775788D02*
X22880391Y-16794836D01*
X22880391Y-16794836D02*
X22870868Y-16804360D01*
X22870868Y-16804360D02*
X22851820Y-16813884D01*
X22851820Y-16813884D02*
X22794677Y-16813884D01*
X22794677Y-16813884D02*
X22775629Y-16804360D01*
X22775629Y-16804360D02*
X22766106Y-16794836D01*
X23128010Y-16813884D02*
X23128010Y-16613884D01*
X23213725Y-16813884D02*
X23213725Y-16709122D01*
X23213725Y-16709122D02*
X23204201Y-16690074D01*
X23204201Y-16690074D02*
X23185153Y-16680550D01*
X23185153Y-16680550D02*
X23156582Y-16680550D01*
X23156582Y-16680550D02*
X23137534Y-16690074D01*
X23137534Y-16690074D02*
X23128010Y-16699598D01*
X23337534Y-16813884D02*
X23318487Y-16804360D01*
X23318487Y-16804360D02*
X23308963Y-16794836D01*
X23308963Y-16794836D02*
X23299439Y-16775788D01*
X23299439Y-16775788D02*
X23299439Y-16718646D01*
X23299439Y-16718646D02*
X23308963Y-16699598D01*
X23308963Y-16699598D02*
X23318487Y-16690074D01*
X23318487Y-16690074D02*
X23337534Y-16680550D01*
X23337534Y-16680550D02*
X23366106Y-16680550D01*
X23366106Y-16680550D02*
X23385153Y-16690074D01*
X23385153Y-16690074D02*
X23394677Y-16699598D01*
X23394677Y-16699598D02*
X23404201Y-16718646D01*
X23404201Y-16718646D02*
X23404201Y-16775788D01*
X23404201Y-16775788D02*
X23394677Y-16794836D01*
X23394677Y-16794836D02*
X23385153Y-16804360D01*
X23385153Y-16804360D02*
X23366106Y-16813884D01*
X23366106Y-16813884D02*
X23337534Y-16813884D01*
X23518487Y-16813884D02*
X23499439Y-16804360D01*
X23499439Y-16804360D02*
X23489915Y-16785312D01*
X23489915Y-16785312D02*
X23489915Y-16613884D01*
X23670868Y-16804360D02*
X23651820Y-16813884D01*
X23651820Y-16813884D02*
X23613725Y-16813884D01*
X23613725Y-16813884D02*
X23594677Y-16804360D01*
X23594677Y-16804360D02*
X23585153Y-16785312D01*
X23585153Y-16785312D02*
X23585153Y-16709122D01*
X23585153Y-16709122D02*
X23594677Y-16690074D01*
X23594677Y-16690074D02*
X23613725Y-16680550D01*
X23613725Y-16680550D02*
X23651820Y-16680550D01*
X23651820Y-16680550D02*
X23670868Y-16690074D01*
X23670868Y-16690074D02*
X23680391Y-16709122D01*
X23680391Y-16709122D02*
X23680391Y-16728169D01*
X23680391Y-16728169D02*
X23585153Y-16747217D01*
X23756582Y-16804360D02*
X23775630Y-16813884D01*
X23775630Y-16813884D02*
X23813725Y-16813884D01*
X23813725Y-16813884D02*
X23832772Y-16804360D01*
X23832772Y-16804360D02*
X23842296Y-16785312D01*
X23842296Y-16785312D02*
X23842296Y-16775788D01*
X23842296Y-16775788D02*
X23832772Y-16756741D01*
X23832772Y-16756741D02*
X23813725Y-16747217D01*
X23813725Y-16747217D02*
X23785153Y-16747217D01*
X23785153Y-16747217D02*
X23766106Y-16737693D01*
X23766106Y-16737693D02*
X23756582Y-16718646D01*
X23756582Y-16718646D02*
X23756582Y-16709122D01*
X23756582Y-16709122D02*
X23766106Y-16690074D01*
X23766106Y-16690074D02*
X23785153Y-16680550D01*
X23785153Y-16680550D02*
X23813725Y-16680550D01*
X23813725Y-16680550D02*
X23832772Y-16690074D01*
X23908963Y-16890074D02*
X23918487Y-16880550D01*
X23918487Y-16880550D02*
X23937534Y-16851979D01*
X23937534Y-16851979D02*
X23947058Y-16832931D01*
X23947058Y-16832931D02*
X23956582Y-16804360D01*
X23956582Y-16804360D02*
X23966106Y-16756741D01*
X23966106Y-16756741D02*
X23966106Y-16718646D01*
X23966106Y-16718646D02*
X23956582Y-16671027D01*
X23956582Y-16671027D02*
X23947058Y-16642455D01*
X23947058Y-16642455D02*
X23937534Y-16623408D01*
X23937534Y-16623408D02*
X23918487Y-16594836D01*
X23918487Y-16594836D02*
X23908963Y-16585312D01*
D10*
X19073900Y-16956400D02*
X19133900Y-17016400D01*
X19133900Y-16956400D02*
X19073900Y-17016400D01*
X19103900Y-16956400D02*
X19103900Y-17016400D01*
X19073900Y-16986400D02*
X19133900Y-16986400D01*
D11*
X19432772Y-16877884D02*
X19451820Y-16877884D01*
X19451820Y-16877884D02*
X19470867Y-16887408D01*
X19470867Y-16887408D02*
X19480391Y-16896931D01*
X19480391Y-16896931D02*
X19489915Y-16915979D01*
X19489915Y-16915979D02*
X19499439Y-16954074D01*
X19499439Y-16954074D02*
X19499439Y-17001693D01*
X19499439Y-17001693D02*
X19489915Y-17039789D01*
X19489915Y-17039789D02*
X19480391Y-17058836D01*
X19480391Y-17058836D02*
X19470867Y-17068360D01*
X19470867Y-17068360D02*
X19451820Y-17077884D01*
X19451820Y-17077884D02*
X19432772Y-17077884D01*
X19432772Y-17077884D02*
X19413724Y-17068360D01*
X19413724Y-17068360D02*
X19404201Y-17058836D01*
X19404201Y-17058836D02*
X19394677Y-17039789D01*
X19394677Y-17039789D02*
X19385153Y-17001693D01*
X19385153Y-17001693D02*
X19385153Y-16954074D01*
X19385153Y-16954074D02*
X19394677Y-16915979D01*
X19394677Y-16915979D02*
X19404201Y-16896931D01*
X19404201Y-16896931D02*
X19413724Y-16887408D01*
X19413724Y-16887408D02*
X19432772Y-16877884D01*
X19585153Y-17058836D02*
X19594677Y-17068360D01*
X19594677Y-17068360D02*
X19585153Y-17077884D01*
X19585153Y-17077884D02*
X19575629Y-17068360D01*
X19575629Y-17068360D02*
X19585153Y-17058836D01*
X19585153Y-17058836D02*
X19585153Y-17077884D01*
X19766105Y-16877884D02*
X19728010Y-16877884D01*
X19728010Y-16877884D02*
X19708963Y-16887408D01*
X19708963Y-16887408D02*
X19699439Y-16896931D01*
X19699439Y-16896931D02*
X19680391Y-16925503D01*
X19680391Y-16925503D02*
X19670867Y-16963598D01*
X19670867Y-16963598D02*
X19670867Y-17039789D01*
X19670867Y-17039789D02*
X19680391Y-17058836D01*
X19680391Y-17058836D02*
X19689915Y-17068360D01*
X19689915Y-17068360D02*
X19708963Y-17077884D01*
X19708963Y-17077884D02*
X19747058Y-17077884D01*
X19747058Y-17077884D02*
X19766105Y-17068360D01*
X19766105Y-17068360D02*
X19775629Y-17058836D01*
X19775629Y-17058836D02*
X19785153Y-17039789D01*
X19785153Y-17039789D02*
X19785153Y-16992170D01*
X19785153Y-16992170D02*
X19775629Y-16973122D01*
X19775629Y-16973122D02*
X19766105Y-16963598D01*
X19766105Y-16963598D02*
X19747058Y-16954074D01*
X19747058Y-16954074D02*
X19708963Y-16954074D01*
X19708963Y-16954074D02*
X19689915Y-16963598D01*
X19689915Y-16963598D02*
X19680391Y-16973122D01*
X19680391Y-16973122D02*
X19670867Y-16992170D01*
X19908963Y-16877884D02*
X19928010Y-16877884D01*
X19928010Y-16877884D02*
X19947058Y-16887408D01*
X19947058Y-16887408D02*
X19956582Y-16896931D01*
X19956582Y-16896931D02*
X19966105Y-16915979D01*
X19966105Y-16915979D02*
X19975629Y-16954074D01*
X19975629Y-16954074D02*
X19975629Y-17001693D01*
X19975629Y-17001693D02*
X19966105Y-17039789D01*
X19966105Y-17039789D02*
X19956582Y-17058836D01*
X19956582Y-17058836D02*
X19947058Y-17068360D01*
X19947058Y-17068360D02*
X19928010Y-17077884D01*
X19928010Y-17077884D02*
X19908963Y-17077884D01*
X19908963Y-17077884D02*
X19889915Y-17068360D01*
X19889915Y-17068360D02*
X19880391Y-17058836D01*
X19880391Y-17058836D02*
X19870867Y-17039789D01*
X19870867Y-17039789D02*
X19861344Y-17001693D01*
X19861344Y-17001693D02*
X19861344Y-16954074D01*
X19861344Y-16954074D02*
X19870867Y-16915979D01*
X19870867Y-16915979D02*
X19880391Y-16896931D01*
X19880391Y-16896931D02*
X19889915Y-16887408D01*
X19889915Y-16887408D02*
X19908963Y-16877884D01*
X20099439Y-16877884D02*
X20118486Y-16877884D01*
X20118486Y-16877884D02*
X20137534Y-16887408D01*
X20137534Y-16887408D02*
X20147058Y-16896931D01*
X20147058Y-16896931D02*
X20156582Y-16915979D01*
X20156582Y-16915979D02*
X20166105Y-16954074D01*
X20166105Y-16954074D02*
X20166105Y-17001693D01*
X20166105Y-17001693D02*
X20156582Y-17039789D01*
X20156582Y-17039789D02*
X20147058Y-17058836D01*
X20147058Y-17058836D02*
X20137534Y-17068360D01*
X20137534Y-17068360D02*
X20118486Y-17077884D01*
X20118486Y-17077884D02*
X20099439Y-17077884D01*
X20099439Y-17077884D02*
X20080391Y-17068360D01*
X20080391Y-17068360D02*
X20070867Y-17058836D01*
X20070867Y-17058836D02*
X20061344Y-17039789D01*
X20061344Y-17039789D02*
X20051820Y-17001693D01*
X20051820Y-17001693D02*
X20051820Y-16954074D01*
X20051820Y-16954074D02*
X20061344Y-16915979D01*
X20061344Y-16915979D02*
X20070867Y-16896931D01*
X20070867Y-16896931D02*
X20080391Y-16887408D01*
X20080391Y-16887408D02*
X20099439Y-16877884D01*
X20251820Y-17077884D02*
X20251820Y-16944550D01*
X20251820Y-16963598D02*
X20261344Y-16954074D01*
X20261344Y-16954074D02*
X20280391Y-16944550D01*
X20280391Y-16944550D02*
X20308963Y-16944550D01*
X20308963Y-16944550D02*
X20328010Y-16954074D01*
X20328010Y-16954074D02*
X20337534Y-16973122D01*
X20337534Y-16973122D02*
X20337534Y-17077884D01*
X20337534Y-16973122D02*
X20347058Y-16954074D01*
X20347058Y-16954074D02*
X20366105Y-16944550D01*
X20366105Y-16944550D02*
X20394677Y-16944550D01*
X20394677Y-16944550D02*
X20413725Y-16954074D01*
X20413725Y-16954074D02*
X20423248Y-16973122D01*
X20423248Y-16973122D02*
X20423248Y-17077884D01*
X20518486Y-17077884D02*
X20518486Y-16944550D01*
X20518486Y-16963598D02*
X20528010Y-16954074D01*
X20528010Y-16954074D02*
X20547058Y-16944550D01*
X20547058Y-16944550D02*
X20575629Y-16944550D01*
X20575629Y-16944550D02*
X20594677Y-16954074D01*
X20594677Y-16954074D02*
X20604201Y-16973122D01*
X20604201Y-16973122D02*
X20604201Y-17077884D01*
X20604201Y-16973122D02*
X20613725Y-16954074D01*
X20613725Y-16954074D02*
X20632772Y-16944550D01*
X20632772Y-16944550D02*
X20661344Y-16944550D01*
X20661344Y-16944550D02*
X20680391Y-16954074D01*
X20680391Y-16954074D02*
X20689915Y-16973122D01*
X20689915Y-16973122D02*
X20689915Y-17077884D01*
X21080391Y-16868360D02*
X20908963Y-17125503D01*
X21337534Y-16877884D02*
X21356582Y-16877884D01*
X21356582Y-16877884D02*
X21375629Y-16887408D01*
X21375629Y-16887408D02*
X21385153Y-16896931D01*
X21385153Y-16896931D02*
X21394677Y-16915979D01*
X21394677Y-16915979D02*
X21404201Y-16954074D01*
X21404201Y-16954074D02*
X21404201Y-17001693D01*
X21404201Y-17001693D02*
X21394677Y-17039789D01*
X21394677Y-17039789D02*
X21385153Y-17058836D01*
X21385153Y-17058836D02*
X21375629Y-17068360D01*
X21375629Y-17068360D02*
X21356582Y-17077884D01*
X21356582Y-17077884D02*
X21337534Y-17077884D01*
X21337534Y-17077884D02*
X21318487Y-17068360D01*
X21318487Y-17068360D02*
X21308963Y-17058836D01*
X21308963Y-17058836D02*
X21299439Y-17039789D01*
X21299439Y-17039789D02*
X21289915Y-17001693D01*
X21289915Y-17001693D02*
X21289915Y-16954074D01*
X21289915Y-16954074D02*
X21299439Y-16915979D01*
X21299439Y-16915979D02*
X21308963Y-16896931D01*
X21308963Y-16896931D02*
X21318487Y-16887408D01*
X21318487Y-16887408D02*
X21337534Y-16877884D01*
X21489915Y-17058836D02*
X21499439Y-17068360D01*
X21499439Y-17068360D02*
X21489915Y-17077884D01*
X21489915Y-17077884D02*
X21480391Y-17068360D01*
X21480391Y-17068360D02*
X21489915Y-17058836D01*
X21489915Y-17058836D02*
X21489915Y-17077884D01*
X21623248Y-16877884D02*
X21642296Y-16877884D01*
X21642296Y-16877884D02*
X21661344Y-16887408D01*
X21661344Y-16887408D02*
X21670868Y-16896931D01*
X21670868Y-16896931D02*
X21680391Y-16915979D01*
X21680391Y-16915979D02*
X21689915Y-16954074D01*
X21689915Y-16954074D02*
X21689915Y-17001693D01*
X21689915Y-17001693D02*
X21680391Y-17039789D01*
X21680391Y-17039789D02*
X21670868Y-17058836D01*
X21670868Y-17058836D02*
X21661344Y-17068360D01*
X21661344Y-17068360D02*
X21642296Y-17077884D01*
X21642296Y-17077884D02*
X21623248Y-17077884D01*
X21623248Y-17077884D02*
X21604201Y-17068360D01*
X21604201Y-17068360D02*
X21594677Y-17058836D01*
X21594677Y-17058836D02*
X21585153Y-17039789D01*
X21585153Y-17039789D02*
X21575629Y-17001693D01*
X21575629Y-17001693D02*
X21575629Y-16954074D01*
X21575629Y-16954074D02*
X21585153Y-16915979D01*
X21585153Y-16915979D02*
X21594677Y-16896931D01*
X21594677Y-16896931D02*
X21604201Y-16887408D01*
X21604201Y-16887408D02*
X21623248Y-16877884D01*
X21766106Y-16896931D02*
X21775629Y-16887408D01*
X21775629Y-16887408D02*
X21794677Y-16877884D01*
X21794677Y-16877884D02*
X21842296Y-16877884D01*
X21842296Y-16877884D02*
X21861344Y-16887408D01*
X21861344Y-16887408D02*
X21870868Y-16896931D01*
X21870868Y-16896931D02*
X21880391Y-16915979D01*
X21880391Y-16915979D02*
X21880391Y-16935027D01*
X21880391Y-16935027D02*
X21870868Y-16963598D01*
X21870868Y-16963598D02*
X21756582Y-17077884D01*
X21756582Y-17077884D02*
X21880391Y-17077884D01*
X21947058Y-16877884D02*
X22070868Y-16877884D01*
X22070868Y-16877884D02*
X22004201Y-16954074D01*
X22004201Y-16954074D02*
X22032772Y-16954074D01*
X22032772Y-16954074D02*
X22051820Y-16963598D01*
X22051820Y-16963598D02*
X22061344Y-16973122D01*
X22061344Y-16973122D02*
X22070868Y-16992170D01*
X22070868Y-16992170D02*
X22070868Y-17039789D01*
X22070868Y-17039789D02*
X22061344Y-17058836D01*
X22061344Y-17058836D02*
X22051820Y-17068360D01*
X22051820Y-17068360D02*
X22032772Y-17077884D01*
X22032772Y-17077884D02*
X21975629Y-17077884D01*
X21975629Y-17077884D02*
X21956582Y-17068360D01*
X21956582Y-17068360D02*
X21947058Y-17058836D01*
X22242296Y-16877884D02*
X22204201Y-16877884D01*
X22204201Y-16877884D02*
X22185153Y-16887408D01*
X22185153Y-16887408D02*
X22175629Y-16896931D01*
X22175629Y-16896931D02*
X22156582Y-16925503D01*
X22156582Y-16925503D02*
X22147058Y-16963598D01*
X22147058Y-16963598D02*
X22147058Y-17039789D01*
X22147058Y-17039789D02*
X22156582Y-17058836D01*
X22156582Y-17058836D02*
X22166106Y-17068360D01*
X22166106Y-17068360D02*
X22185153Y-17077884D01*
X22185153Y-17077884D02*
X22223249Y-17077884D01*
X22223249Y-17077884D02*
X22242296Y-17068360D01*
X22242296Y-17068360D02*
X22251820Y-17058836D01*
X22251820Y-17058836D02*
X22261344Y-17039789D01*
X22261344Y-17039789D02*
X22261344Y-16992170D01*
X22261344Y-16992170D02*
X22251820Y-16973122D01*
X22251820Y-16973122D02*
X22242296Y-16963598D01*
X22242296Y-16963598D02*
X22223249Y-16954074D01*
X22223249Y-16954074D02*
X22185153Y-16954074D01*
X22185153Y-16954074D02*
X22166106Y-16963598D01*
X22166106Y-16963598D02*
X22156582Y-16973122D01*
X22156582Y-16973122D02*
X22147058Y-16992170D01*
X22337534Y-16877884D02*
X22337534Y-16915979D01*
X22413725Y-16877884D02*
X22413725Y-16915979D01*
X22708963Y-17154074D02*
X22699439Y-17144550D01*
X22699439Y-17144550D02*
X22680391Y-17115979D01*
X22680391Y-17115979D02*
X22670868Y-17096931D01*
X22670868Y-17096931D02*
X22661344Y-17068360D01*
X22661344Y-17068360D02*
X22651820Y-17020741D01*
X22651820Y-17020741D02*
X22651820Y-16982646D01*
X22651820Y-16982646D02*
X22661344Y-16935027D01*
X22661344Y-16935027D02*
X22670868Y-16906455D01*
X22670868Y-16906455D02*
X22680391Y-16887408D01*
X22680391Y-16887408D02*
X22699439Y-16858836D01*
X22699439Y-16858836D02*
X22708963Y-16849312D01*
X22889915Y-17077884D02*
X22775629Y-17077884D01*
X22832772Y-17077884D02*
X22832772Y-16877884D01*
X22832772Y-16877884D02*
X22813725Y-16906455D01*
X22813725Y-16906455D02*
X22794677Y-16925503D01*
X22794677Y-16925503D02*
X22775629Y-16935027D01*
X23128010Y-17077884D02*
X23128010Y-16877884D01*
X23213725Y-17077884D02*
X23213725Y-16973122D01*
X23213725Y-16973122D02*
X23204201Y-16954074D01*
X23204201Y-16954074D02*
X23185153Y-16944550D01*
X23185153Y-16944550D02*
X23156582Y-16944550D01*
X23156582Y-16944550D02*
X23137534Y-16954074D01*
X23137534Y-16954074D02*
X23128010Y-16963598D01*
X23337534Y-17077884D02*
X23318487Y-17068360D01*
X23318487Y-17068360D02*
X23308963Y-17058836D01*
X23308963Y-17058836D02*
X23299439Y-17039789D01*
X23299439Y-17039789D02*
X23299439Y-16982646D01*
X23299439Y-16982646D02*
X23308963Y-16963598D01*
X23308963Y-16963598D02*
X23318487Y-16954074D01*
X23318487Y-16954074D02*
X23337534Y-16944550D01*
X23337534Y-16944550D02*
X23366106Y-16944550D01*
X23366106Y-16944550D02*
X23385153Y-16954074D01*
X23385153Y-16954074D02*
X23394677Y-16963598D01*
X23394677Y-16963598D02*
X23404201Y-16982646D01*
X23404201Y-16982646D02*
X23404201Y-17039789D01*
X23404201Y-17039789D02*
X23394677Y-17058836D01*
X23394677Y-17058836D02*
X23385153Y-17068360D01*
X23385153Y-17068360D02*
X23366106Y-17077884D01*
X23366106Y-17077884D02*
X23337534Y-17077884D01*
X23518487Y-17077884D02*
X23499439Y-17068360D01*
X23499439Y-17068360D02*
X23489915Y-17049312D01*
X23489915Y-17049312D02*
X23489915Y-16877884D01*
X23670868Y-17068360D02*
X23651820Y-17077884D01*
X23651820Y-17077884D02*
X23613725Y-17077884D01*
X23613725Y-17077884D02*
X23594677Y-17068360D01*
X23594677Y-17068360D02*
X23585153Y-17049312D01*
X23585153Y-17049312D02*
X23585153Y-16973122D01*
X23585153Y-16973122D02*
X23594677Y-16954074D01*
X23594677Y-16954074D02*
X23613725Y-16944550D01*
X23613725Y-16944550D02*
X23651820Y-16944550D01*
X23651820Y-16944550D02*
X23670868Y-16954074D01*
X23670868Y-16954074D02*
X23680391Y-16973122D01*
X23680391Y-16973122D02*
X23680391Y-16992170D01*
X23680391Y-16992170D02*
X23585153Y-17011217D01*
X23756582Y-17068360D02*
X23775630Y-17077884D01*
X23775630Y-17077884D02*
X23813725Y-17077884D01*
X23813725Y-17077884D02*
X23832772Y-17068360D01*
X23832772Y-17068360D02*
X23842296Y-17049312D01*
X23842296Y-17049312D02*
X23842296Y-17039789D01*
X23842296Y-17039789D02*
X23832772Y-17020741D01*
X23832772Y-17020741D02*
X23813725Y-17011217D01*
X23813725Y-17011217D02*
X23785153Y-17011217D01*
X23785153Y-17011217D02*
X23766106Y-17001693D01*
X23766106Y-17001693D02*
X23756582Y-16982646D01*
X23756582Y-16982646D02*
X23756582Y-16973122D01*
X23756582Y-16973122D02*
X23766106Y-16954074D01*
X23766106Y-16954074D02*
X23785153Y-16944550D01*
X23785153Y-16944550D02*
X23813725Y-16944550D01*
X23813725Y-16944550D02*
X23832772Y-16954074D01*
X24080392Y-17001693D02*
X24232773Y-17001693D01*
X24156582Y-17077884D02*
X24156582Y-16925503D01*
X24585153Y-17077884D02*
X24470868Y-17077884D01*
X24528011Y-17077884D02*
X24528011Y-16877884D01*
X24528011Y-16877884D02*
X24508963Y-16906455D01*
X24508963Y-16906455D02*
X24489915Y-16925503D01*
X24489915Y-16925503D02*
X24470868Y-16935027D01*
X24813725Y-17068360D02*
X24832773Y-17077884D01*
X24832773Y-17077884D02*
X24870868Y-17077884D01*
X24870868Y-17077884D02*
X24889915Y-17068360D01*
X24889915Y-17068360D02*
X24899439Y-17049312D01*
X24899439Y-17049312D02*
X24899439Y-17039789D01*
X24899439Y-17039789D02*
X24889915Y-17020741D01*
X24889915Y-17020741D02*
X24870868Y-17011217D01*
X24870868Y-17011217D02*
X24842296Y-17011217D01*
X24842296Y-17011217D02*
X24823249Y-17001693D01*
X24823249Y-17001693D02*
X24813725Y-16982646D01*
X24813725Y-16982646D02*
X24813725Y-16973122D01*
X24813725Y-16973122D02*
X24823249Y-16954074D01*
X24823249Y-16954074D02*
X24842296Y-16944550D01*
X24842296Y-16944550D02*
X24870868Y-16944550D01*
X24870868Y-16944550D02*
X24889915Y-16954074D01*
X25013725Y-17077884D02*
X24994677Y-17068360D01*
X24994677Y-17068360D02*
X24985154Y-17049312D01*
X24985154Y-17049312D02*
X24985154Y-16877884D01*
X25118487Y-17077884D02*
X25099439Y-17068360D01*
X25099439Y-17068360D02*
X25089915Y-17058836D01*
X25089915Y-17058836D02*
X25080392Y-17039789D01*
X25080392Y-17039789D02*
X25080392Y-16982646D01*
X25080392Y-16982646D02*
X25089915Y-16963598D01*
X25089915Y-16963598D02*
X25099439Y-16954074D01*
X25099439Y-16954074D02*
X25118487Y-16944550D01*
X25118487Y-16944550D02*
X25147058Y-16944550D01*
X25147058Y-16944550D02*
X25166106Y-16954074D01*
X25166106Y-16954074D02*
X25175630Y-16963598D01*
X25175630Y-16963598D02*
X25185154Y-16982646D01*
X25185154Y-16982646D02*
X25185154Y-17039789D01*
X25185154Y-17039789D02*
X25175630Y-17058836D01*
X25175630Y-17058836D02*
X25166106Y-17068360D01*
X25166106Y-17068360D02*
X25147058Y-17077884D01*
X25147058Y-17077884D02*
X25118487Y-17077884D01*
X25242296Y-16944550D02*
X25318487Y-16944550D01*
X25270868Y-16877884D02*
X25270868Y-17049312D01*
X25270868Y-17049312D02*
X25280392Y-17068360D01*
X25280392Y-17068360D02*
X25299439Y-17077884D01*
X25299439Y-17077884D02*
X25318487Y-17077884D01*
X25366106Y-17154074D02*
X25375630Y-17144550D01*
X25375630Y-17144550D02*
X25394677Y-17115979D01*
X25394677Y-17115979D02*
X25404201Y-17096931D01*
X25404201Y-17096931D02*
X25413725Y-17068360D01*
X25413725Y-17068360D02*
X25423249Y-17020741D01*
X25423249Y-17020741D02*
X25423249Y-16982646D01*
X25423249Y-16982646D02*
X25413725Y-16935027D01*
X25413725Y-16935027D02*
X25404201Y-16906455D01*
X25404201Y-16906455D02*
X25394677Y-16887408D01*
X25394677Y-16887408D02*
X25375630Y-16858836D01*
X25375630Y-16858836D02*
X25366106Y-16849312D01*
X25728011Y-17154074D02*
X25718487Y-17144550D01*
X25718487Y-17144550D02*
X25699439Y-17115979D01*
X25699439Y-17115979D02*
X25689915Y-17096931D01*
X25689915Y-17096931D02*
X25680392Y-17068360D01*
X25680392Y-17068360D02*
X25670868Y-17020741D01*
X25670868Y-17020741D02*
X25670868Y-16982646D01*
X25670868Y-16982646D02*
X25680392Y-16935027D01*
X25680392Y-16935027D02*
X25689915Y-16906455D01*
X25689915Y-16906455D02*
X25699439Y-16887408D01*
X25699439Y-16887408D02*
X25718487Y-16858836D01*
X25718487Y-16858836D02*
X25728011Y-16849312D01*
X25804201Y-16944550D02*
X25804201Y-17077884D01*
X25804201Y-16963598D02*
X25813725Y-16954074D01*
X25813725Y-16954074D02*
X25832773Y-16944550D01*
X25832773Y-16944550D02*
X25861344Y-16944550D01*
X25861344Y-16944550D02*
X25880392Y-16954074D01*
X25880392Y-16954074D02*
X25889915Y-16973122D01*
X25889915Y-16973122D02*
X25889915Y-17077884D01*
X26013725Y-17077884D02*
X25994677Y-17068360D01*
X25994677Y-17068360D02*
X25985154Y-17058836D01*
X25985154Y-17058836D02*
X25975630Y-17039789D01*
X25975630Y-17039789D02*
X25975630Y-16982646D01*
X25975630Y-16982646D02*
X25985154Y-16963598D01*
X25985154Y-16963598D02*
X25994677Y-16954074D01*
X25994677Y-16954074D02*
X26013725Y-16944550D01*
X26013725Y-16944550D02*
X26042296Y-16944550D01*
X26042296Y-16944550D02*
X26061344Y-16954074D01*
X26061344Y-16954074D02*
X26070868Y-16963598D01*
X26070868Y-16963598D02*
X26080392Y-16982646D01*
X26080392Y-16982646D02*
X26080392Y-17039789D01*
X26080392Y-17039789D02*
X26070868Y-17058836D01*
X26070868Y-17058836D02*
X26061344Y-17068360D01*
X26061344Y-17068360D02*
X26042296Y-17077884D01*
X26042296Y-17077884D02*
X26013725Y-17077884D01*
X26137535Y-16944550D02*
X26213725Y-16944550D01*
X26166106Y-16877884D02*
X26166106Y-17049312D01*
X26166106Y-17049312D02*
X26175630Y-17068360D01*
X26175630Y-17068360D02*
X26194677Y-17077884D01*
X26194677Y-17077884D02*
X26213725Y-17077884D01*
X26432773Y-16944550D02*
X26432773Y-17144550D01*
X26432773Y-16954074D02*
X26451820Y-16944550D01*
X26451820Y-16944550D02*
X26489916Y-16944550D01*
X26489916Y-16944550D02*
X26508963Y-16954074D01*
X26508963Y-16954074D02*
X26518487Y-16963598D01*
X26518487Y-16963598D02*
X26528011Y-16982646D01*
X26528011Y-16982646D02*
X26528011Y-17039789D01*
X26528011Y-17039789D02*
X26518487Y-17058836D01*
X26518487Y-17058836D02*
X26508963Y-17068360D01*
X26508963Y-17068360D02*
X26489916Y-17077884D01*
X26489916Y-17077884D02*
X26451820Y-17077884D01*
X26451820Y-17077884D02*
X26432773Y-17068360D01*
X26642296Y-17077884D02*
X26623249Y-17068360D01*
X26623249Y-17068360D02*
X26613725Y-17049312D01*
X26613725Y-17049312D02*
X26613725Y-16877884D01*
X26804201Y-17077884D02*
X26804201Y-16973122D01*
X26804201Y-16973122D02*
X26794677Y-16954074D01*
X26794677Y-16954074D02*
X26775630Y-16944550D01*
X26775630Y-16944550D02*
X26737535Y-16944550D01*
X26737535Y-16944550D02*
X26718487Y-16954074D01*
X26804201Y-17068360D02*
X26785154Y-17077884D01*
X26785154Y-17077884D02*
X26737535Y-17077884D01*
X26737535Y-17077884D02*
X26718487Y-17068360D01*
X26718487Y-17068360D02*
X26708963Y-17049312D01*
X26708963Y-17049312D02*
X26708963Y-17030265D01*
X26708963Y-17030265D02*
X26718487Y-17011217D01*
X26718487Y-17011217D02*
X26737535Y-17001693D01*
X26737535Y-17001693D02*
X26785154Y-17001693D01*
X26785154Y-17001693D02*
X26804201Y-16992170D01*
X26870868Y-16944550D02*
X26947058Y-16944550D01*
X26899439Y-16877884D02*
X26899439Y-17049312D01*
X26899439Y-17049312D02*
X26908963Y-17068360D01*
X26908963Y-17068360D02*
X26928011Y-17077884D01*
X26928011Y-17077884D02*
X26947058Y-17077884D01*
X27089916Y-17068360D02*
X27070868Y-17077884D01*
X27070868Y-17077884D02*
X27032773Y-17077884D01*
X27032773Y-17077884D02*
X27013725Y-17068360D01*
X27013725Y-17068360D02*
X27004201Y-17049312D01*
X27004201Y-17049312D02*
X27004201Y-16973122D01*
X27004201Y-16973122D02*
X27013725Y-16954074D01*
X27013725Y-16954074D02*
X27032773Y-16944550D01*
X27032773Y-16944550D02*
X27070868Y-16944550D01*
X27070868Y-16944550D02*
X27089916Y-16954074D01*
X27089916Y-16954074D02*
X27099439Y-16973122D01*
X27099439Y-16973122D02*
X27099439Y-16992170D01*
X27099439Y-16992170D02*
X27004201Y-17011217D01*
X27270868Y-17077884D02*
X27270868Y-16877884D01*
X27270868Y-17068360D02*
X27251820Y-17077884D01*
X27251820Y-17077884D02*
X27213725Y-17077884D01*
X27213725Y-17077884D02*
X27194677Y-17068360D01*
X27194677Y-17068360D02*
X27185154Y-17058836D01*
X27185154Y-17058836D02*
X27175630Y-17039789D01*
X27175630Y-17039789D02*
X27175630Y-16982646D01*
X27175630Y-16982646D02*
X27185154Y-16963598D01*
X27185154Y-16963598D02*
X27194677Y-16954074D01*
X27194677Y-16954074D02*
X27213725Y-16944550D01*
X27213725Y-16944550D02*
X27251820Y-16944550D01*
X27251820Y-16944550D02*
X27270868Y-16954074D01*
X27347058Y-17154074D02*
X27356582Y-17144550D01*
X27356582Y-17144550D02*
X27375630Y-17115979D01*
X27375630Y-17115979D02*
X27385154Y-17096931D01*
X27385154Y-17096931D02*
X27394677Y-17068360D01*
X27394677Y-17068360D02*
X27404201Y-17020741D01*
X27404201Y-17020741D02*
X27404201Y-16982646D01*
X27404201Y-16982646D02*
X27394677Y-16935027D01*
X27394677Y-16935027D02*
X27385154Y-16906455D01*
X27385154Y-16906455D02*
X27375630Y-16887408D01*
X27375630Y-16887408D02*
X27356582Y-16858836D01*
X27356582Y-16858836D02*
X27347058Y-16849312D01*
D10*
X19034840Y-17200870D02*
X19133900Y-17299930D01*
X19133900Y-17200870D02*
X19034840Y-17299930D01*
X19119393Y-17285423D02*
X19119393Y-17215377D01*
X19049347Y-17215377D01*
X19049347Y-17285423D01*
X19119393Y-17285423D01*
D11*
X19432772Y-17141884D02*
X19451820Y-17141884D01*
X19451820Y-17141884D02*
X19470867Y-17151408D01*
X19470867Y-17151408D02*
X19480391Y-17160931D01*
X19480391Y-17160931D02*
X19489915Y-17179979D01*
X19489915Y-17179979D02*
X19499439Y-17218074D01*
X19499439Y-17218074D02*
X19499439Y-17265693D01*
X19499439Y-17265693D02*
X19489915Y-17303789D01*
X19489915Y-17303789D02*
X19480391Y-17322836D01*
X19480391Y-17322836D02*
X19470867Y-17332360D01*
X19470867Y-17332360D02*
X19451820Y-17341884D01*
X19451820Y-17341884D02*
X19432772Y-17341884D01*
X19432772Y-17341884D02*
X19413724Y-17332360D01*
X19413724Y-17332360D02*
X19404201Y-17322836D01*
X19404201Y-17322836D02*
X19394677Y-17303789D01*
X19394677Y-17303789D02*
X19385153Y-17265693D01*
X19385153Y-17265693D02*
X19385153Y-17218074D01*
X19385153Y-17218074D02*
X19394677Y-17179979D01*
X19394677Y-17179979D02*
X19404201Y-17160931D01*
X19404201Y-17160931D02*
X19413724Y-17151408D01*
X19413724Y-17151408D02*
X19432772Y-17141884D01*
X19585153Y-17322836D02*
X19594677Y-17332360D01*
X19594677Y-17332360D02*
X19585153Y-17341884D01*
X19585153Y-17341884D02*
X19575629Y-17332360D01*
X19575629Y-17332360D02*
X19585153Y-17322836D01*
X19585153Y-17322836D02*
X19585153Y-17341884D01*
X19689915Y-17341884D02*
X19728010Y-17341884D01*
X19728010Y-17341884D02*
X19747058Y-17332360D01*
X19747058Y-17332360D02*
X19756582Y-17322836D01*
X19756582Y-17322836D02*
X19775629Y-17294265D01*
X19775629Y-17294265D02*
X19785153Y-17256170D01*
X19785153Y-17256170D02*
X19785153Y-17179979D01*
X19785153Y-17179979D02*
X19775629Y-17160931D01*
X19775629Y-17160931D02*
X19766105Y-17151408D01*
X19766105Y-17151408D02*
X19747058Y-17141884D01*
X19747058Y-17141884D02*
X19708963Y-17141884D01*
X19708963Y-17141884D02*
X19689915Y-17151408D01*
X19689915Y-17151408D02*
X19680391Y-17160931D01*
X19680391Y-17160931D02*
X19670867Y-17179979D01*
X19670867Y-17179979D02*
X19670867Y-17227598D01*
X19670867Y-17227598D02*
X19680391Y-17246646D01*
X19680391Y-17246646D02*
X19689915Y-17256170D01*
X19689915Y-17256170D02*
X19708963Y-17265693D01*
X19708963Y-17265693D02*
X19747058Y-17265693D01*
X19747058Y-17265693D02*
X19766105Y-17256170D01*
X19766105Y-17256170D02*
X19775629Y-17246646D01*
X19775629Y-17246646D02*
X19785153Y-17227598D01*
X19880391Y-17341884D02*
X19918486Y-17341884D01*
X19918486Y-17341884D02*
X19937534Y-17332360D01*
X19937534Y-17332360D02*
X19947058Y-17322836D01*
X19947058Y-17322836D02*
X19966105Y-17294265D01*
X19966105Y-17294265D02*
X19975629Y-17256170D01*
X19975629Y-17256170D02*
X19975629Y-17179979D01*
X19975629Y-17179979D02*
X19966105Y-17160931D01*
X19966105Y-17160931D02*
X19956582Y-17151408D01*
X19956582Y-17151408D02*
X19937534Y-17141884D01*
X19937534Y-17141884D02*
X19899439Y-17141884D01*
X19899439Y-17141884D02*
X19880391Y-17151408D01*
X19880391Y-17151408D02*
X19870867Y-17160931D01*
X19870867Y-17160931D02*
X19861344Y-17179979D01*
X19861344Y-17179979D02*
X19861344Y-17227598D01*
X19861344Y-17227598D02*
X19870867Y-17246646D01*
X19870867Y-17246646D02*
X19880391Y-17256170D01*
X19880391Y-17256170D02*
X19899439Y-17265693D01*
X19899439Y-17265693D02*
X19937534Y-17265693D01*
X19937534Y-17265693D02*
X19956582Y-17256170D01*
X19956582Y-17256170D02*
X19966105Y-17246646D01*
X19966105Y-17246646D02*
X19975629Y-17227598D01*
X20166105Y-17341884D02*
X20051820Y-17341884D01*
X20108963Y-17341884D02*
X20108963Y-17141884D01*
X20108963Y-17141884D02*
X20089915Y-17170455D01*
X20089915Y-17170455D02*
X20070867Y-17189503D01*
X20070867Y-17189503D02*
X20051820Y-17199027D01*
X20251820Y-17341884D02*
X20251820Y-17208550D01*
X20251820Y-17227598D02*
X20261344Y-17218074D01*
X20261344Y-17218074D02*
X20280391Y-17208550D01*
X20280391Y-17208550D02*
X20308963Y-17208550D01*
X20308963Y-17208550D02*
X20328010Y-17218074D01*
X20328010Y-17218074D02*
X20337534Y-17237122D01*
X20337534Y-17237122D02*
X20337534Y-17341884D01*
X20337534Y-17237122D02*
X20347058Y-17218074D01*
X20347058Y-17218074D02*
X20366105Y-17208550D01*
X20366105Y-17208550D02*
X20394677Y-17208550D01*
X20394677Y-17208550D02*
X20413725Y-17218074D01*
X20413725Y-17218074D02*
X20423248Y-17237122D01*
X20423248Y-17237122D02*
X20423248Y-17341884D01*
X20518486Y-17341884D02*
X20518486Y-17208550D01*
X20518486Y-17227598D02*
X20528010Y-17218074D01*
X20528010Y-17218074D02*
X20547058Y-17208550D01*
X20547058Y-17208550D02*
X20575629Y-17208550D01*
X20575629Y-17208550D02*
X20594677Y-17218074D01*
X20594677Y-17218074D02*
X20604201Y-17237122D01*
X20604201Y-17237122D02*
X20604201Y-17341884D01*
X20604201Y-17237122D02*
X20613725Y-17218074D01*
X20613725Y-17218074D02*
X20632772Y-17208550D01*
X20632772Y-17208550D02*
X20661344Y-17208550D01*
X20661344Y-17208550D02*
X20680391Y-17218074D01*
X20680391Y-17218074D02*
X20689915Y-17237122D01*
X20689915Y-17237122D02*
X20689915Y-17341884D01*
X21080391Y-17132360D02*
X20908963Y-17389503D01*
X21337534Y-17141884D02*
X21356582Y-17141884D01*
X21356582Y-17141884D02*
X21375629Y-17151408D01*
X21375629Y-17151408D02*
X21385153Y-17160931D01*
X21385153Y-17160931D02*
X21394677Y-17179979D01*
X21394677Y-17179979D02*
X21404201Y-17218074D01*
X21404201Y-17218074D02*
X21404201Y-17265693D01*
X21404201Y-17265693D02*
X21394677Y-17303789D01*
X21394677Y-17303789D02*
X21385153Y-17322836D01*
X21385153Y-17322836D02*
X21375629Y-17332360D01*
X21375629Y-17332360D02*
X21356582Y-17341884D01*
X21356582Y-17341884D02*
X21337534Y-17341884D01*
X21337534Y-17341884D02*
X21318487Y-17332360D01*
X21318487Y-17332360D02*
X21308963Y-17322836D01*
X21308963Y-17322836D02*
X21299439Y-17303789D01*
X21299439Y-17303789D02*
X21289915Y-17265693D01*
X21289915Y-17265693D02*
X21289915Y-17218074D01*
X21289915Y-17218074D02*
X21299439Y-17179979D01*
X21299439Y-17179979D02*
X21308963Y-17160931D01*
X21308963Y-17160931D02*
X21318487Y-17151408D01*
X21318487Y-17151408D02*
X21337534Y-17141884D01*
X21489915Y-17322836D02*
X21499439Y-17332360D01*
X21499439Y-17332360D02*
X21489915Y-17341884D01*
X21489915Y-17341884D02*
X21480391Y-17332360D01*
X21480391Y-17332360D02*
X21489915Y-17322836D01*
X21489915Y-17322836D02*
X21489915Y-17341884D01*
X21623248Y-17141884D02*
X21642296Y-17141884D01*
X21642296Y-17141884D02*
X21661344Y-17151408D01*
X21661344Y-17151408D02*
X21670868Y-17160931D01*
X21670868Y-17160931D02*
X21680391Y-17179979D01*
X21680391Y-17179979D02*
X21689915Y-17218074D01*
X21689915Y-17218074D02*
X21689915Y-17265693D01*
X21689915Y-17265693D02*
X21680391Y-17303789D01*
X21680391Y-17303789D02*
X21670868Y-17322836D01*
X21670868Y-17322836D02*
X21661344Y-17332360D01*
X21661344Y-17332360D02*
X21642296Y-17341884D01*
X21642296Y-17341884D02*
X21623248Y-17341884D01*
X21623248Y-17341884D02*
X21604201Y-17332360D01*
X21604201Y-17332360D02*
X21594677Y-17322836D01*
X21594677Y-17322836D02*
X21585153Y-17303789D01*
X21585153Y-17303789D02*
X21575629Y-17265693D01*
X21575629Y-17265693D02*
X21575629Y-17218074D01*
X21575629Y-17218074D02*
X21585153Y-17179979D01*
X21585153Y-17179979D02*
X21594677Y-17160931D01*
X21594677Y-17160931D02*
X21604201Y-17151408D01*
X21604201Y-17151408D02*
X21623248Y-17141884D01*
X21756582Y-17141884D02*
X21880391Y-17141884D01*
X21880391Y-17141884D02*
X21813725Y-17218074D01*
X21813725Y-17218074D02*
X21842296Y-17218074D01*
X21842296Y-17218074D02*
X21861344Y-17227598D01*
X21861344Y-17227598D02*
X21870868Y-17237122D01*
X21870868Y-17237122D02*
X21880391Y-17256170D01*
X21880391Y-17256170D02*
X21880391Y-17303789D01*
X21880391Y-17303789D02*
X21870868Y-17322836D01*
X21870868Y-17322836D02*
X21861344Y-17332360D01*
X21861344Y-17332360D02*
X21842296Y-17341884D01*
X21842296Y-17341884D02*
X21785153Y-17341884D01*
X21785153Y-17341884D02*
X21766106Y-17332360D01*
X21766106Y-17332360D02*
X21756582Y-17322836D01*
X21975629Y-17341884D02*
X22013725Y-17341884D01*
X22013725Y-17341884D02*
X22032772Y-17332360D01*
X22032772Y-17332360D02*
X22042296Y-17322836D01*
X22042296Y-17322836D02*
X22061344Y-17294265D01*
X22061344Y-17294265D02*
X22070868Y-17256170D01*
X22070868Y-17256170D02*
X22070868Y-17179979D01*
X22070868Y-17179979D02*
X22061344Y-17160931D01*
X22061344Y-17160931D02*
X22051820Y-17151408D01*
X22051820Y-17151408D02*
X22032772Y-17141884D01*
X22032772Y-17141884D02*
X21994677Y-17141884D01*
X21994677Y-17141884D02*
X21975629Y-17151408D01*
X21975629Y-17151408D02*
X21966106Y-17160931D01*
X21966106Y-17160931D02*
X21956582Y-17179979D01*
X21956582Y-17179979D02*
X21956582Y-17227598D01*
X21956582Y-17227598D02*
X21966106Y-17246646D01*
X21966106Y-17246646D02*
X21975629Y-17256170D01*
X21975629Y-17256170D02*
X21994677Y-17265693D01*
X21994677Y-17265693D02*
X22032772Y-17265693D01*
X22032772Y-17265693D02*
X22051820Y-17256170D01*
X22051820Y-17256170D02*
X22061344Y-17246646D01*
X22061344Y-17246646D02*
X22070868Y-17227598D01*
X22194677Y-17141884D02*
X22213725Y-17141884D01*
X22213725Y-17141884D02*
X22232772Y-17151408D01*
X22232772Y-17151408D02*
X22242296Y-17160931D01*
X22242296Y-17160931D02*
X22251820Y-17179979D01*
X22251820Y-17179979D02*
X22261344Y-17218074D01*
X22261344Y-17218074D02*
X22261344Y-17265693D01*
X22261344Y-17265693D02*
X22251820Y-17303789D01*
X22251820Y-17303789D02*
X22242296Y-17322836D01*
X22242296Y-17322836D02*
X22232772Y-17332360D01*
X22232772Y-17332360D02*
X22213725Y-17341884D01*
X22213725Y-17341884D02*
X22194677Y-17341884D01*
X22194677Y-17341884D02*
X22175629Y-17332360D01*
X22175629Y-17332360D02*
X22166106Y-17322836D01*
X22166106Y-17322836D02*
X22156582Y-17303789D01*
X22156582Y-17303789D02*
X22147058Y-17265693D01*
X22147058Y-17265693D02*
X22147058Y-17218074D01*
X22147058Y-17218074D02*
X22156582Y-17179979D01*
X22156582Y-17179979D02*
X22166106Y-17160931D01*
X22166106Y-17160931D02*
X22175629Y-17151408D01*
X22175629Y-17151408D02*
X22194677Y-17141884D01*
X22337534Y-17141884D02*
X22337534Y-17179979D01*
X22413725Y-17141884D02*
X22413725Y-17179979D01*
X22708963Y-17418074D02*
X22699439Y-17408550D01*
X22699439Y-17408550D02*
X22680391Y-17379979D01*
X22680391Y-17379979D02*
X22670868Y-17360931D01*
X22670868Y-17360931D02*
X22661344Y-17332360D01*
X22661344Y-17332360D02*
X22651820Y-17284741D01*
X22651820Y-17284741D02*
X22651820Y-17246646D01*
X22651820Y-17246646D02*
X22661344Y-17199027D01*
X22661344Y-17199027D02*
X22670868Y-17170455D01*
X22670868Y-17170455D02*
X22680391Y-17151408D01*
X22680391Y-17151408D02*
X22699439Y-17122836D01*
X22699439Y-17122836D02*
X22708963Y-17113312D01*
X22766106Y-17141884D02*
X22889915Y-17141884D01*
X22889915Y-17141884D02*
X22823248Y-17218074D01*
X22823248Y-17218074D02*
X22851820Y-17218074D01*
X22851820Y-17218074D02*
X22870868Y-17227598D01*
X22870868Y-17227598D02*
X22880391Y-17237122D01*
X22880391Y-17237122D02*
X22889915Y-17256170D01*
X22889915Y-17256170D02*
X22889915Y-17303789D01*
X22889915Y-17303789D02*
X22880391Y-17322836D01*
X22880391Y-17322836D02*
X22870868Y-17332360D01*
X22870868Y-17332360D02*
X22851820Y-17341884D01*
X22851820Y-17341884D02*
X22794677Y-17341884D01*
X22794677Y-17341884D02*
X22775629Y-17332360D01*
X22775629Y-17332360D02*
X22766106Y-17322836D01*
X23128010Y-17341884D02*
X23128010Y-17141884D01*
X23213725Y-17341884D02*
X23213725Y-17237122D01*
X23213725Y-17237122D02*
X23204201Y-17218074D01*
X23204201Y-17218074D02*
X23185153Y-17208550D01*
X23185153Y-17208550D02*
X23156582Y-17208550D01*
X23156582Y-17208550D02*
X23137534Y-17218074D01*
X23137534Y-17218074D02*
X23128010Y-17227598D01*
X23337534Y-17341884D02*
X23318487Y-17332360D01*
X23318487Y-17332360D02*
X23308963Y-17322836D01*
X23308963Y-17322836D02*
X23299439Y-17303789D01*
X23299439Y-17303789D02*
X23299439Y-17246646D01*
X23299439Y-17246646D02*
X23308963Y-17227598D01*
X23308963Y-17227598D02*
X23318487Y-17218074D01*
X23318487Y-17218074D02*
X23337534Y-17208550D01*
X23337534Y-17208550D02*
X23366106Y-17208550D01*
X23366106Y-17208550D02*
X23385153Y-17218074D01*
X23385153Y-17218074D02*
X23394677Y-17227598D01*
X23394677Y-17227598D02*
X23404201Y-17246646D01*
X23404201Y-17246646D02*
X23404201Y-17303789D01*
X23404201Y-17303789D02*
X23394677Y-17322836D01*
X23394677Y-17322836D02*
X23385153Y-17332360D01*
X23385153Y-17332360D02*
X23366106Y-17341884D01*
X23366106Y-17341884D02*
X23337534Y-17341884D01*
X23518487Y-17341884D02*
X23499439Y-17332360D01*
X23499439Y-17332360D02*
X23489915Y-17313312D01*
X23489915Y-17313312D02*
X23489915Y-17141884D01*
X23670868Y-17332360D02*
X23651820Y-17341884D01*
X23651820Y-17341884D02*
X23613725Y-17341884D01*
X23613725Y-17341884D02*
X23594677Y-17332360D01*
X23594677Y-17332360D02*
X23585153Y-17313312D01*
X23585153Y-17313312D02*
X23585153Y-17237122D01*
X23585153Y-17237122D02*
X23594677Y-17218074D01*
X23594677Y-17218074D02*
X23613725Y-17208550D01*
X23613725Y-17208550D02*
X23651820Y-17208550D01*
X23651820Y-17208550D02*
X23670868Y-17218074D01*
X23670868Y-17218074D02*
X23680391Y-17237122D01*
X23680391Y-17237122D02*
X23680391Y-17256170D01*
X23680391Y-17256170D02*
X23585153Y-17275217D01*
X23756582Y-17332360D02*
X23775630Y-17341884D01*
X23775630Y-17341884D02*
X23813725Y-17341884D01*
X23813725Y-17341884D02*
X23832772Y-17332360D01*
X23832772Y-17332360D02*
X23842296Y-17313312D01*
X23842296Y-17313312D02*
X23842296Y-17303789D01*
X23842296Y-17303789D02*
X23832772Y-17284741D01*
X23832772Y-17284741D02*
X23813725Y-17275217D01*
X23813725Y-17275217D02*
X23785153Y-17275217D01*
X23785153Y-17275217D02*
X23766106Y-17265693D01*
X23766106Y-17265693D02*
X23756582Y-17246646D01*
X23756582Y-17246646D02*
X23756582Y-17237122D01*
X23756582Y-17237122D02*
X23766106Y-17218074D01*
X23766106Y-17218074D02*
X23785153Y-17208550D01*
X23785153Y-17208550D02*
X23813725Y-17208550D01*
X23813725Y-17208550D02*
X23832772Y-17218074D01*
X23908963Y-17418074D02*
X23918487Y-17408550D01*
X23918487Y-17408550D02*
X23937534Y-17379979D01*
X23937534Y-17379979D02*
X23947058Y-17360931D01*
X23947058Y-17360931D02*
X23956582Y-17332360D01*
X23956582Y-17332360D02*
X23966106Y-17284741D01*
X23966106Y-17284741D02*
X23966106Y-17246646D01*
X23966106Y-17246646D02*
X23956582Y-17199027D01*
X23956582Y-17199027D02*
X23947058Y-17170455D01*
X23947058Y-17170455D02*
X23937534Y-17151408D01*
X23937534Y-17151408D02*
X23918487Y-17122836D01*
X23918487Y-17122836D02*
X23908963Y-17113312D01*
X24270868Y-17418074D02*
X24261344Y-17408550D01*
X24261344Y-17408550D02*
X24242296Y-17379979D01*
X24242296Y-17379979D02*
X24232772Y-17360931D01*
X24232772Y-17360931D02*
X24223249Y-17332360D01*
X24223249Y-17332360D02*
X24213725Y-17284741D01*
X24213725Y-17284741D02*
X24213725Y-17246646D01*
X24213725Y-17246646D02*
X24223249Y-17199027D01*
X24223249Y-17199027D02*
X24232772Y-17170455D01*
X24232772Y-17170455D02*
X24242296Y-17151408D01*
X24242296Y-17151408D02*
X24261344Y-17122836D01*
X24261344Y-17122836D02*
X24270868Y-17113312D01*
X24347058Y-17208550D02*
X24347058Y-17341884D01*
X24347058Y-17227598D02*
X24356582Y-17218074D01*
X24356582Y-17218074D02*
X24375630Y-17208550D01*
X24375630Y-17208550D02*
X24404201Y-17208550D01*
X24404201Y-17208550D02*
X24423249Y-17218074D01*
X24423249Y-17218074D02*
X24432772Y-17237122D01*
X24432772Y-17237122D02*
X24432772Y-17341884D01*
X24556582Y-17341884D02*
X24537534Y-17332360D01*
X24537534Y-17332360D02*
X24528011Y-17322836D01*
X24528011Y-17322836D02*
X24518487Y-17303789D01*
X24518487Y-17303789D02*
X24518487Y-17246646D01*
X24518487Y-17246646D02*
X24528011Y-17227598D01*
X24528011Y-17227598D02*
X24537534Y-17218074D01*
X24537534Y-17218074D02*
X24556582Y-17208550D01*
X24556582Y-17208550D02*
X24585153Y-17208550D01*
X24585153Y-17208550D02*
X24604201Y-17218074D01*
X24604201Y-17218074D02*
X24613725Y-17227598D01*
X24613725Y-17227598D02*
X24623249Y-17246646D01*
X24623249Y-17246646D02*
X24623249Y-17303789D01*
X24623249Y-17303789D02*
X24613725Y-17322836D01*
X24613725Y-17322836D02*
X24604201Y-17332360D01*
X24604201Y-17332360D02*
X24585153Y-17341884D01*
X24585153Y-17341884D02*
X24556582Y-17341884D01*
X24680392Y-17208550D02*
X24756582Y-17208550D01*
X24708963Y-17141884D02*
X24708963Y-17313312D01*
X24708963Y-17313312D02*
X24718487Y-17332360D01*
X24718487Y-17332360D02*
X24737534Y-17341884D01*
X24737534Y-17341884D02*
X24756582Y-17341884D01*
X24975630Y-17208550D02*
X24975630Y-17408550D01*
X24975630Y-17218074D02*
X24994677Y-17208550D01*
X24994677Y-17208550D02*
X25032773Y-17208550D01*
X25032773Y-17208550D02*
X25051820Y-17218074D01*
X25051820Y-17218074D02*
X25061344Y-17227598D01*
X25061344Y-17227598D02*
X25070868Y-17246646D01*
X25070868Y-17246646D02*
X25070868Y-17303789D01*
X25070868Y-17303789D02*
X25061344Y-17322836D01*
X25061344Y-17322836D02*
X25051820Y-17332360D01*
X25051820Y-17332360D02*
X25032773Y-17341884D01*
X25032773Y-17341884D02*
X24994677Y-17341884D01*
X24994677Y-17341884D02*
X24975630Y-17332360D01*
X25185153Y-17341884D02*
X25166106Y-17332360D01*
X25166106Y-17332360D02*
X25156582Y-17313312D01*
X25156582Y-17313312D02*
X25156582Y-17141884D01*
X25347058Y-17341884D02*
X25347058Y-17237122D01*
X25347058Y-17237122D02*
X25337534Y-17218074D01*
X25337534Y-17218074D02*
X25318487Y-17208550D01*
X25318487Y-17208550D02*
X25280392Y-17208550D01*
X25280392Y-17208550D02*
X25261344Y-17218074D01*
X25347058Y-17332360D02*
X25328011Y-17341884D01*
X25328011Y-17341884D02*
X25280392Y-17341884D01*
X25280392Y-17341884D02*
X25261344Y-17332360D01*
X25261344Y-17332360D02*
X25251820Y-17313312D01*
X25251820Y-17313312D02*
X25251820Y-17294265D01*
X25251820Y-17294265D02*
X25261344Y-17275217D01*
X25261344Y-17275217D02*
X25280392Y-17265693D01*
X25280392Y-17265693D02*
X25328011Y-17265693D01*
X25328011Y-17265693D02*
X25347058Y-17256170D01*
X25413725Y-17208550D02*
X25489915Y-17208550D01*
X25442296Y-17141884D02*
X25442296Y-17313312D01*
X25442296Y-17313312D02*
X25451820Y-17332360D01*
X25451820Y-17332360D02*
X25470868Y-17341884D01*
X25470868Y-17341884D02*
X25489915Y-17341884D01*
X25632773Y-17332360D02*
X25613725Y-17341884D01*
X25613725Y-17341884D02*
X25575630Y-17341884D01*
X25575630Y-17341884D02*
X25556582Y-17332360D01*
X25556582Y-17332360D02*
X25547058Y-17313312D01*
X25547058Y-17313312D02*
X25547058Y-17237122D01*
X25547058Y-17237122D02*
X25556582Y-17218074D01*
X25556582Y-17218074D02*
X25575630Y-17208550D01*
X25575630Y-17208550D02*
X25613725Y-17208550D01*
X25613725Y-17208550D02*
X25632773Y-17218074D01*
X25632773Y-17218074D02*
X25642296Y-17237122D01*
X25642296Y-17237122D02*
X25642296Y-17256170D01*
X25642296Y-17256170D02*
X25547058Y-17275217D01*
X25813725Y-17341884D02*
X25813725Y-17141884D01*
X25813725Y-17332360D02*
X25794677Y-17341884D01*
X25794677Y-17341884D02*
X25756582Y-17341884D01*
X25756582Y-17341884D02*
X25737534Y-17332360D01*
X25737534Y-17332360D02*
X25728011Y-17322836D01*
X25728011Y-17322836D02*
X25718487Y-17303789D01*
X25718487Y-17303789D02*
X25718487Y-17246646D01*
X25718487Y-17246646D02*
X25728011Y-17227598D01*
X25728011Y-17227598D02*
X25737534Y-17218074D01*
X25737534Y-17218074D02*
X25756582Y-17208550D01*
X25756582Y-17208550D02*
X25794677Y-17208550D01*
X25794677Y-17208550D02*
X25813725Y-17218074D01*
X25889915Y-17418074D02*
X25899439Y-17408550D01*
X25899439Y-17408550D02*
X25918487Y-17379979D01*
X25918487Y-17379979D02*
X25928011Y-17360931D01*
X25928011Y-17360931D02*
X25937534Y-17332360D01*
X25937534Y-17332360D02*
X25947058Y-17284741D01*
X25947058Y-17284741D02*
X25947058Y-17246646D01*
X25947058Y-17246646D02*
X25937534Y-17199027D01*
X25937534Y-17199027D02*
X25928011Y-17170455D01*
X25928011Y-17170455D02*
X25918487Y-17151408D01*
X25918487Y-17151408D02*
X25899439Y-17122836D01*
X25899439Y-17122836D02*
X25889915Y-17113312D01*
M02*
