%TF.GenerationSoftware,KiCad,Pcbnew,8.0.6-8.0.6-0~ubuntu24.04.1*%
%TF.CreationDate,2024-12-02T20:40:39-08:00*%
%TF.ProjectId,stm32_bluet_pill,73746d33-325f-4626-9c75-65745f70696c,V2*%
%TF.SameCoordinates,Original*%
%TF.FileFunction,Legend,Top*%
%TF.FilePolarity,Positive*%
%FSLAX46Y46*%
G04 Gerber Fmt 4.6, Leading zero omitted, Abs format (unit mm)*
G04 Created by KiCad (PCBNEW 8.0.6-8.0.6-0~ubuntu24.04.1) date 2024-12-02 20:40:39*
%MOMM*%
%LPD*%
G01*
G04 APERTURE LIST*
%ADD10C,0.100000*%
%ADD11C,0.150000*%
%ADD12C,0.300000*%
%ADD13C,0.400000*%
%ADD14C,0.500000*%
%ADD15C,0.200000*%
%ADD16C,0.120000*%
%ADD17C,0.010000*%
%TA.AperFunction,Profile*%
%ADD18C,0.100000*%
%TD*%
G04 APERTURE END LIST*
D10*
X345821001Y-254402167D02*
X345821001Y-267313833D01*
X362331000Y-267313833D01*
X362331000Y-254402167D01*
X345821001Y-254402167D01*
D11*
X299989000Y-253002200D02*
X407989000Y-253002200D01*
X407989000Y-285002200D01*
X299989000Y-285002200D01*
X299989000Y-253002200D01*
D10*
D11*
X10000000Y-10000000D02*
X409989000Y-10000000D01*
X409989000Y-287002200D01*
X10000000Y-287002200D01*
X10000000Y-10000000D01*
D10*
D11*
X12000000Y-12000000D02*
X407989000Y-12000000D01*
X407989000Y-285002200D01*
X12000000Y-285002200D01*
X12000000Y-12000000D01*
D10*
D11*
X60000000Y-12000000D02*
X60000000Y-10000000D01*
D10*
D11*
X110000000Y-12000000D02*
X110000000Y-10000000D01*
D10*
D11*
X160000000Y-12000000D02*
X160000000Y-10000000D01*
D10*
D11*
X210000000Y-12000000D02*
X210000000Y-10000000D01*
D10*
D11*
X260000000Y-12000000D02*
X260000000Y-10000000D01*
D10*
D11*
X310000000Y-12000000D02*
X310000000Y-10000000D01*
D10*
D11*
X360000000Y-12000000D02*
X360000000Y-10000000D01*
D10*
D11*
X36089160Y-11593604D02*
X35346303Y-11593604D01*
X35717731Y-11593604D02*
X35717731Y-10293604D01*
X35717731Y-10293604D02*
X35593922Y-10479319D01*
X35593922Y-10479319D02*
X35470112Y-10603128D01*
X35470112Y-10603128D02*
X35346303Y-10665033D01*
D10*
D11*
X85346303Y-10417414D02*
X85408207Y-10355509D01*
X85408207Y-10355509D02*
X85532017Y-10293604D01*
X85532017Y-10293604D02*
X85841541Y-10293604D01*
X85841541Y-10293604D02*
X85965350Y-10355509D01*
X85965350Y-10355509D02*
X86027255Y-10417414D01*
X86027255Y-10417414D02*
X86089160Y-10541223D01*
X86089160Y-10541223D02*
X86089160Y-10665033D01*
X86089160Y-10665033D02*
X86027255Y-10850747D01*
X86027255Y-10850747D02*
X85284398Y-11593604D01*
X85284398Y-11593604D02*
X86089160Y-11593604D01*
D10*
D11*
X135284398Y-10293604D02*
X136089160Y-10293604D01*
X136089160Y-10293604D02*
X135655826Y-10788842D01*
X135655826Y-10788842D02*
X135841541Y-10788842D01*
X135841541Y-10788842D02*
X135965350Y-10850747D01*
X135965350Y-10850747D02*
X136027255Y-10912652D01*
X136027255Y-10912652D02*
X136089160Y-11036461D01*
X136089160Y-11036461D02*
X136089160Y-11345985D01*
X136089160Y-11345985D02*
X136027255Y-11469795D01*
X136027255Y-11469795D02*
X135965350Y-11531700D01*
X135965350Y-11531700D02*
X135841541Y-11593604D01*
X135841541Y-11593604D02*
X135470112Y-11593604D01*
X135470112Y-11593604D02*
X135346303Y-11531700D01*
X135346303Y-11531700D02*
X135284398Y-11469795D01*
D10*
D11*
X185965350Y-10726938D02*
X185965350Y-11593604D01*
X185655826Y-10231700D02*
X185346303Y-11160271D01*
X185346303Y-11160271D02*
X186151064Y-11160271D01*
D10*
D11*
X236027255Y-10293604D02*
X235408207Y-10293604D01*
X235408207Y-10293604D02*
X235346303Y-10912652D01*
X235346303Y-10912652D02*
X235408207Y-10850747D01*
X235408207Y-10850747D02*
X235532017Y-10788842D01*
X235532017Y-10788842D02*
X235841541Y-10788842D01*
X235841541Y-10788842D02*
X235965350Y-10850747D01*
X235965350Y-10850747D02*
X236027255Y-10912652D01*
X236027255Y-10912652D02*
X236089160Y-11036461D01*
X236089160Y-11036461D02*
X236089160Y-11345985D01*
X236089160Y-11345985D02*
X236027255Y-11469795D01*
X236027255Y-11469795D02*
X235965350Y-11531700D01*
X235965350Y-11531700D02*
X235841541Y-11593604D01*
X235841541Y-11593604D02*
X235532017Y-11593604D01*
X235532017Y-11593604D02*
X235408207Y-11531700D01*
X235408207Y-11531700D02*
X235346303Y-11469795D01*
D10*
D11*
X285965350Y-10293604D02*
X285717731Y-10293604D01*
X285717731Y-10293604D02*
X285593922Y-10355509D01*
X285593922Y-10355509D02*
X285532017Y-10417414D01*
X285532017Y-10417414D02*
X285408207Y-10603128D01*
X285408207Y-10603128D02*
X285346303Y-10850747D01*
X285346303Y-10850747D02*
X285346303Y-11345985D01*
X285346303Y-11345985D02*
X285408207Y-11469795D01*
X285408207Y-11469795D02*
X285470112Y-11531700D01*
X285470112Y-11531700D02*
X285593922Y-11593604D01*
X285593922Y-11593604D02*
X285841541Y-11593604D01*
X285841541Y-11593604D02*
X285965350Y-11531700D01*
X285965350Y-11531700D02*
X286027255Y-11469795D01*
X286027255Y-11469795D02*
X286089160Y-11345985D01*
X286089160Y-11345985D02*
X286089160Y-11036461D01*
X286089160Y-11036461D02*
X286027255Y-10912652D01*
X286027255Y-10912652D02*
X285965350Y-10850747D01*
X285965350Y-10850747D02*
X285841541Y-10788842D01*
X285841541Y-10788842D02*
X285593922Y-10788842D01*
X285593922Y-10788842D02*
X285470112Y-10850747D01*
X285470112Y-10850747D02*
X285408207Y-10912652D01*
X285408207Y-10912652D02*
X285346303Y-11036461D01*
D10*
D11*
X335284398Y-10293604D02*
X336151064Y-10293604D01*
X336151064Y-10293604D02*
X335593922Y-11593604D01*
D10*
D11*
X385593922Y-10850747D02*
X385470112Y-10788842D01*
X385470112Y-10788842D02*
X385408207Y-10726938D01*
X385408207Y-10726938D02*
X385346303Y-10603128D01*
X385346303Y-10603128D02*
X385346303Y-10541223D01*
X385346303Y-10541223D02*
X385408207Y-10417414D01*
X385408207Y-10417414D02*
X385470112Y-10355509D01*
X385470112Y-10355509D02*
X385593922Y-10293604D01*
X385593922Y-10293604D02*
X385841541Y-10293604D01*
X385841541Y-10293604D02*
X385965350Y-10355509D01*
X385965350Y-10355509D02*
X386027255Y-10417414D01*
X386027255Y-10417414D02*
X386089160Y-10541223D01*
X386089160Y-10541223D02*
X386089160Y-10603128D01*
X386089160Y-10603128D02*
X386027255Y-10726938D01*
X386027255Y-10726938D02*
X385965350Y-10788842D01*
X385965350Y-10788842D02*
X385841541Y-10850747D01*
X385841541Y-10850747D02*
X385593922Y-10850747D01*
X385593922Y-10850747D02*
X385470112Y-10912652D01*
X385470112Y-10912652D02*
X385408207Y-10974557D01*
X385408207Y-10974557D02*
X385346303Y-11098366D01*
X385346303Y-11098366D02*
X385346303Y-11345985D01*
X385346303Y-11345985D02*
X385408207Y-11469795D01*
X385408207Y-11469795D02*
X385470112Y-11531700D01*
X385470112Y-11531700D02*
X385593922Y-11593604D01*
X385593922Y-11593604D02*
X385841541Y-11593604D01*
X385841541Y-11593604D02*
X385965350Y-11531700D01*
X385965350Y-11531700D02*
X386027255Y-11469795D01*
X386027255Y-11469795D02*
X386089160Y-11345985D01*
X386089160Y-11345985D02*
X386089160Y-11098366D01*
X386089160Y-11098366D02*
X386027255Y-10974557D01*
X386027255Y-10974557D02*
X385965350Y-10912652D01*
X385965350Y-10912652D02*
X385841541Y-10850747D01*
D10*
D11*
X60000000Y-285002200D02*
X60000000Y-287002200D01*
D10*
D11*
X110000000Y-285002200D02*
X110000000Y-287002200D01*
D10*
D11*
X160000000Y-285002200D02*
X160000000Y-287002200D01*
D10*
D11*
X210000000Y-285002200D02*
X210000000Y-287002200D01*
D10*
D11*
X260000000Y-285002200D02*
X260000000Y-287002200D01*
D10*
D11*
X310000000Y-285002200D02*
X310000000Y-287002200D01*
D10*
D11*
X360000000Y-285002200D02*
X360000000Y-287002200D01*
D10*
D11*
X36089160Y-286595804D02*
X35346303Y-286595804D01*
X35717731Y-286595804D02*
X35717731Y-285295804D01*
X35717731Y-285295804D02*
X35593922Y-285481519D01*
X35593922Y-285481519D02*
X35470112Y-285605328D01*
X35470112Y-285605328D02*
X35346303Y-285667233D01*
D10*
D11*
X85346303Y-285419614D02*
X85408207Y-285357709D01*
X85408207Y-285357709D02*
X85532017Y-285295804D01*
X85532017Y-285295804D02*
X85841541Y-285295804D01*
X85841541Y-285295804D02*
X85965350Y-285357709D01*
X85965350Y-285357709D02*
X86027255Y-285419614D01*
X86027255Y-285419614D02*
X86089160Y-285543423D01*
X86089160Y-285543423D02*
X86089160Y-285667233D01*
X86089160Y-285667233D02*
X86027255Y-285852947D01*
X86027255Y-285852947D02*
X85284398Y-286595804D01*
X85284398Y-286595804D02*
X86089160Y-286595804D01*
D10*
D11*
X135284398Y-285295804D02*
X136089160Y-285295804D01*
X136089160Y-285295804D02*
X135655826Y-285791042D01*
X135655826Y-285791042D02*
X135841541Y-285791042D01*
X135841541Y-285791042D02*
X135965350Y-285852947D01*
X135965350Y-285852947D02*
X136027255Y-285914852D01*
X136027255Y-285914852D02*
X136089160Y-286038661D01*
X136089160Y-286038661D02*
X136089160Y-286348185D01*
X136089160Y-286348185D02*
X136027255Y-286471995D01*
X136027255Y-286471995D02*
X135965350Y-286533900D01*
X135965350Y-286533900D02*
X135841541Y-286595804D01*
X135841541Y-286595804D02*
X135470112Y-286595804D01*
X135470112Y-286595804D02*
X135346303Y-286533900D01*
X135346303Y-286533900D02*
X135284398Y-286471995D01*
D10*
D11*
X185965350Y-285729138D02*
X185965350Y-286595804D01*
X185655826Y-285233900D02*
X185346303Y-286162471D01*
X185346303Y-286162471D02*
X186151064Y-286162471D01*
D10*
D11*
X236027255Y-285295804D02*
X235408207Y-285295804D01*
X235408207Y-285295804D02*
X235346303Y-285914852D01*
X235346303Y-285914852D02*
X235408207Y-285852947D01*
X235408207Y-285852947D02*
X235532017Y-285791042D01*
X235532017Y-285791042D02*
X235841541Y-285791042D01*
X235841541Y-285791042D02*
X235965350Y-285852947D01*
X235965350Y-285852947D02*
X236027255Y-285914852D01*
X236027255Y-285914852D02*
X236089160Y-286038661D01*
X236089160Y-286038661D02*
X236089160Y-286348185D01*
X236089160Y-286348185D02*
X236027255Y-286471995D01*
X236027255Y-286471995D02*
X235965350Y-286533900D01*
X235965350Y-286533900D02*
X235841541Y-286595804D01*
X235841541Y-286595804D02*
X235532017Y-286595804D01*
X235532017Y-286595804D02*
X235408207Y-286533900D01*
X235408207Y-286533900D02*
X235346303Y-286471995D01*
D10*
D11*
X285965350Y-285295804D02*
X285717731Y-285295804D01*
X285717731Y-285295804D02*
X285593922Y-285357709D01*
X285593922Y-285357709D02*
X285532017Y-285419614D01*
X285532017Y-285419614D02*
X285408207Y-285605328D01*
X285408207Y-285605328D02*
X285346303Y-285852947D01*
X285346303Y-285852947D02*
X285346303Y-286348185D01*
X285346303Y-286348185D02*
X285408207Y-286471995D01*
X285408207Y-286471995D02*
X285470112Y-286533900D01*
X285470112Y-286533900D02*
X285593922Y-286595804D01*
X285593922Y-286595804D02*
X285841541Y-286595804D01*
X285841541Y-286595804D02*
X285965350Y-286533900D01*
X285965350Y-286533900D02*
X286027255Y-286471995D01*
X286027255Y-286471995D02*
X286089160Y-286348185D01*
X286089160Y-286348185D02*
X286089160Y-286038661D01*
X286089160Y-286038661D02*
X286027255Y-285914852D01*
X286027255Y-285914852D02*
X285965350Y-285852947D01*
X285965350Y-285852947D02*
X285841541Y-285791042D01*
X285841541Y-285791042D02*
X285593922Y-285791042D01*
X285593922Y-285791042D02*
X285470112Y-285852947D01*
X285470112Y-285852947D02*
X285408207Y-285914852D01*
X285408207Y-285914852D02*
X285346303Y-286038661D01*
D10*
D11*
X335284398Y-285295804D02*
X336151064Y-285295804D01*
X336151064Y-285295804D02*
X335593922Y-286595804D01*
D10*
D11*
X385593922Y-285852947D02*
X385470112Y-285791042D01*
X385470112Y-285791042D02*
X385408207Y-285729138D01*
X385408207Y-285729138D02*
X385346303Y-285605328D01*
X385346303Y-285605328D02*
X385346303Y-285543423D01*
X385346303Y-285543423D02*
X385408207Y-285419614D01*
X385408207Y-285419614D02*
X385470112Y-285357709D01*
X385470112Y-285357709D02*
X385593922Y-285295804D01*
X385593922Y-285295804D02*
X385841541Y-285295804D01*
X385841541Y-285295804D02*
X385965350Y-285357709D01*
X385965350Y-285357709D02*
X386027255Y-285419614D01*
X386027255Y-285419614D02*
X386089160Y-285543423D01*
X386089160Y-285543423D02*
X386089160Y-285605328D01*
X386089160Y-285605328D02*
X386027255Y-285729138D01*
X386027255Y-285729138D02*
X385965350Y-285791042D01*
X385965350Y-285791042D02*
X385841541Y-285852947D01*
X385841541Y-285852947D02*
X385593922Y-285852947D01*
X385593922Y-285852947D02*
X385470112Y-285914852D01*
X385470112Y-285914852D02*
X385408207Y-285976757D01*
X385408207Y-285976757D02*
X385346303Y-286100566D01*
X385346303Y-286100566D02*
X385346303Y-286348185D01*
X385346303Y-286348185D02*
X385408207Y-286471995D01*
X385408207Y-286471995D02*
X385470112Y-286533900D01*
X385470112Y-286533900D02*
X385593922Y-286595804D01*
X385593922Y-286595804D02*
X385841541Y-286595804D01*
X385841541Y-286595804D02*
X385965350Y-286533900D01*
X385965350Y-286533900D02*
X386027255Y-286471995D01*
X386027255Y-286471995D02*
X386089160Y-286348185D01*
X386089160Y-286348185D02*
X386089160Y-286100566D01*
X386089160Y-286100566D02*
X386027255Y-285976757D01*
X386027255Y-285976757D02*
X385965350Y-285914852D01*
X385965350Y-285914852D02*
X385841541Y-285852947D01*
D10*
D11*
X10000000Y-60000000D02*
X12000000Y-60000000D01*
D10*
D11*
X10000000Y-110000000D02*
X12000000Y-110000000D01*
D10*
D11*
X10000000Y-160000000D02*
X12000000Y-160000000D01*
D10*
D11*
X10000000Y-210000000D02*
X12000000Y-210000000D01*
D10*
D11*
X10000000Y-260000000D02*
X12000000Y-260000000D01*
D10*
D11*
X10690476Y-35222176D02*
X11309523Y-35222176D01*
X10566666Y-35593604D02*
X10999999Y-34293604D01*
X10999999Y-34293604D02*
X11433333Y-35593604D01*
D10*
D11*
X11092857Y-84912652D02*
X11278571Y-84974557D01*
X11278571Y-84974557D02*
X11340476Y-85036461D01*
X11340476Y-85036461D02*
X11402380Y-85160271D01*
X11402380Y-85160271D02*
X11402380Y-85345985D01*
X11402380Y-85345985D02*
X11340476Y-85469795D01*
X11340476Y-85469795D02*
X11278571Y-85531700D01*
X11278571Y-85531700D02*
X11154761Y-85593604D01*
X11154761Y-85593604D02*
X10659523Y-85593604D01*
X10659523Y-85593604D02*
X10659523Y-84293604D01*
X10659523Y-84293604D02*
X11092857Y-84293604D01*
X11092857Y-84293604D02*
X11216666Y-84355509D01*
X11216666Y-84355509D02*
X11278571Y-84417414D01*
X11278571Y-84417414D02*
X11340476Y-84541223D01*
X11340476Y-84541223D02*
X11340476Y-84665033D01*
X11340476Y-84665033D02*
X11278571Y-84788842D01*
X11278571Y-84788842D02*
X11216666Y-84850747D01*
X11216666Y-84850747D02*
X11092857Y-84912652D01*
X11092857Y-84912652D02*
X10659523Y-84912652D01*
D10*
D11*
X11402380Y-135469795D02*
X11340476Y-135531700D01*
X11340476Y-135531700D02*
X11154761Y-135593604D01*
X11154761Y-135593604D02*
X11030952Y-135593604D01*
X11030952Y-135593604D02*
X10845238Y-135531700D01*
X10845238Y-135531700D02*
X10721428Y-135407890D01*
X10721428Y-135407890D02*
X10659523Y-135284080D01*
X10659523Y-135284080D02*
X10597619Y-135036461D01*
X10597619Y-135036461D02*
X10597619Y-134850747D01*
X10597619Y-134850747D02*
X10659523Y-134603128D01*
X10659523Y-134603128D02*
X10721428Y-134479319D01*
X10721428Y-134479319D02*
X10845238Y-134355509D01*
X10845238Y-134355509D02*
X11030952Y-134293604D01*
X11030952Y-134293604D02*
X11154761Y-134293604D01*
X11154761Y-134293604D02*
X11340476Y-134355509D01*
X11340476Y-134355509D02*
X11402380Y-134417414D01*
D10*
D11*
X10659523Y-185593604D02*
X10659523Y-184293604D01*
X10659523Y-184293604D02*
X10969047Y-184293604D01*
X10969047Y-184293604D02*
X11154761Y-184355509D01*
X11154761Y-184355509D02*
X11278571Y-184479319D01*
X11278571Y-184479319D02*
X11340476Y-184603128D01*
X11340476Y-184603128D02*
X11402380Y-184850747D01*
X11402380Y-184850747D02*
X11402380Y-185036461D01*
X11402380Y-185036461D02*
X11340476Y-185284080D01*
X11340476Y-185284080D02*
X11278571Y-185407890D01*
X11278571Y-185407890D02*
X11154761Y-185531700D01*
X11154761Y-185531700D02*
X10969047Y-185593604D01*
X10969047Y-185593604D02*
X10659523Y-185593604D01*
D10*
D11*
X10721428Y-234912652D02*
X11154762Y-234912652D01*
X11340476Y-235593604D02*
X10721428Y-235593604D01*
X10721428Y-235593604D02*
X10721428Y-234293604D01*
X10721428Y-234293604D02*
X11340476Y-234293604D01*
D10*
D11*
X11185714Y-284912652D02*
X10752380Y-284912652D01*
X10752380Y-285593604D02*
X10752380Y-284293604D01*
X10752380Y-284293604D02*
X11371428Y-284293604D01*
D10*
D11*
X409989000Y-60000000D02*
X407989000Y-60000000D01*
D10*
D11*
X409989000Y-110000000D02*
X407989000Y-110000000D01*
D10*
D11*
X409989000Y-160000000D02*
X407989000Y-160000000D01*
D10*
D11*
X409989000Y-210000000D02*
X407989000Y-210000000D01*
D10*
D11*
X409989000Y-260000000D02*
X407989000Y-260000000D01*
D10*
D11*
X408679476Y-35222176D02*
X409298523Y-35222176D01*
X408555666Y-35593604D02*
X408988999Y-34293604D01*
X408988999Y-34293604D02*
X409422333Y-35593604D01*
D10*
D11*
X409081857Y-84912652D02*
X409267571Y-84974557D01*
X409267571Y-84974557D02*
X409329476Y-85036461D01*
X409329476Y-85036461D02*
X409391380Y-85160271D01*
X409391380Y-85160271D02*
X409391380Y-85345985D01*
X409391380Y-85345985D02*
X409329476Y-85469795D01*
X409329476Y-85469795D02*
X409267571Y-85531700D01*
X409267571Y-85531700D02*
X409143761Y-85593604D01*
X409143761Y-85593604D02*
X408648523Y-85593604D01*
X408648523Y-85593604D02*
X408648523Y-84293604D01*
X408648523Y-84293604D02*
X409081857Y-84293604D01*
X409081857Y-84293604D02*
X409205666Y-84355509D01*
X409205666Y-84355509D02*
X409267571Y-84417414D01*
X409267571Y-84417414D02*
X409329476Y-84541223D01*
X409329476Y-84541223D02*
X409329476Y-84665033D01*
X409329476Y-84665033D02*
X409267571Y-84788842D01*
X409267571Y-84788842D02*
X409205666Y-84850747D01*
X409205666Y-84850747D02*
X409081857Y-84912652D01*
X409081857Y-84912652D02*
X408648523Y-84912652D01*
D10*
D11*
X409391380Y-135469795D02*
X409329476Y-135531700D01*
X409329476Y-135531700D02*
X409143761Y-135593604D01*
X409143761Y-135593604D02*
X409019952Y-135593604D01*
X409019952Y-135593604D02*
X408834238Y-135531700D01*
X408834238Y-135531700D02*
X408710428Y-135407890D01*
X408710428Y-135407890D02*
X408648523Y-135284080D01*
X408648523Y-135284080D02*
X408586619Y-135036461D01*
X408586619Y-135036461D02*
X408586619Y-134850747D01*
X408586619Y-134850747D02*
X408648523Y-134603128D01*
X408648523Y-134603128D02*
X408710428Y-134479319D01*
X408710428Y-134479319D02*
X408834238Y-134355509D01*
X408834238Y-134355509D02*
X409019952Y-134293604D01*
X409019952Y-134293604D02*
X409143761Y-134293604D01*
X409143761Y-134293604D02*
X409329476Y-134355509D01*
X409329476Y-134355509D02*
X409391380Y-134417414D01*
D10*
D11*
X408648523Y-185593604D02*
X408648523Y-184293604D01*
X408648523Y-184293604D02*
X408958047Y-184293604D01*
X408958047Y-184293604D02*
X409143761Y-184355509D01*
X409143761Y-184355509D02*
X409267571Y-184479319D01*
X409267571Y-184479319D02*
X409329476Y-184603128D01*
X409329476Y-184603128D02*
X409391380Y-184850747D01*
X409391380Y-184850747D02*
X409391380Y-185036461D01*
X409391380Y-185036461D02*
X409329476Y-185284080D01*
X409329476Y-185284080D02*
X409267571Y-185407890D01*
X409267571Y-185407890D02*
X409143761Y-185531700D01*
X409143761Y-185531700D02*
X408958047Y-185593604D01*
X408958047Y-185593604D02*
X408648523Y-185593604D01*
D10*
D11*
X408710428Y-234912652D02*
X409143762Y-234912652D01*
X409329476Y-235593604D02*
X408710428Y-235593604D01*
X408710428Y-235593604D02*
X408710428Y-234293604D01*
X408710428Y-234293604D02*
X409329476Y-234293604D01*
D10*
D11*
X409174714Y-284912652D02*
X408741380Y-284912652D01*
X408741380Y-285593604D02*
X408741380Y-284293604D01*
X408741380Y-284293604D02*
X409360428Y-284293604D01*
D10*
D11*
X323444826Y-280788328D02*
X323444826Y-279288328D01*
X323444826Y-279288328D02*
X323801969Y-279288328D01*
X323801969Y-279288328D02*
X324016255Y-279359757D01*
X324016255Y-279359757D02*
X324159112Y-279502614D01*
X324159112Y-279502614D02*
X324230541Y-279645471D01*
X324230541Y-279645471D02*
X324301969Y-279931185D01*
X324301969Y-279931185D02*
X324301969Y-280145471D01*
X324301969Y-280145471D02*
X324230541Y-280431185D01*
X324230541Y-280431185D02*
X324159112Y-280574042D01*
X324159112Y-280574042D02*
X324016255Y-280716900D01*
X324016255Y-280716900D02*
X323801969Y-280788328D01*
X323801969Y-280788328D02*
X323444826Y-280788328D01*
X325587684Y-280788328D02*
X325587684Y-280002614D01*
X325587684Y-280002614D02*
X325516255Y-279859757D01*
X325516255Y-279859757D02*
X325373398Y-279788328D01*
X325373398Y-279788328D02*
X325087684Y-279788328D01*
X325087684Y-279788328D02*
X324944826Y-279859757D01*
X325587684Y-280716900D02*
X325444826Y-280788328D01*
X325444826Y-280788328D02*
X325087684Y-280788328D01*
X325087684Y-280788328D02*
X324944826Y-280716900D01*
X324944826Y-280716900D02*
X324873398Y-280574042D01*
X324873398Y-280574042D02*
X324873398Y-280431185D01*
X324873398Y-280431185D02*
X324944826Y-280288328D01*
X324944826Y-280288328D02*
X325087684Y-280216900D01*
X325087684Y-280216900D02*
X325444826Y-280216900D01*
X325444826Y-280216900D02*
X325587684Y-280145471D01*
X326087684Y-279788328D02*
X326659112Y-279788328D01*
X326301969Y-279288328D02*
X326301969Y-280574042D01*
X326301969Y-280574042D02*
X326373398Y-280716900D01*
X326373398Y-280716900D02*
X326516255Y-280788328D01*
X326516255Y-280788328D02*
X326659112Y-280788328D01*
X327730541Y-280716900D02*
X327587684Y-280788328D01*
X327587684Y-280788328D02*
X327301970Y-280788328D01*
X327301970Y-280788328D02*
X327159112Y-280716900D01*
X327159112Y-280716900D02*
X327087684Y-280574042D01*
X327087684Y-280574042D02*
X327087684Y-280002614D01*
X327087684Y-280002614D02*
X327159112Y-279859757D01*
X327159112Y-279859757D02*
X327301970Y-279788328D01*
X327301970Y-279788328D02*
X327587684Y-279788328D01*
X327587684Y-279788328D02*
X327730541Y-279859757D01*
X327730541Y-279859757D02*
X327801970Y-280002614D01*
X327801970Y-280002614D02*
X327801970Y-280145471D01*
X327801970Y-280145471D02*
X327087684Y-280288328D01*
X328444826Y-280645471D02*
X328516255Y-280716900D01*
X328516255Y-280716900D02*
X328444826Y-280788328D01*
X328444826Y-280788328D02*
X328373398Y-280716900D01*
X328373398Y-280716900D02*
X328444826Y-280645471D01*
X328444826Y-280645471D02*
X328444826Y-280788328D01*
X328444826Y-279859757D02*
X328516255Y-279931185D01*
X328516255Y-279931185D02*
X328444826Y-280002614D01*
X328444826Y-280002614D02*
X328373398Y-279931185D01*
X328373398Y-279931185D02*
X328444826Y-279859757D01*
X328444826Y-279859757D02*
X328444826Y-280002614D01*
X330230541Y-279431185D02*
X330301969Y-279359757D01*
X330301969Y-279359757D02*
X330444827Y-279288328D01*
X330444827Y-279288328D02*
X330801969Y-279288328D01*
X330801969Y-279288328D02*
X330944827Y-279359757D01*
X330944827Y-279359757D02*
X331016255Y-279431185D01*
X331016255Y-279431185D02*
X331087684Y-279574042D01*
X331087684Y-279574042D02*
X331087684Y-279716900D01*
X331087684Y-279716900D02*
X331016255Y-279931185D01*
X331016255Y-279931185D02*
X330159112Y-280788328D01*
X330159112Y-280788328D02*
X331087684Y-280788328D01*
X332016255Y-279288328D02*
X332159112Y-279288328D01*
X332159112Y-279288328D02*
X332301969Y-279359757D01*
X332301969Y-279359757D02*
X332373398Y-279431185D01*
X332373398Y-279431185D02*
X332444826Y-279574042D01*
X332444826Y-279574042D02*
X332516255Y-279859757D01*
X332516255Y-279859757D02*
X332516255Y-280216900D01*
X332516255Y-280216900D02*
X332444826Y-280502614D01*
X332444826Y-280502614D02*
X332373398Y-280645471D01*
X332373398Y-280645471D02*
X332301969Y-280716900D01*
X332301969Y-280716900D02*
X332159112Y-280788328D01*
X332159112Y-280788328D02*
X332016255Y-280788328D01*
X332016255Y-280788328D02*
X331873398Y-280716900D01*
X331873398Y-280716900D02*
X331801969Y-280645471D01*
X331801969Y-280645471D02*
X331730540Y-280502614D01*
X331730540Y-280502614D02*
X331659112Y-280216900D01*
X331659112Y-280216900D02*
X331659112Y-279859757D01*
X331659112Y-279859757D02*
X331730540Y-279574042D01*
X331730540Y-279574042D02*
X331801969Y-279431185D01*
X331801969Y-279431185D02*
X331873398Y-279359757D01*
X331873398Y-279359757D02*
X332016255Y-279288328D01*
X333087683Y-279431185D02*
X333159111Y-279359757D01*
X333159111Y-279359757D02*
X333301969Y-279288328D01*
X333301969Y-279288328D02*
X333659111Y-279288328D01*
X333659111Y-279288328D02*
X333801969Y-279359757D01*
X333801969Y-279359757D02*
X333873397Y-279431185D01*
X333873397Y-279431185D02*
X333944826Y-279574042D01*
X333944826Y-279574042D02*
X333944826Y-279716900D01*
X333944826Y-279716900D02*
X333873397Y-279931185D01*
X333873397Y-279931185D02*
X333016254Y-280788328D01*
X333016254Y-280788328D02*
X333944826Y-280788328D01*
X335230540Y-279788328D02*
X335230540Y-280788328D01*
X334873397Y-279216900D02*
X334516254Y-280288328D01*
X334516254Y-280288328D02*
X335444825Y-280288328D01*
X336016253Y-280216900D02*
X337159111Y-280216900D01*
X338159111Y-279288328D02*
X338301968Y-279288328D01*
X338301968Y-279288328D02*
X338444825Y-279359757D01*
X338444825Y-279359757D02*
X338516254Y-279431185D01*
X338516254Y-279431185D02*
X338587682Y-279574042D01*
X338587682Y-279574042D02*
X338659111Y-279859757D01*
X338659111Y-279859757D02*
X338659111Y-280216900D01*
X338659111Y-280216900D02*
X338587682Y-280502614D01*
X338587682Y-280502614D02*
X338516254Y-280645471D01*
X338516254Y-280645471D02*
X338444825Y-280716900D01*
X338444825Y-280716900D02*
X338301968Y-280788328D01*
X338301968Y-280788328D02*
X338159111Y-280788328D01*
X338159111Y-280788328D02*
X338016254Y-280716900D01*
X338016254Y-280716900D02*
X337944825Y-280645471D01*
X337944825Y-280645471D02*
X337873396Y-280502614D01*
X337873396Y-280502614D02*
X337801968Y-280216900D01*
X337801968Y-280216900D02*
X337801968Y-279859757D01*
X337801968Y-279859757D02*
X337873396Y-279574042D01*
X337873396Y-279574042D02*
X337944825Y-279431185D01*
X337944825Y-279431185D02*
X338016254Y-279359757D01*
X338016254Y-279359757D02*
X338159111Y-279288328D01*
X339944825Y-279788328D02*
X339944825Y-280788328D01*
X339587682Y-279216900D02*
X339230539Y-280288328D01*
X339230539Y-280288328D02*
X340159110Y-280288328D01*
X340730538Y-280216900D02*
X341873396Y-280216900D01*
X342873396Y-279288328D02*
X343016253Y-279288328D01*
X343016253Y-279288328D02*
X343159110Y-279359757D01*
X343159110Y-279359757D02*
X343230539Y-279431185D01*
X343230539Y-279431185D02*
X343301967Y-279574042D01*
X343301967Y-279574042D02*
X343373396Y-279859757D01*
X343373396Y-279859757D02*
X343373396Y-280216900D01*
X343373396Y-280216900D02*
X343301967Y-280502614D01*
X343301967Y-280502614D02*
X343230539Y-280645471D01*
X343230539Y-280645471D02*
X343159110Y-280716900D01*
X343159110Y-280716900D02*
X343016253Y-280788328D01*
X343016253Y-280788328D02*
X342873396Y-280788328D01*
X342873396Y-280788328D02*
X342730539Y-280716900D01*
X342730539Y-280716900D02*
X342659110Y-280645471D01*
X342659110Y-280645471D02*
X342587681Y-280502614D01*
X342587681Y-280502614D02*
X342516253Y-280216900D01*
X342516253Y-280216900D02*
X342516253Y-279859757D01*
X342516253Y-279859757D02*
X342587681Y-279574042D01*
X342587681Y-279574042D02*
X342659110Y-279431185D01*
X342659110Y-279431185D02*
X342730539Y-279359757D01*
X342730539Y-279359757D02*
X342873396Y-279288328D01*
X343873395Y-279288328D02*
X344801967Y-279288328D01*
X344801967Y-279288328D02*
X344301967Y-279859757D01*
X344301967Y-279859757D02*
X344516252Y-279859757D01*
X344516252Y-279859757D02*
X344659110Y-279931185D01*
X344659110Y-279931185D02*
X344730538Y-280002614D01*
X344730538Y-280002614D02*
X344801967Y-280145471D01*
X344801967Y-280145471D02*
X344801967Y-280502614D01*
X344801967Y-280502614D02*
X344730538Y-280645471D01*
X344730538Y-280645471D02*
X344659110Y-280716900D01*
X344659110Y-280716900D02*
X344516252Y-280788328D01*
X344516252Y-280788328D02*
X344087681Y-280788328D01*
X344087681Y-280788328D02*
X343944824Y-280716900D01*
X343944824Y-280716900D02*
X343873395Y-280645471D01*
D10*
D11*
X299989000Y-281502200D02*
X407989000Y-281502200D01*
D10*
D11*
X301444826Y-283588328D02*
X301444826Y-282088328D01*
X302301969Y-283588328D02*
X301659112Y-282731185D01*
X302301969Y-282088328D02*
X301444826Y-282945471D01*
X302944826Y-283588328D02*
X302944826Y-282588328D01*
X302944826Y-282088328D02*
X302873398Y-282159757D01*
X302873398Y-282159757D02*
X302944826Y-282231185D01*
X302944826Y-282231185D02*
X303016255Y-282159757D01*
X303016255Y-282159757D02*
X302944826Y-282088328D01*
X302944826Y-282088328D02*
X302944826Y-282231185D01*
X304516255Y-283445471D02*
X304444827Y-283516900D01*
X304444827Y-283516900D02*
X304230541Y-283588328D01*
X304230541Y-283588328D02*
X304087684Y-283588328D01*
X304087684Y-283588328D02*
X303873398Y-283516900D01*
X303873398Y-283516900D02*
X303730541Y-283374042D01*
X303730541Y-283374042D02*
X303659112Y-283231185D01*
X303659112Y-283231185D02*
X303587684Y-282945471D01*
X303587684Y-282945471D02*
X303587684Y-282731185D01*
X303587684Y-282731185D02*
X303659112Y-282445471D01*
X303659112Y-282445471D02*
X303730541Y-282302614D01*
X303730541Y-282302614D02*
X303873398Y-282159757D01*
X303873398Y-282159757D02*
X304087684Y-282088328D01*
X304087684Y-282088328D02*
X304230541Y-282088328D01*
X304230541Y-282088328D02*
X304444827Y-282159757D01*
X304444827Y-282159757D02*
X304516255Y-282231185D01*
X305801970Y-283588328D02*
X305801970Y-282802614D01*
X305801970Y-282802614D02*
X305730541Y-282659757D01*
X305730541Y-282659757D02*
X305587684Y-282588328D01*
X305587684Y-282588328D02*
X305301970Y-282588328D01*
X305301970Y-282588328D02*
X305159112Y-282659757D01*
X305801970Y-283516900D02*
X305659112Y-283588328D01*
X305659112Y-283588328D02*
X305301970Y-283588328D01*
X305301970Y-283588328D02*
X305159112Y-283516900D01*
X305159112Y-283516900D02*
X305087684Y-283374042D01*
X305087684Y-283374042D02*
X305087684Y-283231185D01*
X305087684Y-283231185D02*
X305159112Y-283088328D01*
X305159112Y-283088328D02*
X305301970Y-283016900D01*
X305301970Y-283016900D02*
X305659112Y-283016900D01*
X305659112Y-283016900D02*
X305801970Y-282945471D01*
X307159113Y-283588328D02*
X307159113Y-282088328D01*
X307159113Y-283516900D02*
X307016255Y-283588328D01*
X307016255Y-283588328D02*
X306730541Y-283588328D01*
X306730541Y-283588328D02*
X306587684Y-283516900D01*
X306587684Y-283516900D02*
X306516255Y-283445471D01*
X306516255Y-283445471D02*
X306444827Y-283302614D01*
X306444827Y-283302614D02*
X306444827Y-282874042D01*
X306444827Y-282874042D02*
X306516255Y-282731185D01*
X306516255Y-282731185D02*
X306587684Y-282659757D01*
X306587684Y-282659757D02*
X306730541Y-282588328D01*
X306730541Y-282588328D02*
X307016255Y-282588328D01*
X307016255Y-282588328D02*
X307159113Y-282659757D01*
X309016255Y-282802614D02*
X309516255Y-282802614D01*
X309730541Y-283588328D02*
X309016255Y-283588328D01*
X309016255Y-283588328D02*
X309016255Y-282088328D01*
X309016255Y-282088328D02*
X309730541Y-282088328D01*
X310373398Y-283445471D02*
X310444827Y-283516900D01*
X310444827Y-283516900D02*
X310373398Y-283588328D01*
X310373398Y-283588328D02*
X310301970Y-283516900D01*
X310301970Y-283516900D02*
X310373398Y-283445471D01*
X310373398Y-283445471D02*
X310373398Y-283588328D01*
X311087684Y-283588328D02*
X311087684Y-282088328D01*
X311087684Y-282088328D02*
X311444827Y-282088328D01*
X311444827Y-282088328D02*
X311659113Y-282159757D01*
X311659113Y-282159757D02*
X311801970Y-282302614D01*
X311801970Y-282302614D02*
X311873399Y-282445471D01*
X311873399Y-282445471D02*
X311944827Y-282731185D01*
X311944827Y-282731185D02*
X311944827Y-282945471D01*
X311944827Y-282945471D02*
X311873399Y-283231185D01*
X311873399Y-283231185D02*
X311801970Y-283374042D01*
X311801970Y-283374042D02*
X311659113Y-283516900D01*
X311659113Y-283516900D02*
X311444827Y-283588328D01*
X311444827Y-283588328D02*
X311087684Y-283588328D01*
X312587684Y-283445471D02*
X312659113Y-283516900D01*
X312659113Y-283516900D02*
X312587684Y-283588328D01*
X312587684Y-283588328D02*
X312516256Y-283516900D01*
X312516256Y-283516900D02*
X312587684Y-283445471D01*
X312587684Y-283445471D02*
X312587684Y-283588328D01*
X313230542Y-283159757D02*
X313944828Y-283159757D01*
X313087685Y-283588328D02*
X313587685Y-282088328D01*
X313587685Y-282088328D02*
X314087685Y-283588328D01*
X314587684Y-283445471D02*
X314659113Y-283516900D01*
X314659113Y-283516900D02*
X314587684Y-283588328D01*
X314587684Y-283588328D02*
X314516256Y-283516900D01*
X314516256Y-283516900D02*
X314587684Y-283445471D01*
X314587684Y-283445471D02*
X314587684Y-283588328D01*
X316659113Y-282731185D02*
X316516256Y-282659757D01*
X316516256Y-282659757D02*
X316444827Y-282588328D01*
X316444827Y-282588328D02*
X316373399Y-282445471D01*
X316373399Y-282445471D02*
X316373399Y-282374042D01*
X316373399Y-282374042D02*
X316444827Y-282231185D01*
X316444827Y-282231185D02*
X316516256Y-282159757D01*
X316516256Y-282159757D02*
X316659113Y-282088328D01*
X316659113Y-282088328D02*
X316944827Y-282088328D01*
X316944827Y-282088328D02*
X317087685Y-282159757D01*
X317087685Y-282159757D02*
X317159113Y-282231185D01*
X317159113Y-282231185D02*
X317230542Y-282374042D01*
X317230542Y-282374042D02*
X317230542Y-282445471D01*
X317230542Y-282445471D02*
X317159113Y-282588328D01*
X317159113Y-282588328D02*
X317087685Y-282659757D01*
X317087685Y-282659757D02*
X316944827Y-282731185D01*
X316944827Y-282731185D02*
X316659113Y-282731185D01*
X316659113Y-282731185D02*
X316516256Y-282802614D01*
X316516256Y-282802614D02*
X316444827Y-282874042D01*
X316444827Y-282874042D02*
X316373399Y-283016900D01*
X316373399Y-283016900D02*
X316373399Y-283302614D01*
X316373399Y-283302614D02*
X316444827Y-283445471D01*
X316444827Y-283445471D02*
X316516256Y-283516900D01*
X316516256Y-283516900D02*
X316659113Y-283588328D01*
X316659113Y-283588328D02*
X316944827Y-283588328D01*
X316944827Y-283588328D02*
X317087685Y-283516900D01*
X317087685Y-283516900D02*
X317159113Y-283445471D01*
X317159113Y-283445471D02*
X317230542Y-283302614D01*
X317230542Y-283302614D02*
X317230542Y-283016900D01*
X317230542Y-283016900D02*
X317159113Y-282874042D01*
X317159113Y-282874042D02*
X317087685Y-282802614D01*
X317087685Y-282802614D02*
X316944827Y-282731185D01*
X317873398Y-283445471D02*
X317944827Y-283516900D01*
X317944827Y-283516900D02*
X317873398Y-283588328D01*
X317873398Y-283588328D02*
X317801970Y-283516900D01*
X317801970Y-283516900D02*
X317873398Y-283445471D01*
X317873398Y-283445471D02*
X317873398Y-283588328D01*
X318873399Y-282088328D02*
X319016256Y-282088328D01*
X319016256Y-282088328D02*
X319159113Y-282159757D01*
X319159113Y-282159757D02*
X319230542Y-282231185D01*
X319230542Y-282231185D02*
X319301970Y-282374042D01*
X319301970Y-282374042D02*
X319373399Y-282659757D01*
X319373399Y-282659757D02*
X319373399Y-283016900D01*
X319373399Y-283016900D02*
X319301970Y-283302614D01*
X319301970Y-283302614D02*
X319230542Y-283445471D01*
X319230542Y-283445471D02*
X319159113Y-283516900D01*
X319159113Y-283516900D02*
X319016256Y-283588328D01*
X319016256Y-283588328D02*
X318873399Y-283588328D01*
X318873399Y-283588328D02*
X318730542Y-283516900D01*
X318730542Y-283516900D02*
X318659113Y-283445471D01*
X318659113Y-283445471D02*
X318587684Y-283302614D01*
X318587684Y-283302614D02*
X318516256Y-283016900D01*
X318516256Y-283016900D02*
X318516256Y-282659757D01*
X318516256Y-282659757D02*
X318587684Y-282374042D01*
X318587684Y-282374042D02*
X318659113Y-282231185D01*
X318659113Y-282231185D02*
X318730542Y-282159757D01*
X318730542Y-282159757D02*
X318873399Y-282088328D01*
X320016255Y-283445471D02*
X320087684Y-283516900D01*
X320087684Y-283516900D02*
X320016255Y-283588328D01*
X320016255Y-283588328D02*
X319944827Y-283516900D01*
X319944827Y-283516900D02*
X320016255Y-283445471D01*
X320016255Y-283445471D02*
X320016255Y-283588328D01*
X321373399Y-282088328D02*
X321087684Y-282088328D01*
X321087684Y-282088328D02*
X320944827Y-282159757D01*
X320944827Y-282159757D02*
X320873399Y-282231185D01*
X320873399Y-282231185D02*
X320730541Y-282445471D01*
X320730541Y-282445471D02*
X320659113Y-282731185D01*
X320659113Y-282731185D02*
X320659113Y-283302614D01*
X320659113Y-283302614D02*
X320730541Y-283445471D01*
X320730541Y-283445471D02*
X320801970Y-283516900D01*
X320801970Y-283516900D02*
X320944827Y-283588328D01*
X320944827Y-283588328D02*
X321230541Y-283588328D01*
X321230541Y-283588328D02*
X321373399Y-283516900D01*
X321373399Y-283516900D02*
X321444827Y-283445471D01*
X321444827Y-283445471D02*
X321516256Y-283302614D01*
X321516256Y-283302614D02*
X321516256Y-282945471D01*
X321516256Y-282945471D02*
X321444827Y-282802614D01*
X321444827Y-282802614D02*
X321373399Y-282731185D01*
X321373399Y-282731185D02*
X321230541Y-282659757D01*
X321230541Y-282659757D02*
X320944827Y-282659757D01*
X320944827Y-282659757D02*
X320801970Y-282731185D01*
X320801970Y-282731185D02*
X320730541Y-282802614D01*
X320730541Y-282802614D02*
X320659113Y-282945471D01*
D10*
D11*
X299989000Y-278502200D02*
X407989000Y-278502200D01*
D10*
D12*
X387400653Y-280780528D02*
X386900653Y-280066242D01*
X386543510Y-280780528D02*
X386543510Y-279280528D01*
X386543510Y-279280528D02*
X387114939Y-279280528D01*
X387114939Y-279280528D02*
X387257796Y-279351957D01*
X387257796Y-279351957D02*
X387329225Y-279423385D01*
X387329225Y-279423385D02*
X387400653Y-279566242D01*
X387400653Y-279566242D02*
X387400653Y-279780528D01*
X387400653Y-279780528D02*
X387329225Y-279923385D01*
X387329225Y-279923385D02*
X387257796Y-279994814D01*
X387257796Y-279994814D02*
X387114939Y-280066242D01*
X387114939Y-280066242D02*
X386543510Y-280066242D01*
X388614939Y-280709100D02*
X388472082Y-280780528D01*
X388472082Y-280780528D02*
X388186368Y-280780528D01*
X388186368Y-280780528D02*
X388043510Y-280709100D01*
X388043510Y-280709100D02*
X387972082Y-280566242D01*
X387972082Y-280566242D02*
X387972082Y-279994814D01*
X387972082Y-279994814D02*
X388043510Y-279851957D01*
X388043510Y-279851957D02*
X388186368Y-279780528D01*
X388186368Y-279780528D02*
X388472082Y-279780528D01*
X388472082Y-279780528D02*
X388614939Y-279851957D01*
X388614939Y-279851957D02*
X388686368Y-279994814D01*
X388686368Y-279994814D02*
X388686368Y-280137671D01*
X388686368Y-280137671D02*
X387972082Y-280280528D01*
X389186367Y-279780528D02*
X389543510Y-280780528D01*
X389543510Y-280780528D02*
X389900653Y-279780528D01*
X390472081Y-280637671D02*
X390543510Y-280709100D01*
X390543510Y-280709100D02*
X390472081Y-280780528D01*
X390472081Y-280780528D02*
X390400653Y-280709100D01*
X390400653Y-280709100D02*
X390472081Y-280637671D01*
X390472081Y-280637671D02*
X390472081Y-280780528D01*
X390472081Y-279851957D02*
X390543510Y-279923385D01*
X390543510Y-279923385D02*
X390472081Y-279994814D01*
X390472081Y-279994814D02*
X390400653Y-279923385D01*
X390400653Y-279923385D02*
X390472081Y-279851957D01*
X390472081Y-279851957D02*
X390472081Y-279994814D01*
X392114939Y-279280528D02*
X392614939Y-280780528D01*
X392614939Y-280780528D02*
X393114939Y-279280528D01*
X393543510Y-279423385D02*
X393614938Y-279351957D01*
X393614938Y-279351957D02*
X393757796Y-279280528D01*
X393757796Y-279280528D02*
X394114938Y-279280528D01*
X394114938Y-279280528D02*
X394257796Y-279351957D01*
X394257796Y-279351957D02*
X394329224Y-279423385D01*
X394329224Y-279423385D02*
X394400653Y-279566242D01*
X394400653Y-279566242D02*
X394400653Y-279709100D01*
X394400653Y-279709100D02*
X394329224Y-279923385D01*
X394329224Y-279923385D02*
X393472081Y-280780528D01*
X393472081Y-280780528D02*
X394400653Y-280780528D01*
D10*
D11*
X301373398Y-280716900D02*
X301587684Y-280788328D01*
X301587684Y-280788328D02*
X301944826Y-280788328D01*
X301944826Y-280788328D02*
X302087684Y-280716900D01*
X302087684Y-280716900D02*
X302159112Y-280645471D01*
X302159112Y-280645471D02*
X302230541Y-280502614D01*
X302230541Y-280502614D02*
X302230541Y-280359757D01*
X302230541Y-280359757D02*
X302159112Y-280216900D01*
X302159112Y-280216900D02*
X302087684Y-280145471D01*
X302087684Y-280145471D02*
X301944826Y-280074042D01*
X301944826Y-280074042D02*
X301659112Y-280002614D01*
X301659112Y-280002614D02*
X301516255Y-279931185D01*
X301516255Y-279931185D02*
X301444826Y-279859757D01*
X301444826Y-279859757D02*
X301373398Y-279716900D01*
X301373398Y-279716900D02*
X301373398Y-279574042D01*
X301373398Y-279574042D02*
X301444826Y-279431185D01*
X301444826Y-279431185D02*
X301516255Y-279359757D01*
X301516255Y-279359757D02*
X301659112Y-279288328D01*
X301659112Y-279288328D02*
X302016255Y-279288328D01*
X302016255Y-279288328D02*
X302230541Y-279359757D01*
X302873397Y-280788328D02*
X302873397Y-279788328D01*
X302873397Y-279288328D02*
X302801969Y-279359757D01*
X302801969Y-279359757D02*
X302873397Y-279431185D01*
X302873397Y-279431185D02*
X302944826Y-279359757D01*
X302944826Y-279359757D02*
X302873397Y-279288328D01*
X302873397Y-279288328D02*
X302873397Y-279431185D01*
X303444826Y-279788328D02*
X304230541Y-279788328D01*
X304230541Y-279788328D02*
X303444826Y-280788328D01*
X303444826Y-280788328D02*
X304230541Y-280788328D01*
X305373398Y-280716900D02*
X305230541Y-280788328D01*
X305230541Y-280788328D02*
X304944827Y-280788328D01*
X304944827Y-280788328D02*
X304801969Y-280716900D01*
X304801969Y-280716900D02*
X304730541Y-280574042D01*
X304730541Y-280574042D02*
X304730541Y-280002614D01*
X304730541Y-280002614D02*
X304801969Y-279859757D01*
X304801969Y-279859757D02*
X304944827Y-279788328D01*
X304944827Y-279788328D02*
X305230541Y-279788328D01*
X305230541Y-279788328D02*
X305373398Y-279859757D01*
X305373398Y-279859757D02*
X305444827Y-280002614D01*
X305444827Y-280002614D02*
X305444827Y-280145471D01*
X305444827Y-280145471D02*
X304730541Y-280288328D01*
X306087683Y-280645471D02*
X306159112Y-280716900D01*
X306159112Y-280716900D02*
X306087683Y-280788328D01*
X306087683Y-280788328D02*
X306016255Y-280716900D01*
X306016255Y-280716900D02*
X306087683Y-280645471D01*
X306087683Y-280645471D02*
X306087683Y-280788328D01*
X306087683Y-279859757D02*
X306159112Y-279931185D01*
X306159112Y-279931185D02*
X306087683Y-280002614D01*
X306087683Y-280002614D02*
X306016255Y-279931185D01*
X306016255Y-279931185D02*
X306087683Y-279859757D01*
X306087683Y-279859757D02*
X306087683Y-280002614D01*
X307873398Y-280359757D02*
X308587684Y-280359757D01*
X307730541Y-280788328D02*
X308230541Y-279288328D01*
X308230541Y-279288328D02*
X308730541Y-280788328D01*
X309087683Y-279288328D02*
X310016255Y-279288328D01*
X310016255Y-279288328D02*
X309516255Y-279859757D01*
X309516255Y-279859757D02*
X309730540Y-279859757D01*
X309730540Y-279859757D02*
X309873398Y-279931185D01*
X309873398Y-279931185D02*
X309944826Y-280002614D01*
X309944826Y-280002614D02*
X310016255Y-280145471D01*
X310016255Y-280145471D02*
X310016255Y-280502614D01*
X310016255Y-280502614D02*
X309944826Y-280645471D01*
X309944826Y-280645471D02*
X309873398Y-280716900D01*
X309873398Y-280716900D02*
X309730540Y-280788328D01*
X309730540Y-280788328D02*
X309301969Y-280788328D01*
X309301969Y-280788328D02*
X309159112Y-280716900D01*
X309159112Y-280716900D02*
X309087683Y-280645471D01*
D10*
D11*
X386444826Y-283588328D02*
X386444826Y-282088328D01*
X387801970Y-283588328D02*
X387801970Y-282088328D01*
X387801970Y-283516900D02*
X387659112Y-283588328D01*
X387659112Y-283588328D02*
X387373398Y-283588328D01*
X387373398Y-283588328D02*
X387230541Y-283516900D01*
X387230541Y-283516900D02*
X387159112Y-283445471D01*
X387159112Y-283445471D02*
X387087684Y-283302614D01*
X387087684Y-283302614D02*
X387087684Y-282874042D01*
X387087684Y-282874042D02*
X387159112Y-282731185D01*
X387159112Y-282731185D02*
X387230541Y-282659757D01*
X387230541Y-282659757D02*
X387373398Y-282588328D01*
X387373398Y-282588328D02*
X387659112Y-282588328D01*
X387659112Y-282588328D02*
X387801970Y-282659757D01*
X388516255Y-283445471D02*
X388587684Y-283516900D01*
X388587684Y-283516900D02*
X388516255Y-283588328D01*
X388516255Y-283588328D02*
X388444827Y-283516900D01*
X388444827Y-283516900D02*
X388516255Y-283445471D01*
X388516255Y-283445471D02*
X388516255Y-283588328D01*
X388516255Y-282659757D02*
X388587684Y-282731185D01*
X388587684Y-282731185D02*
X388516255Y-282802614D01*
X388516255Y-282802614D02*
X388444827Y-282731185D01*
X388444827Y-282731185D02*
X388516255Y-282659757D01*
X388516255Y-282659757D02*
X388516255Y-282802614D01*
X391159113Y-283588328D02*
X390301970Y-283588328D01*
X390730541Y-283588328D02*
X390730541Y-282088328D01*
X390730541Y-282088328D02*
X390587684Y-282302614D01*
X390587684Y-282302614D02*
X390444827Y-282445471D01*
X390444827Y-282445471D02*
X390301970Y-282516900D01*
X392873398Y-282016900D02*
X391587684Y-283945471D01*
X394159113Y-283588328D02*
X393301970Y-283588328D01*
X393730541Y-283588328D02*
X393730541Y-282088328D01*
X393730541Y-282088328D02*
X393587684Y-282302614D01*
X393587684Y-282302614D02*
X393444827Y-282445471D01*
X393444827Y-282445471D02*
X393301970Y-282516900D01*
D10*
D11*
X299989000Y-274502200D02*
X407989000Y-274502200D01*
D10*
D13*
X301680728Y-275206638D02*
X302823585Y-275206638D01*
X302002157Y-277206638D02*
X302252157Y-275206638D01*
X303240252Y-277206638D02*
X303406919Y-275873304D01*
X303490252Y-275206638D02*
X303383109Y-275301876D01*
X303383109Y-275301876D02*
X303466443Y-275397114D01*
X303466443Y-275397114D02*
X303573586Y-275301876D01*
X303573586Y-275301876D02*
X303490252Y-275206638D01*
X303490252Y-275206638D02*
X303466443Y-275397114D01*
X304073586Y-275873304D02*
X304835490Y-275873304D01*
X304442633Y-275206638D02*
X304228348Y-276920923D01*
X304228348Y-276920923D02*
X304299776Y-277111400D01*
X304299776Y-277111400D02*
X304478348Y-277206638D01*
X304478348Y-277206638D02*
X304668824Y-277206638D01*
X305621205Y-277206638D02*
X305442633Y-277111400D01*
X305442633Y-277111400D02*
X305371205Y-276920923D01*
X305371205Y-276920923D02*
X305585490Y-275206638D01*
X307156919Y-277111400D02*
X306954538Y-277206638D01*
X306954538Y-277206638D02*
X306573585Y-277206638D01*
X306573585Y-277206638D02*
X306395014Y-277111400D01*
X306395014Y-277111400D02*
X306323585Y-276920923D01*
X306323585Y-276920923D02*
X306418824Y-276159019D01*
X306418824Y-276159019D02*
X306537871Y-275968542D01*
X306537871Y-275968542D02*
X306740252Y-275873304D01*
X306740252Y-275873304D02*
X307121204Y-275873304D01*
X307121204Y-275873304D02*
X307299776Y-275968542D01*
X307299776Y-275968542D02*
X307371204Y-276159019D01*
X307371204Y-276159019D02*
X307347395Y-276349495D01*
X307347395Y-276349495D02*
X306371204Y-276539971D01*
X308121205Y-277016161D02*
X308204538Y-277111400D01*
X308204538Y-277111400D02*
X308097395Y-277206638D01*
X308097395Y-277206638D02*
X308014062Y-277111400D01*
X308014062Y-277111400D02*
X308121205Y-277016161D01*
X308121205Y-277016161D02*
X308097395Y-277206638D01*
X308252157Y-275968542D02*
X308335490Y-276063780D01*
X308335490Y-276063780D02*
X308228348Y-276159019D01*
X308228348Y-276159019D02*
X308145014Y-276063780D01*
X308145014Y-276063780D02*
X308252157Y-275968542D01*
X308252157Y-275968542D02*
X308228348Y-276159019D01*
X310490253Y-277111400D02*
X310668824Y-277206638D01*
X310668824Y-277206638D02*
X311049777Y-277206638D01*
X311049777Y-277206638D02*
X311252158Y-277111400D01*
X311252158Y-277111400D02*
X311371205Y-276920923D01*
X311371205Y-276920923D02*
X311383110Y-276825685D01*
X311383110Y-276825685D02*
X311311681Y-276635209D01*
X311311681Y-276635209D02*
X311133110Y-276539971D01*
X311133110Y-276539971D02*
X310847396Y-276539971D01*
X310847396Y-276539971D02*
X310668824Y-276444733D01*
X310668824Y-276444733D02*
X310597396Y-276254257D01*
X310597396Y-276254257D02*
X310609301Y-276159019D01*
X310609301Y-276159019D02*
X310728348Y-275968542D01*
X310728348Y-275968542D02*
X310930729Y-275873304D01*
X310930729Y-275873304D02*
X311216443Y-275873304D01*
X311216443Y-275873304D02*
X311395015Y-275968542D01*
X312073587Y-275873304D02*
X312835491Y-275873304D01*
X312442634Y-275206638D02*
X312228349Y-276920923D01*
X312228349Y-276920923D02*
X312299777Y-277111400D01*
X312299777Y-277111400D02*
X312478349Y-277206638D01*
X312478349Y-277206638D02*
X312668825Y-277206638D01*
X313335491Y-277206638D02*
X313502158Y-275873304D01*
X313478348Y-276063780D02*
X313585491Y-275968542D01*
X313585491Y-275968542D02*
X313787872Y-275873304D01*
X313787872Y-275873304D02*
X314073586Y-275873304D01*
X314073586Y-275873304D02*
X314252158Y-275968542D01*
X314252158Y-275968542D02*
X314323586Y-276159019D01*
X314323586Y-276159019D02*
X314192634Y-277206638D01*
X314323586Y-276159019D02*
X314442634Y-275968542D01*
X314442634Y-275968542D02*
X314645015Y-275873304D01*
X314645015Y-275873304D02*
X314930729Y-275873304D01*
X314930729Y-275873304D02*
X315109301Y-275968542D01*
X315109301Y-275968542D02*
X315180729Y-276159019D01*
X315180729Y-276159019D02*
X315049777Y-277206638D01*
X316061682Y-275206638D02*
X317299777Y-275206638D01*
X317299777Y-275206638D02*
X316537873Y-275968542D01*
X316537873Y-275968542D02*
X316823587Y-275968542D01*
X316823587Y-275968542D02*
X317002158Y-276063780D01*
X317002158Y-276063780D02*
X317085492Y-276159019D01*
X317085492Y-276159019D02*
X317156920Y-276349495D01*
X317156920Y-276349495D02*
X317097396Y-276825685D01*
X317097396Y-276825685D02*
X316978349Y-277016161D01*
X316978349Y-277016161D02*
X316871206Y-277111400D01*
X316871206Y-277111400D02*
X316668825Y-277206638D01*
X316668825Y-277206638D02*
X316097396Y-277206638D01*
X316097396Y-277206638D02*
X315918825Y-277111400D01*
X315918825Y-277111400D02*
X315835492Y-277016161D01*
X318037873Y-275397114D02*
X318145015Y-275301876D01*
X318145015Y-275301876D02*
X318347396Y-275206638D01*
X318347396Y-275206638D02*
X318823587Y-275206638D01*
X318823587Y-275206638D02*
X319002158Y-275301876D01*
X319002158Y-275301876D02*
X319085492Y-275397114D01*
X319085492Y-275397114D02*
X319156920Y-275587590D01*
X319156920Y-275587590D02*
X319133111Y-275778066D01*
X319133111Y-275778066D02*
X319002158Y-276063780D01*
X319002158Y-276063780D02*
X317716444Y-277206638D01*
X317716444Y-277206638D02*
X318954539Y-277206638D01*
X319311682Y-277397114D02*
X320835492Y-277397114D01*
X321335492Y-277206638D02*
X321585492Y-275206638D01*
X321490254Y-275968542D02*
X321692635Y-275873304D01*
X321692635Y-275873304D02*
X322073587Y-275873304D01*
X322073587Y-275873304D02*
X322252159Y-275968542D01*
X322252159Y-275968542D02*
X322335492Y-276063780D01*
X322335492Y-276063780D02*
X322406921Y-276254257D01*
X322406921Y-276254257D02*
X322335492Y-276825685D01*
X322335492Y-276825685D02*
X322216445Y-277016161D01*
X322216445Y-277016161D02*
X322109302Y-277111400D01*
X322109302Y-277111400D02*
X321906921Y-277206638D01*
X321906921Y-277206638D02*
X321525968Y-277206638D01*
X321525968Y-277206638D02*
X321347397Y-277111400D01*
X323430731Y-277206638D02*
X323252159Y-277111400D01*
X323252159Y-277111400D02*
X323180731Y-276920923D01*
X323180731Y-276920923D02*
X323395016Y-275206638D01*
X325216445Y-275873304D02*
X325049778Y-277206638D01*
X324359302Y-275873304D02*
X324228350Y-276920923D01*
X324228350Y-276920923D02*
X324299778Y-277111400D01*
X324299778Y-277111400D02*
X324478350Y-277206638D01*
X324478350Y-277206638D02*
X324764064Y-277206638D01*
X324764064Y-277206638D02*
X324966445Y-277111400D01*
X324966445Y-277111400D02*
X325073588Y-277016161D01*
X326775969Y-277111400D02*
X326573588Y-277206638D01*
X326573588Y-277206638D02*
X326192635Y-277206638D01*
X326192635Y-277206638D02*
X326014064Y-277111400D01*
X326014064Y-277111400D02*
X325942635Y-276920923D01*
X325942635Y-276920923D02*
X326037874Y-276159019D01*
X326037874Y-276159019D02*
X326156921Y-275968542D01*
X326156921Y-275968542D02*
X326359302Y-275873304D01*
X326359302Y-275873304D02*
X326740254Y-275873304D01*
X326740254Y-275873304D02*
X326918826Y-275968542D01*
X326918826Y-275968542D02*
X326990254Y-276159019D01*
X326990254Y-276159019D02*
X326966445Y-276349495D01*
X326966445Y-276349495D02*
X325990254Y-276539971D01*
X327597398Y-275873304D02*
X328359302Y-275873304D01*
X327966445Y-275206638D02*
X327752160Y-276920923D01*
X327752160Y-276920923D02*
X327823588Y-277111400D01*
X327823588Y-277111400D02*
X328002160Y-277206638D01*
X328002160Y-277206638D02*
X328192636Y-277206638D01*
X328359302Y-277397114D02*
X329883112Y-277397114D01*
X330549779Y-275873304D02*
X330299779Y-277873304D01*
X330537874Y-275968542D02*
X330740255Y-275873304D01*
X330740255Y-275873304D02*
X331121207Y-275873304D01*
X331121207Y-275873304D02*
X331299779Y-275968542D01*
X331299779Y-275968542D02*
X331383112Y-276063780D01*
X331383112Y-276063780D02*
X331454541Y-276254257D01*
X331454541Y-276254257D02*
X331383112Y-276825685D01*
X331383112Y-276825685D02*
X331264065Y-277016161D01*
X331264065Y-277016161D02*
X331156922Y-277111400D01*
X331156922Y-277111400D02*
X330954541Y-277206638D01*
X330954541Y-277206638D02*
X330573588Y-277206638D01*
X330573588Y-277206638D02*
X330395017Y-277111400D01*
X332192636Y-277206638D02*
X332359303Y-275873304D01*
X332442636Y-275206638D02*
X332335493Y-275301876D01*
X332335493Y-275301876D02*
X332418827Y-275397114D01*
X332418827Y-275397114D02*
X332525970Y-275301876D01*
X332525970Y-275301876D02*
X332442636Y-275206638D01*
X332442636Y-275206638D02*
X332418827Y-275397114D01*
X333430732Y-277206638D02*
X333252160Y-277111400D01*
X333252160Y-277111400D02*
X333180732Y-276920923D01*
X333180732Y-276920923D02*
X333395017Y-275206638D01*
X334478351Y-277206638D02*
X334299779Y-277111400D01*
X334299779Y-277111400D02*
X334228351Y-276920923D01*
X334228351Y-276920923D02*
X334442636Y-275206638D01*
D10*
D11*
X301944826Y-272602614D02*
X301444826Y-272602614D01*
X301444826Y-273388328D02*
X301444826Y-271888328D01*
X301444826Y-271888328D02*
X302159112Y-271888328D01*
X302730540Y-273388328D02*
X302730540Y-272388328D01*
X302730540Y-271888328D02*
X302659112Y-271959757D01*
X302659112Y-271959757D02*
X302730540Y-272031185D01*
X302730540Y-272031185D02*
X302801969Y-271959757D01*
X302801969Y-271959757D02*
X302730540Y-271888328D01*
X302730540Y-271888328D02*
X302730540Y-272031185D01*
X303659112Y-273388328D02*
X303516255Y-273316900D01*
X303516255Y-273316900D02*
X303444826Y-273174042D01*
X303444826Y-273174042D02*
X303444826Y-271888328D01*
X304801969Y-273316900D02*
X304659112Y-273388328D01*
X304659112Y-273388328D02*
X304373398Y-273388328D01*
X304373398Y-273388328D02*
X304230540Y-273316900D01*
X304230540Y-273316900D02*
X304159112Y-273174042D01*
X304159112Y-273174042D02*
X304159112Y-272602614D01*
X304159112Y-272602614D02*
X304230540Y-272459757D01*
X304230540Y-272459757D02*
X304373398Y-272388328D01*
X304373398Y-272388328D02*
X304659112Y-272388328D01*
X304659112Y-272388328D02*
X304801969Y-272459757D01*
X304801969Y-272459757D02*
X304873398Y-272602614D01*
X304873398Y-272602614D02*
X304873398Y-272745471D01*
X304873398Y-272745471D02*
X304159112Y-272888328D01*
X305516254Y-273245471D02*
X305587683Y-273316900D01*
X305587683Y-273316900D02*
X305516254Y-273388328D01*
X305516254Y-273388328D02*
X305444826Y-273316900D01*
X305444826Y-273316900D02*
X305516254Y-273245471D01*
X305516254Y-273245471D02*
X305516254Y-273388328D01*
X305516254Y-272459757D02*
X305587683Y-272531185D01*
X305587683Y-272531185D02*
X305516254Y-272602614D01*
X305516254Y-272602614D02*
X305444826Y-272531185D01*
X305444826Y-272531185D02*
X305516254Y-272459757D01*
X305516254Y-272459757D02*
X305516254Y-272602614D01*
X307301969Y-273316900D02*
X307444826Y-273388328D01*
X307444826Y-273388328D02*
X307730540Y-273388328D01*
X307730540Y-273388328D02*
X307873397Y-273316900D01*
X307873397Y-273316900D02*
X307944826Y-273174042D01*
X307944826Y-273174042D02*
X307944826Y-273102614D01*
X307944826Y-273102614D02*
X307873397Y-272959757D01*
X307873397Y-272959757D02*
X307730540Y-272888328D01*
X307730540Y-272888328D02*
X307516255Y-272888328D01*
X307516255Y-272888328D02*
X307373397Y-272816900D01*
X307373397Y-272816900D02*
X307301969Y-272674042D01*
X307301969Y-272674042D02*
X307301969Y-272602614D01*
X307301969Y-272602614D02*
X307373397Y-272459757D01*
X307373397Y-272459757D02*
X307516255Y-272388328D01*
X307516255Y-272388328D02*
X307730540Y-272388328D01*
X307730540Y-272388328D02*
X307873397Y-272459757D01*
X308373398Y-272388328D02*
X308944826Y-272388328D01*
X308587683Y-271888328D02*
X308587683Y-273174042D01*
X308587683Y-273174042D02*
X308659112Y-273316900D01*
X308659112Y-273316900D02*
X308801969Y-273388328D01*
X308801969Y-273388328D02*
X308944826Y-273388328D01*
X309444826Y-273388328D02*
X309444826Y-272388328D01*
X309444826Y-272531185D02*
X309516255Y-272459757D01*
X309516255Y-272459757D02*
X309659112Y-272388328D01*
X309659112Y-272388328D02*
X309873398Y-272388328D01*
X309873398Y-272388328D02*
X310016255Y-272459757D01*
X310016255Y-272459757D02*
X310087684Y-272602614D01*
X310087684Y-272602614D02*
X310087684Y-273388328D01*
X310087684Y-272602614D02*
X310159112Y-272459757D01*
X310159112Y-272459757D02*
X310301969Y-272388328D01*
X310301969Y-272388328D02*
X310516255Y-272388328D01*
X310516255Y-272388328D02*
X310659112Y-272459757D01*
X310659112Y-272459757D02*
X310730541Y-272602614D01*
X310730541Y-272602614D02*
X310730541Y-273388328D01*
X311301969Y-271888328D02*
X312230541Y-271888328D01*
X312230541Y-271888328D02*
X311730541Y-272459757D01*
X311730541Y-272459757D02*
X311944826Y-272459757D01*
X311944826Y-272459757D02*
X312087684Y-272531185D01*
X312087684Y-272531185D02*
X312159112Y-272602614D01*
X312159112Y-272602614D02*
X312230541Y-272745471D01*
X312230541Y-272745471D02*
X312230541Y-273102614D01*
X312230541Y-273102614D02*
X312159112Y-273245471D01*
X312159112Y-273245471D02*
X312087684Y-273316900D01*
X312087684Y-273316900D02*
X311944826Y-273388328D01*
X311944826Y-273388328D02*
X311516255Y-273388328D01*
X311516255Y-273388328D02*
X311373398Y-273316900D01*
X311373398Y-273316900D02*
X311301969Y-273245471D01*
X312801969Y-272031185D02*
X312873397Y-271959757D01*
X312873397Y-271959757D02*
X313016255Y-271888328D01*
X313016255Y-271888328D02*
X313373397Y-271888328D01*
X313373397Y-271888328D02*
X313516255Y-271959757D01*
X313516255Y-271959757D02*
X313587683Y-272031185D01*
X313587683Y-272031185D02*
X313659112Y-272174042D01*
X313659112Y-272174042D02*
X313659112Y-272316900D01*
X313659112Y-272316900D02*
X313587683Y-272531185D01*
X313587683Y-272531185D02*
X312730540Y-273388328D01*
X312730540Y-273388328D02*
X313659112Y-273388328D01*
X313944826Y-273531185D02*
X315087683Y-273531185D01*
X315444825Y-273388328D02*
X315444825Y-271888328D01*
X315444825Y-272459757D02*
X315587683Y-272388328D01*
X315587683Y-272388328D02*
X315873397Y-272388328D01*
X315873397Y-272388328D02*
X316016254Y-272459757D01*
X316016254Y-272459757D02*
X316087683Y-272531185D01*
X316087683Y-272531185D02*
X316159111Y-272674042D01*
X316159111Y-272674042D02*
X316159111Y-273102614D01*
X316159111Y-273102614D02*
X316087683Y-273245471D01*
X316087683Y-273245471D02*
X316016254Y-273316900D01*
X316016254Y-273316900D02*
X315873397Y-273388328D01*
X315873397Y-273388328D02*
X315587683Y-273388328D01*
X315587683Y-273388328D02*
X315444825Y-273316900D01*
X317016254Y-273388328D02*
X316873397Y-273316900D01*
X316873397Y-273316900D02*
X316801968Y-273174042D01*
X316801968Y-273174042D02*
X316801968Y-271888328D01*
X318230540Y-272388328D02*
X318230540Y-273388328D01*
X317587682Y-272388328D02*
X317587682Y-273174042D01*
X317587682Y-273174042D02*
X317659111Y-273316900D01*
X317659111Y-273316900D02*
X317801968Y-273388328D01*
X317801968Y-273388328D02*
X318016254Y-273388328D01*
X318016254Y-273388328D02*
X318159111Y-273316900D01*
X318159111Y-273316900D02*
X318230540Y-273245471D01*
X319516254Y-273316900D02*
X319373397Y-273388328D01*
X319373397Y-273388328D02*
X319087683Y-273388328D01*
X319087683Y-273388328D02*
X318944825Y-273316900D01*
X318944825Y-273316900D02*
X318873397Y-273174042D01*
X318873397Y-273174042D02*
X318873397Y-272602614D01*
X318873397Y-272602614D02*
X318944825Y-272459757D01*
X318944825Y-272459757D02*
X319087683Y-272388328D01*
X319087683Y-272388328D02*
X319373397Y-272388328D01*
X319373397Y-272388328D02*
X319516254Y-272459757D01*
X319516254Y-272459757D02*
X319587683Y-272602614D01*
X319587683Y-272602614D02*
X319587683Y-272745471D01*
X319587683Y-272745471D02*
X318873397Y-272888328D01*
X320016254Y-272388328D02*
X320587682Y-272388328D01*
X320230539Y-271888328D02*
X320230539Y-273174042D01*
X320230539Y-273174042D02*
X320301968Y-273316900D01*
X320301968Y-273316900D02*
X320444825Y-273388328D01*
X320444825Y-273388328D02*
X320587682Y-273388328D01*
X320730540Y-273531185D02*
X321873397Y-273531185D01*
X322230539Y-272388328D02*
X322230539Y-273888328D01*
X322230539Y-272459757D02*
X322373397Y-272388328D01*
X322373397Y-272388328D02*
X322659111Y-272388328D01*
X322659111Y-272388328D02*
X322801968Y-272459757D01*
X322801968Y-272459757D02*
X322873397Y-272531185D01*
X322873397Y-272531185D02*
X322944825Y-272674042D01*
X322944825Y-272674042D02*
X322944825Y-273102614D01*
X322944825Y-273102614D02*
X322873397Y-273245471D01*
X322873397Y-273245471D02*
X322801968Y-273316900D01*
X322801968Y-273316900D02*
X322659111Y-273388328D01*
X322659111Y-273388328D02*
X322373397Y-273388328D01*
X322373397Y-273388328D02*
X322230539Y-273316900D01*
X323587682Y-273388328D02*
X323587682Y-272388328D01*
X323587682Y-271888328D02*
X323516254Y-271959757D01*
X323516254Y-271959757D02*
X323587682Y-272031185D01*
X323587682Y-272031185D02*
X323659111Y-271959757D01*
X323659111Y-271959757D02*
X323587682Y-271888328D01*
X323587682Y-271888328D02*
X323587682Y-272031185D01*
X324516254Y-273388328D02*
X324373397Y-273316900D01*
X324373397Y-273316900D02*
X324301968Y-273174042D01*
X324301968Y-273174042D02*
X324301968Y-271888328D01*
X325301968Y-273388328D02*
X325159111Y-273316900D01*
X325159111Y-273316900D02*
X325087682Y-273174042D01*
X325087682Y-273174042D02*
X325087682Y-271888328D01*
X325873396Y-273245471D02*
X325944825Y-273316900D01*
X325944825Y-273316900D02*
X325873396Y-273388328D01*
X325873396Y-273388328D02*
X325801968Y-273316900D01*
X325801968Y-273316900D02*
X325873396Y-273245471D01*
X325873396Y-273245471D02*
X325873396Y-273388328D01*
X326587682Y-273388328D02*
X326587682Y-271888328D01*
X326730540Y-272816900D02*
X327159111Y-273388328D01*
X327159111Y-272388328D02*
X326587682Y-272959757D01*
X327801968Y-273388328D02*
X327801968Y-272388328D01*
X327801968Y-271888328D02*
X327730540Y-271959757D01*
X327730540Y-271959757D02*
X327801968Y-272031185D01*
X327801968Y-272031185D02*
X327873397Y-271959757D01*
X327873397Y-271959757D02*
X327801968Y-271888328D01*
X327801968Y-271888328D02*
X327801968Y-272031185D01*
X329159112Y-273316900D02*
X329016254Y-273388328D01*
X329016254Y-273388328D02*
X328730540Y-273388328D01*
X328730540Y-273388328D02*
X328587683Y-273316900D01*
X328587683Y-273316900D02*
X328516254Y-273245471D01*
X328516254Y-273245471D02*
X328444826Y-273102614D01*
X328444826Y-273102614D02*
X328444826Y-272674042D01*
X328444826Y-272674042D02*
X328516254Y-272531185D01*
X328516254Y-272531185D02*
X328587683Y-272459757D01*
X328587683Y-272459757D02*
X328730540Y-272388328D01*
X328730540Y-272388328D02*
X329016254Y-272388328D01*
X329016254Y-272388328D02*
X329159112Y-272459757D01*
X330444826Y-273388328D02*
X330444826Y-272602614D01*
X330444826Y-272602614D02*
X330373397Y-272459757D01*
X330373397Y-272459757D02*
X330230540Y-272388328D01*
X330230540Y-272388328D02*
X329944826Y-272388328D01*
X329944826Y-272388328D02*
X329801968Y-272459757D01*
X330444826Y-273316900D02*
X330301968Y-273388328D01*
X330301968Y-273388328D02*
X329944826Y-273388328D01*
X329944826Y-273388328D02*
X329801968Y-273316900D01*
X329801968Y-273316900D02*
X329730540Y-273174042D01*
X329730540Y-273174042D02*
X329730540Y-273031185D01*
X329730540Y-273031185D02*
X329801968Y-272888328D01*
X329801968Y-272888328D02*
X329944826Y-272816900D01*
X329944826Y-272816900D02*
X330301968Y-272816900D01*
X330301968Y-272816900D02*
X330444826Y-272745471D01*
X331801969Y-273388328D02*
X331801969Y-271888328D01*
X331801969Y-273316900D02*
X331659111Y-273388328D01*
X331659111Y-273388328D02*
X331373397Y-273388328D01*
X331373397Y-273388328D02*
X331230540Y-273316900D01*
X331230540Y-273316900D02*
X331159111Y-273245471D01*
X331159111Y-273245471D02*
X331087683Y-273102614D01*
X331087683Y-273102614D02*
X331087683Y-272674042D01*
X331087683Y-272674042D02*
X331159111Y-272531185D01*
X331159111Y-272531185D02*
X331230540Y-272459757D01*
X331230540Y-272459757D02*
X331373397Y-272388328D01*
X331373397Y-272388328D02*
X331659111Y-272388328D01*
X331659111Y-272388328D02*
X331801969Y-272459757D01*
X332159112Y-273531185D02*
X333301969Y-273531185D01*
X333659111Y-272388328D02*
X333659111Y-273888328D01*
X333659111Y-272459757D02*
X333801969Y-272388328D01*
X333801969Y-272388328D02*
X334087683Y-272388328D01*
X334087683Y-272388328D02*
X334230540Y-272459757D01*
X334230540Y-272459757D02*
X334301969Y-272531185D01*
X334301969Y-272531185D02*
X334373397Y-272674042D01*
X334373397Y-272674042D02*
X334373397Y-273102614D01*
X334373397Y-273102614D02*
X334301969Y-273245471D01*
X334301969Y-273245471D02*
X334230540Y-273316900D01*
X334230540Y-273316900D02*
X334087683Y-273388328D01*
X334087683Y-273388328D02*
X333801969Y-273388328D01*
X333801969Y-273388328D02*
X333659111Y-273316900D01*
X335659112Y-273316900D02*
X335516254Y-273388328D01*
X335516254Y-273388328D02*
X335230540Y-273388328D01*
X335230540Y-273388328D02*
X335087683Y-273316900D01*
X335087683Y-273316900D02*
X335016254Y-273245471D01*
X335016254Y-273245471D02*
X334944826Y-273102614D01*
X334944826Y-273102614D02*
X334944826Y-272674042D01*
X334944826Y-272674042D02*
X335016254Y-272531185D01*
X335016254Y-272531185D02*
X335087683Y-272459757D01*
X335087683Y-272459757D02*
X335230540Y-272388328D01*
X335230540Y-272388328D02*
X335516254Y-272388328D01*
X335516254Y-272388328D02*
X335659112Y-272459757D01*
X336301968Y-273388328D02*
X336301968Y-271888328D01*
X336301968Y-272459757D02*
X336444826Y-272388328D01*
X336444826Y-272388328D02*
X336730540Y-272388328D01*
X336730540Y-272388328D02*
X336873397Y-272459757D01*
X336873397Y-272459757D02*
X336944826Y-272531185D01*
X336944826Y-272531185D02*
X337016254Y-272674042D01*
X337016254Y-272674042D02*
X337016254Y-273102614D01*
X337016254Y-273102614D02*
X336944826Y-273245471D01*
X336944826Y-273245471D02*
X336873397Y-273316900D01*
X336873397Y-273316900D02*
X336730540Y-273388328D01*
X336730540Y-273388328D02*
X336444826Y-273388328D01*
X336444826Y-273388328D02*
X336301968Y-273316900D01*
D10*
D11*
X299989000Y-268502200D02*
X407989000Y-268502200D01*
D10*
D11*
X301373398Y-270616900D02*
X301587684Y-270688328D01*
X301587684Y-270688328D02*
X301944826Y-270688328D01*
X301944826Y-270688328D02*
X302087684Y-270616900D01*
X302087684Y-270616900D02*
X302159112Y-270545471D01*
X302159112Y-270545471D02*
X302230541Y-270402614D01*
X302230541Y-270402614D02*
X302230541Y-270259757D01*
X302230541Y-270259757D02*
X302159112Y-270116900D01*
X302159112Y-270116900D02*
X302087684Y-270045471D01*
X302087684Y-270045471D02*
X301944826Y-269974042D01*
X301944826Y-269974042D02*
X301659112Y-269902614D01*
X301659112Y-269902614D02*
X301516255Y-269831185D01*
X301516255Y-269831185D02*
X301444826Y-269759757D01*
X301444826Y-269759757D02*
X301373398Y-269616900D01*
X301373398Y-269616900D02*
X301373398Y-269474042D01*
X301373398Y-269474042D02*
X301444826Y-269331185D01*
X301444826Y-269331185D02*
X301516255Y-269259757D01*
X301516255Y-269259757D02*
X301659112Y-269188328D01*
X301659112Y-269188328D02*
X302016255Y-269188328D01*
X302016255Y-269188328D02*
X302230541Y-269259757D01*
X302873397Y-270688328D02*
X302873397Y-269188328D01*
X303516255Y-270688328D02*
X303516255Y-269902614D01*
X303516255Y-269902614D02*
X303444826Y-269759757D01*
X303444826Y-269759757D02*
X303301969Y-269688328D01*
X303301969Y-269688328D02*
X303087683Y-269688328D01*
X303087683Y-269688328D02*
X302944826Y-269759757D01*
X302944826Y-269759757D02*
X302873397Y-269831185D01*
X304801969Y-270616900D02*
X304659112Y-270688328D01*
X304659112Y-270688328D02*
X304373398Y-270688328D01*
X304373398Y-270688328D02*
X304230540Y-270616900D01*
X304230540Y-270616900D02*
X304159112Y-270474042D01*
X304159112Y-270474042D02*
X304159112Y-269902614D01*
X304159112Y-269902614D02*
X304230540Y-269759757D01*
X304230540Y-269759757D02*
X304373398Y-269688328D01*
X304373398Y-269688328D02*
X304659112Y-269688328D01*
X304659112Y-269688328D02*
X304801969Y-269759757D01*
X304801969Y-269759757D02*
X304873398Y-269902614D01*
X304873398Y-269902614D02*
X304873398Y-270045471D01*
X304873398Y-270045471D02*
X304159112Y-270188328D01*
X306087683Y-270616900D02*
X305944826Y-270688328D01*
X305944826Y-270688328D02*
X305659112Y-270688328D01*
X305659112Y-270688328D02*
X305516254Y-270616900D01*
X305516254Y-270616900D02*
X305444826Y-270474042D01*
X305444826Y-270474042D02*
X305444826Y-269902614D01*
X305444826Y-269902614D02*
X305516254Y-269759757D01*
X305516254Y-269759757D02*
X305659112Y-269688328D01*
X305659112Y-269688328D02*
X305944826Y-269688328D01*
X305944826Y-269688328D02*
X306087683Y-269759757D01*
X306087683Y-269759757D02*
X306159112Y-269902614D01*
X306159112Y-269902614D02*
X306159112Y-270045471D01*
X306159112Y-270045471D02*
X305444826Y-270188328D01*
X306587683Y-269688328D02*
X307159111Y-269688328D01*
X306801968Y-269188328D02*
X306801968Y-270474042D01*
X306801968Y-270474042D02*
X306873397Y-270616900D01*
X306873397Y-270616900D02*
X307016254Y-270688328D01*
X307016254Y-270688328D02*
X307159111Y-270688328D01*
X307659111Y-270545471D02*
X307730540Y-270616900D01*
X307730540Y-270616900D02*
X307659111Y-270688328D01*
X307659111Y-270688328D02*
X307587683Y-270616900D01*
X307587683Y-270616900D02*
X307659111Y-270545471D01*
X307659111Y-270545471D02*
X307659111Y-270688328D01*
X307659111Y-269759757D02*
X307730540Y-269831185D01*
X307730540Y-269831185D02*
X307659111Y-269902614D01*
X307659111Y-269902614D02*
X307587683Y-269831185D01*
X307587683Y-269831185D02*
X307659111Y-269759757D01*
X307659111Y-269759757D02*
X307659111Y-269902614D01*
D10*
D12*
X302043510Y-266894814D02*
X302257796Y-266966242D01*
X302257796Y-266966242D02*
X302329225Y-267037671D01*
X302329225Y-267037671D02*
X302400653Y-267180528D01*
X302400653Y-267180528D02*
X302400653Y-267394814D01*
X302400653Y-267394814D02*
X302329225Y-267537671D01*
X302329225Y-267537671D02*
X302257796Y-267609100D01*
X302257796Y-267609100D02*
X302114939Y-267680528D01*
X302114939Y-267680528D02*
X301543510Y-267680528D01*
X301543510Y-267680528D02*
X301543510Y-266180528D01*
X301543510Y-266180528D02*
X302043510Y-266180528D01*
X302043510Y-266180528D02*
X302186368Y-266251957D01*
X302186368Y-266251957D02*
X302257796Y-266323385D01*
X302257796Y-266323385D02*
X302329225Y-266466242D01*
X302329225Y-266466242D02*
X302329225Y-266609100D01*
X302329225Y-266609100D02*
X302257796Y-266751957D01*
X302257796Y-266751957D02*
X302186368Y-266823385D01*
X302186368Y-266823385D02*
X302043510Y-266894814D01*
X302043510Y-266894814D02*
X301543510Y-266894814D01*
X303043510Y-267680528D02*
X303043510Y-266680528D01*
X303043510Y-266966242D02*
X303114939Y-266823385D01*
X303114939Y-266823385D02*
X303186368Y-266751957D01*
X303186368Y-266751957D02*
X303329225Y-266680528D01*
X303329225Y-266680528D02*
X303472082Y-266680528D01*
X304543510Y-267609100D02*
X304400653Y-267680528D01*
X304400653Y-267680528D02*
X304114939Y-267680528D01*
X304114939Y-267680528D02*
X303972081Y-267609100D01*
X303972081Y-267609100D02*
X303900653Y-267466242D01*
X303900653Y-267466242D02*
X303900653Y-266894814D01*
X303900653Y-266894814D02*
X303972081Y-266751957D01*
X303972081Y-266751957D02*
X304114939Y-266680528D01*
X304114939Y-266680528D02*
X304400653Y-266680528D01*
X304400653Y-266680528D02*
X304543510Y-266751957D01*
X304543510Y-266751957D02*
X304614939Y-266894814D01*
X304614939Y-266894814D02*
X304614939Y-267037671D01*
X304614939Y-267037671D02*
X303900653Y-267180528D01*
X305257795Y-266680528D02*
X305257795Y-267680528D01*
X305257795Y-266823385D02*
X305329224Y-266751957D01*
X305329224Y-266751957D02*
X305472081Y-266680528D01*
X305472081Y-266680528D02*
X305686367Y-266680528D01*
X305686367Y-266680528D02*
X305829224Y-266751957D01*
X305829224Y-266751957D02*
X305900653Y-266894814D01*
X305900653Y-266894814D02*
X305900653Y-267680528D01*
X307257796Y-267680528D02*
X307257796Y-266180528D01*
X307257796Y-267609100D02*
X307114938Y-267680528D01*
X307114938Y-267680528D02*
X306829224Y-267680528D01*
X306829224Y-267680528D02*
X306686367Y-267609100D01*
X306686367Y-267609100D02*
X306614938Y-267537671D01*
X306614938Y-267537671D02*
X306543510Y-267394814D01*
X306543510Y-267394814D02*
X306543510Y-266966242D01*
X306543510Y-266966242D02*
X306614938Y-266823385D01*
X306614938Y-266823385D02*
X306686367Y-266751957D01*
X306686367Y-266751957D02*
X306829224Y-266680528D01*
X306829224Y-266680528D02*
X307114938Y-266680528D01*
X307114938Y-266680528D02*
X307257796Y-266751957D01*
X308614939Y-267680528D02*
X308614939Y-266894814D01*
X308614939Y-266894814D02*
X308543510Y-266751957D01*
X308543510Y-266751957D02*
X308400653Y-266680528D01*
X308400653Y-266680528D02*
X308114939Y-266680528D01*
X308114939Y-266680528D02*
X307972081Y-266751957D01*
X308614939Y-267609100D02*
X308472081Y-267680528D01*
X308472081Y-267680528D02*
X308114939Y-267680528D01*
X308114939Y-267680528D02*
X307972081Y-267609100D01*
X307972081Y-267609100D02*
X307900653Y-267466242D01*
X307900653Y-267466242D02*
X307900653Y-267323385D01*
X307900653Y-267323385D02*
X307972081Y-267180528D01*
X307972081Y-267180528D02*
X308114939Y-267109100D01*
X308114939Y-267109100D02*
X308472081Y-267109100D01*
X308472081Y-267109100D02*
X308614939Y-267037671D01*
X309329224Y-266680528D02*
X309329224Y-267680528D01*
X309329224Y-266823385D02*
X309400653Y-266751957D01*
X309400653Y-266751957D02*
X309543510Y-266680528D01*
X309543510Y-266680528D02*
X309757796Y-266680528D01*
X309757796Y-266680528D02*
X309900653Y-266751957D01*
X309900653Y-266751957D02*
X309972082Y-266894814D01*
X309972082Y-266894814D02*
X309972082Y-267680528D01*
X312329224Y-266894814D02*
X312543510Y-266966242D01*
X312543510Y-266966242D02*
X312614939Y-267037671D01*
X312614939Y-267037671D02*
X312686367Y-267180528D01*
X312686367Y-267180528D02*
X312686367Y-267394814D01*
X312686367Y-267394814D02*
X312614939Y-267537671D01*
X312614939Y-267537671D02*
X312543510Y-267609100D01*
X312543510Y-267609100D02*
X312400653Y-267680528D01*
X312400653Y-267680528D02*
X311829224Y-267680528D01*
X311829224Y-267680528D02*
X311829224Y-266180528D01*
X311829224Y-266180528D02*
X312329224Y-266180528D01*
X312329224Y-266180528D02*
X312472082Y-266251957D01*
X312472082Y-266251957D02*
X312543510Y-266323385D01*
X312543510Y-266323385D02*
X312614939Y-266466242D01*
X312614939Y-266466242D02*
X312614939Y-266609100D01*
X312614939Y-266609100D02*
X312543510Y-266751957D01*
X312543510Y-266751957D02*
X312472082Y-266823385D01*
X312472082Y-266823385D02*
X312329224Y-266894814D01*
X312329224Y-266894814D02*
X311829224Y-266894814D01*
X313543510Y-267680528D02*
X313400653Y-267609100D01*
X313400653Y-267609100D02*
X313329224Y-267466242D01*
X313329224Y-267466242D02*
X313329224Y-266180528D01*
X314686367Y-267609100D02*
X314543510Y-267680528D01*
X314543510Y-267680528D02*
X314257796Y-267680528D01*
X314257796Y-267680528D02*
X314114938Y-267609100D01*
X314114938Y-267609100D02*
X314043510Y-267466242D01*
X314043510Y-267466242D02*
X314043510Y-266894814D01*
X314043510Y-266894814D02*
X314114938Y-266751957D01*
X314114938Y-266751957D02*
X314257796Y-266680528D01*
X314257796Y-266680528D02*
X314543510Y-266680528D01*
X314543510Y-266680528D02*
X314686367Y-266751957D01*
X314686367Y-266751957D02*
X314757796Y-266894814D01*
X314757796Y-266894814D02*
X314757796Y-267037671D01*
X314757796Y-267037671D02*
X314043510Y-267180528D01*
X315400652Y-267680528D02*
X315400652Y-266180528D01*
X315543510Y-267109100D02*
X315972081Y-267680528D01*
X315972081Y-266680528D02*
X315400652Y-267251957D01*
X317186367Y-267609100D02*
X317043510Y-267680528D01*
X317043510Y-267680528D02*
X316757796Y-267680528D01*
X316757796Y-267680528D02*
X316614938Y-267609100D01*
X316614938Y-267609100D02*
X316543510Y-267466242D01*
X316543510Y-267466242D02*
X316543510Y-266894814D01*
X316543510Y-266894814D02*
X316614938Y-266751957D01*
X316614938Y-266751957D02*
X316757796Y-266680528D01*
X316757796Y-266680528D02*
X317043510Y-266680528D01*
X317043510Y-266680528D02*
X317186367Y-266751957D01*
X317186367Y-266751957D02*
X317257796Y-266894814D01*
X317257796Y-266894814D02*
X317257796Y-267037671D01*
X317257796Y-267037671D02*
X316543510Y-267180528D01*
X317900652Y-267680528D02*
X317900652Y-266680528D01*
X317900652Y-266966242D02*
X317972081Y-266823385D01*
X317972081Y-266823385D02*
X318043510Y-266751957D01*
X318043510Y-266751957D02*
X318186367Y-266680528D01*
X318186367Y-266680528D02*
X318329224Y-266680528D01*
D10*
D11*
X301444826Y-264688328D02*
X301444826Y-263188328D01*
X301444826Y-263188328D02*
X301801969Y-263188328D01*
X301801969Y-263188328D02*
X302016255Y-263259757D01*
X302016255Y-263259757D02*
X302159112Y-263402614D01*
X302159112Y-263402614D02*
X302230541Y-263545471D01*
X302230541Y-263545471D02*
X302301969Y-263831185D01*
X302301969Y-263831185D02*
X302301969Y-264045471D01*
X302301969Y-264045471D02*
X302230541Y-264331185D01*
X302230541Y-264331185D02*
X302159112Y-264474042D01*
X302159112Y-264474042D02*
X302016255Y-264616900D01*
X302016255Y-264616900D02*
X301801969Y-264688328D01*
X301801969Y-264688328D02*
X301444826Y-264688328D01*
X303516255Y-264616900D02*
X303373398Y-264688328D01*
X303373398Y-264688328D02*
X303087684Y-264688328D01*
X303087684Y-264688328D02*
X302944826Y-264616900D01*
X302944826Y-264616900D02*
X302873398Y-264474042D01*
X302873398Y-264474042D02*
X302873398Y-263902614D01*
X302873398Y-263902614D02*
X302944826Y-263759757D01*
X302944826Y-263759757D02*
X303087684Y-263688328D01*
X303087684Y-263688328D02*
X303373398Y-263688328D01*
X303373398Y-263688328D02*
X303516255Y-263759757D01*
X303516255Y-263759757D02*
X303587684Y-263902614D01*
X303587684Y-263902614D02*
X303587684Y-264045471D01*
X303587684Y-264045471D02*
X302873398Y-264188328D01*
X304159112Y-264616900D02*
X304301969Y-264688328D01*
X304301969Y-264688328D02*
X304587683Y-264688328D01*
X304587683Y-264688328D02*
X304730540Y-264616900D01*
X304730540Y-264616900D02*
X304801969Y-264474042D01*
X304801969Y-264474042D02*
X304801969Y-264402614D01*
X304801969Y-264402614D02*
X304730540Y-264259757D01*
X304730540Y-264259757D02*
X304587683Y-264188328D01*
X304587683Y-264188328D02*
X304373398Y-264188328D01*
X304373398Y-264188328D02*
X304230540Y-264116900D01*
X304230540Y-264116900D02*
X304159112Y-263974042D01*
X304159112Y-263974042D02*
X304159112Y-263902614D01*
X304159112Y-263902614D02*
X304230540Y-263759757D01*
X304230540Y-263759757D02*
X304373398Y-263688328D01*
X304373398Y-263688328D02*
X304587683Y-263688328D01*
X304587683Y-263688328D02*
X304730540Y-263759757D01*
X305444826Y-264688328D02*
X305444826Y-263688328D01*
X305444826Y-263188328D02*
X305373398Y-263259757D01*
X305373398Y-263259757D02*
X305444826Y-263331185D01*
X305444826Y-263331185D02*
X305516255Y-263259757D01*
X305516255Y-263259757D02*
X305444826Y-263188328D01*
X305444826Y-263188328D02*
X305444826Y-263331185D01*
X306801970Y-263688328D02*
X306801970Y-264902614D01*
X306801970Y-264902614D02*
X306730541Y-265045471D01*
X306730541Y-265045471D02*
X306659112Y-265116900D01*
X306659112Y-265116900D02*
X306516255Y-265188328D01*
X306516255Y-265188328D02*
X306301970Y-265188328D01*
X306301970Y-265188328D02*
X306159112Y-265116900D01*
X306801970Y-264616900D02*
X306659112Y-264688328D01*
X306659112Y-264688328D02*
X306373398Y-264688328D01*
X306373398Y-264688328D02*
X306230541Y-264616900D01*
X306230541Y-264616900D02*
X306159112Y-264545471D01*
X306159112Y-264545471D02*
X306087684Y-264402614D01*
X306087684Y-264402614D02*
X306087684Y-263974042D01*
X306087684Y-263974042D02*
X306159112Y-263831185D01*
X306159112Y-263831185D02*
X306230541Y-263759757D01*
X306230541Y-263759757D02*
X306373398Y-263688328D01*
X306373398Y-263688328D02*
X306659112Y-263688328D01*
X306659112Y-263688328D02*
X306801970Y-263759757D01*
X307516255Y-263688328D02*
X307516255Y-264688328D01*
X307516255Y-263831185D02*
X307587684Y-263759757D01*
X307587684Y-263759757D02*
X307730541Y-263688328D01*
X307730541Y-263688328D02*
X307944827Y-263688328D01*
X307944827Y-263688328D02*
X308087684Y-263759757D01*
X308087684Y-263759757D02*
X308159113Y-263902614D01*
X308159113Y-263902614D02*
X308159113Y-264688328D01*
X309444827Y-264616900D02*
X309301970Y-264688328D01*
X309301970Y-264688328D02*
X309016256Y-264688328D01*
X309016256Y-264688328D02*
X308873398Y-264616900D01*
X308873398Y-264616900D02*
X308801970Y-264474042D01*
X308801970Y-264474042D02*
X308801970Y-263902614D01*
X308801970Y-263902614D02*
X308873398Y-263759757D01*
X308873398Y-263759757D02*
X309016256Y-263688328D01*
X309016256Y-263688328D02*
X309301970Y-263688328D01*
X309301970Y-263688328D02*
X309444827Y-263759757D01*
X309444827Y-263759757D02*
X309516256Y-263902614D01*
X309516256Y-263902614D02*
X309516256Y-264045471D01*
X309516256Y-264045471D02*
X308801970Y-264188328D01*
X310801970Y-264688328D02*
X310801970Y-263188328D01*
X310801970Y-264616900D02*
X310659112Y-264688328D01*
X310659112Y-264688328D02*
X310373398Y-264688328D01*
X310373398Y-264688328D02*
X310230541Y-264616900D01*
X310230541Y-264616900D02*
X310159112Y-264545471D01*
X310159112Y-264545471D02*
X310087684Y-264402614D01*
X310087684Y-264402614D02*
X310087684Y-263974042D01*
X310087684Y-263974042D02*
X310159112Y-263831185D01*
X310159112Y-263831185D02*
X310230541Y-263759757D01*
X310230541Y-263759757D02*
X310373398Y-263688328D01*
X310373398Y-263688328D02*
X310659112Y-263688328D01*
X310659112Y-263688328D02*
X310801970Y-263759757D01*
X312659112Y-264688328D02*
X312659112Y-263188328D01*
X312659112Y-263759757D02*
X312801970Y-263688328D01*
X312801970Y-263688328D02*
X313087684Y-263688328D01*
X313087684Y-263688328D02*
X313230541Y-263759757D01*
X313230541Y-263759757D02*
X313301970Y-263831185D01*
X313301970Y-263831185D02*
X313373398Y-263974042D01*
X313373398Y-263974042D02*
X313373398Y-264402614D01*
X313373398Y-264402614D02*
X313301970Y-264545471D01*
X313301970Y-264545471D02*
X313230541Y-264616900D01*
X313230541Y-264616900D02*
X313087684Y-264688328D01*
X313087684Y-264688328D02*
X312801970Y-264688328D01*
X312801970Y-264688328D02*
X312659112Y-264616900D01*
X313873398Y-263688328D02*
X314230541Y-264688328D01*
X314587684Y-263688328D02*
X314230541Y-264688328D01*
X314230541Y-264688328D02*
X314087684Y-265045471D01*
X314087684Y-265045471D02*
X314016255Y-265116900D01*
X314016255Y-265116900D02*
X313873398Y-265188328D01*
X315159112Y-264545471D02*
X315230541Y-264616900D01*
X315230541Y-264616900D02*
X315159112Y-264688328D01*
X315159112Y-264688328D02*
X315087684Y-264616900D01*
X315087684Y-264616900D02*
X315159112Y-264545471D01*
X315159112Y-264545471D02*
X315159112Y-264688328D01*
X315159112Y-263759757D02*
X315230541Y-263831185D01*
X315230541Y-263831185D02*
X315159112Y-263902614D01*
X315159112Y-263902614D02*
X315087684Y-263831185D01*
X315087684Y-263831185D02*
X315159112Y-263759757D01*
X315159112Y-263759757D02*
X315159112Y-263902614D01*
D10*
D11*
X319989000Y-278502200D02*
X319989000Y-281502200D01*
D10*
D11*
X383989000Y-278502200D02*
X383989000Y-285002200D01*
D14*
X223791912Y-138585079D02*
X223340326Y-138572741D01*
X223340326Y-138572741D02*
X223157225Y-138658123D01*
X223157225Y-138658123D02*
X222925263Y-138877747D01*
X222925263Y-138877747D02*
X222778683Y-139280472D01*
X222778683Y-139280472D02*
X222815204Y-139597816D01*
X222815204Y-139597816D02*
X222900586Y-139780917D01*
X222900586Y-139780917D02*
X223120210Y-140012879D01*
X223120210Y-140012879D02*
X224194144Y-140403759D01*
X224194144Y-140403759D02*
X225220205Y-137584682D01*
X225220205Y-137584682D02*
X224280512Y-137242661D01*
X224280512Y-137242661D02*
X223963168Y-137279183D01*
X223963168Y-137279183D02*
X223780067Y-137364565D01*
X223780067Y-137364565D02*
X223548105Y-137584189D01*
X223548105Y-137584189D02*
X223450385Y-137852672D01*
X223450385Y-137852672D02*
X223486906Y-138170016D01*
X223486906Y-138170016D02*
X223572288Y-138353118D01*
X223572288Y-138353118D02*
X223791912Y-138585079D01*
X223791912Y-138585079D02*
X224731604Y-138927100D01*
X225941933Y-139352733D02*
X226295799Y-139633555D01*
X226295799Y-139633555D02*
X226381180Y-139816657D01*
X226381180Y-139816657D02*
X226417702Y-140134000D01*
X226417702Y-140134000D02*
X226271122Y-140536726D01*
X226271122Y-140536726D02*
X226039160Y-140756349D01*
X226039160Y-140756349D02*
X225856058Y-140841731D01*
X225856058Y-140841731D02*
X225538715Y-140878253D01*
X225538715Y-140878253D02*
X224464780Y-140487373D01*
X224464780Y-140487373D02*
X225490841Y-137668295D01*
X225490841Y-137668295D02*
X226430533Y-138010315D01*
X226430533Y-138010315D02*
X226650157Y-138242277D01*
X226650157Y-138242277D02*
X226735539Y-138425379D01*
X226735539Y-138425379D02*
X226772061Y-138742722D01*
X226772061Y-138742722D02*
X226674340Y-139011206D01*
X226674340Y-139011206D02*
X226442379Y-139230829D01*
X226442379Y-139230829D02*
X226259277Y-139316211D01*
X226259277Y-139316211D02*
X225941933Y-139352733D01*
X225941933Y-139352733D02*
X225002241Y-139010713D01*
D15*
X205803005Y-145818028D02*
X205945862Y-145860885D01*
X205945862Y-145860885D02*
X205993481Y-145903742D01*
X205993481Y-145903742D02*
X206041100Y-145989457D01*
X206041100Y-145989457D02*
X206041100Y-146118028D01*
X206041100Y-146118028D02*
X205993481Y-146203742D01*
X205993481Y-146203742D02*
X205945862Y-146246600D01*
X205945862Y-146246600D02*
X205850624Y-146289457D01*
X205850624Y-146289457D02*
X205469672Y-146289457D01*
X205469672Y-146289457D02*
X205469672Y-145389457D01*
X205469672Y-145389457D02*
X205803005Y-145389457D01*
X205803005Y-145389457D02*
X205898243Y-145432314D01*
X205898243Y-145432314D02*
X205945862Y-145475171D01*
X205945862Y-145475171D02*
X205993481Y-145560885D01*
X205993481Y-145560885D02*
X205993481Y-145646600D01*
X205993481Y-145646600D02*
X205945862Y-145732314D01*
X205945862Y-145732314D02*
X205898243Y-145775171D01*
X205898243Y-145775171D02*
X205803005Y-145818028D01*
X205803005Y-145818028D02*
X205469672Y-145818028D01*
X206326815Y-145389457D02*
X206898243Y-145389457D01*
X206612529Y-146289457D02*
X206612529Y-145389457D01*
X199901101Y-146213742D02*
X199853482Y-146256600D01*
X199853482Y-146256600D02*
X199710625Y-146299457D01*
X199710625Y-146299457D02*
X199615387Y-146299457D01*
X199615387Y-146299457D02*
X199472530Y-146256600D01*
X199472530Y-146256600D02*
X199377292Y-146170885D01*
X199377292Y-146170885D02*
X199329673Y-146085171D01*
X199329673Y-146085171D02*
X199282054Y-145913742D01*
X199282054Y-145913742D02*
X199282054Y-145785171D01*
X199282054Y-145785171D02*
X199329673Y-145613742D01*
X199329673Y-145613742D02*
X199377292Y-145528028D01*
X199377292Y-145528028D02*
X199472530Y-145442314D01*
X199472530Y-145442314D02*
X199615387Y-145399457D01*
X199615387Y-145399457D02*
X199710625Y-145399457D01*
X199710625Y-145399457D02*
X199853482Y-145442314D01*
X199853482Y-145442314D02*
X199901101Y-145485171D01*
X200329673Y-146299457D02*
X200329673Y-145399457D01*
X200329673Y-145828028D02*
X200901101Y-145828028D01*
X200901101Y-146299457D02*
X200901101Y-145399457D01*
X201901101Y-145442314D02*
X201805863Y-145399457D01*
X201805863Y-145399457D02*
X201663006Y-145399457D01*
X201663006Y-145399457D02*
X201520149Y-145442314D01*
X201520149Y-145442314D02*
X201424911Y-145528028D01*
X201424911Y-145528028D02*
X201377292Y-145613742D01*
X201377292Y-145613742D02*
X201329673Y-145785171D01*
X201329673Y-145785171D02*
X201329673Y-145913742D01*
X201329673Y-145913742D02*
X201377292Y-146085171D01*
X201377292Y-146085171D02*
X201424911Y-146170885D01*
X201424911Y-146170885D02*
X201520149Y-146256600D01*
X201520149Y-146256600D02*
X201663006Y-146299457D01*
X201663006Y-146299457D02*
X201758244Y-146299457D01*
X201758244Y-146299457D02*
X201901101Y-146256600D01*
X201901101Y-146256600D02*
X201948720Y-146213742D01*
X201948720Y-146213742D02*
X201948720Y-145913742D01*
X201948720Y-145913742D02*
X201758244Y-145913742D01*
X202993006Y-145828028D02*
X202659673Y-145828028D01*
X202659673Y-146299457D02*
X202659673Y-145399457D01*
X202659673Y-145399457D02*
X203135863Y-145399457D01*
X203993006Y-146299457D02*
X203516816Y-146299457D01*
X203516816Y-146299457D02*
X203516816Y-145399457D01*
X204183483Y-145399457D02*
X204754911Y-145399457D01*
X204469197Y-146299457D02*
X204469197Y-145399457D01*
D10*
X222344999Y-135521764D02*
X222094999Y-135164621D01*
X221916428Y-135521764D02*
X221916428Y-134771764D01*
X221916428Y-134771764D02*
X222202142Y-134771764D01*
X222202142Y-134771764D02*
X222273571Y-134807478D01*
X222273571Y-134807478D02*
X222309285Y-134843192D01*
X222309285Y-134843192D02*
X222344999Y-134914621D01*
X222344999Y-134914621D02*
X222344999Y-135021764D01*
X222344999Y-135021764D02*
X222309285Y-135093192D01*
X222309285Y-135093192D02*
X222273571Y-135128907D01*
X222273571Y-135128907D02*
X222202142Y-135164621D01*
X222202142Y-135164621D02*
X221916428Y-135164621D01*
X222630714Y-134843192D02*
X222666428Y-134807478D01*
X222666428Y-134807478D02*
X222737857Y-134771764D01*
X222737857Y-134771764D02*
X222916428Y-134771764D01*
X222916428Y-134771764D02*
X222987857Y-134807478D01*
X222987857Y-134807478D02*
X223023571Y-134843192D01*
X223023571Y-134843192D02*
X223059285Y-134914621D01*
X223059285Y-134914621D02*
X223059285Y-134986050D01*
X223059285Y-134986050D02*
X223023571Y-135093192D01*
X223023571Y-135093192D02*
X222594999Y-135521764D01*
X222594999Y-135521764D02*
X223059285Y-135521764D01*
X215594999Y-145106764D02*
X215344999Y-144749621D01*
X215166428Y-145106764D02*
X215166428Y-144356764D01*
X215166428Y-144356764D02*
X215452142Y-144356764D01*
X215452142Y-144356764D02*
X215523571Y-144392478D01*
X215523571Y-144392478D02*
X215559285Y-144428192D01*
X215559285Y-144428192D02*
X215594999Y-144499621D01*
X215594999Y-144499621D02*
X215594999Y-144606764D01*
X215594999Y-144606764D02*
X215559285Y-144678192D01*
X215559285Y-144678192D02*
X215523571Y-144713907D01*
X215523571Y-144713907D02*
X215452142Y-144749621D01*
X215452142Y-144749621D02*
X215166428Y-144749621D01*
X216273571Y-144356764D02*
X215916428Y-144356764D01*
X215916428Y-144356764D02*
X215880714Y-144713907D01*
X215880714Y-144713907D02*
X215916428Y-144678192D01*
X215916428Y-144678192D02*
X215987857Y-144642478D01*
X215987857Y-144642478D02*
X216166428Y-144642478D01*
X216166428Y-144642478D02*
X216237857Y-144678192D01*
X216237857Y-144678192D02*
X216273571Y-144713907D01*
X216273571Y-144713907D02*
X216309285Y-144785335D01*
X216309285Y-144785335D02*
X216309285Y-144963907D01*
X216309285Y-144963907D02*
X216273571Y-145035335D01*
X216273571Y-145035335D02*
X216237857Y-145071050D01*
X216237857Y-145071050D02*
X216166428Y-145106764D01*
X216166428Y-145106764D02*
X215987857Y-145106764D01*
X215987857Y-145106764D02*
X215916428Y-145071050D01*
X215916428Y-145071050D02*
X215880714Y-145035335D01*
X200478571Y-136941764D02*
X200478571Y-137548907D01*
X200478571Y-137548907D02*
X200514285Y-137620335D01*
X200514285Y-137620335D02*
X200550000Y-137656050D01*
X200550000Y-137656050D02*
X200621428Y-137691764D01*
X200621428Y-137691764D02*
X200764285Y-137691764D01*
X200764285Y-137691764D02*
X200835714Y-137656050D01*
X200835714Y-137656050D02*
X200871428Y-137620335D01*
X200871428Y-137620335D02*
X200907142Y-137548907D01*
X200907142Y-137548907D02*
X200907142Y-136941764D01*
X201621428Y-136941764D02*
X201264285Y-136941764D01*
X201264285Y-136941764D02*
X201228571Y-137298907D01*
X201228571Y-137298907D02*
X201264285Y-137263192D01*
X201264285Y-137263192D02*
X201335714Y-137227478D01*
X201335714Y-137227478D02*
X201514285Y-137227478D01*
X201514285Y-137227478D02*
X201585714Y-137263192D01*
X201585714Y-137263192D02*
X201621428Y-137298907D01*
X201621428Y-137298907D02*
X201657142Y-137370335D01*
X201657142Y-137370335D02*
X201657142Y-137548907D01*
X201657142Y-137548907D02*
X201621428Y-137620335D01*
X201621428Y-137620335D02*
X201585714Y-137656050D01*
X201585714Y-137656050D02*
X201514285Y-137691764D01*
X201514285Y-137691764D02*
X201335714Y-137691764D01*
X201335714Y-137691764D02*
X201264285Y-137656050D01*
X201264285Y-137656050D02*
X201228571Y-137620335D01*
X209402856Y-144420335D02*
X209367142Y-144456050D01*
X209367142Y-144456050D02*
X209259999Y-144491764D01*
X209259999Y-144491764D02*
X209188571Y-144491764D01*
X209188571Y-144491764D02*
X209081428Y-144456050D01*
X209081428Y-144456050D02*
X209009999Y-144384621D01*
X209009999Y-144384621D02*
X208974285Y-144313192D01*
X208974285Y-144313192D02*
X208938571Y-144170335D01*
X208938571Y-144170335D02*
X208938571Y-144063192D01*
X208938571Y-144063192D02*
X208974285Y-143920335D01*
X208974285Y-143920335D02*
X209009999Y-143848907D01*
X209009999Y-143848907D02*
X209081428Y-143777478D01*
X209081428Y-143777478D02*
X209188571Y-143741764D01*
X209188571Y-143741764D02*
X209259999Y-143741764D01*
X209259999Y-143741764D02*
X209367142Y-143777478D01*
X209367142Y-143777478D02*
X209402856Y-143813192D01*
X209688571Y-143813192D02*
X209724285Y-143777478D01*
X209724285Y-143777478D02*
X209795714Y-143741764D01*
X209795714Y-143741764D02*
X209974285Y-143741764D01*
X209974285Y-143741764D02*
X210045714Y-143777478D01*
X210045714Y-143777478D02*
X210081428Y-143813192D01*
X210081428Y-143813192D02*
X210117142Y-143884621D01*
X210117142Y-143884621D02*
X210117142Y-143956050D01*
X210117142Y-143956050D02*
X210081428Y-144063192D01*
X210081428Y-144063192D02*
X209652856Y-144491764D01*
X209652856Y-144491764D02*
X210117142Y-144491764D01*
X210474285Y-144491764D02*
X210617142Y-144491764D01*
X210617142Y-144491764D02*
X210688571Y-144456050D01*
X210688571Y-144456050D02*
X210724285Y-144420335D01*
X210724285Y-144420335D02*
X210795714Y-144313192D01*
X210795714Y-144313192D02*
X210831428Y-144170335D01*
X210831428Y-144170335D02*
X210831428Y-143884621D01*
X210831428Y-143884621D02*
X210795714Y-143813192D01*
X210795714Y-143813192D02*
X210760000Y-143777478D01*
X210760000Y-143777478D02*
X210688571Y-143741764D01*
X210688571Y-143741764D02*
X210545714Y-143741764D01*
X210545714Y-143741764D02*
X210474285Y-143777478D01*
X210474285Y-143777478D02*
X210438571Y-143813192D01*
X210438571Y-143813192D02*
X210402857Y-143884621D01*
X210402857Y-143884621D02*
X210402857Y-144063192D01*
X210402857Y-144063192D02*
X210438571Y-144134621D01*
X210438571Y-144134621D02*
X210474285Y-144170335D01*
X210474285Y-144170335D02*
X210545714Y-144206050D01*
X210545714Y-144206050D02*
X210688571Y-144206050D01*
X210688571Y-144206050D02*
X210760000Y-144170335D01*
X210760000Y-144170335D02*
X210795714Y-144134621D01*
X210795714Y-144134621D02*
X210831428Y-144063192D01*
X226374999Y-134300335D02*
X226339285Y-134336050D01*
X226339285Y-134336050D02*
X226232142Y-134371764D01*
X226232142Y-134371764D02*
X226160714Y-134371764D01*
X226160714Y-134371764D02*
X226053571Y-134336050D01*
X226053571Y-134336050D02*
X225982142Y-134264621D01*
X225982142Y-134264621D02*
X225946428Y-134193192D01*
X225946428Y-134193192D02*
X225910714Y-134050335D01*
X225910714Y-134050335D02*
X225910714Y-133943192D01*
X225910714Y-133943192D02*
X225946428Y-133800335D01*
X225946428Y-133800335D02*
X225982142Y-133728907D01*
X225982142Y-133728907D02*
X226053571Y-133657478D01*
X226053571Y-133657478D02*
X226160714Y-133621764D01*
X226160714Y-133621764D02*
X226232142Y-133621764D01*
X226232142Y-133621764D02*
X226339285Y-133657478D01*
X226339285Y-133657478D02*
X226374999Y-133693192D01*
X226660714Y-133693192D02*
X226696428Y-133657478D01*
X226696428Y-133657478D02*
X226767857Y-133621764D01*
X226767857Y-133621764D02*
X226946428Y-133621764D01*
X226946428Y-133621764D02*
X227017857Y-133657478D01*
X227017857Y-133657478D02*
X227053571Y-133693192D01*
X227053571Y-133693192D02*
X227089285Y-133764621D01*
X227089285Y-133764621D02*
X227089285Y-133836050D01*
X227089285Y-133836050D02*
X227053571Y-133943192D01*
X227053571Y-133943192D02*
X226624999Y-134371764D01*
X226624999Y-134371764D02*
X227089285Y-134371764D01*
X217824999Y-141991764D02*
X217574999Y-141634621D01*
X217396428Y-141991764D02*
X217396428Y-141241764D01*
X217396428Y-141241764D02*
X217682142Y-141241764D01*
X217682142Y-141241764D02*
X217753571Y-141277478D01*
X217753571Y-141277478D02*
X217789285Y-141313192D01*
X217789285Y-141313192D02*
X217824999Y-141384621D01*
X217824999Y-141384621D02*
X217824999Y-141491764D01*
X217824999Y-141491764D02*
X217789285Y-141563192D01*
X217789285Y-141563192D02*
X217753571Y-141598907D01*
X217753571Y-141598907D02*
X217682142Y-141634621D01*
X217682142Y-141634621D02*
X217396428Y-141634621D01*
X218253571Y-141563192D02*
X218182142Y-141527478D01*
X218182142Y-141527478D02*
X218146428Y-141491764D01*
X218146428Y-141491764D02*
X218110714Y-141420335D01*
X218110714Y-141420335D02*
X218110714Y-141384621D01*
X218110714Y-141384621D02*
X218146428Y-141313192D01*
X218146428Y-141313192D02*
X218182142Y-141277478D01*
X218182142Y-141277478D02*
X218253571Y-141241764D01*
X218253571Y-141241764D02*
X218396428Y-141241764D01*
X218396428Y-141241764D02*
X218467857Y-141277478D01*
X218467857Y-141277478D02*
X218503571Y-141313192D01*
X218503571Y-141313192D02*
X218539285Y-141384621D01*
X218539285Y-141384621D02*
X218539285Y-141420335D01*
X218539285Y-141420335D02*
X218503571Y-141491764D01*
X218503571Y-141491764D02*
X218467857Y-141527478D01*
X218467857Y-141527478D02*
X218396428Y-141563192D01*
X218396428Y-141563192D02*
X218253571Y-141563192D01*
X218253571Y-141563192D02*
X218182142Y-141598907D01*
X218182142Y-141598907D02*
X218146428Y-141634621D01*
X218146428Y-141634621D02*
X218110714Y-141706050D01*
X218110714Y-141706050D02*
X218110714Y-141848907D01*
X218110714Y-141848907D02*
X218146428Y-141920335D01*
X218146428Y-141920335D02*
X218182142Y-141956050D01*
X218182142Y-141956050D02*
X218253571Y-141991764D01*
X218253571Y-141991764D02*
X218396428Y-141991764D01*
X218396428Y-141991764D02*
X218467857Y-141956050D01*
X218467857Y-141956050D02*
X218503571Y-141920335D01*
X218503571Y-141920335D02*
X218539285Y-141848907D01*
X218539285Y-141848907D02*
X218539285Y-141706050D01*
X218539285Y-141706050D02*
X218503571Y-141634621D01*
X218503571Y-141634621D02*
X218467857Y-141598907D01*
X218467857Y-141598907D02*
X218396428Y-141563192D01*
X205477856Y-134680335D02*
X205442142Y-134716050D01*
X205442142Y-134716050D02*
X205334999Y-134751764D01*
X205334999Y-134751764D02*
X205263571Y-134751764D01*
X205263571Y-134751764D02*
X205156428Y-134716050D01*
X205156428Y-134716050D02*
X205084999Y-134644621D01*
X205084999Y-134644621D02*
X205049285Y-134573192D01*
X205049285Y-134573192D02*
X205013571Y-134430335D01*
X205013571Y-134430335D02*
X205013571Y-134323192D01*
X205013571Y-134323192D02*
X205049285Y-134180335D01*
X205049285Y-134180335D02*
X205084999Y-134108907D01*
X205084999Y-134108907D02*
X205156428Y-134037478D01*
X205156428Y-134037478D02*
X205263571Y-134001764D01*
X205263571Y-134001764D02*
X205334999Y-134001764D01*
X205334999Y-134001764D02*
X205442142Y-134037478D01*
X205442142Y-134037478D02*
X205477856Y-134073192D01*
X206192142Y-134751764D02*
X205763571Y-134751764D01*
X205977856Y-134751764D02*
X205977856Y-134001764D01*
X205977856Y-134001764D02*
X205906428Y-134108907D01*
X205906428Y-134108907D02*
X205834999Y-134180335D01*
X205834999Y-134180335D02*
X205763571Y-134216050D01*
X206870714Y-134001764D02*
X206513571Y-134001764D01*
X206513571Y-134001764D02*
X206477857Y-134358907D01*
X206477857Y-134358907D02*
X206513571Y-134323192D01*
X206513571Y-134323192D02*
X206585000Y-134287478D01*
X206585000Y-134287478D02*
X206763571Y-134287478D01*
X206763571Y-134287478D02*
X206835000Y-134323192D01*
X206835000Y-134323192D02*
X206870714Y-134358907D01*
X206870714Y-134358907D02*
X206906428Y-134430335D01*
X206906428Y-134430335D02*
X206906428Y-134608907D01*
X206906428Y-134608907D02*
X206870714Y-134680335D01*
X206870714Y-134680335D02*
X206835000Y-134716050D01*
X206835000Y-134716050D02*
X206763571Y-134751764D01*
X206763571Y-134751764D02*
X206585000Y-134751764D01*
X206585000Y-134751764D02*
X206513571Y-134716050D01*
X206513571Y-134716050D02*
X206477857Y-134680335D01*
X207767856Y-132890335D02*
X207732142Y-132926050D01*
X207732142Y-132926050D02*
X207624999Y-132961764D01*
X207624999Y-132961764D02*
X207553571Y-132961764D01*
X207553571Y-132961764D02*
X207446428Y-132926050D01*
X207446428Y-132926050D02*
X207374999Y-132854621D01*
X207374999Y-132854621D02*
X207339285Y-132783192D01*
X207339285Y-132783192D02*
X207303571Y-132640335D01*
X207303571Y-132640335D02*
X207303571Y-132533192D01*
X207303571Y-132533192D02*
X207339285Y-132390335D01*
X207339285Y-132390335D02*
X207374999Y-132318907D01*
X207374999Y-132318907D02*
X207446428Y-132247478D01*
X207446428Y-132247478D02*
X207553571Y-132211764D01*
X207553571Y-132211764D02*
X207624999Y-132211764D01*
X207624999Y-132211764D02*
X207732142Y-132247478D01*
X207732142Y-132247478D02*
X207767856Y-132283192D01*
X208482142Y-132961764D02*
X208053571Y-132961764D01*
X208267856Y-132961764D02*
X208267856Y-132211764D01*
X208267856Y-132211764D02*
X208196428Y-132318907D01*
X208196428Y-132318907D02*
X208124999Y-132390335D01*
X208124999Y-132390335D02*
X208053571Y-132426050D01*
X209196428Y-132961764D02*
X208767857Y-132961764D01*
X208982142Y-132961764D02*
X208982142Y-132211764D01*
X208982142Y-132211764D02*
X208910714Y-132318907D01*
X208910714Y-132318907D02*
X208839285Y-132390335D01*
X208839285Y-132390335D02*
X208767857Y-132426050D01*
D11*
X227826666Y-128624819D02*
X227826666Y-129339104D01*
X227826666Y-129339104D02*
X227779047Y-129481961D01*
X227779047Y-129481961D02*
X227683809Y-129577200D01*
X227683809Y-129577200D02*
X227540952Y-129624819D01*
X227540952Y-129624819D02*
X227445714Y-129624819D01*
X228826666Y-129624819D02*
X228255238Y-129624819D01*
X228540952Y-129624819D02*
X228540952Y-128624819D01*
X228540952Y-128624819D02*
X228445714Y-128767676D01*
X228445714Y-128767676D02*
X228350476Y-128862914D01*
X228350476Y-128862914D02*
X228255238Y-128910533D01*
D10*
X217259999Y-144401764D02*
X217009999Y-144044621D01*
X216831428Y-144401764D02*
X216831428Y-143651764D01*
X216831428Y-143651764D02*
X217117142Y-143651764D01*
X217117142Y-143651764D02*
X217188571Y-143687478D01*
X217188571Y-143687478D02*
X217224285Y-143723192D01*
X217224285Y-143723192D02*
X217259999Y-143794621D01*
X217259999Y-143794621D02*
X217259999Y-143901764D01*
X217259999Y-143901764D02*
X217224285Y-143973192D01*
X217224285Y-143973192D02*
X217188571Y-144008907D01*
X217188571Y-144008907D02*
X217117142Y-144044621D01*
X217117142Y-144044621D02*
X216831428Y-144044621D01*
X217509999Y-143651764D02*
X218009999Y-143651764D01*
X218009999Y-143651764D02*
X217688571Y-144401764D01*
X225545000Y-136681764D02*
X225187857Y-136681764D01*
X225187857Y-136681764D02*
X225187857Y-135931764D01*
X226187857Y-136681764D02*
X225759286Y-136681764D01*
X225973571Y-136681764D02*
X225973571Y-135931764D01*
X225973571Y-135931764D02*
X225902143Y-136038907D01*
X225902143Y-136038907D02*
X225830714Y-136110335D01*
X225830714Y-136110335D02*
X225759286Y-136146050D01*
X206685000Y-138741764D02*
X206327857Y-138741764D01*
X206327857Y-138741764D02*
X206327857Y-137991764D01*
X207256429Y-138241764D02*
X207256429Y-138741764D01*
X207077857Y-137956050D02*
X206899286Y-138491764D01*
X206899286Y-138491764D02*
X207363571Y-138491764D01*
X221117856Y-142410335D02*
X221082142Y-142446050D01*
X221082142Y-142446050D02*
X220974999Y-142481764D01*
X220974999Y-142481764D02*
X220903571Y-142481764D01*
X220903571Y-142481764D02*
X220796428Y-142446050D01*
X220796428Y-142446050D02*
X220724999Y-142374621D01*
X220724999Y-142374621D02*
X220689285Y-142303192D01*
X220689285Y-142303192D02*
X220653571Y-142160335D01*
X220653571Y-142160335D02*
X220653571Y-142053192D01*
X220653571Y-142053192D02*
X220689285Y-141910335D01*
X220689285Y-141910335D02*
X220724999Y-141838907D01*
X220724999Y-141838907D02*
X220796428Y-141767478D01*
X220796428Y-141767478D02*
X220903571Y-141731764D01*
X220903571Y-141731764D02*
X220974999Y-141731764D01*
X220974999Y-141731764D02*
X221082142Y-141767478D01*
X221082142Y-141767478D02*
X221117856Y-141803192D01*
X221403571Y-141803192D02*
X221439285Y-141767478D01*
X221439285Y-141767478D02*
X221510714Y-141731764D01*
X221510714Y-141731764D02*
X221689285Y-141731764D01*
X221689285Y-141731764D02*
X221760714Y-141767478D01*
X221760714Y-141767478D02*
X221796428Y-141803192D01*
X221796428Y-141803192D02*
X221832142Y-141874621D01*
X221832142Y-141874621D02*
X221832142Y-141946050D01*
X221832142Y-141946050D02*
X221796428Y-142053192D01*
X221796428Y-142053192D02*
X221367856Y-142481764D01*
X221367856Y-142481764D02*
X221832142Y-142481764D01*
X222546428Y-142481764D02*
X222117857Y-142481764D01*
X222332142Y-142481764D02*
X222332142Y-141731764D01*
X222332142Y-141731764D02*
X222260714Y-141838907D01*
X222260714Y-141838907D02*
X222189285Y-141910335D01*
X222189285Y-141910335D02*
X222117857Y-141946050D01*
X224659999Y-134350335D02*
X224624285Y-134386050D01*
X224624285Y-134386050D02*
X224517142Y-134421764D01*
X224517142Y-134421764D02*
X224445714Y-134421764D01*
X224445714Y-134421764D02*
X224338571Y-134386050D01*
X224338571Y-134386050D02*
X224267142Y-134314621D01*
X224267142Y-134314621D02*
X224231428Y-134243192D01*
X224231428Y-134243192D02*
X224195714Y-134100335D01*
X224195714Y-134100335D02*
X224195714Y-133993192D01*
X224195714Y-133993192D02*
X224231428Y-133850335D01*
X224231428Y-133850335D02*
X224267142Y-133778907D01*
X224267142Y-133778907D02*
X224338571Y-133707478D01*
X224338571Y-133707478D02*
X224445714Y-133671764D01*
X224445714Y-133671764D02*
X224517142Y-133671764D01*
X224517142Y-133671764D02*
X224624285Y-133707478D01*
X224624285Y-133707478D02*
X224659999Y-133743192D01*
X224909999Y-133671764D02*
X225374285Y-133671764D01*
X225374285Y-133671764D02*
X225124285Y-133957478D01*
X225124285Y-133957478D02*
X225231428Y-133957478D01*
X225231428Y-133957478D02*
X225302857Y-133993192D01*
X225302857Y-133993192D02*
X225338571Y-134028907D01*
X225338571Y-134028907D02*
X225374285Y-134100335D01*
X225374285Y-134100335D02*
X225374285Y-134278907D01*
X225374285Y-134278907D02*
X225338571Y-134350335D01*
X225338571Y-134350335D02*
X225302857Y-134386050D01*
X225302857Y-134386050D02*
X225231428Y-134421764D01*
X225231428Y-134421764D02*
X225017142Y-134421764D01*
X225017142Y-134421764D02*
X224945714Y-134386050D01*
X224945714Y-134386050D02*
X224909999Y-134350335D01*
D11*
X199776666Y-138614819D02*
X199776666Y-139329104D01*
X199776666Y-139329104D02*
X199729047Y-139471961D01*
X199729047Y-139471961D02*
X199633809Y-139567200D01*
X199633809Y-139567200D02*
X199490952Y-139614819D01*
X199490952Y-139614819D02*
X199395714Y-139614819D01*
X200157619Y-138614819D02*
X200776666Y-138614819D01*
X200776666Y-138614819D02*
X200443333Y-138995771D01*
X200443333Y-138995771D02*
X200586190Y-138995771D01*
X200586190Y-138995771D02*
X200681428Y-139043390D01*
X200681428Y-139043390D02*
X200729047Y-139091009D01*
X200729047Y-139091009D02*
X200776666Y-139186247D01*
X200776666Y-139186247D02*
X200776666Y-139424342D01*
X200776666Y-139424342D02*
X200729047Y-139519580D01*
X200729047Y-139519580D02*
X200681428Y-139567200D01*
X200681428Y-139567200D02*
X200586190Y-139614819D01*
X200586190Y-139614819D02*
X200300476Y-139614819D01*
X200300476Y-139614819D02*
X200205238Y-139567200D01*
X200205238Y-139567200D02*
X200157619Y-139519580D01*
X227716666Y-146044819D02*
X227716666Y-146759104D01*
X227716666Y-146759104D02*
X227669047Y-146901961D01*
X227669047Y-146901961D02*
X227573809Y-146997200D01*
X227573809Y-146997200D02*
X227430952Y-147044819D01*
X227430952Y-147044819D02*
X227335714Y-147044819D01*
X228145238Y-146140057D02*
X228192857Y-146092438D01*
X228192857Y-146092438D02*
X228288095Y-146044819D01*
X228288095Y-146044819D02*
X228526190Y-146044819D01*
X228526190Y-146044819D02*
X228621428Y-146092438D01*
X228621428Y-146092438D02*
X228669047Y-146140057D01*
X228669047Y-146140057D02*
X228716666Y-146235295D01*
X228716666Y-146235295D02*
X228716666Y-146330533D01*
X228716666Y-146330533D02*
X228669047Y-146473390D01*
X228669047Y-146473390D02*
X228097619Y-147044819D01*
X228097619Y-147044819D02*
X228716666Y-147044819D01*
D10*
X223648571Y-143481764D02*
X223648571Y-144088907D01*
X223648571Y-144088907D02*
X223684285Y-144160335D01*
X223684285Y-144160335D02*
X223720000Y-144196050D01*
X223720000Y-144196050D02*
X223791428Y-144231764D01*
X223791428Y-144231764D02*
X223934285Y-144231764D01*
X223934285Y-144231764D02*
X224005714Y-144196050D01*
X224005714Y-144196050D02*
X224041428Y-144160335D01*
X224041428Y-144160335D02*
X224077142Y-144088907D01*
X224077142Y-144088907D02*
X224077142Y-143481764D01*
X224362856Y-143481764D02*
X224827142Y-143481764D01*
X224827142Y-143481764D02*
X224577142Y-143767478D01*
X224577142Y-143767478D02*
X224684285Y-143767478D01*
X224684285Y-143767478D02*
X224755714Y-143803192D01*
X224755714Y-143803192D02*
X224791428Y-143838907D01*
X224791428Y-143838907D02*
X224827142Y-143910335D01*
X224827142Y-143910335D02*
X224827142Y-144088907D01*
X224827142Y-144088907D02*
X224791428Y-144160335D01*
X224791428Y-144160335D02*
X224755714Y-144196050D01*
X224755714Y-144196050D02*
X224684285Y-144231764D01*
X224684285Y-144231764D02*
X224469999Y-144231764D01*
X224469999Y-144231764D02*
X224398571Y-144196050D01*
X224398571Y-144196050D02*
X224362856Y-144160335D01*
X214882856Y-142380335D02*
X214847142Y-142416050D01*
X214847142Y-142416050D02*
X214739999Y-142451764D01*
X214739999Y-142451764D02*
X214668571Y-142451764D01*
X214668571Y-142451764D02*
X214561428Y-142416050D01*
X214561428Y-142416050D02*
X214489999Y-142344621D01*
X214489999Y-142344621D02*
X214454285Y-142273192D01*
X214454285Y-142273192D02*
X214418571Y-142130335D01*
X214418571Y-142130335D02*
X214418571Y-142023192D01*
X214418571Y-142023192D02*
X214454285Y-141880335D01*
X214454285Y-141880335D02*
X214489999Y-141808907D01*
X214489999Y-141808907D02*
X214561428Y-141737478D01*
X214561428Y-141737478D02*
X214668571Y-141701764D01*
X214668571Y-141701764D02*
X214739999Y-141701764D01*
X214739999Y-141701764D02*
X214847142Y-141737478D01*
X214847142Y-141737478D02*
X214882856Y-141773192D01*
X215132856Y-141701764D02*
X215597142Y-141701764D01*
X215597142Y-141701764D02*
X215347142Y-141987478D01*
X215347142Y-141987478D02*
X215454285Y-141987478D01*
X215454285Y-141987478D02*
X215525714Y-142023192D01*
X215525714Y-142023192D02*
X215561428Y-142058907D01*
X215561428Y-142058907D02*
X215597142Y-142130335D01*
X215597142Y-142130335D02*
X215597142Y-142308907D01*
X215597142Y-142308907D02*
X215561428Y-142380335D01*
X215561428Y-142380335D02*
X215525714Y-142416050D01*
X215525714Y-142416050D02*
X215454285Y-142451764D01*
X215454285Y-142451764D02*
X215239999Y-142451764D01*
X215239999Y-142451764D02*
X215168571Y-142416050D01*
X215168571Y-142416050D02*
X215132856Y-142380335D01*
X216240000Y-141951764D02*
X216240000Y-142451764D01*
X216061428Y-141666050D02*
X215882857Y-142201764D01*
X215882857Y-142201764D02*
X216347142Y-142201764D01*
D11*
X199386666Y-133214819D02*
X199386666Y-133929104D01*
X199386666Y-133929104D02*
X199339047Y-134071961D01*
X199339047Y-134071961D02*
X199243809Y-134167200D01*
X199243809Y-134167200D02*
X199100952Y-134214819D01*
X199100952Y-134214819D02*
X199005714Y-134214819D01*
X200339047Y-133214819D02*
X199862857Y-133214819D01*
X199862857Y-133214819D02*
X199815238Y-133691009D01*
X199815238Y-133691009D02*
X199862857Y-133643390D01*
X199862857Y-133643390D02*
X199958095Y-133595771D01*
X199958095Y-133595771D02*
X200196190Y-133595771D01*
X200196190Y-133595771D02*
X200291428Y-133643390D01*
X200291428Y-133643390D02*
X200339047Y-133691009D01*
X200339047Y-133691009D02*
X200386666Y-133786247D01*
X200386666Y-133786247D02*
X200386666Y-134024342D01*
X200386666Y-134024342D02*
X200339047Y-134119580D01*
X200339047Y-134119580D02*
X200291428Y-134167200D01*
X200291428Y-134167200D02*
X200196190Y-134214819D01*
X200196190Y-134214819D02*
X199958095Y-134214819D01*
X199958095Y-134214819D02*
X199862857Y-134167200D01*
X199862857Y-134167200D02*
X199815238Y-134119580D01*
X208166666Y-133504819D02*
X208166666Y-134219104D01*
X208166666Y-134219104D02*
X208119047Y-134361961D01*
X208119047Y-134361961D02*
X208023809Y-134457200D01*
X208023809Y-134457200D02*
X207880952Y-134504819D01*
X207880952Y-134504819D02*
X207785714Y-134504819D01*
X209071428Y-133838152D02*
X209071428Y-134504819D01*
X208833333Y-133457200D02*
X208595238Y-134171485D01*
X208595238Y-134171485D02*
X209214285Y-134171485D01*
D10*
X220757856Y-131020335D02*
X220722142Y-131056050D01*
X220722142Y-131056050D02*
X220614999Y-131091764D01*
X220614999Y-131091764D02*
X220543571Y-131091764D01*
X220543571Y-131091764D02*
X220436428Y-131056050D01*
X220436428Y-131056050D02*
X220364999Y-130984621D01*
X220364999Y-130984621D02*
X220329285Y-130913192D01*
X220329285Y-130913192D02*
X220293571Y-130770335D01*
X220293571Y-130770335D02*
X220293571Y-130663192D01*
X220293571Y-130663192D02*
X220329285Y-130520335D01*
X220329285Y-130520335D02*
X220364999Y-130448907D01*
X220364999Y-130448907D02*
X220436428Y-130377478D01*
X220436428Y-130377478D02*
X220543571Y-130341764D01*
X220543571Y-130341764D02*
X220614999Y-130341764D01*
X220614999Y-130341764D02*
X220722142Y-130377478D01*
X220722142Y-130377478D02*
X220757856Y-130413192D01*
X221007856Y-130341764D02*
X221472142Y-130341764D01*
X221472142Y-130341764D02*
X221222142Y-130627478D01*
X221222142Y-130627478D02*
X221329285Y-130627478D01*
X221329285Y-130627478D02*
X221400714Y-130663192D01*
X221400714Y-130663192D02*
X221436428Y-130698907D01*
X221436428Y-130698907D02*
X221472142Y-130770335D01*
X221472142Y-130770335D02*
X221472142Y-130948907D01*
X221472142Y-130948907D02*
X221436428Y-131020335D01*
X221436428Y-131020335D02*
X221400714Y-131056050D01*
X221400714Y-131056050D02*
X221329285Y-131091764D01*
X221329285Y-131091764D02*
X221114999Y-131091764D01*
X221114999Y-131091764D02*
X221043571Y-131056050D01*
X221043571Y-131056050D02*
X221007856Y-131020335D01*
X222186428Y-131091764D02*
X221757857Y-131091764D01*
X221972142Y-131091764D02*
X221972142Y-130341764D01*
X221972142Y-130341764D02*
X221900714Y-130448907D01*
X221900714Y-130448907D02*
X221829285Y-130520335D01*
X221829285Y-130520335D02*
X221757857Y-130556050D01*
X204607856Y-143086764D02*
X204357856Y-142729621D01*
X204179285Y-143086764D02*
X204179285Y-142336764D01*
X204179285Y-142336764D02*
X204464999Y-142336764D01*
X204464999Y-142336764D02*
X204536428Y-142372478D01*
X204536428Y-142372478D02*
X204572142Y-142408192D01*
X204572142Y-142408192D02*
X204607856Y-142479621D01*
X204607856Y-142479621D02*
X204607856Y-142586764D01*
X204607856Y-142586764D02*
X204572142Y-142658192D01*
X204572142Y-142658192D02*
X204536428Y-142693907D01*
X204536428Y-142693907D02*
X204464999Y-142729621D01*
X204464999Y-142729621D02*
X204179285Y-142729621D01*
X205322142Y-143086764D02*
X204893571Y-143086764D01*
X205107856Y-143086764D02*
X205107856Y-142336764D01*
X205107856Y-142336764D02*
X205036428Y-142443907D01*
X205036428Y-142443907D02*
X204964999Y-142515335D01*
X204964999Y-142515335D02*
X204893571Y-142551050D01*
X205607857Y-142408192D02*
X205643571Y-142372478D01*
X205643571Y-142372478D02*
X205715000Y-142336764D01*
X205715000Y-142336764D02*
X205893571Y-142336764D01*
X205893571Y-142336764D02*
X205965000Y-142372478D01*
X205965000Y-142372478D02*
X206000714Y-142408192D01*
X206000714Y-142408192D02*
X206036428Y-142479621D01*
X206036428Y-142479621D02*
X206036428Y-142551050D01*
X206036428Y-142551050D02*
X206000714Y-142658192D01*
X206000714Y-142658192D02*
X205572142Y-143086764D01*
X205572142Y-143086764D02*
X206036428Y-143086764D01*
X226082857Y-131524621D02*
X226082857Y-131881764D01*
X225832857Y-131131764D02*
X226082857Y-131524621D01*
X226082857Y-131524621D02*
X226332857Y-131131764D01*
X226975714Y-131881764D02*
X226547143Y-131881764D01*
X226761428Y-131881764D02*
X226761428Y-131131764D01*
X226761428Y-131131764D02*
X226690000Y-131238907D01*
X226690000Y-131238907D02*
X226618571Y-131310335D01*
X226618571Y-131310335D02*
X226547143Y-131346050D01*
X200130335Y-132057143D02*
X200166050Y-132092857D01*
X200166050Y-132092857D02*
X200201764Y-132200000D01*
X200201764Y-132200000D02*
X200201764Y-132271428D01*
X200201764Y-132271428D02*
X200166050Y-132378571D01*
X200166050Y-132378571D02*
X200094621Y-132450000D01*
X200094621Y-132450000D02*
X200023192Y-132485714D01*
X200023192Y-132485714D02*
X199880335Y-132521428D01*
X199880335Y-132521428D02*
X199773192Y-132521428D01*
X199773192Y-132521428D02*
X199630335Y-132485714D01*
X199630335Y-132485714D02*
X199558907Y-132450000D01*
X199558907Y-132450000D02*
X199487478Y-132378571D01*
X199487478Y-132378571D02*
X199451764Y-132271428D01*
X199451764Y-132271428D02*
X199451764Y-132200000D01*
X199451764Y-132200000D02*
X199487478Y-132092857D01*
X199487478Y-132092857D02*
X199523192Y-132057143D01*
X199523192Y-131771428D02*
X199487478Y-131735714D01*
X199487478Y-131735714D02*
X199451764Y-131664286D01*
X199451764Y-131664286D02*
X199451764Y-131485714D01*
X199451764Y-131485714D02*
X199487478Y-131414286D01*
X199487478Y-131414286D02*
X199523192Y-131378571D01*
X199523192Y-131378571D02*
X199594621Y-131342857D01*
X199594621Y-131342857D02*
X199666050Y-131342857D01*
X199666050Y-131342857D02*
X199773192Y-131378571D01*
X199773192Y-131378571D02*
X200201764Y-131807143D01*
X200201764Y-131807143D02*
X200201764Y-131342857D01*
X199451764Y-130878571D02*
X199451764Y-130807142D01*
X199451764Y-130807142D02*
X199487478Y-130735714D01*
X199487478Y-130735714D02*
X199523192Y-130700000D01*
X199523192Y-130700000D02*
X199594621Y-130664285D01*
X199594621Y-130664285D02*
X199737478Y-130628571D01*
X199737478Y-130628571D02*
X199916050Y-130628571D01*
X199916050Y-130628571D02*
X200058907Y-130664285D01*
X200058907Y-130664285D02*
X200130335Y-130700000D01*
X200130335Y-130700000D02*
X200166050Y-130735714D01*
X200166050Y-130735714D02*
X200201764Y-130807142D01*
X200201764Y-130807142D02*
X200201764Y-130878571D01*
X200201764Y-130878571D02*
X200166050Y-130950000D01*
X200166050Y-130950000D02*
X200130335Y-130985714D01*
X200130335Y-130985714D02*
X200058907Y-131021428D01*
X200058907Y-131021428D02*
X199916050Y-131057142D01*
X199916050Y-131057142D02*
X199737478Y-131057142D01*
X199737478Y-131057142D02*
X199594621Y-131021428D01*
X199594621Y-131021428D02*
X199523192Y-130985714D01*
X199523192Y-130985714D02*
X199487478Y-130950000D01*
X199487478Y-130950000D02*
X199451764Y-130878571D01*
X210227857Y-141474621D02*
X210227857Y-141831764D01*
X209977857Y-141081764D02*
X210227857Y-141474621D01*
X210227857Y-141474621D02*
X210477857Y-141081764D01*
X210692143Y-141153192D02*
X210727857Y-141117478D01*
X210727857Y-141117478D02*
X210799286Y-141081764D01*
X210799286Y-141081764D02*
X210977857Y-141081764D01*
X210977857Y-141081764D02*
X211049286Y-141117478D01*
X211049286Y-141117478D02*
X211085000Y-141153192D01*
X211085000Y-141153192D02*
X211120714Y-141224621D01*
X211120714Y-141224621D02*
X211120714Y-141296050D01*
X211120714Y-141296050D02*
X211085000Y-141403192D01*
X211085000Y-141403192D02*
X210656428Y-141831764D01*
X210656428Y-141831764D02*
X211120714Y-141831764D01*
X204098571Y-133031764D02*
X204098571Y-133638907D01*
X204098571Y-133638907D02*
X204134285Y-133710335D01*
X204134285Y-133710335D02*
X204170000Y-133746050D01*
X204170000Y-133746050D02*
X204241428Y-133781764D01*
X204241428Y-133781764D02*
X204384285Y-133781764D01*
X204384285Y-133781764D02*
X204455714Y-133746050D01*
X204455714Y-133746050D02*
X204491428Y-133710335D01*
X204491428Y-133710335D02*
X204527142Y-133638907D01*
X204527142Y-133638907D02*
X204527142Y-133031764D01*
X205205714Y-133031764D02*
X205062856Y-133031764D01*
X205062856Y-133031764D02*
X204991428Y-133067478D01*
X204991428Y-133067478D02*
X204955714Y-133103192D01*
X204955714Y-133103192D02*
X204884285Y-133210335D01*
X204884285Y-133210335D02*
X204848571Y-133353192D01*
X204848571Y-133353192D02*
X204848571Y-133638907D01*
X204848571Y-133638907D02*
X204884285Y-133710335D01*
X204884285Y-133710335D02*
X204919999Y-133746050D01*
X204919999Y-133746050D02*
X204991428Y-133781764D01*
X204991428Y-133781764D02*
X205134285Y-133781764D01*
X205134285Y-133781764D02*
X205205714Y-133746050D01*
X205205714Y-133746050D02*
X205241428Y-133710335D01*
X205241428Y-133710335D02*
X205277142Y-133638907D01*
X205277142Y-133638907D02*
X205277142Y-133460335D01*
X205277142Y-133460335D02*
X205241428Y-133388907D01*
X205241428Y-133388907D02*
X205205714Y-133353192D01*
X205205714Y-133353192D02*
X205134285Y-133317478D01*
X205134285Y-133317478D02*
X204991428Y-133317478D01*
X204991428Y-133317478D02*
X204919999Y-133353192D01*
X204919999Y-133353192D02*
X204884285Y-133388907D01*
X204884285Y-133388907D02*
X204848571Y-133460335D01*
X219974999Y-144346764D02*
X219724999Y-143989621D01*
X219546428Y-144346764D02*
X219546428Y-143596764D01*
X219546428Y-143596764D02*
X219832142Y-143596764D01*
X219832142Y-143596764D02*
X219903571Y-143632478D01*
X219903571Y-143632478D02*
X219939285Y-143668192D01*
X219939285Y-143668192D02*
X219974999Y-143739621D01*
X219974999Y-143739621D02*
X219974999Y-143846764D01*
X219974999Y-143846764D02*
X219939285Y-143918192D01*
X219939285Y-143918192D02*
X219903571Y-143953907D01*
X219903571Y-143953907D02*
X219832142Y-143989621D01*
X219832142Y-143989621D02*
X219546428Y-143989621D01*
X220617857Y-143596764D02*
X220474999Y-143596764D01*
X220474999Y-143596764D02*
X220403571Y-143632478D01*
X220403571Y-143632478D02*
X220367857Y-143668192D01*
X220367857Y-143668192D02*
X220296428Y-143775335D01*
X220296428Y-143775335D02*
X220260714Y-143918192D01*
X220260714Y-143918192D02*
X220260714Y-144203907D01*
X220260714Y-144203907D02*
X220296428Y-144275335D01*
X220296428Y-144275335D02*
X220332142Y-144311050D01*
X220332142Y-144311050D02*
X220403571Y-144346764D01*
X220403571Y-144346764D02*
X220546428Y-144346764D01*
X220546428Y-144346764D02*
X220617857Y-144311050D01*
X220617857Y-144311050D02*
X220653571Y-144275335D01*
X220653571Y-144275335D02*
X220689285Y-144203907D01*
X220689285Y-144203907D02*
X220689285Y-144025335D01*
X220689285Y-144025335D02*
X220653571Y-143953907D01*
X220653571Y-143953907D02*
X220617857Y-143918192D01*
X220617857Y-143918192D02*
X220546428Y-143882478D01*
X220546428Y-143882478D02*
X220403571Y-143882478D01*
X220403571Y-143882478D02*
X220332142Y-143918192D01*
X220332142Y-143918192D02*
X220296428Y-143953907D01*
X220296428Y-143953907D02*
X220260714Y-144025335D01*
X204518571Y-128691764D02*
X204518571Y-129298907D01*
X204518571Y-129298907D02*
X204554285Y-129370335D01*
X204554285Y-129370335D02*
X204590000Y-129406050D01*
X204590000Y-129406050D02*
X204661428Y-129441764D01*
X204661428Y-129441764D02*
X204804285Y-129441764D01*
X204804285Y-129441764D02*
X204875714Y-129406050D01*
X204875714Y-129406050D02*
X204911428Y-129370335D01*
X204911428Y-129370335D02*
X204947142Y-129298907D01*
X204947142Y-129298907D02*
X204947142Y-128691764D01*
X205411428Y-129013192D02*
X205339999Y-128977478D01*
X205339999Y-128977478D02*
X205304285Y-128941764D01*
X205304285Y-128941764D02*
X205268571Y-128870335D01*
X205268571Y-128870335D02*
X205268571Y-128834621D01*
X205268571Y-128834621D02*
X205304285Y-128763192D01*
X205304285Y-128763192D02*
X205339999Y-128727478D01*
X205339999Y-128727478D02*
X205411428Y-128691764D01*
X205411428Y-128691764D02*
X205554285Y-128691764D01*
X205554285Y-128691764D02*
X205625714Y-128727478D01*
X205625714Y-128727478D02*
X205661428Y-128763192D01*
X205661428Y-128763192D02*
X205697142Y-128834621D01*
X205697142Y-128834621D02*
X205697142Y-128870335D01*
X205697142Y-128870335D02*
X205661428Y-128941764D01*
X205661428Y-128941764D02*
X205625714Y-128977478D01*
X205625714Y-128977478D02*
X205554285Y-129013192D01*
X205554285Y-129013192D02*
X205411428Y-129013192D01*
X205411428Y-129013192D02*
X205339999Y-129048907D01*
X205339999Y-129048907D02*
X205304285Y-129084621D01*
X205304285Y-129084621D02*
X205268571Y-129156050D01*
X205268571Y-129156050D02*
X205268571Y-129298907D01*
X205268571Y-129298907D02*
X205304285Y-129370335D01*
X205304285Y-129370335D02*
X205339999Y-129406050D01*
X205339999Y-129406050D02*
X205411428Y-129441764D01*
X205411428Y-129441764D02*
X205554285Y-129441764D01*
X205554285Y-129441764D02*
X205625714Y-129406050D01*
X205625714Y-129406050D02*
X205661428Y-129370335D01*
X205661428Y-129370335D02*
X205697142Y-129298907D01*
X205697142Y-129298907D02*
X205697142Y-129156050D01*
X205697142Y-129156050D02*
X205661428Y-129084621D01*
X205661428Y-129084621D02*
X205625714Y-129048907D01*
X205625714Y-129048907D02*
X205554285Y-129013192D01*
X203067856Y-141140335D02*
X203032142Y-141176050D01*
X203032142Y-141176050D02*
X202924999Y-141211764D01*
X202924999Y-141211764D02*
X202853571Y-141211764D01*
X202853571Y-141211764D02*
X202746428Y-141176050D01*
X202746428Y-141176050D02*
X202674999Y-141104621D01*
X202674999Y-141104621D02*
X202639285Y-141033192D01*
X202639285Y-141033192D02*
X202603571Y-140890335D01*
X202603571Y-140890335D02*
X202603571Y-140783192D01*
X202603571Y-140783192D02*
X202639285Y-140640335D01*
X202639285Y-140640335D02*
X202674999Y-140568907D01*
X202674999Y-140568907D02*
X202746428Y-140497478D01*
X202746428Y-140497478D02*
X202853571Y-140461764D01*
X202853571Y-140461764D02*
X202924999Y-140461764D01*
X202924999Y-140461764D02*
X203032142Y-140497478D01*
X203032142Y-140497478D02*
X203067856Y-140533192D01*
X203353571Y-140533192D02*
X203389285Y-140497478D01*
X203389285Y-140497478D02*
X203460714Y-140461764D01*
X203460714Y-140461764D02*
X203639285Y-140461764D01*
X203639285Y-140461764D02*
X203710714Y-140497478D01*
X203710714Y-140497478D02*
X203746428Y-140533192D01*
X203746428Y-140533192D02*
X203782142Y-140604621D01*
X203782142Y-140604621D02*
X203782142Y-140676050D01*
X203782142Y-140676050D02*
X203746428Y-140783192D01*
X203746428Y-140783192D02*
X203317856Y-141211764D01*
X203317856Y-141211764D02*
X203782142Y-141211764D01*
X204067857Y-140533192D02*
X204103571Y-140497478D01*
X204103571Y-140497478D02*
X204175000Y-140461764D01*
X204175000Y-140461764D02*
X204353571Y-140461764D01*
X204353571Y-140461764D02*
X204425000Y-140497478D01*
X204425000Y-140497478D02*
X204460714Y-140533192D01*
X204460714Y-140533192D02*
X204496428Y-140604621D01*
X204496428Y-140604621D02*
X204496428Y-140676050D01*
X204496428Y-140676050D02*
X204460714Y-140783192D01*
X204460714Y-140783192D02*
X204032142Y-141211764D01*
X204032142Y-141211764D02*
X204496428Y-141211764D01*
X199947856Y-135691764D02*
X199697856Y-135334621D01*
X199519285Y-135691764D02*
X199519285Y-134941764D01*
X199519285Y-134941764D02*
X199804999Y-134941764D01*
X199804999Y-134941764D02*
X199876428Y-134977478D01*
X199876428Y-134977478D02*
X199912142Y-135013192D01*
X199912142Y-135013192D02*
X199947856Y-135084621D01*
X199947856Y-135084621D02*
X199947856Y-135191764D01*
X199947856Y-135191764D02*
X199912142Y-135263192D01*
X199912142Y-135263192D02*
X199876428Y-135298907D01*
X199876428Y-135298907D02*
X199804999Y-135334621D01*
X199804999Y-135334621D02*
X199519285Y-135334621D01*
X200662142Y-135691764D02*
X200233571Y-135691764D01*
X200447856Y-135691764D02*
X200447856Y-134941764D01*
X200447856Y-134941764D02*
X200376428Y-135048907D01*
X200376428Y-135048907D02*
X200304999Y-135120335D01*
X200304999Y-135120335D02*
X200233571Y-135156050D01*
X201019285Y-135691764D02*
X201162142Y-135691764D01*
X201162142Y-135691764D02*
X201233571Y-135656050D01*
X201233571Y-135656050D02*
X201269285Y-135620335D01*
X201269285Y-135620335D02*
X201340714Y-135513192D01*
X201340714Y-135513192D02*
X201376428Y-135370335D01*
X201376428Y-135370335D02*
X201376428Y-135084621D01*
X201376428Y-135084621D02*
X201340714Y-135013192D01*
X201340714Y-135013192D02*
X201305000Y-134977478D01*
X201305000Y-134977478D02*
X201233571Y-134941764D01*
X201233571Y-134941764D02*
X201090714Y-134941764D01*
X201090714Y-134941764D02*
X201019285Y-134977478D01*
X201019285Y-134977478D02*
X200983571Y-135013192D01*
X200983571Y-135013192D02*
X200947857Y-135084621D01*
X200947857Y-135084621D02*
X200947857Y-135263192D01*
X200947857Y-135263192D02*
X200983571Y-135334621D01*
X200983571Y-135334621D02*
X201019285Y-135370335D01*
X201019285Y-135370335D02*
X201090714Y-135406050D01*
X201090714Y-135406050D02*
X201233571Y-135406050D01*
X201233571Y-135406050D02*
X201305000Y-135370335D01*
X201305000Y-135370335D02*
X201340714Y-135334621D01*
X201340714Y-135334621D02*
X201376428Y-135263192D01*
D11*
X211208095Y-130584819D02*
X211208095Y-131394342D01*
X211208095Y-131394342D02*
X211255714Y-131489580D01*
X211255714Y-131489580D02*
X211303333Y-131537200D01*
X211303333Y-131537200D02*
X211398571Y-131584819D01*
X211398571Y-131584819D02*
X211589047Y-131584819D01*
X211589047Y-131584819D02*
X211684285Y-131537200D01*
X211684285Y-131537200D02*
X211731904Y-131489580D01*
X211731904Y-131489580D02*
X211779523Y-131394342D01*
X211779523Y-131394342D02*
X211779523Y-130584819D01*
X212779523Y-131584819D02*
X212208095Y-131584819D01*
X212493809Y-131584819D02*
X212493809Y-130584819D01*
X212493809Y-130584819D02*
X212398571Y-130727676D01*
X212398571Y-130727676D02*
X212303333Y-130822914D01*
X212303333Y-130822914D02*
X212208095Y-130870533D01*
D10*
X199177856Y-142360335D02*
X199142142Y-142396050D01*
X199142142Y-142396050D02*
X199034999Y-142431764D01*
X199034999Y-142431764D02*
X198963571Y-142431764D01*
X198963571Y-142431764D02*
X198856428Y-142396050D01*
X198856428Y-142396050D02*
X198784999Y-142324621D01*
X198784999Y-142324621D02*
X198749285Y-142253192D01*
X198749285Y-142253192D02*
X198713571Y-142110335D01*
X198713571Y-142110335D02*
X198713571Y-142003192D01*
X198713571Y-142003192D02*
X198749285Y-141860335D01*
X198749285Y-141860335D02*
X198784999Y-141788907D01*
X198784999Y-141788907D02*
X198856428Y-141717478D01*
X198856428Y-141717478D02*
X198963571Y-141681764D01*
X198963571Y-141681764D02*
X199034999Y-141681764D01*
X199034999Y-141681764D02*
X199142142Y-141717478D01*
X199142142Y-141717478D02*
X199177856Y-141753192D01*
X199463571Y-141753192D02*
X199499285Y-141717478D01*
X199499285Y-141717478D02*
X199570714Y-141681764D01*
X199570714Y-141681764D02*
X199749285Y-141681764D01*
X199749285Y-141681764D02*
X199820714Y-141717478D01*
X199820714Y-141717478D02*
X199856428Y-141753192D01*
X199856428Y-141753192D02*
X199892142Y-141824621D01*
X199892142Y-141824621D02*
X199892142Y-141896050D01*
X199892142Y-141896050D02*
X199856428Y-142003192D01*
X199856428Y-142003192D02*
X199427856Y-142431764D01*
X199427856Y-142431764D02*
X199892142Y-142431764D01*
X200142142Y-141681764D02*
X200606428Y-141681764D01*
X200606428Y-141681764D02*
X200356428Y-141967478D01*
X200356428Y-141967478D02*
X200463571Y-141967478D01*
X200463571Y-141967478D02*
X200535000Y-142003192D01*
X200535000Y-142003192D02*
X200570714Y-142038907D01*
X200570714Y-142038907D02*
X200606428Y-142110335D01*
X200606428Y-142110335D02*
X200606428Y-142288907D01*
X200606428Y-142288907D02*
X200570714Y-142360335D01*
X200570714Y-142360335D02*
X200535000Y-142396050D01*
X200535000Y-142396050D02*
X200463571Y-142431764D01*
X200463571Y-142431764D02*
X200249285Y-142431764D01*
X200249285Y-142431764D02*
X200177857Y-142396050D01*
X200177857Y-142396050D02*
X200142142Y-142360335D01*
D16*
%TO.C,C24*%
X201692564Y-141448200D02*
X201908236Y-141448200D01*
X201692564Y-142168200D02*
X201908236Y-142168200D01*
%TO.C,U5*%
X202005000Y-137190600D02*
X203125000Y-137190600D01*
X202005000Y-139110600D02*
X202005000Y-137190600D01*
X202900000Y-139110600D02*
X202005000Y-139110600D01*
X203125000Y-137190600D02*
X203125000Y-138885600D01*
X203125000Y-139610600D02*
X203125000Y-139110600D01*
X203625000Y-139110600D01*
X203125000Y-139610600D01*
G36*
X203125000Y-139610600D02*
G01*
X203125000Y-139110600D01*
X203625000Y-139110600D01*
X203125000Y-139610600D01*
G37*
%TO.C,C29*%
X207630580Y-143270000D02*
X207349420Y-143270000D01*
X207630580Y-144290000D02*
X207349420Y-144290000D01*
%TO.C,TP8*%
X210060000Y-131300000D02*
G75*
G02*
X208660000Y-131300000I-700000J0D01*
G01*
X208660000Y-131300000D02*
G75*
G02*
X210060000Y-131300000I700000J0D01*
G01*
D10*
%TO.C,D1*%
X201670000Y-146860000D02*
G75*
G02*
X201570000Y-146860000I-50000J0D01*
G01*
X201570000Y-146860000D02*
G75*
G02*
X201670000Y-146860000I50000J0D01*
G01*
D16*
%TO.C,TP6*%
X206390000Y-140300000D02*
G75*
G02*
X204990000Y-140300000I-700000J0D01*
G01*
X204990000Y-140300000D02*
G75*
G02*
X206390000Y-140300000I700000J0D01*
G01*
%TO.C,TP4*%
X201430000Y-140530000D02*
G75*
G02*
X200030000Y-140530000I-700000J0D01*
G01*
X200030000Y-140530000D02*
G75*
G02*
X201430000Y-140530000I700000J0D01*
G01*
%TO.C,C15*%
X205607836Y-134960000D02*
X205392164Y-134960000D01*
X205607836Y-135680000D02*
X205392164Y-135680000D01*
D10*
%TO.C,D4*%
X205050000Y-146860000D02*
G75*
G02*
X204950000Y-146860000I-50000J0D01*
G01*
X204950000Y-146860000D02*
G75*
G02*
X205050000Y-146860000I50000J0D01*
G01*
D16*
%TO.C,C11*%
X207240000Y-130922164D02*
X207240000Y-131137836D01*
X207960000Y-130922164D02*
X207960000Y-131137836D01*
%TO.C,J1*%
X207520000Y-130004000D02*
X207520000Y-128894000D01*
X208280000Y-130004000D02*
X207520000Y-130004000D01*
X209040000Y-130004000D02*
X209040000Y-129457471D01*
X209040000Y-130004000D02*
X226755000Y-130004000D01*
X226755000Y-130004000D02*
X226755000Y-129201530D01*
%TO.C,C26*%
X203617836Y-135570000D02*
X203402164Y-135570000D01*
X203617836Y-136290000D02*
X203402164Y-136290000D01*
D10*
%TO.C,L1*%
X226050000Y-135610000D02*
G75*
G02*
X225950000Y-135610000I-50000J0D01*
G01*
X225950000Y-135610000D02*
G75*
G02*
X226050000Y-135610000I50000J0D01*
G01*
D16*
%TO.C,L4*%
X203918000Y-139283600D02*
X203918000Y-136763600D01*
X206038000Y-139283600D02*
X206038000Y-136763600D01*
%TO.C,R23*%
X205673641Y-135890000D02*
X205366359Y-135890000D01*
X205673641Y-136650000D02*
X205366359Y-136650000D01*
%TO.C,J3*%
X190921800Y-139450000D02*
X190921800Y-147570000D01*
X190921800Y-142010000D02*
X195281800Y-142010000D01*
X190921800Y-147570000D02*
X198741800Y-147570000D01*
X193181800Y-140210000D02*
X193181800Y-141210000D01*
X193181800Y-140710000D02*
X190921800Y-140710000D01*
X193181800Y-141210000D02*
X190921800Y-141210000D01*
X193181800Y-141210000D02*
X194781800Y-141210000D01*
X193181800Y-145810000D02*
X194781800Y-145810000D01*
X193181800Y-146810000D02*
X193181800Y-145810000D01*
X194781800Y-140210000D02*
X193181800Y-140210000D01*
X194781800Y-141210000D02*
X194781800Y-140210000D01*
X194781800Y-145810000D02*
X194781800Y-146810000D01*
X194781800Y-146810000D02*
X193181800Y-146810000D01*
X195281800Y-142010000D02*
X195281800Y-145010000D01*
X195281800Y-145010000D02*
X190921800Y-145010000D01*
X197141800Y-139450000D02*
X197141800Y-140370000D01*
X197141800Y-140370000D02*
X198741800Y-140370000D01*
X197141800Y-140650000D02*
X197141800Y-140370000D01*
X197141800Y-140650000D02*
X198356800Y-140650000D01*
X197141800Y-146650000D02*
X197141800Y-146370000D01*
X197141800Y-147570000D02*
X197141800Y-146650000D01*
X198741800Y-139450000D02*
X190921800Y-139450000D01*
X198741800Y-140370000D02*
X198741800Y-139450000D01*
X198741800Y-146650000D02*
X197141800Y-146650000D01*
X198741800Y-147570000D02*
X198741800Y-146650000D01*
%TO.C,J2*%
X207520000Y-145555000D02*
X207520000Y-146665000D01*
X208280000Y-145555000D02*
X207520000Y-145555000D01*
X209040000Y-145555000D02*
X226755000Y-145555000D01*
X209040000Y-146101529D02*
X209040000Y-145555000D01*
X226755000Y-146357470D02*
X226755000Y-145555000D01*
%TO.C,U3*%
X222878000Y-141344500D02*
X225382000Y-141344500D01*
X222878000Y-142727750D02*
X222878000Y-141344500D01*
X225382000Y-141344500D02*
X225382000Y-143115500D01*
X225382000Y-143115500D02*
X223265750Y-143115500D01*
X222878000Y-143615500D02*
X222378000Y-143115500D01*
X222878000Y-143115500D01*
X222878000Y-143615500D01*
G36*
X222878000Y-143615500D02*
G01*
X222378000Y-143115500D01*
X222878000Y-143115500D01*
X222878000Y-143615500D01*
G37*
%TO.C,TP7*%
X201140000Y-129220000D02*
G75*
G02*
X199740000Y-129220000I-700000J0D01*
G01*
X199740000Y-129220000D02*
G75*
G02*
X201140000Y-129220000I700000J0D01*
G01*
%TO.C,J5*%
X191285000Y-128900000D02*
X191285000Y-138060000D01*
X192235000Y-128900000D02*
X191285000Y-128900000D01*
X192235000Y-138060000D02*
X191285000Y-138060000D01*
X196210000Y-128900000D02*
X195355000Y-128900000D01*
X196210000Y-138060000D02*
X195355000Y-138060000D01*
%TO.C,J4*%
X209775000Y-139120000D02*
X209775000Y-139755000D01*
X209775000Y-139755000D02*
X209140000Y-139755000D01*
%TO.C,TP5*%
X207700000Y-142040000D02*
G75*
G02*
X206300000Y-142040000I-700000J0D01*
G01*
X206300000Y-142040000D02*
G75*
G02*
X207700000Y-142040000I700000J0D01*
G01*
%TO.C,Y1*%
X223160000Y-132960000D02*
X225460000Y-132960000D01*
X225460000Y-132960000D02*
X225460000Y-130260000D01*
%TO.C,TP1*%
X227218400Y-135850801D02*
X227218400Y-136700800D01*
X227218400Y-136700800D02*
X228068400Y-136700800D01*
X227368400Y-133650800D02*
X230168400Y-133650800D01*
%TO.C,U4*%
X201714800Y-142410000D02*
X203714800Y-142410000D01*
X201714800Y-144610000D02*
X203714800Y-144610000D01*
X201335511Y-142460000D02*
G75*
G02*
X201194089Y-142460000I-70711J0D01*
G01*
X201194089Y-142460000D02*
G75*
G02*
X201335511Y-142460000I70711J0D01*
G01*
%TO.C,C20*%
X200510000Y-131379420D02*
X200510000Y-131660580D01*
X201530000Y-131379420D02*
X201530000Y-131660580D01*
%TO.C,Y2*%
X211575000Y-142065000D02*
X211575000Y-143415000D01*
X213325000Y-142065000D02*
X213325000Y-143415000D01*
D17*
%TO.C,REF\u002A\u002A*%
X228283910Y-141029034D02*
X228362454Y-141029464D01*
X228419298Y-141030628D01*
X228458105Y-141032893D01*
X228482538Y-141036626D01*
X228496262Y-141042192D01*
X228502940Y-141049959D01*
X228506236Y-141060291D01*
X228506556Y-141061629D01*
X228511562Y-141085765D01*
X228520829Y-141133387D01*
X228533392Y-141199427D01*
X228548287Y-141278814D01*
X228564551Y-141366482D01*
X228565119Y-141369561D01*
X228581410Y-141455475D01*
X228596652Y-141531382D01*
X228609861Y-141592731D01*
X228620054Y-141634968D01*
X228626248Y-141653541D01*
X228626543Y-141653870D01*
X228644788Y-141662939D01*
X228682405Y-141678053D01*
X228731271Y-141695948D01*
X228731543Y-141696044D01*
X228793093Y-141719179D01*
X228865657Y-141748651D01*
X228934057Y-141778283D01*
X228937294Y-141779748D01*
X229048702Y-141830312D01*
X229295399Y-141661846D01*
X229371077Y-141610489D01*
X229439631Y-141564575D01*
X229497088Y-141526716D01*
X229539476Y-141499523D01*
X229562825Y-141485607D01*
X229565042Y-141484575D01*
X229582010Y-141489170D01*
X229613701Y-141511341D01*
X229661352Y-141552133D01*
X229726198Y-141612591D01*
X229792397Y-141676913D01*
X229856214Y-141740298D01*
X229913329Y-141798137D01*
X229960305Y-141846861D01*
X229993703Y-141882896D01*
X230010085Y-141902670D01*
X230010694Y-141903688D01*
X230012505Y-141917258D01*
X230005683Y-141939419D01*
X229988540Y-141973164D01*
X229959393Y-142021486D01*
X229916555Y-142087378D01*
X229859448Y-142172203D01*
X229808766Y-142246863D01*
X229763461Y-142313826D01*
X229726150Y-142369202D01*
X229699452Y-142409106D01*
X229685985Y-142429648D01*
X229685137Y-142431042D01*
X229686781Y-142450724D01*
X229699245Y-142488979D01*
X229720048Y-142538575D01*
X229727462Y-142554414D01*
X229759814Y-142624976D01*
X229794328Y-142705039D01*
X229822365Y-142774315D01*
X229842568Y-142825731D01*
X229858615Y-142864805D01*
X229867888Y-142885227D01*
X229869041Y-142886800D01*
X229886096Y-142889407D01*
X229926298Y-142896549D01*
X229984302Y-142907209D01*
X230054763Y-142920371D01*
X230132335Y-142935019D01*
X230211672Y-142950135D01*
X230287431Y-142964704D01*
X230354264Y-142977708D01*
X230406828Y-142988131D01*
X230439776Y-142994956D01*
X230447857Y-142996885D01*
X230456205Y-143001648D01*
X230462506Y-143012404D01*
X230467045Y-143032784D01*
X230470104Y-143066420D01*
X230471967Y-143116941D01*
X230472918Y-143187978D01*
X230473240Y-143283162D01*
X230473257Y-143322178D01*
X230473257Y-143639485D01*
X230397057Y-143654525D01*
X230354663Y-143662681D01*
X230291400Y-143674585D01*
X230214962Y-143688802D01*
X230133043Y-143703896D01*
X230110400Y-143708041D01*
X230034806Y-143722739D01*
X229968953Y-143737191D01*
X229918366Y-143750061D01*
X229888574Y-143760008D01*
X229883612Y-143762973D01*
X229871426Y-143783969D01*
X229853953Y-143824653D01*
X229834577Y-143877008D01*
X229830734Y-143888286D01*
X229805339Y-143958209D01*
X229773817Y-144037104D01*
X229742969Y-144107952D01*
X229742817Y-144108281D01*
X229691447Y-144219419D01*
X229860399Y-144467939D01*
X230029352Y-144716458D01*
X229812429Y-144933744D01*
X229746819Y-144998412D01*
X229686979Y-145055419D01*
X229636267Y-145101719D01*
X229598046Y-145134270D01*
X229575675Y-145150029D01*
X229572466Y-145151029D01*
X229553626Y-145143155D01*
X229515180Y-145121264D01*
X229461330Y-145087953D01*
X229396276Y-145045817D01*
X229325940Y-144998629D01*
X229254555Y-144950496D01*
X229190908Y-144908614D01*
X229139041Y-144875557D01*
X229102995Y-144853904D01*
X229086867Y-144846229D01*
X229067189Y-144852723D01*
X229029875Y-144869836D01*
X228982621Y-144894012D01*
X228977612Y-144896699D01*
X228913977Y-144928613D01*
X228870341Y-144944265D01*
X228843202Y-144944431D01*
X228829057Y-144929890D01*
X228828975Y-144929686D01*
X228821905Y-144912465D01*
X228805042Y-144871585D01*
X228779695Y-144810211D01*
X228747171Y-144731505D01*
X228708778Y-144638633D01*
X228665822Y-144534758D01*
X228624222Y-144434188D01*
X228578504Y-144323202D01*
X228536526Y-144220389D01*
X228499548Y-144128901D01*
X228468827Y-144051887D01*
X228445622Y-143992501D01*
X228431190Y-143953895D01*
X228426743Y-143939486D01*
X228437896Y-143922958D01*
X228467069Y-143896616D01*
X228505971Y-143867573D01*
X228616757Y-143775725D01*
X228703351Y-143670445D01*
X228764716Y-143553952D01*
X228799815Y-143428462D01*
X228807608Y-143296193D01*
X228801943Y-143235143D01*
X228771078Y-143108481D01*
X228717920Y-142996627D01*
X228645767Y-142900687D01*
X228557917Y-142821762D01*
X228457665Y-142760956D01*
X228348310Y-142719373D01*
X228233147Y-142698114D01*
X228115475Y-142698285D01*
X227998590Y-142720987D01*
X227885789Y-142767324D01*
X227780369Y-142838399D01*
X227736368Y-142878597D01*
X227651979Y-142981815D01*
X227593222Y-143094611D01*
X227559704Y-143213696D01*
X227551035Y-143335781D01*
X227566823Y-143457579D01*
X227606678Y-143575802D01*
X227670207Y-143687161D01*
X227757021Y-143788370D01*
X227854029Y-143867573D01*
X227894437Y-143897848D01*
X227922982Y-143923905D01*
X227933257Y-143939511D01*
X227927877Y-143956529D01*
X227912575Y-143997186D01*
X227888612Y-144058328D01*
X227857244Y-144136805D01*
X227819732Y-144229466D01*
X227777333Y-144333158D01*
X227735663Y-144434212D01*
X227689690Y-144545293D01*
X227647107Y-144648227D01*
X227609221Y-144739851D01*
X227577340Y-144817002D01*
X227552771Y-144876517D01*
X227536820Y-144915230D01*
X227530910Y-144929686D01*
X227516948Y-144944371D01*
X227489940Y-144944328D01*
X227446413Y-144928785D01*
X227382890Y-144896970D01*
X227382388Y-144896699D01*
X227334560Y-144872009D01*
X227295897Y-144854024D01*
X227274095Y-144846300D01*
X227273133Y-144846229D01*
X227256721Y-144854064D01*
X227220487Y-144875851D01*
X227168474Y-144909014D01*
X227104725Y-144950977D01*
X227034060Y-144998629D01*
X226962116Y-145046877D01*
X226897274Y-145088837D01*
X226843735Y-145121913D01*
X226805697Y-145143507D01*
X226787533Y-145151029D01*
X226770808Y-145141143D01*
X226737180Y-145113512D01*
X226690010Y-145071181D01*
X226632658Y-145017191D01*
X226568484Y-144954585D01*
X226547497Y-144933669D01*
X226330499Y-144716309D01*
X226495668Y-144473906D01*
X226545864Y-144399467D01*
X226589919Y-144332658D01*
X226625362Y-144277351D01*
X226649719Y-144237415D01*
X226660522Y-144216722D01*
X226660838Y-144215249D01*
X226655143Y-144195744D01*
X226639826Y-144156508D01*
X226617537Y-144104116D01*
X226601893Y-144069041D01*
X226572641Y-144001887D01*
X226545094Y-143934044D01*
X226523737Y-143876720D01*
X226517935Y-143859258D01*
X226501452Y-143812624D01*
X226485340Y-143776591D01*
X226476490Y-143762973D01*
X226456960Y-143754638D01*
X226414334Y-143742823D01*
X226354145Y-143728867D01*
X226281922Y-143714108D01*
X226249600Y-143708041D01*
X226167522Y-143692959D01*
X226088795Y-143678355D01*
X226021109Y-143665666D01*
X225972160Y-143656328D01*
X225962943Y-143654525D01*
X225886743Y-143639485D01*
X225886743Y-143322178D01*
X225886914Y-143217840D01*
X225887616Y-143138899D01*
X225889134Y-143081724D01*
X225891749Y-143042685D01*
X225895746Y-143018151D01*
X225901409Y-143004491D01*
X225909020Y-142998075D01*
X225912143Y-142996885D01*
X225930978Y-142992666D01*
X225972588Y-142984248D01*
X226031630Y-142972647D01*
X226102757Y-142958881D01*
X226180625Y-142943966D01*
X226259887Y-142928918D01*
X226335198Y-142914755D01*
X226401213Y-142902492D01*
X226452587Y-142893147D01*
X226483975Y-142887736D01*
X226490959Y-142886800D01*
X226497285Y-142874282D01*
X226511290Y-142840932D01*
X226530355Y-142793063D01*
X226537634Y-142774315D01*
X226566996Y-142701881D01*
X226601571Y-142621856D01*
X226632537Y-142554414D01*
X226655323Y-142502845D01*
X226670482Y-142460471D01*
X226675542Y-142434520D01*
X226674736Y-142431042D01*
X226664041Y-142414622D01*
X226639620Y-142378103D01*
X226604095Y-142325373D01*
X226560087Y-142260321D01*
X226510217Y-142186837D01*
X226500356Y-142172331D01*
X226442492Y-142086390D01*
X226399956Y-142020947D01*
X226371054Y-141972990D01*
X226354090Y-141939506D01*
X226347367Y-141917481D01*
X226349190Y-141903903D01*
X226349236Y-141903817D01*
X226363586Y-141885983D01*
X226395323Y-141851503D01*
X226441010Y-141803954D01*
X226497204Y-141746908D01*
X226560468Y-141683941D01*
X226567602Y-141676913D01*
X226647330Y-141599706D01*
X226708857Y-141543016D01*
X226753421Y-141505796D01*
X226782257Y-141487001D01*
X226794958Y-141484575D01*
X226813494Y-141495157D01*
X226851961Y-141519602D01*
X226906386Y-141555298D01*
X226972798Y-141599633D01*
X227047225Y-141649997D01*
X227064601Y-141661846D01*
X227311297Y-141830312D01*
X227422706Y-141779748D01*
X227490457Y-141750281D01*
X227563183Y-141720645D01*
X227625703Y-141697016D01*
X227628457Y-141696044D01*
X227677360Y-141678143D01*
X227715057Y-141663006D01*
X227733425Y-141653896D01*
X227733456Y-141653870D01*
X227739285Y-141637403D01*
X227749192Y-141596905D01*
X227762195Y-141536928D01*
X227777309Y-141462026D01*
X227793552Y-141376750D01*
X227794881Y-141369561D01*
X227811175Y-141281700D01*
X227826133Y-141201946D01*
X227838791Y-141135367D01*
X227848186Y-141087033D01*
X227853354Y-141062011D01*
X227853444Y-141061629D01*
X227856589Y-141050985D01*
X227862704Y-141042948D01*
X227875453Y-141037153D01*
X227898500Y-141033233D01*
X227935509Y-141030821D01*
X227990144Y-141029551D01*
X228066067Y-141029057D01*
X228166944Y-141028972D01*
X228180000Y-141028972D01*
X228283910Y-141029034D01*
G36*
X228283910Y-141029034D02*
G01*
X228362454Y-141029464D01*
X228419298Y-141030628D01*
X228458105Y-141032893D01*
X228482538Y-141036626D01*
X228496262Y-141042192D01*
X228502940Y-141049959D01*
X228506236Y-141060291D01*
X228506556Y-141061629D01*
X228511562Y-141085765D01*
X228520829Y-141133387D01*
X228533392Y-141199427D01*
X228548287Y-141278814D01*
X228564551Y-141366482D01*
X228565119Y-141369561D01*
X228581410Y-141455475D01*
X228596652Y-141531382D01*
X228609861Y-141592731D01*
X228620054Y-141634968D01*
X228626248Y-141653541D01*
X228626543Y-141653870D01*
X228644788Y-141662939D01*
X228682405Y-141678053D01*
X228731271Y-141695948D01*
X228731543Y-141696044D01*
X228793093Y-141719179D01*
X228865657Y-141748651D01*
X228934057Y-141778283D01*
X228937294Y-141779748D01*
X229048702Y-141830312D01*
X229295399Y-141661846D01*
X229371077Y-141610489D01*
X229439631Y-141564575D01*
X229497088Y-141526716D01*
X229539476Y-141499523D01*
X229562825Y-141485607D01*
X229565042Y-141484575D01*
X229582010Y-141489170D01*
X229613701Y-141511341D01*
X229661352Y-141552133D01*
X229726198Y-141612591D01*
X229792397Y-141676913D01*
X229856214Y-141740298D01*
X229913329Y-141798137D01*
X229960305Y-141846861D01*
X229993703Y-141882896D01*
X230010085Y-141902670D01*
X230010694Y-141903688D01*
X230012505Y-141917258D01*
X230005683Y-141939419D01*
X229988540Y-141973164D01*
X229959393Y-142021486D01*
X229916555Y-142087378D01*
X229859448Y-142172203D01*
X229808766Y-142246863D01*
X229763461Y-142313826D01*
X229726150Y-142369202D01*
X229699452Y-142409106D01*
X229685985Y-142429648D01*
X229685137Y-142431042D01*
X229686781Y-142450724D01*
X229699245Y-142488979D01*
X229720048Y-142538575D01*
X229727462Y-142554414D01*
X229759814Y-142624976D01*
X229794328Y-142705039D01*
X229822365Y-142774315D01*
X229842568Y-142825731D01*
X229858615Y-142864805D01*
X229867888Y-142885227D01*
X229869041Y-142886800D01*
X229886096Y-142889407D01*
X229926298Y-142896549D01*
X229984302Y-142907209D01*
X230054763Y-142920371D01*
X230132335Y-142935019D01*
X230211672Y-142950135D01*
X230287431Y-142964704D01*
X230354264Y-142977708D01*
X230406828Y-142988131D01*
X230439776Y-142994956D01*
X230447857Y-142996885D01*
X230456205Y-143001648D01*
X230462506Y-143012404D01*
X230467045Y-143032784D01*
X230470104Y-143066420D01*
X230471967Y-143116941D01*
X230472918Y-143187978D01*
X230473240Y-143283162D01*
X230473257Y-143322178D01*
X230473257Y-143639485D01*
X230397057Y-143654525D01*
X230354663Y-143662681D01*
X230291400Y-143674585D01*
X230214962Y-143688802D01*
X230133043Y-143703896D01*
X230110400Y-143708041D01*
X230034806Y-143722739D01*
X229968953Y-143737191D01*
X229918366Y-143750061D01*
X229888574Y-143760008D01*
X229883612Y-143762973D01*
X229871426Y-143783969D01*
X229853953Y-143824653D01*
X229834577Y-143877008D01*
X229830734Y-143888286D01*
X229805339Y-143958209D01*
X229773817Y-144037104D01*
X229742969Y-144107952D01*
X229742817Y-144108281D01*
X229691447Y-144219419D01*
X229860399Y-144467939D01*
X230029352Y-144716458D01*
X229812429Y-144933744D01*
X229746819Y-144998412D01*
X229686979Y-145055419D01*
X229636267Y-145101719D01*
X229598046Y-145134270D01*
X229575675Y-145150029D01*
X229572466Y-145151029D01*
X229553626Y-145143155D01*
X229515180Y-145121264D01*
X229461330Y-145087953D01*
X229396276Y-145045817D01*
X229325940Y-144998629D01*
X229254555Y-144950496D01*
X229190908Y-144908614D01*
X229139041Y-144875557D01*
X229102995Y-144853904D01*
X229086867Y-144846229D01*
X229067189Y-144852723D01*
X229029875Y-144869836D01*
X228982621Y-144894012D01*
X228977612Y-144896699D01*
X228913977Y-144928613D01*
X228870341Y-144944265D01*
X228843202Y-144944431D01*
X228829057Y-144929890D01*
X228828975Y-144929686D01*
X228821905Y-144912465D01*
X228805042Y-144871585D01*
X228779695Y-144810211D01*
X228747171Y-144731505D01*
X228708778Y-144638633D01*
X228665822Y-144534758D01*
X228624222Y-144434188D01*
X228578504Y-144323202D01*
X228536526Y-144220389D01*
X228499548Y-144128901D01*
X228468827Y-144051887D01*
X228445622Y-143992501D01*
X228431190Y-143953895D01*
X228426743Y-143939486D01*
X228437896Y-143922958D01*
X228467069Y-143896616D01*
X228505971Y-143867573D01*
X228616757Y-143775725D01*
X228703351Y-143670445D01*
X228764716Y-143553952D01*
X228799815Y-143428462D01*
X228807608Y-143296193D01*
X228801943Y-143235143D01*
X228771078Y-143108481D01*
X228717920Y-142996627D01*
X228645767Y-142900687D01*
X228557917Y-142821762D01*
X228457665Y-142760956D01*
X228348310Y-142719373D01*
X228233147Y-142698114D01*
X228115475Y-142698285D01*
X227998590Y-142720987D01*
X227885789Y-142767324D01*
X227780369Y-142838399D01*
X227736368Y-142878597D01*
X227651979Y-142981815D01*
X227593222Y-143094611D01*
X227559704Y-143213696D01*
X227551035Y-143335781D01*
X227566823Y-143457579D01*
X227606678Y-143575802D01*
X227670207Y-143687161D01*
X227757021Y-143788370D01*
X227854029Y-143867573D01*
X227894437Y-143897848D01*
X227922982Y-143923905D01*
X227933257Y-143939511D01*
X227927877Y-143956529D01*
X227912575Y-143997186D01*
X227888612Y-144058328D01*
X227857244Y-144136805D01*
X227819732Y-144229466D01*
X227777333Y-144333158D01*
X227735663Y-144434212D01*
X227689690Y-144545293D01*
X227647107Y-144648227D01*
X227609221Y-144739851D01*
X227577340Y-144817002D01*
X227552771Y-144876517D01*
X227536820Y-144915230D01*
X227530910Y-144929686D01*
X227516948Y-144944371D01*
X227489940Y-144944328D01*
X227446413Y-144928785D01*
X227382890Y-144896970D01*
X227382388Y-144896699D01*
X227334560Y-144872009D01*
X227295897Y-144854024D01*
X227274095Y-144846300D01*
X227273133Y-144846229D01*
X227256721Y-144854064D01*
X227220487Y-144875851D01*
X227168474Y-144909014D01*
X227104725Y-144950977D01*
X227034060Y-144998629D01*
X226962116Y-145046877D01*
X226897274Y-145088837D01*
X226843735Y-145121913D01*
X226805697Y-145143507D01*
X226787533Y-145151029D01*
X226770808Y-145141143D01*
X226737180Y-145113512D01*
X226690010Y-145071181D01*
X226632658Y-145017191D01*
X226568484Y-144954585D01*
X226547497Y-144933669D01*
X226330499Y-144716309D01*
X226495668Y-144473906D01*
X226545864Y-144399467D01*
X226589919Y-144332658D01*
X226625362Y-144277351D01*
X226649719Y-144237415D01*
X226660522Y-144216722D01*
X226660838Y-144215249D01*
X226655143Y-144195744D01*
X226639826Y-144156508D01*
X226617537Y-144104116D01*
X226601893Y-144069041D01*
X226572641Y-144001887D01*
X226545094Y-143934044D01*
X226523737Y-143876720D01*
X226517935Y-143859258D01*
X226501452Y-143812624D01*
X226485340Y-143776591D01*
X226476490Y-143762973D01*
X226456960Y-143754638D01*
X226414334Y-143742823D01*
X226354145Y-143728867D01*
X226281922Y-143714108D01*
X226249600Y-143708041D01*
X226167522Y-143692959D01*
X226088795Y-143678355D01*
X226021109Y-143665666D01*
X225972160Y-143656328D01*
X225962943Y-143654525D01*
X225886743Y-143639485D01*
X225886743Y-143322178D01*
X225886914Y-143217840D01*
X225887616Y-143138899D01*
X225889134Y-143081724D01*
X225891749Y-143042685D01*
X225895746Y-143018151D01*
X225901409Y-143004491D01*
X225909020Y-142998075D01*
X225912143Y-142996885D01*
X225930978Y-142992666D01*
X225972588Y-142984248D01*
X226031630Y-142972647D01*
X226102757Y-142958881D01*
X226180625Y-142943966D01*
X226259887Y-142928918D01*
X226335198Y-142914755D01*
X226401213Y-142902492D01*
X226452587Y-142893147D01*
X226483975Y-142887736D01*
X226490959Y-142886800D01*
X226497285Y-142874282D01*
X226511290Y-142840932D01*
X226530355Y-142793063D01*
X226537634Y-142774315D01*
X226566996Y-142701881D01*
X226601571Y-142621856D01*
X226632537Y-142554414D01*
X226655323Y-142502845D01*
X226670482Y-142460471D01*
X226675542Y-142434520D01*
X226674736Y-142431042D01*
X226664041Y-142414622D01*
X226639620Y-142378103D01*
X226604095Y-142325373D01*
X226560087Y-142260321D01*
X226510217Y-142186837D01*
X226500356Y-142172331D01*
X226442492Y-142086390D01*
X226399956Y-142020947D01*
X226371054Y-141972990D01*
X226354090Y-141939506D01*
X226347367Y-141917481D01*
X226349190Y-141903903D01*
X226349236Y-141903817D01*
X226363586Y-141885983D01*
X226395323Y-141851503D01*
X226441010Y-141803954D01*
X226497204Y-141746908D01*
X226560468Y-141683941D01*
X226567602Y-141676913D01*
X226647330Y-141599706D01*
X226708857Y-141543016D01*
X226753421Y-141505796D01*
X226782257Y-141487001D01*
X226794958Y-141484575D01*
X226813494Y-141495157D01*
X226851961Y-141519602D01*
X226906386Y-141555298D01*
X226972798Y-141599633D01*
X227047225Y-141649997D01*
X227064601Y-141661846D01*
X227311297Y-141830312D01*
X227422706Y-141779748D01*
X227490457Y-141750281D01*
X227563183Y-141720645D01*
X227625703Y-141697016D01*
X227628457Y-141696044D01*
X227677360Y-141678143D01*
X227715057Y-141663006D01*
X227733425Y-141653896D01*
X227733456Y-141653870D01*
X227739285Y-141637403D01*
X227749192Y-141596905D01*
X227762195Y-141536928D01*
X227777309Y-141462026D01*
X227793552Y-141376750D01*
X227794881Y-141369561D01*
X227811175Y-141281700D01*
X227826133Y-141201946D01*
X227838791Y-141135367D01*
X227848186Y-141087033D01*
X227853354Y-141062011D01*
X227853444Y-141061629D01*
X227856589Y-141050985D01*
X227862704Y-141042948D01*
X227875453Y-141037153D01*
X227898500Y-141033233D01*
X227935509Y-141030821D01*
X227990144Y-141029551D01*
X228066067Y-141029057D01*
X228166944Y-141028972D01*
X228180000Y-141028972D01*
X228283910Y-141029034D01*
G37*
D16*
%TO.C,U6*%
X201915000Y-133120000D02*
X203215000Y-133120000D01*
X201915000Y-135100000D02*
X202965000Y-135100000D01*
X203335000Y-135380000D02*
X203335000Y-135100000D01*
X203615000Y-135100000D01*
X203335000Y-135380000D01*
G36*
X203335000Y-135380000D02*
G01*
X203335000Y-135100000D01*
X203615000Y-135100000D01*
X203335000Y-135380000D01*
G37*
%TO.C,R6*%
X218550000Y-143851359D02*
X218550000Y-144158641D01*
X219310000Y-143851359D02*
X219310000Y-144158641D01*
%TO.C,U8*%
X205054200Y-129693100D02*
X204254200Y-129693100D01*
X205054200Y-129693100D02*
X205854200Y-129693100D01*
X205054200Y-132813100D02*
X204254200Y-132813100D01*
X205054200Y-132813100D02*
X205854200Y-132813100D01*
X203754200Y-129743100D02*
X203514200Y-129413100D01*
X203994200Y-129413100D01*
X203754200Y-129743100D01*
G36*
X203754200Y-129743100D02*
G01*
X203514200Y-129413100D01*
X203994200Y-129413100D01*
X203754200Y-129743100D01*
G37*
%TO.C,C33*%
X201850000Y-130842164D02*
X201850000Y-131057836D01*
X202570000Y-130842164D02*
X202570000Y-131057836D01*
%TO.C,C22*%
X203737036Y-141448200D02*
X203521364Y-141448200D01*
X203737036Y-142168200D02*
X203521364Y-142168200D01*
D10*
%TO.C,D5*%
X204450000Y-146860000D02*
G75*
G02*
X204350000Y-146860000I-50000J0D01*
G01*
X204350000Y-146860000D02*
G75*
G02*
X204450000Y-146860000I50000J0D01*
G01*
D16*
%TO.C,U1*%
X213000000Y-132000000D02*
X213525000Y-132000000D01*
X213000000Y-132525000D02*
X213000000Y-132000000D01*
X213000000Y-139695000D02*
X213000000Y-139920000D01*
X213525000Y-140220000D02*
X213240000Y-140220000D01*
X221220000Y-132000000D02*
X220695000Y-132000000D01*
X221220000Y-132525000D02*
X221220000Y-132000000D01*
X221220000Y-139695000D02*
X221220000Y-140220000D01*
X221220000Y-140220000D02*
X220695000Y-140220000D01*
X213000000Y-140220000D02*
X212669999Y-140460000D01*
X212670000Y-139980000D01*
X213000000Y-140220000D01*
G36*
X213000000Y-140220000D02*
G01*
X212669999Y-140460000D01*
X212670000Y-139980000D01*
X213000000Y-140220000D01*
G37*
%TO.C,C23*%
X199340000Y-143392164D02*
X199340000Y-143607836D01*
X200060000Y-143392164D02*
X200060000Y-143607836D01*
%TD*%
D18*
X192024000Y-147574000D02*
G75*
G02*
X191389000Y-146939000I0J635000D01*
G01*
X236866000Y-146812009D02*
G75*
G02*
X236103993Y-147574000I-762000J9D01*
G01*
X236866000Y-146812000D02*
X236866000Y-132500000D01*
X228965000Y-128016000D02*
G75*
G02*
X229600000Y-128651000I0J-635000D01*
G01*
X191389000Y-128651000D02*
G75*
G02*
X192024000Y-128016000I635000J0D01*
G01*
X191389000Y-128651000D02*
X191389000Y-146939000D01*
X229600000Y-131220000D02*
X229600000Y-128660000D01*
X236231000Y-131864000D02*
G75*
G02*
X236866000Y-132499000I0J-635000D01*
G01*
X230235000Y-131864000D02*
G75*
G02*
X229600000Y-131229000I0J635000D01*
G01*
X236231000Y-131864000D02*
X230240000Y-131864000D01*
X192024000Y-147574000D02*
X236103993Y-147574000D01*
X192024000Y-128016000D02*
X228965000Y-128016000D01*
M02*
