%TF.GenerationSoftware,KiCad,Pcbnew,8.0.1*%
%TF.CreationDate,2024-04-03T20:43:08-07:00*%
%TF.ProjectId,Bluetooth_OSHW,426c7565-746f-46f7-9468-5f4f5348572e,rev?*%
%TF.SameCoordinates,Original*%
%TF.FileFunction,Drillmap*%
%TF.FilePolarity,Positive*%
%FSLAX45Y45*%
G04 Gerber Fmt 4.5, Leading zero omitted, Abs format (unit mm)*
G04 Created by KiCad (PCBNEW 8.0.1) date 2024-04-03 20:43:08*
%MOMM*%
%LPD*%
G01*
G04 APERTURE LIST*
%ADD10C,0.100000*%
%ADD11C,0.200000*%
G04 APERTURE END LIST*
D10*
X19202400Y-14757400D02*
G75*
G02*
X19138900Y-14693900I0J63500D01*
G01*
X23723600Y-14681201D02*
G75*
G02*
X23647399Y-14757400I-76200J1D01*
G01*
X23723600Y-14681200D02*
X23723600Y-13339900D01*
X22896500Y-12801600D02*
G75*
G02*
X22960000Y-12865100I0J-63500D01*
G01*
X19138900Y-12865100D02*
G75*
G02*
X19202400Y-12801600I63500J0D01*
G01*
X19138900Y-12865100D02*
X19138900Y-14693900D01*
X23660100Y-13276400D02*
G75*
G02*
X23723600Y-13339900I0J-63500D01*
G01*
X23023500Y-13276400D02*
G75*
G02*
X22960000Y-13212900I0J63500D01*
G01*
X22960000Y-13212900D02*
X22960000Y-12865100D01*
X23660100Y-13276400D02*
X23023500Y-13276400D01*
X19202400Y-14757400D02*
X23647399Y-14757400D01*
X19202400Y-12801600D02*
X22896500Y-12801600D01*
D11*
D10*
X19710500Y-13018000D02*
X19770500Y-13078000D01*
X19770500Y-13018000D02*
X19710500Y-13078000D01*
X19710500Y-13618000D02*
X19770500Y-13678000D01*
X19770500Y-13618000D02*
X19710500Y-13678000D01*
X19710500Y-13635500D02*
X19710500Y-13660500D01*
X19770500Y-13660500D02*
G75*
G02*
X19710500Y-13660500I-30000J0D01*
G01*
X19770500Y-13660500D02*
X19770500Y-13635500D01*
X19770500Y-13635500D02*
G75*
G03*
X19710500Y-13635500I-30000J0D01*
G01*
X20798430Y-13531000D02*
G75*
G02*
X20699370Y-13531000I-49530J0D01*
G01*
X20699370Y-13531000D02*
G75*
G02*
X20798430Y-13531000I49530J0D01*
G01*
X20900030Y-14039000D02*
G75*
G02*
X20800970Y-14039000I-49530J0D01*
G01*
X20800970Y-14039000D02*
G75*
G02*
X20900030Y-14039000I49530J0D01*
G01*
X21001630Y-13531000D02*
G75*
G02*
X20902570Y-13531000I-49530J0D01*
G01*
X20902570Y-13531000D02*
G75*
G02*
X21001630Y-13531000I49530J0D01*
G01*
D11*
X19394677Y-15073884D02*
X19394677Y-14873884D01*
X19394677Y-14873884D02*
X19442296Y-14873884D01*
X19442296Y-14873884D02*
X19470867Y-14883408D01*
X19470867Y-14883408D02*
X19489915Y-14902455D01*
X19489915Y-14902455D02*
X19499439Y-14921503D01*
X19499439Y-14921503D02*
X19508963Y-14959598D01*
X19508963Y-14959598D02*
X19508963Y-14988169D01*
X19508963Y-14988169D02*
X19499439Y-15026265D01*
X19499439Y-15026265D02*
X19489915Y-15045312D01*
X19489915Y-15045312D02*
X19470867Y-15064360D01*
X19470867Y-15064360D02*
X19442296Y-15073884D01*
X19442296Y-15073884D02*
X19394677Y-15073884D01*
X19594677Y-15073884D02*
X19594677Y-14940550D01*
X19594677Y-14978646D02*
X19604201Y-14959598D01*
X19604201Y-14959598D02*
X19613724Y-14950074D01*
X19613724Y-14950074D02*
X19632772Y-14940550D01*
X19632772Y-14940550D02*
X19651820Y-14940550D01*
X19718486Y-15073884D02*
X19718486Y-14940550D01*
X19718486Y-14873884D02*
X19708963Y-14883408D01*
X19708963Y-14883408D02*
X19718486Y-14892931D01*
X19718486Y-14892931D02*
X19728010Y-14883408D01*
X19728010Y-14883408D02*
X19718486Y-14873884D01*
X19718486Y-14873884D02*
X19718486Y-14892931D01*
X19842296Y-15073884D02*
X19823248Y-15064360D01*
X19823248Y-15064360D02*
X19813724Y-15045312D01*
X19813724Y-15045312D02*
X19813724Y-14873884D01*
X19947058Y-15073884D02*
X19928010Y-15064360D01*
X19928010Y-15064360D02*
X19918486Y-15045312D01*
X19918486Y-15045312D02*
X19918486Y-14873884D01*
X20175629Y-15073884D02*
X20175629Y-14873884D01*
X20175629Y-14873884D02*
X20242296Y-15016741D01*
X20242296Y-15016741D02*
X20308963Y-14873884D01*
X20308963Y-14873884D02*
X20308963Y-15073884D01*
X20489915Y-15073884D02*
X20489915Y-14969122D01*
X20489915Y-14969122D02*
X20480391Y-14950074D01*
X20480391Y-14950074D02*
X20461344Y-14940550D01*
X20461344Y-14940550D02*
X20423248Y-14940550D01*
X20423248Y-14940550D02*
X20404201Y-14950074D01*
X20489915Y-15064360D02*
X20470867Y-15073884D01*
X20470867Y-15073884D02*
X20423248Y-15073884D01*
X20423248Y-15073884D02*
X20404201Y-15064360D01*
X20404201Y-15064360D02*
X20394677Y-15045312D01*
X20394677Y-15045312D02*
X20394677Y-15026265D01*
X20394677Y-15026265D02*
X20404201Y-15007217D01*
X20404201Y-15007217D02*
X20423248Y-14997693D01*
X20423248Y-14997693D02*
X20470867Y-14997693D01*
X20470867Y-14997693D02*
X20489915Y-14988169D01*
X20585153Y-14940550D02*
X20585153Y-15140550D01*
X20585153Y-14950074D02*
X20604201Y-14940550D01*
X20604201Y-14940550D02*
X20642296Y-14940550D01*
X20642296Y-14940550D02*
X20661344Y-14950074D01*
X20661344Y-14950074D02*
X20670867Y-14959598D01*
X20670867Y-14959598D02*
X20680391Y-14978646D01*
X20680391Y-14978646D02*
X20680391Y-15035788D01*
X20680391Y-15035788D02*
X20670867Y-15054836D01*
X20670867Y-15054836D02*
X20661344Y-15064360D01*
X20661344Y-15064360D02*
X20642296Y-15073884D01*
X20642296Y-15073884D02*
X20604201Y-15073884D01*
X20604201Y-15073884D02*
X20585153Y-15064360D01*
X20766105Y-15054836D02*
X20775629Y-15064360D01*
X20775629Y-15064360D02*
X20766105Y-15073884D01*
X20766105Y-15073884D02*
X20756582Y-15064360D01*
X20756582Y-15064360D02*
X20766105Y-15054836D01*
X20766105Y-15054836D02*
X20766105Y-15073884D01*
X20766105Y-14950074D02*
X20775629Y-14959598D01*
X20775629Y-14959598D02*
X20766105Y-14969122D01*
X20766105Y-14969122D02*
X20756582Y-14959598D01*
X20756582Y-14959598D02*
X20766105Y-14950074D01*
X20766105Y-14950074D02*
X20766105Y-14969122D01*
D10*
X19073900Y-15372400D02*
X19133900Y-15432400D01*
X19133900Y-15372400D02*
X19073900Y-15432400D01*
D11*
X19432772Y-15293884D02*
X19451820Y-15293884D01*
X19451820Y-15293884D02*
X19470867Y-15303408D01*
X19470867Y-15303408D02*
X19480391Y-15312931D01*
X19480391Y-15312931D02*
X19489915Y-15331979D01*
X19489915Y-15331979D02*
X19499439Y-15370074D01*
X19499439Y-15370074D02*
X19499439Y-15417693D01*
X19499439Y-15417693D02*
X19489915Y-15455788D01*
X19489915Y-15455788D02*
X19480391Y-15474836D01*
X19480391Y-15474836D02*
X19470867Y-15484360D01*
X19470867Y-15484360D02*
X19451820Y-15493884D01*
X19451820Y-15493884D02*
X19432772Y-15493884D01*
X19432772Y-15493884D02*
X19413724Y-15484360D01*
X19413724Y-15484360D02*
X19404201Y-15474836D01*
X19404201Y-15474836D02*
X19394677Y-15455788D01*
X19394677Y-15455788D02*
X19385153Y-15417693D01*
X19385153Y-15417693D02*
X19385153Y-15370074D01*
X19385153Y-15370074D02*
X19394677Y-15331979D01*
X19394677Y-15331979D02*
X19404201Y-15312931D01*
X19404201Y-15312931D02*
X19413724Y-15303408D01*
X19413724Y-15303408D02*
X19432772Y-15293884D01*
X19585153Y-15474836D02*
X19594677Y-15484360D01*
X19594677Y-15484360D02*
X19585153Y-15493884D01*
X19585153Y-15493884D02*
X19575629Y-15484360D01*
X19575629Y-15484360D02*
X19585153Y-15474836D01*
X19585153Y-15474836D02*
X19585153Y-15493884D01*
X19766105Y-15293884D02*
X19728010Y-15293884D01*
X19728010Y-15293884D02*
X19708963Y-15303408D01*
X19708963Y-15303408D02*
X19699439Y-15312931D01*
X19699439Y-15312931D02*
X19680391Y-15341503D01*
X19680391Y-15341503D02*
X19670867Y-15379598D01*
X19670867Y-15379598D02*
X19670867Y-15455788D01*
X19670867Y-15455788D02*
X19680391Y-15474836D01*
X19680391Y-15474836D02*
X19689915Y-15484360D01*
X19689915Y-15484360D02*
X19708963Y-15493884D01*
X19708963Y-15493884D02*
X19747058Y-15493884D01*
X19747058Y-15493884D02*
X19766105Y-15484360D01*
X19766105Y-15484360D02*
X19775629Y-15474836D01*
X19775629Y-15474836D02*
X19785153Y-15455788D01*
X19785153Y-15455788D02*
X19785153Y-15408169D01*
X19785153Y-15408169D02*
X19775629Y-15389122D01*
X19775629Y-15389122D02*
X19766105Y-15379598D01*
X19766105Y-15379598D02*
X19747058Y-15370074D01*
X19747058Y-15370074D02*
X19708963Y-15370074D01*
X19708963Y-15370074D02*
X19689915Y-15379598D01*
X19689915Y-15379598D02*
X19680391Y-15389122D01*
X19680391Y-15389122D02*
X19670867Y-15408169D01*
X19908963Y-15293884D02*
X19928010Y-15293884D01*
X19928010Y-15293884D02*
X19947058Y-15303408D01*
X19947058Y-15303408D02*
X19956582Y-15312931D01*
X19956582Y-15312931D02*
X19966105Y-15331979D01*
X19966105Y-15331979D02*
X19975629Y-15370074D01*
X19975629Y-15370074D02*
X19975629Y-15417693D01*
X19975629Y-15417693D02*
X19966105Y-15455788D01*
X19966105Y-15455788D02*
X19956582Y-15474836D01*
X19956582Y-15474836D02*
X19947058Y-15484360D01*
X19947058Y-15484360D02*
X19928010Y-15493884D01*
X19928010Y-15493884D02*
X19908963Y-15493884D01*
X19908963Y-15493884D02*
X19889915Y-15484360D01*
X19889915Y-15484360D02*
X19880391Y-15474836D01*
X19880391Y-15474836D02*
X19870867Y-15455788D01*
X19870867Y-15455788D02*
X19861344Y-15417693D01*
X19861344Y-15417693D02*
X19861344Y-15370074D01*
X19861344Y-15370074D02*
X19870867Y-15331979D01*
X19870867Y-15331979D02*
X19880391Y-15312931D01*
X19880391Y-15312931D02*
X19889915Y-15303408D01*
X19889915Y-15303408D02*
X19908963Y-15293884D01*
X20099439Y-15293884D02*
X20118486Y-15293884D01*
X20118486Y-15293884D02*
X20137534Y-15303408D01*
X20137534Y-15303408D02*
X20147058Y-15312931D01*
X20147058Y-15312931D02*
X20156582Y-15331979D01*
X20156582Y-15331979D02*
X20166105Y-15370074D01*
X20166105Y-15370074D02*
X20166105Y-15417693D01*
X20166105Y-15417693D02*
X20156582Y-15455788D01*
X20156582Y-15455788D02*
X20147058Y-15474836D01*
X20147058Y-15474836D02*
X20137534Y-15484360D01*
X20137534Y-15484360D02*
X20118486Y-15493884D01*
X20118486Y-15493884D02*
X20099439Y-15493884D01*
X20099439Y-15493884D02*
X20080391Y-15484360D01*
X20080391Y-15484360D02*
X20070867Y-15474836D01*
X20070867Y-15474836D02*
X20061344Y-15455788D01*
X20061344Y-15455788D02*
X20051820Y-15417693D01*
X20051820Y-15417693D02*
X20051820Y-15370074D01*
X20051820Y-15370074D02*
X20061344Y-15331979D01*
X20061344Y-15331979D02*
X20070867Y-15312931D01*
X20070867Y-15312931D02*
X20080391Y-15303408D01*
X20080391Y-15303408D02*
X20099439Y-15293884D01*
X20251820Y-15493884D02*
X20251820Y-15360550D01*
X20251820Y-15379598D02*
X20261344Y-15370074D01*
X20261344Y-15370074D02*
X20280391Y-15360550D01*
X20280391Y-15360550D02*
X20308963Y-15360550D01*
X20308963Y-15360550D02*
X20328010Y-15370074D01*
X20328010Y-15370074D02*
X20337534Y-15389122D01*
X20337534Y-15389122D02*
X20337534Y-15493884D01*
X20337534Y-15389122D02*
X20347058Y-15370074D01*
X20347058Y-15370074D02*
X20366105Y-15360550D01*
X20366105Y-15360550D02*
X20394677Y-15360550D01*
X20394677Y-15360550D02*
X20413725Y-15370074D01*
X20413725Y-15370074D02*
X20423248Y-15389122D01*
X20423248Y-15389122D02*
X20423248Y-15493884D01*
X20518486Y-15493884D02*
X20518486Y-15360550D01*
X20518486Y-15379598D02*
X20528010Y-15370074D01*
X20528010Y-15370074D02*
X20547058Y-15360550D01*
X20547058Y-15360550D02*
X20575629Y-15360550D01*
X20575629Y-15360550D02*
X20594677Y-15370074D01*
X20594677Y-15370074D02*
X20604201Y-15389122D01*
X20604201Y-15389122D02*
X20604201Y-15493884D01*
X20604201Y-15389122D02*
X20613725Y-15370074D01*
X20613725Y-15370074D02*
X20632772Y-15360550D01*
X20632772Y-15360550D02*
X20661344Y-15360550D01*
X20661344Y-15360550D02*
X20680391Y-15370074D01*
X20680391Y-15370074D02*
X20689915Y-15389122D01*
X20689915Y-15389122D02*
X20689915Y-15493884D01*
X21080391Y-15284360D02*
X20908963Y-15541503D01*
X21337534Y-15293884D02*
X21356582Y-15293884D01*
X21356582Y-15293884D02*
X21375629Y-15303408D01*
X21375629Y-15303408D02*
X21385153Y-15312931D01*
X21385153Y-15312931D02*
X21394677Y-15331979D01*
X21394677Y-15331979D02*
X21404201Y-15370074D01*
X21404201Y-15370074D02*
X21404201Y-15417693D01*
X21404201Y-15417693D02*
X21394677Y-15455788D01*
X21394677Y-15455788D02*
X21385153Y-15474836D01*
X21385153Y-15474836D02*
X21375629Y-15484360D01*
X21375629Y-15484360D02*
X21356582Y-15493884D01*
X21356582Y-15493884D02*
X21337534Y-15493884D01*
X21337534Y-15493884D02*
X21318487Y-15484360D01*
X21318487Y-15484360D02*
X21308963Y-15474836D01*
X21308963Y-15474836D02*
X21299439Y-15455788D01*
X21299439Y-15455788D02*
X21289915Y-15417693D01*
X21289915Y-15417693D02*
X21289915Y-15370074D01*
X21289915Y-15370074D02*
X21299439Y-15331979D01*
X21299439Y-15331979D02*
X21308963Y-15312931D01*
X21308963Y-15312931D02*
X21318487Y-15303408D01*
X21318487Y-15303408D02*
X21337534Y-15293884D01*
X21489915Y-15474836D02*
X21499439Y-15484360D01*
X21499439Y-15484360D02*
X21489915Y-15493884D01*
X21489915Y-15493884D02*
X21480391Y-15484360D01*
X21480391Y-15484360D02*
X21489915Y-15474836D01*
X21489915Y-15474836D02*
X21489915Y-15493884D01*
X21623248Y-15293884D02*
X21642296Y-15293884D01*
X21642296Y-15293884D02*
X21661344Y-15303408D01*
X21661344Y-15303408D02*
X21670868Y-15312931D01*
X21670868Y-15312931D02*
X21680391Y-15331979D01*
X21680391Y-15331979D02*
X21689915Y-15370074D01*
X21689915Y-15370074D02*
X21689915Y-15417693D01*
X21689915Y-15417693D02*
X21680391Y-15455788D01*
X21680391Y-15455788D02*
X21670868Y-15474836D01*
X21670868Y-15474836D02*
X21661344Y-15484360D01*
X21661344Y-15484360D02*
X21642296Y-15493884D01*
X21642296Y-15493884D02*
X21623248Y-15493884D01*
X21623248Y-15493884D02*
X21604201Y-15484360D01*
X21604201Y-15484360D02*
X21594677Y-15474836D01*
X21594677Y-15474836D02*
X21585153Y-15455788D01*
X21585153Y-15455788D02*
X21575629Y-15417693D01*
X21575629Y-15417693D02*
X21575629Y-15370074D01*
X21575629Y-15370074D02*
X21585153Y-15331979D01*
X21585153Y-15331979D02*
X21594677Y-15312931D01*
X21594677Y-15312931D02*
X21604201Y-15303408D01*
X21604201Y-15303408D02*
X21623248Y-15293884D01*
X21766106Y-15312931D02*
X21775629Y-15303408D01*
X21775629Y-15303408D02*
X21794677Y-15293884D01*
X21794677Y-15293884D02*
X21842296Y-15293884D01*
X21842296Y-15293884D02*
X21861344Y-15303408D01*
X21861344Y-15303408D02*
X21870868Y-15312931D01*
X21870868Y-15312931D02*
X21880391Y-15331979D01*
X21880391Y-15331979D02*
X21880391Y-15351027D01*
X21880391Y-15351027D02*
X21870868Y-15379598D01*
X21870868Y-15379598D02*
X21756582Y-15493884D01*
X21756582Y-15493884D02*
X21880391Y-15493884D01*
X21947058Y-15293884D02*
X22070868Y-15293884D01*
X22070868Y-15293884D02*
X22004201Y-15370074D01*
X22004201Y-15370074D02*
X22032772Y-15370074D01*
X22032772Y-15370074D02*
X22051820Y-15379598D01*
X22051820Y-15379598D02*
X22061344Y-15389122D01*
X22061344Y-15389122D02*
X22070868Y-15408169D01*
X22070868Y-15408169D02*
X22070868Y-15455788D01*
X22070868Y-15455788D02*
X22061344Y-15474836D01*
X22061344Y-15474836D02*
X22051820Y-15484360D01*
X22051820Y-15484360D02*
X22032772Y-15493884D01*
X22032772Y-15493884D02*
X21975629Y-15493884D01*
X21975629Y-15493884D02*
X21956582Y-15484360D01*
X21956582Y-15484360D02*
X21947058Y-15474836D01*
X22242296Y-15293884D02*
X22204201Y-15293884D01*
X22204201Y-15293884D02*
X22185153Y-15303408D01*
X22185153Y-15303408D02*
X22175629Y-15312931D01*
X22175629Y-15312931D02*
X22156582Y-15341503D01*
X22156582Y-15341503D02*
X22147058Y-15379598D01*
X22147058Y-15379598D02*
X22147058Y-15455788D01*
X22147058Y-15455788D02*
X22156582Y-15474836D01*
X22156582Y-15474836D02*
X22166106Y-15484360D01*
X22166106Y-15484360D02*
X22185153Y-15493884D01*
X22185153Y-15493884D02*
X22223249Y-15493884D01*
X22223249Y-15493884D02*
X22242296Y-15484360D01*
X22242296Y-15484360D02*
X22251820Y-15474836D01*
X22251820Y-15474836D02*
X22261344Y-15455788D01*
X22261344Y-15455788D02*
X22261344Y-15408169D01*
X22261344Y-15408169D02*
X22251820Y-15389122D01*
X22251820Y-15389122D02*
X22242296Y-15379598D01*
X22242296Y-15379598D02*
X22223249Y-15370074D01*
X22223249Y-15370074D02*
X22185153Y-15370074D01*
X22185153Y-15370074D02*
X22166106Y-15379598D01*
X22166106Y-15379598D02*
X22156582Y-15389122D01*
X22156582Y-15389122D02*
X22147058Y-15408169D01*
X22337534Y-15293884D02*
X22337534Y-15331979D01*
X22413725Y-15293884D02*
X22413725Y-15331979D01*
X22708963Y-15570074D02*
X22699439Y-15560550D01*
X22699439Y-15560550D02*
X22680391Y-15531979D01*
X22680391Y-15531979D02*
X22670868Y-15512931D01*
X22670868Y-15512931D02*
X22661344Y-15484360D01*
X22661344Y-15484360D02*
X22651820Y-15436741D01*
X22651820Y-15436741D02*
X22651820Y-15398646D01*
X22651820Y-15398646D02*
X22661344Y-15351027D01*
X22661344Y-15351027D02*
X22670868Y-15322455D01*
X22670868Y-15322455D02*
X22680391Y-15303408D01*
X22680391Y-15303408D02*
X22699439Y-15274836D01*
X22699439Y-15274836D02*
X22708963Y-15265312D01*
X22889915Y-15493884D02*
X22775629Y-15493884D01*
X22832772Y-15493884D02*
X22832772Y-15293884D01*
X22832772Y-15293884D02*
X22813725Y-15322455D01*
X22813725Y-15322455D02*
X22794677Y-15341503D01*
X22794677Y-15341503D02*
X22775629Y-15351027D01*
X23128010Y-15493884D02*
X23128010Y-15293884D01*
X23213725Y-15493884D02*
X23213725Y-15389122D01*
X23213725Y-15389122D02*
X23204201Y-15370074D01*
X23204201Y-15370074D02*
X23185153Y-15360550D01*
X23185153Y-15360550D02*
X23156582Y-15360550D01*
X23156582Y-15360550D02*
X23137534Y-15370074D01*
X23137534Y-15370074D02*
X23128010Y-15379598D01*
X23337534Y-15493884D02*
X23318487Y-15484360D01*
X23318487Y-15484360D02*
X23308963Y-15474836D01*
X23308963Y-15474836D02*
X23299439Y-15455788D01*
X23299439Y-15455788D02*
X23299439Y-15398646D01*
X23299439Y-15398646D02*
X23308963Y-15379598D01*
X23308963Y-15379598D02*
X23318487Y-15370074D01*
X23318487Y-15370074D02*
X23337534Y-15360550D01*
X23337534Y-15360550D02*
X23366106Y-15360550D01*
X23366106Y-15360550D02*
X23385153Y-15370074D01*
X23385153Y-15370074D02*
X23394677Y-15379598D01*
X23394677Y-15379598D02*
X23404201Y-15398646D01*
X23404201Y-15398646D02*
X23404201Y-15455788D01*
X23404201Y-15455788D02*
X23394677Y-15474836D01*
X23394677Y-15474836D02*
X23385153Y-15484360D01*
X23385153Y-15484360D02*
X23366106Y-15493884D01*
X23366106Y-15493884D02*
X23337534Y-15493884D01*
X23518487Y-15493884D02*
X23499439Y-15484360D01*
X23499439Y-15484360D02*
X23489915Y-15465312D01*
X23489915Y-15465312D02*
X23489915Y-15293884D01*
X23670868Y-15484360D02*
X23651820Y-15493884D01*
X23651820Y-15493884D02*
X23613725Y-15493884D01*
X23613725Y-15493884D02*
X23594677Y-15484360D01*
X23594677Y-15484360D02*
X23585153Y-15465312D01*
X23585153Y-15465312D02*
X23585153Y-15389122D01*
X23585153Y-15389122D02*
X23594677Y-15370074D01*
X23594677Y-15370074D02*
X23613725Y-15360550D01*
X23613725Y-15360550D02*
X23651820Y-15360550D01*
X23651820Y-15360550D02*
X23670868Y-15370074D01*
X23670868Y-15370074D02*
X23680391Y-15389122D01*
X23680391Y-15389122D02*
X23680391Y-15408169D01*
X23680391Y-15408169D02*
X23585153Y-15427217D01*
X23756582Y-15484360D02*
X23775630Y-15493884D01*
X23775630Y-15493884D02*
X23813725Y-15493884D01*
X23813725Y-15493884D02*
X23832772Y-15484360D01*
X23832772Y-15484360D02*
X23842296Y-15465312D01*
X23842296Y-15465312D02*
X23842296Y-15455788D01*
X23842296Y-15455788D02*
X23832772Y-15436741D01*
X23832772Y-15436741D02*
X23813725Y-15427217D01*
X23813725Y-15427217D02*
X23785153Y-15427217D01*
X23785153Y-15427217D02*
X23766106Y-15417693D01*
X23766106Y-15417693D02*
X23756582Y-15398646D01*
X23756582Y-15398646D02*
X23756582Y-15389122D01*
X23756582Y-15389122D02*
X23766106Y-15370074D01*
X23766106Y-15370074D02*
X23785153Y-15360550D01*
X23785153Y-15360550D02*
X23813725Y-15360550D01*
X23813725Y-15360550D02*
X23832772Y-15370074D01*
X24080392Y-15417693D02*
X24232773Y-15417693D01*
X24156582Y-15493884D02*
X24156582Y-15341503D01*
X24585153Y-15493884D02*
X24470868Y-15493884D01*
X24528011Y-15493884D02*
X24528011Y-15293884D01*
X24528011Y-15293884D02*
X24508963Y-15322455D01*
X24508963Y-15322455D02*
X24489915Y-15341503D01*
X24489915Y-15341503D02*
X24470868Y-15351027D01*
X24813725Y-15484360D02*
X24832773Y-15493884D01*
X24832773Y-15493884D02*
X24870868Y-15493884D01*
X24870868Y-15493884D02*
X24889915Y-15484360D01*
X24889915Y-15484360D02*
X24899439Y-15465312D01*
X24899439Y-15465312D02*
X24899439Y-15455788D01*
X24899439Y-15455788D02*
X24889915Y-15436741D01*
X24889915Y-15436741D02*
X24870868Y-15427217D01*
X24870868Y-15427217D02*
X24842296Y-15427217D01*
X24842296Y-15427217D02*
X24823249Y-15417693D01*
X24823249Y-15417693D02*
X24813725Y-15398646D01*
X24813725Y-15398646D02*
X24813725Y-15389122D01*
X24813725Y-15389122D02*
X24823249Y-15370074D01*
X24823249Y-15370074D02*
X24842296Y-15360550D01*
X24842296Y-15360550D02*
X24870868Y-15360550D01*
X24870868Y-15360550D02*
X24889915Y-15370074D01*
X25013725Y-15493884D02*
X24994677Y-15484360D01*
X24994677Y-15484360D02*
X24985154Y-15465312D01*
X24985154Y-15465312D02*
X24985154Y-15293884D01*
X25118487Y-15493884D02*
X25099439Y-15484360D01*
X25099439Y-15484360D02*
X25089915Y-15474836D01*
X25089915Y-15474836D02*
X25080392Y-15455788D01*
X25080392Y-15455788D02*
X25080392Y-15398646D01*
X25080392Y-15398646D02*
X25089915Y-15379598D01*
X25089915Y-15379598D02*
X25099439Y-15370074D01*
X25099439Y-15370074D02*
X25118487Y-15360550D01*
X25118487Y-15360550D02*
X25147058Y-15360550D01*
X25147058Y-15360550D02*
X25166106Y-15370074D01*
X25166106Y-15370074D02*
X25175630Y-15379598D01*
X25175630Y-15379598D02*
X25185154Y-15398646D01*
X25185154Y-15398646D02*
X25185154Y-15455788D01*
X25185154Y-15455788D02*
X25175630Y-15474836D01*
X25175630Y-15474836D02*
X25166106Y-15484360D01*
X25166106Y-15484360D02*
X25147058Y-15493884D01*
X25147058Y-15493884D02*
X25118487Y-15493884D01*
X25242296Y-15360550D02*
X25318487Y-15360550D01*
X25270868Y-15293884D02*
X25270868Y-15465312D01*
X25270868Y-15465312D02*
X25280392Y-15484360D01*
X25280392Y-15484360D02*
X25299439Y-15493884D01*
X25299439Y-15493884D02*
X25318487Y-15493884D01*
X25366106Y-15570074D02*
X25375630Y-15560550D01*
X25375630Y-15560550D02*
X25394677Y-15531979D01*
X25394677Y-15531979D02*
X25404201Y-15512931D01*
X25404201Y-15512931D02*
X25413725Y-15484360D01*
X25413725Y-15484360D02*
X25423249Y-15436741D01*
X25423249Y-15436741D02*
X25423249Y-15398646D01*
X25423249Y-15398646D02*
X25413725Y-15351027D01*
X25413725Y-15351027D02*
X25404201Y-15322455D01*
X25404201Y-15322455D02*
X25394677Y-15303408D01*
X25394677Y-15303408D02*
X25375630Y-15274836D01*
X25375630Y-15274836D02*
X25366106Y-15265312D01*
X25728011Y-15570074D02*
X25718487Y-15560550D01*
X25718487Y-15560550D02*
X25699439Y-15531979D01*
X25699439Y-15531979D02*
X25689915Y-15512931D01*
X25689915Y-15512931D02*
X25680392Y-15484360D01*
X25680392Y-15484360D02*
X25670868Y-15436741D01*
X25670868Y-15436741D02*
X25670868Y-15398646D01*
X25670868Y-15398646D02*
X25680392Y-15351027D01*
X25680392Y-15351027D02*
X25689915Y-15322455D01*
X25689915Y-15322455D02*
X25699439Y-15303408D01*
X25699439Y-15303408D02*
X25718487Y-15274836D01*
X25718487Y-15274836D02*
X25728011Y-15265312D01*
X25804201Y-15360550D02*
X25804201Y-15493884D01*
X25804201Y-15379598D02*
X25813725Y-15370074D01*
X25813725Y-15370074D02*
X25832773Y-15360550D01*
X25832773Y-15360550D02*
X25861344Y-15360550D01*
X25861344Y-15360550D02*
X25880392Y-15370074D01*
X25880392Y-15370074D02*
X25889915Y-15389122D01*
X25889915Y-15389122D02*
X25889915Y-15493884D01*
X26013725Y-15493884D02*
X25994677Y-15484360D01*
X25994677Y-15484360D02*
X25985154Y-15474836D01*
X25985154Y-15474836D02*
X25975630Y-15455788D01*
X25975630Y-15455788D02*
X25975630Y-15398646D01*
X25975630Y-15398646D02*
X25985154Y-15379598D01*
X25985154Y-15379598D02*
X25994677Y-15370074D01*
X25994677Y-15370074D02*
X26013725Y-15360550D01*
X26013725Y-15360550D02*
X26042296Y-15360550D01*
X26042296Y-15360550D02*
X26061344Y-15370074D01*
X26061344Y-15370074D02*
X26070868Y-15379598D01*
X26070868Y-15379598D02*
X26080392Y-15398646D01*
X26080392Y-15398646D02*
X26080392Y-15455788D01*
X26080392Y-15455788D02*
X26070868Y-15474836D01*
X26070868Y-15474836D02*
X26061344Y-15484360D01*
X26061344Y-15484360D02*
X26042296Y-15493884D01*
X26042296Y-15493884D02*
X26013725Y-15493884D01*
X26137535Y-15360550D02*
X26213725Y-15360550D01*
X26166106Y-15293884D02*
X26166106Y-15465312D01*
X26166106Y-15465312D02*
X26175630Y-15484360D01*
X26175630Y-15484360D02*
X26194677Y-15493884D01*
X26194677Y-15493884D02*
X26213725Y-15493884D01*
X26432773Y-15360550D02*
X26432773Y-15560550D01*
X26432773Y-15370074D02*
X26451820Y-15360550D01*
X26451820Y-15360550D02*
X26489916Y-15360550D01*
X26489916Y-15360550D02*
X26508963Y-15370074D01*
X26508963Y-15370074D02*
X26518487Y-15379598D01*
X26518487Y-15379598D02*
X26528011Y-15398646D01*
X26528011Y-15398646D02*
X26528011Y-15455788D01*
X26528011Y-15455788D02*
X26518487Y-15474836D01*
X26518487Y-15474836D02*
X26508963Y-15484360D01*
X26508963Y-15484360D02*
X26489916Y-15493884D01*
X26489916Y-15493884D02*
X26451820Y-15493884D01*
X26451820Y-15493884D02*
X26432773Y-15484360D01*
X26642296Y-15493884D02*
X26623249Y-15484360D01*
X26623249Y-15484360D02*
X26613725Y-15465312D01*
X26613725Y-15465312D02*
X26613725Y-15293884D01*
X26804201Y-15493884D02*
X26804201Y-15389122D01*
X26804201Y-15389122D02*
X26794677Y-15370074D01*
X26794677Y-15370074D02*
X26775630Y-15360550D01*
X26775630Y-15360550D02*
X26737535Y-15360550D01*
X26737535Y-15360550D02*
X26718487Y-15370074D01*
X26804201Y-15484360D02*
X26785154Y-15493884D01*
X26785154Y-15493884D02*
X26737535Y-15493884D01*
X26737535Y-15493884D02*
X26718487Y-15484360D01*
X26718487Y-15484360D02*
X26708963Y-15465312D01*
X26708963Y-15465312D02*
X26708963Y-15446265D01*
X26708963Y-15446265D02*
X26718487Y-15427217D01*
X26718487Y-15427217D02*
X26737535Y-15417693D01*
X26737535Y-15417693D02*
X26785154Y-15417693D01*
X26785154Y-15417693D02*
X26804201Y-15408169D01*
X26870868Y-15360550D02*
X26947058Y-15360550D01*
X26899439Y-15293884D02*
X26899439Y-15465312D01*
X26899439Y-15465312D02*
X26908963Y-15484360D01*
X26908963Y-15484360D02*
X26928011Y-15493884D01*
X26928011Y-15493884D02*
X26947058Y-15493884D01*
X27089916Y-15484360D02*
X27070868Y-15493884D01*
X27070868Y-15493884D02*
X27032773Y-15493884D01*
X27032773Y-15493884D02*
X27013725Y-15484360D01*
X27013725Y-15484360D02*
X27004201Y-15465312D01*
X27004201Y-15465312D02*
X27004201Y-15389122D01*
X27004201Y-15389122D02*
X27013725Y-15370074D01*
X27013725Y-15370074D02*
X27032773Y-15360550D01*
X27032773Y-15360550D02*
X27070868Y-15360550D01*
X27070868Y-15360550D02*
X27089916Y-15370074D01*
X27089916Y-15370074D02*
X27099439Y-15389122D01*
X27099439Y-15389122D02*
X27099439Y-15408169D01*
X27099439Y-15408169D02*
X27004201Y-15427217D01*
X27270868Y-15493884D02*
X27270868Y-15293884D01*
X27270868Y-15484360D02*
X27251820Y-15493884D01*
X27251820Y-15493884D02*
X27213725Y-15493884D01*
X27213725Y-15493884D02*
X27194677Y-15484360D01*
X27194677Y-15484360D02*
X27185154Y-15474836D01*
X27185154Y-15474836D02*
X27175630Y-15455788D01*
X27175630Y-15455788D02*
X27175630Y-15398646D01*
X27175630Y-15398646D02*
X27185154Y-15379598D01*
X27185154Y-15379598D02*
X27194677Y-15370074D01*
X27194677Y-15370074D02*
X27213725Y-15360550D01*
X27213725Y-15360550D02*
X27251820Y-15360550D01*
X27251820Y-15360550D02*
X27270868Y-15370074D01*
X27347058Y-15570074D02*
X27356582Y-15560550D01*
X27356582Y-15560550D02*
X27375630Y-15531979D01*
X27375630Y-15531979D02*
X27385154Y-15512931D01*
X27385154Y-15512931D02*
X27394677Y-15484360D01*
X27394677Y-15484360D02*
X27404201Y-15436741D01*
X27404201Y-15436741D02*
X27404201Y-15398646D01*
X27404201Y-15398646D02*
X27394677Y-15351027D01*
X27394677Y-15351027D02*
X27385154Y-15322455D01*
X27385154Y-15322455D02*
X27375630Y-15303408D01*
X27375630Y-15303408D02*
X27356582Y-15274836D01*
X27356582Y-15274836D02*
X27347058Y-15265312D01*
D10*
X19133900Y-15666400D02*
G75*
G02*
X19034840Y-15666400I-49530J0D01*
G01*
X19034840Y-15666400D02*
G75*
G02*
X19133900Y-15666400I49530J0D01*
G01*
D11*
X19432772Y-15557884D02*
X19451820Y-15557884D01*
X19451820Y-15557884D02*
X19470867Y-15567408D01*
X19470867Y-15567408D02*
X19480391Y-15576931D01*
X19480391Y-15576931D02*
X19489915Y-15595979D01*
X19489915Y-15595979D02*
X19499439Y-15634074D01*
X19499439Y-15634074D02*
X19499439Y-15681693D01*
X19499439Y-15681693D02*
X19489915Y-15719788D01*
X19489915Y-15719788D02*
X19480391Y-15738836D01*
X19480391Y-15738836D02*
X19470867Y-15748360D01*
X19470867Y-15748360D02*
X19451820Y-15757884D01*
X19451820Y-15757884D02*
X19432772Y-15757884D01*
X19432772Y-15757884D02*
X19413724Y-15748360D01*
X19413724Y-15748360D02*
X19404201Y-15738836D01*
X19404201Y-15738836D02*
X19394677Y-15719788D01*
X19394677Y-15719788D02*
X19385153Y-15681693D01*
X19385153Y-15681693D02*
X19385153Y-15634074D01*
X19385153Y-15634074D02*
X19394677Y-15595979D01*
X19394677Y-15595979D02*
X19404201Y-15576931D01*
X19404201Y-15576931D02*
X19413724Y-15567408D01*
X19413724Y-15567408D02*
X19432772Y-15557884D01*
X19585153Y-15738836D02*
X19594677Y-15748360D01*
X19594677Y-15748360D02*
X19585153Y-15757884D01*
X19585153Y-15757884D02*
X19575629Y-15748360D01*
X19575629Y-15748360D02*
X19585153Y-15738836D01*
X19585153Y-15738836D02*
X19585153Y-15757884D01*
X19689915Y-15757884D02*
X19728010Y-15757884D01*
X19728010Y-15757884D02*
X19747058Y-15748360D01*
X19747058Y-15748360D02*
X19756582Y-15738836D01*
X19756582Y-15738836D02*
X19775629Y-15710265D01*
X19775629Y-15710265D02*
X19785153Y-15672169D01*
X19785153Y-15672169D02*
X19785153Y-15595979D01*
X19785153Y-15595979D02*
X19775629Y-15576931D01*
X19775629Y-15576931D02*
X19766105Y-15567408D01*
X19766105Y-15567408D02*
X19747058Y-15557884D01*
X19747058Y-15557884D02*
X19708963Y-15557884D01*
X19708963Y-15557884D02*
X19689915Y-15567408D01*
X19689915Y-15567408D02*
X19680391Y-15576931D01*
X19680391Y-15576931D02*
X19670867Y-15595979D01*
X19670867Y-15595979D02*
X19670867Y-15643598D01*
X19670867Y-15643598D02*
X19680391Y-15662646D01*
X19680391Y-15662646D02*
X19689915Y-15672169D01*
X19689915Y-15672169D02*
X19708963Y-15681693D01*
X19708963Y-15681693D02*
X19747058Y-15681693D01*
X19747058Y-15681693D02*
X19766105Y-15672169D01*
X19766105Y-15672169D02*
X19775629Y-15662646D01*
X19775629Y-15662646D02*
X19785153Y-15643598D01*
X19880391Y-15757884D02*
X19918486Y-15757884D01*
X19918486Y-15757884D02*
X19937534Y-15748360D01*
X19937534Y-15748360D02*
X19947058Y-15738836D01*
X19947058Y-15738836D02*
X19966105Y-15710265D01*
X19966105Y-15710265D02*
X19975629Y-15672169D01*
X19975629Y-15672169D02*
X19975629Y-15595979D01*
X19975629Y-15595979D02*
X19966105Y-15576931D01*
X19966105Y-15576931D02*
X19956582Y-15567408D01*
X19956582Y-15567408D02*
X19937534Y-15557884D01*
X19937534Y-15557884D02*
X19899439Y-15557884D01*
X19899439Y-15557884D02*
X19880391Y-15567408D01*
X19880391Y-15567408D02*
X19870867Y-15576931D01*
X19870867Y-15576931D02*
X19861344Y-15595979D01*
X19861344Y-15595979D02*
X19861344Y-15643598D01*
X19861344Y-15643598D02*
X19870867Y-15662646D01*
X19870867Y-15662646D02*
X19880391Y-15672169D01*
X19880391Y-15672169D02*
X19899439Y-15681693D01*
X19899439Y-15681693D02*
X19937534Y-15681693D01*
X19937534Y-15681693D02*
X19956582Y-15672169D01*
X19956582Y-15672169D02*
X19966105Y-15662646D01*
X19966105Y-15662646D02*
X19975629Y-15643598D01*
X20166105Y-15757884D02*
X20051820Y-15757884D01*
X20108963Y-15757884D02*
X20108963Y-15557884D01*
X20108963Y-15557884D02*
X20089915Y-15586455D01*
X20089915Y-15586455D02*
X20070867Y-15605503D01*
X20070867Y-15605503D02*
X20051820Y-15615027D01*
X20251820Y-15757884D02*
X20251820Y-15624550D01*
X20251820Y-15643598D02*
X20261344Y-15634074D01*
X20261344Y-15634074D02*
X20280391Y-15624550D01*
X20280391Y-15624550D02*
X20308963Y-15624550D01*
X20308963Y-15624550D02*
X20328010Y-15634074D01*
X20328010Y-15634074D02*
X20337534Y-15653122D01*
X20337534Y-15653122D02*
X20337534Y-15757884D01*
X20337534Y-15653122D02*
X20347058Y-15634074D01*
X20347058Y-15634074D02*
X20366105Y-15624550D01*
X20366105Y-15624550D02*
X20394677Y-15624550D01*
X20394677Y-15624550D02*
X20413725Y-15634074D01*
X20413725Y-15634074D02*
X20423248Y-15653122D01*
X20423248Y-15653122D02*
X20423248Y-15757884D01*
X20518486Y-15757884D02*
X20518486Y-15624550D01*
X20518486Y-15643598D02*
X20528010Y-15634074D01*
X20528010Y-15634074D02*
X20547058Y-15624550D01*
X20547058Y-15624550D02*
X20575629Y-15624550D01*
X20575629Y-15624550D02*
X20594677Y-15634074D01*
X20594677Y-15634074D02*
X20604201Y-15653122D01*
X20604201Y-15653122D02*
X20604201Y-15757884D01*
X20604201Y-15653122D02*
X20613725Y-15634074D01*
X20613725Y-15634074D02*
X20632772Y-15624550D01*
X20632772Y-15624550D02*
X20661344Y-15624550D01*
X20661344Y-15624550D02*
X20680391Y-15634074D01*
X20680391Y-15634074D02*
X20689915Y-15653122D01*
X20689915Y-15653122D02*
X20689915Y-15757884D01*
X21080391Y-15548360D02*
X20908963Y-15805503D01*
X21337534Y-15557884D02*
X21356582Y-15557884D01*
X21356582Y-15557884D02*
X21375629Y-15567408D01*
X21375629Y-15567408D02*
X21385153Y-15576931D01*
X21385153Y-15576931D02*
X21394677Y-15595979D01*
X21394677Y-15595979D02*
X21404201Y-15634074D01*
X21404201Y-15634074D02*
X21404201Y-15681693D01*
X21404201Y-15681693D02*
X21394677Y-15719788D01*
X21394677Y-15719788D02*
X21385153Y-15738836D01*
X21385153Y-15738836D02*
X21375629Y-15748360D01*
X21375629Y-15748360D02*
X21356582Y-15757884D01*
X21356582Y-15757884D02*
X21337534Y-15757884D01*
X21337534Y-15757884D02*
X21318487Y-15748360D01*
X21318487Y-15748360D02*
X21308963Y-15738836D01*
X21308963Y-15738836D02*
X21299439Y-15719788D01*
X21299439Y-15719788D02*
X21289915Y-15681693D01*
X21289915Y-15681693D02*
X21289915Y-15634074D01*
X21289915Y-15634074D02*
X21299439Y-15595979D01*
X21299439Y-15595979D02*
X21308963Y-15576931D01*
X21308963Y-15576931D02*
X21318487Y-15567408D01*
X21318487Y-15567408D02*
X21337534Y-15557884D01*
X21489915Y-15738836D02*
X21499439Y-15748360D01*
X21499439Y-15748360D02*
X21489915Y-15757884D01*
X21489915Y-15757884D02*
X21480391Y-15748360D01*
X21480391Y-15748360D02*
X21489915Y-15738836D01*
X21489915Y-15738836D02*
X21489915Y-15757884D01*
X21623248Y-15557884D02*
X21642296Y-15557884D01*
X21642296Y-15557884D02*
X21661344Y-15567408D01*
X21661344Y-15567408D02*
X21670868Y-15576931D01*
X21670868Y-15576931D02*
X21680391Y-15595979D01*
X21680391Y-15595979D02*
X21689915Y-15634074D01*
X21689915Y-15634074D02*
X21689915Y-15681693D01*
X21689915Y-15681693D02*
X21680391Y-15719788D01*
X21680391Y-15719788D02*
X21670868Y-15738836D01*
X21670868Y-15738836D02*
X21661344Y-15748360D01*
X21661344Y-15748360D02*
X21642296Y-15757884D01*
X21642296Y-15757884D02*
X21623248Y-15757884D01*
X21623248Y-15757884D02*
X21604201Y-15748360D01*
X21604201Y-15748360D02*
X21594677Y-15738836D01*
X21594677Y-15738836D02*
X21585153Y-15719788D01*
X21585153Y-15719788D02*
X21575629Y-15681693D01*
X21575629Y-15681693D02*
X21575629Y-15634074D01*
X21575629Y-15634074D02*
X21585153Y-15595979D01*
X21585153Y-15595979D02*
X21594677Y-15576931D01*
X21594677Y-15576931D02*
X21604201Y-15567408D01*
X21604201Y-15567408D02*
X21623248Y-15557884D01*
X21756582Y-15557884D02*
X21880391Y-15557884D01*
X21880391Y-15557884D02*
X21813725Y-15634074D01*
X21813725Y-15634074D02*
X21842296Y-15634074D01*
X21842296Y-15634074D02*
X21861344Y-15643598D01*
X21861344Y-15643598D02*
X21870868Y-15653122D01*
X21870868Y-15653122D02*
X21880391Y-15672169D01*
X21880391Y-15672169D02*
X21880391Y-15719788D01*
X21880391Y-15719788D02*
X21870868Y-15738836D01*
X21870868Y-15738836D02*
X21861344Y-15748360D01*
X21861344Y-15748360D02*
X21842296Y-15757884D01*
X21842296Y-15757884D02*
X21785153Y-15757884D01*
X21785153Y-15757884D02*
X21766106Y-15748360D01*
X21766106Y-15748360D02*
X21756582Y-15738836D01*
X21975629Y-15757884D02*
X22013725Y-15757884D01*
X22013725Y-15757884D02*
X22032772Y-15748360D01*
X22032772Y-15748360D02*
X22042296Y-15738836D01*
X22042296Y-15738836D02*
X22061344Y-15710265D01*
X22061344Y-15710265D02*
X22070868Y-15672169D01*
X22070868Y-15672169D02*
X22070868Y-15595979D01*
X22070868Y-15595979D02*
X22061344Y-15576931D01*
X22061344Y-15576931D02*
X22051820Y-15567408D01*
X22051820Y-15567408D02*
X22032772Y-15557884D01*
X22032772Y-15557884D02*
X21994677Y-15557884D01*
X21994677Y-15557884D02*
X21975629Y-15567408D01*
X21975629Y-15567408D02*
X21966106Y-15576931D01*
X21966106Y-15576931D02*
X21956582Y-15595979D01*
X21956582Y-15595979D02*
X21956582Y-15643598D01*
X21956582Y-15643598D02*
X21966106Y-15662646D01*
X21966106Y-15662646D02*
X21975629Y-15672169D01*
X21975629Y-15672169D02*
X21994677Y-15681693D01*
X21994677Y-15681693D02*
X22032772Y-15681693D01*
X22032772Y-15681693D02*
X22051820Y-15672169D01*
X22051820Y-15672169D02*
X22061344Y-15662646D01*
X22061344Y-15662646D02*
X22070868Y-15643598D01*
X22194677Y-15557884D02*
X22213725Y-15557884D01*
X22213725Y-15557884D02*
X22232772Y-15567408D01*
X22232772Y-15567408D02*
X22242296Y-15576931D01*
X22242296Y-15576931D02*
X22251820Y-15595979D01*
X22251820Y-15595979D02*
X22261344Y-15634074D01*
X22261344Y-15634074D02*
X22261344Y-15681693D01*
X22261344Y-15681693D02*
X22251820Y-15719788D01*
X22251820Y-15719788D02*
X22242296Y-15738836D01*
X22242296Y-15738836D02*
X22232772Y-15748360D01*
X22232772Y-15748360D02*
X22213725Y-15757884D01*
X22213725Y-15757884D02*
X22194677Y-15757884D01*
X22194677Y-15757884D02*
X22175629Y-15748360D01*
X22175629Y-15748360D02*
X22166106Y-15738836D01*
X22166106Y-15738836D02*
X22156582Y-15719788D01*
X22156582Y-15719788D02*
X22147058Y-15681693D01*
X22147058Y-15681693D02*
X22147058Y-15634074D01*
X22147058Y-15634074D02*
X22156582Y-15595979D01*
X22156582Y-15595979D02*
X22166106Y-15576931D01*
X22166106Y-15576931D02*
X22175629Y-15567408D01*
X22175629Y-15567408D02*
X22194677Y-15557884D01*
X22337534Y-15557884D02*
X22337534Y-15595979D01*
X22413725Y-15557884D02*
X22413725Y-15595979D01*
X22708963Y-15834074D02*
X22699439Y-15824550D01*
X22699439Y-15824550D02*
X22680391Y-15795979D01*
X22680391Y-15795979D02*
X22670868Y-15776931D01*
X22670868Y-15776931D02*
X22661344Y-15748360D01*
X22661344Y-15748360D02*
X22651820Y-15700741D01*
X22651820Y-15700741D02*
X22651820Y-15662646D01*
X22651820Y-15662646D02*
X22661344Y-15615027D01*
X22661344Y-15615027D02*
X22670868Y-15586455D01*
X22670868Y-15586455D02*
X22680391Y-15567408D01*
X22680391Y-15567408D02*
X22699439Y-15538836D01*
X22699439Y-15538836D02*
X22708963Y-15529312D01*
X22766106Y-15557884D02*
X22889915Y-15557884D01*
X22889915Y-15557884D02*
X22823248Y-15634074D01*
X22823248Y-15634074D02*
X22851820Y-15634074D01*
X22851820Y-15634074D02*
X22870868Y-15643598D01*
X22870868Y-15643598D02*
X22880391Y-15653122D01*
X22880391Y-15653122D02*
X22889915Y-15672169D01*
X22889915Y-15672169D02*
X22889915Y-15719788D01*
X22889915Y-15719788D02*
X22880391Y-15738836D01*
X22880391Y-15738836D02*
X22870868Y-15748360D01*
X22870868Y-15748360D02*
X22851820Y-15757884D01*
X22851820Y-15757884D02*
X22794677Y-15757884D01*
X22794677Y-15757884D02*
X22775629Y-15748360D01*
X22775629Y-15748360D02*
X22766106Y-15738836D01*
X23128010Y-15757884D02*
X23128010Y-15557884D01*
X23213725Y-15757884D02*
X23213725Y-15653122D01*
X23213725Y-15653122D02*
X23204201Y-15634074D01*
X23204201Y-15634074D02*
X23185153Y-15624550D01*
X23185153Y-15624550D02*
X23156582Y-15624550D01*
X23156582Y-15624550D02*
X23137534Y-15634074D01*
X23137534Y-15634074D02*
X23128010Y-15643598D01*
X23337534Y-15757884D02*
X23318487Y-15748360D01*
X23318487Y-15748360D02*
X23308963Y-15738836D01*
X23308963Y-15738836D02*
X23299439Y-15719788D01*
X23299439Y-15719788D02*
X23299439Y-15662646D01*
X23299439Y-15662646D02*
X23308963Y-15643598D01*
X23308963Y-15643598D02*
X23318487Y-15634074D01*
X23318487Y-15634074D02*
X23337534Y-15624550D01*
X23337534Y-15624550D02*
X23366106Y-15624550D01*
X23366106Y-15624550D02*
X23385153Y-15634074D01*
X23385153Y-15634074D02*
X23394677Y-15643598D01*
X23394677Y-15643598D02*
X23404201Y-15662646D01*
X23404201Y-15662646D02*
X23404201Y-15719788D01*
X23404201Y-15719788D02*
X23394677Y-15738836D01*
X23394677Y-15738836D02*
X23385153Y-15748360D01*
X23385153Y-15748360D02*
X23366106Y-15757884D01*
X23366106Y-15757884D02*
X23337534Y-15757884D01*
X23518487Y-15757884D02*
X23499439Y-15748360D01*
X23499439Y-15748360D02*
X23489915Y-15729312D01*
X23489915Y-15729312D02*
X23489915Y-15557884D01*
X23670868Y-15748360D02*
X23651820Y-15757884D01*
X23651820Y-15757884D02*
X23613725Y-15757884D01*
X23613725Y-15757884D02*
X23594677Y-15748360D01*
X23594677Y-15748360D02*
X23585153Y-15729312D01*
X23585153Y-15729312D02*
X23585153Y-15653122D01*
X23585153Y-15653122D02*
X23594677Y-15634074D01*
X23594677Y-15634074D02*
X23613725Y-15624550D01*
X23613725Y-15624550D02*
X23651820Y-15624550D01*
X23651820Y-15624550D02*
X23670868Y-15634074D01*
X23670868Y-15634074D02*
X23680391Y-15653122D01*
X23680391Y-15653122D02*
X23680391Y-15672169D01*
X23680391Y-15672169D02*
X23585153Y-15691217D01*
X23756582Y-15748360D02*
X23775630Y-15757884D01*
X23775630Y-15757884D02*
X23813725Y-15757884D01*
X23813725Y-15757884D02*
X23832772Y-15748360D01*
X23832772Y-15748360D02*
X23842296Y-15729312D01*
X23842296Y-15729312D02*
X23842296Y-15719788D01*
X23842296Y-15719788D02*
X23832772Y-15700741D01*
X23832772Y-15700741D02*
X23813725Y-15691217D01*
X23813725Y-15691217D02*
X23785153Y-15691217D01*
X23785153Y-15691217D02*
X23766106Y-15681693D01*
X23766106Y-15681693D02*
X23756582Y-15662646D01*
X23756582Y-15662646D02*
X23756582Y-15653122D01*
X23756582Y-15653122D02*
X23766106Y-15634074D01*
X23766106Y-15634074D02*
X23785153Y-15624550D01*
X23785153Y-15624550D02*
X23813725Y-15624550D01*
X23813725Y-15624550D02*
X23832772Y-15634074D01*
X23908963Y-15834074D02*
X23918487Y-15824550D01*
X23918487Y-15824550D02*
X23937534Y-15795979D01*
X23937534Y-15795979D02*
X23947058Y-15776931D01*
X23947058Y-15776931D02*
X23956582Y-15748360D01*
X23956582Y-15748360D02*
X23966106Y-15700741D01*
X23966106Y-15700741D02*
X23966106Y-15662646D01*
X23966106Y-15662646D02*
X23956582Y-15615027D01*
X23956582Y-15615027D02*
X23947058Y-15586455D01*
X23947058Y-15586455D02*
X23937534Y-15567408D01*
X23937534Y-15567408D02*
X23918487Y-15538836D01*
X23918487Y-15538836D02*
X23908963Y-15529312D01*
X24270868Y-15834074D02*
X24261344Y-15824550D01*
X24261344Y-15824550D02*
X24242296Y-15795979D01*
X24242296Y-15795979D02*
X24232772Y-15776931D01*
X24232772Y-15776931D02*
X24223249Y-15748360D01*
X24223249Y-15748360D02*
X24213725Y-15700741D01*
X24213725Y-15700741D02*
X24213725Y-15662646D01*
X24213725Y-15662646D02*
X24223249Y-15615027D01*
X24223249Y-15615027D02*
X24232772Y-15586455D01*
X24232772Y-15586455D02*
X24242296Y-15567408D01*
X24242296Y-15567408D02*
X24261344Y-15538836D01*
X24261344Y-15538836D02*
X24270868Y-15529312D01*
X24347058Y-15624550D02*
X24347058Y-15757884D01*
X24347058Y-15643598D02*
X24356582Y-15634074D01*
X24356582Y-15634074D02*
X24375630Y-15624550D01*
X24375630Y-15624550D02*
X24404201Y-15624550D01*
X24404201Y-15624550D02*
X24423249Y-15634074D01*
X24423249Y-15634074D02*
X24432772Y-15653122D01*
X24432772Y-15653122D02*
X24432772Y-15757884D01*
X24556582Y-15757884D02*
X24537534Y-15748360D01*
X24537534Y-15748360D02*
X24528011Y-15738836D01*
X24528011Y-15738836D02*
X24518487Y-15719788D01*
X24518487Y-15719788D02*
X24518487Y-15662646D01*
X24518487Y-15662646D02*
X24528011Y-15643598D01*
X24528011Y-15643598D02*
X24537534Y-15634074D01*
X24537534Y-15634074D02*
X24556582Y-15624550D01*
X24556582Y-15624550D02*
X24585153Y-15624550D01*
X24585153Y-15624550D02*
X24604201Y-15634074D01*
X24604201Y-15634074D02*
X24613725Y-15643598D01*
X24613725Y-15643598D02*
X24623249Y-15662646D01*
X24623249Y-15662646D02*
X24623249Y-15719788D01*
X24623249Y-15719788D02*
X24613725Y-15738836D01*
X24613725Y-15738836D02*
X24604201Y-15748360D01*
X24604201Y-15748360D02*
X24585153Y-15757884D01*
X24585153Y-15757884D02*
X24556582Y-15757884D01*
X24680392Y-15624550D02*
X24756582Y-15624550D01*
X24708963Y-15557884D02*
X24708963Y-15729312D01*
X24708963Y-15729312D02*
X24718487Y-15748360D01*
X24718487Y-15748360D02*
X24737534Y-15757884D01*
X24737534Y-15757884D02*
X24756582Y-15757884D01*
X24975630Y-15624550D02*
X24975630Y-15824550D01*
X24975630Y-15634074D02*
X24994677Y-15624550D01*
X24994677Y-15624550D02*
X25032773Y-15624550D01*
X25032773Y-15624550D02*
X25051820Y-15634074D01*
X25051820Y-15634074D02*
X25061344Y-15643598D01*
X25061344Y-15643598D02*
X25070868Y-15662646D01*
X25070868Y-15662646D02*
X25070868Y-15719788D01*
X25070868Y-15719788D02*
X25061344Y-15738836D01*
X25061344Y-15738836D02*
X25051820Y-15748360D01*
X25051820Y-15748360D02*
X25032773Y-15757884D01*
X25032773Y-15757884D02*
X24994677Y-15757884D01*
X24994677Y-15757884D02*
X24975630Y-15748360D01*
X25185153Y-15757884D02*
X25166106Y-15748360D01*
X25166106Y-15748360D02*
X25156582Y-15729312D01*
X25156582Y-15729312D02*
X25156582Y-15557884D01*
X25347058Y-15757884D02*
X25347058Y-15653122D01*
X25347058Y-15653122D02*
X25337534Y-15634074D01*
X25337534Y-15634074D02*
X25318487Y-15624550D01*
X25318487Y-15624550D02*
X25280392Y-15624550D01*
X25280392Y-15624550D02*
X25261344Y-15634074D01*
X25347058Y-15748360D02*
X25328011Y-15757884D01*
X25328011Y-15757884D02*
X25280392Y-15757884D01*
X25280392Y-15757884D02*
X25261344Y-15748360D01*
X25261344Y-15748360D02*
X25251820Y-15729312D01*
X25251820Y-15729312D02*
X25251820Y-15710265D01*
X25251820Y-15710265D02*
X25261344Y-15691217D01*
X25261344Y-15691217D02*
X25280392Y-15681693D01*
X25280392Y-15681693D02*
X25328011Y-15681693D01*
X25328011Y-15681693D02*
X25347058Y-15672169D01*
X25413725Y-15624550D02*
X25489915Y-15624550D01*
X25442296Y-15557884D02*
X25442296Y-15729312D01*
X25442296Y-15729312D02*
X25451820Y-15748360D01*
X25451820Y-15748360D02*
X25470868Y-15757884D01*
X25470868Y-15757884D02*
X25489915Y-15757884D01*
X25632773Y-15748360D02*
X25613725Y-15757884D01*
X25613725Y-15757884D02*
X25575630Y-15757884D01*
X25575630Y-15757884D02*
X25556582Y-15748360D01*
X25556582Y-15748360D02*
X25547058Y-15729312D01*
X25547058Y-15729312D02*
X25547058Y-15653122D01*
X25547058Y-15653122D02*
X25556582Y-15634074D01*
X25556582Y-15634074D02*
X25575630Y-15624550D01*
X25575630Y-15624550D02*
X25613725Y-15624550D01*
X25613725Y-15624550D02*
X25632773Y-15634074D01*
X25632773Y-15634074D02*
X25642296Y-15653122D01*
X25642296Y-15653122D02*
X25642296Y-15672169D01*
X25642296Y-15672169D02*
X25547058Y-15691217D01*
X25813725Y-15757884D02*
X25813725Y-15557884D01*
X25813725Y-15748360D02*
X25794677Y-15757884D01*
X25794677Y-15757884D02*
X25756582Y-15757884D01*
X25756582Y-15757884D02*
X25737534Y-15748360D01*
X25737534Y-15748360D02*
X25728011Y-15738836D01*
X25728011Y-15738836D02*
X25718487Y-15719788D01*
X25718487Y-15719788D02*
X25718487Y-15662646D01*
X25718487Y-15662646D02*
X25728011Y-15643598D01*
X25728011Y-15643598D02*
X25737534Y-15634074D01*
X25737534Y-15634074D02*
X25756582Y-15624550D01*
X25756582Y-15624550D02*
X25794677Y-15624550D01*
X25794677Y-15624550D02*
X25813725Y-15634074D01*
X25889915Y-15834074D02*
X25899439Y-15824550D01*
X25899439Y-15824550D02*
X25918487Y-15795979D01*
X25918487Y-15795979D02*
X25928011Y-15776931D01*
X25928011Y-15776931D02*
X25937534Y-15748360D01*
X25937534Y-15748360D02*
X25947058Y-15700741D01*
X25947058Y-15700741D02*
X25947058Y-15662646D01*
X25947058Y-15662646D02*
X25937534Y-15615027D01*
X25937534Y-15615027D02*
X25928011Y-15586455D01*
X25928011Y-15586455D02*
X25918487Y-15567408D01*
X25918487Y-15567408D02*
X25899439Y-15538836D01*
X25899439Y-15538836D02*
X25889915Y-15529312D01*
M02*
