M48
; DRILL file {KiCad 8.0.1} date 2024-04-03T20:43:05-0700
; FORMAT={-:-/ absolute / inch / decimal}
; #@! TF.CreationDate,2024-04-03T20:43:05-07:00
; #@! TF.GenerationSoftware,Kicad,Pcbnew,8.0.1
; #@! TF.FileFunction,Plated,1,4,PTH
FMAT,2
INCH
; #@! TA.AperFunction,Plated,PTH,ViaDrill
T1C0.0059
; #@! TA.AperFunction,Plated,PTH,ViaDrill
T2C0.0079
; #@! TA.AperFunction,Plated,PTH,ComponentDrill
T3C0.0079
; #@! TA.AperFunction,Plated,PTH,ViaDrill
T4C0.0118
; #@! TA.AperFunction,Plated,PTH,ComponentDrill
T5C0.0236
; #@! TA.AperFunction,Plated,PTH,ComponentDrill
T6C0.0256
; #@! TA.AperFunction,Plated,PTH,ComponentDrill
T7C0.0295
%
G90
G05
T1
X7.9396Y-5.698
X7.9933Y-5.3272
X8.0417Y-5.3165
X8.1063Y-5.285
X8.1287Y-5.2854
T2
X7.7398Y-5.2437
X7.7689Y-5.3039
X7.7701Y-5.1862
X7.851Y-5.133
X7.851Y-5.377
X7.888Y-5.65
X7.907Y-5.672
X7.9142Y-5.2799
X7.9201Y-5.3791
X7.9346Y-5.7823
X7.9421Y-5.4543
X7.946Y-5.431
X7.9575Y-5.3898
X7.9638Y-5.5504
X7.9823Y-5.228
X7.9846Y-5.2799
X7.9886Y-5.1674
X7.9906Y-5.5496
X7.9984Y-5.3866
X8.0071Y-5.439
X8.0162Y-5.7158
X8.0307Y-5.752
X8.0386Y-5.0969
X8.0571Y-5.7827
X8.0673Y-5.2055
X8.074Y-5.6163
X8.0744Y-5.3823
X8.084Y-5.729
X8.0945Y-5.626
X8.1213Y-5.6256
X8.1236Y-5.752
X8.1311Y-5.487
X8.146Y-5.7354
X8.148Y-5.3807
X8.162Y-5.704
X8.2028Y-5.1925
X8.2295Y-5.2827
X8.2417Y-5.2083
X8.25Y-5.7303
X8.264Y-5.602
X8.2736Y-5.2075
X8.276Y-5.68
X8.285Y-5.4433
X8.292Y-5.482
X8.2972Y-5.1925
X8.3055Y-5.7252
X8.3118Y-5.3484
X8.3157Y-5.2079
X8.3161Y-5.3205
X8.3256Y-5.3756
X8.3339Y-5.337
X8.3362Y-5.5343
X8.35Y-5.4201
X8.3563Y-5.2827
X8.3591Y-5.4846
X8.3815Y-5.2102
X8.3862Y-5.5126
X8.4035Y-5.213
X8.4075Y-5.5606
X8.4075Y-5.6917
X8.432Y-5.574
X8.4453Y-5.1378
X8.462Y-5.706
X8.465Y-5.619
X8.4965Y-5.6823
X8.5161Y-5.1756
X8.5299Y-5.576
X8.532Y-5.632
X8.5362Y-5.6531
X8.539Y-5.1756
X8.558Y-5.6539
X8.5882Y-5.5898
X8.5902Y-5.1433
X8.619Y-5.681
X8.626Y-5.5461
X8.6539Y-5.572
X8.6697Y-5.172
X8.6937Y-5.1736
X8.7071Y-5.5114
X8.7244Y-5.5909
X8.7248Y-5.6638
X8.7351Y-5.2488
X8.7366Y-5.3075
X8.7441Y-5.476
X8.7594Y-5.2567
X8.7618Y-5.5224
X8.7752Y-5.3055
X8.7791Y-5.6524
X8.7799Y-5.3874
X8.7819Y-5.1394
X8.7827Y-5.4784
X8.7831Y-5.5154
X8.7874Y-5.2559
X8.7902Y-5.3551
X8.7953Y-5.672
X8.8008Y-5.4614
X8.8016Y-5.4944
X8.8028Y-5.3185
X8.8079Y-5.3886
X8.8087Y-5.5465
X8.811Y-5.2524
X8.811Y-5.6571
X8.8126Y-5.3488
X8.8142Y-5.5685
X8.8197Y-5.2693
X8.8374Y-5.2823
X8.8429Y-5.3614
X8.8433Y-5.6535
X8.8524Y-5.2618
X8.8535Y-5.5673
X8.8583Y-5.6331
X8.8618Y-5.2925
X8.8673Y-5.3449
X8.8756Y-5.1402
X8.887Y-5.2925
X8.8929Y-5.3453
X8.8976Y-5.261
X8.9Y-5.175
X8.9Y-5.225
X8.9122Y-5.2921
X8.9256Y-5.363
X8.9358Y-5.2776
X8.937Y-5.1524
X8.937Y-5.2024
X8.9374Y-5.4486
X8.9374Y-5.4983
X8.9374Y-5.548
X8.9374Y-5.5976
X8.9374Y-5.6473
X8.9374Y-5.697
X8.9402Y-5.2504
X8.9417Y-5.3866
X8.9701Y-5.2555
X8.9717Y-5.3827
X8.975Y-5.075
X8.975Y-5.125
X8.975Y-5.175
X8.975Y-5.225
X8.9756Y-5.4738
X8.9756Y-5.5235
X8.9756Y-5.5732
X8.9756Y-5.6228
X8.9756Y-5.6725
X8.9756Y-5.7222
X8.9756Y-5.7719
X8.976Y-5.4264
X9.0047Y-5.3732
X9.0051Y-5.2646
X9.0134Y-5.1031
X9.0134Y-5.1531
X9.0154Y-5.4478
X9.0154Y-5.4974
X9.0154Y-5.5471
X9.0154Y-5.5968
X9.0154Y-5.6465
X9.0154Y-5.6961
X9.0154Y-5.7458
X9.0185Y-5.202
X9.0378Y-5.3835
X9.0386Y-5.2555
X9.0555Y-5.4736
X9.0555Y-5.5233
X9.0555Y-5.573
X9.0555Y-5.6226
X9.0555Y-5.6723
X9.0555Y-5.722
X9.0555Y-5.7717
X9.0567Y-5.4276
X9.0685Y-5.387
X9.0717Y-5.25
X9.0724Y-5.2783
X9.0854Y-5.3689
X9.0886Y-5.4094
X9.0898Y-5.4528
X9.0898Y-5.5024
X9.0898Y-5.5521
X9.0898Y-5.6018
X9.0898Y-5.6514
X9.0898Y-5.7011
X9.0898Y-5.7508
X9.0937Y-5.2925
T3
X7.9809Y-5.6303
X7.9809Y-5.6697
T4
X7.8618Y-5.3362
X7.8745Y-5.1625
X7.8752Y-5.1945
X7.8854Y-5.4429
X7.8984Y-5.3409
X7.9171Y-5.4221
X7.956Y-5.517
X8.0654Y-5.5161
X8.067Y-5.5531
X8.067Y-5.583
X8.2654Y-5.3765
X8.4846Y-5.2956
X8.4846Y-5.3586
X8.4846Y-5.4226
X8.5476Y-5.2956
X8.5476Y-5.3586
X8.5476Y-5.4226
X8.6106Y-5.2956
X8.6106Y-5.3586
X8.6106Y-5.4226
T6
X8.2Y-5.0746
X8.2Y-5.7742
X8.25Y-5.0746
X8.25Y-5.7742
X8.3Y-5.0746
X8.3Y-5.7742
X8.35Y-5.0746
X8.35Y-5.7742
X8.4Y-5.0746
X8.4Y-5.7742
X8.45Y-5.0746
X8.45Y-5.7742
X8.5Y-5.0746
X8.5Y-5.7742
X8.55Y-5.0746
X8.55Y-5.7742
X8.6Y-5.0746
X8.6Y-5.7742
X8.65Y-5.0746
X8.65Y-5.7742
X8.7Y-5.0746
X8.7Y-5.7742
X8.75Y-5.0746
X8.75Y-5.7742
X8.8Y-5.0746
X8.8Y-5.7742
X8.85Y-5.0746
X8.85Y-5.7742
X8.9Y-5.0746
X8.9Y-5.7742
T7
X7.767Y-5.5713
X7.767Y-5.65
X7.767Y-5.7287
T5
G00X7.6754Y-5.085
M15
G01X7.6242Y-5.085
M16
G05
G00X7.6754Y-5.4252
M15
G01X7.6242Y-5.4252
M16
G05
G00X7.8201Y-5.085
M15
G01X7.7807Y-5.085
M16
G05
G00X7.8201Y-5.4252
M15
G01X7.7807Y-5.4252
M16
G05
M30
